<svg height="118" viewBox="0 0 256 118" width="256" xmlns="http://www.w3.org/2000/svg" xmlns:xlink="http://www.w3.org/1999/xlink"><filter id="a" filterUnits="userSpaceOnUse"><feOffset in="SourceAlpha" result="offset"/><feGaussianBlur result="blur" stdDeviation="3.162"/><feFlood flood-opacity=".23" result="flood"/><feComposite in2="blur" operator="in" result="composite"/><feBlend in="SourceGraphic" result="blend"/></filter><svg height="13.44" viewBox="-1 -1 79 13.44" width="79" y="104.28"><path d="m118.033 233.819a2.4 2.4 0 0 0 -.453-.832 3.79 3.79 0 0 0 -.853-.743 9.531 9.531 0 0 0 -1.336-.712 6.015 6.015 0 0 1 -1.446-.833 1.2 1.2 0 0 1 -.438-.937 1.307 1.307 0 0 1 .408-.96 1.739 1.739 0 0 1 1.269-.405 3.1 3.1 0 0 1 1.15.24 5.141 5.141 0 0 1 1.031.54l.593-1.65a4.508 4.508 0 0 0 -1.2-.563 4.994 4.994 0 0 0 -1.529-.232 4.215 4.215 0 0 0 -1.513.255 3.428 3.428 0 0 0 -1.128.682 2.9 2.9 0 0 0 -.935 2.138 2.83 2.83 0 0 0 .579 1.755 4.8 4.8 0 0 0 2 1.365 8.57 8.57 0 0 1 1.039.51 2.987 2.987 0 0 1 .623.472 1.3 1.3 0 0 1 .3.473 1.633 1.633 0 0 1 .082.525 1.557 1.557 0 0 1 -.1.547 1.219 1.219 0 0 1 -.3.458 1.5 1.5 0 0 1 -.512.315 2.069 2.069 0 0 1 -.742.12 4.176 4.176 0 0 1 -1.447-.27 5.578 5.578 0 0 1 -1.387-.75l-.639 1.68a6.69 6.69 0 0 0 1.6.78 5.606 5.606 0 0 0 1.817.3 4.05 4.05 0 0 0 1.506-.263 3.429 3.429 0 0 0 1.128-.712 3.023 3.023 0 0 0 .712-1.05 3.289 3.289 0 0 0 .245-1.26 3.4 3.4 0 0 0 -.124-.983zm7.2.083h-3.086l1.543-3.675zm3.621 4.005-5-11.145h-.267l-5.015 11.145h1.914l1.054-2.52h4.3l1.053 2.52h1.959zm9.3-11h-2.063l-3.042 7.32-3.056-7.32h-2.122l5.03 11.145h.237zm7.79 11v-1.707h-4.778v-3.045h4.318v-1.655h-4.318v-2.88h4.778v-1.71h-6.633v11h6.633zm14.245.165v-11.16h-1.855v6.945l-6.722-7.155-.3.06v11.145h1.855v-7.05l6.811 7.26zm10.75-4.065a3.9 3.9 0 0 1 -.72 1.267 3.339 3.339 0 0 1 -1.1.84 3.448 3.448 0 0 1 -2.849 0 3.353 3.353 0 0 1 -1.106-.84 3.912 3.912 0 0 1 -.719-1.267 4.992 4.992 0 0 1 0-3.18 4.006 4.006 0 0 1 .719-1.275 3.224 3.224 0 0 1 1.106-.84 3.532 3.532 0 0 1 2.849 0 3.211 3.211 0 0 1 1.1.84 3.989 3.989 0 0 1 .72 1.275 4.992 4.992 0 0 1 0 3.18zm1.84-3.863a5.429 5.429 0 0 0 -1.135-1.8 5.193 5.193 0 0 0 -1.729-1.185 5.479 5.479 0 0 0 -2.174-.427 5.573 5.573 0 0 0 -2.2.427 5.364 5.364 0 0 0 -2.93 2.985 5.99 5.99 0 0 0 -.423 2.273 6.137 6.137 0 0 0 .408 2.257 5.413 5.413 0 0 0 1.135 1.8 5.211 5.211 0 0 0 1.721 1.185 5.465 5.465 0 0 0 2.181.428 5.589 5.589 0 0 0 2.189-.428 5.344 5.344 0 0 0 2.938-2.985 5.945 5.945 0 0 0 .423-2.257 6.185 6.185 0 0 0 -.404-2.273zm15.38-3.232h-2.018l-1.929 6.885-3.042-6.975h-.208l-3.027 7.02-1.958-6.93h-2.048l3.487 11.175.282.03 3.339-7.65 3.383 7.65.3-.03z" fill="#fff" fill-rule="evenodd" transform="translate(-111.156 -226.688)"/></svg><svg height="22.81" viewBox="-1 -1 255.44 22.81" width="255.44"><g fill="#fff" fill-rule="evenodd" filter="url(#a)"><path d="m39.38 26.622v-3.132h-16.209v3.132h6.4v17.006h3.434v-17.006zm19.012 17.006v-20.138h-3.434v8.41h-9.258v-8.41h-3.435v20.138h3.435v-8.654h9.259v8.654h3.434zm16.676 0v-3.128h-8.846v-5.581h7.995v-3.019h-7.995v-5.278h8.847v-3.132h-12.281v20.138h12.281zm30.083 0-.851-20.385-.549-.055-8.709 13.352-8.929-13.352-.522.055-.852 20.385h3.379l.22-12.088 6.4 9.643h.412l6.346-9.616.275 12.061h3.379zm14.176-7.335h-5.714l2.857-6.731zm6.7 7.335-9.259-20.413h-.494l-9.286 20.413h3.544l1.95-4.615h7.968l1.95 4.615zm10.8-10.66v3.022h4.7v3.956a7.3 7.3 0 0 1 -1.813.728 9.4 9.4 0 0 1 -2.253.233 7.182 7.182 0 0 1 -5.069-2.06 6.809 6.809 0 0 1 -1.525-2.308 7.784 7.784 0 0 1 -.549-2.967 8.211 8.211 0 0 1 .48-2.83 6.844 6.844 0 0 1 1.388-2.308 6.326 6.326 0 0 1 2.239-1.552 7.813 7.813 0 0 1 3.063-.563 9.2 9.2 0 0 1 2.789.44 10.93 10.93 0 0 1 2.623 1.241l1.566-2.747a16.457 16.457 0 0 0 -3.229-1.511 12.107 12.107 0 0 0 -3.915-.577 11.233 11.233 0 0 0 -4.052.742 10.24 10.24 0 0 0 -5.756 5.412 10.34 10.34 0 0 0 2.308 11.773 10.472 10.472 0 0 0 3.408 2.108 11.236 11.236 0 0 0 4.093.756 13.343 13.343 0 0 0 4.08-.577 14.427 14.427 0 0 0 3.421-1.621v-8.789h-8zm15.358 10.66v-20.138h-3.435v20.138zm20.22-4.478a12.666 12.666 0 0 1 -2.692 1.154 9.683 9.683 0 0 1 -2.8.44 8.1 8.1 0 0 1 -2.98-.522 6.411 6.411 0 0 1 -2.267-1.47 6.515 6.515 0 0 1 -1.442-2.267 8.011 8.011 0 0 1 -.509-2.912 8.344 8.344 0 0 1 .5-2.926 6.445 6.445 0 0 1 1.415-2.28 6.309 6.309 0 0 1 2.239-1.47 8.007 8.007 0 0 1 2.967-.522 9.424 9.424 0 0 1 2.747.426 12.833 12.833 0 0 1 2.61 1.113l1.176-2.914a13.135 13.135 0 0 0 -2.94-1.319 11.685 11.685 0 0 0 -3.544-.522 11.8 11.8 0 0 0 -4.355.783 10.246 10.246 0 0 0 -3.434 2.184 10.025 10.025 0 0 0 -2.253 3.311 10.478 10.478 0 0 0 -.81 4.135 10.585 10.585 0 0 0 .8 4.149 9.723 9.723 0 0 0 2.236 3.279 10.345 10.345 0 0 0 3.434 2.17 11.877 11.877 0 0 0 4.382.783 11.656 11.656 0 0 0 3.6-.55 13.068 13.068 0 0 0 2.967-1.346z" transform="translate(-23.156 -23.156)"/><path d="m214.836 39.974a4.657 4.657 0 0 1 -3.09.879q-.715 0-1.319-.041t-1.126-.1v-6.04a7.739 7.739 0 0 1 .947-.069q.591-.014 1.141-.014a5.383 5.383 0 0 1 3.351.879 2.685 2.685 0 0 1 1.127 2.2 2.886 2.886 0 0 1 -1.031 2.306zm-.357-8.682a4.732 4.732 0 0 1 -3.145.852 19.409 19.409 0 0 1 -2.033-.082v-5.577c.347-.055.728-.1 1.14-.137s.828-.055 1.25-.055a4.228 4.228 0 0 1 2.83.811 2.626 2.626 0 0 1 .934 2.074 2.7 2.7 0 0 1 -.976 2.115zm4.149 3.791a5.647 5.647 0 0 0 -3.146-1.9 5.64 5.64 0 0 0 2.706-1.854 4.6 4.6 0 0 0 .812-2.729 4.192 4.192 0 0 0 -.5-1.964 5.032 5.032 0 0 0 -1.483-1.69 7.776 7.776 0 0 0 -2.473-1.181 12.241 12.241 0 0 0 -3.462-.44q-1.236 0-2.637.11t-2.528.275v19.726q1.319.165 2.734.275t2.706.11a11.875 11.875 0 0 0 3.558-.481 7.964 7.964 0 0 0 2.555-1.291 5.473 5.473 0 0 0 1.552-1.854 4.794 4.794 0 0 0 .522-2.17 4.866 4.866 0 0 0 -.916-2.941zm14.272 1.21h-5.714l2.857-6.731zm6.7 7.335-9.259-20.413h-.494l-9.286 20.413h3.544l1.95-4.615h7.968l1.95 4.615zm16.979-4.478a12.675 12.675 0 0 1 -2.689 1.15 9.682 9.682 0 0 1 -2.8.44 8.11 8.11 0 0 1 -2.981-.522 6.42 6.42 0 0 1 -2.267-1.47 6.544 6.544 0 0 1 -1.442-2.267 8.032 8.032 0 0 1 -.508-2.912 8.367 8.367 0 0 1 .494-2.926 6.445 6.445 0 0 1 1.415-2.28 6.318 6.318 0 0 1 2.239-1.47 8.007 8.007 0 0 1 2.967-.522 9.426 9.426 0 0 1 2.748.426 12.833 12.833 0 0 1 2.61 1.113l1.179-2.91a13.135 13.135 0 0 0 -2.94-1.319 11.68 11.68 0 0 0 -3.544-.522 11.8 11.8 0 0 0 -4.354.783 10.236 10.236 0 0 0 -3.434 2.184 10.01 10.01 0 0 0 -2.253 3.311 10.461 10.461 0 0 0 -.811 4.135 10.6 10.6 0 0 0 .8 4.149 9.737 9.737 0 0 0 2.236 3.279 10.355 10.355 0 0 0 3.434 2.17 11.88 11.88 0 0 0 4.382.783 11.651 11.651 0 0 0 3.6-.55 13.057 13.057 0 0 0 2.968-1.346zm20 4.478-9.231-10.467 8.792-9.671h-4.14l-7.912 9.066v-9.066h-3.434v20.138h3.434v-9.67l8.242 9.671h4.258z" transform="translate(-23.156 -23.156)"/><path d="m189.082 27.468a.965.965 0 0 0 -1.478-.561 1.582 1.582 0 0 0 -.128 1.886.92.92 0 0 0 1.427.382 1.539 1.539 0 0 0 .179-1.707zm-4.155 12.081a4.57 4.57 0 0 0 3.8-2.651 1.814 1.814 0 0 0 .178-1.58c-.1-.2-.28-.229-.407 0-.765 1.759-2.167 3.441-3.314 3.492-.815.051-.866-.943-.255-2.421.536-1.274 1.606-3.008 2.141-4.129a2.669 2.669 0 0 0 .026-2.778c-.2-.229-.382-.153-.612.153a31.46 31.46 0 0 0 -3.262 6.193c-.716 2.09-.232 3.721 1.705 3.721zm4.156-4.562c-.025-.2-.025-.408-.051-.612-.025-.408-.229-.51-.535-.255a3.064 3.064 0 0 0 -.331 3.543 3.763 3.763 0 0 0 3.772 1.912 5.371 5.371 0 0 0 4.511-2.8 2.311 2.311 0 0 0 .357-1.682.253.253 0 0 0 -.485 0 6.521 6.521 0 0 1 -3.415 3.543 3.16 3.16 0 0 0 1.147-2.676c.077-1.759-.408-3.747-.229-6.091.1-.178.178-.331.28-.484.331-.586.459-.867.2-1.122a1.143 1.143 0 0 0 -1.376.382 2.758 2.758 0 0 0 -.918 1.963 50.468 50.468 0 0 1 -2.927 4.379zm2.88-2.753c.1 2.039.484 6.04-.688 6.4-.841.255-1.58-.79-1.963-2.268a44.642 44.642 0 0 0 2.651-4.132z" transform="translate(-23.156 -23.156)"/></g></svg><svg height="43" viewBox="-1 -1 220.6 43" width="220.6" y="22.81"><path d="m154.97 19.19c-.39 1.83-1.65 4-3.21 4.62a2.35 2.35 0 0 1 -2.72-.85c-1-1.21-.73-3.07.17-4.81.76-1.48 2-2.76 3.3-2.89a1.45 1.45 0 0 1 1.48.68c.51.64 1.16.77 1.08 2.31v.49c.13 0 .25-.05.42-.06s.15.1.07.21a.87.87 0 0 1 -.59.3zm-1.83-.47a2.65 2.65 0 0 1 -1-1.84 7.46 7.46 0 0 0 -1.57 2.06c-.84 1.65-1.09 3.63-.52 4.08s1.89-.32 2.87-2.32a11.33 11.33 0 0 0 .69-1.73 1.61 1.61 0 0 1 -.47-.25zm.66-1.92c-.13-.68-.55-.54-.64.09a1.76 1.76 0 0 0 .52 1.5 4.08 4.08 0 0 0 .11-1.55zm5 5.12v.73a7.35 7.35 0 0 0 2.12-2.79c.12-.26.33-.29.45 0a2.11 2.11 0 0 1 -.17 1.29 5.13 5.13 0 0 1 -2.48 2.31 13.7 13.7 0 0 1 -2.1 5.88c-.69.92-1.22 1-1.88.49a3.13 3.13 0 0 1 -1-3.06c.43-4.78 5.05-13.12 7.3-16.75.16-.26.44-.25.53 0 .28.72.25 1.64-.61 3.23s-2.21 3.94-3.29 6.22c.76.24 1.1 1.04 1.13 2.45zm-3.88 7.08c.49.6 2-2.4 2.59-5.35a1.52 1.52 0 0 1 -1.33-.81c-1.09 2.88-1.77 5.55-1.26 6.15zm2.84-7.51a1.62 1.62 0 0 0 -.39-1.37 3.6 3.6 0 0 0 -.37 1.72 1 1 0 0 0 .62 1.2 10 10 0 0 0 .14-1.56zm-149.03-7.32v15.08h-3v-15.08h-5.68v-2.78h14.38v2.78h-5.65zm20.69 15.09v-7.68h-8.21v7.68h-3v-17.86h3v7.44h8.21v-7.46h3v17.86h-3zm7.33 0v-17.86h13.07v2.78h-9.42v4.66h8.51v2.68h-8.51v4.95h9.42v2.78h-13.07zm40.31 0-.24-10.7-5.63 8.53h-.37l-5.68-8.55-.2 10.72h-3l.75-18.08h.46l7.92 11.84 7.73-11.84h.49l.76 18.08h-3zm20 0-1.73-4.09h-7.07l-1.73 4.09h-3.14l8.24-18.11h.44l8.21 18.11zm-5.26-12.48-2.54 6h5.07zm25.64 3.06v7.8a12.78 12.78 0 0 1 -3 1.44 11.82 11.82 0 0 1 -3.62.51 10 10 0 0 1 -3.63-.67 9.29 9.29 0 0 1 -3-1.88 9.36 9.36 0 0 1 -2-10.44 9.09 9.09 0 0 1 5.11-4.8 10 10 0 0 1 3.59-.66 10.75 10.75 0 0 1 3.47.51 14.68 14.68 0 0 1 2.86 1.34l-1.39 2.44a9.73 9.73 0 0 0 -2.33-1.1 8.19 8.19 0 0 0 -2.47-.39 6.93 6.93 0 0 0 -2.72.5 5.61 5.61 0 0 0 -2 1.38 6.05 6.05 0 0 0 -1.23 2 7.28 7.28 0 0 0 -.43 2.51 6.9 6.9 0 0 0 .49 2.63 6 6 0 0 0 1.35 2 6.37 6.37 0 0 0 4.5 1.83 8.32 8.32 0 0 0 2-.21 6.46 6.46 0 0 0 1.61-.65v-3.51h-4.17v-2.58h7.09zm4.46 9.42v-17.86h3v17.86zm21.91-1.42a11.59 11.59 0 0 1 -2.63 1.19 10.33 10.33 0 0 1 -3.19.49 10.53 10.53 0 0 1 -3.89-.69 9.18 9.18 0 0 1 -3-1.92 8.65 8.65 0 0 1 -2-2.91 9.41 9.41 0 0 1 -.71-3.68 9.28 9.28 0 0 1 .72-3.67 8.88 8.88 0 0 1 2-2.94 9.08 9.08 0 0 1 3-1.94 11 11 0 0 1 7-.23 11.7 11.7 0 0 1 2.61 1.17l-1 2.58a11.34 11.34 0 0 0 -2.32-1 8.35 8.35 0 0 0 -2.44-.38 7.1 7.1 0 0 0 -2.63.46 5.59 5.59 0 0 0 -2 1.3 5.7 5.7 0 0 0 -1.25 2 7.39 7.39 0 0 0 -.44 2.59 7.13 7.13 0 0 0 .45 2.58 5.81 5.81 0 0 0 1.28 2 5.7 5.7 0 0 0 2 1.3 7.2 7.2 0 0 0 2.64.46 8.57 8.57 0 0 0 2.49-.39 11.23 11.23 0 0 0 2.39-1zm32.83-13.67v15.08h-3v-15.08h-5.68v-2.78h14.38v2.78zm10.18 15.09v-17.86h10.89v2.78h-7.85v4.66h7.09v2.68h-7.09v4.95h7.85v2.78h-10.89zm28.56 0-1.73-4.09h-7.07l-1.73 4.09h-3.14l8.24-18.11h.44l8.21 18.11zm-5.26-12.48-2.54 6h5.06zm-57.4-10.58-.77-3.87-.72.14.77 3.87zm2.47-.22h.37v-6h-.73v6zm-5.21.98-2.29-5.54-.68.28 2.29 5.53zm-4.79 3.02-4.24-4.24-.52.52 4.24 4.24zm2.25-1.75-2.19-3.28-.61.41 2.19 3.28zm16.11.41 2.19-3.28-.61-.41-2.19 3.28zm-5.17-2.3.77-3.87-.72-.14-.77 3.87zm2.7.89 2.29-5.53-.68-.28-2.29 5.54zm4.62 3.27 4.24-4.24-.52-.52-4.24 4.24zm-18.87 21.85-2.19 3.28.61.41 2.19-3.28zm13.57 1.69 2.29 5.54.68-.28-2.29-5.53zm4.79-3.03 4.24 4.24.52-.52-4.24-4.24zm-7.55 3.83.77 3.87.72-.14-.77-3.87zm9.41-6 3.28 2.19.41-.61-3.28-2.19c-.14.23-.27.43-.41.61zm-4.11 3.92 2.19 3.28.61-.41-2.19-3.28zm-7.75 2.26h-.37v6h.73v-6zm-3.19-.37-.77 3.87.72.14.77-3.87zm-7.36-4.16-4.24 4.24.52.52 4.24-4.24zm4.66 3.27-2.29 5.53.68.28 2.29-5.54z" fill="#fff"/></svg><svg height="38.47" viewBox="-1 -1 188.81 38.47" width="188.81" y="65.81"><path d="m67.965 172.479a8.826 8.826 0 0 1 -1.785.765 6.364 6.364 0 0 1 -1.887.306 5.539 5.539 0 0 1 -2.125-.391 4.768 4.768 0 0 1 -1.623-1.08 4.676 4.676 0 0 1 -1.029-1.632 5.738 5.738 0 0 1 -.357-2.048 6 6 0 0 1 .34-2.049 4.751 4.751 0 0 1 .986-1.64 4.478 4.478 0 0 1 1.581-1.088 5.411 5.411 0 0 1 2.108-.391 6.364 6.364 0 0 1 1.887.306 8.826 8.826 0 0 1 1.785.765l.561-1.156a9.2 9.2 0 0 0 -1.811-.825 7.055 7.055 0 0 0 -2.3-.365 6.914 6.914 0 0 0 -2.626.493 6.471 6.471 0 0 0 -2.1 1.351 6.179 6.179 0 0 0 -1.386 2.04 6.482 6.482 0 0 0 -.5 2.559 6.6 6.6 0 0 0 .493 2.584 6.059 6.059 0 0 0 3.459 3.366 7.241 7.241 0 0 0 2.66.476 7.029 7.029 0 0 0 2.3-.366 9.146 9.146 0 0 0 1.811-.824zm2.788-2.04a2.437 2.437 0 0 1 .638-1.445 1.857 1.857 0 0 1 1.385-.527 1.757 1.757 0 0 1 1.428.569 2.44 2.44 0 0 1 .544 1.4h-4zm5.032-1.02a3.089 3.089 0 0 0 -.6-1.088 2.846 2.846 0 0 0 -.978-.723 3.22 3.22 0 0 0 -1.343-.263 3.415 3.415 0 0 0 -1.479.306 3.226 3.226 0 0 0 -1.088.824 3.609 3.609 0 0 0 -.671 1.2 4.383 4.383 0 0 0 -.23 1.411 4.26 4.26 0 0 0 .238 1.436 3.2 3.2 0 0 0 .722 1.173 3.312 3.312 0 0 0 1.207.782 4.66 4.66 0 0 0 1.691.281 6.249 6.249 0 0 0 1.105-.111 10.473 10.473 0 0 0 1.224-.3l-.238-1.139a8.541 8.541 0 0 1 -1.011.28 4.611 4.611 0 0 1 -.961.111 3.674 3.674 0 0 1 -1.173-.162 2.174 2.174 0 0 1 -.79-.45 1.989 1.989 0 0 1 -.484-.68 2.932 2.932 0 0 1 -.221-.85h5.236a2.827 2.827 0 0 0 .043-.34c.006-.1.008-.215.008-.34a4.384 4.384 0 0 0 -.207-1.358zm3.128 5.2v-12.459h-1.343v12.461h1.343zm3.06-4.182a2.437 2.437 0 0 1 .637-1.445 1.857 1.857 0 0 1 1.39-.525 1.757 1.757 0 0 1 1.428.569 2.44 2.44 0 0 1 .544 1.4h-3.999zm5.027-1.018a3.089 3.089 0 0 0 -.6-1.088 2.846 2.846 0 0 0 -.978-.723 3.22 3.22 0 0 0 -1.343-.263 3.415 3.415 0 0 0 -1.479.306 3.226 3.226 0 0 0 -1.088.824 3.609 3.609 0 0 0 -.672 1.2 4.383 4.383 0 0 0 -.23 1.411 4.26 4.26 0 0 0 .238 1.436 3.2 3.2 0 0 0 .722 1.173 3.312 3.312 0 0 0 1.207.782 4.66 4.66 0 0 0 1.692.281 6.249 6.249 0 0 0 1.105-.111 10.473 10.473 0 0 0 1.224-.3l-.238-1.139a8.541 8.541 0 0 1 -1.011.28 4.611 4.611 0 0 1 -.96.111 3.674 3.674 0 0 1 -1.173-.162 2.174 2.174 0 0 1 -.79-.45 1.989 1.989 0 0 1 -.485-.68 2.932 2.932 0 0 1 -.221-.85h5.236a2.827 2.827 0 0 0 .043-.34c.006-.1.008-.215.008-.34a4.384 4.384 0 0 0 -.207-1.358zm7.251 2.652a2.4 2.4 0 0 1 -.51.824 2.355 2.355 0 0 1 -.782.544 2.418 2.418 0 0 1 -.978.2 2.252 2.252 0 0 1 -1.105-.272 2.779 2.779 0 0 1 -.816-.663v-3.383a3 3 0 0 1 .9-.621 2.832 2.832 0 0 1 1.173-.229 2.228 2.228 0 0 1 .96.2 2.112 2.112 0 0 1 .722.544 2.5 2.5 0 0 1 .451.807 3.032 3.032 0 0 1 .162 1 2.981 2.981 0 0 1 -.173 1.049zm1.249-2.559a3.435 3.435 0 0 0 -.714-1.156 3.213 3.213 0 0 0 -1.071-.748 3.328 3.328 0 0 0 -1.326-.263 3.855 3.855 0 0 0 -1.3.221 3.328 3.328 0 0 0 -1.028.561v-5.967h-1.339v12.461h1.278v-.7a2.828 2.828 0 0 0 1.029.612 3.617 3.617 0 0 0 1.215.221 3.23 3.23 0 0 0 1.352-.289 3.568 3.568 0 0 0 1.122-.8 3.807 3.807 0 0 0 .765-1.2 3.858 3.858 0 0 0 .277-1.465 4.164 4.164 0 0 0 -.26-1.488zm5.712-2.167a3.044 3.044 0 0 0 -1.377.331 3.4 3.4 0 0 0 -1.173 1v-1.19h-1.27v7.14h1.343v-4.879a2.261 2.261 0 0 1 1.037-.816 3.777 3.777 0 0 1 1.445-.272v-1.309zm5.372 5.457a2.856 2.856 0 0 1 -.791.637 2.062 2.062 0 0 1 -1.011.247 2.03 2.03 0 0 1 -1.224-.315 1.192 1.192 0 0 1 -.017-1.81 1.8 1.8 0 0 1 1.1-.306 2.959 2.959 0 0 1 .994.144 7.647 7.647 0 0 1 .944.434v.967zm1.309 1.819v-4.25a3.142 3.142 0 0 0 -.731-2.287 3.087 3.087 0 0 0 -2.278-.739 6.576 6.576 0 0 0 -1.156.11 9.377 9.377 0 0 0 -1.105.264l.221 1.156a5.183 5.183 0 0 1 1.87-.357 2.013 2.013 0 0 1 1.428.425 1.793 1.793 0 0 1 .442 1.343v.425q-.459-.187-.935-.332a4.328 4.328 0 0 0 -1.224-.144 3.016 3.016 0 0 0 -1.02.17 2.563 2.563 0 0 0 -.816.459 2.085 2.085 0 0 0 -.731 1.6 2.265 2.265 0 0 0 .2.977 2.028 2.028 0 0 0 .561.723 2.551 2.551 0 0 0 .824.442 3.179 3.179 0 0 0 1 .153 3.135 3.135 0 0 0 1.215-.23 3.205 3.205 0 0 0 .995-.654v.748h1.247zm5.609-5.984v-1.156h-2.102v-2.329l-1.309.969v1.241l-1.139 1.105v.17h1.139v3.876a2.414 2.414 0 0 0 .51 1.708 1.947 1.947 0 0 0 1.479.536 4.666 4.666 0 0 0 .57-.034q.28-.035.6-.1l-.136-1.088a2.618 2.618 0 0 1 -.314.042 4.021 4.021 0 0 1 -.281.009 1.345 1.345 0 0 1 -.841-.221.854.854 0 0 1 -.281-.714v-4.012h2.108zm2.6 5.984v-7.14h-1.343v7.14zm-.053-10.221a.842.842 0 0 0 -1.207 0 .851.851 0 0 0 -.247.612.831.831 0 0 0 .247.595.842.842 0 0 0 1.207 0 .83.83 0 0 0 .246-.595.85.85 0 0 0 -.246-.612zm8.355 10.217v-4.845a2.611 2.611 0 0 0 -.578-1.751 2.26 2.26 0 0 0 -1.819-.68 3.146 3.146 0 0 0 -1.394.331 4.606 4.606 0 0 0 -1.241.893v-1.088h-1.272v7.14h1.343v-5a4.58 4.58 0 0 1 1-.8 2.25 2.25 0 0 1 1.181-.357 1.346 1.346 0 0 1 1.114.416 1.984 1.984 0 0 1 .331 1.25v4.488h1.331zm7.259-1.836a2.459 2.459 0 0 1 -1.9.884 2.571 2.571 0 0 1 -1.054-.2 2.31 2.31 0 0 1 -.773-.544 2.247 2.247 0 0 1 -.476-.808 3.012 3.012 0 0 1 -.162-.994 3.2 3.2 0 0 1 .17-1.063 2.593 2.593 0 0 1 .476-.841 2.108 2.108 0 0 1 .74-.553 2.314 2.314 0 0 1 .96-.195 2.412 2.412 0 0 1 1.165.289 2.844 2.844 0 0 1 .858.68v3.349zm1.343-5.3h-1.275v.663a2.79 2.79 0 0 0 -.96-.578 3.621 3.621 0 0 0 -1.284-.221 3.16 3.16 0 0 0 -1.351.3 3.694 3.694 0 0 0 -1.122.808 3.8 3.8 0 0 0 -.765 1.2 3.864 3.864 0 0 0 -.281 1.471 4.1 4.1 0 0 0 .255 1.47 3.425 3.425 0 0 0 .714 1.156 3.117 3.117 0 0 0 1.105.748 3.7 3.7 0 0 0 1.411.264 3.61 3.61 0 0 0 1.241-.2 3.205 3.205 0 0 0 .969-.544v1.382a1.8 1.8 0 0 1 -.45 1.351 2.02 2.02 0 0 1 -1.437.434 5.211 5.211 0 0 1 -.926-.094 7.694 7.694 0 0 1 -1.08-.28l-.187 1.224a8.548 8.548 0 0 0 2.4.391 3.152 3.152 0 0 0 2.2-.748 3.1 3.1 0 0 0 .824-2.4v-7.8zm9.571 1.156v-1.156h-2.108v-2.329l-1.309.969v1.241l-1.139 1.105v.17h1.139v3.876a2.414 2.414 0 0 0 .51 1.708 1.947 1.947 0 0 0 1.479.536 4.661 4.661 0 0 0 .569-.034q.281-.035.6-.1l-.136-1.088a2.657 2.657 0 0 1 -.315.042 3.991 3.991 0 0 1 -.28.009 1.348 1.348 0 0 1 -.842-.221.853.853 0 0 1 -.28-.714v-4.012h2.108zm7.582 5.984v-4.845a2.478 2.478 0 0 0 -.629-1.751 2.427 2.427 0 0 0 -1.87-.68 3.075 3.075 0 0 0 -1.36.314 4.333 4.333 0 0 0 -1.207.893v-6.392h-1.343v12.461h1.343v-5a4.93 4.93 0 0 1 .459-.434 3.452 3.452 0 0 1 .552-.374 3.35 3.35 0 0 1 .6-.255 2.1 2.1 0 0 1 .612-.093 1.4 1.4 0 0 1 1.5 1.666v4.488h1.343zm2.924-4.182a2.435 2.435 0 0 1 .637-1.445 1.859 1.859 0 0 1 1.386-.527 1.759 1.759 0 0 1 1.428.569 2.446 2.446 0 0 1 .544 1.4h-4zm5.032-1.02a3.094 3.094 0 0 0 -.6-1.088 2.842 2.842 0 0 0 -.977-.723 3.222 3.222 0 0 0 -1.343-.263 3.412 3.412 0 0 0 -1.479.306 3.218 3.218 0 0 0 -1.088.824 3.607 3.607 0 0 0 -.672 1.2 4.382 4.382 0 0 0 -.229 1.411 4.255 4.255 0 0 0 .238 1.436 3.2 3.2 0 0 0 .722 1.173 3.31 3.31 0 0 0 1.207.782 4.665 4.665 0 0 0 1.692.281 6.255 6.255 0 0 0 1.105-.111 10.473 10.473 0 0 0 1.224-.3l-.238-1.139a8.538 8.538 0 0 1 -1.012.28 4.612 4.612 0 0 1 -.96.111 3.672 3.672 0 0 1 -1.173-.162 2.174 2.174 0 0 1 -.791-.45 1.983 1.983 0 0 1 -.484-.68 2.913 2.913 0 0 1 -.221-.85h5.236a2.989 2.989 0 0 0 .042-.34c.006-.1.009-.215.009-.34a4.384 4.384 0 0 0 -.208-1.358zm9.366-2.074a3.042 3.042 0 0 0 -1.377.331 3.4 3.4 0 0 0 -1.173 1v-1.19h-1.275v7.14h1.344v-4.879a2.26 2.26 0 0 1 1.037-.816 3.778 3.778 0 0 1 1.445-.272v-1.309zm2.125 3.094a2.435 2.435 0 0 1 .638-1.445 1.855 1.855 0 0 1 1.385-.527 1.756 1.756 0 0 1 1.428.569 2.439 2.439 0 0 1 .544 1.4h-4zm5.032-1.02a3.092 3.092 0 0 0 -.6-1.088 2.855 2.855 0 0 0 -.978-.723 3.218 3.218 0 0 0 -1.343-.263 3.418 3.418 0 0 0 -1.479.306 3.228 3.228 0 0 0 -1.088.824 3.6 3.6 0 0 0 -.671 1.2 4.383 4.383 0 0 0 -.23 1.411 4.255 4.255 0 0 0 .238 1.436 3.211 3.211 0 0 0 .723 1.173 3.31 3.31 0 0 0 1.207.782 4.655 4.655 0 0 0 1.691.281 6.246 6.246 0 0 0 1.105-.111 10.473 10.473 0 0 0 1.224-.3l-.237-1.137a8.575 8.575 0 0 1 -1.011.28 4.614 4.614 0 0 1 -.961.111 3.672 3.672 0 0 1 -1.173-.162 2.17 2.17 0 0 1 -.79-.45 1.985 1.985 0 0 1 -.485-.68 2.944 2.944 0 0 1 -.221-.85h5.236a2.8 2.8 0 0 0 .043-.34c0-.1.008-.215.008-.34a4.384 4.384 0 0 0 -.208-1.36zm5.559-.782v-1.156h-2.108v-2.329l-1.309.969v1.241l-1.139 1.105v.17h1.139v3.876a2.414 2.414 0 0 0 .51 1.708 1.947 1.947 0 0 0 1.479.536 4.666 4.666 0 0 0 .57-.034q.281-.035.6-.1l-.136-1.088a2.644 2.644 0 0 1 -.314.042 4.021 4.021 0 0 1 -.281.009 1.345 1.345 0 0 1 -.841-.221.854.854 0 0 1 -.281-.714v-4.012h2.114zm7.412 5.984v-7.14h-1.343v5.066a4.055 4.055 0 0 1 -.969.765 2.291 2.291 0 0 1 -1.156.323 1.4 1.4 0 0 1 -1.5-1.666v-4.488h-1.341v4.845a2.536 2.536 0 0 0 .6 1.751 2.363 2.363 0 0 0 1.861.68 3.14 3.14 0 0 0 1.4-.349 4.588 4.588 0 0 0 1.164-.79v1h1.275zm5.729-7.276a3.042 3.042 0 0 0 -1.377.331 3.4 3.4 0 0 0 -1.173 1v-1.19h-1.275v7.14h1.343v-4.879a2.26 2.26 0 0 1 1.037-.816 3.778 3.778 0 0 1 1.445-.272v-1.309zm7.514 7.276v-4.845a2.611 2.611 0 0 0 -.578-1.751 2.262 2.262 0 0 0 -1.819-.68 3.146 3.146 0 0 0 -1.394.331 4.59 4.59 0 0 0 -1.241.893v-1.088h-1.275v7.14h1.343v-5a4.574 4.574 0 0 1 .994-.8 2.254 2.254 0 0 1 1.182-.357 1.344 1.344 0 0 1 1.113.416 1.984 1.984 0 0 1 .332 1.25v4.488h1.343zm10.658-1.675a2.261 2.261 0 0 1 -3.315 0 3.171 3.171 0 0 1 0-3.791 2.264 2.264 0 0 1 3.315 0 3.171 3.171 0 0 1 0 3.791zm1.7-3.332a3.564 3.564 0 0 0 -.731-1.181 3.394 3.394 0 0 0 -1.139-.8 3.658 3.658 0 0 0 -1.479-.289 3.718 3.718 0 0 0 -1.487.289 3.288 3.288 0 0 0 -1.139.8 3.771 3.771 0 0 0 -.731 1.181 4.04 4.04 0 0 0 0 2.873 3.765 3.765 0 0 0 .731 1.182 3.288 3.288 0 0 0 1.139.8 3.718 3.718 0 0 0 1.487.289 3.658 3.658 0 0 0 1.479-.289 3.394 3.394 0 0 0 1.139-.8 3.558 3.558 0 0 0 .731-1.182 4.174 4.174 0 0 0 0-2.873zm6.392-7.42a3.72 3.72 0 0 0 -.535-.119 4.178 4.178 0 0 0 -.57-.034 2.516 2.516 0 0 0 -2.116.884 4.078 4.078 0 0 0 -.689 2.55v1.887l-1.105 1.105v.17h1.105v5.984h1.326v-5.984h2.108v-1.156h-2.108v-2.193a2.513 2.513 0 0 1 .374-1.573 1.648 1.648 0 0 1 1.326-.45 2.716 2.716 0 0 1 .663.085zm9.333 10.752a2.261 2.261 0 0 1 -3.315 0 3.171 3.171 0 0 1 0-3.791 2.264 2.264 0 0 1 3.315 0 3.171 3.171 0 0 1 0 3.791zm1.7-3.332a3.58 3.58 0 0 0 -.731-1.181 3.394 3.394 0 0 0 -1.139-.8 3.658 3.658 0 0 0 -1.479-.289 3.714 3.714 0 0 0 -1.487.289 3.279 3.279 0 0 0 -1.139.8 3.753 3.753 0 0 0 -.731 1.181 4.04 4.04 0 0 0 0 2.873 3.747 3.747 0 0 0 .731 1.182 3.279 3.279 0 0 0 1.139.8 3.714 3.714 0 0 0 1.487.289 3.658 3.658 0 0 0 1.479-.289 3.394 3.394 0 0 0 1.139-.8 3.575 3.575 0 0 0 .731-1.182 4.174 4.174 0 0 0 0-2.873zm8.126 5.007v-7.14h-1.343v5.066a4.055 4.055 0 0 1 -.969.765 2.291 2.291 0 0 1 -1.156.323 1.4 1.4 0 0 1 -1.5-1.666v-4.488h-1.343v4.845a2.54 2.54 0 0 0 .6 1.751 2.366 2.366 0 0 0 1.862.68 3.133 3.133 0 0 0 1.4-.349 4.577 4.577 0 0 0 1.165-.79v1h1.275zm5.729-7.276a3.042 3.042 0 0 0 -1.377.331 3.4 3.4 0 0 0 -1.173 1v-1.19h-1.275v7.14h1.343v-4.879a2.26 2.26 0 0 1 1.037-.816 3.775 3.775 0 0 1 1.445-.272v-1.309zm-165.458 25.455a2.851 2.851 0 0 1 -.79.637 2.065 2.065 0 0 1 -1.011.247 2.03 2.03 0 0 1 -1.224-.315 1.192 1.192 0 0 1 -.017-1.81 1.8 1.8 0 0 1 1.105-.306 2.961 2.961 0 0 1 .994.144 7.631 7.631 0 0 1 .944.434v.969zm1.309 1.819v-4.25a3.142 3.142 0 0 0 -.731-2.287 3.086 3.086 0 0 0 -2.278-.739 6.577 6.577 0 0 0 -1.156.11 9.406 9.406 0 0 0 -1.105.264l.221 1.156a5.183 5.183 0 0 1 1.87-.357 2.013 2.013 0 0 1 1.428.425 1.791 1.791 0 0 1 .442 1.343v.425q-.459-.187-.935-.332a4.322 4.322 0 0 0 -1.224-.144 3.017 3.017 0 0 0 -1.02.17 2.576 2.576 0 0 0 -.816.459 2.089 2.089 0 0 0 -.731 1.6 2.265 2.265 0 0 0 .2.977 2.028 2.028 0 0 0 .561.723 2.555 2.555 0 0 0 .825.442 3.177 3.177 0 0 0 .995.153 3.139 3.139 0 0 0 1.216-.23 3.2 3.2 0 0 0 .995-.654v.748h1.241zm5.593-7.276a3.042 3.042 0 0 0 -1.377.331 3.4 3.4 0 0 0 -1.173 1v-1.19h-1.275v7.14h1.343v-4.879a2.261 2.261 0 0 1 1.037-.816 3.777 3.777 0 0 1 1.445-.272v-1.309zm5.049 1.292v-1.156h-2.108v-2.329l-1.309.969v1.241l-1.139 1.105v.17h1.139v3.876a2.414 2.414 0 0 0 .51 1.708 1.947 1.947 0 0 0 1.479.536 4.662 4.662 0 0 0 .569-.034q.281-.035.6-.1l-.136-1.088a2.645 2.645 0 0 1 -.314.042q-.128.009-.281.009a1.347 1.347 0 0 1 -.841-.221.853.853 0 0 1 -.281-.714v-4.012h2.108zm5.678-6.443a3.719 3.719 0 0 0 -.535-.119 4.163 4.163 0 0 0 -.57-.034 2.517 2.517 0 0 0 -2.117.884 4.078 4.078 0 0 0 -.688 2.55v1.887l-1.105 1.105v.17h1.105v5.984h1.326v-5.984h2.108v-1.156h-2.108v-2.193a2.51 2.51 0 0 1 .374-1.573 1.648 1.648 0 0 1 1.326-.45 2.715 2.715 0 0 1 .663.085zm6.749 12.427v-7.14h-1.343v5.066a4.055 4.055 0 0 1 -.969.765 2.29 2.29 0 0 1 -1.155.323 1.4 1.4 0 0 1 -1.5-1.666v-4.488h-1.343v4.845a2.538 2.538 0 0 0 .6 1.751 2.364 2.364 0 0 0 1.861.68 3.137 3.137 0 0 0 1.4-.349 4.588 4.588 0 0 0 1.164-.79v1h1.275zm3.315 0v-12.459h-1.343v12.461h1.343zm3.57-1.309a.811.811 0 0 0 -.68-.306.842.842 0 0 0 -.833.833.812.812 0 0 0 .238.586.974.974 0 0 0 .646.281 3.661 3.661 0 0 1 -.357.824 3.261 3.261 0 0 1 -.731.859l.187.272a3.971 3.971 0 0 0 .791-.6 3.662 3.662 0 0 0 .544-.68 3.3 3.3 0 0 0 .323-.688 2.111 2.111 0 0 0 .11-.646 1.154 1.154 0 0 0 -.239-.733zm7.395 1.309v-7.14h-1.343v7.14zm-.06-10.217a.842.842 0 0 0 -1.207 0 .85.85 0 0 0 -.246.612.83.83 0 0 0 .246.595.842.842 0 0 0 1.207 0 .831.831 0 0 0 .247-.595.851.851 0 0 0 -.248-.614zm7.608 8.6a5.159 5.159 0 0 1 -.952.425 3.324 3.324 0 0 1 -1.054.17 2.6 2.6 0 0 1 -.952-.179 2.521 2.521 0 0 1 -.808-.5 2.443 2.443 0 0 1 -.561-.791 2.489 2.489 0 0 1 -.212-1.045 2.951 2.951 0 0 1 .187-1.088 2.324 2.324 0 0 1 .518-.808 2.3 2.3 0 0 1 .774-.51 2.559 2.559 0 0 1 .969-.178 3.324 3.324 0 0 1 1.054.17 5.159 5.159 0 0 1 .952.425l.544-1.02a5.366 5.366 0 0 0 -1.131-.519 4.1 4.1 0 0 0 -1.3-.212 3.97 3.97 0 0 0 -1.556.3 3.782 3.782 0 0 0 -1.215.808 3.719 3.719 0 0 0 -.8 1.19 3.649 3.649 0 0 0 -.289 1.445 3.584 3.584 0 0 0 .289 1.436 3.6 3.6 0 0 0 2.014 1.955 4.175 4.175 0 0 0 1.556.281 4.075 4.075 0 0 0 1.3-.213 5.315 5.315 0 0 0 1.131-.518zm6.714-.06a2.261 2.261 0 0 1 -3.315 0 3.171 3.171 0 0 1 0-3.791 2.264 2.264 0 0 1 3.315 0 3.171 3.171 0 0 1 -.001 3.795zm1.7-3.332a3.564 3.564 0 0 0 -.731-1.181 3.394 3.394 0 0 0 -1.139-.8 3.658 3.658 0 0 0 -1.479-.289 3.714 3.714 0 0 0 -1.487.289 3.279 3.279 0 0 0 -1.139.8 3.753 3.753 0 0 0 -.731 1.181 4.04 4.04 0 0 0 0 2.873 3.747 3.747 0 0 0 .731 1.182 3.279 3.279 0 0 0 1.139.8 3.714 3.714 0 0 0 1.487.289 3.658 3.658 0 0 0 1.479-.289 3.394 3.394 0 0 0 1.139-.8 3.558 3.558 0 0 0 .731-1.182 4.174 4.174 0 0 0 -.001-2.869zm8.194 5.007v-4.845a2.611 2.611 0 0 0 -.578-1.751 2.26 2.26 0 0 0 -1.819-.68 3.146 3.146 0 0 0 -1.394.331 4.606 4.606 0 0 0 -1.241.893v-1.088h-1.275v7.14h1.343v-5a4.58 4.58 0 0 1 1-.8 2.25 2.25 0 0 1 1.181-.357 1.346 1.346 0 0 1 1.114.416 1.984 1.984 0 0 1 .331 1.25v4.488h1.343zm3.264 0v-7.14h-1.343v7.14zm-.06-10.217a.842.842 0 0 0 -1.207 0 .847.847 0 0 0 -.247.612.827.827 0 0 0 .247.595.842.842 0 0 0 1.207 0 .83.83 0 0 0 .246-.595.85.85 0 0 0 -.246-.612zm7.607 8.6a5.159 5.159 0 0 1 -.952.425 3.324 3.324 0 0 1 -1.054.17 2.6 2.6 0 0 1 -.952-.179 2.521 2.521 0 0 1 -.808-.5 2.443 2.443 0 0 1 -.561-.791 2.489 2.489 0 0 1 -.212-1.045 2.951 2.951 0 0 1 .187-1.088 2.324 2.324 0 0 1 .518-.808 2.3 2.3 0 0 1 .774-.51 2.559 2.559 0 0 1 .969-.178 3.324 3.324 0 0 1 1.054.17 5.159 5.159 0 0 1 .952.425l.544-1.02a5.366 5.366 0 0 0 -1.131-.519 4.1 4.1 0 0 0 -1.3-.212 3.973 3.973 0 0 0 -1.556.3 3.782 3.782 0 0 0 -1.215.808 3.719 3.719 0 0 0 -.8 1.19 3.649 3.649 0 0 0 -.289 1.445 3.584 3.584 0 0 0 .289 1.436 3.6 3.6 0 0 0 2.014 1.955 4.179 4.179 0 0 0 1.556.281 4.075 4.075 0 0 0 1.3-.213 5.315 5.315 0 0 0 1.131-.518zm11.084-.927a2.51 2.51 0 0 1 -.476.833 2.134 2.134 0 0 1 -.74.544 2.256 2.256 0 0 1 -.943.2 3.184 3.184 0 0 1 -1.173-.213 2.2 2.2 0 0 1 -.884-.6v-3.519a3 3 0 0 1 .9-.621 2.874 2.874 0 0 1 1.19-.229 2.175 2.175 0 0 1 .952.2 2.223 2.223 0 0 1 .722.544 2.42 2.42 0 0 1 .459.807 3.022 3.022 0 0 1 .162 1 3.2 3.2 0 0 1 -.169 1.06zm1.232-2.567a3.636 3.636 0 0 0 -.714-1.156 3.118 3.118 0 0 0 -1.062-.748 3.328 3.328 0 0 0 -1.326-.263 3.757 3.757 0 0 0 -1.36.229 3.371 3.371 0 0 0 -1.037.621v-.714h-1.274v10.812h1.343v-4.057a4.214 4.214 0 0 0 2.074.527 3.617 3.617 0 0 0 1.462-.289 3.488 3.488 0 0 0 1.147-.8 3.581 3.581 0 0 0 .748-1.2 4.275 4.275 0 0 0 -.001-2.956zm6.146 3.29a2.856 2.856 0 0 1 -.791.637 2.062 2.062 0 0 1 -1.011.247 2.03 2.03 0 0 1 -1.224-.315 1.192 1.192 0 0 1 -.017-1.81 1.8 1.8 0 0 1 1.105-.306 2.959 2.959 0 0 1 .994.144 7.647 7.647 0 0 1 .944.434v.973zm1.309 1.819v-4.25a3.142 3.142 0 0 0 -.731-2.287 3.087 3.087 0 0 0 -2.278-.739 6.576 6.576 0 0 0 -1.156.11 9.377 9.377 0 0 0 -1.105.264l.221 1.156a5.183 5.183 0 0 1 1.87-.357 2.013 2.013 0 0 1 1.428.425 1.793 1.793 0 0 1 .442 1.343v.425q-.459-.187-.935-.332a4.328 4.328 0 0 0 -1.224-.144 3.016 3.016 0 0 0 -1.02.17 2.563 2.563 0 0 0 -.816.459 2.085 2.085 0 0 0 -.731 1.6 2.265 2.265 0 0 0 .2.977 2.028 2.028 0 0 0 .561.723 2.551 2.551 0 0 0 .824.442 3.179 3.179 0 0 0 1 .153 3.135 3.135 0 0 0 1.215-.23 3.205 3.205 0 0 0 1-.654v.748h1.241zm7.326-1.615a5.13 5.13 0 0 1 -.952.425 3.319 3.319 0 0 1 -1.054.17 2.607 2.607 0 0 1 -.952-.179 2.516 2.516 0 0 1 -.807-.5 2.443 2.443 0 0 1 -.561-.791 2.49 2.49 0 0 1 -.213-1.045 2.971 2.971 0 0 1 .185-1.08 2.341 2.341 0 0 1 .519-.808 2.3 2.3 0 0 1 .773-.51 2.567 2.567 0 0 1 .969-.178 3.319 3.319 0 0 1 1.054.17 5.13 5.13 0 0 1 .952.425l.544-1.02a5.334 5.334 0 0 0 -1.13-.519 4.108 4.108 0 0 0 -1.3-.212 3.968 3.968 0 0 0 -1.555.3 3.786 3.786 0 0 0 -1.216.808 3.736 3.736 0 0 0 -.8 1.19 3.666 3.666 0 0 0 -.289 1.445 3.6 3.6 0 0 0 .289 1.436 3.651 3.651 0 0 0 .8 1.173 3.612 3.612 0 0 0 1.216.782 4.173 4.173 0 0 0 1.555.281 4.081 4.081 0 0 0 1.3-.213 5.284 5.284 0 0 0 1.13-.518zm7.922 1.615-3.621-3.808 3.451-3.332h-1.666l-3.026 3.145v-8.46h-1.343v12.461h1.343v-3.521l3.2 3.519h1.666zm5.3-1.819a2.852 2.852 0 0 1 -.79.637 2.069 2.069 0 0 1 -1.012.247 2.03 2.03 0 0 1 -1.224-.315 1.192 1.192 0 0 1 -.017-1.81 1.8 1.8 0 0 1 1.1-.306 2.965 2.965 0 0 1 1 .144 7.642 7.642 0 0 1 .943.434v.973zm1.309 1.819v-4.25a3.142 3.142 0 0 0 -.731-2.287 3.085 3.085 0 0 0 -2.278-.739 6.576 6.576 0 0 0 -1.156.11 9.425 9.425 0 0 0 -1.1.264l.221 1.156a5.183 5.183 0 0 1 1.87-.357 2.013 2.013 0 0 1 1.428.425 1.789 1.789 0 0 1 .442 1.343v.425q-.459-.187-.935-.332a4.318 4.318 0 0 0 -1.224-.144 3.016 3.016 0 0 0 -1.02.17 2.585 2.585 0 0 0 -.816.459 2.094 2.094 0 0 0 -.731 1.6 2.265 2.265 0 0 0 .2.977 2.028 2.028 0 0 0 .561.723 2.556 2.556 0 0 0 .825.442 3.159 3.159 0 0 0 3.2-.731v.748h1.241zm7.191-1.836a2.459 2.459 0 0 1 -1.9.884 2.571 2.571 0 0 1 -1.054-.2 2.31 2.31 0 0 1 -.773-.544 2.247 2.247 0 0 1 -.476-.808 3.012 3.012 0 0 1 -.162-.994 3.2 3.2 0 0 1 .17-1.063 2.593 2.593 0 0 1 .476-.841 2.108 2.108 0 0 1 .74-.553 2.314 2.314 0 0 1 .96-.195 2.412 2.412 0 0 1 1.165.289 2.844 2.844 0 0 1 .858.68v3.349zm1.343-5.3h-1.275v.663a2.79 2.79 0 0 0 -.96-.578 3.621 3.621 0 0 0 -1.284-.221 3.16 3.16 0 0 0 -1.351.3 3.694 3.694 0 0 0 -1.122.808 3.8 3.8 0 0 0 -.765 1.2 3.864 3.864 0 0 0 -.281 1.471 4.1 4.1 0 0 0 .255 1.47 3.425 3.425 0 0 0 .714 1.156 3.117 3.117 0 0 0 1.105.748 3.7 3.7 0 0 0 1.411.264 3.61 3.61 0 0 0 1.241-.2 3.205 3.205 0 0 0 .969-.544v1.384a1.8 1.8 0 0 1 -.45 1.351 2.02 2.02 0 0 1 -1.437.434 5.211 5.211 0 0 1 -.926-.094 7.694 7.694 0 0 1 -1.08-.28l-.187 1.224a8.548 8.548 0 0 0 2.4.391 3.152 3.152 0 0 0 2.2-.748 3.1 3.1 0 0 0 .824-2.4v-7.8zm3.332 7.14v-7.14h-1.343v7.14zm-.051-10.219a.842.842 0 0 0 -1.207 0 .847.847 0 0 0 -.247.612.827.827 0 0 0 .247.595.842.842 0 0 0 1.207 0 .83.83 0 0 0 .246-.595.85.85 0 0 0 -.246-.612zm8.355 10.217v-4.845a2.611 2.611 0 0 0 -.578-1.751 2.262 2.262 0 0 0 -1.819-.68 3.146 3.146 0 0 0 -1.394.331 4.59 4.59 0 0 0 -1.241.893v-1.088h-1.275v7.14h1.343v-5a4.574 4.574 0 0 1 .994-.8 2.254 2.254 0 0 1 1.182-.357 1.344 1.344 0 0 1 1.113.416 1.984 1.984 0 0 1 .332 1.25v4.488h1.343zm7.259-1.836a2.459 2.459 0 0 1 -1.9.884 2.571 2.571 0 0 1 -1.054-.2 2.324 2.324 0 0 1 -.774-.544 2.261 2.261 0 0 1 -.476-.808 3.011 3.011 0 0 1 -.161-.994 3.177 3.177 0 0 1 .17-1.063 2.593 2.593 0 0 1 .476-.841 2.1 2.1 0 0 1 .739-.553 2.315 2.315 0 0 1 .961-.195 2.408 2.408 0 0 1 1.164.289 2.861 2.861 0 0 1 .859.68v3.349zm1.343-5.3h-1.275v.663a2.8 2.8 0 0 0 -.961-.578 3.62 3.62 0 0 0 -1.283-.221 3.164 3.164 0 0 0 -1.352.3 3.694 3.694 0 0 0 -1.122.808 3.8 3.8 0 0 0 -.765 1.2 3.863 3.863 0 0 0 -.28 1.471 4.1 4.1 0 0 0 .255 1.47 3.425 3.425 0 0 0 .714 1.156 3.117 3.117 0 0 0 1.1.748 3.692 3.692 0 0 0 1.411.264 3.61 3.61 0 0 0 1.241-.2 3.205 3.205 0 0 0 .969-.544v1.382a1.8 1.8 0 0 1 -.451 1.351 2.015 2.015 0 0 1 -1.436.434 5.23 5.23 0 0 1 -.927-.094 7.682 7.682 0 0 1 -1.079-.28l-.187 1.224a8.548 8.548 0 0 0 2.4.391 3.149 3.149 0 0 0 2.2-.748 3.093 3.093 0 0 0 .825-2.4v-7.8zm2.21 7.021a.835.835 0 0 0 .612.255.871.871 0 0 0 .884-.884.835.835 0 0 0 -.255-.612.855.855 0 0 0 -.629-.255.871.871 0 0 0 -.867.867.855.855 0 0 0 .251.627z" fill="#fff" fill-rule="evenodd" transform="translate(-57.688 -161.969)"/></svg></svg>