<svg enable-background="new 0 0 148 26" viewBox="0 0 148 26" xmlns="http://www.w3.org/2000/svg" xmlns:xlink="http://www.w3.org/1999/xlink"><filter id="a" filterUnits="userSpaceOnUse" height="25" width="12.9" x="13.2" y=".1"><feFlood flood-color="#fff" result="back"/><feBlend in="SourceGraphic" in2="back" mode="normal"/></filter><mask id="b" height="25" maskUnits="userSpaceOnUse" width="12.9" x="13.2" y=".1"><path d="m.1 0h12.8v25h-12.8z" fill="#fff" filter="url(#a)"/></mask><g fill="#9ba9bb"><g transform="translate(35 5)"><path d="m13.1 14.2h-2.6v-.8c-.7.6-1.8 1-3.4 1-4.1 0-6.9-2.9-6.9-7.1 0-3.9 2.8-7.1 6.9-7.1 2.8 0 4.6 1.2 5.5 2.7l-2.1 1.6c-.6-.8-1.6-1.7-3.4-1.7-2.4 0-4.1 1.9-4.1 4.5 0 2.8 1.8 4.6 4.2 4.6 1.6 0 2.6-.6 3.2-1.2v-1.6h-2.2v-2.3h4.8v7.4z"/><path d="m18.2 12.2c.9 0 1.5-.6 1.5-1.5s-.6-1.5-1.5-1.5-1.5.7-1.5 1.5c0 .9.6 1.5 1.5 1.5m-.3-5c.9 0 1.6.3 1.8.4v-.5c0-.9-.4-1.6-1.4-1.6s-1.3.6-1.3 1.2h-2.4c.1-2 1.2-3.3 3.7-3.3 3 0 3.9 1.7 3.9 4v6.7h-2.2v-.7c-.3.3-1 .8-2.2.8-2.1 0-3.6-1.4-3.6-3.6.1-1.9 1.5-3.4 3.7-3.4"/><path d="m28.3 6.3h-.7c-1 0-1.4.5-1.4 1.4v6.5h-2.6v-10.6h2.6v.9c.4-.5 1-.9 2-.9v2.7z"/><path d="m32.6 12.2c.9 0 1.5-.6 1.5-1.5s-.6-1.5-1.5-1.5-1.5.7-1.5 1.5c0 .9.6 1.5 1.5 1.5m-.4-5c.9 0 1.6.3 1.8.4v-.5c0-.9-.4-1.6-1.4-1.6s-1.3.6-1.3 1.2h-2.3c.1-2 1.2-3.3 3.7-3.3 3 0 3.9 1.7 3.9 4v6.7h-2.2v-.7c-.3.3-1 .8-2.2.8-2.1 0-3.6-1.4-3.6-3.6.1-1.9 1.5-3.4 3.6-3.4"/><path d="m43.2 12c1.7 0 2.9-1.3 2.9-3.1s-1.1-3.1-2.9-3.1c-1.7 0-2.9 1.3-2.9 3.1s1.2 3.1 2.9 3.1zm2.9-8.4h2.4v8.8c0 4-2.3 5.4-5.5 5.4-1.6 0-3-.5-3.9-1l.8-2.1c.6.4 1.7.8 3 .8 1.6 0 2.9-.7 2.9-2.2v-.1c-.4.5-1.4 1.2-2.9 1.2-3.2 0-5.4-2.2-5.4-5.4 0-3.1 2.2-5.5 5.3-5.5 1.3 0 2.4.5 3.1 1.2v-1.1z"/><path d="m52.5 7.8h4.7c-.1-1.2-1-2.1-2.4-2.1s-2.2.9-2.3 2.1zm-.1 2c.1 1.4 1.1 2.3 2.6 2.3 1.3 0 2.1-.7 2.6-1.6l1.9 1.2c-.6 1.3-2 2.8-4.5 2.8-3.1 0-5.3-2.1-5.3-5.4 0-3.2 2.1-5.5 5.1-5.5 3.1 0 5.1 2.1 5.1 5.2v1.1h-7.5z"/></g><g transform="translate(99 7)"><path d="m.9 1.7v4.1h1.3c1.4 0 2-.8 2-2.1s-.7-2-2-2zm1.3 4.9h-1.3v5.2h-.9v-11h2.2c1.9 0 3 .9 3 2.8.1 1.9-1.2 3-3 3z"/><path d="m6.5 7h6.1c-.1-1.9-1.4-3-3.1-3-1.6 0-2.8 1.1-3 3zm0 .8c.1 2 1.3 3.3 3.2 3.3 1.6 0 2.4-.8 3.1-2.1l.7.3c-.6 1.5-1.9 2.6-3.8 2.6-2.4 0-4.1-1.8-4.1-4.4s1.7-4.4 4-4.4c2.4 0 4 1.6 4 4.1v.5h-7.1z"/><path d="m17.8 4.2h-.3c-1.2 0-1.8.8-1.8 2.1v5.5h-.9v-8.5h.9v.9c.3-.5.9-1 2.1-.9z"/><path d="m20.2 6.7c.5.2 1 .3 1.5.5 1 .4 1.6 1.1 1.6 2.3 0 1.5-1.1 2.4-2.6 2.4-1.9 0-2.6-1.2-2.6-2.7h.9c0 1 .4 1.9 1.7 1.9.9 0 1.7-.5 1.7-1.5 0-.9-.4-1.3-1.1-1.6-.5-.2-1.1-.3-1.6-.6-1-.5-1.3-1.2-1.3-2.1 0-1.3 1-2.1 2.3-2.1 1.7 0 2.3 1.2 2.3 2.5h-.8c0-1-.5-1.7-1.5-1.7-.9 0-1.4.5-1.4 1.3 0 .7.3 1.1.9 1.4"/><path d="m28.4 11.1c1.9 0 3.3-1.5 3.3-3.5 0-2.1-1.4-3.6-3.3-3.6s-3.3 1.5-3.3 3.6 1.4 3.5 3.3 3.5m0-7.9c2.4 0 4.2 1.8 4.2 4.4s-1.9 4.4-4.2 4.4c-2.4 0-4.2-1.7-4.2-4.4s1.9-4.4 4.2-4.4"/><path d="m38.5 6.3c0-1.4-.6-2.2-1.8-2.2s-1.9.9-1.9 2.3v5.4h-.8v-8.5h.9v.9c.3-.4.9-1 2-1 1.8 0 2.6 1.3 2.6 3v5.6h-.9z"/><path d="m43.5 11.2c1.1 0 1.9-.8 1.9-2 0-1.1-.8-2-2-2s-1.9.9-1.9 2c.1 1.1.9 2 2 2m0-4.8c.9 0 1.6.4 2 .8v-1c0-1.4-.7-2.2-1.8-2.2-1.2 0-1.7.8-1.7 1.7h-1c0-1.3.9-2.5 2.6-2.5 1.8 0 2.7 1.2 2.7 3v5.6h-.9v-.8c-.4.5-1 .9-2 .9-1.6 0-2.7-1.1-2.7-2.7s1.2-2.8 2.8-2.8"/><path d="m48.1 11.8h.9v-11.6h-.9z"/></g><path d="m25.1 13.2-1.7.5c-.2 0-.3.2-.3.4l-.6 1.9c-.1.2 0 .4.1.5l1.3 1.3-.6 1-1.8-.3c-.2 0-.3 0-.4.1l-1.4 1.3c-.1.1-.2.3-.1.5l.3 1.7-1.1.7-1.1-1.3c-.1-.2-.3-.2-.5-.2l-2.1.7c-.2.1-.3.2-.3.4l-.2 1.6h-.3v-5.2c.5-.1 1.5-.3 2.4-.9 2-1 3.1-2.7 3.2-4.8 0-.2 0-.4 0-.5 0-1-.2-1.9-.6-2.7-.2-.6-.7-1.2-1.3-1.8-.2-.1-.6-.1-.7.1-.2.2-.2.5 0 .7 1.1.9 1.6 2.2 1.6 3.7v.5c-.1 1.8-1 3.1-2.7 4-.8.4-1.5.6-2 .7v-.9c.4-.1 1-.3 1.6-.6 1.4-.8 2.1-2.1 2.1-3.6 0-1.6-.7-2.9-2.1-3.7-.5-.4-1.1-.6-1.5-.7v-2.9c.9.2 2.8.8 4.4 2.1.1.1.2.1.3.1s.3-.1.4-.2c.2-.2.2-.5-.1-.7-1.8-1.6-4.1-2.1-5-2.3v-3.3h.1l.6 1.9c.1.2.2.3.4.3l1.8.5c.2.1.4 0 .5-.2l1.1-1.3 1.1.6-.4 1.9c0 .2 0 .4.1.5l1.4 1.5c.2.1.4.2.5.1l1.7-.5.7 1-1.4 1.4c-.1.1-.1.3-.1.5l.4 1.8c0 .2.2.3.4.4l1.9.4zm.6-2.2-1.9-.5-.3-1.2 1.5-1.4c.2-.2.2-.5.1-.7l-1.2-1.7c-.1-.2-.4-.3-.6-.2l-1.7.5-1-1.1.5-1.8c.1-.2 0-.5-.2-.6l-1.8-1c-.3-.1-.6-.1-.8.1l-1.1 1.4-1.3-.4-.7-2c0-.2-.2-.3-.4-.3h-1c-.3 0-.5.2-.5.5v4.2 4c0 .3.2.5.4.5 0 0 .9.1 1.7.6 1.1.6 1.6 1.5 1.6 2.8 0 1.2-.5 2.1-1.6 2.7-.8.5-1.7.6-1.7.6-.3 0-.5.2-.5.5v2 6.1c0 .3.2.5.5.5h1.2c.3 0 .5-.2.5-.4l.2-1.8 1.6-.5 1.2 1.4c.2.2.4.2.6.1l1.8-1.1c.2-.1.3-.4.2-.6l-.5-1.7 1-.9 1.9.3c.2 0 .4-.1.5-.2l1-1.6c.1-.2.1-.5-.1-.6l-1.3-1.4.4-1.4 1.8-.5c.2-.1.4-.3.4-.5v-2c0-.4-.2-.6-.4-.7z" mask="url(#b)"/><path d="m21.4 13.2c-.3 0-.5.2-.6.5-.2 1.3-.7 2.5-1.5 3.5-.7.8-1.6 1.4-2.6 1.9-.3.1-.4.4-.2.7.1.2.3.3.5.3h.2c1.9-.9 4.3-2.7 4.7-6.2-.1-.4-.3-.7-.5-.7"/><path d="m11.9 24.1c-.3 0-.8-.1-1.2-.4-.3-.3-.4-.7-.4-1.3 0-.2-.1-.4-.3-.5-.1 0-.1 0-.2 0s-.2 0-.3.1c0 0-.5.5-1.2.8-.8.3-1.5.2-2.1-.3-.6-.6-.9-1.3-.9-2.2 0-.7.2-1.2.2-1.2.1-.2 0-.4-.1-.6-.1-.1-.4-.2-.6-.1 0 0-1.1.5-2.1-.1-1.1-.7-1.7-2.7-1.7-5.7 0-.2 0-.3 0-.5.1-.1.3-.6.7-1.1.6-.6 1.3-.8 2-.8.8.1 1.3.5 1.6 1.3.3.7.3 1.3.3 1.3 0 .3.2.5.5.5s.5-.2.5-.5c0 0 0-.8-.4-1.6-.4-1.2-1.2-1.8-2.4-1.9-1-.1-1.9.2-2.6.9.2-1.6.8-2.8 1.6-3.3.4-.3.9-.4 1.4-.3.3 0 .5.1.6.1.1.2.4.5.8.8.3.2.7.4 1.1.4h.2c.4 0 .8-.1 1.2-.4 1.6-1 1.3-2.4 1.3-2.5 0 0-.1-.5-.6-.4-.5.2-.4.7-.4.7s0 .2-.1.5-.3.7-.7.9c-.6.3-1 .3-1.5 0-.3-.2-.5-.5-.6-.6 0-.1-.2-.6-.2-1.1 0-.9.3-1.6.9-2.2s1.3-.7 2.1-.3c.7.3 1.2.8 1.2.8.1 0 .3.1.5 0s.3-.3.3-.5c0-.6.1-1 .4-1.3s.8-.4 1.2-.4zm.5-24c-.1 0-1.5-.2-2.4.6-.3.4-.5.7-.6 1.2-.2-.2-.5-.3-.8-.4-.5-.2-1-.3-1.5-.3-.6.1-1.1.4-1.6.8-.8.8-1.3 1.9-1.2 3 0 .2 0 .4.1.6-.6-.1-1.4 0-2.2.5-1.4.8-2.1 2.8-2.2 5.9v.5.1c0 3.4.8 5.5 2.2 6.5.6.4 1.2.5 1.7.5h.5c0 .2-.1.4-.1.6 0 1.1.4 2.2 1.2 3 .5.5 1 .7 1.7.8.5 0 1 0 1.5-.3.3-.1.5-.2.7-.4.1.4.3.8.7 1.1.6.5 1.4.6 1.9.6h.5c.2 0 .4-.3.4-.5v-23.9c0-.2-.2-.4-.5-.5z"/><path d="m5.4 15.6c-1.4-.2-2.7.9-2.7.9-.2.2-.2.5-.1.7.2.2.5.2.7.1 0 0 1-.8 2-.7.5.1.9.3 1.3.8.6.7.7 1.5.5 2.4-.2.7-.5 1.1-.5 1.1-.2.2-.1.5.1.7.1.1.2.1.3.1s.3-.1.4-.2c0 0 .5-.6.7-1.5.2-.8.3-2.1-.7-3.3-.6-.7-1.2-1.1-2-1.1"/><path d="m10.6 7.2c.2-.2.2-.5 0-.7s-.5-.2-.7 0c-1.1 1-1.3 2.1-1.2 2.8v.1c-.5-.2-.9-.2-1-.2-.3 0-.5.2-.5.5s.2.5.5.5c0 0 .6 0 1.2.4.7.4 1.1 1.1 1.1 2s-.3 1.6-1 2c-.5.3-1.1.4-1.1.4-.3 0-.5.2-.5.5s.2.5.5.5c1.1 0 1.9.3 2.3.8.1.2.4.5.1 1.6 0 .1-.1.2-.1.3 0 .3.2.5.5.5s.5-.2.5-.4c0 0 0 0 0-.1.1-.4.4-1.5-.2-2.4-.3-.4-.7-.7-1.2-.9.6-.5 1.2-1.3 1.2-2.7 0-1.3-.5-2.1-1.1-2.5-.1-.2-.2-.5-.2-1-.1-.7.2-1.4.9-2"/></g></svg>