<svg height="26" viewBox="0 0 148 26" width="148" xmlns="http://www.w3.org/2000/svg" xmlns:xlink="http://www.w3.org/1999/xlink"><mask id="a" fill="#fff"><path d="m.05739861.0017279h12.81578459v24.976627h-12.81578459z" fill="#fff" fill-rule="evenodd"/></mask><g fill="#fff" fill-rule="evenodd"><g transform="translate(35 5)"><path d="m13.0592051 14.1934576h-2.599784v-.8116779c-.69822853.5740169-1.82352601 1.0491864-3.35616085 1.0491864-4.09355361 0-6.90664783-2.8508644-6.90664783-7.10740678 0-3.90005085 2.75494588-7.08757627 6.90664783-7.08757627 2.83237735 0 4.57847195 1.24733898 5.50974225 2.71235593l-2.0952836 1.58384746c-.62079704-.85133898-1.62964835-1.74218644-3.41445865-1.74218644-2.42503999 0-4.09355361 1.86086441-4.09355361 4.53355932 0 2.77169488 1.7848103 4.57337288 4.20999977 4.57337288 1.55191797 0 2.63835024-.6138305 3.20099899-1.207678v-1.56401691h-2.19214767v-2.29652543h4.83064737z"/><path d="m18.2389369 12.2334102c.8535399 0 1.4937696-.6335085 1.4937696-1.524356 0-.89084742-.6402297-1.50467793-1.5132023-1.50467793-.8925546 0-1.4939191.65333898-1.4939191 1.50467793 0 .8908475.6207971 1.524356 1.5133518 1.524356m-.3880543-4.98905088c.9312704 0 1.5715001.25733899 1.8429587.43550848v-.53435594c0-.9108305-.3879048-1.56401694-1.3580404-1.56401694-.9699861 0-1.2608773.63335593-1.2608773 1.22735593h-2.4251894c.0582978-1.99952543 1.2417436-3.3260339 3.6860667-3.3260339 2.9878382 0 3.9189591 1.68284746 3.9189591 4.03871186v6.67189829h-2.1728645v-.6731695c-.2908912.3168305-.9894187.811678-2.1922971.811678-2.075851 0-3.6084859-1.405678-3.6084859-3.6030509 0-1.97984741 1.4163382-3.48452538 3.5697701-3.48452538"/><path d="m28.3464641 6.33372712h-.6596623c-1.0088513 0-1.3580404.495-1.3580404 1.40567796v6.45406782h-2.5997839v-10.59177968h2.5997839v.85118644c.3686217-.53435593.9505535-.89084746 2.0177027-.89084746z"/><path d="m32.6341345 12.2334102c.8535399 0 1.4937696-.6335085 1.4937696-1.524356 0-.89084742-.6402297-1.50467793-1.5132022-1.50467793-.8924052 0-1.4937696.65333898-1.4937696 1.50467793 0 .8908475.6206476 1.524356 1.5132022 1.524356m-.3880542-4.98905088c.9312703 0 1.5715.25733899 1.8429586.43550848v-.53435594c0-.9108305-.3879048-1.56401694-1.3580403-1.56401694-.9699861 0-1.2608773.63335593-1.2608773 1.22735593h-2.4251895c.0582978-1.99952543 1.2417436-3.3260339 3.6860668-3.3260339 2.9878382 0 3.9189591 1.68284746 3.9189591 4.03871186v6.67189829h-2.1728646v-.6731695c-.2908912.3168305-.9894187.811678-2.1921476.811678-2.0760005 0-3.6086353-1.405678-3.6086353-3.6030509 0-1.97984741 1.4163381-3.48452538 3.5697701-3.48452538"/><path d="m43.2071923 12.0157017c1.7460945 0 2.8519594-1.346339 2.8519594-3.10820339 0-1.78184746-1.1445806-3.1280339-2.8519594-3.1280339-1.7460946 0-2.8712426 1.34618644-2.8712426 3.1280339 0 1.78169489 1.1834458 3.10820339 2.8712426 3.10820339zm2.9101077-8.41408475h2.4444726v8.81008475c0 3.9792203-2.3280264 5.4047288-5.5486075 5.4047288-1.6294989 0-3.0069718-.455339-3.8606612-.950339l.8342568-2.0985254c.6207971.356339 1.7460945.7721695 3.045837.7721695 1.6296484 0 2.9295404-.6731695 2.948973-2.2175085v-.1385085c-.446352.5345085-1.3969055 1.1878475-2.8712425 1.1878475-3.200999 0-5.374013-2.2173559-5.374013-5.44438983 0-3.06854237 2.173014-5.50372881 5.2768499-5.50372881 1.3387572 0 2.4446221.45533898 3.1041349 1.16816949z"/><path d="m52.4610301 7.75918983h4.694918c-.1162966-1.18784746-.9894187-2.09852542-2.4057568-2.09852542-1.3191751 0-2.1532825.89084745-2.2891612 2.09852542zm-.0581484 1.99952542c.1358788 1.40567795 1.1058649 2.25701695 2.5802019 2.25701695 1.3191751 0 2.0760005-.7128305 2.6192166-1.5838475l1.9205396 1.1878475c-.6207971 1.3263559-2.0177026 2.7518644-4.5397562 2.7518644-3.1427011 0-5.3155657-2.0786949-5.3155657-5.44438982 0-3.16754237 2.0951341-5.50372881 5.102106-5.50372881 3.1235675 0 5.0829723 2.07884745 5.0829723 5.24638983 0 .25733898 0 .63350847-.0388652 1.08884745z"/></g><g transform="translate(99 7)"><path d="m.92396611 1.68383077v4.05338461h1.32427176c1.35494351 0 2.04782595-.7916923 2.04782595-2.05830769 0-1.25092307-.66206106-1.99507692-2.04782595-1.99507692zm1.32427176 4.89246154h-1.32427176v5.22507689h-.90848244v-10.95661535h2.2327542c1.86319695 0 3.00254046.91830769 3.00254046 2.81830769 0 1.86830769-1.26262901 2.91323077-3.00254046 2.91323077z"/><path d="m6.52895268 7.03553846h6.14377712c-.0769038-1.94753846-1.3705038-3.02415384-3.11041529-3.02415384-1.64759695 0-2.84873282 1.10830769-3.03336183 3.02415384zm-.03082137.79169231c.1078748 2.02661538 1.33953282 3.29323073 3.21829007 3.29323073 1.55513282 0 2.44820462-.7916923 3.06403362-2.10584612l.693032.31676924c-.5851572 1.48830768-1.8631969 2.61246158-3.75706562 2.61246158-2.44850382 0-4.1421832-1.7575385-4.1421832-4.37000005 0-2.56492307 1.67841832-4.38584615 4.01874809-4.38584615 2.35618933 0 3.95755423 1.56753846 4.01904733 4.11676923 0 .11076923 0 .34830769-.0154107.52246154z"/><path d="m17.8156501 4.23303077h-.2925038c-1.1857252 0-1.7708825.77584615-1.7708825 2.09v5.47830773h-.8930717v-8.47076927h.8930717v.95c.2772428-.49092308.9084825-.96584615 2.0633863-.95z"/><path d="m20.2330632 6.67135385c.5081038.23738461.9699756.30092307 1.5397222.53830769 1.0163572.42753846 1.6013648 1.09246154 1.6013648 2.32753846 0 1.4724615-1.1393435 2.3590769-2.6021618 2.3590769-1.8633466 0-2.5714901-1.2349231-2.5714901-2.67584613h.8776611c.0306718 1.04507693.4466107 1.88415383 1.7399114 1.90000003.8776611.0158461 1.6630077-.5066154 1.6630077-1.51984618 0-.90261539-.4464611-1.31415385-1.1086718-1.58338462-.5235145-.22169231-1.0778504-.33261538-1.6013649-.58584615-.9855358-.49076923-1.3241221-1.17169231-1.3241221-2.0583077 0-1.29830769.9545649-2.13753846 2.3403298-2.13753846 1.7246504 0 2.3252183 1.17169231 2.340629 2.45415385h-.8468397c-.0462321-1.04492308-.5236641-1.69415385-1.5090504-1.69415385-.8624 0-1.4474076.47507693-1.4474076 1.33 0 .68076923.3079145 1.06076923.9084824 1.34584616"/><path d="m28.4091808 11.1205077c1.8940183 0 3.2951939-1.45661539 3.2951939-3.54661539 0-2.05830769-1.3857649-3.56246154-3.2951939-3.56246154s-3.2797832 1.48830769-3.2797832 3.56246154c0 2.09 1.3703542 3.54661539 3.2797832 3.54661539m.0155603-7.93246155c2.3558901 0 4.2035267 1.80492308 4.2035267 4.38584616 0 2.56492309-1.8938687 4.36999999-4.2344977 4.36999999-2.3558901 0-4.1882657-1.7258461-4.1882657-4.36999999 0-2.62830769 1.8786077-4.38584616 4.2192367-4.38584616"/><path d="m38.5103176 6.27547692c0-1.39323077-.5697466-2.21661538-1.7861435-2.21661538-1.2319573 0-1.8786077.91830769-1.8786077 2.29584615v5.44661541h-.8932214v-8.47076925h.8932214v.88661538c.2618321-.44338461.9238931-.98169231 1.9709222-.98169231 1.8477862 0 2.5869007 1.31415385 2.5869007 2.96092308v5.6049231h-.8930717z"/><path d="m43.5298327 11.1838308c1.1240824 0 1.9402504-.8392308 1.9402504-1.9792308 0-1.13984615-.816168-1.99492308-1.9556611-1.99492308-1.1703145 0-1.8940183.85507693-1.8940183 1.99492308 0 1.1241538.7545252 1.9792308 1.909429 1.9792308m-.0462321-4.73415388c.9238931 0 1.6323359.41169231 1.9556611.83923077v-1.12430769c0-1.40907692-.6622107-2.16907692-1.8477863-2.16907692-1.2318076 0-1.693829.80753846-1.7246504 1.69415384h-.8468396c.015261-1.34584615.8622503-2.45415384 2.6021618-2.45415384 1.8171145 0 2.6947756 1.15584615 2.6947756 2.97676923v5.58907689h-.8776611v-.7758461c-.3851176.5224615-1.031768.9183077-1.9556611.9183077-1.5551328 0-2.740858-1.0609231-2.740858-2.7392308 0-1.58323077 1.1086718-2.75492308 2.740858-2.75492308"/><path d="m48.0721402 11.8013846h.8930717v-11.57415383h-.8930717z"/></g><g><path d="m11.8594121 13.0906224-1.7461328.4989174c-.16815241.0480334-.30004299.1806144-.34924791.3509049l-.56200573 1.9480711c-.05209304.1806144-.00299509.375791.12803975.5089153l1.27558399 1.2960335-.5813668.9980522-1.83930121-.3114566c-.15702787-.0265162-.31737172.0234733-.43278934.1351891l-1.38854139 1.3433062c-.14023402.1357325-.19211312.340907-.13370902.5284765l.50563402 1.6219435-1.10229714.651603-1.11363565-1.3199415c-.13360205-.1584452-.34796435-.219302-.54296557-.1542069l-2.11581148.7052874c-.18558812.0618349-.319725.226583-.34464836.4233897l-.20751639 1.6332456h-.23736025v-5.1836991c.5344082-.104652 1.47015738-.3443845 2.43179262-.8565601 1.95996025-1.0438035 3.07862336-2.7129112 3.23490246-4.8267084.01283607-.1735507.01936107-.352535.01936107-.5319541 0-.9830553-.19382459-1.8856928-.57601845-2.68259139-.32881721-.6858349-.79979385-1.29918496-1.39955901-1.82309718-.21222295-.1855047-.53237582-.16094462-.71496885.05477116-.18248607.2156071-.15831148.54075653.05401844.72626123 1.07673197.94034692 1.62258565 2.19356318 1.62258565 3.72465618 0 .1538809-.00556229.3068924-.01636598.4547963-.1298582 1.756046-1.02763402 3.0943532-2.66819016 3.9775381-.75123074.4042633-1.49850369.6205225-1.98755779.7301735v-.9105706c.3989877-.0884597 1.00944959-.2670094 1.62247869-.6111766 1.40405164-.7880961 2.14619016-2.0501149 2.14619016-3.6495632 0-1.5977095-.74117582-2.86505326-2.14308811-3.66488607-.61474058-.35068757-1.2270209-.53456217-1.62558074-.62639081v-2.906349c.93489344.19800209 2.85313648.74288819 4.38287459 2.07891327.09573566.08356949.21318566.12453918.33020779.12453918.14258729 0 .28431885-.06074817.3846541-.17920167.18248606-.21571578.15831147-.5408652-.05391148-.72636991-1.82860451-1.59705747-4.09331434-2.16965517-5.043825-2.34929153v-3.25986207h.1246168l.64191025 1.87102194c.05487418.16040126.18398361.28287566.3451832.32743156l1.81822868.50380773c.18719263.05183699.38711435-.00934587.51494017-.15768443l1.11481229-1.29451201 1.09127951.63649738-.43428688 1.73702822c-.04246599.16996447.00310205.35036154.12108688.47848693l1.4214873 1.54489447c.1314627.14290491.33149139.19789341.51590287.14160083l1.63424508-.49804806.72833973 1.04847648-1.37174752 1.33895925c-.1298582.12682132-.18376967.31406479-.14162459.49185371l.4296873 1.81364261c.04481926.1890909.1905086.3363428.37684551.38079l1.8571647.4440376zm.6229771-2.1598746-1.9443431-.4647942-.2885975-1.21822361 1.4762545-1.44100314c.1806676-.17637617.2074094-.46033855.0630037-.66833855l-1.1901172-1.71290282c-.1256865-.18094044-.3510664-.259837-.5598664-.19626333l-1.68227336.51271892-1.0175791-1.1058558.46081475-1.843093c.05594385-.22397492-.04171721-.45849112-.23907172-.57346709l-1.78506885-1.0411954c-.20954877-.12214838-.47472049-.07715778-.63388771.10758621l-1.17963442 1.36960501-1.25472541-.34775339-.67250287-1.96056845c-.07102623-.20691327-.26303238-.34547126-.47867828-.34547126h-.9918c-.2799332 0-.50691762.2304953-.50691762.51489237v4.2085768.00086939 3.952c0 .2617931.19232705.4818558.44829959.51152351.00866434.00097806.87755901.1104117 1.72035369.59900522 1.06175655.61552351 1.60001557 1.54152561 1.60001557 2.75203341 0 1.2090951-.53729631 2.1287942-1.59691353 2.7335591-.84193893.4805517-1.71040573.5819435-1.71907008.5829216-.25736311.0281463-.45268524.248861-.45268524.5120669v1.9561128.0029342 6.1351306c0 .2843971.22698442.5150011.50691762.5150011h1.19011721c.25490287 0 .47022787-.1922425.5027459-.4491453l.22356148-1.7600669 1.48973238-.4966353 1.16776106 1.3840585c.15916722.1887649.42840369.2350596.6397709.109977l1.81833566-1.0746666c.20505615-.121279.29993607-.3707921.22826803-.6006353l-.53248278-1.7085559.97596885-.9442592 1.93214878.3271056c.2065537.0351013.4130004-.0625957.5196467-.2456009l.9587471-1.6457429c.1177709-.202349.0857877-.4602299-.0778721-.6264995l-1.3411549-1.36265.3984529-1.3811243 1.8453983-.5273898c.218641-.0623782.3697857-.2650533.3697857-.4957659v-2.0487022c0-.2389718-.1618414-.4466458-.3908582-.5013082z" mask="url(#a)" transform="translate(13.156967 .107043)"/><path d="m21.3597586 13.1742679c-.2781147-.0335799-.5302364.1678997-.5635032.4503407-.1582045 1.3478704-.6673685 2.5216468-1.5131582 3.4888359-.6705775.7666876-1.5519873 1.4080752-2.619841 1.906232-.254475.1186708-.3660418.4243678-.2492336.6829007.0853598.1888736.2690225.3001547.4609217.3001547.0708123 0 .1426943-.0151056.2112602-.0470554 1.9245541-.8977471 4.3051095-2.703674 4.7168263-6.2090282.0331598-.282441-.1652644-.5386918-.4432722-.5723804"/><path d="m11.8680872 24.0890516c-.3470017-.0107586-.8344513-.086721-1.1695795-.3901358-.2966201-.2687482-.4358914-.6988757-.4136422-1.2786458.0078086-.2056092-.107716-.3956782-.29223448-.480443-.06578483-.0303198-.13584836-.0449906-.20516311-.0449906-.12515164 0-.2485918.0479247-.34304385.1391013-.00492049.004673-.50435041.4766395-1.17139795.7527775-.83798115.346884-1.52717091.2392978-2.10704017-.328953-.61142459-.5992226-.90975614-1.3346124-.88654426-2.1855214.01818443-.6641004.23201189-1.1572581.23329549-1.1601923.08664344-.1924598.04631681-.4193689-.10119098-.5686855-.14761476-.1494253-.37106926-.1896343-.5601873-.1010658-.01101762.0052163-1.12401147.514023-2.11795082-.1321463-1.1294668-.734303-1.7297668-2.7045434-1.73757541-5.6998955.00042787-.1686604.00288812-.3337346.00705984-.495766.05273484-.1386666.28699303-.6333458.73304631-1.0802089.57847869-.5793355 1.2596459-.8388464 2.02467541-.7713605.75262131.0665078 1.28852705.4897889 1.63820287 1.2940773.28453279.6546458.32068771 1.3101609.32090164 1.3154859.0124082.2710303.23254672.4822905.49696967.4822905.00770164 0 .01561721-.0001087.02353279-.0005434.27458483-.0129321.48691475-.2497304.47407869-.5288025-.00139058-.0332539-.04118238-.8239582-.39160697-1.646721-.49343975-1.1588882-1.34960533-1.82407524-2.47575615-1.92351098-.9793918-.08661233-1.89545901.22669175-2.64936393.90600628-.01219426.010976-.02396066.0221693-.03594099.0332539.24955451-1.64541692.77775861-2.76224869 1.56300492-3.27844513.40551271-.26668339.87948443-.37318287 1.4087582-.31710763.26420902.02803762.48017582.09171996.60457869.13540648.13745287.18865622.40893565.5159791.80043565.78309718.34935492.23831975.71903361.37687774 1.09887418.41176175.06385943.00586834.12771886.00880251.19157828.00880251.41193074 0 .82418238-.12203971 1.22776967-.36372832 1.611675-.96512434 1.33783894-2.39276071 1.32543074-2.45307419 0 0-.09808893-.48239916-.59398893-.40404597-.49600697.07835318-.38058935.61161128-.38058935.61161128s-.0006418-.0028255-.0016045-.00847649c.0003209.00206479.0329459.20408778-.05252091.46881505-.11531065.35644723-.38518893.66377429-.80236106.91372205-.50124836.30015465-.97083443.29678579-1.4355-.01043261-.33020779-.21832392-.55141599-.52076071-.61484754-.61378474-.04674468-.11877952-.20559099-.56173041-.2212082-1.13041588-.02321188-.85090909.27511967-1.58619018.88654426-2.18552142.5745209-.56303449 1.25632992-.67366354 2.08447008-.33819018.68159509.27613793 1.18968935.75788506 1.19396804.76201463.14686598.14170951.36358155.17898432.54820696.09411076.18451848-.08476489.30004308-.27483386.29223448-.48044305-.0221423-.57792268.1160594-1.00718077.410861-1.27603762.335984-.30634901.8243963-.38274608 1.1723607-.39317868zm.573986-23.93977845c-.0599016-.00956322-1.4801053-.22158412-2.4060135.61704493-.32239917.29178683-.54136105.66442633-.65581597 1.11357158-.21136721-.13388506-.45888934-.2702696-.7314418-.38307211-.52285574-.21636781-1.03201968-.30406687-1.5134791-.26070637-.61837746.05585789-1.17706722.32449739-1.66066599.79842006-.82129426.80494044-1.23247623 1.83798537-1.18904754 2.98741902.00791558.21049948.03069959.40708882.06075738.58411703-.59013811-.08096133-1.38543934-.04488192-2.14972008.45207942-1.36393894.88677116-2.09858976 2.89146081-2.18737254 5.96320999 0 .0013041-.00021394.0027169-.00021394.0041296-.00010696.0017388 0 .0033689-.00010696.0052163-.00459959.1637701-.00759468.3304744-.00855738.5004389-.00021394.0067377-.0003209.0135841-.0003209.0204305v.1172581c0 .0068464.00010696.0136928.0003209.0205392.019575 3.3604932.75829057 5.5379728 2.19625082 6.4728861.57152582.3715528 1.15995246.4855507 1.66729795.485442.17125451 0 .3334168-.0129321.48242213-.0334713-.03005779.1771369-.0528418.3736176-.06075738.5841171-.04342869 1.1495423.36775328 2.1825872 1.18904754 2.9875276.48359877.4739227 1.04228853.7424535 1.66066599.7984201.48145942.0433605.99062336-.0443385 1.5134791-.2607064.27255246-.1129111.52007459-.249187.7314418-.3830721.11445492.4490366.3334168.8216761.65570897 1.1135716.6065041.549233 1.4246964.6476907 1.9341812.6476907.2684877 0 .4512947-.0273856.4719393-.0305371.2427086-.0382529.4217718-.2504911.4217718-.5000042v-23.92217342c0-.24951306-.1790632-.46164263-.4217718-.49978683z"/><path d="m5.43407348 15.5611386c-1.43250491-.1500774-2.68744426.8835109-2.74007213.9275235-.21243688.1775715-.24335041.496744-.06867295.7124597.17478443.2157158.4880914.2471223.70042131.0695507.00984099-.0081505.99554386-.8118955 2.01076968-.7026792.48402663.0520543.89627827.3014587 1.26039467.762232.56949344.7209362.74898442 1.5165308.53301762 2.3648318-.16975697.6676865-.5282041 1.1268296-.53055738 1.1298725-.17382172.2164765-.14205246.5349968.0711332.7115904.09241967.0766144.20366557.1139979.31437664.1139979.14440574 0 .28763484-.0635737.38604467-.1861568.019575-.0243427.48103156-.6056342.71175984-1.4723009.21778524-.8179812.27148278-2.0537012-.70929959-3.2950721-.53291066-.6746416-1.18541066-1.0567356-1.93931558-1.1358495"/><path d="m10.5817636 7.24798495c.2051632-.18604806.2229197-.50587252.0397919-.71419853-.1831279-.2084347-.4978255-.2264744-.70298857-.04042634-1.10582705 1.00315988-1.28221599 2.08662905-1.23525738 2.81908464.00267418.0433605.00641803.08585162.01069672.12758203-.51857705-.17322466-.92804754-.19724138-.95168729-.19854545-.27469181-.01499687-.50980574.19974085-.52413935.47870428s.19575.51684852.47033484.53151932c.00609713.000326.61495451.040861 1.19974426.3720961.72684221.4118705 1.09545123 1.0928151 1.09545123 2.0239248 0 .9308924-.33769549 1.5984702-1.00356639 1.9842592-.52007459.30135-1.06314714.3297136-1.09106558.3310177-.26955738.0051076-.48402664.2273438-.48627295.5015256-.00224631.2746165.21382746.5007649.48402664.5096761 1.14658156.0378182 1.92829795.3059143 2.26064512.7752727.1094274.1544243.3656139.5160878.0607573 1.5511975-.03562.120953-.0592598.2009363-.0592598.2976552 0 .2792894.2229197.5057638.4978254.5057638.2524426 0 .4608148-.1906123.4935467-.4378432.0051345-.0185831.0141197-.0495549.0218213-.0756364.1217287-.4135005.4454115-1.5118579-.2063397-2.4321003-.264423-.3730742-.6531418-.6604054-1.16273361-.8601463.60286721-.4575131 1.18637331-1.2598454 1.18637331-2.6506416 0-1.2668004-.5131217-2.0578307-1.08785651-2.5464242-.06236189-.13279836-.1885832-.44675447-.2146832-.85449533-.04717254-.73875862.25714918-1.41133542.90483561-1.99882132"/></g></g></svg>