<svg enable-background="new 0 0 80 70" viewBox="0 0 80 70" xmlns="http://www.w3.org/2000/svg"><path d="m66.662 37.423h-4.846c-1.339 0-2.425-1.085-2.425-2.423s1.085-2.424 2.425-2.424h4.846c1.339 0 2.424 1.086 2.424 2.424 0 1.337-1.083 2.423-2.424 2.423zm-6.092-19.562c.943-.946.943-2.481 0-3.427-.947-.946-2.485-.946-3.428 0l-3.429 3.427c-.946.947-.946 2.482 0 3.428.944.946 2.482.946 3.429 0zm-6.026 17.139c0 8.031-6.51 14.542-14.542 14.542s-14.546-6.511-14.546-14.542c0-8.032 6.511-14.544 14.545-14.544 8.033 0 14.543 6.512 14.543 14.544zm-4.849 0c0-5.355-4.34-9.695-9.694-9.695s-9.696 4.34-9.696 9.695c0 5.354 4.343 9.695 9.696 9.695s9.694-4.341 9.694-9.695zm-7.27-21.814v-4.848c0-1.338-1.085-2.424-2.424-2.424s-2.424 1.086-2.424 2.424v4.847c0 1.338 1.085 2.424 2.424 2.424 1.336.001 2.424-1.085 2.424-2.423zm-16.135 8.104c.946-.946.946-2.481 0-3.428l-3.428-3.427c-.946-.946-2.481-.946-3.427 0s-.946 2.482 0 3.427l3.427 3.428c.946.945 2.481.945 3.428 0zm-8.104 11.286h-4.849c-1.337 0-2.423 1.086-2.423 2.424 0 1.337 1.085 2.423 2.423 2.423h4.849c1.338 0 2.424-1.085 2.424-2.423s-1.085-2.424-2.424-2.424zm1.248 19.563c-.946.946-.946 2.482 0 3.427.946.947 2.482.947 3.427 0l3.428-3.427c.946-.947.946-2.482 0-3.428s-2.481-.946-3.428 0zm18.143 4.674v4.849c0 1.339 1.085 2.424 2.424 2.424s2.424-1.085 2.424-2.424v-4.849c0-1.339-1.085-2.423-2.424-2.423s-2.424 1.085-2.424 2.423zm16.136-8.102c-.946.946-.946 2.481 0 3.428l3.429 3.427c.944.947 2.481.947 3.428 0 .943-.945.943-2.481 0-3.427l-3.428-3.428c-.95-.947-2.485-.947-3.429 0z" fill="#fff"/></svg>