<svg enable-background="new 0 0 80 70" viewBox="0 0 80 70" xmlns="http://www.w3.org/2000/svg"><g fill="#fff"><path d="m33.1 54.2c-.7-.3-1.6 0-1.9.7l-4.6 10.3c-.3.7 0 1.6.7 1.9.2.1.4.1.6.1.6 0 1.1-.3 1.3-.9l4.6-10.3c.4-.6.1-1.5-.7-1.8z"/><path d="m44.7 54.2c-.7-.3-1.6 0-1.9.7l-4.6 10.3c-.3.7 0 1.6.7 1.9.2.1.4.1.6.1.6 0 1.1-.3 1.3-.9l4.6-10.3c.3-.6 0-1.5-.7-1.8z"/><path d="m21.6 54.2c-.7-.3-1.6 0-1.9.7l-4.7 10.3c-.3.7 0 1.6.7 1.9.2.1.4.1.6.1.6 0 1.1-.3 1.3-.9l4.6-10.3c.5-.6.2-1.5-.6-1.8z"/><path d="m67.7 54.2c-.7-.3-1.6 0-1.9.7l-4.6 10.3c-.3.7 0 1.6.7 1.9.2.1.4.1.6.1.6 0 1.1-.3 1.3-.9l4.6-10.3c.4-.6 0-1.5-.7-1.8z"/><path d="m56.2 54.2c-.7-.3-1.6 0-1.9.7l-4.6 10.3c-.3.7 0 1.6.7 1.9.2.1.4.1.6.1.6 0 1.1-.3 1.3-.9l4.6-10.3c.4-.6 0-1.5-.7-1.8z"/><path d="m65.9 23c-3.3-7-10.3-11.4-18-11.4-.5 0-1 0-1.6.1-1.1-.4-2.2-.6-3.3-.7-2.9-6-8.9-9.7-15.5-9.7s-12.5 3.7-15.4 9.6c-6.4.5-11.5 5.8-11.5 12.4 0 6.8 5.6 12.4 12.4 12.4 1.2 0 2.3-.2 3.4-.5-.1.7-.2 1.4-.2 2.1 0 7.9 6.4 14.3 14.3 14.3 2.8 0 5.5-.8 7.9-2.4 2.9 1.6 6.1 2.4 9.4 2.4s6.6-.8 9.4-2.4c2.3 1.5 5.1 2.4 7.9 2.4 7.9 0 14.3-6.4 14.3-14.3 0-7.7-6-13.9-13.5-14.3zm-8.2 19.6-1.7 1.1c-2.4 1.6-5.2 2.5-8.1 2.5s-5.7-.9-8.1-2.5l-1.8-1.1-1.5 1.4c-1.6 1.5-3.7 2.3-5.9 2.3-4.9 0-8.9-4-8.9-8.9 0-1.2.3-2.4.8-3.6l.6-1c1.6-2.6 4.5-4.2 7.6-4.2h.8l2 .2.7-1.9c1.9-5.3 6.8-9.1 12.4-9.6l2.2-.2c5.9.3 10.9 4.1 12.9 9.7l.7 1.9 2-.2h.8c4.9 0 8.9 4 8.9 8.9 0 2.4-.9 4.6-2.6 6.3s-3.9 2.6-6.3 2.6c-2.2 0-4.3-.8-5.9-2.3zm-42-26.2.7-1.9c1.7-4.7 6.2-7.9 11.2-7.9 4.8 0 9.1 2.9 11 7.3-3.8 2-6.8 5.2-8.7 9.1-4.1.2-7.8 2.1-10.4 5.3l-.2.1c-1.2 1.1-4.4 1.9-6.3 1.9-3.9 0-7.1-3.2-7.1-7.1s3.2-7.1 7.1-7.1h.6z"/></g></svg>