<svg enable-background="new -439 246 80 70" viewBox="-439 246 80 70" xmlns="http://www.w3.org/2000/svg"><g fill="#fff"><path d="m-373.9 270.4c-.1 0-.1 0-.2 0-2.9-6.9-9.7-11.4-17.2-11.4-.6 0-1.2 0-1.8.1-1.3-.5-2.6-.8-4-.8-2.5-5.8-8.2-9.6-14.5-9.6s-12.1 3.8-14.5 9.6c-6.1 0-11 5-11 11 0 6.1 5 11 11 11 1.9 0 3.8-.5 5.4-1.4-.5 1.4-.8 2.8-.8 4.3 0 7.1 5.8 12.9 12.9 12.9 2.8 0 5.5-.9 7.8-2.6 2.9 1.7 6.2 2.6 9.5 2.6 3.4 0 6.6-.9 9.5-2.6 2.2 1.7 5 2.6 7.8 2.6 7.1 0 12.9-5.8 12.9-12.9.1-7-5.6-12.8-12.8-12.8zm-44.9 5.1c-1.5 1.4-5.1 2.2-7.2 2.2-4.6 0-8.4-3.8-8.4-8.4s3.8-8.4 8.4-8.4h.8l1 .1.3-.9c1.9-5.2 6.9-8.8 12.4-8.8s10.6 3.5 12.4 8.8l.2.6c-4.2 1.9-7.6 5.4-9.5 9.8-.1 0-.1 0-.2 0-4.1-.1-7.8 1.9-10.2 5zm44.9 18.1c-2.5 0-4.9-.9-6.8-2.6l-.8-.7-.8.6c-2.6 1.8-5.7 2.7-8.9 2.7s-6.3-.9-8.9-2.7l-.8-.6-.8.7c-1.9 1.7-4.3 2.6-6.8 2.6-5.7 0-10.3-4.6-10.3-10.3 0-1.5.3-2.9.9-4.2l.6-1c1.9-3 5.2-4.9 8.7-4.9h.9l1 .1.3-.9c2.1-5.8 7.4-10 13.5-10.5l2.3-.2c6.4.3 12 4.5 14.2 10.6l.3.9 1-.1h.9c5.7 0 10.3 4.6 10.3 10.3.3 5.6-4.3 10.2-10 10.2z" stroke="#fff" stroke-miterlimit="10"/><path d="m-421.5 304.9h8.5m0 .8h-8.5c-.4 0-.8-.4-.8-.8s.4-.8.8-.8h8.5c.4 0 .8.4.8.8 0 .5-.3.8-.8.8zm-4.2 3.5v-8.5m0 9.3c-.4 0-.8-.4-.8-.8v-8.5c0-.4.4-.8.8-.8s.8.4.8.8v8.5c0 .4-.4.8-.8.8zm-3-2.1 6-6m-6 6.8c-.2 0-.4-.1-.6-.2-.3-.3-.3-.8 0-1.1l6-6c.3-.3.8-.3 1.1 0s.3.8 0 1.1l-6 6c-.1.2-.3.2-.5.2zm6-.8-6-6m6 6.8c-.2 0-.4-.1-.6-.2l-6-6c-.3-.3-.3-.8 0-1.1s.8-.3 1.1 0l6 6c.3.3.3.8 0 1.1-.1.2-.3.2-.5.2zm10.9-3.8h8.5m.1.8h-8.5c-.4 0-.8-.4-.8-.8s.4-.8.8-.8h8.5c.4 0 .8.4.8.8-.1.5-.4.8-.8.8zm-4.3 3.5v-8.5m0 9.3c-.4 0-.8-.4-.8-.8v-8.5c0-.4.4-.8.8-.8s.8.4.8.8v8.5c0 .4-.4.8-.8.8zm3-8.1-6 6m0 .8c-.2 0-.4-.1-.6-.2-.3-.3-.3-.8 0-1.1l6-6c.3-.3.8-.3 1.1 0s.3.8 0 1.1l-6 6c-.1.2-.3.2-.5.2zm6-.8-6-6m6 6.8c-.2 0-.4-.1-.6-.2l-6-6c-.3-.3-.3-.8 0-1.1s.8-.3 1.1 0l6 6c.3.3.3.8 0 1.1-.1.2-.3.2-.5.2zm1.9 5.8h8.5m.6-9.6h8.5m0 .8h-8.5c-.4 0-.8-.4-.8-.8s.4-.8.8-.8h8.5c.4 0 .8.4.8.8 0 .5-.4.8-.8.8zm-4.3 3.5v-8.5m0 9.3c-.4 0-.8-.4-.8-.8v-8.5c0-.4.4-.8.8-.8s.8.4.8.8v8.5c0 .4-.3.8-.8.8zm-3-2.1 6-6m-6 6.8c-.2 0-.4-.1-.6-.2-.3-.3-.3-.8 0-1.1l6-6c.3-.3.8-.3 1.1 0s.3.8 0 1.1l-6 6c-.1.2-.3.2-.5.2zm6-.8-6-6m6 6.8c-.2 0-.4-.1-.6-.2l-6-6c-.3-.3-.3-.8 0-1.1s.8-.3 1.1 0l6 6c.3.3.3.8 0 1.1-.1.2-.3.2-.5.2z"/></g></svg>