<svg enable-background="new -439 246 80 70" viewBox="-439 246 80 70" xmlns="http://www.w3.org/2000/svg"><path d="m-399.4 309.3c-15.7 0-28.5-12.8-28.5-28.5 0-13.8 9.9-25.6 23.5-28 .8-.1 1.7.1 2.3.7s.8 1.4.7 2.3c-.3 1.5-.4 3-.4 4.5 0 12.9 10.5 23.4 23.4 23.4 1.3 0 2.7-.1 4.1-.4.8-.1 1.7.1 2.3.7s.8 1.5.7 2.3c-2.7 13.3-14.5 23-28.1 23zm-7.5-50.6c-9.3 3.2-15.8 12-15.8 22.1 0 12.9 10.5 23.4 23.4 23.4 10 0 18.7-6.3 22-15.5-.4 0-.8 0-1.1 0-15.7 0-28.5-12.8-28.5-28.5-.1-.5-.1-1 0-1.5z" fill="#fff"/></svg>