<svg enable-background="new -439 246 80 70" viewBox="-439 246 80 70" xmlns="http://www.w3.org/2000/svg"><path d="m-373.7 278.9c-.1 0-.1 0-.2 0-2.9-6.9-9.7-11.5-17.2-11.5-.6 0-1.2 0-1.8.1-1.3-.5-2.6-.8-4-.8-2.5-5.8-8.2-9.6-14.6-9.6s-12.1 3.8-14.6 9.6c-6.1 0-11.1 5-11.1 11.1s5 11.1 11.1 11.1c1.9 0 3.8-.5 5.4-1.4-.5 1.4-.8 2.8-.8 4.4 0 7.1 5.8 12.9 12.9 12.9 2.8 0 5.6-.9 7.8-2.6 2.9 1.7 6.2 2.6 9.6 2.6s6.7-.9 9.5-2.6c2.2 1.7 5 2.6 7.8 2.6 7.1 0 12.9-5.8 12.9-12.9.2-7.2-5.6-13-12.7-13zm-45.1 5.2c-1.5 1.4-5.1 2.2-7.2 2.2-4.7 0-8.4-3.8-8.4-8.4 0-4.7 3.8-8.4 8.4-8.4h.8l1 .1.3-1c1.9-5.3 6.9-8.8 12.5-8.8s10.6 3.5 12.5 8.8l.2.6c-4.2 1.9-7.7 5.4-9.5 9.8-.1 0-.1 0-.2 0-4.2-.1-8 2-10.4 5.1zm45.1 18.1c-2.5 0-4.9-.9-6.8-2.6l-.8-.7-.8.6c-2.6 1.8-5.7 2.7-8.9 2.7s-6.3-.9-8.9-2.7l-.8-.6-.8.7c-1.9 1.7-4.3 2.6-6.8 2.6-5.7 0-10.3-4.6-10.3-10.3 0-1.5.3-2.9.9-4.2l.6-1c1.9-3 5.2-4.9 8.7-4.9h.9l1 .1.3-.9c2.1-5.8 7.4-10 13.6-10.6l2.3-.2c6.4.3 12.1 4.5 14.3 10.6l.3.9 1-.1h.9c5.7 0 10.3 4.6 10.3 10.3.1 5.7-4.5 10.3-10.2 10.3z" fill="#fff" stroke="#fff" stroke-miterlimit="10"/></svg>