<svg enable-background="new -265 362 80 70" viewBox="-265 362 80 70" xmlns="http://www.w3.org/2000/svg"><g fill="#fff" stroke="#fff" stroke-miterlimit="10"><path d="m-203.4 407.3h-.1c-2.5-5.9-8.2-9.8-14.6-9.8-.5 0-1 0-1.5.1-1.1-.4-2.2-.7-3.4-.7-2.1-4.9-7-8.2-12.4-8.2s-10.3 3.3-12.4 8.2c-5.2 0-9.4 4.2-9.4 9.4s4.2 9.4 9.4 9.4c1.6 0 3.2-.4 4.6-1.2-.4 1.2-.7 2.4-.7 3.7 0 6.1 4.9 11 11 11 2.4 0 4.7-.8 6.6-2.2 2.5 1.5 5.3 2.2 8.1 2.2 2.9 0 5.7-.8 8.1-2.2 1.9 1.4 4.2 2.2 6.6 2.2 6.1 0 11-4.9 11-11 .1-6-4.9-10.9-10.9-10.9zm-38.4 4.4c-1.3 1.2-4.4 1.9-6.1 1.9-4 0-7.2-3.2-7.2-7.2s3.2-7.2 7.2-7.2h.6l.9.1.3-.8c1.6-4.5 5.9-7.5 10.6-7.5s9 3 10.6 7.5l.2.5c-3.6 1.6-6.5 4.6-8.1 8.3h-.1c-3.7 0-6.9 1.7-8.9 4.4zm38.4 15.4c-2.1 0-4.2-.8-5.8-2.2l-.6-.6-.7.5c-2.3 1.5-4.9 2.3-7.6 2.3s-5.3-.8-7.6-2.3l-.7-.5-.6.6c-1.6 1.4-3.7 2.2-5.8 2.2-4.8 0-8.8-3.9-8.8-8.8 0-1.3.3-2.5.8-3.6l.6-.9c1.6-2.6 4.4-4.1 7.4-4.1h.8l.9.1.3-.8c1.8-5 6.3-8.5 11.6-9l2-.2c5.5.3 10.3 3.8 12.1 9l.3.8.9-.1h.8c4.8 0 8.8 3.9 8.8 8.8-.4 4.8-4.3 8.8-9.1 8.8z" stroke-width="2.1864"/><path d="m-192.8 394.5c-.3-.3-.8-.5-1.3-.4-.8.1-1.6.2-2.4.2-7.4 0-13.5-6-13.5-13.5 0-.8.1-1.7.3-2.6.1-.5-.1-1-.4-1.3s-.8-.5-1.3-.4c-7.8 1.4-13.5 8.2-13.5 16.1 0 1.9.3 3.7.9 5.4.8-.2 1.7-.3 2.6-.3h.5c-.7-1.6-1-3.3-1-5.2 0-5.8 3.7-10.9 9.1-12.7v.9c0 9 7.4 16.4 16.4 16.4h.7c-1.5 4.3-5.2 7.5-9.6 8.5 1.1.6 2 1.3 2.8 2.2 5.1-2 9.1-6.5 10.2-12.2 0-.3-.2-.8-.5-1.1z" stroke-width="1.0932"/></g></svg>