<svg enable-background="new -265 362 80 70" viewBox="-265 362 80 70" xmlns="http://www.w3.org/2000/svg"><g fill="#fff"><path d="m-203.5 407.3h-.1c-2.5-5.9-8.2-9.7-14.6-9.7-.5 0-1 0-1.5.1-1.1-.4-2.2-.7-3.4-.7-2.1-4.9-7-8.2-12.4-8.2s-10.3 3.3-12.4 8.2c-5.2 0-9.4 4.2-9.4 9.4s4.2 9.4 9.4 9.4c1.6 0 3.2-.4 4.6-1.2-.4 1.2-.7 2.4-.7 3.7 0 6.1 4.9 11 11 11 2.4 0 4.7-.8 6.6-2.2 2.5 1.5 5.2 2.2 8.1 2.2s5.7-.8 8.1-2.2c1.9 1.4 4.2 2.2 6.6 2.2 6.1 0 11-4.9 11-11 .1-6.1-4.9-11-10.9-11zm-38.4 4.4c-1.3 1.2-4.4 1.9-6.1 1.9-4 0-7.2-3.2-7.2-7.2s3.2-7.2 7.2-7.2h.6l.9.1.3-.8c1.6-4.5 5.9-7.5 10.6-7.5s9 3 10.6 7.5l.2.5c-3.6 1.6-6.5 4.6-8.1 8.3h-.1c-3.7 0-6.9 1.7-8.9 4.4zm38.4 15.4c-2.1 0-4.2-.8-5.8-2.2l-.6-.6-.7.5c-2.3 1.5-4.9 2.3-7.6 2.3s-5.3-.8-7.6-2.3l-.7-.5-.6.6c-1.6 1.4-3.7 2.2-5.8 2.2-4.8 0-8.8-3.9-8.8-8.8 0-1.3.3-2.5.8-3.6l.6-.9c1.6-2.6 4.4-4.1 7.4-4.1h.8l.9.1.3-.8c1.8-5 6.3-8.5 11.6-9l2-.2c5.4.3 10.3 3.8 12.1 9l.3.8.9-.1h.8c4.8 0 8.8 3.9 8.8 8.8-.4 4.8-4.3 8.8-9.1 8.8z" stroke="#fff" stroke-miterlimit="10" stroke-width="2.1859"/><path d="m-204.7 380.3 3.5-3.5c1-1 1-2.5 0-3.5s-2.5-1-3.5 0l-3.5 3.5c-1 1-1 2.5 0 3.5s2.5 1 3.5 0z"/><path d="m-233.9 390.3c.9.1 1.7.3 2.6.5 1.4-3.8 5-6.5 9.2-6.5 5.4 0 9.8 4.4 9.8 9.8 0 2.4-.9 4.5-2.2 6.2 0 .1.1.2.1.3 1.7.1 3.3.6 4.8 1.3 1.4-2.3 2.2-4.9 2.2-7.7 0-8.1-6.6-14.8-14.8-14.8-5.9 0-11 3.5-13.3 8.5.6.8 1.2 1.5 1.6 2.4z"/><path d="m-195.1 391.7h-4.9c-1.4 0-2.5 1.1-2.5 2.5s1.1 2.5 2.5 2.5h4.9c1.4 0 2.5-1.1 2.5-2.5s-1.1-2.5-2.5-2.5z"/><path d="m-239.5 380.3c1 1 2.5 1 3.5 0s1-2.5 0-3.5l-3.5-3.5c-1-1-2.5-1-3.5 0s-1 2.5 0 3.5z"/><path d="m-222.1 374.5c1.4 0 2.5-1.1 2.5-2.5v-4.9c0-1.4-1.1-2.5-2.5-2.5s-2.5 1.1-2.5 2.5v4.9c0 1.4 1.1 2.5 2.5 2.5z"/></g></svg>