<svg height="75" viewBox="0 0 292 75" width="292" xmlns="http://www.w3.org/2000/svg" xmlns:xlink="http://www.w3.org/1999/xlink"><clipPath id="a" transform="translate(-48.5 -34.61)"><path d="m48.5 34.61h29v20.69h-29z"/></clipPath><svg height="10.58" viewBox="-1 -1 240.58 10.58" width="240.58" y="23.16"><path d="m2.94 6.45a2.91 2.91 0 0 1 -1.15-.23 3 3 0 0 1 -.93-.61 2.84 2.84 0 0 1 -.62-.91 2.8 2.8 0 0 1 -.23-1.12 2.77 2.77 0 0 1 .23-1.12 2.9 2.9 0 0 1 .62-.95 2.94 2.94 0 0 1 .93-.62 2.91 2.91 0 0 1 1.15-.23 2.91 2.91 0 0 1 1.15.23 3 3 0 0 1 .94.62 2.87 2.87 0 0 1 .63.91 2.77 2.77 0 0 1 .23 1.12 2.79 2.79 0 0 1 -.23 1.12 2.82 2.82 0 0 1 -.63.91 3 3 0 0 1 -.94.61 2.91 2.91 0 0 1 -1.15.27zm0-.82a2.09 2.09 0 0 0 .82-.12 2.14 2.14 0 0 0 .67-.44 2.06 2.06 0 0 0 .45-.65 2 2 0 0 0 .17-.8 2 2 0 0 0 -.17-.8 2.07 2.07 0 0 0 -.45-.65 2.13 2.13 0 0 0 -.67-.44 2.09 2.09 0 0 0 -.83-.16 2.09 2.09 0 0 0 -.83.16 2.1 2.1 0 0 0 -.66.44 2 2 0 0 0 -.44.65 2.06 2.06 0 0 0 -.16.8 2.05 2.05 0 0 0 .16.8 2 2 0 0 0 .44.65 2.1 2.1 0 0 0 .66.44 2.09 2.09 0 0 0 .84.13zm0-.54a1.64 1.64 0 0 1 -.65-.13 1.6 1.6 0 0 1 -.51-.34 1.49 1.49 0 0 1 -.33-.5 1.64 1.64 0 0 1 -.12-.62 1.58 1.58 0 0 1 .12-.62 1.55 1.55 0 0 1 .33-.5 1.6 1.6 0 0 1 .51-.34 1.62 1.62 0 0 1 .64-.13 1.51 1.51 0 0 1 .85.25 1.5 1.5 0 0 1 .55.62l-.46.21-.24.11-.12.06a.53.53 0 0 0 -.19-.27.61.61 0 0 0 -.4-.12.7.7 0 0 0 -.52.22.73.73 0 0 0 -.21.53.73.73 0 0 0 .21.53.7.7 0 0 0 .52.22.64.64 0 0 0 .4-.13.53.53 0 0 0 .2-.27l.84.29a1.69 1.69 0 0 1 -.56.68 1.46 1.46 0 0 1 -.82.25zm5.47.36a1.58 1.58 0 0 1 .13-.66 2.14 2.14 0 0 1 .35-.54 3.17 3.17 0 0 1 .49-.45l.54-.38.41-.28a3.29 3.29 0 0 0 .35-.27 1.38 1.38 0 0 0 .24-.28.57.57 0 0 0 .09-.31.64.64 0 0 0 -.2-.48.8.8 0 0 0 -.59-.2.84.84 0 0 0 -.62.23 1.74 1.74 0 0 0 -.39.61l-.92-.45a2.31 2.31 0 0 1 .75-1 2 2 0 0 1 1.18-.35 2.29 2.29 0 0 1 .78.12 1.82 1.82 0 0 1 .59.34 1.4 1.4 0 0 1 .37.5 1.56 1.56 0 0 1 .13.62 1.4 1.4 0 0 1 -.13.6 1.91 1.91 0 0 1 -.33.49 3.13 3.13 0 0 1 -.46.41l-.51.36-.43.29a3.07 3.07 0 0 0 -.38.3 1.52 1.52 0 0 0 -.27.33.71.71 0 0 0 -.1.37h2.59v1h-3.65v-1zm6.35 1a2.38 2.38 0 0 1 -.83-.13 1.71 1.71 0 0 1 -.61-.38 1.6 1.6 0 0 1 -.38-.58 2 2 0 0 1 -.13-.74v-2.06a1.91 1.91 0 0 1 .14-.74 1.77 1.77 0 0 1 .4-.59 1.86 1.86 0 0 1 .62-.4 2.12 2.12 0 0 1 .79-.14 2.12 2.12 0 0 1 .81.15 1.85 1.85 0 0 1 .61.4 1.74 1.74 0 0 1 .39.59 1.92 1.92 0 0 1 .14.73v2.06a2 2 0 0 1 -.13.75 1.66 1.66 0 0 1 -.38.58 1.67 1.67 0 0 1 -.61.37 2.42 2.42 0 0 1 -.83.13zm0-1.06a.87.87 0 0 0 .66-.24.81.81 0 0 0 .23-.58v-2a.87.87 0 0 0 -.22-.63.86.86 0 0 0 -.65-.23.85.85 0 0 0 -.66.25.87.87 0 0 0 -.23.61v2a.82.82 0 0 0 .22.59.86.86 0 0 0 .65.23zm3.33 1.05v-4.74h-.7v-1h1.77v5.74zm4.48-4.71h-2.5v-1h3.62v.93l-2 4.81h-1.13zm3.76 3.78 2.54-3.73h-2.45v-1h3.71v1l-2.54 3.74h2.54v1h-3.8v-1zm8.43.93h-1.05v-.58a1.52 1.52 0 0 1 -.55.43 1.79 1.79 0 0 1 -.77.16 1.68 1.68 0 0 1 -1.29-.51 2 2 0 0 1 -.48-1.42v-2.68h1.08v2.56a1.3 1.3 0 0 0 .24.83.89.89 0 0 0 .74.3 1 1 0 0 0 .73-.31 1.29 1.29 0 0 0 .29-.91v-2.47h1.06zm.51-4.59h.78a2.93 2.93 0 0 1 .11-.84 1.29 1.29 0 0 1 .33-.57 1.36 1.36 0 0 1 .59-.32 3.35 3.35 0 0 1 .89-.1h.09v1a2.6 2.6 0 0 0 -.5 0 .54.54 0 0 0 -.29.14.49.49 0 0 0 -.13.27 2.59 2.59 0 0 0 0 .42h.94v1h-.94v3.65h-1.08v-3.65h-.78v-1zm3.19 0h.78a2.93 2.93 0 0 1 .11-.84 1.29 1.29 0 0 1 .33-.57 1.36 1.36 0 0 1 .59-.32 3.35 3.35 0 0 1 .89-.1h.09v1a2.6 2.6 0 0 0 -.5 0 .54.54 0 0 0 -.29.14.49.49 0 0 0 -.13.27 2.59 2.59 0 0 0 0 .42h.94v1h-.94v3.65h-1.08v-3.65h-.79zm5.2 4.6a2.28 2.28 0 0 1 -.82-.16 2.27 2.27 0 0 1 -.73-.45 2.24 2.24 0 0 1 -.52-.72 2.31 2.31 0 0 1 -.2-1 2.37 2.37 0 0 1 .19-1 2.2 2.2 0 0 1 .51-.72 2.19 2.19 0 0 1 .73-.45 2.38 2.38 0 0 1 .84-.16 2.12 2.12 0 0 1 .84.17 1.76 1.76 0 0 1 .64.45v-.61h1.06v4.6h-1.06v-.65a1.74 1.74 0 0 1 -.64.48 2 2 0 0 1 -.84.22zm.17-1a1.43 1.43 0 0 0 .55-.1 1.27 1.27 0 0 0 .43-.29 1.42 1.42 0 0 0 .29-.43 1.3 1.3 0 0 0 .11-.52 1.28 1.28 0 0 0 -.11-.52 1.37 1.37 0 0 0 -.29-.42 1.3 1.3 0 0 0 -.43-.28 1.43 1.43 0 0 0 -.55-.1 1.44 1.44 0 0 0 -.55.1 1.42 1.42 0 0 0 -.44.28 1.26 1.26 0 0 0 -.29.42 1.29 1.29 0 0 0 -.11.52 1.32 1.32 0 0 0 .11.53 1.29 1.29 0 0 0 .29.43 1.39 1.39 0 0 0 .44.28 1.43 1.43 0 0 0 .55.16zm3.2.31h.94l-.55 1.6h-.66zm3.6-5.05h1.07v4.72h2.06v1h-3.17v-5.72zm3.86 0h1.07v4.72h2.1v1h-3.17zm6.27 5.74a3.12 3.12 0 0 1 -1.21-.23 2.81 2.81 0 0 1 -.93-.61 2.73 2.73 0 0 1 -.6-.91 3 3 0 0 1 -.21-1.12 2.87 2.87 0 0 1 .23-1.15 2.79 2.79 0 0 1 .63-.91 2.85 2.85 0 0 1 .94-.6 3.1 3.1 0 0 1 1.16-.21 2.89 2.89 0 0 1 .77.1 3 3 0 0 1 .7.29 2.74 2.74 0 0 1 .59.45 2.92 2.92 0 0 1 .45.59l-.94.57a2 2 0 0 0 -.64-.7 1.67 1.67 0 0 0 -.94-.26 2 2 0 0 0 -.75.14 1.82 1.82 0 0 0 -.6.39 1.76 1.76 0 0 0 -.39.58 1.82 1.82 0 0 0 -.14.72 1.78 1.78 0 0 0 .14.71 1.81 1.81 0 0 0 .39.57 1.79 1.79 0 0 0 .59.39 1.94 1.94 0 0 0 .74.14 1.72 1.72 0 0 0 1-.29 2 2 0 0 0 .64-.74l1 .49a3.16 3.16 0 0 1 -.46.65 3 3 0 0 1 -.61.51 2.88 2.88 0 0 1 -.72.33 2.84 2.84 0 0 1 -.83.11zm2.92-.63a.64.64 0 0 1 .17-.47.63.63 0 0 1 .47-.18.62.62 0 0 1 .47.18.65.65 0 0 1 .17.47.63.63 0 0 1 -.17.46.63.63 0 0 1 -.47.18.62.62 0 0 1 -.47-.18.64.64 0 0 1 -.17-.46zm5.7-5.11h1.08l2 5.74h-1.12l-.35-1h-2.23l-.35 1h-1.12zm-.21 3.69h1.51l-.75-2.18zm3.83-3.77h1.07v5.82h-1.07zm1.76 0h1.07v5.82h-1.07zm3.81 1.22h1.05v.66a1.19 1.19 0 0 1 1.18-.68 1.71 1.71 0 0 1 .45.05 1.64 1.64 0 0 1 .36.14l-.4 1a1.17 1.17 0 0 0 -.26-.13 1.14 1.14 0 0 0 -.37-.05.9.9 0 0 0 -.7.26 1.26 1.26 0 0 0 -.24.86v2.45h-1.06v-4.6zm3.33-1.13a.66.66 0 0 1 .18-.48.65.65 0 0 1 .49-.19.65.65 0 0 1 .49.19.67.67 0 0 1 .18.48.66.66 0 0 1 -.18.48.66.66 0 0 1 -.49.18.65.65 0 0 1 -.5-.18.66.66 0 0 1 -.17-.48zm.13 1.12h1.07v4.6h-1.07zm5.38 3.91a1.75 1.75 0 0 1 -.64.52 2 2 0 0 1 -.86.19 2.28 2.28 0 0 1 -.82-.16 2.27 2.27 0 0 1 -.73-.45 2.24 2.24 0 0 1 -.52-.72 2.31 2.31 0 0 1 -.2-1 2.37 2.37 0 0 1 .19-1 2.2 2.2 0 0 1 .51-.72 2.19 2.19 0 0 1 .73-.45 2.38 2.38 0 0 1 .84-.16 2 2 0 0 1 .84.18 1.79 1.79 0 0 1 .64.48v-.65h1.06v4.42a2.6 2.6 0 0 1 -.15.9 2.1 2.1 0 0 1 -.45.73 2.12 2.12 0 0 1 -.74.5 2.68 2.68 0 0 1 -1 .18 3.12 3.12 0 0 1 -.81-.1 2.5 2.5 0 0 1 -.66-.27 2.33 2.33 0 0 1 -.51-.42 2.63 2.63 0 0 1 -.38-.53l.94-.57a2 2 0 0 0 .57.69 1.45 1.45 0 0 0 .86.23 1.3 1.3 0 0 0 .54-.11 1.28 1.28 0 0 0 .41-.29 1.26 1.26 0 0 0 .26-.42 1.44 1.44 0 0 0 .09-.5v-.53zm-1.33-.24a1.43 1.43 0 0 0 .55-.1 1.27 1.27 0 0 0 .43-.29 1.42 1.42 0 0 0 .29-.43 1.3 1.3 0 0 0 .11-.52 1.28 1.28 0 0 0 -.11-.52 1.37 1.37 0 0 0 -.29-.42 1.3 1.3 0 0 0 -.43-.28 1.43 1.43 0 0 0 -.55-.1 1.44 1.44 0 0 0 -.55.1 1.42 1.42 0 0 0 -.44.28 1.26 1.26 0 0 0 -.29.42 1.29 1.29 0 0 0 -.11.52 1.32 1.32 0 0 0 .11.53 1.29 1.29 0 0 0 .29.43 1.39 1.39 0 0 0 .44.28 1.43 1.43 0 0 0 .55.1zm3.04-4.88h1.06v1.88a1.69 1.69 0 0 1 .58-.5 1.76 1.76 0 0 1 .79-.17 1.76 1.76 0 0 1 1.34.51 2 2 0 0 1 .48 1.42v2.68h-1.08v-2.55a1.24 1.24 0 0 0 -.26-.83 1 1 0 0 0 -.78-.3 1.09 1.09 0 0 0 -.42.08 1 1 0 0 0 -.34.23 1.08 1.08 0 0 0 -.23.38 1.55 1.55 0 0 0 -.08.52v2.47h-1.07v-5.82zm4.59 1.22h.79v-.7l1.07-.73v1.43h.94v1h-.95v1.66a3 3 0 0 0 0 .48.51.51 0 0 0 .13.28.51.51 0 0 0 .28.13 3.05 3.05 0 0 0 .49 0v1h-.15a3.56 3.56 0 0 1 -.89-.09 1.18 1.18 0 0 1 -.57-.32 1.29 1.29 0 0 1 -.3-.59 3.88 3.88 0 0 1 -.09-.92v-1.73h-.79v-1zm5.18 4.6a2.55 2.55 0 0 1 -1.27-.28 1.92 1.92 0 0 1 -.78-.82l1-.44a1.17 1.17 0 0 0 .45.46 1.31 1.31 0 0 0 .66.16.93.93 0 0 0 .59-.16.47.47 0 0 0 .2-.37.24.24 0 0 0 -.09-.19.86.86 0 0 0 -.24-.13 2.06 2.06 0 0 0 -.34-.09l-.42-.08-.59-.14a1.92 1.92 0 0 1 -.51-.23 1.17 1.17 0 0 1 -.37-.37 1.07 1.07 0 0 1 -.14-.57 1.06 1.06 0 0 1 .13-.51 1.37 1.37 0 0 1 .37-.43 1.8 1.8 0 0 1 .57-.3 2.4 2.4 0 0 1 .74-.11 2.34 2.34 0 0 1 1.15.26 1.94 1.94 0 0 1 .73.7l-.9.43a1 1 0 0 0 -.39-.37 1.21 1.21 0 0 0 -.58-.13.9.9 0 0 0 -.56.14.41.41 0 0 0 -.18.33.33.33 0 0 0 .27.31 6.29 6.29 0 0 0 .79.2 5.43 5.43 0 0 1 .57.14 2.17 2.17 0 0 1 .52.23 1.19 1.19 0 0 1 .38.38 1 1 0 0 1 .15.57 1.21 1.21 0 0 1 -.11.48 1.4 1.4 0 0 1 -.34.46 1.79 1.79 0 0 1 -.59.35 2.39 2.39 0 0 1 -.87.12zm4.43-4.6h1.05v.66a1.19 1.19 0 0 1 1.18-.68 1.71 1.71 0 0 1 .45.05 1.64 1.64 0 0 1 .36.14l-.4 1a1.17 1.17 0 0 0 -.26-.13 1.14 1.14 0 0 0 -.37-.05.9.9 0 0 0 -.7.26 1.26 1.26 0 0 0 -.24.86v2.45h-1.06v-4.6zm5.59 4.6a2.66 2.66 0 0 1 -1-.18 2.3 2.3 0 0 1 -.77-.49 2.21 2.21 0 0 1 -.5-.73 2.3 2.3 0 0 1 -.18-.9 2.25 2.25 0 0 1 .18-.91 2.26 2.26 0 0 1 .51-.74 2.42 2.42 0 0 1 .76-.49 2.42 2.42 0 0 1 .94-.18 2.65 2.65 0 0 1 .95.17 2.22 2.22 0 0 1 .75.46 2.14 2.14 0 0 1 .49.7 2.18 2.18 0 0 1 .18.88v.38h-3.74a1.36 1.36 0 0 0 .48.79 1.44 1.44 0 0 0 .94.3 1.37 1.37 0 0 0 .78-.22 1.36 1.36 0 0 0 .5-.59l.87.5a2.38 2.38 0 0 1 -.84.9 2.39 2.39 0 0 1 -1.3.35zm0-3.68a1.57 1.57 0 0 0 -.83.21 1.16 1.16 0 0 0 -.49.56h2.61a1 1 0 0 0 -.46-.57 1.64 1.64 0 0 0 -.87-.2zm4.6 3.68a2.55 2.55 0 0 1 -1.27-.28 1.92 1.92 0 0 1 -.78-.82l1-.44a1.17 1.17 0 0 0 .45.46 1.31 1.31 0 0 0 .66.16.93.93 0 0 0 .59-.16.47.47 0 0 0 .2-.37.24.24 0 0 0 -.09-.19.86.86 0 0 0 -.24-.13 2.06 2.06 0 0 0 -.34-.09l-.42-.08-.59-.14a1.92 1.92 0 0 1 -.51-.23 1.17 1.17 0 0 1 -.37-.37 1.07 1.07 0 0 1 -.14-.57 1.06 1.06 0 0 1 .13-.51 1.37 1.37 0 0 1 .37-.43 1.8 1.8 0 0 1 .57-.3 2.4 2.4 0 0 1 .74-.11 2.34 2.34 0 0 1 1.15.26 1.94 1.94 0 0 1 .73.7l-.9.43a1 1 0 0 0 -.39-.37 1.21 1.21 0 0 0 -.58-.13.9.9 0 0 0 -.56.14.41.41 0 0 0 -.18.33.33.33 0 0 0 .27.31 6.29 6.29 0 0 0 .79.2 5.43 5.43 0 0 1 .57.14 2.17 2.17 0 0 1 .52.23 1.19 1.19 0 0 1 .38.38 1 1 0 0 1 .15.57 1.21 1.21 0 0 1 -.11.48 1.4 1.4 0 0 1 -.34.46 1.79 1.79 0 0 1 -.59.35 2.39 2.39 0 0 1 -.87.12zm4.71 0a2.66 2.66 0 0 1 -1-.18 2.3 2.3 0 0 1 -.77-.49 2.21 2.21 0 0 1 -.5-.73 2.3 2.3 0 0 1 -.18-.9 2.25 2.25 0 0 1 .18-.91 2.26 2.26 0 0 1 .51-.74 2.42 2.42 0 0 1 .76-.49 2.42 2.42 0 0 1 .94-.18 2.65 2.65 0 0 1 .95.17 2.22 2.22 0 0 1 .75.46 2.14 2.14 0 0 1 .49.7 2.18 2.18 0 0 1 .18.88v.38h-3.77a1.36 1.36 0 0 0 .48.79 1.44 1.44 0 0 0 .94.3 1.37 1.37 0 0 0 .78-.22 1.36 1.36 0 0 0 .5-.59l.87.5a2.38 2.38 0 0 1 -.84.9 2.39 2.39 0 0 1 -1.27.35zm0-3.68a1.57 1.57 0 0 0 -.83.21 1.16 1.16 0 0 0 -.49.56h2.61a1 1 0 0 0 -.46-.57 1.64 1.64 0 0 0 -.87-.2zm2.87-.92h1.05v.66a1.19 1.19 0 0 1 1.18-.68 1.71 1.71 0 0 1 .45.05 1.64 1.64 0 0 1 .36.14l-.4 1a1.17 1.17 0 0 0 -.26-.13 1.14 1.14 0 0 0 -.37-.05.9.9 0 0 0 -.7.26 1.26 1.26 0 0 0 -.24.86v2.45h-1.06v-4.6zm3.27 0h1.11l1.19 3.24 1.16-3.24h1.09l-1.73 4.6h-1.07zm6.95 4.6a2.66 2.66 0 0 1 -1-.18 2.3 2.3 0 0 1 -.77-.49 2.21 2.21 0 0 1 -.5-.73 2.3 2.3 0 0 1 -.18-.9 2.25 2.25 0 0 1 .18-.91 2.26 2.26 0 0 1 .51-.74 2.42 2.42 0 0 1 .76-.49 2.42 2.42 0 0 1 .94-.18 2.65 2.65 0 0 1 .95.17 2.22 2.22 0 0 1 .75.46 2.14 2.14 0 0 1 .49.7 2.18 2.18 0 0 1 .18.88v.38h-3.74a1.36 1.36 0 0 0 .48.79 1.44 1.44 0 0 0 .94.3 1.37 1.37 0 0 0 .78-.22 1.36 1.36 0 0 0 .5-.59l.87.5a2.38 2.38 0 0 1 -.84.9 2.39 2.39 0 0 1 -1.3.35zm0-3.68a1.57 1.57 0 0 0 -.83.21 1.16 1.16 0 0 0 -.49.56h2.61a1 1 0 0 0 -.46-.57 1.64 1.64 0 0 0 -.87-.2zm4.99 3.68a2.28 2.28 0 0 1 -.82-.16 2.27 2.27 0 0 1 -.73-.45 2.24 2.24 0 0 1 -.52-.72 2.31 2.31 0 0 1 -.2-1 2.37 2.37 0 0 1 .19-1 2.2 2.2 0 0 1 .51-.72 2.19 2.19 0 0 1 .73-.45 2.38 2.38 0 0 1 .84-.16 2 2 0 0 1 .83.17 1.73 1.73 0 0 1 .63.55v-1.85h1.07v5.82h-1.07v-.65a1.74 1.74 0 0 1 -.64.48 2 2 0 0 1 -.82.14zm.17-1a1.43 1.43 0 0 0 .55-.1 1.27 1.27 0 0 0 .43-.29 1.42 1.42 0 0 0 .29-.43 1.3 1.3 0 0 0 .11-.52 1.28 1.28 0 0 0 -.11-.52 1.37 1.37 0 0 0 -.29-.42 1.3 1.3 0 0 0 -.43-.28 1.43 1.43 0 0 0 -.55-.1 1.44 1.44 0 0 0 -.55.1 1.42 1.42 0 0 0 -.44.28 1.26 1.26 0 0 0 -.29.42 1.29 1.29 0 0 0 -.11.52 1.32 1.32 0 0 0 .11.53 1.29 1.29 0 0 0 .29.43 1.39 1.39 0 0 0 .44.28 1.43 1.43 0 0 0 .55.16zm2.94.37a.64.64 0 0 1 .17-.47.63.63 0 0 1 .47-.18.62.62 0 0 1 .47.18.65.65 0 0 1 .17.47.63.63 0 0 1 -.17.46.63.63 0 0 1 -.47.18.62.62 0 0 1 -.47-.18.64.64 0 0 1 -.17-.46zm6.65.63a3.12 3.12 0 0 1 -1.21-.23 2.81 2.81 0 0 1 -.93-.61 2.73 2.73 0 0 1 -.6-.91 3 3 0 0 1 -.21-1.12 2.87 2.87 0 0 1 .23-1.15 2.79 2.79 0 0 1 .63-.91 2.85 2.85 0 0 1 .94-.6 3.1 3.1 0 0 1 1.16-.21 2.89 2.89 0 0 1 .77.1 3 3 0 0 1 .7.29 2.74 2.74 0 0 1 .59.45 2.92 2.92 0 0 1 .45.59l-.94.57a2 2 0 0 0 -.64-.7 1.67 1.67 0 0 0 -.94-.26 2 2 0 0 0 -.75.14 1.82 1.82 0 0 0 -.6.39 1.76 1.76 0 0 0 -.39.58 1.82 1.82 0 0 0 -.14.72 1.78 1.78 0 0 0 .14.71 1.81 1.81 0 0 0 .39.57 1.79 1.79 0 0 0 .59.39 1.94 1.94 0 0 0 .74.14 1.72 1.72 0 0 0 1-.29 2 2 0 0 0 .64-.74l1 .49a3.16 3.16 0 0 1 -.46.65 3 3 0 0 1 -.61.51 2.88 2.88 0 0 1 -.72.33 2.84 2.84 0 0 1 -.83.11zm5.22 0a2.28 2.28 0 0 1 -.82-.16 2.27 2.27 0 0 1 -.73-.45 2.24 2.24 0 0 1 -.52-.72 2.31 2.31 0 0 1 -.2-1 2.37 2.37 0 0 1 .19-1 2.2 2.2 0 0 1 .51-.72 2.19 2.19 0 0 1 .73-.45 2.38 2.38 0 0 1 .84-.16 2.12 2.12 0 0 1 .84.17 1.76 1.76 0 0 1 .64.45v-.61h1.06v4.6h-1.06v-.65a1.74 1.74 0 0 1 -.64.48 2 2 0 0 1 -.84.22zm.17-1a1.43 1.43 0 0 0 .55-.1 1.27 1.27 0 0 0 .43-.29 1.42 1.42 0 0 0 .29-.43 1.3 1.3 0 0 0 .11-.52 1.28 1.28 0 0 0 -.11-.52 1.37 1.37 0 0 0 -.29-.42 1.3 1.3 0 0 0 -.43-.28 1.43 1.43 0 0 0 -.55-.1 1.44 1.44 0 0 0 -.55.1 1.42 1.42 0 0 0 -.44.28 1.26 1.26 0 0 0 -.29.42 1.29 1.29 0 0 0 -.11.52 1.32 1.32 0 0 0 .11.53 1.29 1.29 0 0 0 .29.43 1.39 1.39 0 0 0 .44.28 1.43 1.43 0 0 0 .56.16zm3.11-3.6h1.05v.66a1.19 1.19 0 0 1 1.18-.68 1.71 1.71 0 0 1 .45.05 1.64 1.64 0 0 1 .36.14l-.4 1a1.17 1.17 0 0 0 -.26-.13 1.14 1.14 0 0 0 -.37-.05.9.9 0 0 0 -.7.26 1.26 1.26 0 0 0 -.24.86v2.45h-1.07v-4.6zm5.42 4.6a2.28 2.28 0 0 1 -.82-.16 2.27 2.27 0 0 1 -.73-.45 2.24 2.24 0 0 1 -.52-.72 2.31 2.31 0 0 1 -.2-1 2.37 2.37 0 0 1 .19-1 2.2 2.2 0 0 1 .51-.72 2.19 2.19 0 0 1 .73-.45 2.38 2.38 0 0 1 .84-.16 2 2 0 0 1 .83.17 1.73 1.73 0 0 1 .64.47v-1.85h1.07v5.82h-1.06v-.65a1.74 1.74 0 0 1 -.64.48 2 2 0 0 1 -.84.22zm.17-1a1.43 1.43 0 0 0 .55-.1 1.27 1.27 0 0 0 .43-.29 1.42 1.42 0 0 0 .29-.43 1.3 1.3 0 0 0 .11-.52 1.28 1.28 0 0 0 -.11-.52 1.37 1.37 0 0 0 -.29-.42 1.3 1.3 0 0 0 -.43-.28 1.43 1.43 0 0 0 -.55-.1 1.44 1.44 0 0 0 -.55.1 1.42 1.42 0 0 0 -.44.28 1.26 1.26 0 0 0 -.29.42 1.29 1.29 0 0 0 -.11.52 1.32 1.32 0 0 0 .11.53 1.29 1.29 0 0 0 .29.43 1.39 1.39 0 0 0 .44.28 1.43 1.43 0 0 0 .56.16zm6.81 1a2.55 2.55 0 0 1 -1.27-.28 1.92 1.92 0 0 1 -.78-.82l1-.44a1.17 1.17 0 0 0 .45.46 1.31 1.31 0 0 0 .66.16.93.93 0 0 0 .59-.16.47.47 0 0 0 .2-.37.24.24 0 0 0 -.09-.19.86.86 0 0 0 -.24-.13 2.06 2.06 0 0 0 -.34-.09l-.38-.08-.59-.14a1.92 1.92 0 0 1 -.51-.23 1.17 1.17 0 0 1 -.37-.37 1.07 1.07 0 0 1 -.14-.57 1.06 1.06 0 0 1 .13-.51 1.37 1.37 0 0 1 .37-.43 1.8 1.8 0 0 1 .57-.3 2.4 2.4 0 0 1 .74-.11 2.34 2.34 0 0 1 1.15.26 1.94 1.94 0 0 1 .73.7l-.9.43a1 1 0 0 0 -.39-.37 1.21 1.21 0 0 0 -.58-.13.9.9 0 0 0 -.56.14.41.41 0 0 0 -.18.33.33.33 0 0 0 .27.31 6.29 6.29 0 0 0 .79.2 5.43 5.43 0 0 1 .57.14 2.17 2.17 0 0 1 .52.23 1.19 1.19 0 0 1 .38.38 1 1 0 0 1 .15.57 1.21 1.21 0 0 1 -.15.47 1.4 1.4 0 0 1 -.34.46 1.79 1.79 0 0 1 -.59.35 2.39 2.39 0 0 1 -.87.13zm6.52-.01h-1.05v-.58a1.52 1.52 0 0 1 -.55.43 1.79 1.79 0 0 1 -.77.16 1.68 1.68 0 0 1 -1.29-.51 2 2 0 0 1 -.48-1.42v-2.68h1.08v2.56a1.3 1.3 0 0 0 .24.83.89.89 0 0 0 .74.3 1 1 0 0 0 .73-.31 1.29 1.29 0 0 0 .29-.91v-2.47h1.06zm3.28.01a2.13 2.13 0 0 1 -.86-.17 1.66 1.66 0 0 1 -.64-.49v.65h-1.05v-5.82h1.06v1.89a1.75 1.75 0 0 1 .63-.49 2 2 0 0 1 .85-.19 2.35 2.35 0 0 1 .84.16 2.17 2.17 0 0 1 .72.45 2.24 2.24 0 0 1 .51.72 2.37 2.37 0 0 1 .19 1 2.3 2.3 0 0 1 -.2 1 2.25 2.25 0 0 1 -.51.72 2.24 2.24 0 0 1 -.72.45 2.24 2.24 0 0 1 -.82.12zm-.18-1a1.4 1.4 0 0 0 .54-.1 1.39 1.39 0 0 0 .44-.28 1.3 1.3 0 0 0 .29-.43 1.33 1.33 0 0 0 .11-.53 1.3 1.3 0 0 0 -.11-.52 1.27 1.27 0 0 0 -.29-.42 1.43 1.43 0 0 0 -.44-.28 1.41 1.41 0 0 0 -.54-.1 1.41 1.41 0 0 0 -.54.1 1.34 1.34 0 0 0 -.44.28 1.28 1.28 0 0 0 -.29.42 1.32 1.32 0 0 0 -.1.52 1.34 1.34 0 0 0 .1.52 1.32 1.32 0 0 0 .29.43 1.31 1.31 0 0 0 .44.29 1.4 1.4 0 0 0 .51.16zm1.97 2.11a3.18 3.18 0 0 0 .5 0 .54.54 0 0 0 .29-.13.49.49 0 0 0 .13-.28 3 3 0 0 0 0-.49v-4.79h1.07v4.79a3.75 3.75 0 0 1 -.09.91 1.28 1.28 0 0 1 -.31.59 1.23 1.23 0 0 1 -.58.32 3.52 3.52 0 0 1 -.88.09h-.15v-1zm.82-6.84a.66.66 0 0 1 .18-.48.65.65 0 0 1 .49-.19.65.65 0 0 1 .49.19.67.67 0 0 1 .18.48.66.66 0 0 1 -.18.48.66.66 0 0 1 -.49.18.65.65 0 0 1 -.5-.18.66.66 0 0 1 -.17-.48zm4.16 5.73a2.66 2.66 0 0 1 -1-.18 2.3 2.3 0 0 1 -.77-.49 2.21 2.21 0 0 1 -.5-.73 2.3 2.3 0 0 1 -.18-.9 2.25 2.25 0 0 1 .18-.91 2.26 2.26 0 0 1 .5-.73 2.42 2.42 0 0 1 .76-.49 2.42 2.42 0 0 1 .94-.18 2.65 2.65 0 0 1 .95.17 2.22 2.22 0 0 1 .75.46 2.14 2.14 0 0 1 .49.7 2.18 2.18 0 0 1 .18.88v.38h-3.74a1.36 1.36 0 0 0 .48.79 1.44 1.44 0 0 0 .94.3 1.37 1.37 0 0 0 .78-.22 1.36 1.36 0 0 0 .5-.59l.87.5a2.38 2.38 0 0 1 -.84.9 2.39 2.39 0 0 1 -1.29.34zm0-3.68a1.57 1.57 0 0 0 -.83.21 1.16 1.16 0 0 0 -.49.56h2.55a1 1 0 0 0 -.46-.57 1.64 1.64 0 0 0 -.81-.2zm5.12 3.68a2.42 2.42 0 0 1 -.94-.18 2.42 2.42 0 0 1 -.76-.49 2.27 2.27 0 0 1 -.51-.73 2.21 2.21 0 0 1 -.18-.9 2.23 2.23 0 0 1 .18-.91 2.31 2.31 0 0 1 .51-.73 2.34 2.34 0 0 1 .76-.49 2.46 2.46 0 0 1 .94-.18 2.49 2.49 0 0 1 .73.1 2.42 2.42 0 0 1 .63.29 2.25 2.25 0 0 1 .5.44 2.31 2.31 0 0 1 .35.56l-1 .38a1.27 1.27 0 0 0 -.48-.56 1.35 1.35 0 0 0 -.75-.21 1.39 1.39 0 0 0 -.54.1 1.39 1.39 0 0 0 -.43.28 1.25 1.25 0 0 0 -.29.42 1.3 1.3 0 0 0 -.1.51 1.28 1.28 0 0 0 .1.5 1.24 1.24 0 0 0 .29.42 1.38 1.38 0 0 0 .44.28 1.42 1.42 0 0 0 .54.1 1.29 1.29 0 0 0 .77-.23 1.38 1.38 0 0 0 .48-.58l1 .38a2.44 2.44 0 0 1 -.35.57 2.27 2.27 0 0 1 -.49.45 2.28 2.28 0 0 1 -.62.29 2.58 2.58 0 0 1 -.78.12zm2.45-4.6h.79v-.7l1.07-.73v1.43h.94v1h-.94v1.66a3 3 0 0 0 0 .48.51.51 0 0 0 .13.28.51.51 0 0 0 .28.13 3.05 3.05 0 0 0 .49 0v1h-.1a3.56 3.56 0 0 1 -.89-.09 1.18 1.18 0 0 1 -.57-.32 1.29 1.29 0 0 1 -.3-.59 3.88 3.88 0 0 1 -.09-.92v-1.73h-.79v-1zm5.22 0h.79v-.7l1.07-.73v1.43h.94v1h-.94v1.66a3 3 0 0 0 0 .48.51.51 0 0 0 .13.28.51.51 0 0 0 .28.13 3.05 3.05 0 0 0 .49 0v1h-.12a3.56 3.56 0 0 1 -.89-.09 1.18 1.18 0 0 1 -.57-.32 1.29 1.29 0 0 1 -.3-.59 3.88 3.88 0 0 1 -.09-.92v-1.73h-.79v-1zm5.44 4.6a2.44 2.44 0 0 1 -.93-.18 2.34 2.34 0 0 1 -.76-.49 2.31 2.31 0 0 1 -.51-.73 2.21 2.21 0 0 1 -.18-.9 2.23 2.23 0 0 1 .18-.91 2.31 2.31 0 0 1 .51-.73 2.34 2.34 0 0 1 .76-.49 2.44 2.44 0 0 1 .93-.18 2.41 2.41 0 0 1 .93.18 2.4 2.4 0 0 1 .76.49 2.29 2.29 0 0 1 .51.73 2.23 2.23 0 0 1 .18.91 2.21 2.21 0 0 1 -.18.9 2.29 2.29 0 0 1 -.51.73 2.4 2.4 0 0 1 -.76.49 2.41 2.41 0 0 1 -.93.18zm0-1a1.34 1.34 0 0 0 .53-.1 1.35 1.35 0 0 0 .42-.28 1.28 1.28 0 0 0 .28-.42 1.28 1.28 0 0 0 .1-.5 1.3 1.3 0 0 0 -.1-.51 1.29 1.29 0 0 0 -.28-.42 1.35 1.35 0 0 0 -.42-.28 1.34 1.34 0 0 0 -.53-.1 1.36 1.36 0 0 0 -.53.1 1.29 1.29 0 0 0 -.42.28 1.31 1.31 0 0 0 -.28.42 1.3 1.3 0 0 0 -.1.51 1.28 1.28 0 0 0 .1.5 1.31 1.31 0 0 0 .28.42 1.29 1.29 0 0 0 .42.28 1.36 1.36 0 0 0 .53.1zm7.18 1a2.42 2.42 0 0 1 -.94-.18 2.42 2.42 0 0 1 -.76-.49 2.27 2.27 0 0 1 -.51-.73 2.21 2.21 0 0 1 -.18-.9 2.23 2.23 0 0 1 .18-.91 2.31 2.31 0 0 1 .51-.73 2.34 2.34 0 0 1 .76-.49 2.46 2.46 0 0 1 .94-.18 2.49 2.49 0 0 1 .73.1 2.42 2.42 0 0 1 .63.29 2.25 2.25 0 0 1 .5.44 2.31 2.31 0 0 1 .35.56l-1 .38a1.27 1.27 0 0 0 -.48-.56 1.35 1.35 0 0 0 -.75-.21 1.39 1.39 0 0 0 -.54.1 1.39 1.39 0 0 0 -.43.28 1.25 1.25 0 0 0 -.29.42 1.3 1.3 0 0 0 -.1.51 1.28 1.28 0 0 0 .1.5 1.24 1.24 0 0 0 .29.42 1.38 1.38 0 0 0 .44.28 1.42 1.42 0 0 0 .54.1 1.29 1.29 0 0 0 .77-.23 1.38 1.38 0 0 0 .48-.58l1 .38a2.44 2.44 0 0 1 -.35.57 2.27 2.27 0 0 1 -.49.45 2.28 2.28 0 0 1 -.62.29 2.58 2.58 0 0 1 -.78.12zm2.69-5.82h1.06v1.88a1.69 1.69 0 0 1 .59-.47 1.76 1.76 0 0 1 .79-.17 1.76 1.76 0 0 1 1.34.51 2 2 0 0 1 .48 1.42v2.68h-1.13v-2.55a1.24 1.24 0 0 0 -.26-.83 1 1 0 0 0 -.78-.3 1.09 1.09 0 0 0 -.42.08 1 1 0 0 0 -.34.23 1.08 1.08 0 0 0 -.23.38 1.55 1.55 0 0 0 -.08.52v2.47h-1.07v-5.82zm7.06 5.82a2.28 2.28 0 0 1 -.82-.16 2.27 2.27 0 0 1 -.73-.45 2.24 2.24 0 0 1 -.52-.72 2.31 2.31 0 0 1 -.2-1 2.37 2.37 0 0 1 .19-1 2.2 2.2 0 0 1 .51-.72 2.19 2.19 0 0 1 .73-.45 2.38 2.38 0 0 1 .84-.16 2.12 2.12 0 0 1 .84.17 1.76 1.76 0 0 1 .64.45v-.61h1.06v4.6h-1.06v-.65a1.74 1.74 0 0 1 -.64.48 2 2 0 0 1 -.84.22zm.17-1a1.43 1.43 0 0 0 .55-.1 1.27 1.27 0 0 0 .43-.29 1.42 1.42 0 0 0 .29-.43 1.3 1.3 0 0 0 .11-.52 1.28 1.28 0 0 0 -.11-.52 1.37 1.37 0 0 0 -.29-.42 1.3 1.3 0 0 0 -.43-.28 1.43 1.43 0 0 0 -.55-.1 1.44 1.44 0 0 0 -.55.1 1.42 1.42 0 0 0 -.44.28 1.26 1.26 0 0 0 -.29.42 1.29 1.29 0 0 0 -.11.52 1.32 1.32 0 0 0 .11.53 1.29 1.29 0 0 0 .29.43 1.39 1.39 0 0 0 .44.28 1.43 1.43 0 0 0 .55.16zm3.1-3.6h1.05v.66a1.68 1.68 0 0 1 .58-.46 1.77 1.77 0 0 1 .8-.17 1.76 1.76 0 0 1 1.34.51 2 2 0 0 1 .48 1.42v2.68h-1.08v-2.56a1.23 1.23 0 0 0 -.26-.83 1 1 0 0 0 -.78-.3 1 1 0 0 0 -.77.31 1.24 1.24 0 0 0 -.31.91v2.47h-1.05v-4.6zm8.56 3.9a1.75 1.75 0 0 1 -.64.52 2 2 0 0 1 -.86.19 2.28 2.28 0 0 1 -.82-.16 2.27 2.27 0 0 1 -.73-.45 2.24 2.24 0 0 1 -.52-.72 2.31 2.31 0 0 1 -.2-1 2.37 2.37 0 0 1 .19-1 2.2 2.2 0 0 1 .51-.72 2.19 2.19 0 0 1 .73-.45 2.38 2.38 0 0 1 .84-.16 2 2 0 0 1 .84.18 1.79 1.79 0 0 1 .64.48v-.65h1.06v4.42a2.6 2.6 0 0 1 -.15.9 2.1 2.1 0 0 1 -.45.73 2.12 2.12 0 0 1 -.74.5 2.68 2.68 0 0 1 -1 .18 3.12 3.12 0 0 1 -.81-.1 2.5 2.5 0 0 1 -.65-.23 2.33 2.33 0 0 1 -.51-.42 2.63 2.63 0 0 1 -.38-.53l.94-.57a2 2 0 0 0 .57.69 1.45 1.45 0 0 0 .86.23 1.3 1.3 0 0 0 .52-.1 1.28 1.28 0 0 0 .41-.29 1.26 1.26 0 0 0 .26-.42 1.44 1.44 0 0 0 .09-.5v-.53zm-1.33-.24a1.43 1.43 0 0 0 .55-.1 1.27 1.27 0 0 0 .43-.29 1.42 1.42 0 0 0 .29-.43 1.3 1.3 0 0 0 .11-.52 1.28 1.28 0 0 0 -.11-.52 1.37 1.37 0 0 0 -.29-.42 1.3 1.3 0 0 0 -.41-.32 1.43 1.43 0 0 0 -.55-.1 1.44 1.44 0 0 0 -.55.1 1.42 1.42 0 0 0 -.44.28 1.26 1.26 0 0 0 -.29.42 1.29 1.29 0 0 0 -.11.52 1.32 1.32 0 0 0 .11.53 1.29 1.29 0 0 0 .29.43 1.39 1.39 0 0 0 .44.28 1.43 1.43 0 0 0 .53.14zm5.36.94a2.66 2.66 0 0 1 -1-.18 2.3 2.3 0 0 1 -.77-.49 2.21 2.21 0 0 1 -.5-.73 2.3 2.3 0 0 1 -.18-.9 2.25 2.25 0 0 1 .18-.91 2.26 2.26 0 0 1 .51-.74 2.42 2.42 0 0 1 .76-.49 2.42 2.42 0 0 1 .94-.18 2.65 2.65 0 0 1 .95.17 2.22 2.22 0 0 1 .75.46 2.14 2.14 0 0 1 .49.7 2.18 2.18 0 0 1 .18.88v.38h-3.74a1.36 1.36 0 0 0 .48.79 1.44 1.44 0 0 0 .94.3 1.37 1.37 0 0 0 .78-.22 1.36 1.36 0 0 0 .5-.59l.87.5a2.38 2.38 0 0 1 -.84.9 2.39 2.39 0 0 1 -1.3.35zm0-3.68a1.57 1.57 0 0 0 -.83.21 1.16 1.16 0 0 0 -.49.56h2.53a1 1 0 0 0 -.46-.57 1.64 1.64 0 0 0 -.78-.2zm2.75 3.05a.64.64 0 0 1 .17-.47.63.63 0 0 1 .47-.18.62.62 0 0 1 .47.18.65.65 0 0 1 .17.47.63.63 0 0 1 -.17.46.63.63 0 0 1 -.47.18.62.62 0 0 1 -.47-.18.64.64 0 0 1 -.17-.46z" fill="#fff"/></svg><svg height="11.12" viewBox="-1 -1 20.53 11.12" width="20.53" x="140.72" y="33.74"><path d="m415.888 293.47a4.606 4.606 0 0 0 1.47-.974 4.514 4.514 0 0 0 .991-1.453 4.619 4.619 0 0 0 0-3.566 4.525 4.525 0 0 0 -.991-1.453 4.729 4.729 0 0 0 -5.074-.974 4.546 4.546 0 0 0 -1.471.974 4.6 4.6 0 0 0 -.983 1.453 4.619 4.619 0 0 0 0 3.566 4.589 4.589 0 0 0 .983 1.453 4.514 4.514 0 0 0 1.471.974 4.648 4.648 0 0 0 1.806.352 4.59 4.59 0 0 0 1.798-.352zm-2.827-1.826a2.523 2.523 0 0 1 -.823-.554 2.6 2.6 0 0 1 -.541-.824 2.566 2.566 0 0 1 -.2-1 2.617 2.617 0 0 1 .739-1.837 2.523 2.523 0 0 1 .823-.554 2.6 2.6 0 0 1 1.029-.2 2.55 2.55 0 0 1 1.021.2 2.633 2.633 0 0 1 .823.554 2.545 2.545 0 0 1 .548.824 2.6 2.6 0 0 1 .2 1.013 2.566 2.566 0 0 1 -.2 1 2.534 2.534 0 0 1 -.548.824 2.633 2.633 0 0 1 -.823.554 2.55 2.55 0 0 1 -1.021.2 2.6 2.6 0 0 1 -1.027-.2zm6.7 2.163h2.057v-4.875a2.476 2.476 0 0 1 .6-1.793 1.983 1.983 0 0 1 1.486-.622 1.856 1.856 0 0 1 1.508.6 2.463 2.463 0 0 1 .5 1.632v5.058h2.088v-5.3a3.965 3.965 0 0 0 -.937-2.807 3.78 3.78 0 0 0 -4.145-.663 3.254 3.254 0 0 0 -1.12.914v-1.242h-2.042v9.093z" fill="#fff" fill-rule="evenodd" transform="translate(-409.469 -284.688)"/></svg><svg height="23.16" viewBox="-1 -1 291.03 23.16" width="291.03"><path d="m278.7 283.61a4.681 4.681 0 0 0 1.511-.966 4.131 4.131 0 0 0 .938-1.373 4.08 4.08 0 0 0 .325-1.591 3.5 3.5 0 0 0 -.363-1.677 3.677 3.677 0 0 0 -.948-1.136 5.313 5.313 0 0 0 -1.3-.758q-.717-.292-1.425-.521l-1.091-.359a5.316 5.316 0 0 1 -.908-.388 2.087 2.087 0 0 1 -.622-.5 1.081 1.081 0 0 1 -.23-.7 1.455 1.455 0 0 1 .5-1.118 2.084 2.084 0 0 1 1.454-.454 2.838 2.838 0 0 1 2.525 1.406l2.143-1.7a8.879 8.879 0 0 0 -.889-.828 5.343 5.343 0 0 0 -1.034-.654 5.978 5.978 0 0 0 -1.243-.429 6.873 6.873 0 0 0 -1.521-.156 5.472 5.472 0 0 0 -1.847.3 4.54 4.54 0 0 0 -1.473.842 3.846 3.846 0 0 0 -.966 1.259 3.541 3.541 0 0 0 -.345 1.552 3.406 3.406 0 0 0 .354 1.638 3.5 3.5 0 0 0 .919 1.1 4.694 4.694 0 0 0 1.272.71q.708.266 1.416.492.555.171 1.081.341a5.562 5.562 0 0 1 .928.388 2.141 2.141 0 0 1 .65.521 1.124 1.124 0 0 1 .249.738 1.812 1.812 0 0 1 -.545 1.287 2.087 2.087 0 0 1 -1.579.568 3.309 3.309 0 0 1 -1.741-.473 3.9 3.9 0 0 1 -1.32-1.367l-2.372 1.822a8.529 8.529 0 0 0 2.257 1.822 6.436 6.436 0 0 0 3.2.731 5.356 5.356 0 0 0 2.04-.369zm2.984-8.7h1.916v4.29a9.813 9.813 0 0 0 .22 2.271 3.213 3.213 0 0 0 .736 1.463 2.859 2.859 0 0 0 1.388.79 8.564 8.564 0 0 0 2.171.233h.364v-2.476a7.287 7.287 0 0 1 -1.2-.078 1.232 1.232 0 0 1 -.689-.321 1.274 1.274 0 0 1 -.316-.7 7.578 7.578 0 0 1 -.076-1.2v-4.27h2.277v-2.359h-2.275v-3.548l-2.6 1.813v1.735h-1.914v2.359zm8.227 9.047h2.589v-6.083a3.171 3.171 0 0 1 .584-2.135 2.178 2.178 0 0 1 1.712-.653 2.727 2.727 0 0 1 .909.127 2.847 2.847 0 0 1 .641.321l.976-2.5a3.951 3.951 0 0 0 -.87-.351 4.1 4.1 0 0 0 -1.1-.137 2.882 2.882 0 0 0 -2.87 1.7v-1.7h-2.564v11.406zm16.79-.828a5.869 5.869 0 0 0 2.038-2.233l-2.124-1.248a3.36 3.36 0 0 1 -1.2 1.463 3.29 3.29 0 0 1 -1.895.546 3.459 3.459 0 0 1 -2.276-.741 3.4 3.4 0 0 1 -1.168-1.95h9.108v-.932a5.516 5.516 0 0 0 -.431-2.194 5.3 5.3 0 0 0 -1.2-1.745 5.4 5.4 0 0 0 -1.828-1.152 6.331 6.331 0 0 0 -2.305-.411 5.783 5.783 0 0 0 -2.287.451 5.906 5.906 0 0 0 -1.846 1.221 5.618 5.618 0 0 0 -1.234 1.823 5.68 5.68 0 0 0 -.45 2.256 5.783 5.783 0 0 0 .431 2.227 5.474 5.474 0 0 0 1.2 1.813 5.593 5.593 0 0 0 1.866 1.213 6.371 6.371 0 0 0 2.41.441 5.745 5.745 0 0 0 3.19-.846zm-1.253-7.791a2.413 2.413 0 0 1 1.11 1.425h-6.353a2.86 2.86 0 0 1 1.2-1.386 3.772 3.772 0 0 1 2.019-.525 3.929 3.929 0 0 1 2.025.488zm12.283 8.2a4.229 4.229 0 0 0 1.569-1.2v1.62h2.583v-11.405h-2.583v1.5a4.272 4.272 0 0 0 -1.549-1.115 5.065 5.065 0 0 0 -2.048-.409 5.7 5.7 0 0 0 -2.057.385 5.359 5.359 0 0 0 -1.779 1.118 5.489 5.489 0 0 0 -1.244 1.8 5.981 5.981 0 0 0 -.468 2.434 5.819 5.819 0 0 0 .478 2.415 5.482 5.482 0 0 0 3.033 2.913 5.441 5.441 0 0 0 2 .385 4.9 4.9 0 0 0 2.066-.438zm-2.975-2.236a3.36 3.36 0 0 1 -1.081-.7 3.2 3.2 0 0 1 -.717-1.062 3.329 3.329 0 0 1 -.259-1.31 3.262 3.262 0 0 1 .259-1.3 3.128 3.128 0 0 1 .717-1.044 3.562 3.562 0 0 1 3.75-.7 3.184 3.184 0 0 1 1.053.7 3.406 3.406 0 0 1 .7 1.054 3.226 3.226 0 0 1 .258 1.281 3.28 3.28 0 0 1 -.258 1.3 3.528 3.528 0 0 1 -.7 1.062 3.117 3.117 0 0 1 -1.053.714 3.606 3.606 0 0 1 -2.668.008zm8.887 2.654h2.583v-6.172a3.09 3.09 0 0 1 .718-2.229 2.408 2.408 0 0 1 1.808-.743 2.2 2.2 0 0 1 1.76.686 2.79 2.79 0 0 1 .593 1.886v6.572h2.621v-6.226a3.021 3.021 0 0 1 .708-2.191 2.366 2.366 0 0 1 1.761-.724 2.262 2.262 0 0 1 1.817.714 2.875 2.875 0 0 1 .612 1.934v6.5h2.641v-6.736a4.9 4.9 0 0 0 -1.148-3.436 4.393 4.393 0 0 0 -3.406-1.253 4.343 4.343 0 0 0 -2.152.528 4.24 4.24 0 0 0 -1.521 1.412 3.525 3.525 0 0 0 -1.407-1.431 4.5 4.5 0 0 0 -2.229-.509 4.109 4.109 0 0 0 -1.846.4 3.816 3.816 0 0 0 -1.349 1.091v-1.473h-2.564v11.406zm19.286 0h2.6v-11.403h-2.6v11.406zm.1-13a1.829 1.829 0 0 0 2.4 0 1.645 1.645 0 0 0 .431-1.189 1.679 1.679 0 0 0 -.431-1.2 1.778 1.778 0 0 0 -2.382 0 1.871 1.871 0 0 0 -.021 2.387zm4.19 13h2.581v-6.115a3.1 3.1 0 0 1 .756-2.248 2.489 2.489 0 0 1 1.865-.781 2.334 2.334 0 0 1 1.894.752 3.088 3.088 0 0 1 .632 2.048v6.344h2.621v-6.641a4.965 4.965 0 0 0 -1.177-3.521 4.748 4.748 0 0 0 -5.2-.831 4.1 4.1 0 0 0 -1.406 1.145v-1.558h-2.564v11.406zm20.836-.409a3.637 3.637 0 0 1 -.22 1.248 3.086 3.086 0 0 1 -2.956 2.047 3.475 3.475 0 0 1 -2.1-.565 5.015 5.015 0 0 1 -1.378-1.716l-2.3 1.424a6.532 6.532 0 0 0 .919 1.316 5.729 5.729 0 0 0 1.243 1.033 6.05 6.05 0 0 0 1.6.682 7.466 7.466 0 0 0 1.98.244 6.438 6.438 0 0 0 2.5-.452 5.074 5.074 0 0 0 2.908-3.052 6.554 6.554 0 0 0 .374-2.233v-10.97h-2.583v1.611a4.381 4.381 0 0 0 -1.55-1.19 4.765 4.765 0 0 0 -2.048-.44 5.69 5.69 0 0 0 -2.056.385 5.353 5.353 0 0 0 -1.78 1.118 5.487 5.487 0 0 0 -1.243 1.8 5.965 5.965 0 0 0 -.469 2.434 5.819 5.819 0 0 0 .478 2.415 5.482 5.482 0 0 0 3.033 2.913 5.444 5.444 0 0 0 2 .385 4.683 4.683 0 0 0 2.086-.468 4.278 4.278 0 0 0 1.569-1.287v1.326zm-4.564-2.245a3.382 3.382 0 0 1 -1.081-.7 3.2 3.2 0 0 1 -.717-1.062 3.346 3.346 0 0 1 -.258-1.31 3.279 3.279 0 0 1 .258-1.3 3.128 3.128 0 0 1 .717-1.044 3.562 3.562 0 0 1 3.75-.7 3.174 3.174 0 0 1 1.053.7 3.406 3.406 0 0 1 .7 1.054 3.226 3.226 0 0 1 .258 1.281 3.28 3.28 0 0 1 -.258 1.3 3.528 3.528 0 0 1 -.7 1.062 3.108 3.108 0 0 1 -1.053.714 3.606 3.606 0 0 1 -2.672.008zm13.766 2.654h7.711v-2.534h-5.108v-11.7h-2.6v14.233zm9.337 0h2.6v-11.403h-2.6v11.406zm.1-13a1.829 1.829 0 0 0 2.4 0 1.645 1.645 0 0 0 .431-1.189 1.679 1.679 0 0 0 -.431-1.2 1.778 1.778 0 0 0 -2.382 0 1.871 1.871 0 0 0 -.025 2.387zm7.883 13h2.6l4.209-11.406h-2.66l-2.831 8.033-2.895-8.03h-2.7zm15.832-.828a5.869 5.869 0 0 0 2.038-2.233l-2.124-1.248a3.353 3.353 0 0 1 -1.2 1.463 3.289 3.289 0 0 1 -1.894.546 3.46 3.46 0 0 1 -2.277-.741 3.393 3.393 0 0 1 -1.167-1.95h9.107v-.932a5.516 5.516 0 0 0 -.43-2.194 5.306 5.306 0 0 0 -1.2-1.745 5.4 5.4 0 0 0 -1.827-1.152 6.337 6.337 0 0 0 -2.306-.411 5.781 5.781 0 0 0 -2.286.451 5.911 5.911 0 0 0 -1.847 1.221 5.691 5.691 0 0 0 -1.684 4.079 5.783 5.783 0 0 0 .431 2.227 5.474 5.474 0 0 0 1.2 1.813 5.593 5.593 0 0 0 1.866 1.213 6.376 6.376 0 0 0 2.411.441 5.741 5.741 0 0 0 3.18-.845zm-1.253-7.791a2.409 2.409 0 0 1 1.11 1.425h-6.352a2.858 2.858 0 0 1 1.195-1.386 3.772 3.772 0 0 1 2.019-.525 3.924 3.924 0 0 1 2.021.489zm13.431 8.619h2.6v-11.7h3.75v-2.535h-10.088v2.535h3.731v11.7zm16.245-.541a7.361 7.361 0 0 0 2.268-1.515 6.963 6.963 0 0 0 1.531-2.264 7.044 7.044 0 0 0 .555-2.788 6.968 6.968 0 0 0 -.555-2.778 7.109 7.109 0 0 0 -1.531-2.27 7.282 7.282 0 0 0 -2.276-1.532 7.224 7.224 0 0 0 -5.587 0 7.135 7.135 0 0 0 -3.789 3.8 6.968 6.968 0 0 0 -.555 2.778 7.1 7.1 0 0 0 2.076 5.052 7.243 7.243 0 0 0 2.268 1.523 7.236 7.236 0 0 0 5.588-.003zm-4.583-2.408a4.571 4.571 0 0 1 -1.444-.967 4.5 4.5 0 0 1 -.967-1.436 4.575 4.575 0 0 1 0-3.529 4.5 4.5 0 0 1 .967-1.435 4.571 4.571 0 0 1 1.444-.967 4.661 4.661 0 0 1 3.578 0 4.686 4.686 0 0 1 1.454.967 4.5 4.5 0 0 1 0 6.4 4.686 4.686 0 0 1 -1.454.967 4.673 4.673 0 0 1 -3.585.003zm10.342 2.949h2.6v-9.885l4.19 5.791 4.286-5.888v9.982h2.6v-14.23h-2.467l-4.4 5.986-4.228-5.986h-2.583v14.233zm25.006-.541a7.354 7.354 0 0 0 2.277-1.523 6.963 6.963 0 0 0 1.531-2.264 7.044 7.044 0 0 0 .555-2.788 6.968 6.968 0 0 0 -.555-2.778 7.109 7.109 0 0 0 -1.531-2.265 7.275 7.275 0 0 0 -2.277-1.532 7.221 7.221 0 0 0 -5.586 0 7.135 7.135 0 0 0 -3.789 3.8 6.968 6.968 0 0 0 -.555 2.778 7.1 7.1 0 0 0 2.076 5.052 7.243 7.243 0 0 0 2.257 1.523 7.233 7.233 0 0 0 5.59 0zm-4.582-2.408a4.587 4.587 0 0 1 -1.445-.967 4.517 4.517 0 0 1 -.966-1.436 4.575 4.575 0 0 1 0-3.529 4.512 4.512 0 0 1 .966-1.435 4.587 4.587 0 0 1 1.445-.967 4.661 4.661 0 0 1 3.578 0 4.7 4.7 0 0 1 1.454.967 4.5 4.5 0 0 1 0 6.4 4.7 4.7 0 0 1 -1.454.967 4.673 4.673 0 0 1 -3.585.003zm12.944 2.949v-4.348h2.334l2.238 4.348h2.966l-2.793-5.127a4.237 4.237 0 0 0 1.75-1.746 5 5 0 0 0 .6-2.408 5.512 5.512 0 0 0 -.354-2.018 4.359 4.359 0 0 0 -1.024-1.559 4.611 4.611 0 0 0 -1.635-1.014 6.284 6.284 0 0 0 -2.21-.361h-4.478v14.233h2.6zm0-6.785v-4.971h1.641a3.083 3.083 0 0 1 2.172.644 2.279 2.279 0 0 1 .679 1.735 3.36 3.36 0 0 1 -.144.994 2.106 2.106 0 0 1 -.478.829 2.249 2.249 0 0 1 -.88.565 3.853 3.853 0 0 1 -1.349.2h-1.645zm11.365 6.785v-4.348h2.334l2.239 4.348h2.965l-2.793-5.127a4.231 4.231 0 0 0 1.75-1.746 5 5 0 0 0 .6-2.408 5.512 5.512 0 0 0 -.354-2.018 4.37 4.37 0 0 0 -1.023-1.559 4.615 4.615 0 0 0 -1.636-1.014 6.284 6.284 0 0 0 -2.21-.361h-4.477v14.233h2.6zm0-6.785v-4.971h1.645a3.083 3.083 0 0 1 2.172.644 2.279 2.279 0 0 1 .679 1.735 3.393 3.393 0 0 1 -.143.994 2.12 2.12 0 0 1 -.479.829 2.242 2.242 0 0 1 -.88.565 3.849 3.849 0 0 1 -1.349.2h-1.645zm18.406 6.244a7.377 7.377 0 0 0 2.27-1.515 7.185 7.185 0 0 0 1.53-7.83 7.122 7.122 0 0 0 -1.53-2.27 7.3 7.3 0 0 0 -2.277-1.532 7.224 7.224 0 0 0 -5.587 0 7.135 7.135 0 0 0 -3.789 3.8 6.968 6.968 0 0 0 -.555 2.778 7.1 7.1 0 0 0 2.076 5.052 7.243 7.243 0 0 0 2.268 1.523 7.236 7.236 0 0 0 5.587-.003zm-4.583-2.408a4.571 4.571 0 0 1 -1.444-.967 4.5 4.5 0 0 1 -.967-1.436 4.575 4.575 0 0 1 0-3.529 4.5 4.5 0 0 1 .967-1.435 4.571 4.571 0 0 1 1.444-.967 4.661 4.661 0 0 1 3.578 0 4.686 4.686 0 0 1 1.454.967 4.5 4.5 0 0 1 0 6.4 4.686 4.686 0 0 1 -1.454.967 4.673 4.673 0 0 1 -3.585.003zm13.02 2.949h2.633l2.927-10.041 2.928 10.041h2.583l3.941-14.233h-2.621l-2.621 9.924-2.909-9.924h-2.564l-2.927 9.963-2.64-9.963h-2.717zm28.834-.421a5.834 5.834 0 0 0 1.846-1.222 5.679 5.679 0 0 0 1.244-1.823 5.783 5.783 0 0 0 0-4.473 5.679 5.679 0 0 0 -1.244-1.823 5.945 5.945 0 0 0 -6.371-1.222 5.682 5.682 0 0 0 -3.08 3.045 5.783 5.783 0 0 0 0 4.473 5.682 5.682 0 0 0 3.08 3.045 5.853 5.853 0 0 0 2.267.441 5.783 5.783 0 0 0 2.251-.438zm-3.549-2.291a3.169 3.169 0 0 1 -1.033-.695 3.255 3.255 0 0 1 -.68-1.034 3.209 3.209 0 0 1 -.248-1.253 3.271 3.271 0 0 1 .928-2.3 3.169 3.169 0 0 1 1.033-.695 3.28 3.28 0 0 1 1.291-.256 3.211 3.211 0 0 1 1.282.256 3.313 3.313 0 0 1 1.033.695 3.171 3.171 0 0 1 .689 1.033 3.262 3.262 0 0 1 .249 1.271 3.21 3.21 0 0 1 -.249 1.253 3.165 3.165 0 0 1 -.689 1.034 3.313 3.313 0 0 1 -1.033.695 3.211 3.211 0 0 1 -1.282.256 3.28 3.28 0 0 1 -1.298-.257zm8.409 2.712h2.583v-6.115a3.1 3.1 0 0 1 .756-2.248 2.489 2.489 0 0 1 1.865-.781 2.334 2.334 0 0 1 1.894.752 3.088 3.088 0 0 1 .632 2.048v6.344h2.621v-6.641a4.965 4.965 0 0 0 -1.177-3.521 4.748 4.748 0 0 0 -5.2-.831 4.1 4.1 0 0 0 -1.406 1.145v-1.558h-2.564v11.406z" fill="#fff" fill-rule="evenodd" transform="translate(-271.188 -268.094)"/></svg><svg height="22.69" viewBox="-1 -1 31 22.69" width="31" y="52.2"><path d="m0 0h29v20.69h-29z" fill="#ccb44d"/><g clip-path="url(#a)"><path d="m17.92 15.24v-.15a1.28 1.28 0 0 0 0-.23c.06-.57-.36-.9-1.22-.9a5.56 5.56 0 0 0 -1.44.2v.79a6.26 6.26 0 0 1 1.24-.12c.41 0 .54.09.47.34v.12a1.14 1.14 0 0 1 -.27.54c-.28.27-.49.46-.85.77-.57.47-.66.56-1.31 1.07l-.23.84h2.77l.23-.86h-1.43c.32-.26.57-.48 1-.89a2.4 2.4 0 0 0 1-1.54m1.2-1.21-1.25 4.49h1l1.25-4.49zm3-.07a5.56 5.56 0 0 0 -1.44.2v.79a6.26 6.26 0 0 1 1.14-.12c.41 0 .54.09.47.34v.12a1.15 1.15 0 0 1 -.27.54c-.28.27-.49.46-.85.77-.57.47-.66.56-1.31 1.07l-.23.84h2.77l.23-.86h-1.39c.32-.26.57-.48 1-.89a2.4 2.4 0 0 0 1-1.54v-.15a1.28 1.28 0 0 0 0-.23c.06-.57-.36-.9-1.22-.9m-3-9h-5.39l-.46 1.67h5.56zm-1.07 4.47.46-1.67h-5.56l-1.31 4.8h2.57l.85-3.13h3zm4.21-2.53a.34.34 0 0 1 .15-.22.84.84 0 0 1 .38-.06h2.78l.46-1.67h-3.89a3.29 3.29 0 0 0 -1.5.28 1.32 1.32 0 0 0 -.6.86l-1.4 5.19a1 1 0 0 0 0 .23.81.81 0 0 0 0 .23 1 1 0 0 0 .5.6 2 2 0 0 0 1 .22h4l.5-1.66h-3a.51.51 0 0 1 -.25-.06.25.25 0 0 1 -.13-.15.22.22 0 0 1 0-.06.28.28 0 0 1 0-.06zm-17.53 5.4a2 2 0 0 0 1 .22h2.91a3.3 3.3 0 0 0 1.49-.24 1.32 1.32 0 0 0 .6-.86l1.79-6.47h-2.59l-1.56 5.63a.33.33 0 0 1 -.15.22.84.84 0 0 1 -.38.06h-.44a.51.51 0 0 1 -.25-.06.25.25 0 0 1 -.13-.15.21.21 0 0 1 0-.06.25.25 0 0 1 0-.06l1.55-5.58h-2.57l-1.74 6.29a1 1 0 0 0 0 .23.82.82 0 0 0 0 .23 1 1 0 0 0 .5.6m-1.49 2.56h10.3l.23-.83h-10.32z" fill="#121920" fill-rule="evenodd"/></g></svg><svg height="12.52" viewBox="-1 -1 13.24 12.52" width="13.24" x="31" y="52.2"><path d="m.49 8.75-.49 1.78h9.78l.49-1.78z" fill="#ccb54d"/><path d="m4.55.16-1.83 4.97.41-4.97h-1.42l-.25 7.52h1.4l3.15-7.52zm6.49 2.21h-1.38l.12-.52a1.89 1.89 0 0 0 0-.34.43.43 0 0 0 -.53-.45 1.05 1.05 0 0 0 -.79 1.13.74.74 0 0 0 .26.61l.87.73a1.65 1.65 0 0 1 .82 1.5 5.27 5.27 0 0 1 -.31 1.47 1.94 1.94 0 0 1 -2.1 1.34c-1.25 0-1.93-.49-1.93-1.37a2.78 2.78 0 0 1 .12-.78l.16-.66h1.43l-.15.61a3.35 3.35 0 0 0 -.11.67.52.52 0 0 0 .62.47.63.63 0 0 0 .56-.27 3.19 3.19 0 0 0 .33-1.26 1 1 0 0 0 -.44-.79l-.75-.6a1.62 1.62 0 0 1 -.73-1.36 3 3 0 0 1 .53-1.74 2 2 0 0 1 1.76-.77c1.22 0 1.85.43 1.85 1.24a2.23 2.23 0 0 1 -.06.49z" fill="#fff"/></svg><svg height="18.46" viewBox="-1 -1 45.07 18.46" width="45.07" x="95.65" y="33.74"><path d="m4.74 4.34 1 6.78h-2zm-1.68-4-3.06 15.75h2.91l.42-2.57h2.68l.38 2.57h3l-3-15.79h-3.33zm9.17 15.78v-15.78h2.91v13.39h4.27v2.39zm12.86-2.3h1.21c1.32 0 1.68-.42 1.68-1.7v-7.87c0-1.23-.38-1.61-1.57-1.61h-1.32zm2.24-13.48c2.21 0 3.53 1.34 3.53 3.82v7.93c0 3.24-1.57 4-4 4h-4.67v-15.79h5.14zm12.81 3.84c0-.83 0-2-1.41-2s-1.5 1.21-1.5 2.08v8c0 .89 0 1.92 1.48 1.92s1.43-1.1 1.43-1.86zm-5.81-.29c0-2.35 1.05-3.89 4.43-3.89 2.64 0 4.32 1.16 4.32 3.62v9.15c0 2.77-1.79 3.69-4.34 3.69-2.71 0-4.41-1-4.41-3.64v-8.92z" fill="#fff"/></svg><svg height="18.46" viewBox="-1 -1 95.65 18.46" width="95.65" y="33.74"><path d="m5.57 16.12v-7.22h-2.66v7.22h-2.91v-15.78h2.91v6.19h2.66v-6.19h2.9v15.78zm12.39-11.94c0-.83 0-2-1.41-2s-1.5 1.21-1.5 2.08v8c0 .89 0 1.92 1.48 1.92s1.43-1.1 1.43-1.86zm-5.81-.29c0-2.35 1.05-3.89 4.43-3.89 2.64 0 4.32 1.16 4.32 3.62v9.15c0 2.77-1.79 3.69-4.34 3.69-2.71 0-4.41-1-4.41-3.64v-8.92zm12.4 12.23v-15.78h2.91v13.39h4.27v2.39zm9.96 0v-15.78h2.9v13.39h4.27v2.39zm15.63-11.94c0-.83 0-2-1.41-2s-1.5 1.21-1.5 2.08v8c0 .89 0 1.92 1.48 1.92s1.43-1.1 1.43-1.86zm-5.81-.29c0-2.35 1.05-3.89 4.43-3.89 2.64 0 4.32 1.16 4.32 3.62v9.15c0 2.77-1.79 3.69-4.34 3.69-2.71 0-4.41-1-4.41-3.64v-8.92zm23.83 12.23h-3.06l-1.52-10.78-1.7 10.78h-3.11l-2.89-15.78h3.02l1.59 11.89 1.7-11.89h2.75l1.65 11.89 1.66-11.89h2.95zm9.82-11.78-1.05 6.75h2zm1.66 11.75-.38-2.57h-2.68l-.43 2.57h-2.91l3.06-15.79h3.33l3 15.79h-3zm10.95-15.75-1.54 7.96-1.61-7.96h-3.06l3.15 10.91v4.87h2.97v-4.67l3.15-11.11z" fill="#fff"/></svg></svg>