<svg enable-background="new 0 0 889 889" viewBox="0 0 889 889" xmlns="http://www.w3.org/2000/svg"><g fill="#e5e5e5"><path d="m444.5 702.3-138.2-79.7v138.1l138.2 79.8z"/><path d="m444.5 564.2-138.2-79.8v138.2l138.2 79.7z"/><path d="m444.5 426-138.2-79.8v138.2l138.2 79.8z"/><path d="m306.3 622.6-138.1-79.8v138.1l138.1 79.8z"/><path d="m168.2 542.8-138.2-79.8v138.2l138.2 79.7z"/><path d="m168.2 404.6-138.2-79.8v138.2l138.2 79.8z"/><path d="m168.2 266.4-138.2-79.7v138.1l138.2 79.8z"/><path d="m444.5 287.8-138.2-79.7v138.1l138.2 79.8z"/><path d="m306.3 208.1-138.1-79.8v138.1l138.1 79.8z"/><path d="m168.2 128.3-138.2-79.8v138.2l138.2 79.7z"/></g><path d="m444.5 702.3 138.2-79.7v138.1l-138.2 79.8z" fill="#f0f0f0"/><path d="m444.5 564.2 138.2-79.8v138.2l-138.2 79.7z" fill="#f0f0f0"/><path d="m444.5 426 138.2-79.8v138.2l-138.2 79.8z" fill="#f0f0f0"/><path d="m582.7 622.6 138.1-79.8v138.1l-138.1 79.8z" fill="#f0f0f0"/><path d="m720.8 542.8 138.2-79.8v138.2l-138.2 79.7z" fill="#f0f0f0"/><path d="m720.8 404.6 138.2-79.8v138.2l-138.2 79.8z" fill="#f0f0f0"/><path d="m720.8 266.4 138.2-79.7v138.1l-138.2 79.8z" fill="#f0f0f0"/><path d="m444.5 287.8 138.2-79.7v138.1l-138.2 79.8z" fill="#f0f0f0"/><path d="m582.7 208.1 138.1-79.8v138.1l-138.1 79.8z" fill="#f0f0f0"/><path d="m720.8 128.3 138.2-79.8v138.2l-138.2 79.7z" fill="#f0f0f0"/></svg>