<svg xmlns="http://www.w3.org/2000/svg"><defs><font horiz-adv-x="569"><font-face ascent="731" descent="-293" units-per-em="1024"/><missing-glyph horiz-adv-x="285"/><glyph horiz-adv-x="0"/><glyph horiz-adv-x="0"/><glyph horiz-adv-x="0" unicode="&#xd;"/><glyph horiz-adv-x="285" unicode="&#x20;"/><glyph horiz-adv-x="285" unicode="&#x09;"/><glyph horiz-adv-x="285" unicode="&#xa0;"/><glyph d="M181 731h-97v-225q6-80 26-319h46q6 80 25 319v225zM76 0h113v114h-113v-114z" horiz-adv-x="265" unicode="&#x21;"/><glyph d="M112 467h69v264h-69v-66-198zM255 467h70v264h-70v-264z" horiz-adv-x="436" unicode="&#x22;"/><glyph d="M104 0h71q8 53 30 211h127q-8-53-30-211h71q7 53 29 211h104v70h-93q5 38 21 153h101v70h-92q8 52 30 210h-71q-7-53-29-210h-127q7 52 29 210h-70q-8-53-30-210h-114v-70h105q-5-38-22-153h-109v-18-52h99q-7-53-30-211zM364 434q-6-38-22-153h-127q5 38 22 153h127z" unicode="&#x23;"/><glyph d="M257 427q-51 15-85 38-33 23-33 78 0 58 35 88 34 30 83 36v-240zM313 322q56-17 94-42 38-26 38-84 0-66-37-97-37-30-95-34v257zM26 223q8-106 69-168t162-72v-84h56v84q98 7 161 65 64 58 64 157 0 33-10 59-9 26-24 47-27 38-65 58-39 20-64 26-21 6-62 17v252q46-9 76-39 29-30 39-80h87q-20 88-69 140-50 53-133 63v68h-56v-67q-88-6-149-64-61-59-61-151 0-90 51-131t159-67v-271q-61 9-102 50-40 40-42 108h-87z" unicode="&#x24;"/><glyph d="M600 190q0-82 37-142 36-60 129-60 89 0 126 63 38 63 38 143 0 83-35 144-34 60-129 60t-130-63q-36-62-36-145zM677 193q0 30 6 64t24 58q10 12 25 20 14 7 34 7 37 0 56-24 18-24 25-56 4-17 5-35t1-33q0-32-6-66-5-34-24-57-11-12-25-20-15-7-35-7t-34 8q-15 7-24 20-18 23-23 57t-5 64zM94 518q0-83 37-143 36-60 129-60 89 0 127 63 37 63 37 143 0 84-34 144-35 61-130 61-94 0-130-63t-36-145zM171 520q0 16 1 34 2 18 6 36 7 32 26 56t56 24q20 0 35-8 14-7 24-20 18-23 23-57t5-64q0-17-1-35-2-18-6-35-7-32-26-56-19-23-57-23t-56 24-24 56q-4 18-5 35-1 18-1 33zM193-23h88q137 191 549 762h-87q-137-190-550-762z" horiz-adv-x="1024" unicode="&#x25;"/><glyph d="M421 152q-27-40-66-64-40-23-90-23-53 0-96 34t-43 89q0 66 38 101 37 35 89 64zM547 0h113q-35 41-142 165 23 48 34 82 10 34 15 98h-83q-1-29-7-58t-16-56q-44 54-132 161 53 30 95 77t42 113q0 74-54 112-55 37-123 37-79 0-122-45t-43-105q0-56 25-93 25-36 56-79-70-37-121-86-50-50-50-136 0-29 14-75 15-47 62-82 25-19 63-31 37-11 89-11 60 0 117 26t90 77q26-30 78-91zM282 450q-24 29-48 61-23 32-23 66 0 39 27 58 26 19 57 19 39 0 61-23 23-23 23-54 0-47-33-77t-64-50z" horiz-adv-x="645" unicode="&#x26;"/><glyph d="M108 467h69v264h-69v-264z" horiz-adv-x="285" unicode="&#x27;"/><glyph d="M275-203q-73 118-104 234t-31 245q0 125 31 241t104 232h-66q-78-105-120-229-41-124-41-244 0-134 44-249 43-115 117-230h66z" horiz-adv-x="265" unicode="&#x28;"/><glyph d="M56-203q79 105 120 229t41 243q0 135-43 250-44 114-118 230h-66q73-118 104-234 31-117 31-246 0-124-31-240-31-117-104-232h66z" horiz-adv-x="265" unicode="&#x29;"/><glyph d="M206 731h-54v-116q-28 11-109 41-5-12-18-49 27-9 108-39-17-23-66-93 11-8 46-32 16 25 66 99 18-25 71-99 10 8 42 32-17 23-68 93 28 10 112 39-5 13-21 49-27-10-109-41v116z" horiz-adv-x="360" unicode="&#x2a;"/><glyph d="M342 518h-70v-224h-223v-70h223v-224h70v224h223v70h-223v224z" horiz-adv-x="614" unicode="&#x2b;"/><glyph d="M85 0h60q2-25-11-56-13-32-48-43v-52q59 17 86 61 27 43 27 100v104h-114v-114z" horiz-adv-x="285" unicode="&#x2c;"/><glyph d="M51 244h296v82h-296v-82z" horiz-adv-x="398" unicode="&#x2d;"/><glyph d="M85 0h114v114h-114v-114z" horiz-adv-x="285" unicode="&#x2e;"/><glyph d="M-18-17h74q76 191 303 766h-74q-76-192-303-766z" horiz-adv-x="341" unicode="&#x2f;"/><glyph d="M43 356q0-42 2-87 3-45 12-87 17-80 67-137t161-57q110 0 160 57 51 57 68 137 9 42 11 87t2 87q0 79-11 163-11 85-61 141-27 30-68 48-42 18-101 18-111 0-161-57-50-58-67-137-9-43-12-88-2-45-2-88zM135 357q0 29 1 62 1 34 6 68 9 63 40 113 30 49 103 49 39 0 65-15 26-16 43-41 30-48 36-115 5-68 5-121 0-28-1-62t-5-68q-9-63-40-113-31-49-103-49-39 0-65 15-27 15-43 41-31 47-36 115-6 68-6 121z" unicode="&#x30;"/><glyph d="M365 726h-67q-15-82-75-109-59-27-134-27v-70h189v-520h87v726z" unicode="&#x31;"/><glyph d="M132 469q-2 65 32 123 33 57 109 57 58 0 99-36 42-36 42-95 0-75-47-120-46-44-139-101-50-31-93-65t-71-87q-15-29-26-64-10-36-13-81h474v77h-373q13 67 74 109 61 41 130 82 67 43 122 98 54 55 54 151 0 101-66 155t-161 54q-116 0-177-73-62-73-57-184h87z" unicode="&#x32;"/><glyph d="M223 341q13 2 26 2 13 1 26 1 65 0 110-35 45-36 45-104 0-66-47-103t-111-37q-74 0-113 44-39 45-41 115h-87v-7q0-107 64-167 67-62 177-62 103 0 176 56 74 56 74 165 0 65-32 113-33 48-99 63v2q42 19 71 58 30 39 30 86 0 101-64 148-63 47-158 47-109 0-164-65-56-66-60-169h87q1 63 33 110 33 47 104 47 56 0 92-30 37-30 37-87 0-59-41-88-42-30-97-30h-18q-10 0-20 1v-74z" unicode="&#x33;"/><glyph d="M429 726h-70q-82-118-330-472v-84h318v-170h82v170h98v77h-98v479zM103 247q61 89 242 355h2v-355h-244z" unicode="&#x34;"/><glyph d="M481 714h-358q-17-94-68-377 19-1 75-4 25 31 60 49 34 19 75 19 73 0 119-46 45-46 45-118 0-87-46-130-45-42-108-42-65 0-107 37-41 38-45 94h-87q2-99 69-154 68-54 162-54 83 0 138 33 56 34 85 86 16 27 23 59 8 31 8 63 0 125-69 187t-165 62q-37 0-74-12-38-13-61-40l-2 2q9 52 38 209h293v77z" unicode="&#x35;"/><glyph d="M293 390q74 0 110-48 36-49 36-117 0-64-38-112-37-48-108-48-72 0-111 47-40 47-40 114 0 69 39 116 39 48 112 48zM511 541q-8 88-61 137-54 48-144 48-54 0-95-16-42-17-72-46-56-54-78-142t-22-185q0-40 4-83t15-83q21-75 73-129 53-54 158-54 48 0 85 11 37 12 64 32 51 37 72 93t21 107q0 101-58 168-59 68-164 68-59 0-105-23-45-22-76-72-1 0-2 2 1 29 4 62 4 33 12 65 15 59 51 104 37 44 109 44 52 0 84-29 32-30 38-79h87z" unicode="&#x36;"/><glyph d="M521 714h-470v-82h381q-114-122-194-285t-93-347h98q3 60 16 122t33 124q38 115 98 218 60 104 131 175v75z" unicode="&#x37;"/><glyph d="M133 205q0 63 45 101 44 38 109 38 61 0 105-39 44-40 44-99 0-61-41-101-42-40-107-40-68 0-111 37-44 38-44 103zM67 541q0-49 28-91 28-41 73-60-61-21-94-69t-33-112q0-111 71-166t176-55q100 0 170 58t70 163q0 67-31 114-32 46-98 67 45 20 73 61t28 90q0 69-51 127-50 58-169 58-84 0-149-48-64-47-64-137zM159 538q0 54 37 83 37 28 90 28t87-28q35-29 35-83 0-56-35-86-34-31-85-31-54 0-92 28-37 29-37 89z" unicode="&#x38;"/><glyph d="M419 483q0-64-40-112-40-47-109-47-63 0-103 46-40 47-40 107 0 67 32 120 33 52 110 52 73 0 112-49 38-50 38-117zM50 175q9-94 69-140 60-47 151-47 132 0 192 101 60 102 60 290 0 134-33 208-32 74-86 107-28 17-61 25-33 7-69 7-105 0-171-66-67-65-67-171 0-107 59-175 60-67 170-67 53 0 98 27 46 27 70 73l2-2q-4-140-44-210t-120-70q-52 0-90 28-38 29-43 82h-87z" unicode="&#x39;"/><glyph d="M85 0h114v114h-114v-114zM199 529h-114v-113h114v113z" horiz-adv-x="285" unicode="&#x3a;"/><glyph d="M85 0h60q2-25-11-56-13-32-48-43v-52q59 17 86 61 27 41 27 97v3 104h-114v-114zM199 529h-114v-113h114v113z" horiz-adv-x="285" unicode="&#x3b;"/><glyph d="M567 526q-130-59-520-235v-64q130-59 520-235v69q-109 50-435 198 109 49 435 198v69z" horiz-adv-x="614" unicode="&#x3c;"/><glyph d="M565 397h-516v-69h516v69zM49 121h516v69h-516v-69z" horiz-adv-x="614" unicode="&#x3d;"/><glyph d="M47-8q130 59 520 235v64q-130 59-520 235v-69q109-50 435-198-108-49-435-198v-69z" horiz-adv-x="614" unicode="&#x3e;"/><glyph d="M143 503q0 70 35 120 35 49 108 49 54 0 87-32t37-88q3-57-23-91-27-34-57-64-31-30-62-69-30-39-30-102v-48h87v40q0 52 28 86t61 66 61 71q27 40 27 103 0 97-61 151t-155 54q-108 0-170-71-60-68-60-171v-4h87zM223 0h114v114h-114v-114z" unicode="&#x3f;"/><glyph d="M430 517q32 0 58-29 25-29 25-66 0-41-20-92-21-50-54-85-19-19-40-30t-45-11q-38 0-63 28t-25 71q0 23 6 49t17 51q21 46 58 80 36 34 83 34zM633 567h-65q-6-16-23-64-18 46-49 65t-66 19q-38 0-71-13t-61-35q-51-42-80-108t-29-135q0-68 41-115t106-47q38 0 71 21t56 48h3q1-34 20-50 19-17 45-17 47 0 103 36 55 35 93 98 20 35 32 75 12 41 12 88 0 90-46 160-46 71-120 111-40 21-86 33t-96 12q-55 0-105-15-51-15-94-42-81-50-131-135t-50-188q0-106 49-192 49-87 131-137 44-27 96-42 51-15 108-15 98 0 185 47 86 48 136 133h-65q-43-56-112-90t-142-34q-45 0-87 12-42 13-78 36-68 42-110 115-41 73-41 162 0 47 12 90 12 44 34 82 40 70 110 113t155 43q70 0 132-31 63-31 101-87 21-30 33-67 11-36 11-79 0-29-6-58-7-30-18-57-22-51-54-86-32-34-63-34-13 0-19 8-5 9-5 23 0 12 3 26l8 26q28 97 86 291z" horiz-adv-x="819" unicode="&#x40;"/><glyph d="M-7 0h100q21 55 82 220h309l80-220h108q-72 183-286 731h-107q-72-183-286-731zM330 643h2q30-85 122-341h-248q31 85 124 341z" horiz-adv-x="664" unicode="&#x41;"/><glyph d="M177 335h222q62 0 110-25 49-26 49-97 0-60-37-95-37-36-100-36h-244v253zM80 0h353q109 0 166 65 56 64 56 145 0 68-35 115-36 47-104 61v2q51 21 80 63 29 43 29 101 0 54-25 92-25 39-61 61-33 19-89 23-57 3-105 3h-265v-183-548zM177 649h195q63 0 109-20 46-19 46-95 0-58-36-88-36-29-119-29h-195v232z" horiz-adv-x="701" unicode="&#x42;"/><glyph d="M691 511q-17 117-102 177-84 61-199 61-59 0-109-16-49-15-88-42-74-51-111-138-38-86-38-189 0-104 35-190 36-85 107-135 38-27 87-42 49-14 109-14 138 0 220 78 83 78 96 214h-97q-7-90-61-150t-150-60q-85 0-139 40t-81 105q-15 35-22 76t-7 85q0 40 7 78 7 39 22 73 26 63 80 104t139 41q76 0 133-39t72-117h97z" horiz-adv-x="739" unicode="&#x43;"/><glyph d="M80 0h251q183 0 267 100 84 99 84 283 0 177-91 262-91 86-260 86h-251v-183-548zM177 649h164q134 0 189-74 55-75 55-205 0-132-47-191-47-60-100-80-29-11-55-14-27-3-44-3h-162v142 425z" horiz-adv-x="721" unicode="&#x44;"/><glyph d="M80 0h508v82h-411v253h380v82h-380v232h408v82h-505v-183-548z" horiz-adv-x="626" unicode="&#x45;"/><glyph d="M80 0h97v335h336v82h-336v232h383v82h-480v-183-548z" horiz-adv-x="588" unicode="&#x46;"/><glyph d="M652 0h62v385h-321v-82h234q4-100-59-169t-176-69q-79 0-135 39-55 40-84 102-16 34-24 72t-8 78q0 41 7 81t22 76q27 67 81 110 55 44 141 44 82 0 142-39 61-39 75-122h98q-21 128-108 185-87 58-207 58-60 0-111-17-50-16-90-45-73-53-110-142-37-90-37-194 0-93 40-176t113-134q40-27 89-43 49-15 106-15 65 0 129 25 63 26 106 83 8-30 25-91z" horiz-adv-x="777" unicode="&#x47;"/><glyph d="M80 0h97v335h385v-335h97v731h-97v-314h-385v314h-97v-183-548z" horiz-adv-x="739" unicode="&#x48;"/><glyph d="M84 0h97v731h-97v-92-639z" horiz-adv-x="265" unicode="&#x49;"/><glyph d="M452 731h-98v-534q0-61-25-97-25-35-91-35-72 0-95 40-23 41-23 105v31h-97v-45q0-103 55-158t158-55q80 0 126 28 47 28 68 71 11 23 16 49 6 25 6 51v549z" horiz-adv-x="531" unicode="&#x4a;"/><glyph d="M80 0h97v256q31 28 122 114 66-93 264-370h123l-320 436q77 74 308 295h-126q-93-91-371-364v364h-97v-183-548z" horiz-adv-x="683" unicode="&#x4b;"/><glyph d="M80 0h484v82h-387v649h-97v-183-548z" unicode="&#x4c;"/><glyph d="M82 0h92v608h2l228-608h83q58 152 229 608h2v-608h92v731h-133q-58-153-232-614-57 153-230 614h-133v-61-670z" horiz-adv-x="892" unicode="&#x4d;"/><glyph d="M79 0h92v587h2q96-147 382-587h107v731h-93v-593h-2q-96 148-385 593h-103v-183-548z" horiz-adv-x="739" unicode="&#x4e;"/><glyph d="M39 366q0-53 11-102 11-50 32-94 40-82 117-135 77-52 190-52 61 0 112 16 50 16 90 44 74 53 111 139 37 87 37 184 0 52-10 102-11 49-33 94-40 81-117 134t-190 53-190-53-117-134q-21-45-32-94-11-50-11-102zM136 366q0 38 7 77 7 38 22 73 27 64 82 107 55 44 142 44t142-44q55-43 82-107 15-35 22-73 7-39 7-77 0-72-25-141-24-68-78-111-28-23-66-36-37-13-84-13t-84 13-66 36q-53 43-78 111-25 69-25 141z" horiz-adv-x="778" unicode="&#x4f;"/><glyph d="M80 0h97v299h223q109-1 167 57t58 159-58 159q-58 57-167 57h-320v-183-548zM177 649h191q82 0 121-34 38-35 38-100t-38-100q-38-34-117-34h-4-191v268z" horiz-adv-x="664" unicode="&#x50;"/><glyph d="M725-2q-24 19-96 77 55 54 83 130 27 77 27 161 0 52-10 102-11 49-33 94-40 81-117 134t-190 53-190-53-117-134q-21-45-32-94-11-50-11-102 0-53 11-102 11-50 32-94 40-82 117-135 77-52 190-52 52 0 95 11 44 11 80 33 37-30 112-90 12 15 49 61zM410 150q20-17 80-65-23-10-48-15-24-5-53-5-47 0-84 13t-66 36q-53 43-78 111-25 69-25 141 0 38 7 77 7 38 22 73 27 64 82 107 55 44 142 44t142-44q55-43 82-107 15-35 22-73 7-39 7-77 0-66-20-130-21-63-64-105-32 26-97 78-13-15-51-59z" horiz-adv-x="778" unicode="&#x51;"/><glyph d="M177 394v255h242q68 0 99-35 31-36 31-90 0-80-50-105-51-25-119-25h-203zM80 0h97v312h238q70 0 92-39t30-93q10-54 8-106-3-52 18-74h109q-31 38-35 93t-8 109q-6 53-26 96-20 42-84 54v2q66 19 97 69 30 51 30 117 0 87-60 139-59 52-162 52h-344v-183-548z" horiz-adv-x="701" unicode="&#x52;"/><glyph d="M595 517q-5 121-81 176-76 56-188 56-35 0-69-7-34-6-65-18-57-24-94-70-38-47-38-119 0-36 11-62 10-27 28-46 33-37 86-55 53-19 110-31 57-13 110-26t85-39q18-14 28-33t10-45q0-28-8-49t-23-36q-27-28-69-38t-85-10q-83 0-148 41-65 42-65 135h-92q0-87 40-144 40-56 104-84 35-16 75-23t83-7q35 0 71 6 36 5 69 18 61 23 103 70 43 48 43 124 0 70-33 110-33 41-83 64-27 12-57 21t-61 16q-57 13-111 25-53 11-85 34-18 13-28 30t-10 41q0 71 51 98t113 27q75 0 124-36 48-36 57-114h92z" horiz-adv-x="664" unicode="&#x53;"/><glyph d="M246 0h97v649h244v82h-585v-21-61h244v-649z" horiz-adv-x="588" unicode="&#x54;"/><glyph d="M664 731h-98v-467q0-97-49-148t-141-51q-97 0-150 51t-53 148v467h-97v-51-416q0-146 79-214 79-67 221-67 137 0 212 71 76 72 76 210v467z" horiz-adv-x="739" unicode="&#x55;"/><glyph d="M628 731h-102q-52-158-211-634h-2q-52 159-209 634h-105q64-183 258-731h111q65 183 260 731z" horiz-adv-x="626" unicode="&#x56;"/><glyph d="M936 731h-97q-37-152-149-608h-2q-40 152-162 608h-105l-164-608h-2q-36 152-143 608h-100q47-183 188-731h101q42 154 169 614h2q42-153 167-614h101q49 183 196 731z" horiz-adv-x="948" unicode="&#x57;"/><glyph d="M-1 0h110q50 76 202 302 49-75 197-302h119q-65 94-257 376 60 89 241 355h-108q-48-71-191-286-45 72-182 286h-117q60-89 241-355-64-94-255-376z" horiz-adv-x="626" unicode="&#x58;"/><glyph d="M662 731h-111q-54-87-214-348-55 87-219 348h-116q71-108 283-432v-299h97v299z" horiz-adv-x="664" unicode="&#x59;"/><glyph d="M23 0h581v82h-466q114 142 454 567v82h-535v-82h420q-113-142-454-567v-82z" horiz-adv-x="626" unicode="&#x5a;"/><glyph d="M265 749h-191v-143-809h191v70h-109v812h109v70z" horiz-adv-x="265" unicode="&#x5b;"/><glyph d="M56 749h-74q75-192 303-766h74q-75 191-303 766z" horiz-adv-x="341" unicode="&#x5c;"/><glyph d="M0-203h191v952h-191v-70h110v-812h-110v-21-49z" horiz-adv-x="265" unicode="&#x5d;"/><glyph d="M51 270h73q45 92 182 369 47-92 186-369h71q-56 111-223 444h-66q-55-111-223-444z" horiz-adv-x="614" unicode="&#x5e;"/><glyph d="M0-128h512v51h-128-384v-15-36z" horiz-adv-x="512" unicode="&#x5f;"/><glyph d="M111 602h65q-22 37-88 147h-112q34-37 135-147z" horiz-adv-x="227" unicode="&#x60;"/><glyph d="M393 184q0-36-38-78-38-41-124-41-40 0-71 17t-31 60q0 49 32 68 32 20 75 28 43 7 88 12 44 5 69 23v-89zM535 70q-9-3-15-4-7-1-12-1-21 0-24 14-4 14-4 45v272q0 33-9 56-9 24-24 40-29 31-74 40-45 10-91 10-89 0-155-40-66-39-70-137h87q3 58 40 79t92 21q42 0 80-16 38-15 38-72 0-17-7-29-7-11-20-18-24-13-64-18-40-4-87-13-44-8-84-22-41-14-66-46-14-17-21-40-8-23-8-55 0-79 51-114 52-34 124-34 55 0 103 20 47 19 83 62 0-43 20-63 20-19 54-19 21 0 36 3 15 4 27 11v68z" horiz-adv-x="550" unicode="&#x61;"/><glyph d="M478 269q0-77-35-141-34-63-124-63-89 0-128 61-38 61-38 139 0 75 37 137 37 63 124 63 85 0 125-61 39-60 39-135zM69 0h87v71h2q29-47 79-65 51-18 92-18 121 0 181 81 60 82 60 194t-60 195q-61 84-183 84-55 0-101-20-47-20-68-64h-2v273h-87v-183-548z" horiz-adv-x="607" unicode="&#x62;"/><glyph d="M515 359q-9 95-74 139-64 44-154 44-126 0-188-83-62-82-62-201 0-118 63-194t185-76q100 0 159 54 60 55 74 152h-89q-8-60-45-95-37-34-100-34-83 0-119 60t-36 133q0 81 35 144t130 63q54 0 87-28 34-28 44-78h90z" horiz-adv-x="550" unicode="&#x63;"/><glyph d="M539 731h-87v-272h-2q-30 47-80 65-51 18-91 18-122 0-182-82t-60-194 61-195q60-83 183-83 54 0 101 20 46 20 68 64h2v-72h87v731zM129 260q0 78 35 141 35 64 124 64 90 0 128-61 39-61 39-140 0-74-37-137-38-62-125-62-85 0-124 60-40 61-40 135z" horiz-adv-x="607" unicode="&#x64;"/><glyph d="M431 168q-11-52-47-78-36-25-90-25-87 0-127 52t-38 122h396q1 7 1 15 0 26-4 55-5 37-17 72-23 65-75 113-53 48-144 48-109 0-179-79-70-78-70-197 4-121 65-200 62-78 189-78 89 0 149 46 59 46 77 134h-86zM129 315q5 61 44 105 39 45 108 45 64 0 107-44 42-43 45-106h-304z" horiz-adv-x="550" unicode="&#x65;"/><glyph d="M101 0h87v453h103v76h-103v74q0 35 18 47 17 13 49 13 11 0 25-2 13-2 24-6v76q-12 4-28 6t-28 2q-72 0-109-33-38-33-38-98v-79h-89v-9-67h89v-453z" horiz-adv-x="303" unicode="&#x66;"/><glyph d="M279 71q-31 0-54 9t-39 25q-32 29-44 75-13 46-13 92 0 76 37 135 36 58 120 58 82 0 116-60t34-130q0-26-4-52t-13-49q-16-44-50-74-34-29-90-29zM522 529h-82v-75h-1q-24 43-65 66-42 22-92 22-90 0-142-43-53-43-78-103-13-32-19-66-6-35-6-68 0-108 59-188t177-80q50 0 97 24t68 72h2v-35q0-89-36-145-37-55-122-55-43 0-89 19t-49 67h-87q3-57 36-90 33-34 79-50 25-8 51-12 27-4 53-4 126 0 186 65 60 66 60 195v484z" horiz-adv-x="588" unicode="&#x67;"/><glyph d="M66 0h87v299q0 71 38 119 39 47 118 47 50 0 79-29t29-78v-358h87v348q0 85-39 140-39 54-143 54-48 0-97-22-49-21-70-68h-2v279h-87v-183-548z" unicode="&#x68;"/><glyph d="M71 0h87v529h-87v-132-397zM158 731h-87v-106h87v106z" horiz-adv-x="227" unicode="&#x69;"/><glyph d="M158 529h-87v-582q0-41-11-57-10-16-38-16h-18l-18 2v-11-64q11-2 23-3 11-1 22-1 57 0 92 33 35 32 35 102v597zM158 731h-87v-106h87v106z" horiz-adv-x="227" unicode="&#x6a;"/><glyph d="M71 0h87v201q20 19 82 75 45-69 181-276h110q-56 84-225 337 53 48 210 192h-117q-60-57-241-231v433h-87v-183-548z" horiz-adv-x="531" unicode="&#x6b;"/><glyph d="M71 0h87v183 548h-87v-183-548z" horiz-adv-x="227" unicode="&#x6c;"/><glyph d="M66 0h87v330q0 10 3 25 4 14 12 31 14 29 45 54 30 25 81 25 58 0 79-33 20-33 20-85v-347h87v330q0 61 38 98t100 37q64 0 84-34 19-35 19-84v-347h87v388q0 82-49 118-48 36-127 36-51 0-95-24t-71-66q-16 48-57 69-40 21-88 21-55 0-99-23-43-23-72-67h-3v77h-81v-132-397z" horiz-adv-x="873" unicode="&#x6d;"/><glyph d="M66 0h87v299q0 71 38 119 39 47 118 47 50 0 79-29t29-78v-358h87v348q0 85-39 140-39 54-143 54-57 0-101-24-44-23-71-73h-3v84h-81v-132-397z" unicode="&#x6e;"/><glyph d="M37 264q0-116 65-196 66-80 192-80t191 80q66 80 66 196 0 117-66 197-65 81-191 81t-192-81q-65-80-65-197zM129 264q0 97 48 149 49 52 117 52t116-52q49-52 49-149 0-96-49-148-48-51-116-51t-117 51q-48 52-48 148z" horiz-adv-x="588" unicode="&#x6f;"/><glyph d="M478 269q0-77-35-141-34-63-124-63-89 0-128 61-38 61-38 139 0 75 37 137 37 63 124 63 85 0 125-61 39-60 39-135zM69-203h87v274h2q29-47 79-65 51-18 92-18 121 0 181 81 60 82 60 194t-60 195q-61 84-183 84-55 0-101-20-47-20-68-64h-2v71h-87v-91-641z" horiz-adv-x="607" unicode="&#x70;"/><glyph d="M539 529h-87v-70h-2q-30 47-80 65-51 18-91 18-122 0-182-82t-60-194 61-195q60-83 183-83 54 0 101 20 46 20 68 64h2v-275h87v732zM129 260q0 78 35 141 35 64 124 64 90 0 128-61 39-61 39-140 0-74-37-137-38-62-125-62-85 0-124 60-40 61-40 135z" horiz-adv-x="607" unicode="&#x71;"/><glyph d="M62 0h88v236q0 100 43 157t148 57v92h-9q-65 0-108-29-46-31-78-95h-2v111h-82v-132-397z" horiz-adv-x="341" unicode="&#x72;"/><glyph d="M32 167q4-98 69-139 66-40 155-40 52 0 103 14 52 15 84 50 18 18 28 44 10 25 10 59 0 76-54 106-53 30-119 44-21 5-43 10-22 4-41 10-38 10-63 26-26 16-26 46 0 40 37 54t76 14q43 0 80-19 38-20 43-70h87q-6 97-68 131-62 35-149 35-25 0-49-4-25-5-48-13-42-17-72-49-29-33-29-85 0-76 54-105 55-30 119-44 65-15 119-31 54-17 54-68 0-50-44-64-43-14-84-14-54 0-97 22t-45 80h-87z" horiz-adv-x="512" unicode="&#x73;"/><glyph d="M186 688h-87v-159h-90v-19-57h90v-337q0-73 30-95 29-21 96-21h67v77h-40q-41 0-53 8-13 9-13 39v329h106v76h-106v159z" horiz-adv-x="323" unicode="&#x74;"/><glyph d="M504 529h-87v-299q0-71-39-118t-118-47q-50 0-79 29-28 29-28 77v358h-87v-38-310q0-85 38-139 39-54 144-54 57 0 100 23 44 24 72 73h2v-84h82v529z" unicode="&#x75;"/><glyph d="M498 529h-91q-37-110-145-441h-2q-37 110-148 441h-98q49-132 197-529h93q49 132 194 529z" horiz-adv-x="512" unicode="&#x76;"/><glyph d="M759 529h-90q-30-108-119-433h-2q-28 109-111 433h-95q-27-108-106-433h-3q-29 109-119 433h-97q43-132 170-529h95q26 105 106 421h2q27-105 108-421h92q42 132 169 529z" horiz-adv-x="776" unicode="&#x77;"/><glyph d="M9 0h106q37 55 147 219 37-55 148-219h111q-51 71-205 286 46 61 183 243h-105q-33-46-132-185-32 46-127 185h-111q46-62 184-250-50-70-199-279z" horiz-adv-x="530" unicode="&#x78;"/><glyph d="M504 529h-92q-37-108-149-433h-2q-39 109-155 433h-98q53-131 210-526-9-22-36-90-12-23-28-36-17-12-43-12-13 0-26 4l-26 8v-80q15-5 30-7t31-2q58 0 91 32 32 32 62 109z" horiz-adv-x="512" unicode="&#x79;"/><glyph d="M23 0h446v77h-338q81 98 324 393v59h-412v-76h299q-80-97-319-386v-67z" horiz-adv-x="492" unicode="&#x7a;"/><glyph d="M316 749h-71q-39 0-75-35-36-34-36-100v-186q0-54-26-87-27-34-59-34v-69q32 0 59-32 26-32 26-88v-187q0-65 36-99 36-35 75-35h71v62h-51q-30 0-39 28-10 28-10 60v187q0 51-17 80t-36 42q-11 7-20 11-10 4-16 4v3q11 3 32 17 21 13 38 41 8 15 14 34 5 20 5 46v187q0 32 10 60 9 28 39 28h51v62z" horiz-adv-x="341" unicode="&#x7b;"/><glyph d="M79-219h69v1024h-69v-154-870z" horiz-adv-x="227" unicode="&#x7c;"/><glyph d="M25-203h71q39 0 75 35 36 34 36 99v187q0 54 26 87 27 33 59 33v69q-32 0-59 33-26 32-26 88v186q0 66-36 100-36 35-75 35h-71v-16-46h51q30 0 39-28 10-29 10-62v-185q0-28 5-49 6-21 14-36 17-28 38-40 21-11 32-13v-3q-6-1-16-6-9-4-20-12-19-15-36-44-17-28-17-75v-187q0-33-10-60-9-28-39-28h-51v-62z" horiz-adv-x="341" unicode="&#x7d;"/><glyph d="M507 327q-18-27-39-53-21-25-51-25-21 0-49 14-27 15-56 27-29 13-58 23t-55 10q-52 0-82-28-29-28-46-61 12-17 37-51 12 27 32 53 20 25 54 25 35 0 64-13t53-27q26-14 51-24t54-10q47 0 76 28t52 60q-13 18-37 52z" horiz-adv-x="614" unicode="&#x7e;"/><glyph d="M84-203h97v226q-6 79-25 318h-46q-7-80-26-318v-226zM189 529h-113v-113h113v113z" horiz-adv-x="265" unicode="&#xa1;"/><glyph d="M279 65q-75 5-107 64-33 59-33 129 0 76 30 136 30 61 110 71v-400zM279-119h39v107q96 0 150 65t61 141h-87q-8-53-38-88-30-36-86-41v400q50-2 79-30 30-29 40-76h89q-10 93-67 137-57 43-141 46v97h-39v-97q-116-8-174-91-58-82-58-193 0-114 60-190 59-76 172-80v-107z" unicode="&#xa2;"/><glyph d="M48 335h87q9-20 18-46 8-26 8-49 0-60-35-107-34-47-78-77 16-22 48-67 24 16 48 26 25 10 55 10 29 0 55-7 27-7 52-15 26-8 51-14t51-6q39 0 79 10 39 11 70 37-15 22-44 67-18-14-42-26-25-12-49-12t-45 7q-20 6-41 12-21 5-44 10t-53 5q-31 0-56-9-26-9-52-21-1 1-2 3 46 37 82 80 37 43 37 112 0 22-6 41-6 20-15 36h141v46h-163q-18 38-36 72-17 34-17 85 0 56 42 95 43 39 104 39 74 0 110-50 37-49 39-138h88q2 132-64 198-65 67-178 67-94 0-164-56-70-55-70-152 0-48 14-87t35-73h-60v-46z" unicode="&#xa3;"/><glyph d="M238 0h97v178h147v62h-147v43q4 8 18 33h129v62h-95q46 88 182 353h-106q-43-90-173-361-45 90-178 361h-112q47-88 187-353h-94v-62h126q5-8 19-33v-43h-145v-62h145v-178z" unicode="&#xa5;"/><glyph d="M164 606h92v107h-92v-107zM-29 606h92v107h-92v-107z" horiz-adv-x="227" unicode="&#xa8;"/><glyph d="M25 368q0-108 51-194 50-86 133-136 44-26 95-41 52-14 107-14 101 0 188 48 86 49 137 130 28 44 43 97 16 52 16 110 0 56-16 108-15 51-43 95-51 81-137 129-87 49-188 49-55 0-107-15-51-15-95-41-83-50-133-135-51-85-51-190zM94 368q0 48 12 91 12 44 35 81 41 69 112 111 70 41 158 41 46 0 88-12 43-13 79-36 67-42 107-115 40-72 40-161 0-49-12-94-12-44-34-82-41-70-111-112-71-41-157-41-47 0-90 12-43 13-79 36-67 42-108 116-40 73-40 165zM548 292q-7-45-41-75-33-30-84-30-73 0-115 54-43 54-43 127t40 124 116 51q51 0 84-28 34-29 43-72h64q-11 77-65 117-54 39-127 39-105 0-165-66-59-65-59-167 0-101 61-168 62-67 166-67 71 0 122 43 52 43 68 118h-65z" horiz-adv-x="819" unicode="&#xa9;"/><glyph d="M408 117v88q-26 20-103 80 26 20 103 80v88q-39-31-156-123v-90q39-31 156-123zM207 117v88q-26 20-103 80 26 20 103 80v88q-39-31-156-123v-90q39-31 156-123z" horiz-adv-x="474" unicode="&#xab;"/><glyph d="M25 368q0-108 51-194 50-86 133-136 44-26 95-41 52-14 107-14 101 0 188 48 86 49 137 130 28 44 43 97 16 52 16 110 0 56-16 108-15 51-43 95-51 81-137 129-87 49-188 49-55 0-107-15-51-15-95-41-83-50-133-135-51-85-51-190zM94 368q0 48 12 92 12 43 35 80 41 70 112 111 70 41 158 41 46 0 88-12 43-13 79-35 67-43 107-115 40-73 40-162 0-49-12-94-12-44-34-82-41-70-111-112-71-41-157-41-47 0-90 12-43 13-79 36-67 42-108 116-40 73-40 165zM261 142h70v193h73q31-48 122-193h75q-32 50-128 198 50 5 84 33t34 89q0 64-39 96-38 32-118 32h-173v-448zM331 534h92q35 0 67-13 31-12 31-56 0-53-36-63-35-11-82-11h-72v143z" horiz-adv-x="819" unicode="&#xae;"/><glyph d="M51 602h66q33 37 134 147h-112q-22-37-88-147z" horiz-adv-x="227" unicode="&#xb4;"/><glyph d="M5-196q23-8 46-14 24-5 48-5 43 0 85 20t42 71q0 38-27 56-26 19-59 19-13 0-21-2t-13-5l-2 2q11 13 43 54h-14-29q-15-20-62-80 4-7 17-29 12 4 21 6 9 3 21 3 20 0 34-9 15-9 15-23 0-18-22-25-21-7-42-7-16 0-33 5-17 4-29 8-7-15-19-45z" horiz-adv-x="227" unicode="&#xb8;"/><glyph d="M67 453v-88q25-20 102-80-26-20-102-80v-88q38 30 155 123v90q-39 30-155 123zM267 453v-88q26-20 103-80-26-20-103-80v-88q39 30 156 123v90q-39 30-156 123z" horiz-adv-x="474" unicode="&#xbb;"/><glyph d="M428 31q1-71-34-120t-108-49q-55 0-88 32-32 32-36 88t23 90 57 64q30 31 61 70 31 38 31 101v40h-87v-32q0-52-28-86t-61-65q-34-32-61-72-27-39-27-102 0-98 60-151 61-54 156-54 107 0 169 70 60 69 60 171v5h-87zM345 529h-114v-113h114v113z" unicode="&#xbf;"/><glyph d="M-7 0h100q21 55 82 220h309l80-220h108q-72 183-286 731h-107q-72-183-286-731zM330 643h2q30-85 122-341h-248q31 85 124 341zM269 783h66q33 37 134 147h-112q-22-37-88-147z" horiz-adv-x="664" unicode="&#xc1;"/><glyph d="M80 0h508v82h-411v253h380v82h-380v232h408v82h-505v-183-548zM251 783h65q34 37 135 147h-112q-22-37-88-147z" horiz-adv-x="626" unicode="&#xc9;"/><glyph d="M84 0h97v731h-97v-92-639zM71 783h65q34 37 134 147h-111q-22-37-88-147z" horiz-adv-x="265" unicode="&#xcd;"/><glyph d="M79 0h92v587h2q96-147 382-587h107v731h-93v-593h-2q-96 148-385 593h-103v-183-548zM495 909q-5-15-16-30-12-15-32-15-16 0-33 7-16 6-34 14-18 7-37 14-19 6-39 6-48 0-72-33-23-34-35-79h53q-2 19 15 31t34 12q14 0 32-7 18-6 37-13 18-8 36-14t31-6q29 0 49 8 19 9 32 23 13 20 21 40 8 21 11 42h-53z" horiz-adv-x="739" unicode="&#xd1;"/><glyph d="M39 366q0-53 11-102 11-50 32-94 40-82 117-135 77-52 190-52 61 0 112 16 50 16 90 44 74 53 111 139 37 87 37 184 0 52-10 102-11 49-33 94-40 81-117 134t-190 53-190-53-117-134q-21-45-32-94-11-50-11-102zM136 366q0 38 7 77 7 38 22 73 27 64 82 107 55 44 142 44t142-44q55-43 82-107 15-35 22-73 7-39 7-77 0-72-25-141-24-68-78-111-28-23-66-36-37-13-84-13t-84 13-66 36q-53 43-78 111-25 69-25 141zM327 783h65q34 37 134 147h-111q-22-37-88-147z" horiz-adv-x="778" unicode="&#xd3;"/><glyph d="M664 731h-98v-467q0-97-49-148t-141-51q-97 0-150 51t-53 148v467h-97v-51-416q0-146 79-214 79-67 221-67 137 0 212 71 76 72 76 210v467zM307 783h66q33 37 134 147h-112q-22-37-88-147z" horiz-adv-x="739" unicode="&#xda;"/><glyph d="M664 731h-98v-467q0-97-49-148t-141-51q-97 0-150 51t-53 148v467h-97v-51-416q0-146 79-214 79-67 221-67 137 0 212 71 76 72 76 210v467zM420 787h92v107h-92v-107zM227 787h92v107h-92v-107z" horiz-adv-x="739" unicode="&#xdc;"/><glyph d="M393 184q0-36-38-78-38-41-124-41-40 0-71 17t-31 60q0 49 32 68 32 20 75 28 43 7 88 12 44 5 69 23v-89zM535 70q-9-3-15-4-7-1-12-1-21 0-24 14-4 14-4 45v272q0 33-9 56-9 24-24 40-29 31-74 40-45 10-91 10-89 0-155-40-66-39-70-137h87q3 58 40 79t92 21q42 0 80-16 38-15 38-72 0-17-7-29-7-11-20-18-24-13-64-18-40-4-87-13-44-8-84-22-41-14-66-46-14-17-21-40-8-23-8-55 0-79 51-114 52-34 124-34 55 0 103 20 47 19 83 62 0-43 20-63 20-19 54-19 21 0 36 3 15 4 27 11v68zM213 602h66q33 37 134 147h-112q-22-37-88-147z" horiz-adv-x="550" unicode="&#xe1;"/><glyph d="M431 168q-11-52-47-78-36-25-90-25-87 0-127 52t-38 122h396q1 7 1 15 0 26-4 55-5 37-17 72-23 65-75 113-53 48-144 48-109 0-179-79-70-78-70-197 4-121 65-200 62-78 189-78 89 0 149 46 59 46 77 134h-86zM129 315q5 61 44 105 39 45 108 45 64 0 107-44 42-43 45-106h-304zM213 602h66q33 37 134 147h-112q-22-37-88-147z" horiz-adv-x="550" unicode="&#xe9;"/><glyph d="M158 0v529h-87v-132-397h87zM51 602h66q33 37 134 147h-112q-22-37-88-147z" horiz-adv-x="227" unicode="&#xed;"/><glyph d="M66 0h87v299q0 71 38 119 39 47 118 47 50 0 79-29t29-78v-358h87v348q0 85-39 140-39 54-143 54-57 0-101-24-44-23-71-73h-3v84h-81v-132-397zM410 728q-5-15-16-30-12-15-32-15-16 0-33 6-16 7-34 14-18 8-37 15-19 6-39 6-48 0-72-34-23-33-35-79h53q-2 20 15 31 17 12 34 12 14 0 32-6t37-13q18-8 36-14 18-7 31-7 29 0 49 9 19 9 32 23 13 19 21 40t11 42h-53z" unicode="&#xf1;"/><glyph d="M37 264q0-116 65-196 66-80 192-80t191 80q66 80 66 196 0 117-66 197-65 81-191 81t-192-81q-65-80-65-197zM129 264q0 97 48 149 49 52 117 52t116-52q49-52 49-149 0-96-49-148-48-51-116-51t-117 51q-48 52-48 148zM231 602h66q33 37 134 147h-112q-22-37-88-147z" horiz-adv-x="588" unicode="&#xf3;"/><glyph d="M504 529h-87v-299q0-71-39-118t-118-47q-50 0-79 29-28 29-28 77v358h-87v-38-310q0-85 38-139 39-54 144-54 57 0 100 23 44 24 72 73h2v-84h82v529zM222 602h66q33 37 134 147h-112q-22-37-88-147z" unicode="&#xfa;"/><glyph d="M504 529h-87v-299q0-71-39-118t-118-47q-50 0-79 29-28 29-28 77v358h-87v-38-310q0-85 38-139 39-54 144-54 57 0 100 23 44 24 72 73h2v-84h82v529zM335 606h92v107h-92v-107zM142 606h92v107h-92v-107z" unicode="&#xfc;"/><glyph d="M-40 602h79q18 25 72 98 17-24 70-98h86q-26 37-106 147h-95q-27-37-106-147z" horiz-adv-x="227" unicode="&#x2c6;"/><glyph d="M44 678q0 29 20 49 20 21 50 21 29 0 49-21 20-20 20-49t-20-50q-20-20-49-20-30 0-50 20-20 21-20 50zM-2 678q0-48 34-82t82-34q47 0 81 34t34 82-34 82-81 34q-48 0-82-34t-34-82z" horiz-adv-x="227" unicode="&#x2da;"/><glyph d="M239 728q-5-15-16-30-12-15-32-15-16 0-33 6-16 7-34 14-18 8-37 15-19 6-39 6-48 0-72-34-23-33-35-79h53q-2 20 15 31 17 12 34 12 14 0 32-6t37-13q18-8 36-14 18-7 31-7 29 0 49 9 19 9 32 23 13 19 21 40t11 42h-53z" horiz-adv-x="227" unicode="&#x2dc;"/><glyph d="M0 244h512v82h-512v-25-57z" horiz-adv-x="512" unicode="&#x2013;"/><glyph d="M133 244h758v82h-190-568v-82z" horiz-adv-x="1024" unicode="&#x2014;"/><glyph d="M200 581h-61q0 35 13 67 12 32 47 32v51q-59 0-86-45t-27-105v-114h114v114z" horiz-adv-x="285" unicode="&#x2018;"/><glyph d="M85 617h60q0-35-12-67t-47-32v-51q59 0 86 45t27 105v114h-114v-114z" horiz-adv-x="285" unicode="&#x2019;"/><glyph d="M85 0h60q0-35-12-67t-47-32v-52q59 0 86 45t27 106v114h-114v-114z" horiz-adv-x="285" unicode="&#x201a;"/><glyph d="M369 581h-61q0 35 13 67 12 32 47 32v51q-60 0-86-45-27-45-27-105v-114h114v114zM181 581h-60q0 35 12 67 13 32 47 32v51q-59 0-86-45-26-45-26-105v-114h113v114z" horiz-adv-x="436" unicode="&#x201c;"/><glyph d="M255 617h60q0-35-12-67t-47-32v-51q59 0 86 45t27 105v114h-114v-114zM68 617h60q0-35-12-67-13-32-47-32v-51q59 0 85 45 27 45 27 105v114h-113v-114z" horiz-adv-x="436" unicode="&#x201d;"/><glyph d="M68 0h60q0-35-12-67-13-32-47-32v-52q59 0 85 45 27 45 27 106v114h-113v-114zM255 0h60q0-35-12-67t-47-32v-52q59 0 86 45t27 106v114h-114v-114z" horiz-adv-x="436" unicode="&#x201e;"/><glyph d="M114 0h113v114h-113v-114zM455 0h113v114h-113v-114zM796 0h113v114h-113v-114z" horiz-adv-x="1024" unicode="&#x2026;"/><glyph d="M207 117v88q-26 20-103 80 26 20 103 80v88q-39-31-156-123v-90q39-31 156-123z" horiz-adv-x="265" unicode="&#x2039;"/><glyph d="M58 453v-88q26-20 103-80-26-20-103-80v-88q39 30 156 123v90q-39 30-156 123z" horiz-adv-x="265" unicode="&#x203a;"/><glyph d="M571 678q-46 32-92 48t-93 16q-61 0-110-20-49-21-88-63-34-36-57-86t-36-112h-55q-7-16-27-63h75q-1-7-1-15v-17-10q0-6 1-11h-47q-7-16-28-62h79q22-150 95-225 74-74 199-74 44 0 84 11 39 11 74 34v107q-21-19-39-33-17-13-32-21-19-10-41-15-21-5-46-5-81 0-129 56-49 55-66 165h224q6 15 26 62h-255q0 5-1 10v12 15q1 8 1 16h270q7 16 27 63h-289q8 42 22 76t35 61q25 33 57 49 31 17 70 17 37 0 74-18 36-18 72-53 16 28 47 85z" unicode="&#x20ac;"/><glyph d="M399 731h-333v-56h132v-366h69v366h132v56zM949 731h-106l-124-320q-32 80-126 320h-108v-422h70v353h2q35-89 138-353h44q35 88 139 353h2v-353h69v422z" horiz-adv-x="1014" unicode="&#x2122;"/><glyph d="M0 530h530v-530h-530v530z" horiz-adv-x="530" unicode="&#x25fc;"/></font>
</defs>
</svg>
