<svg height="8.687" preserveAspectRatio="xMidYMid" viewBox="0 0 117.031 8.687" width="117.031" xmlns="http://www.w3.org/2000/svg"><path d="m116.567 6.405v-1.183c-.095.19-.217.36-.367.51s-.315.275-.496.376c-.18.1-.372.176-.575.228-.202.052-.404.078-.604.078-.355 0-.687-.065-.996-.195-.308-.13-.575-.307-.8-.531-.225-.225-.401-.486-.529-.783-.128-.298-.191-.617-.191-.957 0-.341.063-.662.191-.962s.304-.562.529-.787c.225-.224.492-.401.8-.531.309-.13.641-.195.996-.195.2 0 .4.026.6.079.2.052.389.129.567.231s.342.226.492.372.275.315.375.508v-2.579h.466v6.321zm-.108-3.246c-.106-.247-.253-.462-.442-.644-.189-.183-.408-.327-.658-.435-.25-.107-.523-.161-.817-.161-.283 0-.55.053-.8.157-.25.105-.468.25-.654.435s-.332.4-.438.644c-.105.244-.158.508-.158.793 0 .279.053.541.158.788.106.247.252.462.438.644.186.183.404.326.654.431.25.104.517.157.8.157.294 0 .567-.053.817-.157.25-.105.469-.248.658-.431.189-.182.336-.397.442-.644.105-.247.158-.509.158-.788 0-.28-.053-.542-.158-.789zm-9.909 1.639c.106.241.25.449.434.623.183.174.4.31.65.408s.527.147.833.147c.472 0 .869-.116 1.192-.349.322-.233.564-.554.725-.964l.425.202c-.217.494-.517.875-.9 1.145-.384.269-.864.404-1.442.404-.394 0-.75-.064-1.067-.191-.316-.127-.584-.3-.804-.519-.219-.219-.389-.477-.508-.775-.12-.297-.179-.619-.179-.965 0-.352.064-.679.191-.982.128-.303.305-.565.53-.787s.493-.397.804-.527.647-.195 1.008-.195c.356 0 .685.058.988.173.302.115.565.277.787.486s.396.457.521.741c.125.286.187.598.187.938v.204h-4.558c.017.281.078.542.183.783zm3.892-1.229c-.022-.242-.087-.466-.196-.67-.108-.204-.248-.38-.421-.526-.172-.147-.375-.26-.608-.341s-.492-.121-.775-.121c-.272 0-.525.043-.758.129-.234.085-.441.201-.621.348-.181.146-.331.32-.45.522-.12.202-.196.422-.229.659zm-6.237 2.761c-.214-.051-.384-.142-.509-.274s-.212-.311-.262-.539c-.05-.227-.075-.517-.075-.871v-2.727h-.867v-.437h.867v-1.145l.458-.303v1.448h1.283v.437h-1.283v2.719c0 .28.018.508.054.682s.102.308.196.404c.094.095.225.158.392.189.166.031.38.046.641.046v.446h-.075c-.333 0-.607-.025-.82-.075zm-3.271-1.108c-.095.19-.217.36-.367.51s-.315.275-.496.376c-.18.1-.372.176-.575.228s-.404.078-.604.078c-.355 0-.687-.065-.996-.195-.308-.13-.575-.307-.8-.531-.225-.225-.401-.486-.529-.783-.128-.298-.192-.617-.192-.957 0-.341.064-.662.192-.962s.304-.562.529-.787c.225-.224.492-.401.8-.531.309-.13.641-.195.996-.195.2 0 .401.026.604.079.203.052.395.13.575.235.181.105.346.232.496.384.15.151.272.323.367.516v-1.205h.466v4.923h-.466zm-.109-2.063c-.105-.247-.252-.462-.441-.644-.189-.183-.409-.327-.659-.435-.25-.107-.522-.161-.816-.161-.284 0-.55.053-.8.157-.25.105-.468.25-.654.435-.187.185-.332.4-.438.644-.105.244-.158.508-.158.793 0 .279.053.541.158.788.106.247.251.462.438.644.186.183.404.326.654.431.25.104.516.157.8.157.294 0 .566-.053.816-.157.25-.105.47-.248.659-.431.189-.182.336-.397.441-.644.106-.247.159-.509.159-.788 0-.28-.053-.542-.159-.789zm-6.233-2.982h.484v6.228h-.484zm-1.966 5.155c-.162.319-.403.579-.725.78-.323.201-.698.302-1.125.302-.339 0-.645-.051-.917-.153s-.503-.249-.692-.442-.333-.426-.433-.698c-.1-.273-.15-.583-.15-.93v-2.709h.483v2.713c0 .269.039.512.117.73.078.217.192.402.342.556s.333.274.55.359c.216.085.461.128.733.128.256 0 .493-.046.713-.136.219-.091.411-.216.575-.376.163-.159.291-.347.383-.564.092-.218.137-.453.137-.706v-2.704h.475v4.923h-.466zm-5.967-1.747c0-.242-.04-.466-.121-.672-.08-.206-.194-.384-.341-.532-.148-.148-.327-.264-.538-.346-.211-.083-.447-.124-.708-.124-.239 0-.464.038-.675.115s-.395.189-.55.334c-.156.146-.278.322-.367.528s-.133.439-.133.697v2.82h-.475v-2.911c0-.236-.039-.452-.117-.647s-.187-.362-.329-.499-.314-.245-.517-.322-.432-.115-.687-.115c-.25 0-.481.042-.692.128-.211.085-.393.205-.546.358-.153.154-.272.34-.358.557s-.129.458-.129.722v2.729h-.475v-4.923h.458v1.067c.156-.324.386-.584.692-.781.305-.196.666-.295 1.083-.295.489 0 .893.115 1.213.344.319.229.543.533.67.911.145-.367.388-.668.73-.902.341-.235.745-.353 1.212-.353.339 0 .643.053.913.157.269.105.497.251.683.438s.329.412.429.673c.1.262.15.553.15.872v2.792h-.475zm-9.5-2.768c-.128 0-.228-.04-.3-.118-.072-.079-.108-.177-.108-.295s.039-.214.116-.29c.078-.076.175-.114.292-.114.128 0 .228.038.3.114s.108.172.108.29-.036.216-.108.295c-.072.078-.172.118-.3.118zm-4.108 2.566c.128.067.273.124.437.17.164.045.335.09.513.133.2.048.398.103.596.165.197.062.372.142.525.238.152.097.277.218.375.364.097.145.146.33.146.556 0 .167-.037.334-.109.501s-.182.317-.329.452c-.147.134-.335.243-.562.327-.228.083-.498.125-.809.125-.416 0-.791-.084-1.125-.251-.333-.166-.597-.381-.791-.644l.375-.289c.161.214.376.394.645.538.27.144.571.217.905.217.222 0 .415-.027.579-.081.163-.054.301-.126.412-.218s.195-.198.25-.319c.056-.121.084-.246.084-.375 0-.156-.041-.284-.121-.383-.081-.1-.188-.183-.321-.251-.133-.067-.285-.123-.454-.169-.17-.046-.343-.09-.521-.133-.2-.049-.396-.103-.588-.162-.191-.059-.362-.136-.512-.23s-.271-.214-.363-.359c-.091-.145-.137-.325-.137-.541 0-.172.039-.336.117-.492.077-.156.19-.293.337-.411.147-.119.324-.213.529-.283.206-.07.436-.105.692-.105.35 0 .672.063.967.188.294.125.538.299.733.521l-.358.281c-.167-.184-.359-.325-.575-.423-.217-.097-.473-.146-.767-.146-.383 0-.679.084-.888.25-.208.167-.312.377-.312.63 0 .145.039.266.117.363.077.097.18.179.308.246zm-6.8 0c.128.067.274.124.437.17.164.045.335.09.513.133.2.048.399.103.596.165s.372.142.525.238c.153.097.278.218.375.364.097.145.146.33.146.556 0 .167-.037.334-.109.501s-.182.317-.329.452c-.147.134-.335.243-.562.327-.228.083-.498.125-.809.125-.416 0-.791-.084-1.125-.251-.333-.166-.597-.381-.791-.644l.375-.289c.161.214.376.394.645.538.27.144.571.217.905.217.222 0 .415-.027.579-.081s.301-.126.412-.218.195-.198.25-.319c.056-.121.084-.246.084-.375 0-.156-.041-.284-.121-.383-.081-.1-.188-.183-.321-.251-.133-.067-.285-.123-.454-.169-.17-.046-.343-.09-.521-.133-.2-.049-.396-.103-.588-.162-.191-.059-.362-.136-.512-.23s-.271-.214-.363-.359c-.091-.145-.137-.325-.137-.541 0-.172.039-.336.117-.492.077-.156.19-.293.337-.411.147-.119.324-.213.529-.283.206-.07.436-.105.692-.105.35 0 .672.063.967.188.294.125.538.299.733.521l-.358.281c-.167-.184-.359-.325-.575-.423-.217-.097-.473-.146-.767-.146-.383 0-.679.084-.888.25-.208.167-.312.377-.312.63 0 .145.039.266.117.363.077.097.18.179.308.246zm-6.408 1.415c.105.241.25.449.433.623s.4.31.65.408.528.147.833.147c.473 0 .87-.116 1.192-.349s.564-.554.725-.964l.425.202c-.217.494-.517.875-.9 1.145-.383.269-.864.404-1.442.404-.394 0-.75-.064-1.066-.191-.317-.127-.585-.3-.804-.519-.22-.219-.389-.477-.509-.775-.119-.297-.179-.619-.179-.965 0-.352.064-.679.192-.982s.304-.565.529-.787.493-.397.804-.527.647-.195 1.008-.195c.356 0 .685.058.988.173s.565.277.787.486c.223.209.396.457.521.741.125.286.188.598.188.938v.204h-4.559c.017.281.078.542.184.783zm3.891-1.229c-.022-.242-.087-.466-.195-.67-.109-.204-.249-.38-.421-.526-.172-.147-.375-.26-.609-.341-.233-.081-.491-.121-.775-.121-.272 0-.525.043-.758.129-.233.085-.44.201-.621.348-.18.146-.33.32-.45.522-.119.202-.196.422-.229.659zm-6.479 4.461c-.214.21-.471.374-.771.49s-.633.175-1 .175c-.3 0-.566-.031-.8-.093-.233-.062-.441-.15-.625-.265-.183-.115-.345-.255-.487-.421-.142-.165-.271-.355-.388-.568l.459-.21c.178.348.411.621.7.82s.669.299 1.141.299c.3 0 .573-.047.817-.141.245-.095.451-.229.621-.404.169-.174.3-.385.392-.632.091-.246.137-.522.137-.827v-1.031c-.094.19-.217.36-.367.51s-.315.275-.495.376c-.181.1-.373.176-.575.228-.203.052-.405.078-.605.078-.355 0-.687-.065-.995-.195-.309-.13-.575-.307-.8-.531-.225-.225-.402-.486-.53-.783-.127-.298-.191-.617-.191-.957 0-.341.064-.662.191-.962.128-.3.305-.562.53-.787.225-.224.491-.401.8-.531.308-.13.64-.195.995-.195.2 0 .402.026.605.079.202.052.394.13.575.235.18.105.345.232.495.384.15.151.273.323.367.516v-1.205h.467v4.761c0 .377-.057.716-.171 1.018s-.278.558-.492.769zm.088-4.871c-.106-.247-.253-.462-.442-.644-.189-.183-.408-.327-.658-.435-.25-.107-.522-.161-.817-.161-.283 0-.55.053-.8.157-.25.105-.468.25-.654.435s-.332.4-.438.644c-.105.244-.158.508-.158.793 0 .279.053.541.158.788.106.247.252.462.438.644.186.183.404.326.654.431.25.104.517.157.8.157.295 0 .567-.053.817-.157.25-.105.469-.248.658-.431.189-.182.336-.397.442-.644.105-.247.158-.509.158-.788 0-.28-.053-.542-.158-.789zm-6.2 2.063c-.095.19-.217.36-.367.51s-.315.275-.496.376c-.18.1-.372.176-.575.228-.202.052-.404.078-.604.078-.355 0-.687-.065-.996-.195-.308-.13-.575-.307-.8-.531-.225-.225-.401-.486-.529-.783-.128-.298-.191-.617-.191-.957 0-.341.063-.662.191-.962s.304-.562.529-.787c.225-.224.492-.401.8-.531.309-.13.641-.195.996-.195.2 0 .402.026.604.079.203.052.395.13.575.235.181.105.346.232.496.384.15.151.272.323.367.516v-1.205h.467v4.923h-.467zm-.108-2.063c-.106-.247-.253-.462-.442-.644-.189-.183-.408-.327-.658-.435-.25-.107-.523-.161-.817-.161-.283 0-.55.053-.8.157-.25.105-.468.25-.654.435s-.332.4-.438.644c-.105.244-.158.508-.158.793 0 .279.053.541.158.788.106.247.252.462.438.644.186.183.404.326.654.431.25.104.517.157.8.157.294 0 .567-.053.817-.157.25-.105.469-.248.658-.431.189-.182.336-.397.442-.644.105-.247.158-.509.158-.788 0-.28-.053-.542-.158-.789zm-6.184.426c0-.242-.04-.466-.121-.672-.08-.206-.194-.384-.341-.532-.148-.148-.327-.264-.538-.346-.211-.083-.447-.124-.708-.124-.239 0-.464.038-.675.115s-.395.189-.55.334c-.156.146-.278.322-.367.528s-.133.439-.133.697v2.82h-.475v-2.911c0-.236-.039-.452-.117-.647s-.187-.362-.329-.499-.314-.245-.517-.322c-.202-.077-.432-.115-.687-.115-.25 0-.481.042-.692.128-.211.085-.393.205-.546.358-.152.154-.272.34-.358.557s-.129.458-.129.722v2.729h-.475v-4.923h.458v1.067c.156-.324.386-.584.692-.781.305-.196.667-.295 1.083-.295.489 0 .893.115 1.213.344.319.229.543.533.671.911.144-.367.387-.668.729-.902.341-.235.746-.353 1.212-.353.339 0 .643.053.913.157.269.105.497.251.683.438s.329.412.429.673c.1.262.15.553.15.872v2.792h-.475zm-9.5-2.768c-.128 0-.228-.04-.3-.118-.072-.079-.108-.177-.108-.295s.039-.214.117-.29c.077-.076.175-.114.291-.114.128 0 .228.038.3.114s.109.172.109.29-.037.216-.109.295c-.072.078-.172.118-.3.118zm-4.391 2.875c0-.269-.041-.512-.121-.73-.081-.217-.196-.402-.346-.556s-.333-.274-.55-.359-.461-.128-.733-.128c-.256 0-.493.046-.713.136-.219.091-.409.216-.571.376-.161.159-.287.347-.379.564-.091.218-.137.453-.137.705v2.705h-.475v-4.923h.458v1.124c.161-.335.406-.607.733-.817.328-.211.709-.316 1.142-.316.328 0 .624.051.888.153.263.102.491.249.683.442s.339.426.442.698c.102.273.154.583.154.93v2.709h-.475zm-9.7 1.106c.105.241.25.449.433.623.184.174.4.31.65.408s.528.147.834.147c.472 0 .869-.116 1.191-.349s.564-.554.725-.964l.425.202c-.216.494-.516.875-.9 1.145-.383.269-.864.404-1.441.404-.395 0-.75-.064-1.067-.191s-.585-.3-.804-.519c-.22-.219-.389-.477-.509-.775-.119-.297-.179-.619-.179-.965 0-.352.064-.679.192-.982s.304-.565.529-.787.493-.397.804-.527.647-.195 1.009-.195c.355 0 .684.058.987.173s.565.277.788.486c.222.209.395.457.52.741.125.286.188.598.188.938v.204h-4.558c.016.281.077.542.183.783zm3.892-1.229c-.023-.242-.088-.466-.196-.67-.109-.204-.249-.38-.421-.526-.172-.147-.375-.26-.608-.341-.234-.081-.492-.121-.775-.121-.273 0-.525.043-.759.129-.233.085-.44.201-.621.348-.18.146-.33.32-.45.522-.119.202-.195.422-.229.659zm-9.992 1.229c.106.241.25.449.433.623.184.174.4.31.65.408s.528.147.834.147c.472 0 .869-.116 1.191-.349.323-.233.564-.554.725-.964l.425.202c-.216.494-.516.875-.9 1.145-.383.269-.864.404-1.441.404-.395 0-.75-.064-1.067-.191s-.585-.3-.804-.519c-.22-.219-.389-.477-.508-.775-.12-.297-.18-.619-.18-.965 0-.352.064-.679.192-.982s.304-.565.529-.787.493-.397.804-.527.648-.195 1.009-.195c.355 0 .684.058.987.173s.565.277.788.486c.222.209.396.457.521.741.125.286.187.598.187.938v.204h-4.558c.016.281.077.542.183.783zm3.892-1.229c-.023-.242-.088-.466-.196-.67s-.249-.38-.421-.526c-.172-.147-.375-.26-.608-.341-.234-.081-.492-.121-.775-.121-.273 0-.525.043-.759.129-.233.085-.44.201-.62.348-.181.146-.331.32-.45.522-.12.202-.196.422-.23.659zm-5.596-1.57c-.114-.047-.249-.071-.404-.071-.434 0-.777.143-1.029.428-.253.286-.38.684-.38 1.195v2.854h-.475v-4.923h.459v.938c.127-.301.314-.533.558-.695s.539-.243.883-.243c.217 0 .402.022.555.066.152.044.304.107.454.19l-.284.458c-.111-.083-.223-.149-.337-.197zm-7.317 3.381c.186.183.406.326.659.431.252.104.526.157.82.157.45 0 .835-.115 1.155-.345.319-.23.557-.527.712-.891l.45.185c-.094.217-.217.417-.367.602-.15.184-.323.343-.52.476-.198.133-.417.236-.659.309-.241.073-.501.11-.779.11-.361 0-.697-.065-1.008-.195s-.581-.306-.809-.527c-.227-.222-.407-.483-.537-.783-.131-.3-.196-.621-.196-.961 0-.352.067-.678.2-.978s.314-.561.542-.783.496-.396.804-.523.64-.191.996-.191c.266 0 .519.036.758.107s.458.172.658.304c.2.131.377.287.53.468.152.181.273.38.362.599l-.442.177c-.161-.373-.404-.668-.729-.884-.325-.217-.704-.325-1.137-.325-.289 0-.56.053-.813.157-.253.105-.471.25-.654.435s-.328.4-.433.644c-.106.244-.159.508-.159.793 0 .279.053.541.159.788.105.247.251.462.437.644zm-4.974-2.783c.141.09.304.168.487.233.183.066.372.132.567.197.211.071.421.148.629.23s.394.187.558.315c.164.129.296.285.396.468s.15.409.15.676c0 .235-.047.456-.142.661-.094.205-.227.384-.4.537-.172.153-.377.274-.616.364-.239.091-.5.136-.784.136-.45 0-.843-.09-1.179-.269s-.618-.42-.846-.724l.4-.301c.195.277.428.488.7.632.273.144.581.216.925.216.206 0 .398-.03.575-.091.178-.06.332-.144.463-.254.13-.109.233-.242.308-.397.075-.156.113-.33.113-.521 0-.202-.043-.373-.129-.512-.087-.14-.202-.259-.346-.357-.145-.098-.31-.182-.496-.25-.186-.069-.379-.135-.579-.201-.211-.066-.418-.139-.621-.222-.203-.081-.385-.183-.546-.303s-.292-.268-.392-.443c-.1-.174-.15-.39-.15-.647 0-.219.048-.421.142-.607s.222-.346.383-.48.352-.239.571-.315c.22-.077.457-.115.713-.115.411 0 .762.076 1.054.229.292.152.537.358.737.618l-.375.285c-.161-.229-.357-.403-.587-.523-.231-.12-.507-.18-.829-.18-.184 0-.356.027-.517.082s-.301.13-.421.225c-.119.096-.212.211-.279.345s-.1.283-.1.447c0 .191.042.352.125.484.083.131.196.241.338.332zm34.42 3.808h-.475v-4.923h.475zm41.807 0h-.475v-4.923h.475z" fill="#fff" fill-rule="evenodd"/></svg>