<svg height="206" viewBox="0 0 264 206" width="264" xmlns="http://www.w3.org/2000/svg"><svg height="10.42" viewBox="-1 -1 7.14 10.42" width="7.14" x="238" y="40.34"><path d="m4.88 3.58-3.3-3.31a.926.926 0 0 0 -1.31 1.31l2.64 2.63-2.64 2.64a.92.92 0 0 0 .65 1.58.91.91 0 0 0 .65-.27l3.3-3.29a.92.92 0 0 0 .27-.66.88.88 0 0 0 -.26-.63z" fill="#3db1e1"/></svg><svg height="31" preserveAspectRatio="xMidYMid" viewBox="-1 -1 31 31" width="31" y="175"><circle cx="14.5" cy="14.5" fill="none" r="13.5" stroke="#3db1e1" stroke-width="2"/></svg><svg height="44.34" viewBox="-1 -1 167.47 44.34" width="167.47" y="71.07"><path d="m12.285 42.293h3.37l12.4-36.577 12.345 36.577h3.37l12.74-41.72h-3.428l-11.028 36.632-12.344-36.633h-3.14l-12.458 36.634-10.626-36.634h-3.486zm70.076-1.237a17.267 17.267 0 0 0 5.515-3.553 16.95 16.95 0 0 0 3.713-5.316 16.48 16.48 0 0 0 0-13.167 17.278 17.278 0 0 0 -3.713-5.343 17.02 17.02 0 0 0 -5.514-3.58 18.346 18.346 0 0 0 -13.54 0 17.33 17.33 0 0 0 -5.542 3.58 16.647 16.647 0 0 0 -3.714 5.343 16.46 16.46 0 0 0 3.714 18.483 18.16 18.16 0 0 0 19.083 3.553zm-12.31-2.8a13.578 13.578 0 0 1 -7.43-7.3 13.817 13.817 0 0 1 0-10.74 14.087 14.087 0 0 1 2.972-4.37 13.58 13.58 0 0 1 4.457-2.953 14.318 14.318 0 0 1 5.54-1.066 14.174 14.174 0 0 1 5.486 1.066 13.575 13.575 0 0 1 4.455 2.956 14.1 14.1 0 0 1 2.972 4.37 13.817 13.817 0 0 1 0 10.74 13.58 13.58 0 0 1 -7.427 7.3 14.174 14.174 0 0 1 -5.485 1.066 14.318 14.318 0 0 1 -5.54-1.07zm31.137 4.038h3.257v-19.384q0-5.2 2.6-8.112a8.99 8.99 0 0 1 7.057-2.91 7.205 7.205 0 0 1 2.772.487 10.956 10.956 0 0 1 2.314 1.338l1.942-3.11a15.227 15.227 0 0 0 -3.114-1.295 13.99 13.99 0 0 0 -3.8-.45 10.788 10.788 0 0 0 -6.056 1.652 10.332 10.332 0 0 0 -3.828 4.722v-6.372h-3.143v33.433zm50.05 0h3.828l-14.34-19.432 13.483-14h-4.17l-19.427 20.23v-29.092h-3.2v42.29h3.2v-9.37l7.772-8.058zm9.37-.743a3.045 3.045 0 0 0 4.114 0 2.833 2.833 0 0 0 .743-2 2.6 2.6 0 0 0 -2.8-2.742 2.764 2.764 0 0 0 -2 .772 2.616 2.616 0 0 0 -.8 1.97 2.825 2.825 0 0 0 .744 2z" fill="#fff" fill-rule="evenodd"/></svg><svg height="59.59" viewBox="-1 -1 125.34 59.59" width="125.34" y="115.41"><path d="m0 42.293h3.313v-13.317h9.318a17.324 17.324 0 0 0 6.257-1.085 14.3 14.3 0 0 0 4.828-3 13.237 13.237 0 0 0 3.085-4.514 15.134 15.134 0 0 0 0-11.26 12.95 12.95 0 0 0 -3.085-4.485 14.556 14.556 0 0 0 -4.828-2.97 17.346 17.346 0 0 0 -6.258-1.09h-12.63v41.72zm12.453-38.693a14.358 14.358 0 0 1 5.028.83 10.855 10.855 0 0 1 3.8 2.343 10.25 10.25 0 0 1 2.4 3.544 11.61 11.61 0 0 1 .83 4.43 11.457 11.457 0 0 1 -.83 4.37 10.227 10.227 0 0 1 -2.4 3.544 11.186 11.186 0 0 1 -3.8 2.373 13.927 13.927 0 0 1 -5.028.857h-9.14v-22.291zm23.427 38.694h3.313v-42.294h-3.313v42.293zm33.05-.47a16.435 16.435 0 0 0 3.943-1.552 15.5 15.5 0 0 0 3.4-2.55 13.106 13.106 0 0 0 2.514-3.465v8.038h3.2v-33.435h-3.2v8.178a13.246 13.246 0 0 0 -2.514-3.5 16.277 16.277 0 0 0 -3.4-2.605 15.73 15.73 0 0 0 -3.942-1.6 16.7 16.7 0 0 0 -4.14-.533 17.55 17.55 0 0 0 -6.83 1.323 17.053 17.053 0 0 0 -5.484 3.607 16.713 16.713 0 0 0 -3.628 5.344 16.337 16.337 0 0 0 -1.317 6.53 16.144 16.144 0 0 0 1.315 6.5 16.78 16.78 0 0 0 3.628 5.316 17.04 17.04 0 0 0 5.485 3.608 17.55 17.55 0 0 0 6.828 1.322 16.826 16.826 0 0 0 4.145-.527zm-9.512-3.568a14.133 14.133 0 0 1 -4.485-2.923 13.5 13.5 0 0 1 -4.085-9.728 13.3 13.3 0 0 1 1.085-5.383 13.864 13.864 0 0 1 7.485-7.323 14.766 14.766 0 0 1 11.084.027 14.928 14.928 0 0 1 4.514 2.95 13.51 13.51 0 0 1 0 19.458 14.42 14.42 0 0 1 -10.113 3.99 14.17 14.17 0 0 1 -5.485-1.067zm37.022 19.354h3.543l21.827-48.75h-3.543l-12.227 28.046-13.084-28.046h-3.656l14.97 31.7zm22.055-16.06a3.043 3.043 0 0 0 4.113 0 2.83 2.83 0 0 0 .743-2 2.606 2.606 0 0 0 -2.8-2.743 2.764 2.764 0 0 0 -2 .772 2.616 2.616 0 0 0 -.8 1.97 2.825 2.825 0 0 0 .745 2z" fill="#fff" fill-rule="evenodd"/></svg><svg height="40.34" viewBox="-1 -1 263.97 40.34" width="263.97"><path d="m13.995 27.53a8.853 8.853 0 0 0 3.155-1.877 8.646 8.646 0 0 0 2.09-3.078 11.038 11.038 0 0 0 .76-4.242v-17.945h-5.17v18.2a4.727 4.727 0 0 1 -.38 1.892 4.6 4.6 0 0 1 -1.044 1.516 5.1 5.1 0 0 1 -1.54 1.01 5.016 5.016 0 0 1 -3.8 0 4.852 4.852 0 0 1 -1.52-1.01 4.49 4.49 0 0 1 -1.006-1.516 4.926 4.926 0 0 1 -.362-1.892v-18.2h-5.17v17.942a11.284 11.284 0 0 0 .74 4.243 8.32 8.32 0 0 0 2.092 3.077 9.04 9.04 0 0 0 3.174 1.878 12 12 0 0 0 3.99.638 12 12 0 0 0 3.99-.636zm10.567.6h5.132v-11.918a5.977 5.977 0 0 1 1.5-4.38 5 5 0 0 1 3.706-1.524 4.678 4.678 0 0 1 3.763 1.467 5.94 5.94 0 0 1 1.254 3.99v12.365h5.207v-12.942a9.567 9.567 0 0 0 -2.338-6.863 8.51 8.51 0 0 0 -6.48-2.462 8.547 8.547 0 0 0 -3.86.842 8.133 8.133 0 0 0 -2.793 2.233v-3.038h-5.09v22.23zm41.375-.712a10.778 10.778 0 0 0 3.5-2.18 10.92 10.92 0 0 0 2.49-3.5 11.162 11.162 0 0 0 .95-4.706 11.45 11.45 0 0 0 -.93-4.743 10.85 10.85 0 0 0 -2.453-3.5 10.518 10.518 0 0 0 -3.5-2.18 11.377 11.377 0 0 0 -4.067-.75 9.534 9.534 0 0 0 -4.162.9 8.427 8.427 0 0 0 -3.06 2.4v-3.266h-5.093v32.452h5.093v-13.257a7.605 7.605 0 0 0 3.08 2.28 10.693 10.693 0 0 0 4.18.8 11.024 11.024 0 0 0 3.97-.75zm-7.47-4.46a6.176 6.176 0 0 1 -2.09-1.393 6.507 6.507 0 0 1 -1.863-4.6 6.425 6.425 0 0 1 1.863-4.55 6.3 6.3 0 0 1 2.09-1.375 6.936 6.936 0 0 1 2.662-.5 6.84 6.84 0 0 1 2.622.5 6.915 6.915 0 0 1 2.13 1.356 6.11 6.11 0 0 1 1.424 2.034 6.282 6.282 0 0 1 .513 2.535 6.4 6.4 0 0 1 -.514 2.552 6.253 6.253 0 0 1 -1.425 2.07 6.75 6.75 0 0 1 -2.128 1.374 6.84 6.84 0 0 1 -2.623.5 6.936 6.936 0 0 1 -2.663-.503zm32.576 4.356a8.37 8.37 0 0 0 3.117-2.343v3.16h5.132v-22.231h-5.132v2.932a8.5 8.5 0 0 0 -3.08-2.173 10.237 10.237 0 0 0 -4.066-.8 11.527 11.527 0 0 0 -4.086.75 10.523 10.523 0 0 0 -6.006 5.678 11.44 11.44 0 0 0 -.93 4.743 11.154 11.154 0 0 0 .95 4.707 10.76 10.76 0 0 0 2.508 3.5 11.164 11.164 0 0 0 7.488 2.93 9.89 9.89 0 0 0 4.104-.853zm-5.91-4.357a6.692 6.692 0 0 1 -2.148-1.375 6.253 6.253 0 0 1 -1.425-2.07 6.4 6.4 0 0 1 -.513-2.55 6.282 6.282 0 0 1 .513-2.536 6.11 6.11 0 0 1 1.425-2.034 6.854 6.854 0 0 1 2.148-1.356 7.28 7.28 0 0 1 5.3 0 6.306 6.306 0 0 1 2.09 1.374 6.617 6.617 0 0 1 1.388 2.053 6.188 6.188 0 0 1 .514 2.5 6.276 6.276 0 0 1 -.513 2.534 6.84 6.84 0 0 1 -1.386 2.07 6.185 6.185 0 0 1 -2.09 1.392 7.292 7.292 0 0 1 -5.302-.003zm18.8 5.173h5.132v-11.856a6.1 6.1 0 0 1 1.16-4.16 4.373 4.373 0 0 1 3.4-1.274 5.562 5.562 0 0 1 1.805.247 5.716 5.716 0 0 1 1.273.627l1.94-4.864a8.042 8.042 0 0 0 -1.73-.684 8.28 8.28 0 0 0 -2.187-.266q-4.143 0-5.7 3.306v-3.306h-5.094v22.23zm31.474-.816a8.37 8.37 0 0 0 3.117-2.343v3.16h5.13v-22.231h-5.13v2.932a8.5 8.5 0 0 0 -3.08-2.173 10.24 10.24 0 0 0 -4.066-.8 11.524 11.524 0 0 0 -4.086.75 10.524 10.524 0 0 0 -6.006 5.678 11.444 11.444 0 0 0 -.93 4.743 11.15 11.15 0 0 0 .95 4.707 10.752 10.752 0 0 0 2.508 3.5 11.164 11.164 0 0 0 7.488 2.93 9.89 9.89 0 0 0 4.1-.853zm-5.91-4.357a6.686 6.686 0 0 1 -2.148-1.375 6.24 6.24 0 0 1 -1.427-2.07 6.4 6.4 0 0 1 -.513-2.55 6.284 6.284 0 0 1 .513-2.536 6.1 6.1 0 0 1 1.426-2.034 6.847 6.847 0 0 1 2.146-1.356 7.28 7.28 0 0 1 5.3 0 6.3 6.3 0 0 1 2.09 1.374 6.6 6.6 0 0 1 1.388 2.053 6.188 6.188 0 0 1 .513 2.5 6.276 6.276 0 0 1 -.513 2.534 6.824 6.824 0 0 1 -1.388 2.07 6.18 6.18 0 0 1 -2.09 1.392 7.294 7.294 0 0 1 -5.306-.003zm18.603 5.173h5.17v-28.12h-5.17zm9.844 0h5.17v-28.12h-5.17zm27.007-1.615a11.515 11.515 0 0 0 4.048-4.35l-4.218-2.433a6.5 6.5 0 0 1 -6.158 3.914 6.963 6.963 0 0 1 -4.523-1.444 6.6 6.6 0 0 1 -2.318-3.8h18.093v-1.814a10.577 10.577 0 0 0 -.855-4.275 10.336 10.336 0 0 0 -2.376-3.4 10.73 10.73 0 0 0 -3.63-2.244 12.775 12.775 0 0 0 -4.58-.8 11.784 11.784 0 0 0 -8.21 3.26 10.978 10.978 0 0 0 -3.345 7.947 11.08 11.08 0 0 0 .854 4.34 10.638 10.638 0 0 0 2.4 3.535 11.107 11.107 0 0 0 3.706 2.363 12.88 12.88 0 0 0 4.79.86 11.572 11.572 0 0 0 6.317-1.66zm-2.49-15.184a4.718 4.718 0 0 1 2.2 2.778h-12.62a5.6 5.6 0 0 1 2.375-2.7 7.6 7.6 0 0 1 4.01-1.024 7.926 7.926 0 0 1 4.03.947zm11.213 16.8h5.17v-28.121h-5.17v28.12zm27.007-1.614a11.515 11.515 0 0 0 4.048-4.35l-4.218-2.433a6.5 6.5 0 0 1 -6.158 3.914 6.96 6.96 0 0 1 -4.523-1.444 6.6 6.6 0 0 1 -2.318-3.8h18.093v-1.815a10.577 10.577 0 0 0 -.855-4.275 10.336 10.336 0 0 0 -2.376-3.4 10.73 10.73 0 0 0 -3.63-2.244 12.775 12.775 0 0 0 -4.58-.8 11.784 11.784 0 0 0 -8.21 3.26 10.978 10.978 0 0 0 -3.345 7.947 11.08 11.08 0 0 0 .854 4.34 10.638 10.638 0 0 0 2.4 3.535 11.107 11.107 0 0 0 3.706 2.363 12.88 12.88 0 0 0 4.79.86 11.572 11.572 0 0 0 6.317-1.66zm-2.49-15.184a4.718 4.718 0 0 1 2.205 2.777h-12.626a5.6 5.6 0 0 1 2.376-2.7 7.6 7.6 0 0 1 4.01-1.025 7.928 7.928 0 0 1 4.03.946zm25.544 15.983a8.375 8.375 0 0 0 3.116-2.343v3.16h5.132v-28.123h-5.173v8.93a8.34 8.34 0 0 0 -3.078-2.262 9.933 9.933 0 0 0 -4.03-.817 11.528 11.528 0 0 0 -4.086.75 10.524 10.524 0 0 0 -6.006 5.675 11.444 11.444 0 0 0 -.93 4.743 11.165 11.165 0 0 0 .95 4.707 10.78 10.78 0 0 0 2.508 3.5 11.164 11.164 0 0 0 7.488 2.93 9.9 9.9 0 0 0 4.103-.853zm-5.91-4.357a6.69 6.69 0 0 1 -2.15-1.375 6.253 6.253 0 0 1 -1.424-2.07 6.4 6.4 0 0 1 -.513-2.55 6.284 6.284 0 0 1 .513-2.536 6.11 6.11 0 0 1 1.425-2.034 6.852 6.852 0 0 1 2.148-1.356 7.278 7.278 0 0 1 5.3 0 6.306 6.306 0 0 1 2.09 1.374 6.6 6.6 0 0 1 1.388 2.054 6.188 6.188 0 0 1 .514 2.5 6.276 6.276 0 0 1 -.514 2.534 6.82 6.82 0 0 1 -1.387 2.07 6.185 6.185 0 0 1 -2.09 1.392 7.29 7.29 0 0 1 -5.307-.003zm18.776 4.356a2.98 2.98 0 0 0 2.262.855 2.91 2.91 0 0 0 3.117-3.08 3.136 3.136 0 0 0 -.818-2.26 2.98 2.98 0 0 0 -2.26-.855 3.042 3.042 0 0 0 -2.282.855 3.454 3.454 0 0 0 -.025 4.483z" fill="#fff" fill-rule="evenodd"/></svg><svg height="12.7" viewBox="-1 -1 72 12.7" width="72" x="125.34" y="160.32"><path d="m57.81.31.13 7.86h-.05l-2.3-7.86h-3.72v9.9h2.46l-.13-8.13h.05l2.47 8.13h3.56v-9.9zm-47.1 0-1.85 10.01h2.7l1.37-9.08h.05l1.34 9.08h2.69l-1.85-10.01zm15.12 0-1.24 7.65h-.05l-1.24-7.65h-4.07l-.23 10.01h2.5l.07-8.99h.06l1.67 8.99h2.54l1.66-8.99h.06l.06 8.99h2.51l-.22-10.01zm-21.18 7.18a1.31 1.31 0 0 1 0 .75.87.87 0 0 1 -1 .67.9.9 0 0 1 -1-.91v-1h-2.65v.77c0 2.23 1.75 2.9 3.64 2.9s3.3-.61 3.54-2.28a4.94 4.94 0 0 0 0-1.65c-.42-2.09-4.22-2.71-4.5-3.89a1.24 1.24 0 0 1 0-.52.82.82 0 0 1 .92-.68.85.85 0 0 1 .93.9v.65h2.49v-.66c0-2.2-2-2.52-3.37-2.52-1.78 0-3.23.59-3.49 2.21a3.31 3.31 0 0 0 0 1.36c.43 2 4 2.63 4.5 3.92m32.52-.04a1.36 1.36 0 0 1 0 .74.86.86 0 0 1 -1 .66.89.89 0 0 1 -1-.9v-1h-2.6v.77c0 2.21 1.74 2.87 3.6 2.87s3.27-.6 3.5-2.26a4.89 4.89 0 0 0 0-1.63c-.42-2.07-4.18-2.68-4.45-3.85a1.2 1.2 0 0 1 0-.51.81.81 0 0 1 .9-.67.84.84 0 0 1 .92.88v.65h2.47v-.68c0-2.17-1.94-2.49-3.34-2.49-1.76 0-3.2.57-3.46 2.19a3.37 3.37 0 0 0 0 1.34c.43 2 3.95 2.6 4.46 3.88m8.39 1.35a.89.89 0 0 0 1-.73 1.93 1.93 0 0 0 0-.37v-7.41h2.53v7.83c-.18 1.87-1.65 2.47-3.49 2.47s-3.31-.6-3.49-2.47v-7.83h2.53v7.41a2.12 2.12 0 0 0 0 .37.9.9 0 0 0 1 .73m20.79-.1a.92.92 0 0 0 1-.73 1.92 1.92 0 0 0 0-.37v-1.46h-1v-1.46h3.54v3.34c-.18 1.82-1.76 2.51-3.53 2.51s-3.35-.66-3.52-2.48v-4.89a6.29 6.29 0 0 1 0-.65c.23-1.88 1.75-2.48 3.52-2.48s3.33.59 3.51 2.5a6 6 0 0 1 0 .65v.35h-2.5v-.6a2.31 2.31 0 0 0 0-.38.91.91 0 0 0 -1-.72.92.92 0 0 0 -1 .72 2.17 2.17 0 0 0 0 .47v4.57a2.06 2.06 0 0 0 0 .37.93.93 0 0 0 1 .73" fill="#fff"/></svg><svg height="40.28" viewBox="-1 -1 82.91 40.28" width="82.91" x="167.47" y="71.07"><path d="m-.013 28.11h2.205v-8.854h6.2a11.516 11.516 0 0 0 4.162-.722 9.5 9.5 0 0 0 3.212-2 8.8 8.8 0 0 0 2.053-3 10.063 10.063 0 0 0 0-7.486 8.62 8.62 0 0 0 -2.054-2.983 9.686 9.686 0 0 0 -3.212-1.976 11.538 11.538 0 0 0 -4.161-.723h-8.4v27.74zm8.287-25.726a9.563 9.563 0 0 1 3.345.55 7.227 7.227 0 0 1 2.526 1.56 6.83 6.83 0 0 1 1.6 2.355 7.724 7.724 0 0 1 .55 2.944 7.617 7.617 0 0 1 -.55 2.907 6.812 6.812 0 0 1 -1.6 2.357 7.433 7.433 0 0 1 -2.527 1.577 9.268 9.268 0 0 1 -3.346.57h-6.08v-14.82zm14.444 25.726h2.2v-28.12h-2.2zm20.848-.312a10.92 10.92 0 0 0 2.623-1.032 10.312 10.312 0 0 0 2.26-1.7 8.678 8.678 0 0 0 1.673-2.3v5.344h2.13v-22.23h-2.13v5.44a8.785 8.785 0 0 0 -1.672-2.328 10.812 10.812 0 0 0 -2.26-1.733 10.45 10.45 0 0 0 -2.624-1.063 11.064 11.064 0 0 0 -2.756-.355 11.69 11.69 0 0 0 -4.542.88 11.34 11.34 0 0 0 -3.65 2.4 11.125 11.125 0 0 0 -2.413 3.553 10.865 10.865 0 0 0 -.874 4.34 10.736 10.736 0 0 0 .875 4.323 11.165 11.165 0 0 0 2.414 3.534 11.346 11.346 0 0 0 3.648 2.4 11.69 11.69 0 0 0 4.542.878 11.2 11.2 0 0 0 2.756-.352zm-6.33-2.372a9.4 9.4 0 0 1 -2.982-1.944 8.973 8.973 0 0 1 -2.718-6.468 8.832 8.832 0 0 1 .722-3.58 9.225 9.225 0 0 1 4.98-4.87 9.828 9.828 0 0 1 7.374.02 9.923 9.923 0 0 1 3 1.96 8.98 8.98 0 0 1 0 12.938 9.583 9.583 0 0 1 -6.728 2.652 9.43 9.43 0 0 1 -3.647-.708zm23.494 12.868h2.357l14.518-32.414h-2.357l-8.134 18.65-8.704-18.65h-2.433l9.96 21.08zm16.95-10.678a2.026 2.026 0 0 0 2.738 0 1.88 1.88 0 0 0 .494-1.33 1.732 1.732 0 0 0 -1.863-1.824 1.84 1.84 0 0 0 -1.33.513 1.74 1.74 0 0 0 -.533 1.31 1.875 1.875 0 0 0 .494 1.33z" fill="#fff" fill-rule="evenodd"/></svg><svg fill="#fff" height="30.73" viewBox="-1 -1 238 30.73" width="238" y="40.34"><path d="m32.42 22.48a7.19 7.19 0 0 0 5.69-2.67v2.3h4v-17.5h-4v2.06a7.26 7.26 0 0 0 -5.63-2.46c-4.43 0-8.68 3.32-8.68 9.13a8.77 8.77 0 0 0 8.62 9.1m27.29 0a7.19 7.19 0 0 0 5.69-2.67v2.3h4v-17.5h-4v2.1a7.26 7.26 0 0 0 -5.63-2.46c-4.43 0-8.68 3.32-8.68 9.13a8.77 8.77 0 0 0 8.62 9.1m-48.37 0c6.53 0 10.68-5.05 10.68-11v-1.57h-11.33v3.89h7a6.19 6.19 0 0 1 -6.32 4.74 7.275 7.275 0 0 1 -.15-14.55 6.76 6.76 0 0 1 6.32 3.8l3.59-2.15a11.15 11.15 0 0 0 -9.94-5.6 11.225 11.225 0 1 0 .18 22.45m59.2-.33h4.94l4.16-5.83 4.28 5.83h4.94l-6.7-8.89 6.28-8.61h-4.79l-4 5.54-4-5.54h-4.94l6.34 8.58zm-37.48-3.35a5.42 5.42 0 1 1 5.24-5.45 5.3 5.3 0 0 1 -5.24 5.45m27.3 0a5.42 5.42 0 1 1 5.24-5.45 5.3 5.3 0 0 1 -5.24 5.45m-15.44 3.35h4.05v-22.1h-4.07v22.1zm53.14-5.72-4.88-11.8h-4.32l7.19 16.59-3.14 7.54h4.16l9.85-24.13h-4.25zm67.22-16.07h7.45a7.76 7.76 0 1 1 0 15.52h-3.37v6.23h-4.05v-21.75zm4.05 3.75v8h3.1a4 4 0 1 0 0-8zm13.18.59h4v2.59a4.45 4.45 0 0 1 4.46-2.59 6.15 6.15 0 0 1 3.07.74l-1.52 3.81a4.08 4.08 0 0 0 -2.41-.69c-2.32 0-3.57 1.25-3.57 4.26v9.3h-4v-17.42zm11.69 8.71a9 9 0 1 1 9 9.06 9 9 0 0 1 -9-9.06zm14.09 0a5.07 5.07 0 1 0 -5.06 5.27 5.17 5.17 0 0 0 5.06-5.27zm11.68 5.09 3.69-2.92a5.49 5.49 0 0 0 4.77 3 3 3 0 0 0 3.31-2.92c0-1.85-2.21-2.41-4.53-3.13-2.92-.92-6.17-2.06-6.17-6.2 0-3.49 3-6.23 7.21-6.23a9.3 9.3 0 0 1 7.3 3.16l-3.34 2.53a4.46 4.46 0 0 0 -3.93-2.09c-2 0-3 1.07-3 2.47 0 1.73 2.09 2.29 4.44 3.07 2.95 1 6.29 2.26 6.29 6.44 0 3.43-2.74 6.76-7.51 6.76a10.7 10.7 0 0 1 -8.53-3.94zm-103.06-14.23h-5.81v-3.87h15.69v3.87h-5.82v17.87h-4.05v-17.87z"/><path d="m124.63 13.41c0-5.78 4.23-9.09 8.64-9.09a7.3 7.3 0 0 1 5.6 2.44v-2.09h4v17.42h-4v-2.26a7.22 7.22 0 0 1 -5.66 2.62 8.72 8.72 0 0 1 -8.58-9.04zm14.44-.06a5.24 5.24 0 1 0 -5.21 5.42 5.23 5.23 0 0 0 5.22-5.42zm10.11 6.49v2.26h-4v-22h4v6.82a7.17 7.17 0 0 1 5.63-2.56c4.38 0 8.58 3.31 8.58 9.09a8.68 8.68 0 0 1 -8.52 9.05 7.13 7.13 0 0 1 -5.69-2.66zm10.28-6.49a5.22 5.22 0 1 0 -5.24 5.42 5.24 5.24 0 0 0 5.24-5.42z"/></svg><svg height="14.75" viewBox="-1 -1 106.75 14.75" width="106.75" x="125.34" y="145.57"><path d="m.125 12.724h7.458v-1.5h-5.873a1.81 1.81 0 0 1 .223-.883 3.35 3.35 0 0 1 .6-.78 7.08 7.08 0 0 1 .864-.718q.488-.347 1-.694.56-.38 1.112-.79a7.52 7.52 0 0 0 .99-.875 4.136 4.136 0 0 0 .713-1.017 2.747 2.747 0 0 0 .272-1.23 2.985 2.985 0 0 0 -.264-1.247 3.056 3.056 0 0 0 -.743-1.02 3.536 3.536 0 0 0 -1.168-.685 4.493 4.493 0 0 0 -1.553-.253 3.818 3.818 0 0 0 -2.29.69 4.52 4.52 0 0 0 -1.47 1.79l1.343.683a3.69 3.69 0 0 1 .96-1.3 2.177 2.177 0 0 1 1.456-.5 2.247 2.247 0 0 1 1.576.52 1.72 1.72 0 0 1 .569 1.328 1.56 1.56 0 0 1 -.216.8 3.38 3.38 0 0 1 -.584.725 7.344 7.344 0 0 1 -.832.687l-.976.694q-.576.395-1.144.82a7.1 7.1 0 0 0 -1.016.924 4.537 4.537 0 0 0 -.728 1.08 2.913 2.913 0 0 0 -.28 1.28v1.482zm9.587-3.376h5.922v-1.328h-5.924v1.328zm8.307 3.376h1.536v-9.362h-1.538v9.36zm-.034-10.856a1.062 1.062 0 0 0 .8.3 1.01 1.01 0 0 0 1.1-1.088 1.066 1.066 0 0 0 -.288-.776 1.088 1.088 0 0 0 -.816-.3 1.072 1.072 0 0 0 -.792.3 1.05 1.05 0 0 0 -.3.776 1.086 1.086 0 0 0 .296.788zm4.257 10.856h1.52v-5.072a3.154 3.154 0 0 1 .216-1.182 2.8 2.8 0 0 1 .6-.932 2.722 2.722 0 0 1 .91-.61 2.937 2.937 0 0 1 1.137-.22 2.583 2.583 0 0 1 2.05.783 3.064 3.064 0 0 1 .687 2.1v5.136h1.538v-5.215a5.08 5.08 0 0 0 -.28-1.743 3.745 3.745 0 0 0 -.792-1.312 3.336 3.336 0 0 0 -1.256-.825 4.643 4.643 0 0 0 -1.657-.283 3.7 3.7 0 0 0 -1.873.468 3.63 3.63 0 0 0 -1.3 1.236v-1.691h-1.5v9.36zm11.028-3.376h5.922v-1.328h-5.922zm11.186 3.376v-11.68h-3.44v1.456h1.9v10.224zm10.547 0h1.537v-10.224h3.393v-1.456h-8.323v1.456h3.394v10.224zm11.61-.442a3.718 3.718 0 0 0 1.513-1.295v1.737h1.5v-9.362h-1.5v1.788a3.778 3.778 0 0 0 -1.5-1.332 4.294 4.294 0 0 0 -1.937-.472 4.91 4.91 0 0 0 -1.866.355 4.69 4.69 0 0 0 -1.52.988 4.6 4.6 0 0 0 -1.016 1.488 4.7 4.7 0 0 0 -.368 1.874 4.623 4.623 0 0 0 1.4 3.354 4.74 4.74 0 0 0 1.52.98 4.868 4.868 0 0 0 1.85.354 4.4 4.4 0 0 0 1.926-.456zm-3.1-1.208a3.432 3.432 0 0 1 -1.07-.7 3.256 3.256 0 0 1 -.985-2.34 3.15 3.15 0 0 1 .264-1.282 3.327 3.327 0 0 1 1.792-1.754 3.383 3.383 0 0 1 1.32-.26 3.485 3.485 0 0 1 1.344.26 3.307 3.307 0 0 1 1.8 1.754 3.15 3.15 0 0 1 .264 1.283 3.256 3.256 0 0 1 -.984 2.34 3.41 3.41 0 0 1 -1.08.7 3.485 3.485 0 0 1 -1.344.257 3.382 3.382 0 0 1 -1.323-.258zm15.6 1.312a4.763 4.763 0 0 0 1.514-.98 4.623 4.623 0 0 0 1.4-3.354 4.7 4.7 0 0 0 -.37-1.874 4.6 4.6 0 0 0 -1.017-1.488 4.714 4.714 0 0 0 -1.513-.987 4.892 4.892 0 0 0 -1.873-.355 4.244 4.244 0 0 0 -1.93.472 3.788 3.788 0 0 0 -1.5 1.332v-4.268h-1.487v11.84h1.472v-1.722a3.655 3.655 0 0 0 1.51 1.288 4.506 4.506 0 0 0 1.946.45 4.81 4.81 0 0 0 1.84-.354zm-3.344-1.312a3.41 3.41 0 0 1 -1.08-.7 3.12 3.12 0 0 1 -.713-1.048 3.287 3.287 0 0 1 -.256-1.29 3.242 3.242 0 0 1 .97-2.332 3.344 3.344 0 0 1 1.08-.706 3.527 3.527 0 0 1 1.36-.26 3.4 3.4 0 0 1 2.392.966 3.242 3.242 0 0 1 .968 2.33 3.29 3.29 0 0 1 -.256 1.292 3.122 3.122 0 0 1 -.712 1.048 3.435 3.435 0 0 1 -1.072.7 3.385 3.385 0 0 1 -1.32.258 3.527 3.527 0 0 1 -1.368-.258zm8.577 1.65h1.537v-11.84h-1.543v11.84zm11.507-.688a4.97 4.97 0 0 0 1.728-1.952l-1.3-.688a3.426 3.426 0 0 1 -1.208 1.448 3.33 3.33 0 0 1 -1.913.536 3.82 3.82 0 0 1 -1.3-.216 3.255 3.255 0 0 1 -1.056-.616 3.172 3.172 0 0 1 -.736-.944 3.532 3.532 0 0 1 -.36-1.216h8.178v-.6a4.275 4.275 0 0 0 -1.376-3.208 4.478 4.478 0 0 0 -1.52-.912 5.52 5.52 0 0 0 -1.905-.322 5.112 5.112 0 0 0 -1.937.363 4.57 4.57 0 0 0 -2.56 2.513 4.956 4.956 0 0 0 -.016 3.71 4.32 4.32 0 0 0 1 1.47 4.642 4.642 0 0 0 1.56.98 5.582 5.582 0 0 0 2.033.355 4.847 4.847 0 0 0 2.683-.702zm-.576-6.71a2.64 2.64 0 0 1 1.056 1.7h-6.546a2.9 2.9 0 0 1 .424-.93 2.946 2.946 0 0 1 .728-.736 3.585 3.585 0 0 1 .977-.48 3.81 3.81 0 0 1 1.168-.173 3.636 3.636 0 0 1 2.187.62zm4.145-.586h1.632v4.368a7.984 7.984 0 0 0 .16 1.752 2.357 2.357 0 0 0 .552 1.112 2.13 2.13 0 0 0 1.065.584 7.15 7.15 0 0 0 1.7.168h.224v-1.44a6.3 6.3 0 0 1 -1.12-.08 1.27 1.27 0 0 1 -.672-.312 1.194 1.194 0 0 1 -.32-.664 6.41 6.41 0 0 1 -.08-1.136v-4.352h2.192v-1.378h-2.2v-2.816l-1.5 1.04v1.776h-1.632v1.376z" fill="#3db1e1" fill-rule="evenodd"/></svg><svg height="30.16" viewBox="-1 -1 107.53 30.16" width="107.53" x="125.34" y="115.41"><path d="m8.186 28.11h2.243l8.25-24.32 8.21 24.32h2.24l8.481-27.74h-2.282l-7.338 24.358-8.21-24.358h-2.09l-8.288 24.358-7.069-24.358h-2.32zm45.48-.822a11.482 11.482 0 0 0 3.668-2.363 11.256 11.256 0 0 0 2.47-3.534 10.956 10.956 0 0 0 0-8.753 11.478 11.478 0 0 0 -2.47-3.553 11.327 11.327 0 0 0 -3.668-2.38 12.213 12.213 0 0 0 -9.01 0 11.54 11.54 0 0 0 -3.686 2.38 11.053 11.053 0 0 0 -2.47 3.553 10.937 10.937 0 0 0 2.47 12.288 11.7 11.7 0 0 0 3.687 2.363 12.226 12.226 0 0 0 9.01 0zm-8.19-1.862a9.034 9.034 0 0 1 -4.942-4.85 9.185 9.185 0 0 1 0-7.14 9.377 9.377 0 0 1 1.977-2.908 9.045 9.045 0 0 1 2.966-1.963 9.545 9.545 0 0 1 3.687-.71 9.447 9.447 0 0 1 3.65.71 9.044 9.044 0 0 1 2.968 1.963 9.385 9.385 0 0 1 1.978 2.907 9.185 9.185 0 0 1 0 7.14 9.034 9.034 0 0 1 -4.94 4.85 9.428 9.428 0 0 1 -3.65.71 9.526 9.526 0 0 1 -3.693-.71zm19.574 2.684h2.168v-12.888a7.81 7.81 0 0 1 1.73-5.393 5.982 5.982 0 0 1 4.694-1.936 4.786 4.786 0 0 1 1.844.324 7.232 7.232 0 0 1 1.54.89l1.29-2.07a10.1 10.1 0 0 0 -2.07-.86 9.3 9.3 0 0 0 -2.53-.3 7.184 7.184 0 0 0 -4.028 1.1 6.873 6.873 0 0 0 -2.547 3.14v-4.237h-2.09v22.23zm32.158 0h2.547l-9.54-12.92 8.97-9.31h-2.775l-12.924 13.452v-19.342h-2.128v28.12h2.13v-6.232l5.168-5.358zm5.093-.494a2.026 2.026 0 0 0 2.738 0 1.88 1.88 0 0 0 .494-1.33 1.732 1.732 0 0 0 -1.862-1.824 1.843 1.843 0 0 0 -1.33.513 1.74 1.74 0 0 0 -.533 1.31 1.88 1.88 0 0 0 .494 1.33z" fill="#fff" fill-rule="evenodd"/></svg></svg>