<svg enable-background="new 0 0 400 150" height="150" viewBox="0 0 400 150" width="400" xmlns="http://www.w3.org/2000/svg"><g fill="#fff"><path d="m141.313 61.647h4.148c.609 0 1.153.085 1.632.254s.885.409 1.218.718c.334.31.59.68.769 1.11s.268.906.268 1.429v.029c0 .59-.106 1.107-.319 1.552s-.505.817-.878 1.117c-.372.3-.807.525-1.305.674-.498.15-1.032.225-1.602.225h-1.697v3.045h-2.233v-10.153zm4.003 5.12c.561 0 .996-.147 1.305-.442s.464-.66.464-1.095v-.029c0-.503-.162-.885-.486-1.146s-.766-.391-1.327-.391h-1.726v3.104h1.77z"/><path d="m151.727 61.647h4.641c1.286 0 2.272.343 2.959 1.03.58.58.87 1.354.87 2.321v.029c0 .822-.201 1.492-.602 2.009-.401.518-.926.897-1.574 1.139l2.48 3.626h-2.611l-2.176-3.249h-.029-1.726v3.248h-2.233v-10.153zm4.496 4.931c.551 0 .974-.13 1.269-.392.295-.261.442-.609.442-1.044v-.029c0-.483-.155-.846-.464-1.088-.31-.242-.74-.362-1.291-.362h-2.219v2.915z"/><path d="m167.87 71.974c-.783 0-1.504-.138-2.161-.413-.658-.275-1.226-.648-1.704-1.117-.479-.469-.851-1.02-1.117-1.653s-.399-1.313-.399-2.038v-.029c0-.725.135-1.405.406-2.038.27-.633.645-1.189 1.124-1.668s1.049-.856 1.711-1.131c.662-.276 1.385-.414 2.168-.414s1.503.138 2.161.414c.657.275 1.226.648 1.704 1.117.479.469.851 1.02 1.117 1.654.266.633.399 1.313.399 2.038v.029c0 .725-.136 1.405-.406 2.038-.271.633-.646 1.19-1.124 1.668-.479.479-1.049.856-1.711 1.131-.663.274-1.385.412-2.168.412zm.029-2.06c.445 0 .856-.082 1.233-.247.377-.164.698-.391.964-.681s.474-.626.624-1.008.225-.791.225-1.226v-.029c0-.435-.075-.846-.225-1.233-.15-.386-.362-.725-.638-1.015s-.602-.52-.979-.689-.788-.254-1.233-.254c-.455 0-.868.082-1.24.247-.373.165-.691.392-.957.682s-.474.626-.624 1.008-.225.79-.225 1.225v.029c0 .435.075.846.225 1.233s.362.725.638 1.015.6.52.972.689c.372.17.785.254 1.24.254z"/><path d="m175.992 61.647h3.959c.793 0 1.52.128 2.183.384.662.256 1.233.611 1.711 1.066.479.455.848.989 1.11 1.603.261.614.392 1.279.392 1.994v.029c0 .715-.131 1.383-.392 2.001-.261.619-.631 1.155-1.11 1.61-.479.454-1.049.812-1.711 1.073-.663.261-1.39.392-2.183.392h-3.959zm3.959 8.137c.454 0 .87-.072 1.247-.217s.698-.353.965-.624c.266-.271.474-.59.624-.958.15-.367.225-.778.225-1.233v-.029c0-.445-.075-.856-.225-1.233s-.358-.701-.624-.971c-.266-.271-.587-.481-.965-.631s-.793-.225-1.247-.225h-1.726v6.12h1.726z"/><path d="m192.294 71.959c-1.363 0-2.437-.377-3.22-1.131s-1.175-1.88-1.175-3.379v-5.801h2.233v5.743c0 .832.193 1.458.58 1.878.387.421.923.631 1.61.631.686 0 1.223-.203 1.61-.609s.58-1.015.58-1.828v-5.816h2.234v5.729c0 .774-.104 1.446-.312 2.016-.208.571-.505 1.047-.892 1.429s-.856.667-1.407.856c-.55.188-1.164.282-1.841.282z"/><path d="m202.055 71.945c-.793 0-1.458-.15-1.994-.45-.537-.299-.979-.657-1.327-1.073l1.407-1.567c.29.319.583.568.878.747s.621.268.979.268c.425 0 .758-.133 1-.399.241-.266.362-.694.362-1.284v-6.541h2.292v6.643c0 .609-.083 1.136-.247 1.581-.165.445-.401.822-.71 1.132-.31.31-.689.544-1.139.703-.45.16-.95.24-1.501.24z"/><path d="m213.585 71.974c-.783 0-1.504-.138-2.161-.413s-1.226-.648-1.704-1.117c-.479-.469-.851-1.02-1.117-1.653s-.399-1.313-.399-2.038v-.029c0-.725.136-1.405.406-2.038.271-.633.646-1.189 1.124-1.668.479-.479 1.049-.856 1.711-1.131.662-.276 1.386-.414 2.168-.414.783 0 1.503.138 2.161.414.657.275 1.226.648 1.704 1.117.479.469.85 1.02 1.116 1.654.266.633.399 1.313.399 2.038v.029c0 .725-.136 1.405-.406 2.038-.271.633-.646 1.19-1.124 1.668-.479.479-1.049.856-1.711 1.131-.661.274-1.383.412-2.167.412zm.029-2.06c.445 0 .856-.082 1.233-.247.377-.164.698-.391.964-.681s.473-.626.623-1.008.225-.791.225-1.226v-.029c0-.435-.075-.846-.225-1.233-.15-.386-.362-.725-.638-1.015s-.602-.52-.979-.689-.789-.254-1.233-.254c-.455 0-.868.082-1.24.247s-.691.392-.957.682-.474.626-.624 1.008-.225.79-.225 1.225v.029c0 .435.074.846.225 1.233.15.387.363.725.639 1.015s.6.52.971.689c.374.17.787.254 1.241.254z"/><path d="m246.678 37.824h7.644v1.987h-5.439v2.06h4.786v1.987h-4.786v2.132h5.511v1.987h-7.716z"/><path d="m257.121 37.824h2.233v8.136h5.062v2.016h-7.295z"/><path d="m297.29 71.169h7.643v1.987h-5.439v2.06h4.786v1.987h-4.786v2.132h5.511v1.988h-7.716v-10.154z"/><path d="m306.862 71.169h2.465l2.654 7.15 2.655-7.15h2.408l-4.105 10.225h-1.972z"/><path d="m319.335 71.169h7.643v1.987h-5.439v2.06h4.786v1.987h-4.786v2.132h5.511v1.988h-7.716v-10.154z"/><path d="m329.778 71.169h2.06l4.758 6.251v-6.251h2.204v10.152h-1.9l-4.916-6.454v6.454h-2.205v-10.152z"/><path d="m344.325 73.229h-3.089v-2.06h8.412v2.06h-3.089v8.093h-2.233v-8.093z"/><path d="m357.016 81.496c-.783 0-1.504-.138-2.161-.413-.658-.275-1.226-.648-1.704-1.117-.479-.469-.852-1.02-1.117-1.653-.266-.634-.399-1.313-.399-2.038v-.029c0-.725.136-1.405.406-2.038.271-.633.645-1.189 1.124-1.668s1.049-.856 1.711-1.131c.662-.276 1.386-.414 2.169-.414s1.503.138 2.161.414c.657.275 1.226.648 1.704 1.117.479.469.851 1.02 1.117 1.654.266.633.399 1.313.399 2.038v.029c0 .725-.135 1.405-.406 2.038s-.646 1.19-1.124 1.668c-.479.479-1.05.856-1.711 1.131-.664.274-1.386.412-2.169.412zm.029-2.06c.445 0 .856-.082 1.233-.246s.698-.392.964-.682.474-.626.623-1.008c.15-.382.225-.79.225-1.226v-.029c0-.435-.075-.846-.225-1.233-.15-.386-.362-.725-.637-1.015-.276-.29-.602-.52-.979-.689s-.788-.254-1.233-.254c-.455 0-.868.082-1.24.247-.373.165-.691.392-.957.682s-.474.626-.624 1.008-.225.79-.225 1.225v.029c0 .435.074.846.225 1.233.15.387.362.725.638 1.015.275.29.6.52.972.689.372.17.785.254 1.24.254z"/><path d="m366.457 75.521.073-.073c.918-.039 1.572-.173 1.958-.401.386-.229.58-.537.58-.927v-.029c0-.331-.117-.586-.349-.766s-.561-.27-.986-.27c-.406 0-.786.082-1.139.247s-.698.416-1.037.754l-1.334-1.461c.426-.461.925-.835 1.501-1.123.575-.288 1.259-.432 2.052-.432.522 0 .998.065 1.426.196.429.13.796.324 1.103.58s.545.571.714.943c.168.373.252.8.252 1.284v.029c0 .464-.074.861-.223 1.189-.149.329-.351.609-.605.841-.255.232-.555.419-.902.559-.345.14-.717.249-1.113.326l-.16.885h-1.479zm-.159 3.48h2.335v2.321h-2.335z"/><path d="m97.291 97.745h-3.089v-2.06h8.412v2.06h-3.089v8.093h-2.234z"/><path d="m105.05 95.685h7.643v1.987h-5.439v2.06h4.786v1.987h-4.786v2.132h5.512v1.987h-7.716z"/><path d="m44.059 115.638c-18.888 0-34.255-15.367-34.255-34.255s15.367-34.255 34.255-34.255 34.255 15.367 34.255 34.255-15.367 34.255-34.255 34.255zm0-65.034c-16.971 0-30.779 13.807-30.779 30.779s13.807 30.779 30.779 30.779 30.779-13.807 30.779-30.779-13.808-30.779-30.779-30.779z"/><path d="m103.63 123.353c-12.213 0-22.15-9.937-22.15-22.15s9.936-22.15 22.15-22.15 22.15 9.936 22.15 22.15c-.001 12.214-9.937 22.15-22.15 22.15zm0-40.823c-10.297 0-18.673 8.377-18.673 18.673 0 10.297 8.377 18.674 18.673 18.674 10.297 0 18.674-8.377 18.674-18.674-.001-10.296-8.378-18.673-18.674-18.673z"/><path d="m178.847 119.881c-28.668 0-51.992-23.323-51.992-51.992 0-28.668 23.323-51.991 51.992-51.991 28.668 0 51.991 23.323 51.991 51.991.001 28.669-23.322 51.992-51.991 51.992zm0-100.506c-26.751 0-48.515 21.764-48.515 48.515 0 26.752 21.764 48.516 48.515 48.516s48.515-21.764 48.515-48.516c.001-26.752-21.763-48.515-48.515-48.515z"/><path d="m255.17 65.318c-12.213 0-22.15-9.937-22.15-22.15s9.936-22.149 22.15-22.149 22.15 9.936 22.15 22.149c-.001 12.213-9.937 22.15-22.15 22.15zm0-40.823c-10.297 0-18.674 8.377-18.674 18.673 0 10.297 8.377 18.674 18.674 18.674s18.673-8.377 18.673-18.674-8.376-18.673-18.673-18.673z"/><path d="m333.349 23.947c29.596 0 53.675 24.078 53.675 53.675s-24.078 53.675-53.675 53.675-53.675-24.078-53.675-53.675 24.079-53.675 53.675-53.675m0-3.476c-31.564 0-57.151 25.587-57.151 57.151s25.587 57.151 57.151 57.151 57.151-25.587 57.151-57.151-25.587-57.151-57.151-57.151z"/><path d="m25.91 87.942c-.522 0-.998-.065-1.426-.195s-.797-.324-1.104-.58-.545-.57-.713-.943c-.168-.372-.252-.8-.252-1.283v-.029c0-.464.074-.861.223-1.19.149-.328.35-.609.605-.841.254-.232.555-.418.901-.559.346-.14.717-.248 1.114-.326l.159-.884h1.479l.334 2.349-.072.072c-.919.039-1.572.173-1.958.401-.387.229-.58.538-.58.927v.029c0 .331.116.586.348.766s.56.27.986.27c.406 0 .785-.082 1.138-.246s.698-.415 1.037-.754l1.334 1.462c-.426.461-.926.835-1.501 1.123s-1.26.431-2.052.431zm-.856-10.283h2.335v2.32h-2.335z"/><path d="m39.659 87.115c-.435.28-.904.495-1.407.646-.503.15-1.039.225-1.61.225-.783 0-1.504-.138-2.161-.413-.658-.275-1.226-.648-1.704-1.117-.479-.469-.851-1.02-1.117-1.653-.266-.634-.399-1.313-.399-2.038v-.029c0-.726.135-1.405.406-2.038.27-.633.645-1.189 1.124-1.668s1.049-.856 1.711-1.131c.662-.276 1.385-.414 2.168-.414s1.503.138 2.161.414c.657.275 1.226.648 1.704 1.117.479.469.851 1.02 1.117 1.654.266.633.399 1.313.399 2.038v.029c0 .531-.078 1.044-.232 1.537-.155.493-.377.952-.667 1.377l1.044.885-1.421 1.581zm-2.988-1.189c.474 0 .919-.092 1.334-.275l-1.653-1.407 1.421-1.595 1.668 1.508c.183-.406.275-.87.275-1.393v-.029c0-.435-.075-.846-.225-1.233-.15-.386-.362-.725-.638-1.015s-.602-.52-.979-.689-.788-.254-1.233-.254c-.455 0-.868.082-1.24.246-.373.165-.691.392-.957.682s-.474.626-.624 1.008-.225.79-.225 1.226v.029c0 .435.075.846.225 1.233s.362.725.638 1.015.6.52.972.689c.373.17.787.254 1.241.254z"/><path d="m48.999 87.971c-1.363 0-2.437-.377-3.22-1.131s-1.175-1.88-1.175-3.38v-5.801h2.233v5.743c0 .831.193 1.457.58 1.878.387.42.923.631 1.61.631.686 0 1.223-.203 1.61-.609s.58-1.016.58-1.827v-5.816h2.234v5.729c0 .774-.104 1.446-.312 2.016s-.505 1.047-.892 1.428c-.387.383-.856.667-1.407.856-.55.189-1.164.283-1.841.283z"/><path d="m56.455 77.659h7.643v1.987h-5.439v2.059h4.786v1.988h-4.786v2.132h5.511v1.988h-7.716v-10.154zm4.249-3.365 1.9.826-1.856 1.741h-1.682z"/></g></svg>