<svg enable-background="new 0 0 158.5 151.9" viewBox="0 0 158.5 151.9" xmlns="http://www.w3.org/2000/svg"><path d="m27.3 21.94c.25.35 16.64-12.32 16.96-11.87.49.7-33 29.74-32.33 30.68 1.16 1.66 52.55-39 53.59-37.52 1.17 1.69-60.93 51.46-59.47 53.55 1.88 2.68 77.65-56.55 78.68-55.08 1.56 2.23-80.17 60.94-78.9 62.76 1.8 2.57 88.49-64.86 89.85-62.92 2.07 2.95-95.91 70.73-94.16 73.23 1.44 2.05 98.77-71.61 99.92-69.97 2.39 3.41-100.41 80.35-98.25 83.43 2.27 3.25 109.3-80.86 111.33-77.96 2.02 2.89-112.46 83.85-109.95 87.44 2.67 3.81 115.59-86.05 117.99-82.62 1.42 2.03-116.63 86.48-114.75 89.16 2.22 3.17 124.1-92.6 126.78-88.77 1.6 2.29-129.89 92.64-127.5 96.06 2.97 4.23 128.05-94.07 130.12-91.11 2.5 3.58-120.18 91.36-118.01 94.46 2.68 3.83 118.48-87.34 120.53-84.4 2.18 3.11-122.1 93.07-120.6 95.21 2.69 3.84 124.02-91.02 125.99-88.22 1.33 1.9-123.54 87.72-120.62 91.89 1.61 2.31 118.54-87.81 120.8-84.58 2.41 3.44-113.08 88.13-110.97 91.15 2.32 3.31 117.72-86.98 119.86-83.92 1.52 2.18-114.68 86.88-113.41 88.7 1.79 2.56 112.12-81.18 113.38-79.39 2.28 3.26-101.87 81.03-99.51 84.41 1.95 2.79 99.52-74.55 101.8-71.28 1.28 1.83-95.84 72.13-94.68 73.78 2.16 3.08 91.89-67.26 93.26-65.3 1.8 2.56-82.74 66.09-81.83 67.4 1.68 2.4 82.09-61.05 83.77-58.65 1.42 2.03-63.97 56.54-62.84 58.15.92 1.31 49.24-35.72 49.82-34.89.83 1.18-34.41 29.59-34.02 30.15.26.37 18.61-13.82 18.98-13.29" fill="none" stroke="#084df7" stroke-linecap="round" stroke-linejoin="round" stroke-width="3"/></svg>