<svg enable-background="new -320 326.6 100 100" viewBox="-320 326.6 100 100" xmlns="http://www.w3.org/2000/svg"><path d="m-290.4 386.2-7.8 16.2h11.1l4.1-16.2z"/><path d="m-301.1 386.2-11.8 16.2h10.8l8.2-16.2z"/><path d="m-239.8 386.2h-7.2l8.2 16.2h10.8z"/><path d="m-257.9 386.2 4.2 16.2h11l-7.8-16.2z"/><path d="m-261 393.9-6.2.1-.1-7.8h-1.5l.2 16.2h11.2l-3.6-15.2z"/><path d="m-279.6 386.2-.5 2 1.8-2z"/><path d="m-281.2 392.7-2.2 9.7h11.1l.2-13.7-6.1 6.7z"/><path d="m-264.9 356.2c1.9-1.4 2.4-4.1 1-6s-4.1-2.4-6-1-2.4 4.1-1 6 4 2.4 6 1z"/><path d="m-269.1 377.2h.1l2.4 4.4.1 11.5 4.5-.1v-12c0-.4-.1-.7-.3-1.1l-4.1-7.4.8-5.3.4.6c.2.3.4.5.8.7l7 2.8 1.1-2.3-6-3.5-3.1-5.2c-.5-.8-1.4-1.4-2.5-1.6-.9-.1-1.8.1-2.5.6s-.3.2-.4.3l-6.8 5.3c-.3.3-.6.6-.7 1.1l-1.1 8.3 2.5.5 2.1-7.4 2.2-1.7-1.2 7.6c-.1.4 0 .7 0 1.1l.4 7.8-8.3 9.1 3.4 3.1 8.9-9.8c.4-.4.6-1 .6-1.6z"/></svg>