<svg viewBox="0 0 136 31" xmlns="http://www.w3.org/2000/svg"><path d="m132.8 0-7.4 15.87-2.79-6.02h-3.03l4.59 9.85h2.45l9.18-19.7z" fill="#cc2027"/><path d="m101 29.47h6v-10.92c0-2.49 1.46-4.25 3.6-4.25s3.14 1.46 3.14 3.53v11.64h6v-12.8c0-4.33-2.61-7.4-6.82-7.4a6.75 6.75 0 0 0 -6 3.26h-.12v-2.68h-5.8zm-11.75-20.16a10 10 0 0 0 -10.42 10.39 10.42 10.42 0 0 0 20.85 0 10 10 0 0 0 -10.43-10.39m0 16.36c-2.84 0-4.33-2.38-4.33-6s1.49-6 4.33-6 4.41 2.34 4.41 6-1.57 6-4.41 6m-27.4 3.79h16.75v-4.7h-9.5v-.11l9.08-10.19v-4.61h-16.36v4.71h9.18v.12l-9.2 10.27zm-7.66 0h6v-19.61h-6zm-13.95 0h6v-9c0-4.1 2.45-5.9 6.21-5.4h.12v-5.17a3.39 3.39 0 0 0 -1.23-.15c-2.34 0-3.91 1.07-5.25 3.37h-.12v-3.26h-5.77zm-11-3.75c-2.64 0-4.25-1.72-4.56-4.37h14.1c0-4.22-1.07-7.59-3.41-9.7a9.31 9.31 0 0 0 -6.59-2.38c-5.9 0-10 4.48-10 10.35s3.91 10.39 10.38 10.39a10.25 10.25 0 0 0 6-1.76 7.76 7.76 0 0 0 3.3-4.64h-5.73a3.54 3.54 0 0 1 -3.53 2.07m-.3-12.1c2.11 0 3.56 1.57 3.79 3.87h-8c.46-2.34 1.72-3.87 4.22-3.87m-22.09 15.9h6.28l6.83-19.62h-6l-3.85 12.61h-.08l-3.83-12.61h-6.17zm47.33-26.6h6v5.33h-6z" fill="#fff"/></svg>