<svg><defs><font horiz-adv-x="1818"><font-face ascent="750" bbox="-179 -298 1760 940" cap-height="689" descent="-250" panose-1="2 0 5 6 0 0 0 2 0 4" underline-position="-50" underline-thickness="50" unicode-range="U+0020-U+FB05" x-height="495"/><missing-glyph d="M0 700h447v-700h-447v700zM348 65l-125 226-124-226h249zM348 635h-250l125-225zM65 129l121 221-121 222v-443zM382 129v442l-121-221z" horiz-adv-x="447"/><glyph d="M568 406h-122v-406h-103v406h-156v-406h-104v406h-59v90h59v63q0 34 11 59.5t29.5 42 43.5 25 54 8.5h88v-91h-73q-29 0-39-16t-10-40v-51h156v82q0 34 10.5 59.5t29.5 42.5 43.5 25 53.5 8h88v-90h-73q-29 0-39-16.5t-10-40.5v-70h122v-90z" glyph-name="ff" horiz-adv-x="569" unicode="&#x66;&#x66;"/><glyph d="M343 0v406h-156v-406h-104v406h-59v90h59v80q0 34 11 59.5t29.5 42 43.5 25 54 8.5h78v-91h-63q-29 0-39-16t-10-40v-68h261v-496h-105zM335 636q0 26 17.5 43.5t42.5 17.5q26 0 43.5-17.5t17.5-43.5-17.5-43.5-43.5-17.5q-25 0-42.5 17.5t-17.5 43.5z" glyph-name="fi" horiz-adv-x="507" unicode="&#x66;&#x69;"/><glyph d="M295 406h-106v-406h-104v406h-58v90h58v77q0 44 14.5 74.5t39 50 57 28.5 68.5 9q26 0 71-4t114-22v-564q0-36 15.5-45t56.5-9l2-92q-15-3-29-4t-26-1q-40 0-64 9.5t-37.5 27-18 42-4.5 55.5v504q-19 5-36.5 7.5t-39.5 2.5q-37 0-58-18t-21-56v-72h106v-90z" glyph-name="fl" horiz-adv-x="550" unicode="&#x66;&#x6c;"/><glyph d="M601 0v406h-155v-406h-104v406h-155v-406h-104v406h-59v90h59v60q0 34 11 59.5t29.5 42.5 43.5 25 54 8h75v-90h-60q-29 0-39-16.5t-10-40.5v-48h155v80q0 34 10.5 59.5t29.5 42 44 25 54 8.5h77v-91h-63q-28 0-38-16t-10-40v-68h261v-496h-106zM593 636q0 26 17.5 43t43.5 17q25 0 42.5-17t17.5-43-17.5-43.5-42.5-17.5q-26 0-43.5 17.5t-17.5 43.5z" glyph-name="ffi" horiz-adv-x="766" unicode="&#x66;&#x66;&#x69;"/><glyph d="M551 406h-106v-406h-104v406h-154v-406h-104v406h-59v90h59v73q0 34 11 59.5t29.5 42 43.5 25 54 8.5h79v-91h-64q-29 0-39-16t-10-40v-61h154v76q0 44 14 75t38.5 50.5 57.5 28.5 71 9q26 0 71.5-4.5t111.5-22.5v-563q0-36 15.5-45t56.5-9l2-92q-15-3-29-4t-26-1q-40 0-64 9.5t-37.5 27-18 42-4.5 55.5v504q-18 5-36 7t-39 2q-80 0-80-76v-69h106v-90z" glyph-name="ffl" horiz-adv-x="806" unicode="&#x66;&#x66;&#x6c;"/><glyph d="M187 406v-406h-104v406h-59v90h59v85q0 34 11 59.5t29.5 42.5 43.5 25 54 8h75v-91h-60q-29 0-39-16t-10-40v-73h159l21 118h81v-118h129v-90h-129v-225q0-26 5-43t14-27 23-13.5 32-3.5q17 0 36 2t41 5l14-89q-30-11-62.5-14t-52.5-3q-44 0-73.5 10t-47.5 29.5-26 49.5-8 70v252h-156z" glyph-name="ft" horiz-adv-x="614" unicode="&#x66;&#x74;"/><glyph d="M448-52q0-78-41-114.5t-110-36.5h-53v94h36q37 0 50 17t13 56v442h-156v-406h-104v406h-59v90h59v81q0 34 11 59.5t29.5 42.5 43.5 25 54 8h77v-91h-62q-29 0-39-16t-10-40v-69h261v-548zM335 638q0 26 17.5 43t42.5 17q26 0 43.5-17t17.5-43-17.5-43.5-43.5-17.5q-25 0-42.5 17.5t-17.5 43.5z" glyph-name="fj" horiz-adv-x="507" unicode="&#x66;&#x6a;"/><glyph d="M707-52q0-78-41-114.5t-111-36.5h-52v94h35q38 0 50.5 17t12.5 56v442h-155v-406h-104v406h-155v-406h-104v406h-59v90h59v60q0 34 11 59.5t29.5 42.5 43.5 25 54 8h75v-90h-60q-29 0-39-16.5t-10-40.5v-48h155v80q0 34 10.5 59.5t29.5 42.5 44 25 54 8h77v-90h-63q-28 0-38-16.5t-10-40.5v-68h261v-548zM593 637q0 25 17.5 42.5t43.5 17.5q25 0 42.5-17.5t17.5-42.5q0-26-17.5-44t-42.5-18q-26 0-43.5 18t-17.5 44z" glyph-name="ffj" horiz-adv-x="766" unicode="&#x66;&#x66;&#x6a;"/><glyph d="M0 700h447v-700h-447v700zM348 65l-125 226-124-226h249zM348 635h-250l125-225zM65 129l121 221-121 222v-443zM382 129v442l-121-221z" glyph-name=".notdef" horiz-adv-x="447"/><glyph d="M79 198l-7 498h107l-7-498h-93zM125-6q-31 0-49.5 20.5t-18.5 50.5q0 26 18.5 46.5t48.5 20.5q32 0 51.5-20.5t19.5-46.5q0-29-18.5-50t-51.5-21z" glyph-name="exclam" horiz-adv-x="251" unicode="&#x21;"/><glyph d="M186 696h85v-200h-85v200zM54 696h86v-200h-86v200z" glyph-name="quotedbl" horiz-adv-x="326" unicode="&#x22;"/><glyph d="M396 288h91v-79h-102l-29-209h-89l29 209h-97l-28-209h-91l30 209h-86v79h98l17 123h-88v78h99l29 206h86l-27-206h98l29 206h87l-29-206h91v-78h-102zM210 288h97l18 123h-98z" glyph-name="numbersign" horiz-adv-x="539" unicode="&#x23;"/><glyph d="M296 2q0-7 1-12v-90h-72v102q-56 4-105 24.5t-97 62.5l60 81q43-34 87.5-52t91.5-18q63 0 93.5 27t30.5 69q0 30-15 48t-38 29.5-49.5 17.5l-49.5 11q-33 7-66.5 19.5t-60.5 34-43.5 54.5-16.5 81q0 39 13.5 72t37.5 58.5 56.5 42 70.5 21.5v87h72q-1-21-1-42v-42q47-3 91-17.5t90-45.5l-54-89q-40 27-78.5 39.5t-78.5 12.5q-22 0-42-6t-35.5-18.5-24.5-31-9-42.5 13-39.5 32.5-26 42.5-17 43-11.5q33-8 69.5-19t67-32.5 50.5-57 20-90.5q0-42-14.5-76.5t-40.5-59.5-62-40-80-19z" glyph-name="dollar" horiz-adv-x="517" unicode="&#x24;"/><glyph d="M775 112q0-28-12-49.5t-32-36.5-46-22.5-53-7.5q-28 0-54 7.5t-46 22.5-32 36.5-12 49.5v189q0 28 12.5 49.5t32.5 36.5 46 23 53 8 52.5-8 46-23 32.5-36.5 12-49.5v-189zM693 289q0 15-5.5 25t-14.5 16.5-20 9.5-21 3-20.5-3-19.5-9.5-14.5-16.5-5.5-25v-167q0-14 5.5-24t14.5-16 19.5-9 20.5-3 21 3 20 9 14.5 16 5.5 24v167zM337 387q0-28-12-49.5t-32-36.5-46-22.5-53-7.5q-28 0-54 7.5t-46 22.5-32 36.5-12 49.5v189q0 28 12 49.5t32.5 36.5 46.5 23 53 8 52.5-8 46-23 32.5-36.5 12-49.5v-189zM255 564q0 15-5.5 25t-14.5 16.5-20 9.5-21 3-20.5-3-19.5-9.5-14.5-16.5-5.5-25v-167q0-14 5.5-24t14.5-16 19.5-9 20.5-3 21 3 20 9 14.5 16 5.5 24v167zM241-17h-78l425 730h79z" glyph-name="percent" horiz-adv-x="826" unicode="&#x25;"/><glyph d="M761 432q0-91-36-172t-97-143q35-32 72-57.5t79-42.5l-41-76q-22 9-46.5 22.5t-48.5 29.5-46 33.5-40 35.5q-38-31-92-50.5t-108-19.5q-45 0-85 13t-69.5 38.5-47 62.5-17.5 85q0 35 12 65.5t32.5 56.5 49 48.5 61.5 41.5q-23 33-34 62t-11 61 10 59.5 28.5 48 45.5 32 62 11.5q33 0 60.5-11t48-29.5 32-44 11.5-54.5-9.5-53-26-44-39-37.5-48.5-33.5l69-95.5t78-97.5q48 51 76.5 116.5t28.5 137.5q0 60-18 113.5t-53 94-86.5 64-117.5 23.5q-60 0-108.5-17.5t-82.5-47.5-52.5-70-18.5-84q0-32 9-65.5t32-69.5l-73-44q-30 44-42.5 88t-12.5 86q0 60 24 116t69 98.5 109 68 143 25.5q89 0 157-30t114.5-81.5 70-120 23.5-146.5zM455 538q0 24-17.5 40t-43.5 16q-28 0-40.5-21t-12.5-43q0-20 10-40t26-44q35 19 56.5 39.5t21.5 52.5zM500 123q-21 23-43 50l-42.5 54.5-38.5 54-32 48.5q-24-13-45-27.5t-36.5-31.5-25-36.5-9.5-41.5q0-60 35-89.5t86-29.5q36 0 74.5 12t76.5 37z" glyph-name="ampersand" horiz-adv-x="827" unicode="&#x26;"/><glyph d="M89 696h85v-200h-85v200z" glyph-name="quotesingle" horiz-adv-x="259" unicode="&#x27;"/><glyph d="M248-127q-39 42-74 91t-61.5 104-42 114.5-15.5 122.5q0 64 15.5 124t41.5 114 60.5 102.5 72.5 90.5l59-37q-66-87-102.5-189.5t-36.5-199.5q0-105 38-208t101-187z" glyph-name="parenleft" horiz-adv-x="317" unicode="&#x28;"/><glyph d="M280 305q0-63-16-122.5t-42.5-114.5-61.5-104-74-91l-55 42q63 84 100.5 187t37.5 208q0 97-36 199.5t-102 189.5l58 37q39-42 73.5-90.5t60.5-102.5 41.5-114 15.5-124z" glyph-name="parenright" horiz-adv-x="317" unicode="&#x29;"/><glyph d="M328 429l-14-11-19-14.5-19.5-14t-14.5-10.5l-61 104-63-104q-5 3-14 10l-19.5 14.5-20 14.5t-13.5 11l79 90-113 29 23 77 111-47-11 120h83l-12-120q9 4 24.5 10t31.5 13l31 13.5 24 10.5 23-78-114-28z" glyph-name="asterisk" horiz-adv-x="395" unicode="&#x2a;"/><glyph d="M300 255v-190h-84v190h-190v81h190v188h84v-188h190v-81h-190z" glyph-name="plus" horiz-adv-x="517" unicode="&#x2b;"/><glyph d="M61-95q24 18 39.5 40.5t17.5 49.5q-22 3-36.5 21.5t-14.5 44.5q0 27 20 47t50 20q20 0 34.5-7.5t24.5-20 14.5-29 4.5-33.5q0-29-9-56.5t-25-51.5-37-43.5-46-31.5z" glyph-name="comma" horiz-adv-x="271" unicode="&#x2c;"/><glyph d="M50 217v94h307v-94h-307z" glyph-name="hyphen" horiz-adv-x="408" unicode="&#x2d;"/><glyph d="M128-6q-31 0-49.5 20.5t-18.5 50.5q0 26 18.5 46.5t48.5 20.5q32 0 51-20.5t19-46.5q0-29-18.5-50t-50.5-21z" glyph-name="period" horiz-adv-x="253" unicode="&#x2e;"/><glyph d="M77-42h-83l252 767h83z" glyph-name="slash" horiz-adv-x="334" unicode="&#x2f;"/><glyph d="M472 175q0-44-19-78t-49.5-56.5-68.5-34-76-11.5-76.5 11.5-69 34-49.5 56.5-19 78v338q0 45 19.5 79t50 57 68.5 35 76 12 76-12 68.5-35 49.5-57 19-79v-338zM365 489q0 29-10 49t-25.5 32.5-34 18-36.5 5.5-36.5-5.5-34-18-25.5-32.5-10-49v-290q0-29 10-48.5t25.5-32 34-18 36.5-5.5 36.5 5.5 34 18 25.5 32 10 48.5v290z" glyph-name="zero" horiz-adv-x="517" unicode="&#x30;"/><glyph d="M241 0v554l-82-68-58 77 32 27.5 41.5 36 42 35.5 32.5 27h98v-689h-106z" glyph-name="one" horiz-adv-x="517" unicode="&#x31;"/><glyph d="M471 508q0-32-12-61t-31.5-55-43.5-48-48-41-53.5-39-56-44-45.5-54.5-23-70.5h311v-95h-422v89q0 42 13.5 77.5t36 66 51.5 56.5 61 48l55.5 39t49 41 34.5 43 13 46q0 22-10 38.5t-26 27.5-37 16.5-42 5.5q-38 0-73.5-14t-63.5-37l-55 83q36 31 87 50.5t111 19.5q41 0 80.5-10t70-32.5 49.5-58 19-87.5z" glyph-name="two" horiz-adv-x="517" unicode="&#x32;"/><glyph d="M241 695q39 0 76.5-9.5t67.5-31.5 48-56.5 18-84.5q0-51-24-91.5t-69-59.5q47-20 71.5-64t24.5-93q0-54-19-94t-49.5-66-70.5-39-82-13q-62 0-114.5 19.5t-87.5 50.5l11.5 17.5 16.5 24.5 17 24.5 12 17.5q28-23 66-38t73-15q56 0 87.5 27.5t31.5 77.5q0 48-28.5 79t-73.5 31h-80v93h80q18 0 35.5 6.5t31.5 19.5 22.5 32.5 8.5 44.5-9.5 42-24.5 27.5-34.5 15-39.5 4.5q-35 0-74-15t-66-39l-12 18-17 25-17 24.5-12 17.5q35 31 89 50.5t116 19.5z" glyph-name="three" horiz-adv-x="517" unicode="&#x33;"/><glyph d="M432 103v-103h-108v103h-294v88l31 68 39 86 43 95 43 95 38.5 86 30.5 68h113l-219-491h175v202h108v-202h58v-95h-58z" glyph-name="four" horiz-adv-x="517" unicode="&#x34;"/><glyph d="M470 181q0-44-18-78.5t-48.5-58.5-70-36.5-82.5-12.5q-63 0-112.5 19t-84.5 51l59 86q32-29 65.5-42t69.5-13q15 0 34.5 4.5t37.5 15.5 30.5 30.5 12.5 48.5v83q0 43-21 63.5t-56 20.5q-15 0-33-5.5t-36-14-33-17.5-24-16l-98 39v341h387v-98h-279v-166q34 22 68.5 33.5t61.5 11.5q40 0 71.5-13.5t53.5-37.5 33.5-57 11.5-72v-109 0z" glyph-name="five" horiz-adv-x="517" unicode="&#x35;"/><glyph d="M471 182q0-45-18-80t-47-59-67.5-36-78.5-12q-43 0-81.5 12t-67 35-45.5 57.5-17 79.5v330q0 45 17.5 80t47.5 59 69 36 82 12q63 0 111.5-19t83.5-51l-58-87q-32 29-65 42t-69 13q-17 0-36-5.5t-36-18-28-32-11-47.5v-94q47 28 82 38t63 10q40 0 71.5-13.5t53-37.5 33-57.5 11.5-72.5v-82zM363 255q0 47-22.5 67t-53.5 20q-30 0-61.5-12.5t-68.5-35.5v-95q0-28 9.5-47.5t24-32 33-18 36.5-5.5q17 0 35.5 6t33.5 18.5 24.5 32 9.5 46.5v56z" glyph-name="six" horiz-adv-x="517" unicode="&#x36;"/><glyph d="M223 0h-115l241 592h-197v-102h-101v199h419v-92z" glyph-name="seven" horiz-adv-x="517" unicode="&#x37;"/><glyph d="M262 695q38 0 75.5-12t67-37 47.5-62.5 18-87.5q0-48-21-86.5t-58-56.5q46-20 69.5-63.5t23.5-90.5q0-53-20-92t-52-64-72-37-80-12q-43 0-83 11.5t-71 36-49.5 62.5-18.5 90q0 26 7.5 50.5t21 45.5 30.5 37.5 37 25.5q-38 17-59 55t-21 89q0 50 18.5 87t48.5 62 67 37 74 12zM363 496q0 47-30.5 72t-70.5 25q-19 0-37.5-6.5t-32.5-19-23-30.5-9-41q0-24 8.5-42.5t23-31 32.5-19 38-6.5q19 0 37.5 7t32.5 19.5 22.5 31 8.5 41.5zM261 298q-22 0-42-7t-35-20.5-24-32-9-42.5q0-48 30.5-74.5t79.5-26.5q48 0 79 26.5t31 76.5q0 22-9 40.5t-24 32-35 20.5-42 7z" glyph-name="eight" horiz-adv-x="517" unicode="&#x38;"/><glyph d="M465 181q0-45-17.5-79.5t-47-58.5-68.5-36-82-12q-64 0-112.5 19t-83.5 51l59 86q61-54 133-54 16 0 35.5 5.5t36 18 27.5 32 11 47.5v98q-47-26-81-36.5t-63-10.5q-78 0-123 49t-45 133v73q0 45 17.5 80.5t46.5 60 67 37 80 12.5q43 0 81-12.5t66.5-36.5 45.5-59.5 17-80.5v-326zM356 492q0 28-9 47.5t-23.5 32-32.5 18-36 5.5-36.5-6-33.5-18.5-24.5-32-9.5-46.5v-51q0-47 22.5-66.5t54.5-19.5q29 0 60.5 12.5t67.5 34.5v90z" glyph-name="nine" horiz-adv-x="517" unicode="&#x39;"/><glyph d="M139 288q-31 0-49.5 20t-18.5 50q0 27 18.5 47.5t48.5 20.5q32 0 51-20.5t19-47.5q0-29-18.5-49.5t-50.5-20.5zM139-6q-31 0-49.5 20.5t-18.5 50.5q0 26 18.5 46.5t48.5 20.5q32 0 51-20.5t19-46.5q0-29-18.5-50t-50.5-21z" glyph-name="colon" horiz-adv-x="282" unicode="&#x3a;"/><glyph d="M135 288q-31 0-49.5 20t-18.5 50q0 27 18.5 47.5t49.5 20.5q32 0 51-20.5t19-47.5q0-29-18.5-49.5t-51.5-20.5zM55-95q24 18 39 40.5t18 49.5q-23 3-37 21.5t-14 44.5q0 27 20 47t50 20q20 0 34.5-7.5t24-20 14-29 4.5-33.5q0-29-9-56.5t-24.5-51.5-37-43.5-45.5-31.5z" glyph-name="semicolon" horiz-adv-x="271" unicode="&#x3b;"/><glyph d="M37 257v78l441 209v-91l-334-157 334-157v-91z" glyph-name="less" horiz-adv-x="517" unicode="&#x3c;"/><glyph d="M25 357v82h465v-82h-465zM25 153v81h465v-81h-465z" glyph-name="equal" horiz-adv-x="517" unicode="&#x3d;"/><glyph d="M37 48v91l335 157-335 157v91l441-209v-78z" glyph-name="greater" horiz-adv-x="517" unicode="&#x3e;"/><glyph d="M228 700q43 0 79.5-13.5t63.5-37 42-56 15-70.5q0-46-21.5-83t-47-70.5-47-66.5-21.5-71v-36h-107v34q0 46 19 81t41.5 66.5 41.5 63 19 69.5q0 35-25 60.5t-69 25.5q-35 0-68.5-12.5t-60.5-35.5l-53 87q45 35 94.5 50t104.5 15zM171 64q0 26 18.5 46.5t48.5 20.5q32 0 51.5-20.5t19.5-46.5q0-29-18.5-49t-51.5-20q-31 0-49.5 19.5t-18.5 49.5z" glyph-name="question" horiz-adv-x="474" unicode="&#x3f;"/><glyph d="M814 377q0-52-15.5-93.5t-41-70-58.5-44-68-15.5q-31 0-64.5 11.5t-49.5 40.5q-32-19-65.5-31.5t-66.5-12.5q-60 0-92 33t-32 86q0 33 15 55.5t37 36.5 47 20 45 6h99v18q0 36-22.5 51t-58.5 15q-20 0-45-6t-54-29l-21.5 30-21.5 31q40 32 76 42t70 10q75 0 118.5-36.5t43.5-110.5v-145q0-21 14-29.5t34-8.5q15 0 32.5 8.5t32 26 24 45 9.5 66.5q0 58-19 108t-56 87.5-90 59-120 21.5q-69 0-128-23t-102.5-63.5-68-95-24.5-116.5q0-63 22-117t62-94 94.5-62.5 120.5-22.5q29 0 57.5 5t70.5 21l25-71q-43-18-85-23t-71-5q-83 0-152 27.5t-118.5 76.5-77 116.5-27.5 147.5 31 148.5 85.5 118.5 128 78 157.5 28q88 0 156-27.5t114-75.5 70-111.5 24-135.5zM505 332h-84q-10 0-22.5-1t-24-6-19-14.5-7.5-26.5q0-21 15-33t41-12q29 0 55.5 12t45.5 23v58z" glyph-name="at" horiz-adv-x="849" unicode="&#x40;"/><glyph d="M437 149h-257l-49-149h-121l241 689h116l241-689h-124zM213 248h191l-41 129-53 175h-4l-51-168z" glyph-name="A" horiz-adv-x="617" unicode="&#x41;"/><glyph d="M565 203q0-39-12.5-75.5t-37.5-65-62-45.5-85-17h-310v689h298q49 0 86.5-15t62-40.5 37-58.5 12.5-70q0-40-20-79.5t-65-64.5q50-25 73-69.5t23-88.5zM438 497q0 46-28.5 67.5t-79.5 21.5h-157v-177h162q45 0 74 23t29 65zM448 205q0 48-32.5 76t-77.5 28h-165v-207h166q54 0 81.5 27.5t27.5 75.5z" glyph-name="B" horiz-adv-x="608" unicode="&#x42;"/><glyph d="M457 542q-29 25-68 37t-76 12q-26 0-51.5-8t-45.5-25-32.5-44-12.5-65v-209q0-38 12.5-65t33-44 45.5-25 50-8q37 0 75 10.5t72 37.5l54-88q-35-29-88-47t-113-18q-50 0-96 14.5t-81.5 43-57 70.5-21.5 96v255q0 54 21.5 95.5t57 70 81.5 43.5 95 15q57 0 109.5-16t92.5-49z" glyph-name="C" horiz-adv-x="544" unicode="&#x43;"/><glyph d="M559 223q0-53-19.5-94t-53-70-77-44-91.5-15h-259v689h260q48 0 91.5-14.5t76.5-43 52.5-70 19.5-95.5v-243zM443 445q0 39-12.5 66t-33.5 43.5-47 24-53 7.5h-124v-485h124q25 0 51 7.5t47 24 34.5 43.5 13.5 66v203z" glyph-name="D" horiz-adv-x="611" unicode="&#x44;"/><glyph d="M61 689h467v-103h-353v-189h302v-103h-302v-192h353v-102h-467v689z" glyph-name="E" horiz-adv-x="567" unicode="&#x45;"/><glyph d="M175 395h302v-103h-302v-292h-114v689h467v-103h-353v-191z" glyph-name="F" horiz-adv-x="540" unicode="&#x46;"/><glyph d="M537 87q-45-52-105.5-73t-116.5-21q-49 0-95.5 14.5t-83 43-58.5 70.5-22 96v254q0 54 21.5 95.5t58 70.5 84 44 99.5 15q58 0 111-16t92-49l-56-89q-29 25-69 37t-77 12q-28 0-54.5-8t-47.5-25-34-44-13-65v-209q0-38 12-65t32.5-44 46.5-25 53-8q21 0 49.5 6.5t58.5 29.5v138h-105v100h219v-285 0z" glyph-name="G" horiz-adv-x="593" unicode="&#x47;"/><glyph d="M459 0v298h-289v-298h-114v689h114v-288h289v288h116v-689h-116z" glyph-name="H" horiz-adv-x="631" unicode="&#x48;"/><glyph d="M194 689v-689h-114v689h114z" glyph-name="I" horiz-adv-x="274" unicode="&#x49;"/><glyph d="M451 219q0-54-19.5-96t-53-71-77-44-91.5-15q-26 0-53.5 3.5t-53.5 11-50 18.5-43 25l53 90q35-24 67.5-33.5t63.5-9.5 57 8 45 25 29.5 45 10.5 69v444h115v-470 0z" glyph-name="J" horiz-adv-x="527" unicode="&#x4a;"/><glyph d="M176 358l110 137 161 194h137l-226-275 245-414h-134l-93.5 161-93.5 161-55.5-65.5-54.5-65.5v-191h-115v689h115v-331h4z" glyph-name="K" horiz-adv-x="609" unicode="&#x4b;"/><glyph d="M64 0v689h113v-587h355v-102h-468z" glyph-name="L" horiz-adv-x="540" unicode="&#x4c;"/><glyph d="M587 420l-64-130-97-191h-84l-94 180-71 141h-4v-420h-114v689h107l131-262 85-177h6l84 179 128 260h105v-689h-114v420h-4z" glyph-name="M" horiz-adv-x="763" unicode="&#x4d;"/><glyph d="M173 473v-473h-114v689h106l205-305 111-171h6v476h114v-689h-107l-208 310-106 163h-7z" glyph-name="N" horiz-adv-x="660" unicode="&#x4e;"/><glyph d="M572 223q0-54-20-97t-55.5-72.5-83-45-101.5-15.5q-55 0-102.5 15.5t-82 45-54.5 72.5-20 97v245q0 54 20.5 96t55.5 71.5 82 45 101 15.5q53 0 100.5-16t83-45.5 56-72 20.5-96.5v-243zM457 449q0 37-12 64t-32 44.5-46.5 25.5-54.5 8q-29 0-55-8t-45.5-25.5-31.5-44.5-12-64v-209q0-38 12-65t32-44 46-25 54-8 54.5 8 46.5 25 32 44 12 65v209z" glyph-name="O" horiz-adv-x="625" unicode="&#x4f;"/><glyph d="M170 372h158q50 0 79.5 29.5t29.5 77.5-29.5 77.5-79.5 29.5h-158v-214zM353 689q50 0 87-19t61-49 36-67.5 12-74.5-13.5-74.5-39-68-62-49.5-83.5-19h-181v-268h-114v689h297z" glyph-name="P" horiz-adv-x="565" unicode="&#x50;"/><glyph d="M460-178q-21-3-40-3-73 0-116 34t-43 101v44q-45 6-82.5 24t-65 47-42.5 68-15 87v240q0 54 20.5 97t55.5 73 82 46 101 16q53 0 100.5-16t83-46 56-72.5 20.5-96.5v-241q0-48-16-87t-43.5-68-66-47-83.5-24v-16q0-21 3.5-35t12.5-21.5 24-10.5 39-3h15v-90zM460 432q0 37-9 64-6 25-19.5 43t-31.5 29-40 16.5-45 5.5q-29 0-55-8t-45.5-25-31.5-44-12-65v-193q0-34 8-64 13-50 51.5-71.5t84.5-21.5q28 0 54.5 7.5t46.5 24.5 32 44 12 65v193z" glyph-name="Q" horiz-adv-x="635" unicode="&#x51;"/><glyph d="M354 689q52 0 89-19t61-49.5 35.5-68 11.5-74.5q0-28-8-56.5t-23-54-36.5-46-49.5-33.5l126-288h-124l-113 268h-151v-268h-115v689h297zM439 478q0 48-29.5 77.5t-80.5 29.5h-157v-213h157q51 0 80.5 29t29.5 77z" glyph-name="R" horiz-adv-x="583" unicode="&#x52;"/><glyph d="M545 195q0-48-19-85.5t-52.5-63-80.5-39-102-13.5q-73 0-137.5 20.5t-124.5 69.5l64 83q45-33 95.5-51.5t101.5-18.5q68 0 101.5 27.5t33.5 69.5q0 29-13.5 47t-36.5 30-52.5 19l-61.5 15q-40 9-77.5 23t-66 36.5-46 55-17.5 79.5q0 44 16 81t46 64 72 42.5 94 15.5q62 0 122.5-12.5t115.5-47.5l-51-94q-46 28-91.5 39t-89.5 11q-24 0-45.5-6t-38-18-26.5-30.5-10-43.5 13-42 34.5-28.5 49-19 57.5-13.5q49-11 90-26t70.5-38.5 46-56.5 16.5-81z" glyph-name="S" horiz-adv-x="577" unicode="&#x53;"/><glyph d="M320 585v-585h-115v585h-191v104h496v-104h-190z" glyph-name="T" horiz-adv-x="524" unicode="&#x54;"/><glyph d="M574 218q0-54-21.5-96t-57.5-70.5-83-43.5-98-15q-52 0-99 14.5t-82.5 43-56.5 70.5-21 96v472h114v-451q0-38 12-64.5t32.5-43.5 46.5-25 54-8q27 0 53.5 8t46.5 25 32.5 43.5 12.5 64.5v451h115v-471 0z" glyph-name="U" horiz-adv-x="627" unicode="&#x55;"/><glyph d="M296 172l70 240 85 277h122l-221-689h-120l-222 689h124l88-286 68-231h6z" glyph-name="V" horiz-adv-x="584" unicode="&#x56;"/><glyph d="M439 490l-51-206-72-284h-127l-179 689h123l69-295 50-220h6l54 222 74 293h112l77-305 52-210h5l48 212 71 303h123l-180-689h-126l-73 286-50 204h-6z" glyph-name="W" horiz-adv-x="885" unicode="&#x57;"/><glyph d="M286 258l-148-258h-130l216 353-203 336h131l134-241 135 241h130l-202-336 216-353h-130z" glyph-name="X" horiz-adv-x="572" unicode="&#x58;"/><glyph d="M282 382l66 150 74 157h122l-208-422v-267h-115v267l-210 422h124l75-161 65-146h7z" glyph-name="Y" horiz-adv-x="556" unicode="&#x59;"/><glyph d="M35 99l325 487h-312v103h450v-96l-330-491h329v-102h-462v99z" glyph-name="Z" horiz-adv-x="531" unicode="&#x5a;"/><glyph d="M71-102v800h189v-72h-94v-656h94v-72h-189z" glyph-name="bracketleft" horiz-adv-x="278" unicode="&#x5b;"/><glyph d="M-6 725h84l251-767h-83z" glyph-name="backslash" horiz-adv-x="334" unicode="&#x5c;"/><glyph d="M24-102v72h93v656h-93v72h188v-800h-188z" glyph-name="bracketright" horiz-adv-x="278" unicode="&#x5d;"/><glyph d="M409 298l-147 297-148-298h-90l199 398h78l199-397h-91z" glyph-name="asciicircum" horiz-adv-x="517" unicode="&#x5e;"/><glyph d="M0-139v70h500v-70h-500z" glyph-name="underscore" horiz-adv-x="500" unicode="&#x5f;"/><glyph d="M282 546l-115 177 98 32 79-183z" glyph-name="grave" horiz-adv-x="499" unicode="&#x60;"/><glyph d="M354 45q-53-30-89.5-39.5t-67.5-9.5q-74 0-116 40t-42 110q0 41 18 69t45 45.5 58.5 25.5 58.5 8h137v30q0 44-25 63t-77 19q-25 0-61.5-7.5t-73.5-37.5l-49 79q50 38 100.5 49.5t93.5 11.5q102 0 150-45t48-137v-319h-96l-9 43zM356 212h-119q-14 0-29-2t-27.5-8.5-21-18.5-8.5-33q0-28 20-43.5t53-15.5q18 0 36 4.5t35.5 11 33 14.5 27.5 15v76z" glyph-name="a" horiz-adv-x="510" unicode="&#x61;"/><glyph d="M468 174q0-88-46.5-133.5t-121.5-45.5q-26 0-62 10t-85 39l-10-44h-96v716h106v-267q55 31 91 41.5t62 10.5q83 0 122.5-47.5t39.5-130.5v-149zM361 309q0 51-21 70.5t-54 19.5q-28 0-63-16t-70-38v-205q13-9 31-17t36-14.5 35.5-10 30.5-3.5q32 0 53.5 21t21.5 69v124z" glyph-name="b" horiz-adv-x="513" unicode="&#x62;"/><glyph d="M422 62q-40-41-85-54t-90-13q-42 0-79 12t-64 35-42.5 55.5-15.5 74.5v147q0 44 17 78t45 57 64 35 74 12q22 0 45-2.5t45.5-9 44-19 41.5-33.5l-62-79q-34 31-60.5 38t-46.5 7q-17 0-35-5.5t-32.5-17.5-24-31.5-9.5-47.5v-106q0-28 8.5-47.5t22.5-31.5 32-17.5 37-5.5q21 0 51 9.5t54 32.5z" glyph-name="c" horiz-adv-x="441" unicode="&#x63;"/><glyph d="M45 323q0 83 47.5 130.5t125.5 47.5q26 0 62.5-5.5t78.5-22.5v243h106v-716h-96l-10 49q-51-31-86.5-42.5t-61.5-11.5q-77 0-121.5 43.5t-44.5 135.5v149zM151 182q0-50 21.5-68.5t54.5-18.5q13 0 29.5 4t34.5 11 35.5 16 32.5 19v227q-35 14-65.5 21.5t-58.5 7.5q-35 0-59.5-21t-24.5-71v-127z" glyph-name="d" horiz-adv-x="513" unicode="&#x64;"/><glyph d="M152 213v-25q0-26 9-44.5t23.5-30 34-17 40.5-5.5q23 0 55.5 8t64.5 37l31.5-36.5t30.5-36.5q-42-41-88.5-54.5t-93.5-13.5q-43 0-81.5 11t-68 33.5-46.5 56.5-17 80v130q0 45 15.5 81t43.5 61 65 38.5 81 13.5q45 0 83-13t65.5-37.5 42.5-59.5 15-80v-97h-305zM350 304q0 52-29 75.5t-69 23.5-69.5-24.5-29.5-73.5v-16h197v15z" glyph-name="e" horiz-adv-x="495" unicode="&#x65;"/><glyph d="M187 405v-405h-104v405h-59v90h59v86q0 34 11 59.5t29.5 42.5 43.5 25 54 8h88v-91h-73q-29 0-39-16t-10-40v-74h122v-90h-122z" glyph-name="f" horiz-adv-x="310" unicode="&#x66;"/><glyph d="M463-29q0-44-19.5-77.5t-51-56-70.5-33.5-79-11q-45 0-95.5 15.5t-92.5 57.5l67 73q12-12 27.5-21t32.5-15 33-8.5 28-2.5q22 0 42.5 5.5t36 17.5 25 31 9.5 47v53q-47-29-85.5-38.5t-64.5-9.5q-78 0-121 47t-43 130v146q0 86 45.5 133t120.5 47q27 0 63-11t85-42l10 47h97v-524zM149 189q0-50 21-70.5t54-19.5q28 0 63.5 13t68.5 34v201q-32 23-68.5 37.5t-63.5 14.5q-33 0-54-20t-21-70v-120z" glyph-name="g" horiz-adv-x="511" unicode="&#x67;"/><glyph d="M364 0v309q0 25-6 42.5t-16.5 28-24.5 15-30 4.5q-27 0-61-13t-72-37v-349h-106v716h106v-271q57 37 94.5 46.5t64.5 9.5q82 0 120-47.5t38-130.5v-323h-107z" glyph-name="h" horiz-adv-x="513" unicode="&#x68;"/><glyph d="M74 0v495h106v-495h-106zM66 637q0 26 17.5 43.5t42.5 17.5q26 0 43.5-17.5t17.5-43.5-17.5-43.5-43.5-17.5q-25 0-42.5 17.5t-17.5 43.5z" glyph-name="i" horiz-adv-x="254" unicode="&#x69;"/><glyph d="M189-52q0-78-41-114.5t-110-36.5h-53v94h36q37 0 49.5 17t12.5 56v531h106v-547zM76 638q0 25 17 42.5t43 17.5 43.5-17.5 17.5-42.5q0-26-17.5-43.5t-43.5-17.5-43 17.5-17 43.5z" glyph-name="j" horiz-adv-x="257" unicode="&#x6a;"/><glyph d="M47 0v716h107v-379h57q30 0 51.5 12t39.5 48l51 100h119l-60-125q-14-29-30-49t-46-31q21-7 35-18.5t23-25.5 15-30 11-32l62-186h-118l-51 160q-14 44-35 60t-60 16h-64v-236h-107z" glyph-name="k" horiz-adv-x="499" unicode="&#x6b;"/><glyph d="M181 145q0-36 15-45t56-9l2-92q-15-3-29-4t-26-1q-40 0-64 9.5t-37.5 27-18 42-4.5 55.5v588h106v-571z" glyph-name="l" horiz-adv-x="281" unicode="&#x6c;"/><glyph d="M292 501q46 0 77.5-19t48.5-53q31 24 54.5 38t42.5 21.5 34 10 28 2.5q76 0 114.5-44.5t38.5-127.5v-329h-106v314q0 45-18 64.5t-53 19.5q-24 0-51-13t-63-41q1-11 1.5-20t.5-20v-304h-107v316q0 46-19.5 64t-46.5 18-53-10.5-64-36.5v-351h-107v495h97l9-51q52 37 84 47t58 10z" glyph-name="m" horiz-adv-x="774" unicode="&#x6d;"/><glyph d="M362 0v309q0 51-22 70.5t-55 19.5q-27 0-61-13t-72-37v-349h-106v495h96l10-49q30 18 54.5 29t44 17 35 7.5 28.5 1.5q78 0 116.5-47t38.5-130v-324h-107z" glyph-name="n" horiz-adv-x="513" unicode="&#x6e;"/><glyph d="M466 175q0-44-17.5-78t-47-56.5-67.5-34-79-11.5q-42 0-80.5 11.5t-67 34-45.5 56.5-17 78v144q0 44 17.5 78t46.5 57 67 35 80 12q45 0 83-12t66.5-35.5 44.5-57.5 16-78v-143zM361 300q0 28-9.5 47.5t-24.5 31.5-34 17.5-37 5.5-37-5.5-34-17.5-24.5-31.5-9.5-47.5v-105q0-56 31-79t74-23q18 0 37 5.5t34 17.5 24.5 31.5 9.5 47.5v105z" glyph-name="o" horiz-adv-x="512" unicode="&#x6f;"/><glyph d="M471 172q0-83-45.5-130.5t-128.5-47.5q-26 0-62 5t-79 25v-222h-106v693h96l10-49q51 31 87 42.5t62 11.5q77 0 121.5-43.5t44.5-135.5v-149zM364 312q0 50-21.5 68.5t-54.5 18.5q-13 0-29.5-4t-34.5-11-35.5-16-32.5-19v-226q40-17 68.5-23t55.5-6q17 0 32.5 4t27 14.5 18 27.5 6.5 42v130z" glyph-name="p" horiz-adv-x="514" unicode="&#x70;"/><glyph d="M43 322q0 88 46.5 133.5t121.5 45.5q26 0 61.5-10.5t86.5-40.5l10 45h95v-694h-106v241q-52-29-88-38t-62-9q-78 0-121.5 47.5t-43.5 130.5v149zM150 187q0-50 21.5-70t54.5-19q27 0 61.5 12.5t70.5 35.5v209q-32 19-69.5 33t-62.5 14q-33 0-54.5-21t-21.5-70v-124z" glyph-name="q" horiz-adv-x="509" unicode="&#x71;"/><glyph d="M349 391q-66-6-109.5-22t-72.5-34v-335h-106v496h96l9-73h1q13 13 33.5 27t45 25.5 51 19 52.5 7.5v-111z" glyph-name="r" horiz-adv-x="356" unicode="&#x72;"/><glyph d="M232-6q-54 0-105 13t-105 56l58 77q37-31 75-42.5t80-11.5q35 0 62.5 15t27.5 46q0 26-18 38.5t-53 18.5q-36 6-73 13.5t-67 22.5-49 40.5-19 67.5q0 36 15 64.5t40.5 48 58.5 30 70 10.5q57 0 102.5-11.5t89.5-43.5l-52-79q-36 23-70 31.5t-69 8.5q-38 0-59.5-17t-21.5-40 21-33.5 52.5-17l68.5-13.5t68.5-22 52.5-42.5 21-74.5q0-36-15.5-64.5t-43-48-64.5-30-79-10.5z" glyph-name="s" horiz-adv-x="460" unicode="&#x73;"/><glyph d="M27 405v90h68l21 119h82v-119h129v-90h-129v-224q0-47 13-67.5t56-20.5q13 0 34 2.5t43 9.5l21-93q-30-11-63.5-14t-53.5-3q-44 0-73.5 11.5t-47.5 33-26 53-8 71.5v241h-66z" glyph-name="t" horiz-adv-x="370" unicode="&#x74;"/><glyph d="M151 495v-310q0-50 23-70t55-20q55 0 132 54v346h107v-495h-97l-10 48q-58-35-93.5-44.5t-60.5-9.5q-81 0-122 49.5t-41 132.5v319h107z" glyph-name="u" horiz-adv-x="516" unicode="&#x75;"/><glyph d="M245 139q1 4 5 17.5l9.5 32 12 38.5 12 38.5 9.5 32t6 17.5l57 180h116l-177-495h-109l-178 495h118l58-178 56-178h5z" glyph-name="v" horiz-adv-x="480" unicode="&#x76;"/><glyph d="M356 305l-50-160-47-145h-104l-140 496h111l43-170 41-173h4l57 173 40 122h97l45-136 50-161h5l41 176 42 169h108l-135-496h-105l-49 149-50 156h-4z" glyph-name="w" horiz-adv-x="714" unicode="&#x77;"/><glyph d="M337 0l-104 171-106-171h-126l175 253-166 243h127l96-161 98 161h127l-168-241 175-255h-128z" glyph-name="x" horiz-adv-x="470" unicode="&#x78;"/><glyph d="M106-200l75 210-36 29-135 457h112l53-203 49-181h3l63 182 67 202h112l-253-696h-110z" glyph-name="y" horiz-adv-x="479" unicode="&#x79;"/><glyph d="M39 0v85l254 319h-240v91h371v-85l-253-317h253v-93h-385z" glyph-name="z" horiz-adv-x="462" unicode="&#x7a;"/><glyph d="M192-99q-50 0-75.5 33t-25.5 102v102q0 56-17.5 89t-59.5 36v69q39 4 58 36.5t19 80.5v133q0 52 29 83t72 31h78v-70h-41q-13 0-21.5-7t-13.5-18.5-7-25-2-26.5v-123q0-29-8-51t-20-37.5-25-25-23-13.5v-2q11-4 24.5-13.5t25-25 19-37 7.5-49.5v-126q0-13 1.5-26.5t6-25 13.5-18.5 23-7h41v-68h-78z" glyph-name="braceleft" horiz-adv-x="278" unicode="&#x7b;"/><glyph d="M69-184v905h84v-905h-84z" glyph-name="bar" horiz-adv-x="222" unicode="&#x7c;"/><glyph d="M267 263q-43-3-60-36t-17-89v-102q0-61-25-98t-76-37h-78v68h41q14 0 22.5 7t13.5 18.5 6.5 25 1.5 26.5v126q0 28 7.5 49.5t19 37 24.5 25 25 13.5v2q-11 4-24 13.5t-24.5 25-19.5 37.5-8 51v123q0 13-1 26.5t-5.5 25-13.5 18.5-24 7h-41v67h76q49 0 76-31t27-80v-133q0-49 19-81t58-36v-69 0z" glyph-name="braceright" horiz-adv-x="278" unicode="&#x7d;"/><glyph d="M164 354q23 0 48-10t49.5-21.5l48-21.5t44.5-10q20 0 38 12.5t42 48.5l66-47q-29-51-64-76t-82-25q-23 0-47 10t-48.5 21.5-49 21.5-47.5 10q-25 0-43-12.5t-39-41.5l-62 50q26 45 61.5 68t84.5 23z" glyph-name="asciitilde" horiz-adv-x="517" unicode="&#x7e;"/><glyph d="M320 632q0 24 17.5 41t41.5 17 41-17 17-41-17-41-41-17-41.5 17-17.5 41zM69 632q0 24 17 41t41 17 41-17 17-41-17-41-41-17-41 17-17 41zM181 565l66 189 100-24-102-185z" glyph-name="dieresistonos" horiz-adv-x="506" unicode="&#x385;"/><glyph d="M190 570l76 185 98-31-111-178z" glyph-name="acute" horiz-adv-x="499" unicode="&#xb4;"/><glyph d="M404 535q-29 39-61 52.5t-64 13.5q-14 0-29-5.5t-28.5-16.5-22-28.5-8.5-41.5q0-18 4.5-35.5t11.5-35.5 13.5-36.5 11.5-39.5h153v-80h-148q-2-49-13.5-97t-40.5-93h299v-92h-433v79q34 45 56 94t25 109h-83v80h68q-5 19-12 37.5t-13 37-10.5 37-4.5 37.5q0 36 13 69.5t38 59.5 62.5 41.5 86.5 15.5q64 0 115-20.5t93-76.5z" glyph-name="sterling" horiz-adv-x="517" unicode="&#xa3;"/><glyph d="M233 279h-74v343h-122v71h317v-71h-121v-343zM742 533l-43-79-62-115h-56l-61 107-46 87h-3v-254h-74v415h69l87-157 55-108h3l56 109 83 156h69v-415h-74v254h-3z" glyph-name="trademark" horiz-adv-x="883" unicode="&#x2122;"/><glyph d="M81 280q0 29 11 54.5t30 44.5 44.5 30 54.5 11 55-11 45-30 30-44.5 11-54.5-11-54.5-30-44.5-45-30-55-11-54.5 11-44.5 30-30 44.5-11 54.5z" glyph-name="bullet" horiz-adv-x="431" unicode="&#x2022;"/><glyph d="M775 112q0-28-12-49.5t-32-36.5-46-22.5-53-7.5q-28 0-54 7.5t-46 22.5-32 36.5-12 49.5v189q0 28 12.5 49.5t32.5 36.5 46 23 53 8 52.5-8 46-23 32.5-36.5 12-49.5v-189zM693 289q0 15-5.5 25t-14.5 16.5-20 9.5-21 3-20.5-3-19.5-9.5-14.5-16.5-5.5-25v-167q0-14 5.5-24t14.5-16 19.5-9 20.5-3 21 3 20 9 14.5 16 5.5 24v167zM337 387q0-28-12-49.5t-32-36.5-46-22.5-53-7.5q-28 0-54 7.5t-46 22.5-32 36.5-12 49.5v189q0 28 12 49.5t32.5 36.5 46.5 23 53 8 52.5-8 46-23 32.5-36.5 12-49.5v-189zM255 564q0 15-5.5 25t-14.5 16.5-20 9.5-21 3-20.5-3-19.5-9.5-14.5-16.5-5.5-25v-167q0-14 5.5-24t14.5-16 19.5-9 20.5-3 21 3 20 9 14.5 16 5.5 24v167zM241-17h-78l425 730h79zM1112 112q0-28-12-49.5t-32.5-36.5-46.5-22.5-53-7.5q-28 0-54 7.5t-45.5 22.5-31.5 36.5-12 49.5v189q0 28 12 49.5t32.5 36.5 46 23 52.5 8 53-8 46.5-23 32.5-36.5 12-49.5v-189zM1030 289q0 15-6 25t-15 16.5-20 9.5-21 3q-20 0-39.5-12.5t-19.5-41.5v-167q0-14 5.5-24t14-16 19-9 20.5-3 21 3 20 9 15 16 6 24v167z" glyph-name="perthousand" horiz-adv-x="1163" unicode="&#x2030;"/><glyph d="M429 325v-69h-236v-35q0-33 12-56.5t32-38 45-21.5 51-7q32 0 66 8t65 28q14-23 26-45t26-45q-35-23-82.5-37t-100.5-14q-54 0-100.5 15t-81 44-54 71-19.5 96v37h-45v69h396zM33 368v69h45v31q0 54 20.5 96t55.5 71 81 44.5 97 15.5 96.5-11.5 83.5-36.5l-54-91q-28 17-60.5 25.5t-63.5 8.5q-26 0-51.5-7t-45.5-21.5-32-38-12-56.5v-30h236v-69h-396z" glyph-name="Euro" horiz-adv-x="517" unicode="&#x20ac;"/><glyph d="M156 0h-106v511q0 46 14.5 83.5t41 64 63.5 41 82 14.5q55 0 92.5-16.5t60.5-42 33-56.5 10-59q0-14-3.5-32t-11-36-20-34-30.5-27q23-8 40-23.5t27.5-35.5 15.5-43 5-46l1-91q0-83-45.5-130.5t-123.5-47.5q-11 0-25 .5t-29 2.5l2 96h33q24 0 40 7.5t25 21 12.5 30.5 3.5 37v75q0 44-27.5 67t-69.5 23h-9v85h5q22 0 38 9.5t26.5 24 15.5 30.5 5 30q0 17-5.5 34t-17.5 30-30 21-43 8q-27 0-45.5-9t-30-23.5-16.5-32-5-34.5z" glyph-name="germandbls" horiz-adv-x="514" unicode="&#xdf;"/><glyph d="M343 561q0-29-11.5-54.5t-31-44.5-45.5-30-56-11-56 11-45.5 30-31 44.5-11.5 54.5 11.5 55 31 45 45.5 30 56 11 56-11 45.5-30 31-45 11.5-55zM272 561q0 30-21 51t-52 21q-30 0-51.5-21t-21.5-51q0-29 21.5-50.5t51.5-21.5q31 0 52 21.5t21 50.5z" glyph-name="degree" horiz-adv-x="399" unicode="&#xb0;"/><glyph d="M125 204q-31 0-53 22t-22 53q0 32 22.5 53.5t52.5 21.5 52-21.5 22-53.5q0-31-21-53t-53-22z" glyph-name="periodcentered" horiz-adv-x="248" unicode="&#xb7;"/><glyph d="M437 149h-257l-49-149h-121l241 689h116l241-689h-124zM213 248h191l-41 129-53 175h-4l-51-168z" glyph-name="Alpha" horiz-adv-x="617" unicode="&#x391;"/><glyph d="M61 689h467v-103h-353v-189h302v-103h-302v-192h353v-102h-467v689z" glyph-name="Epsilon" horiz-adv-x="567" unicode="&#x395;"/><glyph d="M35 99l325 487h-312v103h450v-96l-330-491h329v-102h-462v99z" glyph-name="Zeta" horiz-adv-x="531" unicode="&#x396;"/><glyph d="M459 0v298h-289v-298h-114v689h114v-288h289v288h116v-689h-116z" glyph-name="Eta" horiz-adv-x="631" unicode="&#x397;"/><glyph d="M176 358l110 137 161 194h137l-226-275 245-414h-134l-93.5 161-93.5 161-55.5-65.5-54.5-65.5v-191h-115v689h115v-331h4z" glyph-name="Kappa" horiz-adv-x="609" unicode="&#x39a;"/><glyph d="M587 420l-64-130-97-191h-84l-94 180-71 141h-4v-420h-114v689h107l131-262 85-177h6l84 179 128 260h105v-689h-114v420h-4z" glyph-name="Mu" horiz-adv-x="763" unicode="&#x39c;"/><glyph d="M449 663q61-2 112-22.5t87-54 56-79 20-97.5v-95q0-54-19.5-100t-55-80.5-86.5-55-114-22.5v-57h-115v57q-64 3-115 23t-86.5 54-54.5 79.5-19 99.5v97q0 52 20.5 97.5t57 79 87 54 110.5 22.5v33h115v-33zM611 399q0 36-12 65t-33 50-51 32.5-66 12.5v-399q35 1 64.5 12.5t51.5 32 34 49.5 12 66v79zM172 320q0-37 12.5-66t34.5-49.5 51.5-32 63.5-12.5v399q-35-1-64.5-12.5t-51.5-32.5-34-50-12-65v-79z" glyph-name="Phi" horiz-adv-x="782" unicode="&#x3a6;"/><glyph d="M282 382l66 150 74 157h122l-208-422v-267h-115v267l-210 422h124l75-161 65-146h7zM319 805q0 24 17 41t41 17q25 0 42-17t17-41-17-41-42-17q-24 0-41 17t-17 41zM123 805q0 24 17 41t40 17q25 0 42-17t17-41-17-41-42-17q-23 0-40 17t-17 41z" glyph-name="Upsilondieresis" horiz-adv-x="556" unicode="&#x3ab;"/><glyph d="M713 369q0-52-22-95t-59.5-74-86-49.5-102.5-21.5v-129h-114v129q-55 3-104 21.5t-85.5 50.5-58 76-21.5 97v315h111v-305q0-36 14.5-63.5t37.5-46.5 51-29.5 55-12.5v460h114v-460q27 1 55 11t51.5 28 38.5 45 15 62v311h110v-320 0z" glyph-name="Psi" horiz-adv-x="769" unicode="&#x3a8;"/><glyph d="M43 322q0 88 46.5 133.5t121.5 45.5q26 0 61.5-10.5t86.5-40.5l10 45h95v-495h-96l-10 42q-52-29-88-38t-62-9q-78 0-121.5 47.5t-43.5 130.5v149zM150 187q0-50 21.5-70t54.5-19q27 0 61.5 12.5t70.5 35.5v209q-32 19-69.5 33t-62.5 14q-33 0-54.5-21t-21.5-70v-124zM205 570l76 185 98-31-111-178z" glyph-name="alphatonos" horiz-adv-x="513" unicode="&#x3ac;"/><glyph d="M173 473v-473h-114v689h106l205-305 111-171h6v476h114v-689h-107l-208 310-106 163h-7z" glyph-name="Nu" horiz-adv-x="660" unicode="&#x39d;"/><glyph d="M572 223q0-54-20-97t-55.5-72.5-83-45-101.5-15.5q-55 0-102.5 15.5t-82 45-54.5 72.5-20 97v245q0 54 20.5 96t55.5 71.5 82 45 101 15.5q53 0 100.5-16t83-45.5 56-72 20.5-96.5v-243zM457 449q0 37-12 64t-32 44.5-46.5 25.5-54.5 8q-29 0-55-8t-45.5-25.5-31.5-44.5-12-64v-209q0-38 12-65t32-44 46-25 54-8 54.5 8 46.5 25 32 44 12 65v209z" glyph-name="Omicron" horiz-adv-x="625" unicode="&#x39f;"/><glyph d="M282 382l66 150 74 157h122l-208-422v-267h-115v267l-210 422h124l75-161 65-146h7z" glyph-name="Upsilon" horiz-adv-x="556" unicode="&#x3a5;"/><glyph d="M286 258l-148-258h-130l216 353-203 336h131l134-241 135 241h130l-202-336 216-353h-130z" glyph-name="Chi" horiz-adv-x="572" unicode="&#x3a7;"/><glyph d="M437 149h-257l-49-149h-121l241 689h116l241-689h-124zM213 248h191l-41 129-53 175h-4l-51-168zM-39 534l76 185 98-31-111-178z" glyph-name="Alphatonos" horiz-adv-x="617" unicode="&#x386;"/><glyph d="M61 689h467v-103h-353v-189h302v-103h-302v-192h353v-102h-467v689zM-146 534l76 185 98-31-111-178z" glyph-name="Epsilontonos" horiz-adv-x="567" unicode="&#x388;"/><glyph d="M468 213v-25q0-27 10-45.5t26-29.5 37-16 44-5 52.5 9.5 58.5 34.5q15-19 30.5-36.5l31.5-36.5q-42-41-88.5-54.5t-93.5-13.5q-48 0-90.5 13.5t-71.5 42.5q-29-28-70.5-42t-87.5-14q-43 0-81 11.5t-66.5 34-45.5 56.5-17 78v144q0 44 17 78t46 57 67 35 80 12q50 0 91-15t69-43q28 27 67 42t85 15q45 0 82.5-13t65-38 42.5-60 15-79v-97h-305zM362 302q-1 28-10.5 47t-24.5 31-33.5 17-36.5 5-37-5.5-34-17.5-24.5-31.5-9.5-47.5v-105q0-56 31-79t74-23q18 0 36 5t33 16.5 25 30 11 45.5v112zM666 304q0 52-29 75.5t-69 23.5q-42 0-70.5-26t-28.5-79v-9h197v15z" glyph-name="oe" horiz-adv-x="812" unicode="&#x153;"/><glyph d="M328 484q0-27-19.5-46.5t-47.5-19.5q-29 0-48.5 19.5t-19.5 46.5 19.5 46 48.5 19q28 0 47.5-19t19.5-46zM25 255v80h471v-80h-471zM328 104q0-28-19.5-46.5t-47.5-18.5q-29 0-48.5 18.5t-19.5 46.5q0 27 19.5 46t48.5 19q28 0 47.5-19t19.5-46z" glyph-name="divide" horiz-adv-x="517" unicode="&#xf7;"/><glyph d="M459 0v298h-289v-298h-114v689h114v-288h289v288h116v-689h-116zM-155 534l76 185 98-31-111-178z" glyph-name="Etatonos" horiz-adv-x="631" unicode="&#x389;"/><glyph d="M194 689v-689h-114v689h114zM-128 534l76 185 98-31-111-178z" glyph-name="Iotatonos" horiz-adv-x="274" unicode="&#x38a;"/><glyph d="M572 223q0-54-20-97t-55.5-72.5-83-45-101.5-15.5q-55 0-102.5 15.5t-82 45-54.5 72.5-20 97v245q0 54 20.5 96t55.5 71.5 82 45 101 15.5q53 0 100.5-16t83-45.5 56-72 20.5-96.5v-243zM457 449q0 37-12 64t-32 44.5-46.5 25.5-54.5 8q-29 0-55-8t-45.5-25.5-31.5-44.5-12-64v-209q0-38 12-65t32-44 46-25 54-8 54.5 8 46.5 25 32 44 12 65v209zM-120 534l76 185 98-31-111-178z" glyph-name="Omicrontonos" horiz-adv-x="625" unicode="&#x38c;"/><glyph d="M282 382l66 150 74 157h122l-208-422v-267h-115v267l-210 422h124l75-161 65-146h7zM-179 534l76 185 98-31-111-178z" glyph-name="Upsilontonos" horiz-adv-x="556" unicode="&#x38e;"/><glyph d="M466 175q0-44-17.5-78t-47-56.5-67.5-34-79-11.5q-42 0-80.5 11.5t-67 34-45.5 56.5-17 78v144q0 44 17.5 78t46.5 57 67 35 80 12q45 0 83-12t66.5-35.5 44.5-57.5 16-78v-143zM361 300q0 28-9.5 47.5t-24.5 31.5-34 17.5-37 5.5-37-5.5-34-17.5-24.5-31.5-9.5-47.5v-105q0-56 31-79t74-23q18 0 37 5.5t34 17.5 24.5 31.5 9.5 47.5v105zM211 569l76 186 98-31-112-178z" glyph-name="omicrontonos" horiz-adv-x="512" unicode="&#x3cc;"/><glyph d="M369 0v122q38 11 67 44t29 92v190q0 38-12 65t-32 44.5-46 25.5-54 8q-29 0-55-8t-46-25.5-32-44.5-12-65v-190q0-30 8-52.5t21.5-39.5 31.5-28 37-17v-121h-226v101h82q-34 25-51.5 65t-17.5 85v216q0 54 21 96.5t56.5 72 82.5 45 100 15.5 100-15.5 82.5-45 56-72 20.5-96.5v-216q0-45-17.5-85t-50.5-65h83v-101h-226zM-111 534l76 185 98-31-111-178z" glyph-name="Omegatonos" horiz-adv-x="642" unicode="&#x38f;"/><glyph d="M422 58q-42-37-87.5-49.5t-95.5-12.5q-95 0-144 41t-49 110q0 11 4 26t12.5 30 22.5 29 34 22v2q-21 8-34.5 19.5t-21 24-10 26-2.5 24.5q0 29 12.5 56t36.5 48 58.5 33.5 79.5 12.5q50 0 94-13t85-48l-60-74q-26 23-55.5 31t-56.5 8q-12 0-27.5-4t-29-11.5-23-18.5-9.5-26q0-24 18.5-37.5t50.5-13.5h81v-84h-85q-32 0-51.5-15.5t-19.5-43.5q0-22 20-40.5t72-18.5q26 0 58.5 8t58.5 34l63-75v0z" glyph-name="epsilon" horiz-adv-x="438" unicode="&#x3b5;"/><glyph d="M378-5q0-49 .5-97t.5-97h-107v194q-44 0-85 13t-73 37-51 58-19 77v138q0 36 13 65.5t35 52 50 36.5 58 20q5-24 9.5-48.5t9.5-48.5q-26-8-47.5-32t-21.5-66v-97q0-21 9.5-40.5t26-34 38.5-23.5 48-10v360q45 25 84 37t79 12q37 0 69.5-13t56.5-37 37.5-57.5 13.5-74.5v-139q0-46-21.5-80.5t-55.5-58-75.5-35-81.5-11.5zM506 306q0 50-22.5 70t-53.5 20q-11 0-24.5-3.5t-26.5-8.5v-291q26 0 49 5.5t40.5 18.5 27.5 33.5 10 49.5v106z" glyph-name="phi" horiz-adv-x="653" unicode="&#x3c6;"/><glyph d="M162 411q20-58 38.5-125.5t37.5-125.5h4l14.5 43t14 47 13.5 47 14 42l28 78.5 29 77.5h112q-45-115-88.5-240l-86.5-240v-215h-106v210l-29 85-30 90.5-30 90-29 83.5q-6 17-10.5 26.5t-9.5 14.5-12.5 6-17.5 1h-6l-4 42-4 42q17 5 32.5 7.5t27.5 2.5q40 0 61.5-19.5t36.5-70.5z" glyph-name="gamma" horiz-adv-x="469" unicode="&#x3b3;"/><glyph d="M362 0v309q0 51-22 70.5t-55 19.5q-27 0-61-13t-72-37v-349h-106v495h96l10-49q30 18 54.5 29t44 17 35 7.5 28.5 1.5q78 0 116.5-47t38.5-130v-324h-107z" glyph-name="eta" horiz-adv-x="513" unicode="&#x3b7;"/><glyph d="M74 0v496h106v-496h-106z" glyph-name="iota" horiz-adv-x="254" unicode="&#x3b9;"/><glyph d="M268-154q3 16 8 35.5t11 39.5 13 39 15 34q-51 1-100.5 12.5t-88 36-62.5 65.5-24 103q0 19 5 44.5t18 51.5 34 48.5 54 34.5q-28 10-46 26.5t-28.5 36-14.5 39-4 35.5q0 42 16 75.5t43.5 57 65.5 36 82 12.5q15 0 36-1t45-5 49.5-12.5 48.5-23.5l-43-85q-39 23-74 28.5t-62 5.5q-47 0-76.5-27t-29.5-65q0-21 9.5-38t25.5-29 37-18.5 44-6.5h104v-83h-122q-26 0-47-11.5t-37-30-24.5-42-8.5-48.5q0-44 20.5-70t53-39.5 71.5-17.5 77-4q9 0 17.5.5t17.5.5l37-72q-12-16-22.5-38t-20-47-17.5-52-13-52z" glyph-name="xi" horiz-adv-x="434" unicode="&#x3be;"/><glyph d="M50 0v496h106v-198h63q30 0 54 12t40 56l45 130h112l-51-144q-12-36-28.5-59.5t-45.5-33.5q35-10 51-35.5t28-62.5l55-161h-116l-41 134q-7 23-16.5 37t-21.5 21.5-26.5 10-32.5 2.5h-69v-205h-106z" glyph-name="kappa" horiz-adv-x="504" unicode="&#x3ba;"/><glyph d="M469 0h-107v346q-36 14-66.5 21.5t-57.5 7.5q-35 0-59.5-21t-24.5-71v-283h-107v297q0 41 12.5 74t35.5 56 55 35.5 71 12.5q26 0 62.5-6t78.5-23v66q0 21-5 39.5t-16.5 33-30.5 22.5-47 8q-35 0-69.5-8.5t-63.5-23.5l-37 85q50 26 96.5 36t91.5 10q99 0 143.5-54t44.5-151v-509z" glyph-name="lambda" horiz-adv-x="517" unicode="&#x3bb;"/><glyph d="M245 139q1 4 5 17.5l9.5 32 12 38.5 12 38.5 9.5 32t6 17.5l57 180h116l-177-495h-109l-178 495h118l58-178 56-178h5z" glyph-name="nu" horiz-adv-x="474" unicode="&#x3bd;"/><glyph d="M466 175q0-44-17.5-78t-47-56.5-67.5-34-79-11.5q-42 0-80.5 11.5t-67 34-45.5 56.5-17 78v144q0 44 17.5 78t46.5 57 67 35 80 12q45 0 83-12t66.5-35.5 44.5-57.5 16-78v-143zM361 300q0 28-9.5 47.5t-24.5 31.5-34 17.5-37 5.5-37-5.5-34-17.5-24.5-31.5-9.5-47.5v-105q0-56 31-79t74-23q18 0 37 5.5t34 17.5 24.5 31.5 9.5 47.5v105z" glyph-name="omicron" horiz-adv-x="512" unicode="&#x3bf;"/><glyph d="M363 0v402h-208v-402h-106v495h421v-495h-107z" glyph-name="pi" horiz-adv-x="517" unicode="&#x3c0;"/><glyph d="M387 71q-26-37-64.5-56.5t-82.5-19.5q-39 0-74 11.5t-62 34-43 56-16 78.5v144q0 39 14 70t37 53.5 53 36.5 63 19l17-95q-32-6-55.5-31t-23.5-74v-100q0-56 28-80.5t65-24.5 64.5 24.5 27.5 80.5l1 163h105v-163q0-48 24.5-76.5t68.5-28.5q37 0 64.5 24.5t27.5 80.5v100q0 48-22 73t-53 31l16 96q32-5 61.5-19t52.5-36.5 37-53.5 14-70v-143q0-45-16.5-78.5t-43.5-56.5-62.5-34.5-74.5-11.5q-43 0-84.5 18.5t-62.5 57.5h-1zM336 570l76 185 98-31-111-178z" glyph-name="omegatonos" horiz-adv-x="776" unicode="&#x3ce;"/><glyph d="M464 172q0-83-45-130.5t-123-47.5q-26 0-65 5t-81 26v-224h-107v521q0 44 18.5 77.5t48.5 56 67.5 34 76.5 11.5 76.5-11.5 67-34 48-56.5 18.5-78v-149zM149 126q35-18 69-24.5t61-6.5q34-1 56.5 20.5t22.5 71.5v114q0 28-9.5 47.5t-24.5 31.5-33.5 17.5-36.5 5.5-37-5.5-34-17.5-24.5-31.5-9.5-47.5v-175z" glyph-name="rho" horiz-adv-x="505" unicode="&#x3c1;"/><glyph d="M422 402q19-15 30.5-37t11.5-48v-145q0-45-19-78t-49-55-67.5-33-74.5-11q-38 0-75.5 11t-67.5 33-49 55-19 78v145q0 44 19 77.5t49.5 56 68 34 74.5 11.5q63 0 126.5-.5t127.5-.5v-93h-86zM359 296q0 28-9.5 47.5t-24.5 31.5-34 17.5-37 5.5-37-5.5-34-17.5-24.5-31.5-9.5-47.5v-101q0-28 9.5-47.5t24.5-31.5 34-17.5 37-5.5 37 5.5 34 17.5 24.5 31.5 9.5 47.5v101z" glyph-name="sigma" horiz-adv-x="527" unicode="&#x3c3;"/><glyph d="M18 406v90h340v-90h-139v-225q0-26 5-43t14-27 23-13.5 32-3.5q16 0 35.5 2t41.5 5l13-89q-30-11-62.5-14t-51.5-3q-44 0-73.5 10t-47.5 29.5-26 49.5-8 70l-1 252h-95z" glyph-name="tau" horiz-adv-x="396" unicode="&#x3c4;"/><glyph d="M467 173q0-45-18.5-78t-48.5-55.5-68-33.5-77-11-76.5 11-67.5 33.5-48 55.5-18 78v359q0 44 18.5 77.5t48.5 56 67.5 34 76.5 11.5q40 0 78-11.5t67.5-34 47.5-56.5 18-78v-358zM360 324h-209v-129q0-28 9.5-47.5t25-31.5 34.5-17.5 37-5.5 36.5 5.5 33 17.5 24 31.5 9.5 47.5v129zM151 411h209v100q0 28-9.5 47.5t-24 31.5-33 17.5-36.5 5.5-37-5.5-34.5-17.5-25-31.5-9.5-47.5v-100z" glyph-name="theta" horiz-adv-x="511" unicode="&#x3b8;"/><glyph d="M387 71q-26-37-64.5-56.5t-82.5-19.5q-39 0-74 11.5t-62 34-43 56-16 78.5v144q0 39 14 70t37 53.5 53 36.5 63 19l17-95q-32-6-55.5-31t-23.5-74v-100q0-56 28-80.5t65-24.5 64.5 24.5 27.5 80.5l1 163h105v-163q0-48 24.5-76.5t68.5-28.5q37 0 64.5 24.5t27.5 80.5v100q0 48-22 73t-53 31l16 96q32-5 61.5-19t52.5-36.5 37-53.5 14-70v-143q0-45-16.5-78.5t-43.5-56.5-62.5-34.5-74.5-11.5q-43 0-84.5 18.5t-62.5 57.5h-1z" glyph-name="omega" horiz-adv-x="776" unicode="&#x3c9;"/><glyph d="M232-6q-54 0-105 13t-105 56l58 77q37-31 75-42.5t80-11.5q35 0 62.5 15t27.5 46q0 26-18 38.5t-53 18.5q-36 6-73 13.5t-67 22.5-49 40.5-19 67.5q0 36 15 64.5t40.5 48 58.5 30 70 10.5q57 0 102.5-12t89.5-44l-52-79q-36 23-70 32t-69 9q-38 0-59.5-17t-21.5-40 21-33.5 52.5-17l68.5-13.5t68.5-22 52.5-42.5 21-74.5q0-36-15.5-64.5t-43-48-64.5-30-79-10.5z" glyph-name="sigma1" horiz-adv-x="460" unicode="&#x3c2;"/><glyph d="M337 0l-104 171-106-171h-126l175 253-166 243h127l96-161 98 161h127l-168-241 175-255h-128z" glyph-name="chi" horiz-adv-x="470" unicode="&#x3c7;"/><glyph d="M467 173q0-45-18.5-78t-48.5-55.5-68-33.5-77-11-77 11-67.5 33.5-47.5 55.5-18 78v323h106v-301q0-28 8.5-47.5t23-31.5 33.5-17.5 40-5.5q18 0 36.5 5.5t33.5 17.5 24.5 31.5 9.5 47.5v301h107v-323 0z" glyph-name="upsilon" horiz-adv-x="513" unicode="&#x3c5;"/><glyph d="M255-158q3 16 8 37t12 42.5 15 42 16 34.5q-45 3-92 13t-86 33-65 61.5-29 97.5q-2 47 15 100t51 107.5 83.5 107 111.5 98.5h-242v92h383v-83q-65-48-120.5-102t-95-108-61-105.5-19.5-93.5q2-36 18.5-60.5t43.5-39 62.5-20.5 76.5-6h43l37-72q-12-16-22.5-39t-20-49-17-53.5-13.5-53.5z" glyph-name="zeta" horiz-adv-x="409" unicode="&#x3b6;"/><glyph d="M74 0v496h106v-496h-106zM172 632q0 24 17 41t41 17q25 0 42-17t17-41-17-41-42-17q-24 0-41 17t-17 41zM-24 632q0 24 17 41t40 17q25 0 42-17t17-41-17-41-42-17q-23 0-40 17t-17 41z" glyph-name="iotadieresis" horiz-adv-x="254" unicode="&#x3ca;"/><glyph d="M467 173q0-45-18.5-78t-48.5-55.5-68-33.5-77-11-77 11-67.5 33.5-47.5 55.5-18 78v323h106v-301q0-28 8.5-47.5t23-31.5 33.5-17.5 40-5.5q18 0 36.5 5.5t33.5 17.5 24.5 31.5 9.5 47.5v301h107v-323zM294 632q0 24 17 41t41 17q25 0 42-17t17-41-17-41-42-17q-24 0-41 17t-17 41zM98 632q0 24 17 41t40 17q25 0 42-17t17-41-17-41-42-17q-23 0-40 17t-17 41z" glyph-name="upsilondieresis" horiz-adv-x="513" unicode="&#x3cb;"/><glyph d="M74 0v496h106v-496h-106zM206 632q0 24 17.5 41t41.5 17 41-17 17-41-17-41-41-17-41.5 17-17.5 41zM-45 632q0 24 17 41t41 17 41-17 17-41-17-41-41-17-41 17-17 41zM67 565l66 189 100-24-102-185z" glyph-name="iotadieresistonos" horiz-adv-x="254" unicode="&#x390;"/><glyph d="M467 173q0-45-18.5-78t-48.5-55.5-68-33.5-77-11-77 11-67.5 33.5-47.5 55.5-18 78v323h106v-301q0-28 8.5-47.5t23-31.5 33.5-17.5 40-5.5q18 0 36.5 5.5t33.5 17.5 24.5 31.5 9.5 47.5v301h107v-323zM320 632q0 24 17.5 41t41.5 17 41-17 17-41-17-41-41-17-41.5 17-17.5 41zM69 632q0 24 17 41t41 17 41-17 17-41-17-41-41-17-41 17-17 41zM181 565l66 189 100-24-102-185z" glyph-name="upsilondieresistonos" horiz-adv-x="513" unicode="&#x3b0;"/><glyph d="M20 226v93h977v-93h-977z" glyph-name="emdash" horiz-adv-x="1017" unicode="&#x2014;"/><glyph d="M228 690q-24-18-39.5-40.5t-17.5-49.5q22-3 36.5-21.5t14.5-44.5q0-27-20-47.5t-50-20.5q-20 0-34.5 7.5t-24.5 20.5-14.5 29.5-4.5 33.5q0 29 9 56.5t24.5 51.5 37 43 46.5 31z" glyph-name="quoteleft" horiz-adv-x="298" unicode="&#x2018;"/><glyph d="M74 516q24 18 39.5 40.5t17.5 49.5q-22 3-36.5 21.5t-14.5 44.5q0 27 20 47.5t50 20.5q20 0 34.5-7.5t24.5-20.5 14.5-29 4.5-34q0-29-9-56.5t-25-51.5-37-43-46-31z" glyph-name="quoteright" horiz-adv-x="298" unicode="&#x2019;"/><glyph d="M214 690q-24-18-39-40.5t-18-49.5q23-3 37-21.5t14-44.5q0-27-20-47.5t-50-20.5q-20 0-34.5 7.5t-24.5 20.5-14.5 29.5-4.5 33.5q0 29 9 56.5t25 51.5 37.5 43 45.5 31zM386 690q-24-18-39-40.5t-18-49.5q23-3 37-21.5t14-44.5q0-27-20-47.5t-50-20.5q-20 0-34.5 7.5t-24.5 20.5-14.5 29.5-4.5 33.5q0 29 9 56.5t25 51.5 37.5 43 45.5 31z" glyph-name="quotedblleft" horiz-adv-x="444" unicode="&#x201c;"/><glyph d="M233 516q24 18 39.5 40.5t17.5 49.5q-22 3-36.5 21.5t-14.5 44.5q0 27 20 47.5t50 20.5q20 0 34.5-7.5t24.5-20.5 14.5-29 4.5-34q0-29-9-56.5t-25-51.5-37-43-46-31zM61 516q24 18 39.5 40.5t17.5 49.5q-22 3-36.5 21.5t-14.5 44.5q0 27 20 47.5t50 20.5q20 0 34.5-7.5t24.5-20.5 14.5-29 4.5-34q0-29-9-56.5t-25-51.5-37-43-46-31z" glyph-name="quotedblright" horiz-adv-x="444" unicode="&#x201d;"/><glyph d="M135-6q-32 0-50 20.5t-18 50.5q0 26 18.5 46.5t48.5 20.5q32 0 51-20.5t19-46.5q0-29-18.5-50t-50.5-21zM419-6q-31 0-49.5 20.5t-18.5 50.5q0 26 18.5 46.5t48.5 20.5q32 0 51.5-20.5t19.5-46.5q0-29-18.5-50t-51.5-21zM700-6q-31 0-49.5 20.5t-18.5 50.5q0 26 18.5 46.5t48.5 20.5q32 0 51.5-20.5t19.5-46.5q0-29-18.5-50t-51.5-21z" glyph-name="ellipsis" horiz-adv-x="839" unicode="&#x2026;"/><glyph d="M20 226v93h468v-93h-468z" glyph-name="endash" horiz-adv-x="508" unicode="&#x2013;"/><glyph d="M45 34l130 195-130 196h99l133-196-133-195h-99zM236 34l130 195-130 196h98l134-196-134-195h-98z" glyph-name="guillemotright" horiz-adv-x="503" unicode="&#xbb;"/><glyph d="M368 34l-133 195 133 196h99l-129-196 129-195h-99zM178 34l-133 195 133 196h98l-130-196 130-195h-98z" glyph-name="guillemotleft" horiz-adv-x="503" unicode="&#xab;"/><glyph d="M279 467h-40v-98h-44v242h99q31 0 52.5-19t21.5-51q0-23-12-40t-33-27l53-105h-50zM239 570v-61h49q16 0 26 8.5t10 23.5q0 29-34 29h-51zM274 280q-45 0-84 16t-67.5 43.5-44.5 66-16 83.5q0 46 16.5 85t45.5 67.5 67.5 44.5 82.5 16q45 0 84-16t67.5-44.5 45-67.5 16.5-85q0-45-16.5-83.5t-45.5-66-67.5-43.5-83.5-16zM274 659q-36 0-66.5-13t-53-35.5-35-53.5-12.5-68q0-36 12.5-66.5t35-53 53-35.5 66.5-13 66.5 13 53 35.5 35.5 53 13 66.5q0 37-13 68t-35.5 53.5-53 35.5-66.5 13z" glyph-name="registered" horiz-adv-x="549" unicode="&#xae;"/><glyph d="M406-11q-75 0-139.5 26.5t-111 73.5-73 111.5-26.5 140.5 27 141 74 112 111 74 138 27q75 0 139-26.5t111-73.5 74-112 27-142q0-76-27-140.5t-74-111.5-111-73.5-139-26.5zM406 628q-59 0-110-22t-88.5-60-59-91-21.5-114 21.5-113 59-90.5 88.5-60 110-21.5q60 0 111 21.5t88.5 60 58.5 90.5 21 113q0 62-21 114.5t-58.5 91-88.5 60-111 21.5zM509 455q-20 17-46 25.5t-52 8.5q-17 0-34.5-5.5t-31-17-22-30-8.5-44.5v-112q0-26 8.5-44.5t22.5-30 31-17 34-5.5q25 0 51 7.5t49 25.5l37-58q-24-20-60-32.5t-77-12.5q-33 0-64.5 10t-55.5 29.5-38.5 48-14.5 64.5v140q0 36 14.5 64.5t38.5 48 55 30 64 10.5q39 0 75-10.5t62-33.5z" glyph-name="copyright" horiz-adv-x="809" unicode="&#xa9;"/><glyph d="M406 307q0-35-13.5-64t-41.5-58q12-14 21.5-35.5t9.5-47.5q0-40-15-69.5t-39.5-49-56-29-65.5-9.5q-39 0-76.5 10t-66.5 31l35 73q23-16 49.5-25t58.5-9q30 0 53.5 16t23.5 49q0 29-19.5 51t-73.5 46q-29 13-55.5 27.5t-47 33.5-32.5 44-12 58q0 28 12.5 59.5t45.5 60.5q-14 16-22 35.5t-8 44.5q0 37 14 66t38 48 55.5 29 66.5 10 72.5-9 65.5-27l-41-76q-24 15-47.5 23t-51.5 8q-13 0-26.5-4t-24-11.5-17-19-6.5-26.5q0-39 44-66 35-21 69.5-37.5t62-36 44.5-46 17-68.5zM167 418q-30-24-30-58 0-21 9.5-35.5t25-25 34.5-19 39-19.5l33-18q31 20 31 52 0 23-13.5 41t-34.5 32.5-46 26.5z" glyph-name="section" horiz-adv-x="445" unicode="&#xa7;"/><glyph d="M50 223h152v44l-15 32h-136v72h105l-140 318h123l117-305h7l116 305h123l-140-318h107v-72h-139l-13-32v-44h152v-69h-152v-154h-115v154h-152v69z" glyph-name="yen" horiz-adv-x="517" unicode="&#xa5;"/><glyph d="M290 379v-559h-100v559h-168v83h168v234h100v-234h169v-83h-169z" glyph-name="dagger" horiz-adv-x="481" unicode="&#x2020;"/><glyph d="M300 301v-174h-84v174h-187v81h187v176h84v-176h187v-81h-187zM27 0v80h461v-80h-461z" glyph-name="plusminus" horiz-adv-x="517" unicode="&#xb1;"/><glyph d="M382 411q23-8 40-23.5t27.5-35.5 15.5-43 5-46v-91q0-83-44.5-130t-122.5-47q-26 0-63 10.5t-84 37.5l-10-43h-96v511q0 46 14.5 83.5t41 64 63.5 41 82 14.5q55 0 92.5-16.5t60.5-42 33-56.5 10-59q0-14-3.5-32t-11-36-20-34-30.5-27zM364 264q0 44-27.5 67t-69.5 23h-54v85h50q22 0 38 9.5t26.5 24 15.5 30.5 5 30q0 17-5.5 34t-17.5 30-30 21-43 8q-27 0-45.5-9t-30-23.5-16.5-32-5-34.5v-387q32-20 68-32.5t62-12.5q46 0 62.5 27.5t16.5 66.5v75z" glyph-name="beta" horiz-adv-x="514" unicode="&#x3b2;"/><glyph d="M170 372h158q50 0 79.5 29.5t29.5 77.5-29.5 77.5-79.5 29.5h-158v-214zM353 689q50 0 87-19t61-49 36-67.5 12-74.5-13.5-74.5-39-68-62-49.5-83.5-19h-181v-268h-114v689h297z" glyph-name="Rho" horiz-adv-x="565" unicode="&#x3a1;"/><glyph d="M609 185q0-46-19.5-81.5t-51.5-59.5-73-36.5-84-12.5l1-195h-106v196q-42 0-83 12.5t-73.5 36.5-52 58.5-19.5 77.5v314h105v-288q0-53 35-83.5t88-30.5v402h106v-402q53 0 87.5 30t34.5 84v288h105v-310 0z" glyph-name="psi" horiz-adv-x="657" unicode="&#x3c8;"/><glyph d="M467 173q0-45-18.5-78t-48.5-55.5-68-33.5-77-11-77 11-67.5 33.5-47.5 55.5-18 78v323h106v-301q0-28 8.5-47.5t23-31.5 33.5-17.5 40-5.5q18 0 36.5 5.5t33.5 17.5 24.5 31.5 9.5 47.5v301h107v-323zM209 570l76 185 98-31-111-178z" glyph-name="upsilontonos" horiz-adv-x="513" unicode="&#x3cd;"/><glyph d="M386 587q-31 19-56.5 27t-57.5 8q-38 0-59-13.5t-21-39.5q0-14 11.5-25.5t29-21.5 38.5-18 40-14q77-25 117-72.5t40-120.5v-118q0-44-18-78.5t-47.5-58-68-35.5-78.5-12q-43 0-81 11.5t-66.5 34.5-45.5 57-17 78v126q0 54 27 96.5t71 63.5q-36 23-49.5 48.5t-13.5 53.5q0 36 14.5 64t39 46.5 57 28.5 68.5 10q53 0 94.5-10.5t81.5-36.5zM362 274q0 59-29.5 90t-95.5 45q-17-7-32-18t-27-27-19-37.5-7-49.5v-81q0-28 9.5-48t25-32.5 34.5-18.5 37-6 36.5 6 33.5 18.5 24.5 32.5 9.5 48v78z" glyph-name="delta" horiz-adv-x="511" unicode="&#x3b4;"/><glyph d="M362 0v309q0 51-22 70.5t-55 19.5q-27 0-61-13t-72-37v-349h-106v495h96l10-49q30 18 54.5 29t44 17 35 7.5 28.5 1.5q78 0 116.5-47t38.5-130v-324h-107zM194 570l76 185 98-31-111-178z" glyph-name="etatonos" horiz-adv-x="513" unicode="&#x3ae;"/><glyph d="M45 0v102h177v194h-124v103h124v187h-177v103h460v-103h-180v-187h128v-103h-128v-194h180v-102h-460z" glyph-name="Xi" horiz-adv-x="554" unicode="&#x39e;"/><glyph d="M30 0v99l157 259-156 236v95h440v-103h-303l152-228-158-257h318v-101h-450z" glyph-name="Sigma" horiz-adv-x="510" unicode="&#x3a3;"/><glyph d="M74 0v496h106v-496h-106zM85 570l76 185 98-31-111-178z" glyph-name="iotatonos" horiz-adv-x="254" unicode="&#x3af;"/><glyph d="M420 296h-214v101h214v-101zM572 223q0-54-20-97t-55.5-72.5-83-45-101.5-15.5q-55 0-102.5 15.5t-82 45-54.5 72.5-20 97v245q0 54 20.5 96t55.5 71.5 82 45 101 15.5q53 0 100.5-16t83-45.5 56-72 20.5-96.5v-243zM457 449q0 37-12 64t-32 44.5-46.5 25.5-54.5 8q-29 0-55-8t-45.5-25.5-31.5-44.5-12-64v-209q0-38 12-65t32-44 46-25 54-8 54.5 8 46.5 25 32 44 12 65v209z" glyph-name="Theta" horiz-adv-x="623" unicode="&#x398;"/><glyph d="M422 58q-42-37-87.5-49.5t-95.5-12.5q-95 0-144 41t-49 110q0 11 4 26t12.5 30 22.5 29 34 22v2q-21 8-34.5 19.5t-21 24-10 26-2.5 24.5q0 29 12.5 56t36.5 48 58.5 33.5 79.5 12.5q50 0 94-13t85-48l-60-74q-26 23-55.5 31t-56.5 8q-12 0-27.5-4t-29-11.5-23-18.5-9.5-26q0-24 18.5-37.5t50.5-13.5h81v-84h-85q-32 0-51.5-15.5t-19.5-43.5q0-22 20-40.5t72-18.5q26 0 58.5 8t58.5 34zM181 570l76 185 98-31-111-178z" glyph-name="epsilontonos" horiz-adv-x="438" unicode="&#x3ad;"/><glyph d="M383 314l-71 227h-7l-71-225-103-316h-121l241 689h116l241-689h-121z" glyph-name="Lambda" horiz-adv-x="613" unicode="&#x39b;"/><glyph d="M63 0v689h467v-103h-353v-586h-114z" glyph-name="Gamma" horiz-adv-x="524" unicode="&#x393;"/><glyph d="M565 203q0-39-12.5-75.5t-37.5-65-62-45.5-85-17h-310v689h298q49 0 86.5-15t62-40.5 37-58.5 12.5-70q0-40-20-79.5t-65-64.5q50-25 73-69.5t23-88.5zM438 497q0 46-28.5 67.5t-79.5 21.5h-157v-177h162q45 0 74 23t29 65zM448 205q0 48-32.5 76t-77.5 28h-165v-207h166q54 0 81.5 27.5t27.5 75.5z" glyph-name="Beta" horiz-adv-x="608" unicode="&#x392;"/><glyph d="M459 0v586h-289v-586h-114v689h519v-689h-116z" glyph-name="Pi" horiz-adv-x="631" unicode="&#x3a0;"/><glyph d="M43 322q0 88 46.5 133.5t121.5 45.5q26 0 61.5-10.5t86.5-40.5l10 45h95v-495h-96l-10 42q-52-29-88-38t-62-9q-78 0-121.5 47.5t-43.5 130.5v149zM150 187q0-50 21.5-70t54.5-19q27 0 61.5 12.5t70.5 35.5v209q-32 19-69.5 33t-62.5 14q-33 0-54.5-21t-21.5-70v-124z" glyph-name="alpha" horiz-adv-x="513" unicode="&#x3b1;"/><glyph d="M194 689v-689h-114v689h114z" glyph-name="Iota" horiz-adv-x="274" unicode="&#x399;"/><glyph d="M282 632q0 24 17 41t41 17q25 0 42-17t17-41-17-41-42-17q-24 0-41 17t-17 41zM86 632q0 24 17 41t40 17q25 0 42-17t17-41-17-41-42-17q-23 0-40 17t-17 41z" glyph-name="dieresis" horiz-adv-x="490" unicode="&#xa8;"/><glyph d="M320 585v-585h-115v585h-191v104h496v-104h-190z" glyph-name="Tau" horiz-adv-x="524" unicode="&#x3a4;"/><glyph d="M304 526l-64-201-74-222h282l-72 217-66 206h-6zM252 689h111l242-689h-595z" glyph-name="Delta" horiz-adv-x="613" unicode="&#x394;"/><glyph d="M304 526l-64-201-74-222h282l-72 217-66 206h-6zM252 689h111l242-689h-595z" glyph-name="Delta" horiz-adv-x="613" unicode="&#x2206;"/><glyph d="M47 495h107v-309q0-50 23-70t55-19q26 0 58 12.5t74 40.5v345h106v-495h-103l-3 48q-53-36-88-44.5t-62-8.5q-37 0-60 17v-211h-107v694z" glyph-name="mu" horiz-adv-x="518" unicode="&#xb5;"/><glyph d="M47 495h107v-309q0-50 23-70t55-19q26 0 58 12.5t74 40.5v345h106v-495h-103l-3 48q-53-36-88-44.5t-62-8.5q-37 0-60 17v-211h-107v694z" glyph-name="mu" horiz-adv-x="518" unicode="&#x3bc;"/><glyph d="M194 689v-689h-114v689h114zM176 805q0 24 17 41t41 17q25 0 42-17t17-41-17-41-42-17q-24 0-41 17t-17 41zM-20 805q0 24 17 41t40 17q25 0 42-17t17-41-17-41-42-17q-23 0-40 17t-17 41z" glyph-name="Iotadieresis" horiz-adv-x="274" unicode="&#x3aa;"/><glyph d="M369 0v122q38 11 67 44t29 92v190q0 38-12 65t-32 44.5-46 25.5-54 8q-29 0-55-8t-46-25.5-32-44.5-12-65v-190q0-30 8-52.5t21.5-39.5 31.5-28 37-17v-121h-226v101h82q-34 25-51.5 65t-17.5 85v216q0 54 21 96.5t56.5 72 82.5 45 100 15.5 100-15.5 82.5-45 56-72 20.5-96.5v-216q0-45-17.5-85t-50.5-65h83v-101h-226z" glyph-name="Omega" horiz-adv-x="642" unicode="&#x3a9;"/><glyph glyph-name="space" horiz-adv-x="247" unicode="&#x20;"/><glyph d="M61-95q24 18 39.5 40.5t17.5 49.5q-25 3-38 20t-13 46q0 27 20 47t50 20q20 0 34.5-7.5t24.5-20 14.5-29 4.5-33.5q0-29-9-56.5t-25-51.5-37-43.5-46-31.5z" glyph-name="quotesinglbase" horiz-adv-x="271" unicode="&#x201a;"/><glyph d="M61-95q24 18 39.5 40.5t17.5 49.5q-25 3-38 20t-13 46q0 27 20 47t50 20q20 0 34.5-7.5t24.5-20 14.5-29 4.5-33.5q0-29-9-56.5t-25-51.5-37-43.5-46-31.5zM263-95q24 18 39.5 40.5t17.5 49.5q-25 3-38 20t-13 46q0 27 20 47t50 20q20 0 34.5-7.5t24.5-20 14.5-29 4.5-33.5q0-29-9-56.5t-25-51.5-37-43.5-46-31.5z" glyph-name="quotedblbase" horiz-adv-x="473" unicode="&#x201e;"/><glyph d="M489 64h-84v190h-380v81h464v-271z" glyph-name="logicalnot" horiz-adv-x="517" unicode="&#xac;"/><glyph d="M50 217v94h307v-94h-307z" glyph-name="sfthyphen" horiz-adv-x="408" unicode="&#xad;"/><glyph d="M35 502l57 57 68-68q57 36 116 36 32 0 60-9t56-26l12 12 21 21.5 21 21.5t13 12l57-58-68-67q17-28 26.5-56.5t9.5-57.5q0-31-9-58.5t-27-56.5l34-32t34-34l-57-58-67 68q-27-18-55.5-27.5t-60.5-9.5q-61 0-116 37l-68-68-11 11.5t-17.5 17.5l-17.5 17-11 11 69 67q-36 57-36 115 0 29 9.5 57.5t26.5 56.5zM151 320q0-26 9.5-48.5t26.5-39.5 39.5-27 48.5-10 49 10 40 27 26.5 39.5 9.5 48.5-9.5 49-26.5 40-40 26.5-49 9.5-48.5-10-39.5-27-26.5-39.5-9.5-48.5z" glyph-name="currency" horiz-adv-x="556" unicode="&#xa4;"/><glyph d="M258 224l-161-162-59 59 161 162-164 164 58 57 164-164 159 160 59-59-160-160 165-165-57-57z" glyph-name="multiply" horiz-adv-x="517" unicode="&#xd7;"/><glyph d="M69 297v424h84v-424h-84zM153 237v-421h-84v421h84z" glyph-name="brokenbar" horiz-adv-x="222" unicode="&#xa6;"/><glyph d="M190 379h-168v83h168v234h100v-234h169v-83h-169v-175h169v-82h-169v-302h-100v302h-168v82h168v175z" glyph-name="daggerdbl" horiz-adv-x="481" unicode="&#x2021;"/><glyph d="M476 58q0-47-10-83t-34-60.5-64-38-100-15.5l-6 83q43 6 67.5 16.5t37 26.5 16 38 3.5 49v632h90v-648zM231 327q-41 0-75.5 15t-60 40.5-39.5 60-14 73.5 14.5 73.5 40 60.5 60 41 74.5 15h91v-379h-91z" glyph-name="paragraph" horiz-adv-x="538" unicode="&#xb6;"/><glyph d="M216 42q14 0 27-.5t27-1.5l-26-78q28-2 47-10.5t30.5-21 16.5-26.5 5-27q0-15-6.5-30t-19.5-28-33.5-21-48.5-8q-23 0-50 4.5t-51 15.5q5 12 9.5 24l9.5 25q23-9 41.5-11.5t33.5-2.5q20 0 33 9t13 25q0 13-10 24t-33 11q-4 0-7.5-.5t-8.5-1.5l-34 18 35 112v0z" glyph-name="cedilla" horiz-adv-x="442" unicode="&#xb8;"/><glyph d="M253 648q-6-4-26-19.5l-43-33.5-43-33.5t-26-19.5l-44 41 149 154h70l145-152-46-43z" glyph-name="circumflex" horiz-adv-x="499" unicode="&#x2c6;"/><glyph d="M186 706q19 0 37.5-7.5t36-16.5l33-16.5t27.5-7.5q16 0 30.5 10.5t31.5 35.5l58-34q-24-51-51.5-73.5t-60.5-22.5q-19 0-37 7t-35 15l-33 15t-30 7q-17 0-31-8t-34-34l-58 34q23 47 52 71.5t64 24.5z" glyph-name="tilde" horiz-adv-x="499" unicode="&#x2dc;"/><glyph d="M190 570l76 185 98-31-111-178z" glyph-name="tonos" horiz-adv-x="499" unicode="&#x384;"/><glyph d="M312 387q0-28-12-49.5t-32-36.5-46-22.5-53-7.5q-28 0-54 7.5t-46 22.5-32 36.5-12 49.5v189q0 28 12 49.5t32.5 36.5 46.5 23 53 8 52.5-8 46-23 32.5-36.5 12-49.5v-189zM230 564q0 15-5.5 25t-14.5 16.5-20 9.5-21 3-20.5-3-19.5-9.5-14.5-16.5-5.5-25v-167q0-14 5.5-24t14.5-16 19.5-9 20.5-3 21 3 20 9 14.5 16 5.5 24v167z" glyph-name="zero.numerator" horiz-adv-x="337" unicode="&#xe2d0;"/><glyph d="M135 275v313l-46-35-46 57 100 79h74v-414h-82z" glyph-name="one.numerator" horiz-adv-x="309" unicode="&#xe2d1;"/><glyph d="M310 577q0-22-10-42t-25.5-37-34-32-36.5-27l-28-18t-30-22-24-25.5-10-28.5h198v-71h-284v60q0 29 10 51.5t26.5 41 37.5 34 42 29.5l27 17.5t27.5 20.5 21 23 8.5 25q0 22-21 32.5t-45 10.5q-23 0-45.5-8.5t-42.5-23.5l-43 59q26 20 61.5 33.5t73.5 13.5q28 0 54.5-6t46.5-19.5 32.5-35.5 12.5-55z" glyph-name="two.numerator" horiz-adv-x="337" unicode="&#xe2d2;"/><glyph d="M156 692q27 0 52.5-6.5t45.5-20 32-36 12-53.5q0-29-15.5-52.5t-46.5-33.5q35-13 49.5-38t14.5-51q0-33-12.5-58t-33-41-47.5-24-56-8q-41 0-75.5 11.5t-60.5 31.5l42 62q20-15 44.5-23t44.5-8q31 0 51 13.5t20 39.5q0 25-17.5 39.5t-41.5 14.5h-58v69h58q20 0 39 13.5t19 40.5q0 12-6 20.5t-16 14-21.5 8-23.5 2.5q-21 0-45.5-7t-44.5-23l-39 60q26 20 61 31.5t75 11.5z" glyph-name="three.numerator" horiz-adv-x="336" unicode="&#xe2d3;"/><glyph d="M283 334v-59h-79v59h-189v61l147 293h87l-141-284h96v113h79v-113h41v-70h-41z" glyph-name="four.numerator" horiz-adv-x="337" unicode="&#xe2d4;"/><glyph d="M311 386q0-27-12-48.5t-32.5-36-47-22.5-55.5-8q-42 0-76 13.5t-60 34.5l46 60q44-34 88-34 9 0 20.5 2.5t21.5 8 17 15 7 24.5v48q0 21-12 31t-29 10q-9 0-20.5-3t-22.5-8-21-10.5l-17-9.5-69 28-1 208h261v-72h-178v-80q20 11 39.5 17.5t34.5 6.5q57 0 87.5-31t30.5-81v-63 0z" glyph-name="five.numerator" horiz-adv-x="337" unicode="&#xe2d5;"/><glyph d="M311 387q0-28-12-49.5t-32-36.5-45.5-22.5-52.5-7.5-52.5 7.5-45.5 22.5-32 36.5-12 49.5v190q0 28 12 49.5t32 36.5 46 22.5 55 7.5q43 0 75.5-13.5t58.5-34.5l-45-60q-23 18-43.5 25.5t-43.5 7.5q-9 0-20-2.5t-20.5-8.5-16-16-6.5-24v-47q26 14 47 20.5t38 6.5q56 0 85.5-31.5t29.5-79.5v-49zM228 430q0 23-12.5 33t-29.5 10-36-7.5-39-18.5v-50q0-14 5.5-24t14-16 18.5-9 20-3q20 0 39.5 12.5t19.5 39.5v33z" glyph-name="six.numerator" horiz-adv-x="337" unicode="&#xe2d6;"/><glyph d="M310 626l-80-175.5-80-176.5h-90l154 343h-107v-59h-79v130h282v-62 0z" glyph-name="seven.numerator" horiz-adv-x="337" unicode="&#xe2d7;"/><glyph d="M170 692q26 0 51-7.5t45-23 32-38.5 12-53q0-26-14.5-49.5t-38.5-34.5q28-11 42.5-36t14.5-52q0-32-12.5-56t-33-39.5-46-23.5-51.5-8-52 7.5-46 23.5-32.5 39-12.5 55q0 29 15 52t42 37q-25 11-38.5 34t-13.5 51q0 30 12 53t31 38.5 43.5 23 50.5 7.5zM227 569q0 24-18 36t-38 12q-22 0-39.5-12t-17.5-36 17-37 40-13q22 0 39 13.5t17 36.5zM113 396q0-25 17-38t41-13 41 13 17 38q0 23-17 36.5t-41 13.5-41-13-17-37z" glyph-name="eight.numerator" horiz-adv-x="337" unicode="&#xe2d8;"/><glyph d="M307 386q0-28-12-49.5t-32-36-46-22-55-7.5q-42 0-75.5 13.5t-58.5 34.5l46 60q42-33 86-33 9 0 20 2.5t20.5 8.5 16 16 6.5 24v50q-24-14-45.5-20.5t-38.5-6.5q-54 0-84.5 31.5t-30.5 81.5v43q0 28 12.5 50t32.5 37 45.5 22.5 51.5 7.5q27 0 52-7.5t45-22 32-36 12-49.5v-192zM223 567q0 14-5.5 24t-13.5 16-18 8.5-20 2.5-20.5-3-19.5-9-14.5-15.5-5.5-23.5v-30q0-22 12.5-32.5t29.5-10.5q18 0 36.5 8t38.5 18v47z" glyph-name="nine.numerator" horiz-adv-x="336" unicode="&#xe2d9;"/><glyph d="M160 198q-26 26-49.5 56.5t-41.5 63.5-28.5 68.5-10.5 72.5q0 38 10.5 74t27.5 68.5 40 61.5 49 55l51-29q-45-51-69-112t-24-115q0-59 24.5-119t66.5-111z" glyph-name="parenleft.numerator" horiz-adv-x="215" unicode="&#xe2da;"/><glyph d="M196 459q0-37-10.5-73t-28.5-69-41.5-63-49.5-55l-47 33q42 51 66.5 111t24.5 119q0 54-24 115t-68 112l51 29q25-26 48-55t40.5-61.5 28-68.5 10.5-74z" glyph-name="parenright.numerator" horiz-adv-x="212" unicode="&#xe2db;"/><glyph d="M46 216q16 12 25.5 27.5t11.5 27.5q-15 2-27 14t-12 32q0 22 16 35t36 13q24 0 39.5-16.5t15.5-45.5q0-32-20-66t-58-55z" glyph-name="comma.numerator" horiz-adv-x="177" unicode="&#xe2dc;"/><glyph d="M84 272q-23 0-36.5 13.5t-13.5 34.5q0 19 13 32.5t36 13.5 37-13.5 14-32.5q0-20-13.5-34t-36.5-14z" glyph-name="period.numerator" horiz-adv-x="164" unicode="&#xe2dd;"/><glyph d="M313 644q0 20-14.5 34t-35.5 14-36-14-15-34q0-21 15-35.5t36-14.5 35.5 14.5 14.5 35.5zM152 644q0 22 9 41.5t24 33.5 35 22.5 43 8.5 43-8.5 35-22.5 23.5-33.5 8.5-41.5q0-23-8.5-42.5t-23.5-34-35-23-43-8.5-43 8.5-35 23-24 34-9 42.5z" glyph-name="ring" horiz-adv-x="499" unicode="&#x2da;"/><glyph d="M23 319h954v-96h-954v96z" glyph-name="afii00208" horiz-adv-x="1000" unicode="&#x2015;"/><glyph d="M123 424h96l10 67q4 35 15.5 72t33.5 67.5 56 50 85 19.5q49 0 90-16l-23-89q-18 7-35.5 9t-31.5 2q-21 0-35.5-10t-24.5-26-16-37-9-42q0-2-1.5-12l-3-21-3-21t-1.5-13h101l2-88h-114l-30-215q-6-46-18-85.5t-32.5-68-51-45-72.5-16.5q-22 0-52.5 6t-53.5 16l29 84q22-9 37-11.5t27-2.5q36 0 54 34.5t26 92.5l30 211h-83z" glyph-name="florin" horiz-adv-x="517" unicode="&#x192;"/><glyph d="M-94-17h-78l425 730h79z" glyph-name="fraction" horiz-adv-x="160" unicode="&#x2044;"/><glyph d="M-94-17h-78l425 730h79z" glyph-name="fraction" horiz-adv-x="160" unicode="&#x2215;"/><glyph d="M179 34l-133 195 133 196h99l-130-196 130-195h-99z" glyph-name="guilsinglleft" horiz-adv-x="334" unicode="&#x2039;"/><glyph d="M45 34l130 195-130 196h99l133-196-133-195h-99z" glyph-name="guilsinglright" horiz-adv-x="334" unicode="&#x203a;"/><glyph d="M173 297l7-498h-107l7 498h93zM127 501q31 0 49.5-20t18.5-50q0-26-18.5-46.5t-48.5-20.5q-32 0-51.5 20.5t-19.5 46.5q0 29 18.5 49.5t51.5 20.5z" glyph-name="exclamdown" horiz-adv-x="251" unicode="&#xa1;"/><glyph d="M257-204q-43 0-79.5 13.5t-63.5 37-42 55.5-15 70q0 45 21.5 82t47 71 47 66.5 21.5 70.5v36h107v-34q0-30-6-53.5t-17-44.5-25.5-41l-30.5-41q-16-20-29-44.5t-13-53.5q0-36 25-61t69-25q35 0 68.5 12t60.5 35l26-43t27-43q-45-35-94.5-50t-104.5-15zM314 430q0-26-18.5-46.5t-48.5-20.5q-32 0-51.5 20.5t-19.5 46.5q0 29 18.5 50t51.5 21q31 0 49.5-20.5t18.5-50.5z" glyph-name="questiondown" horiz-adv-x="474" unicode="&#xbf;"/><glyph d="M170 248h158q50 0 79.5 29t29.5 77-29.5 78-79.5 30h-158v-214zM170 689v-124h183q50 0 87-19t61-49.5 36-68 12-74.5-13.5-74.5-39-67.5-62-49-83.5-19h-181v-144h-114v689h114z" glyph-name="Thorn" horiz-adv-x="565" unicode="&#xde;"/><glyph d="M491 0v183q-63 0-125 .5t-125 .5l-114-184h-126l217 344.5 217 344.5h523v-104h-353v-189h302v-102h-302v-192h353v-102h-467zM490 586l-97-153.5-96-153.5q48 0 96.5-.5t97.5-.5v308h-1z" glyph-name="AE" horiz-adv-x="991" unicode="&#xc6;"/><glyph d="M389 737l46-42-145-153h-70l-149 154 44 41q6-4 26-19l43-33 43-33.5t26-19.5z" glyph-name="caron" horiz-adv-x="499" unicode="&#x2c7;"/><glyph d="M269 566q-42 0-69.5 14t-45 35-25 45-8.5 45h82q1-10 5.5-21t13-20.5 20.5-16 27-6.5q17 0 29.5 6.5t21 16 12.5 20.5 4 21h81q-2-21-10-45t-24.5-45-44-35-69.5-14z" glyph-name="breve" horiz-adv-x="518" unicode="&#x2d8;"/><glyph d="M222 576q-29 0-46 18.5t-17 46.5q0 24 17 43t45 19q29 0 47-19t18-43q0-26-17-45.5t-47-19.5z" glyph-name="dotaccent" horiz-adv-x="441" unicode="&#x2d9;"/><glyph d="M58-96q0 21 8.5 44t31.5 55h68l2-3q-19-26-27.5-45t-8.5-36q0-38 42-38 11 0 25 4.5t34 12.5l23-58q-21-12-46.5-19.5t-51.5-7.5q-45 0-72.5 26.5t-27.5 64.5z" glyph-name="ogonek" horiz-adv-x="285" unicode="&#x2db;"/><glyph d="M152 570l76 185 98-31-111-178zM300 570l77 185 98-31-112-178z" glyph-name="hungarumlaut" horiz-adv-x="567" unicode="&#x2dd;"/><glyph d="M300 819l-146-84-36 45 150 125h68l146-124-37-46z" glyph-name="Circumflex" horiz-adv-x="600" unicode="&#xf6c0;"/><glyph d="M225-250q24 17 38 33t17 43q-22 2-36 20t-14 44 19.5 46 48.5 20q39 0 57.5-27t18.5-62q0-57-32.5-100t-80.5-65z" glyph-name="commaaccent" horiz-adv-x="592" unicode="&#xf6c3;"/><glyph d="M240 787l168 130 60-82-190-101z" glyph-name="Acute" horiz-adv-x="598" unicode="&#xf6c9;"/><glyph d="M442 908l37-46-145-124h-68l-150 126 35 44 146-84z" glyph-name="Caron" horiz-adv-x="598" unicode="&#xf6ca;"/><glyph d="M348 811q0 24 17 41t41 17q25 0 41.5-17t16.5-41-16.5-41-41.5-17q-24 0-41 17t-17 41zM152 811q0 24 17 41t40 17q25 0 42-17t17-41-17-41-42-17q-23 0-40 17t-17 41z" glyph-name="Dieresis" horiz-adv-x="619" unicode="&#xf6cb;"/><glyph d="M313 813q0 24 17 41t41 17q25 0 42-17t17-41-17-41-42-17q-24 0-41 17t-17 41zM6 813q0 24 17.5 41t40.5 17q24 0 41-17t17-41-17-41-41-17q-23 0-40.5 17t-17.5 41zM131 769l104 171 92-45-138-157z" glyph-name="DieresisAcute" horiz-adv-x="444" unicode="&#xf6cc;"/><glyph d="M126 813q0-24-17-41t-41-17-41 17-17 41 17 41 41 17 41-17 17-41zM434 813q0-24-17.5-41t-41.5-17-41 17-17 41 17 41 41 17 41.5-17 17.5-41zM251 738l-138 157 92 45 103-171z" glyph-name="DieresisGrave" horiz-adv-x="444" unicode="&#xf6cd;"/><glyph d="M314 736l-185 99 70 76 158-124z" glyph-name="Grave" horiz-adv-x="598" unicode="&#xf6ce;"/><glyph d="M140 781l152 132 74-72-180-108zM315 781l152 132 74-72-180-108z" glyph-name="Hungarumlaut" horiz-adv-x="607" unicode="&#xf6cf;"/><glyph d="M158 773v89h289v-89h-289z" glyph-name="Macron" horiz-adv-x="594" unicode="&#xf6d0;"/><glyph d="M309 731q-42 0-69.5 14t-45 35-25 45.5-8.5 45.5h82q1-10 5.5-21.5t13-21 20.5-16 27-6.5q17 0 29.5 6.5t21 16 12.5 21 4 21.5h81q-2-21-10-45.5t-24.5-45.5-44-35-69.5-14z" glyph-name="cyrBreve" horiz-adv-x="618" unicode="&#xf6d1;"/><glyph d="M271 573q-42 0-69.5 14t-45 35-25 45.5-8.5 45.5h82q1-10 5.5-21.5t13-21 20.5-16 27-6.5q17 0 29.5 6.5t21 16 12.5 21 4 21.5h81q-2-21-10-45.5t-24.5-45.5-44-35-69.5-14z" glyph-name="cyrbreve" horiz-adv-x="513" unicode="&#xf6d4;"/><glyph d="M545 195q0-48-19-85.5t-52.5-63-80.5-39-102-13.5q-73 0-137.5 20.5t-124.5 69.5l64 83q45-33 95.5-51.5t101.5-18.5q68 0 101.5 27.5t33.5 69.5q0 29-13.5 47t-36.5 30-52.5 19l-61.5 15q-40 9-77.5 23t-66 36.5-46 55-17.5 79.5q0 44 16 81t46 64 72 42.5 94 15.5q62 0 122.5-12.5t115.5-47.5l-51-94q-46 28-91.5 39t-89.5 11q-24 0-45.5-6t-38-18-26.5-30.5-10-43.5 13-42 34.5-28.5 49-19 57.5-13.5q49-11 90-26t70.5-38.5 46-56.5 16.5-81zM441 908l37-46-145-124h-68l-150 126 35 44 146-84z" glyph-name="Scaron" horiz-adv-x="577" unicode="&#x160;"/><glyph d="M35 99l325 487h-312v103h450v-96l-330-491h329v-102h-462v99zM414 908l37-46-145-124h-68l-150 126 35 44 146-84z" glyph-name="Zcaron" horiz-adv-x="531" unicode="&#x17d;"/><glyph d="M232-6q-54 0-105 13t-105 56l58 77q37-31 75-42.5t80-11.5q35 0 62.5 15t27.5 46q0 26-18 38.5t-53 18.5q-36 6-73 13.5t-67 22.5-49 40.5-19 67.5q0 36 15 64.5t40.5 48 58.5 30 70 10.5q57 0 102.5-11.5t89.5-43.5l-52-79q-36 23-70 31.5t-69 8.5q-38 0-59.5-17t-21.5-40 21-33.5 52.5-17l68.5-13.5t68.5-22 52.5-42.5 21-74.5q0-36-15.5-64.5t-43-48-64.5-30-79-10.5zM374 737l46-42-145-153h-70l-149 154 44 41q6-4 26-19l43-33 43-33.5t26-19.5z" glyph-name="scaron" horiz-adv-x="460" unicode="&#x161;"/><glyph d="M39 0v85l254 319h-240v91h371v-85l-253-317h253v-93h-385zM375 737l46-42-145-153h-70l-149 154 44 41q6-4 26-19l43-33 43-33.5t26-19.5z" glyph-name="zcaron" horiz-adv-x="462" unicode="&#x17e;"/><glyph d="M282 382l66 150 74 157h122l-208-422v-267h-115v267l-210 422h124l75-161 65-146h7zM318 811q0 24 17 41t41 17q25 0 41.5-17t16.5-41-16.5-41-41.5-17q-24 0-41 17t-17 41zM122 811q0 24 17 41t40 17q25 0 42-17t17-41-17-41-42-17q-23 0-40 17t-17 41z" glyph-name="Ydieresis" horiz-adv-x="556" unicode="&#x178;"/><glyph d="M437 149h-257l-49-149h-121l241 689h116l241-689h-124zM213 248h191l-41 129-53 175h-4l-51-168zM313 736l-185 99 70 76 158-124z" glyph-name="Agrave" horiz-adv-x="617" unicode="&#xc0;"/><glyph d="M437 149h-257l-49-149h-121l241 689h116l241-689h-124zM213 248h191l-41 129-53 175h-4l-51-168zM249 787l168 130 60-82-190-101z" glyph-name="Aacute" horiz-adv-x="617" unicode="&#xc1;"/><glyph d="M437 149h-257l-49-149h-121l241 689h116l241-689h-124zM213 248h191l-41 129-53 175h-4l-51-168zM308 819l-146-84-36 45 150 125h68l146-124-37-46z" glyph-name="Acircumflex" horiz-adv-x="617" unicode="&#xc2;"/><glyph d="M437 149h-257l-49-149h-121l241 689h116l241-689h-124zM213 248h191l-41 129-53 175h-4l-51-168zM240 876q19 0 37.5-7.5t36-16.5l33-16.5t27.5-7.5q16 0 30.5 10.5t31.5 35.5l58-34q-24-51-51.5-73.5t-60.5-22.5q-19 0-37 7t-35 15l-33 15t-30 7q-17 0-31-8t-34-34l-58 34q23 47 52 71.5t64 24.5z" glyph-name="Atilde" horiz-adv-x="617" unicode="&#xc3;"/><glyph d="M437 149h-257l-49-149h-121l241 689h116l241-689h-124zM213 248h191l-41 129-53 175h-4l-51-168zM349 811q0 24 17 41t41 17q25 0 41.5-17t16.5-41-16.5-41-41.5-17q-24 0-41 17t-17 41zM153 811q0 24 17 41t40 17q25 0 42-17t17-41-17-41-42-17q-23 0-40 17t-17 41z" glyph-name="Adieresis" horiz-adv-x="617" unicode="&#xc4;"/><glyph d="M437 149h-257l-49-149h-121l241 689h116l241-689h-124zM213 248h191l-41 129-53 175h-4l-51-168zM358 818q0 20-14.5 34t-35.5 14-36-14-15-34q0-21 15-35.5t36-14.5 35.5 14.5 14.5 35.5zM197 818q0 22 9 41.5t24 33.5 35 22.5 43 8.5 43-8.5 35-22.5 23.5-33.5 8.5-41.5q0-23-8.5-42.5t-23.5-34-35-23-43-8.5-43 8.5-35 23-24 34-9 42.5z" glyph-name="Aring" horiz-adv-x="617" unicode="&#xc5;"/><glyph d="M457 542q-29 25-68 37t-76 12q-26 0-51.5-8t-45.5-25-32.5-44-12.5-65v-209q0-38 12.5-65t33-44 45.5-25 50-8q37 0 75 10.5t72 37.5l54-88q-34-28-84.5-45.5t-107.5-19.5q-3-8-5.5-15.5t-4.5-15.5q28-2 47-10.5t30.5-21 16.5-26.5 5-27q0-15-6.5-30t-19.5-28-33.5-21-48.5-8q-23 0-50 4.5t-51 15.5q5 12 9.5 24l9.5 25q23-9 41.5-11.5t33.5-2.5q20 0 33 9t13 25q0 13-10 24t-33 11q-4 0-7.5-.5t-8.5-1.5l-34 18 20 66q-43 6-81.5 23t-67.5 45-46 66.5-17 86.5v255q0 54 21.5 95.5t57 70 81.5 43.5 95 15q57 0 109.5-16t92.5-49z" glyph-name="Ccedilla" horiz-adv-x="544" unicode="&#xc7;"/><glyph d="M61 689h467v-103h-353v-189h302v-103h-302v-192h353v-102h-467v689zM320 736l-185 99 70 76 158-124z" glyph-name="Egrave" horiz-adv-x="567" unicode="&#xc8;"/><glyph d="M61 689h467v-103h-353v-189h302v-103h-302v-192h353v-102h-467v689zM227 787l168 130 60-82-190-101z" glyph-name="Eacute" horiz-adv-x="567" unicode="&#xc9;"/><glyph d="M61 689h467v-103h-353v-189h302v-103h-302v-192h353v-102h-467v689zM300 819l-146-84-36 45 150 125h68l146-124-37-46z" glyph-name="Ecircumflex" horiz-adv-x="567" unicode="&#xca;"/><glyph d="M61 689h467v-103h-353v-189h302v-103h-302v-192h353v-102h-467v689zM334 810q0 24 17 41t42 17q24 0 41-17t17-41-17-41.5-41-17.5q-25 0-42 17.5t-17 41.5zM138 810q0 24 17 41t41 17 41-17 17-41-17-41.5-41-17.5-41 17.5-17 41.5z" glyph-name="Edieresis" horiz-adv-x="567" unicode="&#xcb;"/><glyph d="M194 689v-689h-114v689h114zM140 736l-185 99 70 76 158-124z" glyph-name="Igrave" horiz-adv-x="274" unicode="&#xcc;"/><glyph d="M194 689v-689h-114v689h114zM92 787l168 130 60-82-190-101z" glyph-name="Iacute" horiz-adv-x="274" unicode="&#xcd;"/><glyph d="M194 689v-689h-114v689h114zM135 819l-146-84-36 45 150 125h68l146-124-37-46z" glyph-name="Icircumflex" horiz-adv-x="274" unicode="&#xce;"/><glyph d="M194 689v-689h-114v689h114zM179 811q0 24 17 41t41 17q25 0 41.5-17t16.5-41-16.5-41-41.5-17q-24 0-41 17t-17 41zM-17 811q0 24 17 41t40 17q25 0 42-17t17-41-17-41-42-17q-23 0-40 17t-17 41z" glyph-name="Idieresis" horiz-adv-x="274" unicode="&#xcf;"/><glyph d="M6 390h53v299h260q48 0 91.5-14.5t76.5-43 52.5-70 19.5-95.5v-243q0-53-19.5-94t-53-70-77-44-91.5-15h-259v309h-53v81zM443 445q0 39-12.5 66t-33.5 43.5-47 24-53 7.5h-124v-196h115v-81h-115v-208h124q25 0 51 7.5t47 24 34.5 43.5 13.5 66v203z" glyph-name="Eth" horiz-adv-x="611" unicode="&#xd0;"/><glyph d="M173 473v-473h-114v689h106l205-305 111-171h6v476h114v-689h-107l-208 310-106 163h-7zM262 876q19 0 37.5-7.5t36-16.5l33-16.5t27.5-7.5q16 0 30.5 10.5t31.5 35.5l58-34q-24-51-51.5-73.5t-60.5-22.5q-19 0-37 7t-35 15l-33 15t-30 7q-17 0-31-8t-34-34l-58 34q23 47 52 71.5t64 24.5z" glyph-name="Ntilde" horiz-adv-x="660" unicode="&#xd1;"/><glyph d="M572 223q0-54-20-97t-55.5-72.5-83-45-101.5-15.5q-55 0-102.5 15.5t-82 45-54.5 72.5-20 97v245q0 54 20.5 96t55.5 71.5 82 45 101 15.5q53 0 100.5-16t83-45.5 56-72 20.5-96.5v-243zM457 449q0 37-12 64t-32 44.5-46.5 25.5-54.5 8q-29 0-55-8t-45.5-25.5-31.5-44.5-12-64v-209q0-38 12-65t32-44 46-25 54-8 54.5 8 46.5 25 32 44 12 65v209zM342 736l-185 99 70 76 158-124z" glyph-name="Ograve" horiz-adv-x="625" unicode="&#xd2;"/><glyph d="M572 223q0-54-20-97t-55.5-72.5-83-45-101.5-15.5q-55 0-102.5 15.5t-82 45-54.5 72.5-20 97v245q0 54 20.5 96t55.5 71.5 82 45 101 15.5q53 0 100.5-16t83-45.5 56-72 20.5-96.5v-243zM457 449q0 37-12 64t-32 44.5-46.5 25.5-54.5 8q-29 0-55-8t-45.5-25.5-31.5-44.5-12-64v-209q0-38 12-65t32-44 46-25 54-8 54.5 8 46.5 25 32 44 12 65v209zM245 787l168 130 60-82-190-101z" glyph-name="Oacute" horiz-adv-x="625" unicode="&#xd3;"/><glyph d="M572 223q0-54-20-97t-55.5-72.5-83-45-101.5-15.5q-55 0-102.5 15.5t-82 45-54.5 72.5-20 97v245q0 54 20.5 96t55.5 71.5 82 45 101 15.5q53 0 100.5-16t83-45.5 56-72 20.5-96.5v-243zM457 449q0 37-12 64t-32 44.5-46.5 25.5-54.5 8q-29 0-55-8t-45.5-25.5-31.5-44.5-12-64v-209q0-38 12-65t32-44 46-25 54-8 54.5 8 46.5 25 32 44 12 65v209zM314 819l-146-84-36 45 150 125h68l146-124-37-46z" glyph-name="Ocircumflex" horiz-adv-x="625" unicode="&#xd4;"/><glyph d="M572 223q0-54-20-97t-55.5-72.5-83-45-101.5-15.5q-55 0-102.5 15.5t-82 45-54.5 72.5-20 97v245q0 54 20.5 96t55.5 71.5 82 45 101 15.5q53 0 100.5-16t83-45.5 56-72 20.5-96.5v-243zM457 449q0 37-12 64t-32 44.5-46.5 25.5-54.5 8q-29 0-55-8t-45.5-25.5-31.5-44.5-12-64v-209q0-38 12-65t32-44 46-25 54-8 54.5 8 46.5 25 32 44 12 65v209zM246 876q19 0 37.5-7.5t36-16.5l33-16.5t27.5-7.5q16 0 30.5 10.5t31.5 35.5l58-34q-24-51-51.5-73.5t-60.5-22.5q-19 0-37 7t-35 15l-33 15t-30 7q-17 0-31-8t-34-34l-58 34q23 47 52 71.5t64 24.5z" glyph-name="Otilde" horiz-adv-x="625" unicode="&#xd5;"/><glyph d="M572 223q0-54-20-97t-55.5-72.5-83-45-101.5-15.5q-55 0-102.5 15.5t-82 45-54.5 72.5-20 97v245q0 54 20.5 96t55.5 71.5 82 45 101 15.5q53 0 100.5-16t83-45.5 56-72 20.5-96.5v-243zM457 449q0 37-12 64t-32 44.5-46.5 25.5-54.5 8q-29 0-55-8t-45.5-25.5-31.5-44.5-12-64v-209q0-38 12-65t32-44 46-25 54-8 54.5 8 46.5 25 32 44 12 65v209zM355 811q0 24 17 41t41 17q25 0 41.5-17t16.5-41-16.5-41-41.5-17q-24 0-41 17t-17 41zM159 811q0 24 17 41t40 17q25 0 42-17t17-41-17-41-42-17q-23 0-40 17t-17 41z" glyph-name="Odieresis" horiz-adv-x="625" unicode="&#xd6;"/><glyph d="M52 24l44 62q-43 55-43 137v245q0 54 20.5 96t55.5 71.5 82 45 101 15.5q51 0 95.5-14.5t79.5-40.5l40 56 46-31-46-65q21-27 33-61t12-74v-243q0-54-20-97t-55.5-72.5-83-45-101.5-15.5q-106 0-177 54l-38-54zM457 449q0 25-6 45l-250-353q20-23 49.5-33t61.5-10q28 0 54.5 8t46.5 25 32 44 12 65v209zM168 240q0-13 1-23.5t4-21.5l249 353q-20 23-49 33t-61 10q-29 0-55-8t-45.5-25.5-31.5-44.5-12-64v-209z" glyph-name="Oslash" horiz-adv-x="625" unicode="&#xd8;"/><glyph d="M574 218q0-54-21.5-96t-57.5-70.5-83-43.5-98-15q-52 0-99 14.5t-82.5 43-56.5 70.5-21 96v472h114v-451q0-38 12-64.5t32.5-43.5 46.5-25 54-8q27 0 53.5 8t46.5 25 32.5 43.5 12.5 64.5v451h115v-471zM339 736l-185 99 70 76 158-124z" glyph-name="Ugrave" horiz-adv-x="627" unicode="&#xd9;"/><glyph d="M574 218q0-54-21.5-96t-57.5-70.5-83-43.5-98-15q-52 0-99 14.5t-82.5 43-56.5 70.5-21 96v472h114v-451q0-38 12-64.5t32.5-43.5 46.5-25 54-8q27 0 53.5 8t46.5 25 32.5 43.5 12.5 64.5v451h115v-471zM240 787l168 130 60-82-190-101z" glyph-name="Uacute" horiz-adv-x="627" unicode="&#xda;"/><glyph d="M574 218q0-54-21.5-96t-57.5-70.5-83-43.5-98-15q-52 0-99 14.5t-82.5 43-56.5 70.5-21 96v472h114v-451q0-38 12-64.5t32.5-43.5 46.5-25 54-8q27 0 53.5 8t46.5 25 32.5 43.5 12.5 64.5v451h115v-471zM312 819l-146-84-36 45 150 125h68l146-124-37-46z" glyph-name="Ucircumflex" horiz-adv-x="627" unicode="&#xdb;"/><glyph d="M574 218q0-54-21.5-96t-57.5-70.5-83-43.5-98-15q-52 0-99 14.5t-82.5 43-56.5 70.5-21 96v472h114v-451q0-38 12-64.5t32.5-43.5 46.5-25 54-8q27 0 53.5 8t46.5 25 32.5 43.5 12.5 64.5v451h115v-471zM357 811q0 24 17 41t41 17q25 0 41.5-17t16.5-41-16.5-41-41.5-17q-24 0-41 17t-17 41zM161 811q0 24 17 41t40 17q25 0 42-17t17-41-17-41-42-17q-23 0-40 17t-17 41z" glyph-name="Udieresis" horiz-adv-x="627" unicode="&#xdc;"/><glyph d="M282 382l66 150 74 157h122l-208-422v-267h-115v267l-210 422h124l75-161 65-146h7zM202 787l168 130 60-82-190-101z" glyph-name="Yacute" horiz-adv-x="556" unicode="&#xdd;"/><glyph d="M354 45q-53-30-89.5-39.5t-67.5-9.5q-74 0-116 40t-42 110q0 41 18 69t45 45.5 58.5 25.5 58.5 8h137v30q0 44-25 63t-77 19q-25 0-61.5-7.5t-73.5-37.5l-49 79q50 38 100.5 49.5t93.5 11.5q102 0 150-45t48-137v-319h-96l-9 43zM356 212h-119q-14 0-29-2t-27.5-8.5-21-18.5-8.5-33q0-28 20-43.5t53-15.5q18 0 36 4.5t35.5 11 33 14.5 27.5 15v76zM253 546l-115 177 98 32 79-183z" glyph-name="agrave" horiz-adv-x="510" unicode="&#xe0;"/><glyph d="M354 45q-53-30-89.5-39.5t-67.5-9.5q-74 0-116 40t-42 110q0 41 18 69t45 45.5 58.5 25.5 58.5 8h137v30q0 44-25 63t-77 19q-25 0-61.5-7.5t-73.5-37.5l-49 79q50 38 100.5 49.5t93.5 11.5q102 0 150-45t48-137v-319h-96l-9 43zM356 212h-119q-14 0-29-2t-27.5-8.5-21-18.5-8.5-33q0-28 20-43.5t53-15.5q18 0 36 4.5t35.5 11 33 14.5 27.5 15v76zM233 570l76 185 98-31-111-178z" glyph-name="aacute" horiz-adv-x="510" unicode="&#xe1;"/><glyph d="M354 45q-53-30-89.5-39.5t-67.5-9.5q-74 0-116 40t-42 110q0 41 18 69t45 45.5 58.5 25.5 58.5 8h137v30q0 44-25 63t-77 19q-25 0-61.5-7.5t-73.5-37.5l-49 79q50 38 100.5 49.5t93.5 11.5q102 0 150-45t48-137v-319h-96l-9 43zM356 212h-119q-14 0-29-2t-27.5-8.5-21-18.5-8.5-33q0-28 20-43.5t53-15.5q18 0 36 4.5t35.5 11 33 14.5 27.5 15v76zM261 648q-6-4-26-19.5l-43-33.5-43-33.5t-26-19.5l-44 41 149 154h70l145-152-46-43z" glyph-name="acircumflex" horiz-adv-x="510" unicode="&#xe2;"/><glyph d="M354 45q-53-30-89.5-39.5t-67.5-9.5q-74 0-116 40t-42 110q0 41 18 69t45 45.5 58.5 25.5 58.5 8h137v30q0 44-25 63t-77 19q-25 0-61.5-7.5t-73.5-37.5l-49 79q50 38 100.5 49.5t93.5 11.5q102 0 150-45t48-137v-319h-96l-9 43zM356 212h-119q-14 0-29-2t-27.5-8.5-21-18.5-8.5-33q0-28 20-43.5t53-15.5q18 0 36 4.5t35.5 11 33 14.5 27.5 15v76zM195 706q19 0 37.5-7.5t36-16.5l33-16.5t27.5-7.5q16 0 30.5 10.5t31.5 35.5l58-34q-24-51-51.5-73.5t-60.5-22.5q-19 0-37 7t-35 15l-33 15t-30 7q-17 0-31-8t-34-34l-58 34q23 47 52 71.5t64 24.5z" glyph-name="atilde" horiz-adv-x="510" unicode="&#xe3;"/><glyph d="M354 45q-53-30-89.5-39.5t-67.5-9.5q-74 0-116 40t-42 110q0 41 18 69t45 45.5 58.5 25.5 58.5 8h137v30q0 44-25 63t-77 19q-25 0-61.5-7.5t-73.5-37.5l-49 79q50 38 100.5 49.5t93.5 11.5q102 0 150-45t48-137v-319h-96l-9 43zM356 212h-119q-14 0-29-2t-27.5-8.5-21-18.5-8.5-33q0-28 20-43.5t53-15.5q18 0 36 4.5t35.5 11 33 14.5 27.5 15v76zM311 632q0 24 17 41t41 17q25 0 42-17t17-41-17-41-42-17q-24 0-41 17t-17 41zM115 632q0 24 17 41t40 17q25 0 42-17t17-41-17-41-42-17q-23 0-40 17t-17 41z" glyph-name="adieresis" horiz-adv-x="510" unicode="&#xe4;"/><glyph d="M354 45q-53-30-89.5-39.5t-67.5-9.5q-74 0-116 40t-42 110q0 41 18 69t45 45.5 58.5 25.5 58.5 8h137v30q0 44-25 63t-77 19q-25 0-61.5-7.5t-73.5-37.5l-49 79q50 38 100.5 49.5t93.5 11.5q102 0 150-45t48-137v-319h-96l-9 43zM356 212h-119q-14 0-29-2t-27.5-8.5-21-18.5-8.5-33q0-28 20-43.5t53-15.5q18 0 36 4.5t35.5 11 33 14.5 27.5 15v76zM323 644q0 20-14.5 34t-35.5 14-36-14-15-34q0-21 15-35.5t36-14.5 35.5 14.5 14.5 35.5zM162 644q0 22 9 41.5t24 33.5 35 22.5 43 8.5 43-8.5 35-22.5 23.5-33.5 8.5-41.5q0-23-8.5-42.5t-23.5-34-35-23-43-8.5-43 8.5-35 23-24 34-9 42.5z" glyph-name="aring" horiz-adv-x="510" unicode="&#xe5;"/><glyph d="M462 216v-29q0-26 9-44t24-29.5 34.5-17 40.5-5.5q23 0 55 8t65 37l62-73q-42-41-88.5-54.5t-93.5-13.5q-54 0-99.5 16.5t-74.5 51.5l-20-12.5t-20-11.5q-57-29-94.5-36t-63.5-7q-74 0-116.5 40t-42.5 109q0 41 18 69t45 45.5 58.5 25.5 58.5 8h137v30q0 46-29.5 64t-78.5 18q-25 0-58.5-7.5t-70.5-37.5l-50 79q50 38 97 49.5t90 11.5q107 0 159-54 27 26 64.5 40t82.5 14 83-13 65-37.5 42.5-59.5 15.5-80v-94h-306zM356 216h-117q-14 0-29.5-2.5t-28.5-10-21.5-20.5-8.5-34q0-28 20-43t53-15q18 0 36 4.5t35.5 11 33 14.5 27.5 15v80zM661 304q0 52-29 75.5t-70 23.5q-39 0-69-24.5t-30-72.5v-14h198v12z" glyph-name="ae" horiz-adv-x="805" unicode="&#xe6;"/><glyph d="M422 62q-38-38-79.5-51.5t-84.5-15.5l-10-33q28-2 47-10.5t30.5-21 16.5-26.5 5-27q0-15-6.5-30t-19.5-28-33.5-21-48.5-8q-23 0-50 4.5t-51 15.5q5 12 9.5 24l9.5 25q23-9 41.5-11.5t33.5-2.5q20 0 33 9t13 25q0 13-10 24t-33 11q-4 0-7.5-.5t-8.5-1.5l-34 18 21 68q-70 11-115 56t-45 118v147q0 44 17 78t45 57 64 35 74 12q22 0 45-2.5t45.5-9 44-19 41.5-33.5l-62-79q-34 31-60.5 38t-46.5 7q-17 0-35-5.5t-32.5-17.5-24-31.5-9.5-47.5v-106q0-28 8.5-47.5t22.5-31.5 32-17.5 37-5.5q21 0 51 9.5t54 32.5z" glyph-name="ccedilla" horiz-adv-x="441" unicode="&#xe7;"/><glyph d="M152 213v-25q0-26 9-44.5t23.5-30 34-17 40.5-5.5q23 0 55.5 8t64.5 37l31.5-36.5t30.5-36.5q-42-41-88.5-54.5t-93.5-13.5q-43 0-81.5 11t-68 33.5-46.5 56.5-17 80v130q0 45 15.5 81t43.5 61 65 38.5 81 13.5q45 0 83-13t65.5-37.5 42.5-59.5 15-80v-97h-305zM350 304q0 52-29 75.5t-69 23.5-69.5-24.5-29.5-73.5v-16h197v15zM244 546l-115 177 98 32 79-183z" glyph-name="egrave" horiz-adv-x="495" unicode="&#xe8;"/><glyph d="M152 213v-25q0-26 9-44.5t23.5-30 34-17 40.5-5.5q23 0 55.5 8t64.5 37l31.5-36.5t30.5-36.5q-42-41-88.5-54.5t-93.5-13.5q-43 0-81.5 11t-68 33.5-46.5 56.5-17 80v130q0 45 15.5 81t43.5 61 65 38.5 81 13.5q45 0 83-13t65.5-37.5 42.5-59.5 15-80v-97h-305zM350 304q0 52-29 75.5t-69 23.5-69.5-24.5-29.5-73.5v-16h197v15zM203 570l76 185 98-31-111-178z" glyph-name="eacute" horiz-adv-x="495" unicode="&#xe9;"/><glyph d="M152 213v-25q0-26 9-44.5t23.5-30 34-17 40.5-5.5q23 0 55.5 8t64.5 37l31.5-36.5t30.5-36.5q-42-41-88.5-54.5t-93.5-13.5q-43 0-81.5 11t-68 33.5-46.5 56.5-17 80v130q0 45 15.5 81t43.5 61 65 38.5 81 13.5q45 0 83-13t65.5-37.5 42.5-59.5 15-80v-97h-305zM350 304q0 52-29 75.5t-69 23.5-69.5-24.5-29.5-73.5v-16h197v15zM256 648q-6-4-26-19.5l-43-33.5-43-33.5t-26-19.5l-44 41 149 154h70l145-152-46-43z" glyph-name="ecircumflex" horiz-adv-x="495" unicode="&#xea;"/><glyph d="M152 213v-25q0-26 9-44.5t23.5-30 34-17 40.5-5.5q23 0 55.5 8t64.5 37l31.5-36.5t30.5-36.5q-42-41-88.5-54.5t-93.5-13.5q-43 0-81.5 11t-68 33.5-46.5 56.5-17 80v130q0 45 15.5 81t43.5 61 65 38.5 81 13.5q45 0 83-13t65.5-37.5 42.5-59.5 15-80v-97h-305zM350 304q0 52-29 75.5t-69 23.5-69.5-24.5-29.5-73.5v-16h197v15zM294 632q0 24 17 41t41 17q25 0 42-17t17-41-17-41-42-17q-24 0-41 17t-17 41zM98 632q0 24 17 41t40 17q25 0 42-17t17-41-17-41-42-17q-23 0-40 17t-17 41z" glyph-name="edieresis" horiz-adv-x="495" unicode="&#xeb;"/><glyph d="M101 546l-116 177 99 32 79-183zM74 0v495h106v-495h-106z" glyph-name="igrave" horiz-adv-x="249" unicode="&#xec;"/><glyph d="M85 570l77 185 98-31-112-178zM74 0v495h106v-495h-106z" glyph-name="iacute" horiz-adv-x="249" unicode="&#xed;"/><glyph d="M172 648q-6-4-26-19.5l-43-33.5-43-33.5t-26-19.5l-44 41 149 154h70l145-152-46-43zM120 0v495h106v-495h-106z" glyph-name="icircumflex" horiz-adv-x="344" unicode="&#xee;"/><glyph d="M186 632q0 24 17 41t42 17q24 0 41-17t17-41-17-41-41-17q-25 0-42 17t-17 41zM-10 632q0 24 17 41t41 17 41-17 17-41-17-41-41-17-41 17-17 41zM94 0v495h106v-495h-106z" glyph-name="idieresis" horiz-adv-x="293" unicode="&#xef;"/><glyph d="M277 505l-18 22.5-17 22.5 30.5 22.5 30.5 22.5q-17 16-47 29.5t-79 21.5q5 21 9.5 42.5t9.5 42.5q57-6 106-25t78-51q17 14 35.5 26.5t35.5 26.5l36-46-34-25-34-25q18-28 28-55.5t15-58.5 6-67 1-81v-107q0-14-.5-26.5t-1.5-25.5q-4-88-59-142t-158-54q-43 0-80.5 11.5t-65 34-43.5 56.5-16 78v104q0 44 16.5 80t44 61.5 64.5 39.5 79 14q33 0 64.5-9t53.5-29q1 0 1.5.5t1.5.5q-2 36-7.5 65.5t-20.5 50.5zM361 274q0 28-9 47t-24 31-33.5 17.5-36.5 5.5q-21 0-40.5-6.5t-34.5-20-23.5-33.5-8.5-48v-72q0-56 31-79t74-23q20 0 39 5.5t33.5 18 23.5 32 9 47.5v78z" glyph-name="eth" horiz-adv-x="514" unicode="&#xf0;"/><glyph d="M362 0v309q0 51-22 70.5t-55 19.5q-27 0-61-13t-72-37v-349h-106v495h96l10-49q30 18 54.5 29t44 17 35 7.5 28.5 1.5q78 0 116.5-47t38.5-130v-324h-107zM185 706q19 0 37.5-7.5t36-16.5l33-16.5t27.5-7.5q16 0 30.5 10.5t31.5 35.5l58-34q-24-51-51.5-73.5t-60.5-22.5q-19 0-37 7t-35 15l-33 15t-30 7q-17 0-31-8t-34-34l-58 34q23 47 52 71.5t64 24.5z" glyph-name="ntilde" horiz-adv-x="513" unicode="&#xf1;"/><glyph d="M466 175q0-44-17.5-78t-47-56.5-67.5-34-79-11.5q-42 0-80.5 11.5t-67 34-45.5 56.5-17 78v144q0 44 17.5 78t46.5 57 67 35 80 12q45 0 83-12t66.5-35.5 44.5-57.5 16-78v-143zM361 300q0 28-9.5 47.5t-24.5 31.5-34 17.5-37 5.5-37-5.5-34-17.5-24.5-31.5-9.5-47.5v-105q0-56 31-79t74-23q18 0 37 5.5t34 17.5 24.5 31.5 9.5 47.5v105zM255 546l-115 177 98 32 79-183z" glyph-name="ograve" horiz-adv-x="512" unicode="&#xf2;"/><glyph d="M466 175q0-44-17.5-78t-47-56.5-67.5-34-79-11.5q-42 0-80.5 11.5t-67 34-45.5 56.5-17 78v144q0 44 17.5 78t46.5 57 67 35 80 12q45 0 83-12t66.5-35.5 44.5-57.5 16-78v-143zM361 300q0 28-9.5 47.5t-24.5 31.5-34 17.5-37 5.5-37-5.5-34-17.5-24.5-31.5-9.5-47.5v-105q0-56 31-79t74-23q18 0 37 5.5t34 17.5 24.5 31.5 9.5 47.5v105zM212 570l76 185 98-31-111-178z" glyph-name="oacute" horiz-adv-x="512" unicode="&#xf3;"/><glyph d="M466 175q0-44-17.5-78t-47-56.5-67.5-34-79-11.5q-42 0-80.5 11.5t-67 34-45.5 56.5-17 78v144q0 44 17.5 78t46.5 57 67 35 80 12q45 0 83-12t66.5-35.5 44.5-57.5 16-78v-143zM361 300q0 28-9.5 47.5t-24.5 31.5-34 17.5-37 5.5-37-5.5-34-17.5-24.5-31.5-9.5-47.5v-105q0-56 31-79t74-23q18 0 37 5.5t34 17.5 24.5 31.5 9.5 47.5v105zM258 648q-6-4-26-19.5l-43-33.5-43-33.5t-26-19.5l-44 41 149 154h70l145-152-46-43z" glyph-name="ocircumflex" horiz-adv-x="512" unicode="&#xf4;"/><glyph d="M466 175q0-44-17.5-78t-47-56.5-67.5-34-79-11.5q-42 0-80.5 11.5t-67 34-45.5 56.5-17 78v144q0 44 17.5 78t46.5 57 67 35 80 12q45 0 83-12t66.5-35.5 44.5-57.5 16-78v-143zM361 300q0 28-9.5 47.5t-24.5 31.5-34 17.5-37 5.5-37-5.5-34-17.5-24.5-31.5-9.5-47.5v-105q0-56 31-79t74-23q18 0 37 5.5t34 17.5 24.5 31.5 9.5 47.5v105zM196 706q19 0 37.5-7.5t36-16.5l33-16.5t27.5-7.5q16 0 30.5 10.5t31.5 35.5l58-34q-24-51-51.5-73.5t-60.5-22.5q-19 0-37 7t-35 15l-33 15t-30 7q-17 0-31-8t-34-34l-58 34q23 47 52 71.5t64 24.5z" glyph-name="otilde" horiz-adv-x="512" unicode="&#xf5;"/><glyph d="M466 175q0-44-17.5-78t-47-56.5-67.5-34-79-11.5q-42 0-80.5 11.5t-67 34-45.5 56.5-17 78v144q0 44 17.5 78t46.5 57 67 35 80 12q45 0 83-12t66.5-35.5 44.5-57.5 16-78v-143zM361 300q0 28-9.5 47.5t-24.5 31.5-34 17.5-37 5.5-37-5.5-34-17.5-24.5-31.5-9.5-47.5v-105q0-56 31-79t74-23q18 0 37 5.5t34 17.5 24.5 31.5 9.5 47.5v105zM299 632q0 24 17 41t41 17q25 0 42-17t17-41-17-41-42-17q-24 0-41 17t-17 41zM103 632q0 24 17 41t40 17q25 0 42-17t17-41-17-41-42-17q-23 0-40 17t-17 41z" glyph-name="odieresis" horiz-adv-x="512" unicode="&#xf6;"/><glyph d="M466 175q0-44-17.5-78t-47-56.5-67.5-34-79-11.5-77 10.5-64 30.5l-35-43-35 29 36 45q-17 21-26 48t-9 60v144q0 44 17.5 78t46.5 57 67 35 80 12q85 0 141-41l33 41 36-28-36-45q36-45 36-110v-143zM361 300q0 19-5 36l-176-218q14-14 33.5-19.5t42.5-5.5q18 0 37 5.5t34 17.5 24.5 31.5 9.5 47.5v105zM330 376q-16 14-35.5 20t-38.5 6q-18 0-37-5.5t-34-17.5-24.5-31.5-9.5-47.5v-105q0-22 4-35z" glyph-name="oslash" horiz-adv-x="512" unicode="&#xf8;"/><glyph d="M151 495v-310q0-50 23-70t55-20q55 0 132 54v346h107v-495h-97l-10 48q-58-35-93.5-44.5t-60.5-9.5q-81 0-122 49.5t-41 132.5v319h107zM252 546l-115 177 98 32 79-183z" glyph-name="ugrave" horiz-adv-x="516" unicode="&#xf9;"/><glyph d="M151 495v-310q0-50 23-70t55-20q55 0 132 54v346h107v-495h-97l-10 48q-58-35-93.5-44.5t-60.5-9.5q-81 0-122 49.5t-41 132.5v319h107zM207 570l76 185 98-31-111-178z" glyph-name="uacute" horiz-adv-x="516" unicode="&#xfa;"/><glyph d="M151 495v-310q0-50 23-70t55-20q55 0 132 54v346h107v-495h-97l-10 48q-58-35-93.5-44.5t-60.5-9.5q-81 0-122 49.5t-41 132.5v319h107zM256 648q-6-4-26-19.5l-43-33.5-43-33.5t-26-19.5l-44 41 149 154h70l145-152-46-43z" glyph-name="ucircumflex" horiz-adv-x="516" unicode="&#xfb;"/><glyph d="M151 495v-310q0-50 23-70t55-20q55 0 132 54v346h107v-495h-97l-10 48q-58-35-93.5-44.5t-60.5-9.5q-81 0-122 49.5t-41 132.5v319h107zM294 632q0 24 17 41t41 17q25 0 42-17t17-41-17-41-42-17q-24 0-41 17t-17 41zM98 632q0 24 17 41t40 17q25 0 42-17t17-41-17-41-42-17q-23 0-40 17t-17 41z" glyph-name="udieresis" horiz-adv-x="516" unicode="&#xfc;"/><glyph d="M106-200l75 210-36 29-135 457h112l53-203 49-181h3l63 182 67 202h112l-253-696h-110zM186 570l76 185 98-31-111-178z" glyph-name="yacute" horiz-adv-x="472" unicode="&#xfd;"/><glyph d="M469 172q0-83-45.5-130.5t-128.5-47.5q-26 0-62 5t-79 25v-222h-106v887h106v-243q48 31 85.5 42.5t63.5 11.5q77 0 121.5-43.5t44.5-135.5v-149zM362 312q0 50-21.5 68.5t-54.5 18.5q-13 0-29.5-4t-34.5-11-35.5-16-32.5-19v-226q40-17 68.5-23t55.5-6q17 0 32.5 4t27 14.5 18 27.5 6.5 42v130z" glyph-name="thorn" horiz-adv-x="509" unicode="&#xfe;"/><glyph d="M106-200l75 210-36 29-135 457h112l53-203 49-181h3l63 182 67 202h112l-253-696h-110zM277 632q0 24 17 41t41 17q25 0 42-17t17-41-17-41-42-17q-24 0-41 17t-17 41zM81 632q0 24 17 41t40 17q25 0 42-17t17-41-17-41-42-17q-23 0-40 17t-17 41z" glyph-name="ydieresis" horiz-adv-x="472" unicode="&#xff;"/><glyph d="M437 149h-257l-49-149h-121l241 689h116l241-689h-124zM213 248h191l-41 129-53 175h-4l-51-168zM163 773v89h289v-89h-289z" glyph-name="Amacron" horiz-adv-x="617" unicode="&#x100;"/><glyph d="M354 45q-53-30-89.5-39.5t-67.5-9.5q-74 0-116 40t-42 110q0 41 18 69t45 45.5 58.5 25.5 58.5 8h137v30q0 44-25 63t-77 19q-25 0-61.5-7.5t-73.5-37.5l-49 79q50 38 100.5 49.5t93.5 11.5q102 0 150-45t48-137v-319h-96l-9 43zM356 212h-119q-14 0-29-2t-27.5-8.5-21-18.5-8.5-33q0-28 20-43.5t53-15.5q18 0 36 4.5t35.5 11 33 14.5 27.5 15v76zM121 593v89h290v-89h-290z" glyph-name="amacron" horiz-adv-x="510" unicode="&#x101;"/><glyph d="M437 149h-257l-49-149h-121l241 689h116l241-689h-124zM213 248h191l-41 129-53 175h-4l-51-168zM309 731q-42 0-69.5 14t-45 35-25 45.5-8.5 45.5h82q1-10 5.5-21.5t13-21 20.5-16 27-6.5q17 0 29.5 6.5t21 16 12.5 21 4 21.5h81q-2-21-10-45.5t-24.5-45.5-44-35-69.5-14z" glyph-name="Abreve" horiz-adv-x="617" unicode="&#x102;"/><glyph d="M354 45q-53-30-89.5-39.5t-67.5-9.5q-74 0-116 40t-42 110q0 41 18 69t45 45.5 58.5 25.5 58.5 8h137v30q0 44-25 63t-77 19q-25 0-61.5-7.5t-73.5-37.5l-49 79q50 38 100.5 49.5t93.5 11.5q102 0 150-45t48-137v-319h-96l-9 43zM356 212h-119q-14 0-29-2t-27.5-8.5-21-18.5-8.5-33q0-28 20-43.5t53-15.5q18 0 36 4.5t35.5 11 33 14.5 27.5 15v76zM274 566q-42 0-69.5 14t-45 35-25 45-8.5 45h82q1-10 5.5-21t13-20.5 20.5-16 27-6.5q17 0 29.5 6.5t21 16 12.5 20.5 4 21h81q-2-21-10-45t-24.5-45-44-35-69.5-14z" glyph-name="abreve" horiz-adv-x="510" unicode="&#x103;"/><glyph d="M437 149h-257l-49-149h-121l241 689h116l241-689h-50q-19-26-27.5-45t-8.5-36q0-38 42-38 11 0 25 4.5t34 12.5l23-58q-21-12-46.5-19.5t-51.5-7.5q-45 0-72.5 26.5t-27.5 64.5q0 21 8 43.5t29 52.5h-1zM213 248h191l-41 129-53 175h-4l-51-168z" glyph-name="Aogonek" horiz-adv-x="617" unicode="&#x104;"/><glyph d="M354 45q-53-30-89.5-39.5t-67.5-9.5q-74 0-116 40t-42 110q0 41 18 69t45 45.5 58.5 25.5 58.5 8h137v30q0 44-25 63t-77 19q-25 0-61.5-7.5t-73.5-37.5l-49 79q50 38 100.5 49.5t93.5 11.5q102 0 150-45t48-137v-319h-25q-19-26-27.5-45t-8.5-36q0-38 42-38 11 0 25 4.5t34 12.5l23-58q-21-12-46.5-19.5t-51.5-7.5q-45 0-72.5 26.5t-27.5 64.5q0 21 8 44t30 53l-8 42zM356 212h-119q-14 0-29-2t-27.5-8.5-21-18.5-8.5-33q0-28 20-43.5t53-15.5q18 0 36 4.5t35.5 11 33 14.5 27.5 15v76z" glyph-name="aogonek" horiz-adv-x="510" unicode="&#x105;"/><glyph d="M457 542q-29 25-68 37t-76 12q-26 0-51.5-8t-45.5-25-32.5-44-12.5-65v-209q0-38 12.5-65t33-44 45.5-25 50-8q37 0 75 10.5t72 37.5l54-88q-35-29-88-47t-113-18q-50 0-96 14.5t-81.5 43-57 70.5-21.5 96v255q0 54 21.5 95.5t57 70 81.5 43.5 95 15q57 0 109.5-16t92.5-49zM227 787l168 130 60-82-190-101z" glyph-name="Cacute" horiz-adv-x="544" unicode="&#x106;"/><glyph d="M422 62q-40-41-85-54t-90-13q-42 0-79 12t-64 35-42.5 55.5-15.5 74.5v147q0 44 17 78t45 57 64 35 74 12q22 0 45-2.5t45.5-9 44-19 41.5-33.5l-62-79q-34 31-60.5 38t-46.5 7q-17 0-35-5.5t-32.5-17.5-24-31.5-9.5-47.5v-106q0-28 8.5-47.5t22.5-31.5 32-17.5 37-5.5q21 0 51 9.5t54 32.5zM191 570l76 185 98-31-111-178z" glyph-name="cacute" horiz-adv-x="441" unicode="&#x107;"/><glyph d="M457 542q-29 25-68 37t-76 12q-26 0-51.5-8t-45.5-25-32.5-44-12.5-65v-209q0-38 12.5-65t33-44 45.5-25 50-8q37 0 75 10.5t72 37.5l54-88q-35-29-88-47t-113-18q-50 0-96 14.5t-81.5 43-57 70.5-21.5 96v255q0 54 21.5 95.5t57 70 81.5 43.5 95 15q57 0 109.5-16t92.5-49zM309 819l-146-84-36 45 150 125h68l146-124-37-46z" glyph-name="Ccircumflex" horiz-adv-x="544" unicode="&#x108;"/><glyph d="M422 62q-40-41-85-54t-90-13q-42 0-79 12t-64 35-42.5 55.5-15.5 74.5v147q0 44 17 78t45 57 64 35 74 12q22 0 45-2.5t45.5-9 44-19 41.5-33.5l-62-79q-34 31-60.5 38t-46.5 7q-17 0-35-5.5t-32.5-17.5-24-31.5-9.5-47.5v-106q0-28 8.5-47.5t22.5-31.5 32-17.5 37-5.5q21 0 51 9.5t54 32.5zM246 648q-6-4-26-19.5l-43-33.5-43-33.5t-26-19.5l-44 41 149 154h70l145-152-46-43z" glyph-name="ccircumflex" horiz-adv-x="441" unicode="&#x109;"/><glyph d="M457 542q-29 25-68 37t-76 12q-26 0-51.5-8t-45.5-25-32.5-44-12.5-65v-209q0-38 12.5-65t33-44 45.5-25 50-8q37 0 75 10.5t72 37.5l54-88q-35-29-88-47t-113-18q-50 0-96 14.5t-81.5 43-57 70.5-21.5 96v255q0 54 21.5 95.5t57 70 81.5 43.5 95 15q57 0 109.5-16t92.5-49zM303 749q-29 0-46 18.5t-17 46.5q0 24 17 43t45 19q29 0 47-19t18-43q0-26-17-45.5t-47-19.5z" glyph-name="Cdotaccent" horiz-adv-x="544" unicode="&#x10a;"/><glyph d="M422 62q-40-41-85-54t-90-13q-42 0-79 12t-64 35-42.5 55.5-15.5 74.5v147q0 44 17 78t45 57 64 35 74 12q22 0 45-2.5t45.5-9 44-19 41.5-33.5l-62-79q-34 31-60.5 38t-46.5 7q-17 0-35-5.5t-32.5-17.5-24-31.5-9.5-47.5v-106q0-28 8.5-47.5t22.5-31.5 32-17.5 37-5.5q21 0 51 9.5t54 32.5zM247 576q-29 0-46 18.5t-17 46.5q0 24 17 43t45 19q29 0 47-19t18-43q0-26-17-45.5t-47-19.5z" glyph-name="cdotaccent" horiz-adv-x="441" unicode="&#x10b;"/><glyph d="M457 542q-29 25-68 37t-76 12q-26 0-51.5-8t-45.5-25-32.5-44-12.5-65v-209q0-38 12.5-65t33-44 45.5-25 50-8q37 0 75 10.5t72 37.5l54-88q-35-29-88-47t-113-18q-50 0-96 14.5t-81.5 43-57 70.5-21.5 96v255q0 54 21.5 95.5t57 70 81.5 43.5 95 15q57 0 109.5-16t92.5-49zM441 908l37-46-145-124h-68l-150 126 35 44 146-84z" glyph-name="Ccaron" horiz-adv-x="544" unicode="&#x10c;"/><glyph d="M422 62q-40-41-85-54t-90-13q-42 0-79 12t-64 35-42.5 55.5-15.5 74.5v147q0 44 17 78t45 57 64 35 74 12q22 0 45-2.5t45.5-9 44-19 41.5-33.5l-62-79q-34 31-60.5 38t-46.5 7q-17 0-35-5.5t-32.5-17.5-24-31.5-9.5-47.5v-106q0-28 8.5-47.5t22.5-31.5 32-17.5 37-5.5q21 0 51 9.5t54 32.5zM380 737l46-42-145-153h-70l-149 154 44 41q6-4 26-19l43-33 43-33.5t26-19.5z" glyph-name="ccaron" horiz-adv-x="441" unicode="&#x10d;"/><glyph d="M559 223q0-53-19.5-94t-53-70-77-44-91.5-15h-259v689h260q48 0 91.5-14.5t76.5-43 52.5-70 19.5-95.5v-243zM443 445q0 39-12.5 66t-33.5 43.5-47 24-53 7.5h-124v-485h124q25 0 51 7.5t47 24 34.5 43.5 13.5 66v203zM421 908l37-46-145-124h-68l-150 126 35 44 146-84z" glyph-name="Dcaron" horiz-adv-x="611" unicode="&#x10e;"/><glyph d="M504 528q24 17 38 33t17 43q-22 2-36 20t-14 44 19.5 46 48.5 20q39 0 57.5-27t18.5-62q0-57-32.5-100t-80.5-65zM45 323q0 83 47.5 130.5t125.5 47.5q26 0 62.5-5.5t78.5-22.5v243h106v-716h-96l-10 49q-51-31-86.5-42.5t-61.5-11.5q-77 0-121.5 43.5t-44.5 135.5v149zM151 182q0-50 21.5-68.5t54.5-18.5q13 0 29.5 4t34.5 11 35.5 16 32.5 19v227q-35 14-65.5 21.5t-58.5 7.5q-35 0-59.5-21t-24.5-71v-127z" glyph-name="dcaron" horiz-adv-x="637" unicode="&#x10f;"/><glyph d="M6 390h53v299h260q48 0 91.5-14.5t76.5-43 52.5-70 19.5-95.5v-243q0-53-19.5-94t-53-70-77-44-91.5-15h-259v309h-53v81zM443 445q0 39-12.5 66t-33.5 43.5-47 24-53 7.5h-124v-196h115v-81h-115v-208h124q25 0 51 7.5t47 24 34.5 43.5 13.5 66v203z" glyph-name="Dcroat" horiz-adv-x="611" unicode="&#x110;"/><glyph d="M207 639h152v77h106v-77h45v-74h-45v-565h-96l-10 49q-51-31-86.5-42.5t-61.5-11.5q-77 0-121.5 43.5t-44.5 135.5v149q0 83 47.5 130.5t125.5 47.5q26 0 62.5-5.5t78.5-22.5v92h-152v74zM151 182q0-50 21.5-68.5t54.5-18.5q13 0 29.5 4t34.5 11 35.5 16 32.5 19v227q-35 14-65.5 21.5t-58.5 7.5q-35 0-59.5-21t-24.5-71v-127z" glyph-name="dcroat" horiz-adv-x="513" unicode="&#x111;"/><glyph d="M61 689h467v-103h-353v-189h302v-103h-302v-192h353v-102h-467v689zM157 773v89h289v-89h-289z" glyph-name="Emacron" horiz-adv-x="567" unicode="&#x112;"/><glyph d="M152 213v-25q0-26 9-44.5t23.5-30 34-17 40.5-5.5q23 0 55.5 8t64.5 37l31.5-36.5t30.5-36.5q-42-41-88.5-54.5t-93.5-13.5q-43 0-81.5 11t-68 33.5-46.5 56.5-17 80v130q0 45 15.5 81t43.5 61 65 38.5 81 13.5q45 0 83-13t65.5-37.5 42.5-59.5 15-80v-97h-305zM350 304q0 52-29 75.5t-69 23.5-69.5-24.5-29.5-73.5v-16h197v15zM113 593v89h290v-89h-290z" glyph-name="emacron" horiz-adv-x="495" unicode="&#x113;"/><glyph d="M61 689h467v-103h-353v-189h302v-103h-302v-192h353v-102h-467v689zM301 731q-42 0-69.5 14t-45 35-25 45.5-8.5 45.5h82q1-10 5.5-21.5t13-21 20.5-16 27-6.5q17 0 29.5 6.5t21 16 12.5 21 4 21.5h81q-2-21-10-45.5t-24.5-45.5-44-35-69.5-14z" glyph-name="Ebreve" horiz-adv-x="567" unicode="&#x114;"/><glyph d="M152 213v-25q0-26 9-44.5t23.5-30 34-17 40.5-5.5q23 0 55.5 8t64.5 37l31.5-36.5t30.5-36.5q-42-41-88.5-54.5t-93.5-13.5q-43 0-81.5 11t-68 33.5-46.5 56.5-17 80v130q0 45 15.5 81t43.5 61 65 38.5 81 13.5q45 0 83-13t65.5-37.5 42.5-59.5 15-80v-97h-305zM350 304q0 52-29 75.5t-69 23.5-69.5-24.5-29.5-73.5v-16h197v15zM257 566q-42 0-69.5 14t-45 35-25 45-8.5 45h82q1-10 5.5-21t13-20.5 20.5-16 27-6.5q17 0 29.5 6.5t21 16 12.5 20.5 4 21h81q-2-21-10-45t-24.5-45-44-35-69.5-14z" glyph-name="ebreve" horiz-adv-x="495" unicode="&#x115;"/><glyph d="M61 689h467v-103h-353v-189h302v-103h-302v-192h353v-102h-467v689zM299 749q-29 0-46 18.5t-17 46.5q0 24 17 43t45 19q29 0 47-19t18-43q0-26-17-45.5t-47-19.5z" glyph-name="Edotaccent" horiz-adv-x="567" unicode="&#x116;"/><glyph d="M152 213v-25q0-26 9-44.5t23.5-30 34-17 40.5-5.5q23 0 55.5 8t64.5 37l31.5-36.5t30.5-36.5q-42-41-88.5-54.5t-93.5-13.5q-43 0-81.5 11t-68 33.5-46.5 56.5-17 80v130q0 45 15.5 81t43.5 61 65 38.5 81 13.5q45 0 83-13t65.5-37.5 42.5-59.5 15-80v-97h-305zM350 304q0 52-29 75.5t-69 23.5-69.5-24.5-29.5-73.5v-16h197v15zM253 576q-29 0-46 18.5t-17 46.5q0 24 17 43t45 19q29 0 47-19t18-43q0-26-17-45.5t-47-19.5z" glyph-name="edotaccent" horiz-adv-x="495" unicode="&#x117;"/><glyph d="M61 689h467v-103h-353v-189h302v-103h-302v-192h353v-102q-19-26-27.5-45t-8.5-36q0-38 42-38 11 0 25 4.5t34 12.5l23-58q-21-12-46.5-19.5t-51.5-7.5q-45 0-72.5 26.5t-27.5 64.5q0 21 8 43.5t29 52.5h-394v689z" glyph-name="Eogonek" horiz-adv-x="567" unicode="&#x118;"/></font>
</defs>
</svg>
