<svg xmlns="http://www.w3.org/2000/svg"><defs><font horiz-adv-x="1228"><font-face ascent="1536" descent="-512" units-per-em="2048"/><missing-glyph horiz-adv-x="500"/><glyph/><glyph/><glyph unicode="&#xd;"/><glyph unicode="&#x20;"/><glyph d="M492 0l20 143h143l-20-143h-143zM551 307l158 1127h106l-158-1127h-106z" unicode="&#x21;"/><glyph d="M453 989l63 465h139l-131-465h-71zM741 989l64 465h139l-133-465h-70z" unicode="&#x22;"/><glyph d="M152 422l12 92h215l117 418h-203l12 92h213l119 410h96l-115-410h265l116 410h95l-117-410h201l-13-92h-213l-116-418h200l-12-92h-213l-119-422h-94l117 422h-266l-119-422h-92l114 422h-200zM475 514h264l117 418h-264z" unicode="&#x23;"/><glyph d="M242 358l6 50h108l-6-50q-17-111 42.5-187.5t168.5-76.5h27q108 0 189 73t95 175q9 68-4 122t-43 91-71.5 68-88.5 56l-94 50t-88.5 57-71.5 70.5-43 95-3 127.5q19 135 116.5 234.5t233.5 122.5l14 102h94l-14-102q134-22 205.5-118.5t54.5-240.5h-104q11 112-46.5 185t-164.5 73q-106 0-187-70t-94-175q-8-55 7-100t46-76 73.5-58 90-51.5 94.5-51.5 88.5-62.5 70.5-79.5 41-109 1-144q-22-143-128.5-245t-248.5-115l-14-102h-94l14 102q-139 15-215.5 117t-56.5 243z" unicode="&#x24;"/><glyph d="M117 469l14 96 1079 400-14-97zM272 1042l31 207q12 87 82.5 145t157.5 58h16q86 0 140-57.5t42-145.5l-30-207q-12-87-83.5-149t-156.5-62h-16q-86 0-140.5 62t-42.5 149zM365 1051q-8-56 23-93.5t89-37.5q53 0 95 37.5t49 91.5l26 184q8 56-23.5 93.5t-86.5 37.5-96.5-37.5-49.5-93.5zM596 193l29 206q12 87 82 145t157 58h17q86 0 140-57.5t42-145.5l-29-206q-12-87-83-149t-156-62h-17q-85 0-139.5 62t-42.5 149zM688 201q-8-56 23.5-93.5t89.5-37.5q52 0 93.5 37.5t49.5 91.5l25 184q8 56-24 93.5t-87 37.5-96-37.5-49-93.5z" unicode="&#x25;"/><glyph d="M244 344l43 311q13 94 81.5 173t159.5 116l-94 311 27 179h594l-15-101h-485l-6-43 293-1038q29 67 35 110l38 279h107l-41-299q-20-130-98-221 26-86 35-121h-117l-10 49q-113-69-224-69h-12q-150 0-241.5 107t-69.5 257zM352 342q-15-111 49-187.5t174-76.5q95 0 183 63l-203 709q-64-29-107.5-83t-52.5-114z" unicode="&#x26;"/><glyph d="M598 989l64 465h139l-131-465h-72z" unicode="&#x27;"/><glyph d="M397-35l160 1139q20 141 138 246t261 116l-14-102q-106-4-183.5-79t-92.5-183l-160-1141q-15-107 42-182.5t161-79.5l-15-98q-147 3-233 108.5t-64 255.5z" unicode="&#x28;"/><glyph d="M346-399l14 98q105 4 184.5 79.5t94.5 182.5l160 1141q15 108-43 183t-162 79l14 102q147-3 233-107.5t64-254.5l-160-1139q-20-141-138-247t-261-117z" unicode="&#x29;"/><glyph d="M477 1260l31 67 162-47 24 174h72l-25-174 179 55 8-63-178-66 81-139-59-41-84 141-115-141-53 41 115 143z" unicode="&#x2a;"/><glyph d="M199 528l14 103h395l56 395h104l-55-395h395l-14-103h-396l-55-397h-104l55 397h-395z" unicode="&#x2b;"/><glyph d="M506-246l108 246h-65l20 143h142l-21-153-110-236h-74z" unicode="&#x2c;"/><glyph d="M418 528l14 103h457l-15-103h-456z" unicode="&#x2d;"/><glyph d="M537 0l20 143h143l-20-143h-143z" unicode="&#x2e;"/><glyph d="M127-371l946 1805h101l-945-1805h-102z" unicode="&#x2f;"/><glyph d="M260 344l105 748q22 151 137 256.5t256 105.5h16q143 0 229-106t64-256l-106-750q-20-150-136.5-256t-259.5-106h-16q-141 0-226 106.5t-63 257.5zM362 342q-15-111 45-187.5t166-76.5q103 0 185.5 76t97.5 186l107 750q15 111-46.5 188.5t-166.5 77.5q-104 0-185-77.5t-96-188.5z" unicode="&#x30;"/><glyph d="M229 0l15 98h270l172 1233-242-35 15 103 229 35h119l-186-1336h290l-14-98h-668z" unicode="&#x31;"/><glyph d="M190 0l17 123q11 78 43 149t76.5 127 99.5 107.5 114.5 97 118 90 113 90.5 98 94 73 106.5 38.5 121.5q15 105-49 177.5t-170 72.5q-107 0-191-76t-106-188h-107q26 159 147.5 260.5t272.5 101.5q152 0 243-103t69-257q-13-89-59.5-169t-111.5-141.5-141.5-120-152.5-116-140.5-117-110-135.5-57.5-160l-6-37h637l-12-98h-746z" unicode="&#x32;"/><glyph d="M244 342v8h106v-10q-17-110 48.5-186t176.5-76q110 0 197 77t102 187l41 291q11 84-39.5 146.5t-134.5 62.5h-125l17 112 334 379h-504l14 101h623l-17-113-340-381q122 0 209.5-89.5t69.5-215.5l-41-291q-22-151-142.5-257.5t-271.5-106.5h-12q-151 0-242 105.5t-69 256.5z" unicode="&#x33;"/><glyph d="M217 322l19 127 600 985h114l-610-1008h442l56 389h108l-55-389h123l-15-104h-122l-46-322h-108l45 322h-551z" unicode="&#x34;"/><glyph d="M244 342v8h108v-10q-17-110 48-186t175-76 197 77 102 187l35 246q15 111-50 188.5t-175 77.5h-12q-68 0-125.5-32t-87.5-74l-105 30 152 658h579l-14-105h-481l-103-457q36 31 94 54.5t111 23.5h13q151 0 242-105.5t69-256.5l-35-246q-22-151-142.5-257.5t-271.5-106.5h-12q-150 0-241.5 106t-69.5 256z" unicode="&#x35;"/><glyph d="M240 342l106 748q20 151 138.5 257.5t267.5 106.5h12q140 0 228-103.5t79-246.5h-106q9 107-53.5 178.5t-168.5 71.5q-109 0-191-77.5t-97-189.5l-43-294q36 54 115 105.5t161 51.5h14q150 0 242-106t70-256l-33-244q-22-150-144-257t-272-107h-14q-149 0-240 105.5t-71 256.5zM348 340q-15-111 49-186.5t174-75.5q112 0 198 76.5t101 187.5l35 244q15 111-49 188.5t-176 77.5h-12q-92 0-181-79.5t-104-186.5z" unicode="&#x36;"/><glyph d="M414 1333l14 101h672l-17-123q-9-64-59-181t-117.5-254.5-136.5-284-126.5-306-76.5-285.5h-110q21 139 79.5 304.5t128 311.5 137 281 118 251.5 59.5 184.5h-565z" unicode="&#x37;"/><glyph d="M242 344l10 84q13 94 74.5 177t154.5 138q-69 55-102 132.5t-21 162.5l11 72q20 143 134 243.5t255 100.5h18q141 0 226-100.5t65-243.5l-10-74q-12-85-66-161.5t-137-131.5q77-54 113.5-137.5t23.5-177.5l-12-86q-20-150-140-256t-270-106h-18q-149 0-240 106.5t-69 257.5zM350 342q-15-111 50-187.5t178-76.5q107 0 192 76t100 186l13 86q15 111-49.5 188.5t-176.5 77.5q-108 0-194-77.5t-101-188.5zM463 1036q-14-99 42.5-172t160.5-73h18q95 0 173 70t93 173l11 68q14 107-46 180.5t-165 73.5q-103 0-183-74t-94-180z" unicode="&#x38;"/><glyph d="M254 328h106q-9-106 53.5-178t168.5-72q109 0 192 78t98 190l41 293q-41-56-118.5-107t-157.5-51h-14q-150 0-242 106.5t-70 256.5l35 246q20 150 142 257t272 107h14q150 0 241.5-106t69.5-256l-104-748q-22-151-140.5-257.5t-267.5-106.5h-12q-140 0-227.5 102.5t-79.5 245.5zM420 846q-15-111 49-188.5t174-77.5h14q92 0 181 79.5t104 186.5l35 248q15 111-49 185.5t-176 74.5q-110 0-196-76t-101-186z" unicode="&#x39;"/><glyph d="M506 0l20 143h144l-21-143h-143zM629 881l20 143h144l-21-143h-143z" unicode="&#x3a;"/><glyph d="M475-246l109 246h-66l21 143h141l-23-153-108-236h-74zM643 881l19 143h143l-19-143h-143z" unicode="&#x3b;"/><glyph d="M229 543l17 119 889 376-17-112-774-320v-8l684-317-16-115z" unicode="&#x3c;"/><glyph d="M176 367l14 102h897l-14-102h-897zM221 692l15 105h897l-15-105h-897z" unicode="&#x3d;"/><glyph d="M176 166l17 115 774 317v8l-684 320 16 112 782-376-16-119z" unicode="&#x3e;"/><glyph d="M350 1092q26 160 145 261t271 101q156 0 247-99t68-261q-11-77-38-139.5t-63-106.5-78-84.5-84.5-83.5-79.5-92-66.5-121-42.5-160h-105q15 99 45 179t67.5 133.5 79.5 98.5 83.5 84.5 76.5 80.5 61.5 97 35.5 124q15 105-49.5 176.5t-171.5 71.5-190-74-105-186h-107zM463 0l18 143h144l-19-143h-143z" unicode="&#x3f;"/><glyph d="M164 37l143 1016q15 109 82.5 201t168.5 146 212 54h23q166 0 266.5-117.5t77.5-283.5l-148-1053h-100l12 86q-51-55-97-80.5t-106-25.5q-108 0-174 79t-51 193l72 508q15 107 104.5 184.5t196.5 77.5q123 0 170-111l20 142q19 128-57 217.5t-201 89.5h-22q-126 0-226.5-89t-119.5-218l-144-1016q-19-132 56.5-221.5t201.5-89.5l-12-95q-167 2-269 120.5t-79 285.5zM575 264q-12-87 28.5-141.5t109.5-54.5q85 0 143 53.5t70 142.5l67 481q12 87-30.5 135t-126.5 48q-72 0-126.5-49t-66.5-134z" unicode="&#x40;"/><glyph d="M197 0l77 561 379 873h221l134-873-78-561h-107l68 489h-520l-68-489h-106zM395 588h500l-107 747h-73z" unicode="&#x41;"/><glyph d="M227 0l201 1434h348q132 0 208-88 63-72 63-167 0-21-3-44l-16-119q-10-73-60-141.5t-120-114.5q122-104 122-237 0-21-3-42l-23-155q-20-139-131.5-232.5t-245.5-93.5h-340zM348 98h234q98 0 172 67.5t86 160.5l22 155q2 13 2 27 0 22-5 44-8 38-28.5 74t-63 59.5-99.5 23.5h-234zM446 803h248q85 0 153.5 60t80.5 145l16 118q2 16 2 31 0 65-42 114-52 60-136 60h-248z" unicode="&#x42;"/><glyph d="M244 340l106 756q22 149 142 253.5t268 104.5h14q149 0 239-104 72-84 73-197 0-28-5-57h-106q3 19 3 38 0 84-53 144-64 74-171 74-110 0-196-74.5t-101-183.5l-107-756q-3-21-3-40 0-82 52-144 64-76 174-76 109 0 194.5 74.5t100.5 183.5l2 10h107l-2-8q-22-149-141.5-253.5t-268.5-104.5h-14q-147 0-237 106-73 86-74 201 0 26 4 53z" unicode="&#x43;"/><glyph d="M207 0l201 1434h350q149 0 240-106 75-87 75-203 0-25-4-52l-100-713q-22-149-142.5-254.5t-269.5-105.5h-350zM328 98h237q110 0 195 74.5t100 183.5l101 715q4 23 4 44 0 81-52 141-65 75-176 75h-237z" unicode="&#x44;"/><glyph d="M231 0l201 1434h643l-12-99h-537l-75-528h487l-12-98h-488l-86-611h555l-14-98h-662z" unicode="&#x45;"/><glyph d="M242 0l200 1434h643l-12-99h-536l-76-528h487l-12-98h-487l-101-709h-106z" unicode="&#x46;"/><glyph d="M231 340l107 756q22 149 141.5 253.5t268.5 104.5h38q149 0 240-104 72-85 72-197 0-28-4-57h-107q3 19 3 38 0 83-53 144-64 74-171 74h-27q-109 0-194.5-74.5t-100.5-183.5l-106-756q-3-21-3-40 0-83 52-144 64-76 172-76h27q109 0 194.5 74.5t100.5 183.5l37 268h-213l14 98h319l-51-364q-22-149-141-253.5t-268-104.5h-39q-149 0-239 105-73 86-73 202 0 26 4 53z" unicode="&#x47;"/><glyph d="M197 0l200 1434h107l-88-627h520l88 627h106l-200-1434h-107l101 709h-521l-100-709h-106z" unicode="&#x48;"/><glyph d="M193 0l14 98h319l174 1237h-319l12 99h742l-13-99h-315l-174-1237h315l-14-98h-741z" unicode="&#x49;"/><glyph d="M244 338l18 129h107l-19-131q-3-21-3-40 0-83 53-144 64-74 173-74 110 0 195 75.5t100 184.5l142 997h-555l14 99h661l-153-1094q-22-149-142-254.5t-268-105.5h-14q-149 0-239 104-74 86-74 201 0 26 4 53z" unicode="&#x4a;"/><glyph d="M184 0l201 1434h107l-201-1434h-107zM403 760l594 674h119l-596-676 422-758h-117z" unicode="&#x4b;"/><glyph d="M233 0l201 1434h107l-187-1336h551l-14-98h-658z" unicode="&#x4c;"/><glyph d="M152 0l200 1434h142l172-666h10l356 666h142l-201-1434h-107l164 1163 25 117h-8l-340-635h-109l-160 635h-8l-8-117-164-1163h-106z" unicode="&#x4d;"/><glyph d="M197 0l200 1434h133l306-1160 16-92 8 2 2 99 162 1151h106l-200-1434h-133l-301 1147-21 104-6-2-6-112-160-1137h-106z" unicode="&#x4e;"/><glyph d="M231 340l107 756q22 149 141.5 253.5t268.5 104.5h38q150 0 240-104 73-84 72-197 0-27-4-57l-107-758q-22-149-141-253.5t-268-104.5h-39q-149 0-239 105-73 86-73 202 0 26 4 53zM338 338q-3-21-3-40 0-82 52-144 64-76 172-76h27q109 0 194.5 74.5t100.5 183.5l106 758q3 21 3 40 0 84-52 144-64 74-172 74h-27q-109 0-194.5-74.5t-100.5-183.5z" unicode="&#x4f;"/><glyph d="M231 0l201 1434h365q123 0 199-88 62-72 62-167 0-21-3-44l-45-312q-17-126-117-213.5t-223-87.5h-258l-74-522h-107zM424 621h252q82 0 149.5 57.5t77.5 138.5l45 316q2 15 2 29 0 64-42 111-50 58-132 58h-252z" unicode="&#x50;"/><glyph d="M215 340l107 756q20 149 139 253.5t268 104.5h39q149 0 239-104 74-86 74-201 0-26-4-53l-106-758q-18-113-99-213l93-109-78-63-90 106q-109-79-236-79h-39q-149 0-239 106-72 84-72 197 0 28 4 57zM322 338q-3-24-3-45 0-43 13-74 30 59 101 100t138 41q108 0 177-84l61-73q46 64 53 133l107 758q3 21 3 40 0 83-52 144-63 74-172 74h-27q-109 0-194.5-74.5t-100.5-183.5zM377 143q68-65 166-65h26q89 0 166 53l-69 84q-44 51-111 51-52 0-104.5-34t-73.5-89z" unicode="&#x51;"/><glyph d="M215 0l201 1434h364q123 0 199-88 62-72 62-167 0-21-3-44l-41-287q-12-93-80-173.5t-161-111.5l153-563h-114l-152 547h-246l-75-547h-107zM412 645h252q82 0 148.5 57.5t78.5 139.5l41 291q2 15 2 29 0 64-42 111-50 58-132 58h-252z" unicode="&#x52;"/><glyph d="M231 338l7 49h106l-6-49q-3-21-3-40 0-82 52-144 64-76 172-76h27q108 0 193.5 72.5t99.5 171.5q4 27 4 53 1 55-17 99-26 66-75.5 109.5t-111 81-123.5 76-111 83.5-74 115q-17 47-17 103 0 27 4 56 22 151 141.5 253.5t268.5 102.5q151 0 241-100 74-82 74-202 0-27-4-56h-104q2 17 2 32 0 89-53 151-62 73-170 73-105 0-189.5-70.5t-97.5-173.5q-3-19-3-37 0-33 10-63 15-46 47-79.5t75-63.5 91-58.5 96-58.5 89.5-69 71.5-85 42-112q6-34 6-72 0-34-5-72-22-149-140.5-253.5t-266.5-104.5h-41q-149 0-239 104-73 84-73 197 0 28 4 57z" unicode="&#x53;"/><glyph d="M383 1333l14 101h733l-14-101h-311l-187-1333h-108l186 1333h-313z" unicode="&#x54;"/><glyph d="M233 340l154 1094h107l-156-1096q-3-20-3-40 0-82 53-144 65-76 175-76h25q109 0 193.5 74.5t99.5 183.5l155 1098h107l-156-1096q-20-149-139-253.5t-268-104.5h-39q-148 0-239 106-73 85-73 198 0 27 4 56z" unicode="&#x55;"/><glyph d="M317 868l80 566h107l-80-570 115-766h77l328 766 80 570h106l-79-566-377-868h-221z" unicode="&#x56;"/><glyph d="M229 0l35 864 80 570h107l-78-564-39-772h28l234 680h149l46-680h28l178 772 78 564h107l-80-570-207-864h-197l-36 645h-19l-217-645h-197z" unicode="&#x57;"/><glyph d="M137 0l465 745-231 689h121l190-580 352 580h121l-426-689 258-745h-125l-211 639-389-639h-125z" unicode="&#x58;"/><glyph d="M348 1434h119l213-609 383 609h117l-465-752-97-682h-108l96 682z" unicode="&#x59;"/><glyph d="M195 0l14 111 795 1224h-590l12 99h707l-15-111-792-1225h618l-14-98h-735z" unicode="&#x5a;"/><glyph d="M350-369l254 1803h348l-16-105h-240l-223-1599h240l-15-99h-348z" unicode="&#x5b;"/><glyph d="M381 1434h100l439-1805h-103z" unicode="&#x5c;"/><glyph d="M350-369l15 99h241l223 1599h-241l16 105h348l-254-1803h-348z" unicode="&#x5d;"/><glyph d="M317 717l373 717h96l172-717h-81l-150 600h-10l-318-600h-82z" unicode="&#x5e;"/><glyph d="M-20-264l10 76h1222l-10-76h-1222z" horiz-adv-x="1224" unicode="&#x5f;"/><glyph d="M539 1413h143l184-250h-110z" unicode="&#x60;"/><glyph d="M246 297l61 430q19 134 130 225.5t265 91.5q201 0 347-63l-111-788q-1-10-1-20 0-30 14-55 19-33 57-40l-13-88q-54 1-96 38t-59 97q-65-78-141-111.5t-146-33.5q-154 0-240 92-70 75-70 178 0 23 3 47zM348 309q-3-18-2-35 0-78 52-136 64-72 167-72 106 0 191.5 72.5t99.5 170.5l84 596q-124 53-250 53-103 0-186.5-72.5t-97.5-170.5z" unicode="&#x61;"/><glyph d="M254 41l197 1393h96l-72-510q52 52 127.5 86t149.5 34q156 0 244-92 72-76 72-179 0-22-3-46l-59-430q-19-133-133.5-225t-270.5-92q-198 0-348 61zM362 121q116-55 252-55 106 0 194.5 73t100.5 170l58 406q2 16 2 32-1 77-57 137-68 72-175 72t-193-72-100-169z" unicode="&#x62;"/><glyph d="M260 299l62 428q19 134 131 225.5t272 91.5q147 0 231-90 74-80 73-193 0-15-1-30h-100q1 13 1 25 0 82-52 137-60 63-164 63-108 0-194.5-71.5t-100.5-169.5l-58-406q-2-17-2-33 0-76 54-136 66-72 176-72 104 0 187 66.5t102 164.5h98q-27-138-137.5-228.5t-262.5-90.5q-161 0-247 92-71 75-71 180 0 23 3 47z" unicode="&#x63;"/><glyph d="M209 297l59 430q19 134 131.5 225.5t270.5 91.5q74 0 140-32.5t105-87.5l72 510h100l-202-1434h-101l17 109q-122-129-281-129-158 0-244 92-70 75-70 178 0 23 3 47zM309 309q-2-15-1-30 0-79 54-139 64-72 170-72 107 0 195 72t100 169l58 406q2 17 2 33 0 76-54 136-66 72-174 72t-193-71.5-99-169.5z" unicode="&#x64;"/><glyph d="M322 297l61 430q19 134 132.5 225.5t272.5 91.5h25q119 0 203-86 71-72 71-164 0-17-2-34l-4-33q-13-92-80-153t-188-103l-387-133-4-35q-2-17-2-33 0-76 54-134 66-70 175-70 150 0 256 32l-14-92q-129-26-250-26-158 0-248 92-74 76-74 180 0 22 3 45zM440 438l396 135q66 23 103.5 59.5t43.5 82.5l4 24q2 13 2 26 0 69-54 126-64 67-153 67h-8q-108 0-194.5-72.5t-100.5-170.5z" unicode="&#x65;"/><glyph d="M399 936l13 88h209l20 145q17 118 115 202.5t219 84.5q96 0 168-37l-66-73q-37 22-114 22-79 0-144-57t-76-133l-22-154h352l-12-88h-352l-183-1305h-100l182 1305h-209z" unicode="&#x66;"/><glyph d="M205-154q15 113 125 183l145 82 47 22q-16-2-31-2-71 0-131 36-71 43-104 115-23 53-23 108 0 21 3 42l40 289q19 139 130.5 231t269.5 92q204 0 354-63l-149-1055q-19-136-129-225.5t-273-89.5q-133 0-211 64-65 54-65 138 0 16 2 33zM305-150q-1-9-1-18 0-52 40-91 47-46 133-46h12q114 0 197.5 72.5t97.5 173.5l47 333q-42-84-137-133l-307-170q-29-16-52.5-47.5t-29.5-73.5zM336 444q-2-18-2-34 0-78 52-137 65-72 173-72 106 0 194.5 74t102.5 171l64 459q-118 53-256 53-107 0-192-73.5t-99-175.5z" unicode="&#x67;"/><glyph d="M236 0l200 1434h101l-72-510q57 53 130.5 86.5t145.5 33.5q157 0 245-92 72-76 72-179 0-22-3-46l-103-727h-100l100 715q2 17 2 34 0 77-54 135-66 72-173 72t-192-71-99-166l-100-719h-100z" unicode="&#x68;"/><glyph d="M254 0l12 88h328l119 848h-328l14 88h430l-133-936h291l-12-88h-721zM743 1270l21 143h135l-20-143h-136z" unicode="&#x69;"/><glyph d="M84-123q9 60 47 121.5t109 103.5l424 256q16 10 31.5 22.5t22.5 19.5l7 8 74 528h-383l12 88h485l-153-1094q-19-130-143-224.5t-271-94.5q-127 0-202 75-62 63-62 154 0 18 2 37zM180-121q-2-13-2-26 0-57 40-103 50-55 138-55h15q112 0 194.5 74t96.5 176l47 350q-27-25-50-39l-378-227q-88-52-101-150zM831 1270l21 143h131l-20-143h-132z" unicode="&#x6a;"/><glyph d="M340 0l201 1434h98l-201-1434h-98zM514 545l492 479h131l-490-479 379-545h-131z" unicode="&#x6b;"/><glyph d="M242 0l12 88h291l176 1258h-227l12 88h330l-189-1346h311l-12-88h-704z" unicode="&#x6c;"/><glyph d="M150 0l143 1024h92l-10-68q29 39 75 63.5t99 24.5q61 0 106.5-34.5t59.5-69.5q31 40 84.5 72t118.5 32q84 0 134-57 41-47 42-110 0-14-2-29l-119-848h-99l117 834q1 9 1 17 0 39-24 69-30 36-81 36-50 0-100-47t-60-116l-111-793h-102l117 829q1 8 1 16 0 44-28 75-33 36-92 36-48 0-96.5-48.5t-57.5-110.5l-110-797h-98z" unicode="&#x6d;"/><glyph d="M219 0l143 1024h99l-15-106q50 53 137 89.5t169 36.5q134 0 218-94 68-76 68-176 0-23-4-47l-100-727h-98l98 711q3 18 3 36 0 77-51 137-62 72-163 72-107 0-199.5-69.5t-105.5-167.5l-101-719h-98z" unicode="&#x6e;"/><glyph d="M227 297l62 430q19 134 131 225.5t272 91.5q158 0 244-92 71-75 71-178 0-23-3-47l-62-430q-19-134-130-225.5t-269-91.5q-161 0-248 92-71 75-71 178 0 23 3 47zM328 309q-2-17-2-33 0-76 54-136 66-72 175-72 106 0 191.5 71.5t99.5 169.5l57 406q2 17 2 34 1 77-53 135-66 72-174 72t-193.5-71.5-99.5-169.5z" unicode="&#x6f;"/><glyph d="M227-369l195 1393h98l-14-102q59 54 132.5 88t145.5 34q158 0 244-92 71-75 71-178 0-23-3-47l-62-430q-19-134-131-225.5t-270-91.5q-72 0-137 34t-105 86l-65-469h-99zM420 309q-2-17-2-34 0-77 54-135 65-72 173-72t193.5 71.5 99.5 169.5l57 406q2 17 2 34 0 77-53 135-66 72-172 72t-193.5-72-101.5-169z" unicode="&#x70;"/><glyph d="M180 297l62 430q19 133 133 225t270 92q200 0 346-61l-188-1352h-96l65 469q-54-52-129-86t-149-34q-156 0-244 92-73 76-73 179 0 22 3 46zM279 309q-2-16-2-32 0-77 57-137 69-72 176-72 106 0 191.5 71.5t99.5 169.5l84 594q-116 55-252 55-106 0-194.5-73t-102.5-170z" unicode="&#x71;"/><glyph d="M117 0l12 88h213l131 936h102l-16-119q37 51 115 93t155 42q58 0 104-17t74.5-44 46.5-63 24-72q5-28 5-55v-17h-104q1 12 1 23 0 65-39 109-46 52-132 52t-174.5-73.5-99.5-147.5l-91-647h408l-12-88h-723z" unicode="&#x72;"/><glyph d="M246 287h100q-2-15-2-30 0-72 50-125 60-64 155-64h12q92 0 163 55t83 139q2 13 2 26-1 32-13 58-18 38-51.5 61.5t-78 46.5-91.5 40.5-91 43.5-77 56q-33 28-49 76-11 32-11 69 0 19 3 39 17 119 118 192.5t232 73.5q72 0 128-26t87.5-67 46.5-87q13-41 13-81v-11h-105q1 9 1 17-1 67-49 114-54 53-142 53-78 0-147.5-47.5t-79.5-117.5q-2-11-2-22-1-33 13-59 18-36 52.5-57.5t79-43.5 91.5-40 91-45.5 76-60.5 48-85q10-33 10-73 0-23-3-47-17-115-124-196.5t-234-81.5h-21q-142 0-222 92-65 75-65 171 0 21 3 44z" unicode="&#x73;"/><glyph d="M313 936l13 88h157l39 287h99l-39-287h495l-12-88h-496l-92-655q-2-14-2-28 1-61 43-115 52-68 148-68 84 0 152 60t79 126h92q-10-66-59-130t-124-105-151-41q-144 0-219 90-60 73-60 168 0 23 3 47l92 651h-158z" unicode="&#x74;"/><glyph d="M231 297l103 727h98l-100-711q-3-18-3-36 0-77 51-137 62-72 163-72 107 0 199.5 69.5t105.5 167.5l102 719h99l-146-1024h-98l16 106q-52-54-138.5-90t-168.5-36q-134 0-218 94-69 76-69 176 0 23 4 47z" unicode="&#x75;"/><glyph d="M279 272l104 752h96l-104-750q-2-15-2-30 0-67 45-117 55-61 133-61 125 0 233 108t131 266l43 305q3 20 3 39 0 54-24 94-32 54-89 70l14 94q44-7 82.5-28.5t68.5-55.5q29-34 43-86 8-31 9-65 0-23-4-47l-45-318q-17-118-80.5-222.5t-168.5-172-226-67.5q-127 0-204 84-62 67-62 160 0 23 4 48z" unicode="&#x76;"/><glyph d="M164 227l110 797h99l-113-807q-2-13-2-25 0-48 29-82 36-44 98-44 61 0 112 44.5t60 106.5l113 807h102l-113-807q-2-12-2-22 1-49 33-85 40-44 101-44 64 0 118 50.5t62 108.5l76 529q3 21 3 40 0 53-21 89-28 49-85 65l14 94q97-14 152-85 43-55 43-138 0-24-4-51l-76-541q-15-103-100-175t-187-72q-74 0-124 35.5t-68 68.5q-96-104-219-104-102 0-164 72-50 58-50 136 0 19 3 39z" unicode="&#x77;"/><glyph d="M166 0l383 524-225 500h116l183-416 295 416h118l-366-500 235-524h-117l-190 438-313-438h-119z" unicode="&#x78;"/><glyph d="M207-154q9 59 43.5 107t87.5 78l180 102q-10-2-24-2-121 0-197 91-62 74-62 169 0 21 3 43l84 590h98l-82-578q-2-17-2-34 0-77 53-138 65-73 172-73 106 0 194.5 74t102.5 171l82 578h98l-153-1098q-21-136-131-225.5t-273-89.5q-133 0-211 64-65 54-65 138 0 16 2 33zM307-150q-1-9-1-18 0-52 40-91 48-46 135-46h13q114 0 197 72.5t97 173.5l46 333q-15-41-58.5-77.5t-79.5-55.5l-301-168q-30-15-55.5-48t-32.5-75z" unicode="&#x79;"/><glyph d="M209-123q9 61 46.5 122t109.5 103l405 242q-40 40-80 56t-96 16h-164l16 114 437 406h-502l12 88h602l-18-123-445-399h84q150 0 236-96 71-78 71-179 0-22-3-45l-35-252q-19-130-143-224.5t-271-94.5q-127-1-202 75-63 63-63 154 0 18 3 37zM303-121l-2-22q1-59 43-107 50-56 137-55h15q112 0 194 74t96 176l31 225q3 17 3 35 0 33-11 69l-403-245q-90-56-103-150z" unicode="&#x7a;"/><glyph d="M414 496l14 98q49 3 87 41t46 90l51 367q20 140 138 245.5t260 116.5l-15-102q-105-4-183-79t-93-183l-49-349q-10-69-57.5-125t-94.5-67l-2-8q44-13 76-69.5t22-125.5l-53-375q-14-107 43-182.5t160-79.5l-12-98q-146 3-231.5 108.5t-63.5 255.5l53 387q8 52-19 91.5t-77 42.5z" unicode="&#x7b;"/><glyph d="M477-369l254 1803h94l-254-1803h-94z" unicode="&#x7c;"/><glyph d="M291-389l12 98q106 4 184.5 79.5t92.5 182.5l53 375q10 69 57 125.5t94 69.5l2 8q-44 11-76 67t-22 125l49 349q15 108-41 183t-161 79l14 102q139-11 227-116t68-246l-51-367q-8-52 19.5-90t76.5-41l-15-98q-50-3-87.5-42.5t-45.5-91.5l-53-387q-22-150-136.5-255.5t-260.5-108.5z" unicode="&#x7d;"/><glyph d="M184 512q26 82 103.5 141.5t175.5 59.5q50 0 108-19t102-42.5 97-42.5 94-19q54 0 98 31.5t70 74.5h94q-32-80-107.5-140t-166.5-60q-62 0-139 30t-147.5 60-116.5 30q-61 0-104.5-30t-68.5-74h-92z" unicode="&#x7e;"/><glyph unicode="&#xa0;"/><glyph d="M479-408l158 1125h106l-157-1125h-107zM643 881l21 143h143l-21-143h-143z" unicode="&#xa1;"/><glyph d="M264 315l55 402q18 124 119 212t252 103l15 98h100l-17-102q116-23 182.5-109.5t55.5-197.5h-98q8 99-52.5 162t-164.5 63q-107 0-194-72.5t-101-168.5l-54-379q-12-97 54-169.5t174-72.5q104 0 188 67t103 164h98q-23-121-113.5-207t-220.5-108l-14-106h-101l15 102q-147 13-223.5 102.5t-57.5 216.5z" unicode="&#xa2;"/><glyph d="M238 0l14 102h63l70 504h-133l14 105h133l62 430q19 129 128 221t245 92q135 0 219-92t65-221l-10-70h-111l13 80q10 85-44.5 145t-140.5 60q-92 0-164-60t-83-145l-64-440h277l-15-105h-276l-70-504h541l-15-102h-718z" unicode="&#xa3;"/><glyph d="M166 240l113 102q-70 125-52 260 18 131 127 266l-86 101 84 73 86-100q137 88 277 88 139 0 252-88l114 100 64-73-115-101q72-128 53-266-18-134-125-260l84-102-84-74-86 100q-143-92-276-92t-252 92l-115-100zM328 604q-19-133 63-231 85-97 219-97 132 0 242 98t129 230q19 133-64 230.5t-215 97.5-243.5-97.5-130.5-230.5z" unicode="&#xa4;"/><glyph d="M238 434l14 103h332l18 135-16 49h-310l17 104h262l-197 609h121l195-629 375 629h120l-364-609h260l-16-104h-310l-28-49-19-135h332l-14-103h-332l-62-434h-108l61 434h-331z" unicode="&#xa5;"/><glyph d="M477-369l101 709h94l-101-709h-94zM631 727l100 707h94l-100-707h-94z" unicode="&#xa6;"/><glyph d="M285 258h106q-18-176 174-176h8q98 0 151 46t62 108q7 48-18.5 87t-71 67-101.5 54.5-111.5 57.5-100 68-67.5 95-13 130q10 71 53 133.5t107 105.5q-48 80-37 166 16 108 107 181t233 73h16q146 0 209.5-75t50.5-203h-106q14 176-174 176h-10q-97 0-150.5-47t-62.5-107q-6-43 13-79t55-60.5 83-50.5 96.5-47.5 95.5-53 80.5-66 51.5-87 8-115.5q-19-141-158-242 46-80 35-164-16-109-107-181t-235-72h-14q-148 0-210 74t-48 204zM416 811q-8-53 11.5-93.5t63-71 90-54.5 110-58.5 106.5-68.5q101 62 112 156 8 53-12 94.5t-63.5 72.5-90 55.5-110 58.5-105.5 65q-101-60-112-156z" unicode="&#xa7;"/><glyph d="M455 1270l18 143h125l-18-143h-125zM815 1270l19 143h124l-18-143h-125z" unicode="&#xa8;"/><glyph d="M205 719l41 280q26 190 171.5 324.5t325.5 134.5h27q117 0 208.5-61.5t135.5-167 27-230.5l-41-280q-17-124-90.5-229.5t-182-166.5-225.5-61h-27q-118 0-209.5 61.5t-134.5 166.5-26 229zM289 715q-22-153 65.5-261t233.5-108h26q146 0 262 108t138 261l41 289q22 154-64.5 262t-232.5 108h-27q-146 0-262.5-108t-138.5-262zM442 733l37 264q12 85 81.5 144t166.5 59q86 0 137-58t43-143h-73q6 59-26.5 93t-90.5 34q-62 0-111-45.5t-57-105.5l-31-223q-9-60 27-105t98-45q54 0 100.5 36.5t61.5 90.5h72q-18-89-85-146t-159-57q-98 0-150.5 59.5t-40.5 147.5z" unicode="&#xa9;"/><glyph d="M416 614l12 82h438l-12-82h-438zM453 1004q10 80 80 136t161 62l150 10 6 35q6 49-21.5 89t-80.5 40q-44 0-81-29.5t-51-72.5h-98q25 81 90.5 130.5t151.5 49.5q101 0 149-57t35-144l-61-434h-95l7 39q-65-51-156-51-84 2-141 59t-45 138zM547 1006q-6-44 27.5-80.5t80.5-36.5q59 0 106 32.5t52 73.5l21 135-150-8q-50-3-90.5-36.5t-46.5-79.5z" unicode="&#xaa;"/><glyph d="M311 598l283 311h108l-284-311 198-311h-108zM647 598l285 311h108l-284-311 198-311h-108z" unicode="&#xab;"/><glyph d="M229 739l15 105h897l-78-545h-102l63 440h-795z" unicode="&#xac;"/><glyph unicode="&#xad;"/><glyph d="M205 715l39 280q28 191 173.5 325t325.5 134h27q117 0 208.5-61.5t135-167 25.5-230.5l-39-280q-17-124-90.5-229.5t-182-166.5-225.5-61h-27q-118 0-209.5 61.5t-134.5 166.5-26 229zM289 711q-22-153 65.5-261t233.5-108h26q146 0 262 108t138 261l41 288q22 154-64.5 262.5t-232.5 108.5h-27q-146 0-262.5-108.5t-138.5-262.5zM442 532l93 654h227q58 0 96-45.5t29-104.5l-15-104q-6-42-37.5-81.5t-70.5-57.5l74-261h-80l-72 248h-137l-35-248h-72zM557 846h154q31 0 59.5 24.5t32.5 57.5l14 110q4 33-16 56.5t-51 23.5h-154z" unicode="&#xae;"/><glyph d="M414 1276l12 90h571l-12-90h-571z" unicode="&#xaf;"/><glyph d="M412 1169q15 117 110.5 201t212.5 84 189-84 57-201q-17-117-113-200.5t-213-83.5-188.5 83.5-54.5 200.5zM492 1167q-11-82 40-141t134-59q82 0 149.5 59t77.5 141q12 83-39 142t-133 59q-83 0-150-59t-79-142z" unicode="&#xb0;"/><glyph d="M145 154l15 104h897l-15-104h-897zM213 643l14 102h396l41 279h104l-41-279h395l-14-102h-395l-39-276h-105l39 276h-395z" unicode="&#xb1;"/><glyph d="M403 659l13 82q8 56 34.5 103t62.5 80.5 78.5 63 84.5 56.5 77.5 55 61 65.5 31.5 80.5q6 53-24 90t-81 37q-57 0-102-42t-57-107h-86q20 103 93.5 167t164.5 64q88 0 143.5-62t42.5-155q-7-51-33-94.5t-62.5-75-79-60-84.5-56.5-78-57.5-61.5-68.5-31.5-84h360l-12-82h-455z" unicode="&#xb2;"/><glyph d="M436 864l2 17h92l-2-17q-8-59 25-99t90-40 100.5 40.5 51.5 98.5l16 121q8 45-17 77t-67 32h-84l12 82 174 176h-276l10 82h381l-10-78-174-178q67-18 109-71.5t32-121.5l-16-121q-12-89-86-155t-162-66h-12q-90 0-145.5 64t-43.5 157z" unicode="&#xb3;"/><glyph d="M504 1163l254 250h143l-287-250h-110z" unicode="&#xb4;"/><glyph d="M156-369l196 1393h97l-101-711q-14-101 43.5-173t153.5-72q103 0 191.5 69.5t101.5 167.5l102 719h96l-118-840q-6-39 13-69.5t54-36.5l-12-88q-56 2-97 37.5t-51 93.5q-69-73-135-107t-164-34q-134 0-207 131l-67-480h-96z" unicode="&#xb5;"/><glyph d="M383 1044q15 106 79 195.5t160 142 201 52.5h295l-254-1803h-92l240 1712h-125l-240-1712h-92l143 1028q-154 14-245 122t-70 263z" unicode="&#xb6;"/><glyph d="M573 528l21 144h143l-20-144h-144z" unicode="&#xb7;"/><glyph d="M438-369l11 82h114q28 0 49.5 19t26.5 47q3 28-13 45.5t-44 17.5h-93l23 158h82l-10-74h22q60 0 97.5-43.5t29.5-103.5q-9-61-58.5-104.5t-109.5-43.5h-127z" unicode="&#xb8;"/><glyph d="M608 1352l13 82h239l-108-775h-97l97 693h-144z" unicode="&#xb9;"/><glyph d="M401 614l13 82h452l-12-82h-453zM453 1008l34 245q12 84 86.5 142.5t174.5 58.5q98 0 154-58.5t44-142.5l-35-245q-11-84-84-142.5t-172-58.5q-100 0-156.5 58t-45.5 143zM549 1008q-6-47 29-83t90-36q53 0 98 36.5t51 82.5l35 245q6 47-29 83t-90 36q-53 0-98-36.5t-51-82.5z" unicode="&#xba;"/><glyph d="M268 287l285 311-199 311h109l199-311-285-311h-109zM606 287l285 311-199 311h109l196-311-282-311h-109z" unicode="&#xbb;"/><glyph d="M125 0l919 1434h84l-919-1434h-84zM289 1352l10 82h240l-109-775h-96l98 693h-143zM532 143l13 86 325 545h99l-330-545h258l31 222h92l-31-222h70l-12-86h-70l-21-143h-92l21 143h-353z" unicode="&#xbc;"/><glyph d="M96 0l920 1434h84l-920-1434h-84zM295 1352l10 82h240l-109-775h-96l98 693h-143zM575 0l13 82q8 56 34.5 103t62.5 80.5 78 63 84 56.5 77.5 55 60.5 65.5 31 80.5q8 53-22 90t-81 37q-57 0-103-43t-56-107h-86q18 102 91.5 167t164.5 65q88 0 144-62t44-155q-10-69-55.5-125t-103.5-94.5-116-76-102-88.5-53-112h360l-12-82h-455z" unicode="&#xbd;"/><glyph d="M195 860l2 17h92l-2-17q-8-59 24.5-99t89.5-40 100.5 40.5 51.5 98.5l18 121q6 45-19 77t-67 32h-84l13 81 174 177h-277l11 82h380l-10-78-174-178q67-18 110-71.5t34-121.5l-19-121q-12-89-86-155t-162-66h-12q-90 0-145 64t-43 157zM203-4l919 1434h84l-919-1434h-84zM557 139l12 86 326 545h98l-329-545h258l30 221h92l-30-221h69l-12-86h-70l-20-143h-92l20 143h-352z" unicode="&#xbe;"/><glyph d="M219-70q11 77 38.5 139.5t63.5 106.5 77.5 84.5 84 83.5 80 92 67 121 42.5 160h104q-15-99-45.5-179t-68-133.5-79.5-98.5-83.5-84.5-76.5-80.5-61.5-97-35.5-124q-15-105 49.5-176.5t171.5-71.5q108 0 191.5 74.5t103.5 185.5h106q-26-160-145-261t-271-101q-156 0-246.5 99t-66.5 261zM674 881l20 143h144l-21-143h-143z" unicode="&#xbf;"/><glyph d="M197 0l77 561 379 873h221l134-873-78-561h-107l68 489h-520l-68-489h-106zM395 588h500l-107 747h-73zM516 1823h143l185-250h-111z" unicode="&#xc0;"/><glyph d="M197 0l77 561 379 873h221l134-873-78-561h-107l68 489h-520l-68-489h-106zM395 588h500l-107 747h-73zM666 1573l254 250h143l-287-250h-110z" unicode="&#xc1;"/><glyph d="M197 0l77 561 379 873h221l134-873-78-561h-107l68 489h-520l-68-489h-106zM395 588h500l-107 747h-73zM487 1573l218 250h143l151-250h-112l-121 178-168-178h-111z" unicode="&#xc2;"/><glyph d="M197 0l77 561 379 873h221l134-873-78-561h-107l68 489h-520l-68-489h-106zM395 588h500l-107 747h-73zM444 1618q18 71 78.5 128.5t126.5 57.5q47 0 126.5-51t119.5-51q35 0 60.5 27t35.5 63h86q-18-72-76-129t-120-57q-40 0-85 25.5t-87 51-74 25.5q-36 0-65-27t-40-63h-86z" unicode="&#xc3;"/><glyph d="M197 0l77 561 379 873h221l134-873-78-561h-107l68 489h-520l-68-489h-106zM395 588h500l-107 747h-73zM512 1679l18 144h125l-18-144h-125zM872 1679l19 144h125l-19-144h-125z" unicode="&#xc4;"/><glyph d="M197 0l77 561 379 873h221l134-873-78-561h-107l68 489h-520l-68-489h-106zM395 588h500l-107 747h-73zM610 1706q9 63 59 107.5t111 44.5q62 0 101-44.5t30-107.5q-9-61-59.5-105.5t-112.5-44.5-100 44.5-29 105.5zM684 1706q-5-33 14-54.5t52-21.5q35 0 59 21.5t29 54.5q5 35-14 56.5t-54 21.5q-34 0-58-21.5t-28-56.5z" unicode="&#xc5;"/><glyph d="M119 0l80 569 376 865h625l-12-99h-361l-75-528h311l-12-98h-312l-86-611h369l-14-98h-476l68 489h-307l-68-489h-106zM309 588h305l107 747h-88z" unicode="&#xc6;"/><glyph d="M256 340l106 756q22 149 142 253.5t268 104.5h14q149 0 239.5-104.5t68.5-253.5h-107q14 108-50 182t-171 74q-110 0-196-74.5t-101-183.5l-107-756q-15-109 49.5-184.5t174.5-75.5q109 0 194.5 74.5t100.5 183.5l2 10h106l-2-8q-20-147-136-250t-263-108l-6-54h22q60 0 97.5-43.5t29.5-103.5q-9-61-58.5-104.5t-109.5-43.5h-127l10 82h115q28 0 49.5 19t26.5 47q3 28-13 45.5t-44 17.5h-93l21 144q-126 20-198.5 120t-53.5 234z" unicode="&#xc7;"/><glyph d="M217 0l203 1434h643l-14-99h-537l-74-528h488l-15-98h-487l-86-611h555l-14-98h-662zM555 1823h143l185-250h-111z" unicode="&#xc8;"/><glyph d="M217 0l203 1434h643l-14-99h-537l-74-528h488l-15-98h-487l-86-611h555l-14-98h-662zM645 1573l254 250h143l-286-250h-111z" unicode="&#xc9;"/><glyph d="M217 0l203 1434h643l-14-99h-537l-74-528h488l-15-98h-487l-86-611h555l-14-98h-662zM487 1573l218 250h143l151-250h-112l-121 178-168-178h-111z" unicode="&#xca;"/><glyph d="M217 0l203 1434h643l-14-99h-537l-74-528h488l-15-98h-487l-86-611h555l-14-98h-662zM514 1679l21 144h124l-20-144h-125zM874 1679l21 144h125l-21-144h-125z" unicode="&#xcb;"/><glyph d="M178 0l15 98h319l174 1237h-319l14 99h741l-14-99h-315l-175-1237h316l-14-98h-742zM539 1823h143l184-250h-110z" unicode="&#xcc;"/><glyph d="M178 0l15 98h319l174 1237h-319l14 99h741l-14-99h-315l-175-1237h316l-14-98h-742zM690 1573l254 250h143l-286-250h-111z" unicode="&#xcd;"/><glyph d="M178 0l15 98h319l174 1237h-319l14 99h741l-14-99h-315l-175-1237h316l-14-98h-742zM514 1573l217 250h143l152-250h-113l-120 178-168-178h-111z" unicode="&#xce;"/><glyph d="M178 0l15 98h319l174 1237h-319l14 99h741l-14-99h-315l-175-1237h316l-14-98h-742zM541 1679l20 144h125l-20-144h-125zM901 1679l21 144h125l-21-144h-125z" unicode="&#xcf;"/><glyph d="M246 709l12 98h125l88 627h352q149 0 239.5-106t70.5-255l-101-713q-22-150-141-255t-268-105h-353l101 709h-125zM391 98h240q109 0 193.5 74.5t99.5 183.5l100 715q17 110-47.5 185t-173.5 75h-240l-74-524h220l-13-98h-219z" unicode="&#xd0;"/><glyph d="M184 0l201 1434h133l303-1160 19-92 6 2 4 99 162 1151h106l-200-1434h-134l-303 1147-20 104-6-2-4-112-160-1137h-107zM473 1618q18 72 78 129t125 57q47 0 126.5-51t119.5-51q35 0 61.5 27.5t36.5 62.5h86q-20-72-77.5-129t-119.5-57q-40 0-84.5 25.5t-86.5 51-74 25.5q-36 0-65-27t-40-63h-86z" unicode="&#xd1;"/><glyph d="M219 340l107 756q20 149 139 253.5t268 104.5h39q149 0 239-104.5t70-253.5l-106-758q-22-149-141.5-253.5t-268.5-104.5h-39q-149 0-239 105.5t-68 254.5zM326 338q-15-109 49-184.5t172-75.5h26q109 0 194.5 74.5t100.5 183.5l107 758q15 109-49.5 183.5t-173.5 74.5h-27q-109 0-193.5-74.5t-99.5-183.5zM561 1823h144l184-250h-111z" unicode="&#xd2;"/><glyph d="M219 340l107 756q20 149 139 253.5t268 104.5h39q149 0 239-104.5t70-253.5l-106-758q-22-149-141.5-253.5t-268.5-104.5h-39q-149 0-239 105.5t-68 254.5zM326 338q-15-109 49-184.5t172-75.5h26q109 0 194.5 74.5t100.5 183.5l107 758q15 109-49.5 183.5t-173.5 74.5h-27q-109 0-193.5-74.5t-99.5-183.5zM651 1573l254 250h144l-287-250h-111z" unicode="&#xd3;"/><glyph d="M219 340l107 756q20 149 139 253.5t268 104.5h39q149 0 239-104.5t70-253.5l-106-758q-22-149-141.5-253.5t-268.5-104.5h-39q-149 0-239 105.5t-68 254.5zM326 338q-15-109 49-184.5t172-75.5h26q109 0 194.5 74.5t100.5 183.5l107 758q15 109-49.5 183.5t-173.5 74.5h-27q-109 0-193.5-74.5t-99.5-183.5zM514 1573l217 250h143l152-250h-113l-120 178-168-178h-111z" unicode="&#xd4;"/><glyph d="M219 340l107 756q22 149 141 253.5t268 104.5h39q149 0 239-104.5t68-253.5l-106-758q-22-149-140.5-253.5t-267.5-104.5h-39q-149 0-239 105.5t-70 254.5zM326 338q-15-109 49-184.5t172-75.5h26q109 0 194.5 74.5t100.5 183.5l107 758q15 109-48.5 183.5t-172.5 74.5h-27q-109 0-194.5-74.5t-100.5-183.5zM473 1618q18 71 78.5 128.5t126.5 57.5q47 0 126.5-51t119.5-51q35 0 60.5 27t35.5 63h86q-18-72-76-129t-121-57q-40 0-84.5 25.5t-86.5 51-74 25.5q-36 0-65-27t-40-63h-86z" unicode="&#xd5;"/><glyph d="M219 340l107 756q20 149 139 253.5t268 104.5h39q149 0 239-104.5t70-253.5l-106-758q-22-149-141.5-253.5t-268.5-104.5h-39q-149 0-239 105.5t-68 254.5zM326 338q-15-109 49-184.5t172-75.5h26q109 0 194.5 74.5t100.5 183.5l107 758q15 109-49.5 183.5t-173.5 74.5h-27q-109 0-193.5-74.5t-99.5-183.5zM543 1679l20 144h125l-20-144h-125zM903 1679l21 144h125l-21-144h-125z" unicode="&#xd6;"/><glyph d="M236 297l346 301-260 303 81 72 263-301 344 301 63-72-346-303 260-301-84-74-258 303-346-301z" unicode="&#xd7;"/><glyph d="M231 340l107 756q22 149 141.5 253.5t268.5 104.5h38q105 0 185-55l18 35h98l-51-99q76-106 58-239l-107-758q-22-149-141-253.5t-268-104.5h-39q-102 0-185 55l-18-35h-100l53 98q-75 108-58 242zM338 338q-9-67 10-119l567 1079q-57 54-149 54h-27q-109 0-194.5-74.5t-100.5-183.5zM410 131q59-53 149-53h27q109 0 194.5 74.5t100.5 183.5l106 758q9 70-12 123z" unicode="&#xd8;"/><glyph d="M219 340l154 1094h106l-153-1096q-15-109 49-184.5t174-75.5h24q109 0 194.5 74.5t100.5 183.5l154 1098h106l-153-1096q-22-149-141.5-253.5t-268.5-104.5h-39q-148 0-238.5 105.5t-68.5 254.5zM561 1823h144l184-250h-111z" unicode="&#xd9;"/><glyph d="M219 340l154 1094h106l-153-1096q-15-109 49-184.5t174-75.5h24q109 0 194.5 74.5t100.5 183.5l154 1098h106l-153-1096q-22-149-141.5-253.5t-268.5-104.5h-39q-148 0-238.5 105.5t-68.5 254.5zM653 1573l254 250h144l-287-250h-111z" unicode="&#xda;"/><glyph d="M219 340l154 1094h106l-153-1096q-15-109 49-184.5t174-75.5h24q109 0 194.5 74.5t100.5 183.5l154 1098h106l-153-1096q-22-149-141.5-253.5t-268.5-104.5h-39q-148 0-238.5 105.5t-68.5 254.5zM514 1573l217 250h143l152-250h-113l-120 178-168-178h-111z" unicode="&#xdb;"/><glyph d="M219 340l154 1094h106l-153-1096q-15-109 49-184.5t174-75.5h24q109 0 194.5 74.5t100.5 183.5l154 1098h106l-153-1096q-22-149-141.5-253.5t-268.5-104.5h-39q-148 0-238.5 105.5t-68.5 254.5zM543 1679l20 144h125l-20-144h-125zM903 1679l21 144h125l-21-144h-125z" unicode="&#xdc;"/><glyph d="M336 1434h119l211-609 385 609h116l-467-752-96-682h-108l96 682zM604 1573l254 250h143l-286-250h-111z" unicode="&#xdd;"/><glyph d="M231 0l201 1434h107l-31-217h258q123 0 199-87.5t59-211.5l-43-312q-19-126-119-213.5t-223-87.5h-258l-43-305h-107zM395 403h252q82 0 147.5 57.5t75.5 139.5l45 315q11 82-39 140.5t-131 58.5h-251z" unicode="&#xde;"/><glyph d="M158 2l153 1090q22 151 137.5 256.5t258.5 105.5h16q140 0 224-98.5t65-229.5l-19-139q-98-8-169.5-53.5t-80.5-110.5q-6-43 7.5-83t39-72 57.5-64 63.5-67 56-73.5 36-90.5 3.5-111q-17-119-111-200.5t-215-81.5q-115 0-184 82t-52 200l2 12h99l-4-24q-10-75 36-128.5t121-53.5q76 0 137 53.5t72 128.5q7 50-6 94t-38.5 77-57.5 65-64 65.5-57.5 70-37 86.5-3.5 109q13 89 87.5 149t172.5 76l8 48q17 119-43.5 197.5t-165.5 78.5q-107 0-193-78.5t-103-197.5l-154-1088h-94z" unicode="&#xdf;"/><glyph d="M246 297l61 430q19 134 130 225.5t265 91.5q201 0 347-63l-111-788q-6-42 13-75t57-40l-13-88q-54 1-96 38t-59 97q-65-78-141-111.5t-146-33.5q-154 0-240 91.5t-67 225.5zM348 309q-14-98 49.5-170.5t167.5-72.5q106 0 191.5 72.5t99.5 170.5l84 596q-124 53-250 53-103 0-186.5-72.5t-97.5-170.5zM483 1413h144l184-250h-111z" unicode="&#xe0;"/><glyph d="M246 297l61 430q19 134 130 225.5t265 91.5q201 0 347-63l-111-788q-6-42 13-75t57-40l-13-88q-54 1-96 38t-59 97q-65-78-141-111.5t-146-33.5q-154 0-240 91.5t-67 225.5zM348 309q-14-98 49.5-170.5t167.5-72.5q106 0 191.5 72.5t99.5 170.5l84 596q-124 53-250 53-103 0-186.5-72.5t-97.5-170.5zM639 1163l254 250h143l-286-250h-111z" unicode="&#xe1;"/><glyph d="M246 297l61 430q19 134 130 225.5t265 91.5q201 0 347-63l-111-788q-6-42 13-75t57-40l-13-88q-54 1-96 38t-59 97q-65-78-141-111.5t-146-33.5q-154 0-240 91.5t-67 225.5zM348 309q-14-98 49.5-170.5t167.5-72.5q106 0 191.5 72.5t99.5 170.5l84 596q-124 53-250 53-103 0-186.5-72.5t-97.5-170.5zM475 1163l217 250h144l151-250h-113l-120 178-168-178h-111z" unicode="&#xe2;"/><glyph d="M246 297l61 430q19 134 130 225.5t265 91.5q201 0 347-63l-111-788q-6-42 13-75t57-40l-13-88q-54 1-96 38t-59 97q-65-78-141-111.5t-146-33.5q-154 0-240 91.5t-67 225.5zM348 309q-14-98 49.5-170.5t167.5-72.5q106 0 191.5 72.5t99.5 170.5l84 596q-124 53-250 53-103 0-186.5-72.5t-97.5-170.5zM440 1208q18 72 79 129.5t126 57.5q47 0 126.5-51.5t119.5-51.5q35 0 60.5 27t35.5 63h86q-18-72-76-129t-120-57q-40 0-85 25.5t-87 51-74 25.5q-36 0-65-27t-40-63h-86z" unicode="&#xe3;"/><glyph d="M246 297l61 430q19 134 130 225.5t265 91.5q201 0 347-63l-111-788q-6-42 13-75t57-40l-13-88q-54 1-96 38t-59 97q-65-78-141-111.5t-146-33.5q-154 0-240 91.5t-67 225.5zM348 309q-14-98 49.5-170.5t167.5-72.5q106 0 191.5 72.5t99.5 170.5l84 596q-124 53-250 53-103 0-186.5-72.5t-97.5-170.5zM508 1270l18 143h125l-18-143h-125zM868 1270l19 143h125l-19-143h-125z" unicode="&#xe4;"/><glyph d="M246 297l61 430q19 134 130 225.5t265 91.5q201 0 347-63l-111-788q-6-42 13-75t57-40l-13-88q-54 1-96 38t-59 97q-65-78-141-111.5t-146-33.5q-154 0-240 91.5t-67 225.5zM348 309q-14-98 49.5-170.5t167.5-72.5q106 0 191.5 72.5t99.5 170.5l84 596q-124 53-250 53-103 0-186.5-72.5t-97.5-170.5zM600 1296q9 63 59 107.5t111 44.5q62 0 101-44.5t30-107.5q-9-61-59.5-105t-112.5-44-100 44-29 105zM674 1296q-5-33 13.5-54t51.5-21q35 0 59 21t29 54q5 35-13.5 56.5t-53.5 21.5q-34 0-58-21.5t-28-56.5z" unicode="&#xe5;"/><glyph d="M145 272l68 469q20 139 91.5 211t219.5 72h400q118 0 186-77.5t53-192.5q-14-97-70.5-157.5t-174.5-127.5l-242-135-12-88q-11-75 30.5-129.5t118.5-53.5q35 1 68 5.5t50 9 44.5 12.5 34.5 10l-13-90q-106-30-198-30-67 0-112.5 27t-57.5 61l-8-68h-91l13 70q-37-51-81-70.5t-110-19.5q-115 0-170.5 79.5t-36.5 212.5zM242 279q-14-99 20.5-157.5t114.5-58.5q79 0 125.5 59t60.5 161l96 655h-147q-100 0-145-53t-60-160zM690 442l264 144q47 25 77 67t36 92q12 87-33.5 140t-130.5 53h-141z" unicode="&#xe6;"/><glyph d="M272 299l62 428q19 134 131 225.5t272 91.5q147 0 230.5-90t72.5-223h-100q9 99-51 162t-164 63q-108 0-194.5-71.5t-100.5-169.5l-57-406q-14-98 52-169.5t175-71.5q104 0 187 66.5t102 164.5h98q-27-132-129.5-221t-245.5-96l-8-56h23q60 0 97.5-43.5t29.5-103.5q-9-61-58.5-104.5t-109.5-43.5h-127l10 82h115q28 0 49 19t26 47q3 28-13 45.5t-44 17.5h-92l20 142q-136 15-206 103t-52 212z" unicode="&#xe7;"/><glyph d="M285 297l61 430q19 134 133 225.5t273 91.5h24q120 0 204-85.5t69-198.5l-5-33q-13-92-80-153t-188-103l-387-133-4-35q-14-97 52.5-167t174.5-70q150 0 256 32l-14-92q-129-26-250-26-158 0-248 91.5t-71 225.5zM403 438l396 135q66 23 103.5 59.5t43.5 82.5l4 24q12 85-52 152t-153 67h-8q-108 0-194.5-72.5t-100.5-170.5zM539 1413h143l184-250h-110z" unicode="&#xe8;"/><glyph d="M285 297l61 430q19 134 133 225.5t273 91.5h24q120 0 204-85.5t69-198.5l-5-33q-13-92-80-153t-188-103l-387-133-4-35q-14-97 52.5-167t174.5-70q150 0 256 32l-14-92q-129-26-250-26-158 0-248 91.5t-71 225.5zM403 438l396 135q66 23 103.5 59.5t43.5 82.5l4 24q12 85-52 152t-153 67h-8q-108 0-194.5-72.5t-100.5-170.5zM504 1163l254 250h143l-287-250h-110z" unicode="&#xe9;"/><glyph d="M285 297l61 430q19 134 133 225.5t273 91.5h24q120 0 204-85.5t69-198.5l-5-33q-13-92-80-153t-188-103l-387-133-4-35q-14-97 52.5-167t174.5-70q150 0 256 32l-14-92q-129-26-250-26-158 0-248 91.5t-71 225.5zM403 438l396 135q66 23 103.5 59.5t43.5 82.5l4 24q12 85-52 152t-153 67h-8q-108 0-194.5-72.5t-100.5-170.5zM430 1163l217 250h144l151-250h-113l-120 178-168-178h-111z" unicode="&#xea;"/><glyph d="M285 297l61 430q19 134 133 225.5t273 91.5h24q120 0 204-85.5t69-198.5l-5-33q-13-92-80-153t-188-103l-387-133-4-35q-14-97 52.5-167t174.5-70q150 0 256 32l-14-92q-129-26-250-26-158 0-248 91.5t-71 225.5zM403 438l396 135q66 23 103.5 59.5t43.5 82.5l4 24q12 85-52 152t-153 67h-8q-108 0-194.5-72.5t-100.5-170.5zM455 1270l18 143h125l-18-143h-125zM815 1270l19 143h124l-18-143h-125z" unicode="&#xeb;"/><glyph d="M174 0l12 88h328l119 848h-328l14 88h431l-134-936h291l-12-88h-721zM475 1413h143l185-250h-111z" unicode="&#xec;"/><glyph d="M174 0l12 88h328l119 848h-328l14 88h431l-134-936h291l-12-88h-721zM602 1163l254 250h143l-286-250h-111z" unicode="&#xed;"/><glyph d="M174 0l12 88h328l119 848h-328l14 88h431l-134-936h291l-12-88h-721zM451 1163l217 250h143l152-250h-113l-121 178-168-178h-110z" unicode="&#xee;"/><glyph d="M174 0l12 88h328l119 848h-328l14 88h431l-134-936h291l-12-88h-721zM477 1270l21 143h125l-21-143h-125zM838 1270l20 143h125l-20-143h-125z" unicode="&#xef;"/><glyph d="M180 344l33 234q22 151 142.5 256.5t271.5 105.5h12q82 0 145.5-46t89.5-101l37 274q3 13 3.5 31t-1.5 26l-213-73 15 90 180 65q-70 127-199 127h-139l14 101h146q96 0 172-52t115-139l178 76-15-94-145-64q3-30-2-92l-102-727q-22-151-142.5-256.5t-271.5-105.5h-12q-151 0-242.5 106.5t-69.5 257.5zM287 342q-15-110 50-186t175-76 196 75 103 185l33 235q15 107-52 187t-161 80h-13q-110 0-197-78t-102-189z" unicode="&#xf0;"/><glyph d="M219 0l143 1024h99l-15-106q50 53 137 89.5t169 36.5q134 0 217.5-93.5t64.5-223.5l-100-727h-98l98 711q14 100-48 172.5t-163 72.5q-107 0-199.5-69.5t-105.5-167.5l-101-719h-98zM381 1208q18 72 79 129.5t126 57.5q47 0 126-51.5t119-51.5q35 0 61 27.5t36 62.5h86q-18-72-76-129t-121-57q-40 0-85 25.5t-87 51-74 25.5q-36 0-64.5-26.5t-39.5-63.5h-86z" unicode="&#xf1;"/><glyph d="M260 297q-19-134 67.5-225.5t247.5-91.5q158 0 269.5 91.5t130.5 225.5l61 430q19 134-67 225.5t-244 91.5q-160 0-272-91.5t-131-225.5zM360 309l58 406q14 98 99.5 169.5t193.5 71.5 173.5-71.5 51.5-169.5l-57-406q-14-98-99.5-169.5t-191.5-71.5q-109 0-175.5 71.5t-52.5 169.5zM459 1413h143l184-250h-110z" unicode="&#xf2;"/><glyph d="M260 297q-19-134 67.5-225.5t247.5-91.5q158 0 269.5 91.5t130.5 225.5l61 430q19 134-67 225.5t-244 91.5q-160 0-272-91.5t-131-225.5zM360 309l58 406q14 98 99.5 169.5t193.5 71.5 173.5-71.5 51.5-169.5l-57-406q-14-98-99.5-169.5t-191.5-71.5q-109 0-175.5 71.5t-52.5 169.5zM588 1163l254 250h143l-287-250h-110z" unicode="&#xf3;"/><glyph d="M260 297q-19-134 67.5-225.5t247.5-91.5q158 0 269.5 91.5t130.5 225.5l61 430q19 134-67 225.5t-244 91.5q-160 0-272-91.5t-131-225.5zM360 309l58 406q14 98 99.5 169.5t193.5 71.5 173.5-71.5 51.5-169.5l-57-406q-14-98-99.5-169.5t-191.5-71.5q-109 0-175.5 71.5t-52.5 169.5zM430 1163l217 250h144l151-250h-113l-120 178-168-178h-111z" unicode="&#xf4;"/><glyph d="M260 297q-19-134 67.5-225.5t247.5-91.5q158 0 269.5 91.5t130.5 225.5l61 430q19 134-67 225.5t-244 91.5q-160 0-272-91.5t-131-225.5zM360 309l58 406q14 98 99.5 169.5t193.5 71.5 173.5-71.5 51.5-169.5l-57-406q-14-98-99.5-169.5t-191.5-71.5q-109 0-175.5 71.5t-52.5 169.5zM387 1208q18 72 79 129.5t126 57.5q47 0 126.5-51.5t119.5-51.5q35 0 60.5 27t35.5 63h86q-18-72-76-129t-121-57q-40 0-84.5 25.5t-86.5 51-74 25.5q-36 0-65-27t-40-63h-86z" unicode="&#xf5;"/><glyph d="M260 297q-19-134 67.5-225.5t247.5-91.5q158 0 269.5 91.5t130.5 225.5l61 430q19 134-67 225.5t-244 91.5q-160 0-272-91.5t-131-225.5zM360 309l58 406q14 98 99.5 169.5t193.5 71.5 173.5-71.5 51.5-169.5l-57-406q-14-98-99.5-169.5t-191.5-71.5q-109 0-175.5 71.5t-52.5 169.5zM455 1270l18 143h125l-18-143h-125zM815 1270l19 143h124l-18-143h-125z" unicode="&#xf6;"/><glyph d="M199 526l14 103h895l-14-103h-895zM522 162l21 143h143l-20-143h-144zM618 854l21 143h143l-20-143h-144z" unicode="&#xf7;"/><glyph d="M264 0l60 88q-64 87-48 209l62 430q19 134 126.5 225.5t260.5 91.5q105 0 188-53l21 33h96l-57-90q62-90 47-207l-62-430q-19-134-126-225.5t-257-91.5q-100 0-194 53l-21-33h-96zM373 309q-7-58 16-119l467 713q-62 53-145 53-103 0-185-71.5t-96-169.5zM438 119q63-51 150-51 102 0 183 71.5t95 169.5l58 406q8 59-17 121z" unicode="&#xf8;"/><glyph d="M262 297l103 727h98l-101-711q-14-100 48-172.5t163-72.5q107 0 200 69.5t106 167.5l102 719h98l-145-1024h-98l16 106q-52-54-138.5-90t-168.5-36q-134 0-218 93.5t-65 223.5zM467 1413h143l185-250h-111z" unicode="&#xf9;"/><glyph d="M262 297l103 727h98l-101-711q-14-100 48-172.5t163-72.5q107 0 200 69.5t106 167.5l102 719h98l-145-1024h-98l16 106q-52-54-138.5-90t-168.5-36q-134 0-218 93.5t-65 223.5zM571 1163l254 250h144l-287-250h-111z" unicode="&#xfa;"/><glyph d="M262 297l103 727h98l-101-711q-14-100 48-172.5t163-72.5q107 0 200 69.5t106 167.5l102 719h98l-145-1024h-98l16 106q-52-54-138.5-90t-168.5-36q-134 0-218 93.5t-65 223.5zM430 1163l217 250h144l151-250h-113l-120 178-168-178h-111z" unicode="&#xfb;"/><glyph d="M262 297l103 727h98l-101-711q-14-100 48-172.5t163-72.5q107 0 200 69.5t106 167.5l102 719h98l-145-1024h-98l16 106q-52-54-138.5-90t-168.5-36q-134 0-218 93.5t-65 223.5zM455 1270l18 143h125l-18-143h-125zM815 1270l19 143h124l-18-143h-125z" unicode="&#xfc;"/><glyph d="M315 1024h103l178-866 424 866h104l-698-1393h-96l192 383zM612 1163l256 250h144l-289-250h-111z" unicode="&#xfd;"/><glyph d="M182-369l254 1805h94l-73-514q122 122 266 122 151 0 232.5-91.5t62.5-225.5l-60-430q-19-134-126.5-225.5t-258.5-91.5q-69 0-129.5 33.5t-101.5 86.5l-66-469h-94zM371 309q-12-98 49-169.5t164-71.5 185.5 71.5 94.5 169.5l58 406q14 98-47.5 169.5t-163.5 71.5q-101 0-184.5-69t-96.5-164z" unicode="&#xfe;"/><glyph d="M315 1024h103l178-866 424 866h104l-698-1393h-96l192 383zM512 1270l20 143h125l-20-143h-125zM872 1270l21 143h125l-21-143h-125z" unicode="&#xff;"/><glyph d="M154 362l100 711q20 150 135.5 255.5t263.5 105.5h559l-12-99h-364l-76-528h315l-12-98h-315l-86-611h374l-14-98h-569q-148 0-234.5 106t-64.5 256zM260 360q-15-112 44.5-187t168.5-75h82l172 1233h-82q-109 0-189.5-74t-97.5-186z" unicode="&#x152;"/><glyph d="M143 225l82 576q13 100 99 171.5t188 71.5q73 0 124-40t69-89q89 127 233 127 99 0 168.5-86.5t54.5-193.5q-8-56-29-99.5t-57.5-78-70.5-57.5-89-54l-243-137-15-98q-11-74 33.5-124.5t120.5-50.5q40 0 88.5 10.5t76.5 20.5l28 10-13-94q-90-30-205-30-73 0-124 32.5t-72 87.5q-85-120-228-120-105 0-168.5 71t-50.5 174zM244 238q-10-73 27.5-121.5t103.5-48.5q67 0 118 48t62 122l80 559q9 66-31.5 112.5t-105.5 46.5q-59 0-112.5-49t-63.5-119zM688 444l250 140q59 33 88 74t39 110q11 79-34.5 132.5t-106.5 53.5q-66 0-122-46t-65-111z" unicode="&#x153;"/><glyph d="M336 1434h119l211-609 385 609h116l-467-752-96-682h-108l96 682zM541 1679l20 144h125l-20-144h-125zM901 1679l21 144h125l-21-144h-125z" unicode="&#x178;"/><glyph d="M430 1163l217 250h144l151-250h-113l-120 178-168-178h-111z" unicode="&#x2c6;"/><glyph d="M387 1208q18 72 79 129.5t126 57.5q47 0 126.5-51.5t119.5-51.5q35 0 60.5 27t35.5 63h86q-18-72-76-129t-121-57q-40 0-84.5 25.5t-86.5 51-74 25.5q-36 0-65-27t-40-63h-86z" unicode="&#x2dc;"/><glyph horiz-adv-x="929" unicode="&#x2000;"/><glyph horiz-adv-x="1858" unicode="&#x2001;"/><glyph horiz-adv-x="929" unicode="&#x2002;"/><glyph horiz-adv-x="1858" unicode="&#x2003;"/><glyph horiz-adv-x="619" unicode="&#x2004;"/><glyph horiz-adv-x="464" unicode="&#x2005;"/><glyph horiz-adv-x="309" unicode="&#x2006;"/><glyph horiz-adv-x="309" unicode="&#x2007;"/><glyph horiz-adv-x="232" unicode="&#x2008;"/><glyph horiz-adv-x="371" unicode="&#x2009;"/><glyph horiz-adv-x="103" unicode="&#x200a;"/><glyph d="M418 528l14 103h457l-15-103h-456z" unicode="&#x2010;"/><glyph d="M418 528l14 103h457l-15-103h-456z" unicode="&#x2011;"/><glyph d="M418 528l14 103h457l-15-103h-456z" unicode="&#x2012;"/><glyph d="M262 557l14 98h775l-15-98h-774z" unicode="&#x2013;"/><glyph d="M35 557l14 98h1227l-14-98h-1227z" horiz-adv-x="1226" unicode="&#x2014;"/><glyph d="M569 1042l191 392h71l-122-392h-140z" unicode="&#x2018;"/><glyph d="M569 1042l123 392h139l-192-392h-70z" unicode="&#x2019;"/><glyph d="M477-246l125 389h139l-194-389h-70z" unicode="&#x201a;"/><glyph d="M428 1042l190 392h72l-123-392h-139zM709 1042l190 392h72l-123-392h-139z" unicode="&#x201c;"/><glyph d="M428 1042l123 392h139l-192-392h-70zM709 1042l122 392h140l-193-392h-69z" unicode="&#x201d;"/><glyph d="M336-246l125 389h139l-194-389h-70zM616-246l125 389h140l-195-389h-70z" unicode="&#x201e;"/><glyph d="M383 750q0 121 86.5 207.5t208.5 86.5 208.5-86.5 86.5-207.5q0-122-86.5-208.5t-208.5-86.5-208.5 86.5-86.5 208.5z" unicode="&#x2022;"/><glyph d="M127 0l20 143h144l-21-143h-143zM537 0l20 143h143l-20-143h-143zM946 0l21 143h143l-20-143h-144z" unicode="&#x2026;"/><glyph horiz-adv-x="371" unicode="&#x202f;"/><glyph d="M479 598l283 311h110l-286-311 200-311h-110z" unicode="&#x2039;"/><glyph d="M436 287l285 311-199 311h109l198-311-284-311h-109z" unicode="&#x203a;"/><glyph horiz-adv-x="464" unicode="&#x205f;"/><glyph d="M217 530l14 105h101l22 153h-100l14 105h101l28 199q22 151 142.5 256.5t271.5 105.5h12q151 0 242.5-105.5t69.5-256.5h-107q14 109-51.5 184.5t-173.5 75.5q-110 0-196-76t-101-186l-29-197h475l-14-105h-475l-23-153h410l-14-105h-410l-27-188q-15-111 49.5-187.5t174.5-76.5 197 76 102 186l2 10h106l-2-8q-20-150-141.5-256t-272.5-106h-12q-151 0-241 106.5t-68 257.5l24 186h-100z" unicode="&#x20ac;"/><glyph d="M258 1374l8 60h393l-8-60h-166l-88-626h-65l88 626h-162zM618 748l97 686h76l120-344h9l210 344h78l-96-686h-68l78 552h-8l-176-286h-68l-102 286h-8l-78-552h-64z" unicode="&#x2122;"/><glyph d="M186-369l183 1305h-148l12 88h148l20 145q17 118 115 202.5t219 84.5q96 0 168-37l-65-73q-37 22-115 22-79 0-143.5-57t-75.5-133l-23-154h555l-131-936h166l-12-88h-455l12 88h187l119 848h-453l-182-1305h-101zM952 1270l21 143h135l-21-143h-135z" unicode="&#xfb01;"/><glyph d="M186-369l183 1305h-146l15 88h145l18 145q17 115 113 190t219 75h361l-191-1346h166l-12-88h-455l12 88h187l178 1258h-258q-81 0-144-47t-73-121l-21-154h271l-15-88h-270l-182-1305h-101z" unicode="&#xfb02;"/></font>
</defs>
</svg>
