<svg height="366" viewBox="0 0 476 366" width="476" xmlns="http://www.w3.org/2000/svg"><svg height="77.4" viewBox="-1 -1 127.9 77.4" width="127.9" x="348" y="154.8"><path d="m.3 12.6h1.4l1.4-3.1h6.5l1.4 3.1h1.4l-5.4-12h-1.3zm3.3-4.4 2.7-6.1 2.7 6.1zm10.9 4.4h1.3v-5c-.1-1.4 1-2.7 2.4-2.7h.2c1.3-.1 2.4.9 2.4 2.2v5.5h1.3v-5.5c.2-1.8-1.1-3.3-2.9-3.5h-.5c-1.2 0-2.4.6-3 1.7v-5.1h-1.3zm14.5.2c2.5 0 4.6-2 4.6-4.5v-.1c0-2.5-2.1-4.6-4.6-4.6s-4.6 2.1-4.6 4.6 2 4.5 4.4 4.6zm.1-1.2c-1.8 0-3.3-1.5-3.2-3.4v-.1c-.1-1.8 1.3-3.3 3.1-3.4h.1c1.8 0 3.3 1.5 3.3 3.4.1 1.8-1.3 3.3-3.1 3.4zm6.9 1h1.3v-3.5c0-2.7 1.6-4 3.5-4h.1v-1.5c-1.6 0-3 1-3.6 2.4v-2.2h-1.3zm9.1.2c1.2 0 2.4-.5 3.2-1.5v1.3h1.3v-5.4c.1-1-.3-1.9-.9-2.6-.8-.7-1.8-1-2.8-1-1.1 0-2.2.3-3.2.7l.4 1.1c.8-.4 1.7-.6 2.7-.6 1.6 0 2.6.8 2.6 2.4v.3c-.9-.3-1.8-.4-2.7-.4-2.2 0-3.8 1-3.8 2.9-.1 1.8 1.5 2.8 3.2 2.8zm.2-1.1c-1.1.1-2-.6-2.2-1.7v-.1c0-1.1.9-1.8 2.6-1.8.9 0 1.7.1 2.6.4v.8c-.1 1.5-1.4 2.4-3 2.4zm12.1 3.6h1.3v-4.4c.7 1.2 2 1.9 3.4 1.9 2.4-.1 4.3-2 4.2-4.4v-.2c.1-2.4-1.6-4.4-4-4.5h-.2c-1.4 0-2.7.8-3.4 2v-1.9h-1.3zm4.4-3.7c-1.8 0-3.2-1.6-3.2-3.4-.1-1.8 1.4-3.3 3.2-3.4 1.7 0 3.1 1.5 3.1 3.2v.2c.2 1.7-1.1 3.2-2.8 3.4zm10.9 1.2c2.5 0 4.6-2 4.6-4.5v-.1c0-2.5-2.1-4.6-4.6-4.6s-4.6 2.1-4.6 4.6 2 4.5 4.4 4.6zm0-1.2c-1.8 0-3.3-1.5-3.2-3.4v-.1c-.1-1.8 1.3-3.3 3.1-3.4h.1c1.8 0 3.3 1.5 3.3 3.4.1 1.8-1.3 3.3-3.1 3.4-.1.1-.1.1-.2.1zm10.6 1.2c1.4 0 2.7-.8 3.4-2v1.8h1.3v-12.4h-1.3v5.3c-.7-1.2-2-1.9-3.4-1.9-2.4.1-4.3 2-4.2 4.4v.2c-.2 2.4 1.6 4.4 4 4.5.1.1.2.1.2.1zm.3-1.2c-1.7 0-3.1-1.5-3.1-3.2v-.2c-.2-1.7 1.1-3.2 2.8-3.4h.3c1.8 0 3.2 1.5 3.2 3.3 0 1.9-1.4 3.4-3.2 3.5zm10.5-9.1h1l1.9-1.9-1.4-.6zm-2.4 6.2h7v-.5c0-2.6-1.5-4.7-4.1-4.7-2.5.2-4.4 2.5-4.2 5 .2 2.3 2.1 4.1 4.4 4.2 1.4 0 2.7-.6 3.6-1.6l-.8-.7c-.7.8-1.7 1.3-2.8 1.2-1.7.1-3-1.2-3.1-2.9zm0-1c0-1.6 1.3-2.9 2.9-3 1.7 0 2.7 1.4 2.8 3zm12.2 5.1c1.8 0 3.1-1 3.1-2.6s-1.5-2.1-2.8-2.5c-1.2-.4-2.3-.7-2.3-1.5.1-.8.8-1.4 1.6-1.3h.1c.9 0 1.8.3 2.6.8l.6-1c-.9-.6-2-.9-3.2-1-1.7 0-3 1-3 2.5 0 1.6 1.5 2.1 2.9 2.5 1.2.3 2.2.7 2.2 1.5-.1.9-.8 1.5-1.7 1.4h-.1c-1.1 0-2.2-.4-3-1.1l-.7.9c1.1.9 2.4 1.3 3.7 1.4z" fill="#fff"/></svg><svg height="77.4" viewBox="-1 -1 127.9 77.4" width="127.9" y="288.2"><path d="m5.1 32.8c1.4 0 2.7-.6 3.6-1.7l-.8-.8c-.7.8-1.6 1.3-2.7 1.3-1.8 0-3.3-1.5-3.2-3.3v-.1c-.1-1.8 1.3-3.3 3.1-3.4h.1c1 0 2 .5 2.7 1.3l.9-.9c-1.7-1.9-4.6-2.1-6.5-.4-1 .9-1.6 2.1-1.6 3.5-.2 2.4 1.8 4.5 4.4 4.5-.1 0 0 0 0 0zm9.5 0c2.5 0 4.6-2 4.6-4.5v-.1c0-2.5-2.1-4.6-4.6-4.6s-4.6 2.1-4.6 4.6 2 4.5 4.4 4.6zm0-1.2c-1.8 0-3.3-1.5-3.2-3.4v-.1c-.1-1.8 1.3-3.3 3.1-3.4h.1c1.8 0 3.3 1.5 3.3 3.4.1 1.8-1.3 3.3-3.1 3.4-.1.1-.1.1-.2.1zm6.9 1h1.3v-5c-.1-1.4.9-2.6 2.3-2.8h.1c1.4 0 2.3 1 2.3 2.6v5.2h1.3v-5.1c-.1-1.4.8-2.6 2.2-2.7h.2c1.4 0 2.3 1 2.3 2.7v5.1h1.3v-5.4c0-2.2-1.2-3.5-3.3-3.5-1.3 0-2.5.6-3.1 1.8-.5-1.1-1.6-1.8-2.8-1.8s-2.3.6-2.8 1.7v-1.5h-1.3zm16.2 2.7h1.3v-4.4c.7 1.2 2 1.9 3.4 1.9 2.4-.1 4.3-2 4.2-4.4v-.2c.1-2.4-1.6-4.4-4-4.5h-.2c-1.4 0-2.7.8-3.4 2v-1.8h-1.3zm4.4-3.7c-1.8 0-3.2-1.6-3.2-3.4-.1-1.8 1.4-3.3 3.2-3.4 1.7 0 3.1 1.5 3.1 3.2v.2c.2 1.7-1.1 3.2-2.8 3.4zm6.9 1h1.3v-3.5c0-2.7 1.6-4 3.5-4h.1v-1.4c-1.6 0-3 1-3.6 2.4v-2.3h-1.3zm9.1.2c1.2 0 2.4-.5 3.2-1.5v1.3h1.3v-5.4c.1-1-.3-1.9-.9-2.6-.8-.7-1.8-1-2.8-1-1.1 0-2.2.3-3.2.7l.4 1.1c.8-.4 1.7-.6 2.7-.6 1.6 0 2.6.8 2.6 2.4v.3c-.9-.3-1.8-.4-2.7-.4-2.2 0-3.8 1-3.8 2.9-.1 1.8 1.5 2.8 3.2 2.8zm.2-1.1c-1.1.2-2-.6-2.2-1.7v-.1c0-1.1.9-1.8 2.6-1.8.9 0 1.7.1 2.6.4v.8c-.1 1.5-1.4 2.4-3 2.4zm7 .9h1.3v-3.5c0-2.7 1.6-4 3.5-4h.1v-1.4c-1.6 0-3 1-3.6 2.4v-2.3h-1.3zm16 .2c2.5 0 4.6-2 4.6-4.5v-.1c0-2.5-2.1-4.5-4.7-4.5-2.5 0-4.5 2.1-4.5 4.5 0 2.5 2 4.5 4.4 4.6zm0-1.2c-1.8 0-3.3-1.5-3.2-3.4v-.1c-.1-1.8 1.3-3.3 3.1-3.4h.1c1.8 0 3.3 1.5 3.3 3.4.1 1.8-1.3 3.3-3.1 3.4-.1.1-.1.1-.2.1zm6.9 1h1.3v-5c-.1-1.4 1-2.7 2.4-2.7h.2c1.3-.1 2.4.9 2.4 2.2v5.5h1.3v-5.5c.2-1.8-1.1-3.3-2.9-3.5h-.5c-1.2 0-2.4.6-3 1.7v-1.5h-1.3v8.8zm10.6 0h1.3v-12.4h-1.3zm4.4-10.7h1.5v-1.4h-1.5zm.1 10.7h1.3v-8.8h-1.3zm4.4 0h1.3v-5c-.1-1.4 1-2.7 2.4-2.7h.2c1.3-.1 2.4.9 2.4 2.2v5.5h1.3v-5.5c.2-1.8-1.1-3.3-2.9-3.5h-.5c-1.2 0-2.4.6-3 1.7v-1.5h-1.3zm11.2-3.9h7v-.5c0-2.6-1.5-4.7-4.1-4.7-2.5.2-4.4 2.5-4.2 5 .2 2.3 2.1 4.1 4.4 4.2 1.4 0 2.7-.6 3.6-1.6l-.8-.7c-.7.8-1.7 1.3-2.8 1.2-1.7.1-3-1.2-3.1-2.9zm0-1c0-1.6 1.3-2.9 2.9-3 1.7 0 2.6 1.4 2.8 3z" fill="#fff"/></svg><svg height="77.4" viewBox="-1 -1 127.9 77.4" width="127.9" x="348"><path d="m5.1 52.8c1.4.1 2.8-.6 3.7-1.7l-1.5-1.5c-.5.6-1.3 1-2.1 1-1.3 0-2.3-1.1-2.3-2.4v-.2c-.1-1.3.9-2.4 2.2-2.5.8 0 1.6.4 2.1 1l1.6-1.7c-.9-1-2.3-1.6-3.6-1.5-2.6-.1-4.7 2-4.8 4.6v.2c0 2.6 2 4.7 4.6 4.7zm9.6 0c2.6.1 4.9-2 4.9-4.6v-.1c-.1-2.7-2.4-4.8-5.2-4.7-2.6.1-4.6 2.2-4.7 4.7 0 2.6 2.1 4.7 4.8 4.7zm.1-2.2c-1.3 0-2.4-1.1-2.4-2.4v-.1c-.1-1.3.9-2.4 2.2-2.5h.2c1.3 0 2.4 1.1 2.4 2.4v.1c.1 1.3-.9 2.4-2.2 2.5zm6.7 2h2.6v-5.1c-.1-.9.4-1.7 1.3-1.8h.3c1 0 1.6.6 1.6 1.9v5.1h2.6v-5.9c0-2.1-1.1-3.4-3.1-3.4-1.1 0-2.1.6-2.7 1.5v-1.3h-2.6zm19.5.2c1.1 0 2.2-.5 2.8-1.5v1.3h2.6v-12.4h-2.6v4.5c-.7-.9-1.7-1.4-2.8-1.4-2.2 0-4.1 1.7-4.1 4.7-.1 3.1 1.9 4.8 4.1 4.8zm.6-2.2c-1.3 0-2.3-1.1-2.2-2.4v-.1c-.2-1.2.7-2.3 1.9-2.5s2.3.7 2.5 1.9v.6c.1 1.3-.8 2.4-2.1 2.5zm11.4 2.2c1.4.1 2.8-.6 3.7-1.7l-1.5-1.3c-.6.6-1.4.9-2.2.9-1.1.1-2.1-.7-2.2-1.8h6.3v-.7c0-2.6-1.4-4.9-4.4-4.9-2.5 0-4.5 2.1-4.5 4.6v.2c-.1 2.5 1.9 4.6 4.4 4.7zm-2.2-5.5c0-1.1.9-1.9 2-1.9s1.9.9 1.9 1.9zm.9-4.8h1.9l2.2-2-2.2-1zm12.8 10.3c2.2 0 4.1-1.7 4.1-4.7s-2-4.7-4.1-4.7c-1.1 0-2.2.5-2.8 1.5v-4.6h-2.6v12.4h2.6v-1.2c.7.8 1.7 1.3 2.8 1.3zm-.6-2.2c-1.3-.1-2.3-1.1-2.2-2.4v-.1c-.2-1.2.7-2.3 1.9-2.5s2.3.7 2.5 1.9v.6c.1 1.3-.8 2.4-2.1 2.5zm6.7-8.1h2.7v-2.3h-2.7zm.1 10.1h2.6v-9.1h-2.6zm8.1.1c.7 0 1.4-.2 2-.5v-2.1c-.4.2-.8.3-1.3.3-.4.1-.8-.2-.8-.6v-4.1h2.1v-2.2h-2.1v-2.3h-2.6v2.3h-1.1v2.2h1.1v4.3c0 2.1 1.1 2.7 2.7 2.7zm8.2.1c2.6.1 4.9-2 4.9-4.6v-.1c-.1-2.7-2.4-4.8-5.2-4.7-2.6.1-4.6 2.2-4.7 4.7 0 2.6 2.1 4.7 4.8 4.7zm0-2.2c-1.3 0-2.4-1.1-2.4-2.4v-.1c-.1-1.3.9-2.4 2.2-2.5h.2c1.3 0 2.4 1.1 2.4 2.4v.1c.1 1.3-.9 2.4-2.2 2.5z" fill="#fff"/></svg><svg height="77.4" viewBox="-1 -1 127.9 77.4" width="127.9" x="348" y="77.4"><path d="m3 75.4c1.5 0 2.3-.7 3-2.5l3.5-9.3h-2.7l-2 6.2-2.1-6.2h-2.7l3.6 9.1c-.1.4-.5.6-.9.6s-.8-.1-1.1-.4l-.9 1.9c.7.4 1.5.6 2.3.6zm17.4-2.6c1.4.1 2.8-.6 3.7-1.7l-1.5-1.5c-.5.6-1.3 1-2.1 1-1.3 0-2.3-1.1-2.3-2.4v-.2c-.1-1.3.9-2.4 2.2-2.5.8 0 1.6.4 2.1 1l1.6-1.7c-.9-1-2.3-1.6-3.6-1.5-2.6-.1-4.7 2-4.8 4.6v.2c0 2.6 2 4.7 4.6 4.7zm5.4-.2h2.6v-3.4c0-2.2 1.1-3.2 2.8-3.2h.1v-2.7c-1.3-.1-2.5.7-2.9 2v-1.8h-2.6zm11.2.2c1.4.1 2.8-.6 3.7-1.7l-1.5-1.3c-.6.6-1.4.9-2.2.9-1.1.1-2.1-.7-2.2-1.8h6.3v-.7c0-2.6-1.4-4.9-4.4-4.9-2.5 0-4.5 2.1-4.5 4.6v.2c-.1 2.5 1.9 4.6 4.4 4.7zm-2.3-5.5c0-1.1.9-1.9 2-1.9s1.9.9 1.9 1.9zm1-4.8h1.9l2.2-2-2.2-1zm11.1 10.3c1.1 0 2.2-.5 2.8-1.5v1.3h2.6v-12.4h-2.6v4.5c-.7-.9-1.7-1.4-2.8-1.4-2.2 0-4.1 1.7-4.1 4.7 0 3.1 2 4.8 4.1 4.8zm.7-2.2c-1.3 0-2.3-1.1-2.2-2.4v-.1c-.2-1.2.7-2.3 1.9-2.5s2.3.7 2.5 1.9v.6c.1 1.3-.8 2.4-2.1 2.5zm7.1-8.1h2.7v-2.3h-2.7zm.1 10.1h2.6v-9.1h-2.6zm8 .1c.7 0 1.4-.2 2-.5v-2.1c-.4.2-.8.3-1.3.3-.4.1-.8-.2-.8-.6v-4.1h2.1v-2.2h-2.1v-2.3h-2.6v2.3h-1v2.2h1.1v4.3c0 2.1 1.1 2.7 2.6 2.7zm8.2.1c2.6.1 4.9-2 4.9-4.6v-.1c-.1-2.7-2.4-4.8-5.2-4.7-2.6.1-4.6 2.2-4.7 4.7 0 2.6 2.1 4.7 4.8 4.7zm.1-2.2c-1.3 0-2.4-1.1-2.4-2.4v-.1c-.1-1.3.9-2.4 2.2-2.5h.2c1.3 0 2.4 1.1 2.4 2.4v.1c.1 1.3-.9 2.4-2.2 2.5zm6.3 2h2.8v-2.7h-2.8z" fill="#fff"/></svg><svg height="70.7" viewBox="-1 -1 174 70.7" width="174" y="70.7"><path d="m17.9 16.2c2.3.1 4.4-.9 5.9-2.6l-1.6-1.7c-1.1 1.2-2.6 1.9-4.2 1.9-2.7-.1-4.9-2.3-4.8-5.1v-.1c-.1-2.7 1.9-5 4.6-5.2h.2c1.6 0 3 .7 4.1 1.8l1.6-1.9c-1.5-1.6-3.5-2.4-5.7-2.3-4.1-.1-7.5 3.2-7.5 7.3v.3c-.1 4.1 3.1 7.4 7.2 7.5 0 .1.1.1.2.1zm13.4 0c3.2.1 5.8-2.5 5.9-5.6v-.1c-.1-3.2-2.8-5.8-6-5.7s-5.7 2.6-5.7 5.8 2.5 5.7 5.7 5.7c0-.1 0-.1.1-.1zm0-2.2c-1.9 0-3.4-1.6-3.4-3.5v-.1c-.1-1.8 1.3-3.4 3.1-3.5h.2c1.9 0 3.4 1.6 3.4 3.4v.1c.1 1.8-1.3 3.4-3.1 3.5 0 .1-.1.1-.2.1zm8.4 1.9h2.5v-6.2c0-1.7 1-2.8 2.4-2.8s2.2 1 2.2 2.7v6.3h2.5v-6.2c0-1.8 1-2.7 2.4-2.7s2.2.9 2.2 2.7v6.3h2.5v-7.2c0-2.7-1.5-4.2-3.9-4.2-1.5 0-2.9.7-3.7 1.9-.6-1.2-1.9-2-3.3-2s-2.6.7-3.4 1.9v-1.6h-2.5zm19.9 3.4h2.5v-5.1c.8 1.2 2.2 2 3.7 1.9 2.6 0 5.1-2.1 5.1-5.7 0-3.7-2.5-5.7-5.1-5.7-1.5 0-2.9.8-3.7 2.1v-2h-2.5zm5.6-5.4c-1.8-.1-3.3-1.6-3.2-3.4v-.1c-.1-1.8 1.3-3.4 3.1-3.5h.1c1.8.1 3.2 1.6 3.2 3.4v.2c.2 1.8-1.1 3.4-2.9 3.5-.1-.1-.2-.1-.3-.1zm8.4 2h2.5v-4.2c0-2.9 1.5-4.4 3.8-4.4h.1v-2.7c-1.8-.1-3.4 1-3.9 2.7v-2.5h-2.5zm17.3 0v-6.6c0-3-1.6-4.7-4.8-4.7-1.5 0-2.9.3-4.2.9l.7 2c1-.5 2.1-.7 3.1-.7 1.8 0 2.7.8 2.7 2.4v.2c-1-.3-2-.5-3-.5-2.6 0-4.5 1.2-4.5 3.6 0 2.2 1.8 3.4 3.9 3.4 1.4 0 2.7-.5 3.6-1.6v1.4zm-2.4-4c0 1.4-1.3 2.3-2.9 2.3-1.2 0-2.1-.6-2.1-1.6 0-1.1.9-1.7 2.5-1.7.9 0 1.7.1 2.5.4zm-3.3-8.5h1.9l2.6-2.4-2.3-1zm20.2 12.8c3.2.1 5.8-2.5 5.9-5.6v-.1c-.1-3.2-2.8-5.8-6-5.7s-5.7 2.6-5.7 5.8 2.5 5.7 5.7 5.7c0-.1.1-.1.1-.1zm0-2.2c-1.9 0-3.4-1.6-3.4-3.5v-.1c-.1-1.8 1.3-3.4 3.1-3.5h.2c1.9 0 3.4 1.6 3.4 3.4v.1c.1 1.8-1.3 3.4-3.1 3.5 0 .1-.1.1-.2.1zm8.5 1.9h2.5v-6.2c-.2-1.3.8-2.6 2.2-2.7h.3c1.5 0 2.4 1 2.4 2.7v6.3h2.5v-7c0-2.6-1.4-4.3-3.9-4.3-1.4 0-2.7.7-3.4 2v-1.9h-2.5zm13.1 0h2.5v-15.3h-2.5zm5.8-12.8h2.7v-2.4h-2.7v2.4zm.1 12.8h2.5v-11.1h-2.5zm5.9 0h2.5v-6.2c-.2-1.3.8-2.6 2.2-2.7h.3c1.5 0 2.4 1 2.4 2.7v6.3h2.5v-7c0-2.6-1.4-4.3-3.9-4.3-1.4 0-2.7.7-3.4 2v-1.9h-2.5zm17.9.3c1.7.1 3.4-.7 4.5-2.1l-1.5-1.3c-.8.8-1.8 1.3-3 1.3-1.6.1-3-1.2-3.2-2.8h8.1v-.7c0-3.2-1.8-6-5.3-6-3 .1-5.4 2.5-5.4 5.6v.2c-.1 3 2.2 5.6 5.3 5.7.3.1.4.1.5.1zm-3.1-6.6c0-1.6 1.3-2.8 2.9-2.9 1.7 0 2.6 1.3 2.8 2.9z" fill="#646363"/></svg><svg height="70.7" viewBox="-1 -1 174 70.7" width="174"><path d="m5.7 40.8c1.7.1 3.4-.7 4.5-2.1l-1.5-1.5c-.7.8-1.8 1.4-2.9 1.4-1.9 0-3.3-1.6-3.3-3.4v-.1c-.1-1.8 1.3-3.4 3.1-3.5h.1c1.1 0 2.2.5 2.9 1.4l1.6-1.7c-1.1-1.3-2.7-2-4.4-1.9-3.2-.1-5.8 2.4-5.8 5.6v.1c0 3.1 2.4 5.7 5.6 5.7zm11.7 0c3.2.1 5.8-2.5 5.9-5.6v-.1c-.1-3.2-2.8-5.8-6-5.7-3.1.1-5.7 2.6-5.7 5.8s2.5 5.7 5.7 5.7c0-.1.1-.1.1-.1zm.1-2.2c-1.9 0-3.4-1.6-3.4-3.5v-.1c-.1-1.8 1.3-3.4 3.1-3.5h.2c1.9 0 3.4 1.6 3.4 3.4v.1c.1 1.8-1.3 3.4-3.1 3.5-.1.1-.1.1-.2.1zm8.4 2h2.5v-6.2c-.2-1.3.8-2.6 2.2-2.7h.3c1.5 0 2.4 1 2.4 2.7v6.3h2.5v-7c0-2.6-1.4-4.3-3.9-4.3-1.4 0-2.7.7-3.4 1.9v-1.7h-2.5zm22.9.2c.8 0 1.6-.2 2.3-.6v-2.1c-.5.3-1 .4-1.6.4-.7.1-1.3-.4-1.4-1v-5.8h3v-2.2h-3v-3h-2.5v3h-1.4v2.2h1.4v5.8c0 2.4 1.4 3.3 3.2 3.3zm8.7 0c1.4 0 2.7-.7 3.4-1.9v1.7h2.5v-11.1h-2.5v6.2c.2 1.3-.8 2.6-2.2 2.7h-.3c-1.5 0-2.4-1-2.4-2.7v-6.3h-2.5v7c.1 2.7 1.5 4.4 4 4.4zm19.1 0c.8 0 1.6-.2 2.3-.6v-2.1c-.5.3-1 .4-1.6.4-.7.1-1.3-.4-1.4-1v-5.8h3v-2.2h-3v-3h-2.5v3h-1.4v2.2h1.4v5.8c0 2.4 1.3 3.3 3.2 3.3zm14.1-.2v-6.6c0-3-1.6-4.7-4.8-4.7-1.5 0-2.9.3-4.2.9l.7 2c1-.5 2.1-.7 3.2-.7 1.8 0 2.7.8 2.7 2.4v.2c-1-.3-2-.5-3-.5-2.6 0-4.5 1.2-4.5 3.6 0 2.2 1.8 3.4 3.9 3.4 1.4 0 2.7-.5 3.6-1.6v1.4zm-2.5-4c0 1.4-1.3 2.3-2.9 2.3-1.2 0-2.1-.6-2.1-1.6 0-1.1.9-1.7 2.5-1.7.9 0 1.7.1 2.5.4zm5.5 4h2.5v-4.2c0-2.9 1.5-4.4 3.8-4.4h.1v-2.7c-1.8-.1-3.4 1-3.9 2.7v-2.5h-2.5zm8.6-12.8h2.7v-2.4h-2.7zm-.5 16.2c2.1 0 3.2-1 3.2-3.3v-11.2h-2.5v11.1c.1.6-.3 1.2-.9 1.3h-.3c-.2 0-.5 0-.7-.1v2c.4.2.8.2 1.2.2zm11.5-3.2c1.7.1 3.4-.7 4.5-2.1l-1.5-1.3c-.8.8-1.8 1.3-3 1.3-1.6.1-3-1.2-3.2-2.8h8.1v-.7c0-3.2-1.8-6-5.3-6-3 .1-5.4 2.5-5.4 5.6v.2c-.1 3 2.2 5.6 5.3 5.7.3.1.4.1.5.1zm-3.1-6.5c0-1.6 1.3-2.8 2.9-2.9 1.7 0 2.6 1.3 2.8 2.9zm14.4 6.5c.8 0 1.6-.2 2.3-.6v-2.1c-.5.3-1 .4-1.6.4-.7.1-1.3-.4-1.4-1v-5.8h3v-2.2h-3v-3h-2.5v3h-1.4v2.2h1.4v5.8c0 2.4 1.3 3.3 3.2 3.3zm14.1-.2v-6.6c0-3-1.6-4.7-4.8-4.7-1.5 0-2.9.3-4.2.9l.7 2c1-.5 2.1-.7 3.1-.7 1.8 0 2.7.8 2.7 2.4v.2c-1-.3-2-.5-3-.5-2.6 0-4.5 1.2-4.5 3.6 0 2.2 1.8 3.4 3.9 3.4 1.4 0 2.7-.5 3.6-1.6v1.4zm-2.5-4c0 1.4-1.3 2.3-2.9 2.3-1.2 0-2.1-.6-2.1-1.6 0-1.1.9-1.7 2.5-1.7.9 0 1.7.1 2.5.4zm16.3 4.2c1.5 0 2.9-.8 3.8-2.1v1.8h2.5v-15.2h-2.5v6c-.9-1.2-2.3-2-3.8-1.9-2.6 0-5.1 2.1-5.1 5.7s2.5 5.7 5.1 5.7zm.6-2.2a3.4 3.4 0 0 1 -3.2-3.4v-.1c-.2-1.8 1.1-3.4 2.9-3.5h.3c1.8.1 3.3 1.6 3.2 3.4v.1c.1 1.8-1.3 3.4-3.2 3.5zm13.9 2.2c1.7.1 3.4-.7 4.5-2.1l-1.5-1.3c-.8.8-1.8 1.3-3 1.3-1.6.1-3-1.2-3.2-2.8h8.1v-.7c0-3.2-1.8-6-5.3-6-3 .1-5.4 2.5-5.4 5.6v.2c-.1 3 2.2 5.6 5.3 5.7.2.1.3.1.5.1zm-3.2-6.5c0-1.6 1.3-2.8 2.9-2.9 1.7 0 2.6 1.3 2.8 2.9z" fill="#e6007e"/></svg><svg height="70.7" viewBox="-1 -1 174 70.7" width="174" x="174"><path d="m5.5 65.5c1.5 0 2.9-.8 3.8-2.1v1.8h2.5v-15.3h-2.6v6c-.9-1.2-2.3-2-3.8-1.9-2.6 0-5.1 2.1-5.1 5.7 0 3.7 2.6 5.8 5.2 5.8zm.6-2.2a3.4 3.4 0 0 1 -3.2-3.4v-.2c-.2-1.8 1.1-3.4 2.9-3.5h.3c1.8.1 3.3 1.6 3.2 3.4v.1c.1 1.9-1.3 3.5-3.2 3.6zm12.5-10.5h1.9l2.6-2.4-2.3-1zm1.3 12.7c1.7.1 3.4-.7 4.5-2.1l-1.4-1.3c-.8.8-1.8 1.3-3 1.3-1.6.1-3-1.2-3.2-2.8h8.1v-.7c0-3.2-1.8-6-5.3-6-3 .1-5.4 2.5-5.4 5.6v.2c-.1 3 2.2 5.6 5.3 5.7.2.1.3.1.4.1zm-3.1-6.6c0-1.6 1.3-2.8 2.9-2.9 1.7 0 2.6 1.3 2.8 2.9zm17 6.6c2.6 0 5.1-2.1 5.1-5.7 0-3.7-2.5-5.7-5.1-5.7-1.5 0-2.9.8-3.7 2.1v-6.1h-2.5v15.3h2.4v-1.7c.9 1.1 2.3 1.8 3.8 1.8zm-.6-2.2c-1.8-.1-3.3-1.6-3.2-3.4v-.1c-.1-1.8 1.3-3.4 3.1-3.5h.1c1.8.1 3.2 1.6 3.2 3.4v.2c.2 1.8-1.1 3.4-2.9 3.5-.2-.1-.2-.1-.3-.1zm8.3-10.8h2.7v-2.4h-2.7zm.1 12.8h2.5v-11.1h-2.5zm9.5.1c.8 0 1.6-.2 2.3-.6v-2.1c-.5.2-1 .4-1.6.4-.7.1-1.3-.4-1.4-1v-5.8h3v-2.2h-3v-3h-2.4v3h-1.4v2.2h1.4v5.8c0 2.5 1.3 3.3 3.1 3.3zm9.8.1c3.2.1 5.8-2.5 5.9-5.6v-.1c-.1-3.2-2.8-5.8-6-5.7s-5.7 2.6-5.7 5.8 2.5 5.7 5.7 5.7c0-.1.1-.1.1-.1zm.1-2.2c-1.9 0-3.4-1.6-3.4-3.5v-.1c-.1-1.8 1.3-3.4 3.1-3.5h.2c1.9 0 3.4 1.6 3.4 3.4v.1c.1 1.8-1.3 3.4-3.1 3.5-.1.1-.2.1-.2.1zm16.9 5.4c1.8 0 2.8-.8 3.6-3.1l4.4-11.4h-2.6l-2.9 8.2-3.1-8.2h-2.7l4.6 11.1c-.2.7-.8 1.3-1.6 1.3-.5 0-1-.2-1.5-.4l-.8 1.8c.8.5 1.7.7 2.6.7zm21.6-3.2c1.7.1 3.4-.7 4.5-2.1l-1.5-1.5c-.7.8-1.8 1.4-2.9 1.4-1.9 0-3.3-1.6-3.3-3.4v-.1c-.1-1.8 1.3-3.4 3.1-3.5h.1c1.1 0 2.2.5 2.9 1.4l1.6-1.7c-1.1-1.3-2.7-2-4.4-1.9-3.1 0-5.7 2.5-5.7 5.7v.1c0 3.1 2.4 5.7 5.6 5.7-.1-.1-.1-.1 0-.1zm6.8-.2h2.5v-4.3c0-2.9 1.5-4.4 3.8-4.4h.1v-2.6c-1.8-.1-3.4 1-3.9 2.7v-2.5h-2.5zm12-12.5h1.9l2.6-2.4-2.3-1zm1.3 12.7c1.7.1 3.4-.7 4.5-2.1l-1.5-1.3c-.8.8-1.8 1.3-3 1.3-1.6.1-3-1.2-3.2-2.8h8.1v-.7c0-3.2-1.8-6-5.3-6-3 .1-5.4 2.5-5.4 5.6v.2c-.1 3 2.2 5.6 5.3 5.7.2.1.3.1.5.1zm-3.2-6.6c0-1.6 1.3-2.8 2.9-2.9 1.7 0 2.6 1.3 2.8 2.9zm15.3 6.6c1.5 0 2.9-.8 3.8-2.1v1.8h2.5v-15.3h-2.5v6c-.9-1.2-2.3-2-3.8-1.9-2.6 0-5.1 2.1-5.1 5.7 0 3.7 2.5 5.8 5.1 5.8zm.6-2.2a3.4 3.4 0 0 1 -3.2-3.4v-.2c-.2-1.8 1.1-3.4 2.9-3.5h.3c1.8.1 3.3 1.6 3.2 3.4v.1c.1 1.9-1.3 3.5-3.2 3.6zm8.8-10.8h2.7v-2.4h-2.7zm.2 12.8h2.5v-11.1h-2.5zm9.5.1c.8 0 1.6-.2 2.3-.6v-2.1c-.5.2-1 .4-1.6.4-.7.1-1.3-.4-1.4-1v-5.8h3v-2.2h-3v-3h-2.5v3h-1.4v2.2h1.4v5.8c0 2.5 1.3 3.3 3.2 3.3zm9.8.1c3.2.1 5.8-2.5 5.9-5.6v-.1c-.1-3.2-2.8-5.8-6-5.7-3.1.1-5.7 2.6-5.7 5.8s2.5 5.7 5.7 5.7c0-.1 0-.1.1-.1zm0-2.2c-1.9 0-3.4-1.6-3.4-3.5v-.1c-.1-1.8 1.3-3.4 3.1-3.5h.2c1.9 0 3.4 1.6 3.4 3.4v.1c.1 1.8-1.3 3.4-3.1 3.5-.1.1-.1.1-.2.1zm7.8 2h2.8v-2.9h-2.8z" fill="#e6007e"/></svg><svg height="73.4" viewBox="-1 -1 157.7 73.4" width="157.7" y="141.4"><path d="m2.2 16.4h8.6v-1.3h-7.2v-11.4h-1.4zm19.6 0h8.6v-1.3h-7.2v-11.4h-1.4zm19.6 0h9.3v-1.3h-7.8v-4.5h6.9v-1.3h-6.9v-4.3h7.8v-1.3h-9.2zm26.5.2c1.9 0 3.7-.7 5.1-1.9v-5.1h-5.3v1.3h3.9v3.1c-1 .8-2.3 1.3-3.7 1.3-3.1 0-5-2.3-5-5.3-.1-2.7 2-5.1 4.7-5.2h.1c1.4 0 2.8.5 3.9 1.5l.9-1.1c-1.3-1.2-3-1.8-4.7-1.7-3.5 0-6.4 2.9-6.4 6.4v.2c-.2 3.4 2.5 6.4 5.9 6.5zm22-14.2h1.2l2.1-1.7-1.5-.7zm.6 14.2c3.6 0 6.5-2.8 6.5-6.4v-.2c0-3.6-2.9-6.5-6.5-6.5s-6.5 2.9-6.5 6.5c-.1 3.5 2.7 6.5 6.2 6.5.1.1.2.1.3.1zm0-1.3c-2.8 0-5-2.3-5-5.1v-.2c-.1-2.8 2-5.1 4.8-5.2h.2c2.8 0 5 2.3 5 5.1v.2c.1 2.8-2 5.1-4.8 5.2zm31.7 1.1h8.6v-1.3h-7.2v-11.4h-1.4zm18.5 0h1.5l1.5-3.4h6.9l1.5 3.4h1.5l-5.8-12.8h-1.3zm3.6-4.7 2.9-6.5 2.9 6.5z" fill="#636466"/></svg><svg height="73.4" viewBox="-1 -1 157.7 73.4" width="157.7" x="157.7" y="141.4"><path d="m7.6 36.5v-2.8h3.2c.5 0 1.1.1 1.5.4.3.2.5.6.5 1v.1c0 .4-.2.8-.5 1-.5.3-1 .4-1.5.4zm0-6.6v-2.6h2.7c1.3 0 2 .4 2 1.3v.1c0 .9-.7 1.3-2 1.3zm-6.2 11.4h10.4c1.1 0 2.1-.1 3.1-.4.8-.2 1.6-.6 2.3-1.1.6-.4 1.1-1 1.4-1.6s.5-1.4.5-2.1v-.1c.1-1.1-.3-2.2-1.1-3s-1.8-1.3-2.9-1.6c.9-.3 1.8-.8 2.4-1.6s1-1.7.9-2.7v-.1c0-.6-.1-1.2-.3-1.7s-.5-.9-.8-1.2c-.6-.6-1.3-1-2.1-1.3-1-.3-2.1-.5-3.2-.4h-10.5zm19.1 0h6.3v-18.8h-6.3zm8.4 0h15.1v-5.4h-8.8v-13.4h-6.3zm16.5 0h15.1v-5.4h-8.8v-13.4h-6.3zm16.4 0h16.2v-5.1h-10v-2h9.2v-4.5h-9.2v-1.9h9.8v-5.1h-16zm22.7 0h6.3v-13.5h5.5v-5.3h-17.4v5.3h5.5zm13.2 0h16.1v-5.1h-10v-2h9.2v-4.5h-9.2v-1.9h9.8v-5.1h-16zm24.1-9.9v-3.7h2.7c.6 0 1.2.1 1.7.4.4.3.7.8.6 1.4v.1c0 .5-.2 1-.6 1.3-.5.3-1.1.5-1.8.5zm-6.3 9.9h6.3v-5.4h1.3l3.5 5.4h7.2l-4.4-6.4c1.1-.5 2-1.3 2.7-2.3s1-2.2 1-3.5v-.1c0-.9-.1-1.7-.4-2.5-.3-.7-.7-1.4-1.3-1.9-.7-.7-1.6-1.2-2.6-1.6-1.3-.4-2.7-.6-4.1-.6h-9.2zm27-7 1.7-4.6 1.7 4.6zm-9.2 7h6.7l1-2.5h6.6l1 2.5h6.8l-7.9-18.9h-6.2z" fill="#e10c7e"/></svg><svg height="73.4" viewBox="-1 -1 157.7 73.4" width="157.7" y="214.8"><path d="m9.5 71.1h7.5l9.5-23.6h-8.6l-4.6 13.2-4.5-13.2h-8.8zm18.1-.2h7.8v-23.4h-7.8zm18.4-12.3v-4.6h3.4c.8 0 1.5.2 2.2.6.5.4.8 1 .8 1.7v.1c0 .7-.3 1.3-.8 1.7-.7.4-1.4.6-2.2.6zm-7.8 12.3h7.8v-6.7h1.7l4.4 6.7h8.9l-5.5-8c1.4-.6 2.5-1.6 3.4-2.8.9-1.3 1.3-2.8 1.2-4.4v-.1c0-1.1-.2-2.1-.5-3.1-.4-.9-.9-1.7-1.6-2.4-.9-.9-2-1.6-3.3-2-1.7-.5-3.4-.8-5.2-.7h-11.3zm29.9 0h7.8v-16.8h6.9v-6.6h-21.6v6.6h6.9zm32.6-.1c1.4-.4 2.6-1 3.7-2 1.1-.9 1.9-2.1 2.4-3.4.6-1.6.9-3.4.8-5.1v-12.8h-8v13c.1 1.1-.3 2.2-1 3.1-.7.6-1.7 1-2.6.9-1 0-1.9-.3-2.6-1-.8-.9-1.1-2-1-3.2v-12.8h-8v12.9c0 1.7.2 3.4.8 5 .5 1.3 1.3 2.5 2.3 3.4s2.3 1.6 3.6 2c1.5.4 3.1.6 4.7.6 1.7 0 3.3-.2 4.9-.6zm19.2-8.6 2.1-5.7 2.1 5.7zm-11.5 8.7h8.4l1.2-3.1h8.2l1.2 3.1h8.5l-9.9-23.6h-7.8zm28.5 0h18.9v-6.7h-11v-16.7h-7.8z" fill="#e10c7e"/></svg><svg height="33.6" viewBox="-1 -1 90 33.6" width="90" x="348" y="232.2"><path d="m47.2 7.7c0-3.7 2.8-6.9 6.8-6.9s6.8 3.2 6.8 6.8c0 3.7-2.8 6.9-6.8 6.9s-6.8-3.1-6.8-6.8zm12 0c0-3.1-2.2-5.5-5.2-5.5s-5.2 2.4-5.2 5.5c0 3 2.2 5.5 5.2 5.5 3.1-.1 5.2-2.5 5.2-5.5zm15.2 0c0-3.7 2.8-6.9 6.8-6.9s6.8 3.2 6.8 6.8c0 3.7-2.8 6.9-6.8 6.9s-6.8-3.1-6.8-6.8zm12 0c0-3.1-2.2-5.5-5.2-5.5s-5.2 2.4-5.2 5.5c0 3 2.2 5.5 5.2 5.5 3.1-.1 5.2-2.5 5.2-5.5zm-12.8 16.1c0-3.8 3-6.9 7.1-6.9s7 3.1 7 6.8c0 3.8-3 6.9-7.1 6.9-4.1.1-7-3-7-6.8zm11.1 0c0-2.3-1.7-4.2-4-4.2-2.4 0-4 1.9-4 4.1 0 2.3 1.7 4.2 4 4.2 2.3.1 4-1.8 4-4.1z" fill="#646363"/><path d="m31.6 29.7c0 1-.9 1.9-1.9 1.9h-27.8c-1 0-1.9-.9-1.9-1.9v-27.8c0-1 .9-1.9 1.9-1.9h27.8c1 0 1.9.9 1.9 1.9z" fill="#e6007e"/><path d="m20.9 6.9h-15.6c-1 0-1.8.8-1.8 1.8s.8 1.8 1.8 1.8h4.9c.1 0 .1.1.1.1 0 .1 0 .1-.1.1 0 0-.7.2-1.2.3v11.8c0 1.1.9 2 2 2s2-.9 2-2v-11.7c0-.3.3-.6.6-.6h6.9c2 0 3.2.9 3.2 2.6v.1c0 1.5-1.1 2.7-3.1 2.7h-3c-1.5 0-1.6.7-1.6 1.3v5.7c0 1.1.9 2 2 2s2-.9 2-2v-2.9c-.5-.1-1.3-.3-1.3-.4-.1 0-.1-.1-.1-.1 0-.1.1-.1.1-.1h1.9c4 0 7.2-2.1 7.2-6.3v-.1c-.1-3.6-2.7-6.1-6.9-6.1z" fill="#fff"/><g fill="#646363"><path d="m66.7 1h-3.9c-.4 0-.7.3-.7.8v11.8c0 .4.3.8.7.8h3.9c4.2 0 7.1-2.9 7.1-6.6 0-3.9-2.9-6.8-7.1-6.8zm5.5 6.7c0 2.9-2.1 5.2-5.5 5.2h-2.7c-.2 0-.4-.2-.4-.4v-9.8c0-.2.2-.3.3-.3h2.8c3.4 0 5.5 2.3 5.5 5.3zm-25-6.7h-9.2c-.4 0-.7.3-.7.7s.3.7.7.7h3.5c.2 0 .3.2.4.3v10.9c0 .4.3.8.8.8.4 0 .8-.3.8-.8v-10.9c0-.2.2-.3.4-.3h3.5c.4 0 .7-.3.7-.7-.2-.4-.5-.7-.9-.7zm-3.7 16.1h-4c-.8 0-1.5.6-1.5 1.5v10.5c0 .8.6 1.5 1.5 1.5s1.5-.6 1.5-1.5v-2.6h2.2c3 0 5.4-1.6 5.4-4.7 0-2.8-1.9-4.7-5.1-4.7zm2.1 4.7c0 1.1-.9 2-2.3 2h-2c-.2 0-.3-.2-.4-.4v-3.4c0-.2.2-.3.4-.4h1.9c1.5.2 2.4.9 2.4 2.2zm25.7 1h-4.3c-.7 0-1.3.6-1.3 1.3s.6 1.3 1.3 1.3h2.6c.2 0 .4.2.4.4v1.5c-.7.5-1.7.8-2.8.8-2.4 0-4-1.8-4-4.2 0-2.3 1.7-4.1 3.8-4.1 1.3 0 2.1.3 2.9.9.2.2.5.3.9.3.8 0 1.4-.6 1.4-1.4 0-.6-.3-1-.6-1.2-1.2-.8-2.5-1.3-4.5-1.3-4 0-7 3.1-7 6.9 0 3.9 2.8 6.8 7 6.8 2 0 3.6-.7 4.7-1.3.7-.4 1-1 1-1.9v-3.2c0-1-.6-1.6-1.5-1.6z"/><path d="m60.4 28.6-4.6-10.5c-.3-.7-.9-1.2-1.7-1.2h-.2c-.8 0-1.4.4-1.7 1.2l-4.6 10.5c-.1.2-.2.4-.2.6 0 .8.6 1.4 1.3 1.4.6 0 1.1-.3 1.3-.9l.9-2.2h5.8l.9 2.1c.3.6.7 1 1.4 1 .8 0 1.4-.6 1.4-1.4.1-.2.1-.4 0-.6zm-6.5-8.1 1.7 4.1v.1c0 .1-.1.2-.2.2h-3c-.1 0-.2-.1-.2-.2v-.1z"/></g></svg></svg>