<svg enable-background="new 0 0 550 550" viewBox="0 0 550 550" xmlns="http://www.w3.org/2000/svg"><g stroke="#00f7ea" stroke-linecap="round" stroke-linejoin="round" stroke-miterlimit="10"><path d="m75.1 152 198.9-123 201 123v246l-202 123-198-123v-164" fill="none" stroke-width="30"/><path d="m348.7 279.7c-9.8 0-18.5 4.8-23.8 12.2l-17.1-11.6c1.1-3.6 1.7-7.4 1.7-11.3 0-10-3.7-19.1-9.8-26.1l26-24.1c3.8 3.8 9.1 6.2 15 6.2 11.8 0 21.3-9.5 21.3-21.3s-9.5-21.3-21.3-21.3-21.3 9.5-21.3 21.3c0 4.2 1.3 8.2 3.4 11.5l-26.4 24.4c-7.1-6.5-16.5-10.5-26.9-10.5-8.7 0-16.7 2.8-23.2 7.5l-22.3-30.4c7.4-5.3 12.2-13.9 12.2-23.7 0-16.2-13.1-29.3-29.3-29.3s-29.3 13.1-29.3 29.3 13.1 29.3 29.3 29.3c4.7 0 9.1-1.1 13.1-3.1l22.6 30.9c-8 7.3-13 17.8-13 29.4 0 10.7 4.2 20.4 11.1 27.6l-31.4 31.2c-4.3-3.9-10-6.4-16.2-6.4-13.2 0-24 10.7-24 24s10.7 24 24 24c13.2 0 24-10.7 24-24 0-5-1.5-9.7-4.2-13.5l31.8-31.7c6.8 5.4 15.4 8.7 24.8 8.7 2.7 0 5.3-.3 7.9-.8l13.3 43.4c-8.1 3-13.8 10.8-13.8 19.9 0 11.8 9.5 21.3 21.3 21.3s21.3-9.5 21.3-21.3-9.5-21.3-21.3-21.3c-1 0-1.9.1-2.9.2l-13.3-43.5c10.4-3.4 18.9-11 23.5-20.7l16.4 11c-1.6 3.6-2.4 7.5-2.4 11.7 0 16.2 13.1 29.3 29.3 29.3s29.3-13.1 29.3-29.3c-.2-16-13.3-29.1-29.4-29.1zm-8-92c8.8 0 16 7.2 16 16s-7.1 16-16 16-16-7.2-16-16 7.1-16 16-16zm-133.8 18.8c-13.2 0-24-10.7-24-24 0-13.2 10.7-24 24-24s24 10.7 24 24c-.1 13.2-10.8 24-24 24zm107.2 165c0 8.8-7.1 16-16 16s-16-7.2-16-16 7.1-16 16-16 16 7.2 16 16zm-121-7.5c-10.3 0-18.6-8.3-18.6-18.6s8.3-18.6 18.6-18.6 18.6 8.3 18.6 18.6-8.3 18.6-18.6 18.6zm76.4-60.4c-19.1 0-34.6-15.5-34.6-34.6s15.5-34.6 34.6-34.6 34.6 15.5 34.6 34.6-15.5 34.6-34.6 34.6zm79.2 29.3c-13.2 0-24-10.7-24-24 0-13.2 10.7-24 24-24s24 10.7 24 24c-.1 13.3-10.8 24-24 24z" fill="#00f7ea" stroke-width="5"/></g></svg>