<svg enable-background="new 0 0 260.308 78.658" height="78.658" viewBox="0 0 260.308 78.658" width="260.308" xmlns="http://www.w3.org/2000/svg"><g fill="#fff"><path d="m126.154 5.329h20v12h-20z"/><path d="m38.989 12.764c1.728.192 3.39.364 4.985.515 1.594.154 3.127.229 4.599.229.419 0 .82-.09 1.203-.272.382-.18.716-.424 1.003-.73.287-.305.516-.639.688-1.003.172-.362.258-.735.258-1.117 0-.61-.186-1.165-.559-1.662-.373-.496-1.017-.839-1.934-1.031-3.954-.706-7.75-1.193-11.389-1.461-3.64-.267-7.121-.402-10.445-.402-2.445 0-4.813.057-7.105.172-2.293.114-4.441.325-6.448.63-2.005.307-3.844.73-5.516 1.275-1.671.544-3.103 1.238-4.297 2.077-1.194.841-2.12 1.858-2.779 3.051-.659 1.195-.989 2.593-.989 4.198.038.688.229 1.299.573 1.833.287.458.745.88 1.375 1.261.631.382 1.519.573 2.665.573s2.029-.187 2.65-.559c.621-.373 1.075-.783 1.361-1.232.286-.448.453-.864.501-1.247.047-.381.071-.592.071-.63 0-.725.187-1.355.559-1.892.373-.534.878-.993 1.519-1.375.64-.381 1.385-.696 2.235-.946.85-.248 1.766-.453 2.75-.616.984-.162 1.996-.291 3.038-.387 1.041-.095 2.067-.181 3.08-.258-1.166 3.63-2.25 6.925-3.252 9.885-1.003 2.961-1.934 5.669-2.793 8.123-.859 2.456-1.644 4.705-2.35 6.748-.707 2.044-1.337 3.978-1.891 5.802-.555 1.824-1.036 3.577-1.447 5.258-.411 1.682-.741 3.391-.989 5.128-.114.44-.171.842-.171 1.203 0 1.147.353 1.978 1.06 2.494s1.604.772 2.694.772c.362 0 .754-.109 1.174-.328.42-.22.826-.531 1.218-.933.391-.401.745-.873 1.06-1.418s.549-1.141.702-1.791c.362-1.412.826-3.103 1.39-5.07.563-1.968 1.17-4.112 1.819-6.433.649-2.322 1.323-4.757 2.02-7.307.697-2.551 1.365-5.11 2.006-7.679.64-2.569 1.227-5.086 1.762-7.551.534-2.464.974-4.765 1.318-6.905 1.948.097 3.84.239 5.673.43 1.834.196 3.615.387 5.345.578z"/><path d="m256.705 38.809c-.764.479-1.604.908-2.521 1.29-.916.382-1.805.572-2.664.572-.306 0-.598-.057-.874-.172-.277-.114-.525-.309-.745-.587-.22-.276-.397-.645-.53-1.104-.134-.458-.201-1.031-.201-1.718 0-.401.049-.903.144-1.505.096-.601.201-1.222.315-1.861.115-.639.22-1.251.315-1.834.096-.582.144-1.036.144-1.361 0-.42-.077-.797-.229-1.133-.153-.333-.358-.615-.616-.845-.257-.229-.559-.405-.902-.53-.344-.123-.697-.186-1.06-.186-1.052 0-1.978.282-2.78.845-.802.564-1.519 1.257-2.148 2.078-.631.822-1.185 1.633-1.662 2.579-.478.944-.907 1.493-1.289 2.493h-.315c-.039-1-.11-1.819-.11-2.822 0-1.002 0-1.856 0-2.564 0-.592.014-1.06-.016-1.404-.029-.344-.098-.606-.23-.788-.136-.18-.333-.295-.609-.343-.277-.048-.662-.072-1.158-.072-.439 0-.806.024-1.102.072s-.542.143-.743.286c-.199.144-.378.34-.53.588-.152.249-.306.583-.457 1.002-.25.631-.498 1.433-.745 2.407-.249.974-.498 2.044-.746 3.209s-.481 2.392-.701 3.681c-.215 1.26-.401 2.496-.562 3.709-.637.582-1.369 1.188-2.204 1.821-1.07.812-2.206 1.562-3.409 2.249-1.203.688-2.441 1.261-3.711 1.72-1.271.458-2.478.688-3.624.688-.363 0-.702-.038-1.018-.114-.315-.077-.615-.21-.902-.401-.286-.19-.569-.459-.846-.803s-.558-.773-.845-1.29c1.662-.457 3.204-1.097 4.628-1.92 1.422-.82 2.649-1.756 3.681-2.808 1.032-1.05 1.838-2.167 2.422-3.353.583-1.183.873-2.367.873-3.552 0-1.088-.189-2.071-.572-2.951-.383-.879-.913-1.628-1.59-2.25-.679-.621-1.476-1.103-2.394-1.447-.916-.344-1.909-.515-2.979-.515-1.317 0-2.517.234-3.596.702-1.08.469-2.054 1.099-2.923 1.891-.869.793-1.628 1.71-2.277 2.75-.65 1.042-1.188 2.135-1.619 3.281-.43 1.146-.749 2.316-.959 3.511-.211 1.193-.315 2.326-.315 3.395 0 .029.003.058.003.087-.691.585-1.412 1.145-2.167 1.675-.773.545-1.558 1.047-2.349 1.504-.794.459-1.548.855-2.265 1.189-.716.336-1.375.598-1.977.788-.602.191-1.104.287-1.504.287-.65 0-1.238-.101-1.762-.301-.526-.201-.971-.524-1.333-.975-.363-.448-.641-1.025-.831-1.733-.191-.706-.287-1.576-.287-2.608 0-.4.004-.838.015-1.317.009-.478.023-.974.043-1.49.019-.515.038-1.035.058-1.562.019-.524.037-1.035.057-1.533.058-1.146.124-2.31.201-3.495.478-.592.997-1.176 1.562-1.912.563-.734 1.121-2.169 1.677-2.169h11.002c.458 0 .878-.289 1.261-.71.382-.42.573-1.005.573-1.675 0-.553-.086-1.031-.258-1.396-.172-.362-.449-.562-.831-.581-.325-.019-.735-.042-1.232-.063-.496-.019-1.031-.041-1.604-.06-.573-.02-1.165-.044-1.776-.073-.611-.028-1.18-.052-1.705-.071s-.988-.034-1.39-.043c-.4-.01-.687-.024-.859-.045.688-1.088 1.342-2.186 1.963-3.294.62-1.107 1.16-2.2 1.619-3.281.458-1.079.82-2.139 1.089-3.18.268-1.04.4-2.029.4-2.966 0-1.107-.128-2.172-.386-3.195-.259-1.021-.627-1.914-1.104-2.679-.478-.763-1.057-1.375-1.733-1.834-.679-.458-1.429-.688-2.25-.688-1.279 0-2.502.569-3.668 1.705-1.165 1.138-2.239 2.646-3.222 4.527-.985 1.883-1.873 4.031-2.666 6.447-.793 2.417-1.447 4.914-1.962 7.492-.191.039-.54.053-1.046.043-.506-.008-1.08-.022-1.72-.043-.64-.018-1.309-.022-2.005-.014-.698.01-1.338.063-1.92.158-.583.096-1.061.244-1.433.444-.373.2-.56.493-.56.874 0 .172.011.378.029.616.02.239.086.468.2.688.115.221.297.412.545.573.249.163.601.272 1.06.33 1.031.114 1.82.21 2.364.286.544.078.993.15 1.347.215.354.067.688.135 1.003.201.315.067.759.139 1.332.215-.172 1.281-.306 2.57-.401 3.868-.096 1.299-.144 2.522-.144 3.668 0 2.636.158 5.018.458 7.177-.455.293-.908.56-1.36.803-.907.486-1.79.931-2.649 1.332-.86.401-1.687.788-2.479 1.16-.792.373-1.533.789-2.22 1.246 0-1.222-.043-2.281-.129-3.181-.086-.896-.201-1.689-.345-2.377-.143-.688-.29-1.294-.444-1.82-.152-.523-.3-1.021-.443-1.49-.143-.467-.258-.945-.344-1.432-.086-.488-.129-1.026-.129-1.619.057-.209.281-.53.674-.959.391-.43.806-.903 1.246-1.418.439-.516.84-1.05 1.203-1.604.362-.553.545-1.061.545-1.519 0-.229-.02-.501-.058-.817-.039-.315-.172-.616-.401-.902s-.593-.53-1.089-.731c-.497-.201-1.204-.3-2.12-.3-.555 0-1.056.081-1.504.243-.449.164-.859.373-1.232.631s-.712.55-1.017.874c-.307.326-.584.66-.832 1.003-1.223 1.529-2.216 2.804-2.979 3.825-.764 1.023-1.414 1.887-1.948 2.594-.535.708-.999 1.318-1.39 1.833-.392.516-.826 1.027-1.304 1.533-.479.508-1.051 1.066-1.72 1.677-.668.612-1.538 1.375-2.606 2.292-.154.135-.384.315-.688.544-.305.229-.611.498-.916.803-.307.307-.574.654-.802 1.046-.229.393-.345.817-.345 1.274 0 .117.004.227.011.331-1.172.547-2.45.994-3.851 1.331-1.586.383-3.342.573-5.271.573l-.172-.602c1.719-.763 3.204-1.627 4.455-2.593 1.25-.965 2.283-2 3.095-3.109.812-1.106 1.408-2.268 1.791-3.481.381-1.211.572-2.468.572-3.767 0-1.623-.22-2.994-.658-4.112-.44-1.117-1.042-2.028-1.806-2.736-.765-.707-1.652-1.218-2.664-1.533-1.013-.315-2.103-.472-3.267-.472-1.566 0-2.904.286-4.012.859s-2.059 1.346-2.851 2.32c-.793.975-1.443 2.121-1.949 3.438s-.927 2.713-1.261 4.183c-.334 1.472-.682 2.99-.9 4.557-.033.24-.169.475-.169.713v-.484c-1 .516-1.288 1.138-2.108 1.862-.821.727-1.626 1.429-2.487 2.106-.859.679-1.691 1.257-2.532 1.733-.841.479-1.595.716-2.283.716-.593 0-.98-.252-1.17-.759-.191-.506-.285-1.189-.285-2.049 0-.879.098-1.866.288-2.965s.43-2.226.717-3.382c.287-1.154.591-2.311.917-3.467.324-1.154.63-2.234.916-3.237.287-1.003.525-1.9.717-2.694.19-.792.287-1.398.287-1.82 0-.496-.144-.892-.43-1.189-.287-.295-.832-.443-1.633-.443-.44 0-.931.052-1.476.157-.545.106-1.07.269-1.576.487-.507.221-.96.507-1.361.86s-.668.779-.803 1.275c-.343 1.433-.74 2.999-1.188 4.699-.449 1.7-.874 3.405-1.275 5.114-.158.677-.299 1.336-.439 1.995-.35.342-.717.681-1.108 1.014-.707.602-1.447 1.175-2.221 1.719-.773.545-1.558 1.047-2.35 1.504-.793.459-1.547.855-2.264 1.189-.716.336-1.375.598-1.977.788-.602.191-1.104.287-1.504.287-.65 0-1.237-.101-1.762-.301-.526-.201-.97-.524-1.332-.975-.364-.448-.641-1.025-.831-1.733-.191-.706-.287-1.576-.287-2.608 0-.4.004-.838.014-1.317.009-.478.023-.974.043-1.49.019-.515.038-1.035.058-1.562.019-.524.038-1.035.057-1.533.057-1.146.124-2.31.2-3.495.477-.592.998-1.176 1.562-1.912.563-.734 1.122-2.169 1.676-2.169h11.003c.459 0 .878-.289 1.261-.71.382-.42.573-1.005.573-1.675 0-.553-.086-1.031-.258-1.396-.172-.362-.45-.562-.831-.581-.326-.019-.736-.042-1.233-.063-.497-.019-1.031-.041-1.604-.06-.573-.02-1.166-.044-1.776-.073-.612-.028-1.18-.052-1.705-.071s-.988-.034-1.39-.043c-.4-.01-.688-.024-.859-.045.688-1.088 1.341-2.186 1.963-3.294.62-1.107 1.16-2.2 1.619-3.281.458-1.079.82-2.139 1.088-3.18.267-1.04.401-2.029.401-2.966 0-1.107-.129-2.172-.387-3.195-.258-1.021-.626-1.914-1.103-2.679-.479-.763-1.057-1.375-1.734-1.834-.678-.458-1.428-.688-2.249-.688-1.281 0-2.503.569-3.667 1.705-1.166 1.138-2.24 2.646-3.224 4.527-.984 1.883-1.873 4.031-2.665 6.447-.793 2.417-1.447 4.914-1.962 7.492-.191.039-.54.053-1.046.043-.42-.007-.896-.019-1.407-.035.1-.203.205-.405.304-.61.917-1.891 1.724-3.776 2.421-5.659.697-1.881 1.251-3.753 1.662-5.616.411-1.862.616-3.69.616-5.487 0-.802-.062-1.59-.186-2.364-.125-.773-.339-1.466-.645-2.078-.306-.61-.727-1.103-1.261-1.476-.535-.372-1.213-.559-2.034-.559-1.204 0-2.389.364-3.553 1.089-1.166.726-2.283 1.725-3.352 2.994-1.071 1.271-2.092 2.761-3.066 4.47-.974 1.711-1.877 3.549-2.708 5.516-.831 1.968-1.576 4.021-2.235 6.16-.659 2.14-1.228 4.27-1.704 6.389-.479 2.121-.842 4.179-1.089 6.175-.011.085-.017.166-.028.25-.952-.891-1.959-1.701-3.023-2.428-1.386-.946-2.871-1.7-4.456-2.264-1.586-.563-3.286-.845-5.101-.845-2.12 0-4.03.386-5.73 1.16-1.701.773-3.138 1.834-4.312 3.181-.559.64-1.05 1.337-1.486 2.086-.021-.021-.04-.045-.061-.066-1.194-1.222-2.483-2.306-3.868-3.251-1.386-.946-2.87-1.7-4.456-2.264-1.585-.563-3.285-.845-5.1-.845-2.12 0-4.03.386-5.73 1.16-1.701.773-3.138 1.834-4.312 3.181s-2.077 2.933-2.708 4.756c-.63 1.825-.946 3.788-.946 5.888 0 1.529.176 3.037.53 4.527s.912 2.828 1.676 4.011c.764 1.186 1.743 2.146 2.937 2.88 1.193.736 2.631 1.104 4.312 1.104 1.165 0 2.264-.2 3.295-.602 1.032-.401 1.981-.945 2.851-1.634.869-.688 1.643-1.498 2.32-2.435s1.251-1.938 1.719-3.009c.468-1.069.826-2.178 1.075-3.324.248-1.146.372-2.282.372-3.409s-.139-2.308-.415-3.539c-.277-1.232-.692-2.401-1.247-3.509l.229-.315c.688.458 1.509 1.027 2.464 1.705.955.679 1.924 1.399 2.908 2.163.217.169.42.341.631.51-.422 1.535-.646 3.158-.646 4.877 0 1.529.177 3.037.53 4.527.354 1.49.913 2.828 1.676 4.011.764 1.186 1.743 2.146 2.937 2.88 1.193.736 2.631 1.104 4.312 1.104 1.165 0 2.264-.2 3.294-.602 1.032-.401 1.981-.945 2.852-1.634.869-.688 1.643-1.498 2.321-2.435.677-.937 1.251-1.938 1.719-3.009.468-1.069.826-2.178 1.074-3.324s.373-2.282.373-3.409-.14-2.308-.416-3.539c-.277-1.232-.693-2.401-1.246-3.509l.229-.315c.688.458 1.508 1.027 2.463 1.705.955.679 1.924 1.399 2.908 2.163.312.243.61.49.912.736-.002.165-.009.333-.009.496 0 2.216.187 4.333.559 6.346.372 2.017.888 3.788 1.547 5.315.659 1.529 1.433 2.747 2.321 3.653.888.908 1.848 1.361 2.879 1.361.648 0 1.347-.091 2.091-.272.745-.181 1.509-.424 2.292-.73s1.562-.653 2.335-1.046c.773-.391 1.523-.788 2.249-1.188 1.323-.76 2.658-1.608 4.005-2.538.088.221.17.452.265.661.745 1.652 1.671 2.918 2.779 3.796 1.107.879 2.388 1.318 3.84 1.318.706 0 1.494-.134 2.364-.401.869-.266 1.862-.667 2.979-1.203 1.118-.534 2.393-1.204 3.825-2.006.948-.53 1.992-1.125 3.115-1.773.023.711.097 1.381.251 1.988.182.716.481 1.324.902 1.82.42.496.97.883 1.647 1.16.678.277 1.514.415 2.507.415 1.108 0 2.278-.2 3.51-.602s2.44-.902 3.625-1.505c1.11-.563 2.143-1.184 3.111-1.849-.79 1.34-1.534 2.659-2.223 3.955-.554 1.05-1.093 2.134-1.619 3.251-.524 1.119-.998 2.218-1.418 3.296-.42 1.079-.753 2.11-1.002 3.095-.248.983-.373 1.866-.373 2.65 0 1.356.091 2.641.272 3.854.183 1.214.488 2.273.917 3.181.43.907 1.008 1.629 1.733 2.163.727.534 1.633.803 2.722.803 1.356 0 2.666-.545 3.926-1.634 1.261-1.089 2.378-2.636 3.353-4.642.974-2.006 1.815-4.427 2.399-7.264.58-2.836.938-5.992.938-9.47v-.516c2 .229 2.777.426 3.703.588.928.162 1.606.292 2.104.387.496.096.829.163 1.029.201.2.037.36.057.493.057 1.108 0 2.226-.157 3.362-.473s2.221-.735 3.252-1.261c.83-.422 1.592-.916 2.316-1.451.066.128.128.257.201.376.459.728 1.056 1.313 1.792 1.763.735.45 1.59.779 2.564.989s2.024.313 3.151.313c1.566 0 3.224-.176 4.972-.529 1.747-.352 3.476-.835 5.186-1.446 1.709-.61 3.343-1.318 4.899-2.121 1.508-.777 2.837-1.608 3.995-2.493.154.424.315.833.489 1.219.746 1.652 1.672 2.918 2.779 3.796 1.107.879 2.388 1.318 3.84 1.318.706 0 1.494-.134 2.363-.401.869-.266 1.863-.667 2.98-1.203 1.117-.534 2.393-1.204 3.825-2.006 1.231-.69 2.621-1.484 4.15-2.373.396.868.876 1.669 1.465 2.388.898 1.099 2.021 1.972 3.367 2.621 1.347.65 2.917.975 4.714.975 1.146 0 2.277-.129 3.396-.387 1.117-.258 2.195-.603 3.236-1.032 1.042-.429 2.035-.921 2.981-1.476.944-.553 1.827-1.117 2.649-1.689.213-.15.419-.312.628-.468.021.435.053.865.103 1.284.086.717.258 1.356.516 1.92.259.563.626 1.013 1.104 1.346.477.335 1.107.502 1.891.502.345 0 .66-.062.945-.187.287-.123.554-.338.803-.645.248-.306.492-.701.73-1.189.238-.487.491-.776.76-1.521l5.129-13.971h.458c.152 1 .354 2.065.602 3.241.248 1.173.63 2.07 1.146 3.016s1.212 1.629 2.092 2.211c.878.583 2.033.834 3.467.834.803 0 1.59-.14 2.364-.379.772-.237 1.519-.544 2.234-.898.717-.353 1.39-.736 2.02-1.138.631-.4 1.194-.766 1.691-1.091l.43-6.706c-.857.707-1.736 1.337-2.633 1.89zm-62.506-19.197c.411-1.642.851-3.146 1.318-4.513.468-1.365.955-2.487 1.462-3.367.505-.878 1.007-1.318 1.504-1.318.362 0 .645.077.846.229.2.153.348.344.444.573.095.229.157.473.187.73.028.258.043.493.043.702 0 .612-.163 1.395-.488 2.35s-.736 1.982-1.231 3.08c-.498 1.099-1.056 2.216-1.677 3.352-.621 1.138-1.218 2.192-1.791 3.167-.306-.038-.602-.072-.888-.1-.286-.029-.573-.062-.859-.101.343-1.546.72-3.141 1.13-4.784zm-87.59 0c.411-1.642.849-3.146 1.318-4.513.468-1.365.955-2.487 1.462-3.367.505-.878 1.006-1.318 1.504-1.318.362 0 .645.077.845.229.201.153.348.344.444.573s.158.473.187.73c.029.258.043.493.043.702 0 .612-.163 1.395-.487 2.35-.325.955-.736 1.982-1.232 3.08-.497 1.099-1.056 2.216-1.676 3.352-.621 1.138-1.218 2.192-1.791 3.167-.306-.038-.602-.072-.888-.1-.287-.029-.573-.062-.86-.101.343-1.546.72-3.141 1.131-4.784zm-62.034 23.424c-.277 1.213-.645 2.32-1.103 3.322-.459 1.004-.994 1.834-1.604 2.493-.612.659-1.242.988-1.892.988-.745 0-1.385-.157-1.919-.473-.535-.314-.965-.734-1.29-1.261-.325-.524-.564-1.14-.716-1.848-.153-.706-.229-1.462-.229-2.264 0-1.164.153-2.378.458-3.64.305-1.26.725-2.41 1.26-3.451s1.156-1.896 1.863-2.565c.706-.667 1.451-1.002 2.235-1.002.592 0 1.098.163 1.519.487.42.325.763.765 1.032 1.318.267.554.467 1.209.602 1.962.133.756.201 1.572.201 2.451-.001 1.11-.14 2.27-.417 3.483zm25.015 0c-.277 1.213-.645 2.32-1.104 3.322-.458 1.004-.994 1.834-1.604 2.493-.612.659-1.242.988-1.891.988-.746 0-1.386-.157-1.92-.473-.535-.314-.965-.734-1.289-1.261-.326-.524-.564-1.14-.717-1.848-.153-.706-.229-1.462-.229-2.264 0-1.164.152-2.378.458-3.64.305-1.26.726-2.41 1.261-3.451.534-1.041 1.155-1.896 1.862-2.565.706-.667 1.451-1.002 2.234-1.002.592 0 1.099.163 1.519.487.42.325.764.765 1.032 1.318.267.554.468 1.209.602 1.962.133.756.2 1.572.2 2.451.001 1.11-.138 2.27-.414 3.483zm18.495-16.276c.267-1.938.63-3.825 1.089-5.659.458-1.833.979-3.561 1.562-5.186.582-1.624 1.193-3.046 1.833-4.27.64-1.222 1.279-2.192 1.92-2.908.64-.716 1.236-1.075 1.791-1.075.152 0 .244.196.272.587.028.393.043.866.043 1.418-.172 1.739-.573 3.616-1.203 5.63-.631 2.016-1.375 4.036-2.235 6.061s-1.773 3.993-2.737 5.902c-.965 1.911-1.876 3.63-2.736 5.158-.001-1.832.133-3.717.401-5.658zm7.449 18.84c-.516.345-1.051.684-1.604 1.017-.554.336-1.094.631-1.619.89-.526.257-1.022.464-1.49.615-.468.153-.884.229-1.247.229-.153 0-.315-.109-.487-.33-.172-.219-.335-.515-.487-.888-.153-.373-.324-.793-.429-1.261-.104-.467-.198-.95-.198-1.447v-.401c0-.381.174-.773.27-1.174s.211-.778.307-1.133c.096-.353.207-.682.312-.988.105-.305.21-.553.306-.744.878-1.719 1.823-3.482 2.826-5.287 1.002-1.805 2.002-3.639 2.996-5.501.189-.355.371-.714.558-1.07.531.076.972.146 1.32.21.353.067.688.135 1.002.201.315.067.76.139 1.333.215-.172 1.281-.306 2.57-.401 3.868-.096 1.299-.143 2.522-.143 3.668 0 2.457.137 4.694.397 6.738-1.224.964-2.399 1.825-3.522 2.573zm42.693 10.515c-.02.478-.043 1.074-.072 1.791-.028.716-.071 1.59-.129 2.621-.039.592-.062 1.261-.071 2.006-.011.745-.034 1.509-.072 2.292-.039.784-.086 1.547-.144 2.293-.057.744-.153 1.414-.286 2.006-.134.591-.306 1.063-.516 1.418-.211.354-.478.529-.803.529-.362 0-.668-.133-.916-.4-.249-.268-.45-.573-.603-.917-.153-.345-.262-.688-.329-1.031s-.101-.592-.101-.745c0-.248.053-.654.157-1.218s.248-1.232.431-2.006c.181-.773.396-1.609.645-2.507.248-.898.524-1.795.831-2.693.305-.898.631-1.763.974-2.594.344-.83.697-1.561 1.061-2.191-.02.363-.039.812-.057 1.346zm5.931-8.767c0-1.126.032-2.258.101-3.396.066-1.136.181-2.229.344-3.281.162-1.049.373-2.034.63-2.951.258-.917.582-1.709.975-2.378.392-.667.854-1.198 1.39-1.59.534-.392 1.155-.588 1.861-.588.631 0 1.123.178 1.477.53.353.354.602.779.745 1.275.143.497.2 1.027.172 1.59-.029.564-.092 1.056-.187 1.476-.229.898-.535 1.776-.917 2.635-.383.86-.874 1.691-1.476 2.494-.602.802-1.317 1.557-2.148 2.263-.832.709-1.822 1.347-2.967 1.921zm27.363.615c-.115.545-.315 1.023-.603 1.433-.285.412-.673.741-1.16.989-.486.249-1.103.373-1.849.373-.611 0-1.155-.144-1.632-.431-.479-.286-.899-.602-1.262-.945s-.683-.659-.959-.945c-.047-.047-.09-.084-.135-.124l-.042-.886 6.781-6.756c.095.308.205.674.329 1.104s.238.889.344 1.376c.104.486.19.998.258 1.533.066.535.101 1.06.101 1.575.001.594-.057 1.16-.171 1.704zm42.693-7.608c.037-.59.118-1.203.243-1.833.124-.631.306-1.255.545-1.877.238-.621.553-1.174.945-1.662.391-.487.878-.882 1.461-1.188.583-.305 1.284-.459 2.106-.459.458 0 .845.277 1.16.831.315.555.473 1.262.473 2.121 0 .611-.239 1.242-.717 1.891-.477.65-1.064 1.252-1.762 1.806-.697.554-1.452 1.009-2.264 1.36-.812.354-1.561.529-2.249.529.001-.419.02-.924.059-1.519z"/></g><path d="m149.144 2.829h-22.005c-1.214 0-2.392.959-2.627 2.174l-3.179 13.415c-.236 1.216.557 2.412 1.773 2.412h2.201l2.833 4.401 5.114-4.401h11.857c1.216 0 2.392-1.209 2.629-2.425l3.179-13.288c.235-1.218-.56-2.288-1.775-2.288zm-15.343 10.306c0 1.714-1.702 2.69-3.504 2.69-.988 0-1.852-.212-2.202-.476l.588-1.626c.338.15.901.375 1.614.375.826 0 1.401-.351 1.401-.951 0-.625-.525-.938-1.501-.938h-.263l.3-1.564h.213c.775 0 1.602-.25 1.602-.889 0-.325-.275-.588-.901-.588-.613 0-1.151.15-1.476.325l-.163-1.577c.513-.275 1.351-.475 2.14-.475 1.451 0 2.564.688 2.564 1.927 0 .988-.75 1.727-1.701 1.989l-.013.025c.764.214 1.302.852 1.302 1.753zm2.142 2.678c-.688 0-1.113-.488-1.113-1.176 0-.738.563-1.414 1.326-1.414.701 0 1.151.488 1.151 1.189 0 .85-.588 1.401-1.364 1.401zm4.844.012c-1.727 0-2.34-1.351-2.34-2.865 0-2.64 1.264-5.518 3.729-5.518 1.802 0 2.327 1.426 2.327 2.79 0 2.515-1.139 5.593-3.716 5.593z" fill="#0383d0"/><path d="m141.951 9.094c-1.039 0-1.502 3.116-1.502 3.966 0 .513.088 1.114.588 1.114 1.026 0 1.464-3.216 1.464-4.029 0-.501-.1-1.051-.55-1.051z" fill="#0383d0"/></svg>