<svg enable-background="new 0 0 243.8 84" viewBox="0 0 243.8 84" xmlns="http://www.w3.org/2000/svg"><path d="m81.4 75.5c0 3.9 3.2 7 7 7h67c3.9 0 7-3.1 7-7v-67c0-3.8-3.1-7-7-7h-67c-3.8 0-7 3.1-7 7zm103.1-65.9c-3.9 0-7 3.2-7 7v50.8c0 3.8 3.1 7 7 7h50.8c3.9 0 7-3.2 7-7v-50.8c0-3.9-3.1-7-7-7h-50.8z" fill="#fdc908"/><path d="m235.3 75.9h-50.8c-4.7 0-8.5-3.8-8.5-8.5v-50.8c0-4.7 3.8-8.5 8.5-8.5h50.8c4.7 0 8.5 3.8 8.5 8.5v50.8c0 4.7-3.8 8.5-8.5 8.5zm-50.8-64.8c-3 0-5.5 2.5-5.5 5.5v50.8c0 3 2.5 5.5 5.5 5.5h50.8c3 0 5.5-2.5 5.5-5.5v-50.8c0-3-2.5-5.5-5.5-5.5z" fill="#fba413"/><path d="m8.5 9.6c-3.8 0-7 3.2-7 7v50.8c0 3.8 3.2 7 7 7h50.8c3.8 0 7-3.2 7-7v-50.8c0-3.9-3.2-7-7-7h-50.8z" fill="#fdc908"/><path d="m59.3 75.9h-50.8c-4.7 0-8.5-3.8-8.5-8.5v-50.8c0-4.7 3.8-8.5 8.5-8.5h50.8c4.7 0 8.5 3.8 8.5 8.5v50.8c0 4.7-3.8 8.5-8.5 8.5zm-50.8-64.8c-3 0-5.5 2.5-5.5 5.5v50.8c0 3 2.5 5.5 5.5 5.5h50.8c3 0 5.5-2.5 5.5-5.5v-50.8c0-3-2.5-5.5-5.5-5.5zm146.9 72.9h-67c-4.7 0-8.5-3.8-8.5-8.5v-67c0-4.7 3.8-8.5 8.5-8.5h67c4.7 0 8.5 3.8 8.5 8.5v67c0 4.7-3.8 8.5-8.5 8.5zm-67-81c-3 0-5.5 2.5-5.5 5.5v67c0 3 2.5 5.5 5.5 5.5h67c3 0 5.5-2.5 5.5-5.5v-67c0-3-2.5-5.5-5.5-5.5z" fill="#fba413"/><path d="m127.7 42 17.6-17.6c.8-.8 1.2-1.8 1.2-2.9s-.4-2.1-1.2-2.9c-1.6-1.6-4.2-1.6-5.8 0l-17.6 17.6-17.6-17.6c-1.6-1.6-4.2-1.6-5.8 0s-1.6 4.2 0 5.8l17.6 17.6-17.5 17.6c-1.6 1.6-1.6 4.2 0 5.8s4.2 1.6 5.8 0l17.6-17.6 17.6 17.6c1.6 1.6 4.2 1.6 5.8 0 .8-.8 1.2-1.8 1.2-2.9s-.4-2.1-1.2-2.9z" fill="#fff"/><g fill="#fba413"><path d="m214.7 40.8-1.1 1.2 1.1 1.2 1-1-.2-.2.2-.2zm1.387-1.317 1.343-1.343.99.99-1.343 1.343zm2.723-2.69 1.343-1.343.99.99-1.343 1.343zm-3.257-5.991.99.99-1.343 1.343-.99-.99zm-2.761 2.652.99.99-1.343 1.343-.99-.99zm8.212-8.17.99.99-1.343 1.343-.99-.99zm-2.69 2.724.99.99-1.343 1.343-.99-.99zm10.586-2.108 1.4.1v-.4c0-.7-.2-1.3-.5-1.9l-1.2.7c.2.4.3.8.3 1.2zm-2.303 5.077-1.343 1.343-.99-.99 1.343-1.343zm-2.097-7.177.2-.2-.9-1.1-.3.3-1.1 1.1 1 1zm2.5 4.8 1 1 1.1-1.1.3-.3-1.1-.9-.2.2zm-5.53 5.442 1.343-1.344.99.99-1.343 1.344zm6.03-10.642.7-1.2c-.7-.4-1.5-.5-2.3-.5l.1 1.4c.6-.1 1.1 0 1.5.3zm-17.6 13-.1-.2-1 1 1.1 1.2 1.2-1.2-1-1zm-19.2-8 1.1 1.1 1-1-1.1-1.1-.2-.2-1.1.9c.2.1.2.2.3.3zm3.1-5.3.1-1.4c-.8-.1-1.6.1-2.3.4l.7 1.2c.5-.2 1-.3 1.5-.2zm-2.8 2.8v-.2c0-.4.1-.8.3-1.2l-1.2-.7c-.3.6-.5 1.2-.5 1.9v.4zm10.585 2.126 1.344 1.343-.99.99-1.344-1.343zm-6.021 3.235-.99.99-1.343-1.343.99-.99zm.936-6.261 1-1-1.1-1.1-.3-.3-.9 1.1.2.2zm4.899 14.065.99-.99 1.343 1.343-.99.99zm2.919-8.355 1.343 1.343-.99.99-1.343-1.343zm-8.37 2.979.99-.99 1.343 1.343-.99.99zm11.456 2.104-1.343-1.343.99-.99 1.343 1.343zm-8.533-10.463 1.343 1.343-.99.99-1.343-1.343zm-.162 11.012.99-.99 1.343 1.343-.99.99zm6.391 6.858 1.2-1.2-1.2-1.2-1 1 .2.2-.2.2zm-5.054 3.099.99.99-1.343 1.343-.99-.99zm2.766-2.797.99.99-1.343 1.343-.99-.99zm4.227 7.019-.99-.99 1.343-1.343.99.99zm-11.639 9.679-.2.2.9 1.1.3-.3 1.1-1.1-1-1zm6.125-4.232-.99-.99 1.343-1.343.99.99zm-2.609 2.718-.99-.99 1.343-1.343.99.99zm5.366-5.442-.99-.99 1.343-1.343.99.99zm-11.382 2.156-1-1-1.1 1.1-.3.3 1.1.9.2-.2zm.39-2.353 1.343-1.343.99.99-1.343 1.343zm-2.29 5.053-1.4-.1v.4c0 .6.2 1.3.5 1.9l1.2-.7c-.2-.4-.3-.8-.3-1.2zm1.3 2.5-.7 1.2c.6.3 1.2.5 1.9.5h.4l-.1-1.4c-.5.1-1 0-1.5-.3zm4.985-11.648.99.99-1.343 1.343-.99-.99zm11.515-2.152 1 1 .1-.2.2.2 1-1-1.2-1.2zm13.735 2.244 1.343 1.343-.99.99-1.343-1.343zm1.683 3.669.99-.99 1.343 1.343-.99.99zm-.918 6.287-1 1 1.1 1.1.3.3.9-1.1-.2-.2zm5.6-.9v.2c0 .4-.1.8-.3 1.2l1.2.7c.3-.6.5-1.2.5-1.9v-.4zm.2-2.5-1.1-1.1-1 1 1.1 1.1.2.2 1.1-.9zm-3.1 5.3-.1 1.4h.4c.6 0 1.3-.2 1.9-.5l-.7-1.2c-.4.3-1 .4-1.5.3zm-7.723-4.941-1.343-1.344.99-.99 1.343 1.344zm-1.188-12.437 1.343 1.343-.99.99-1.343-1.343zm-4.318 6.988-1.343-1.343.99-.99 1.343 1.343zm2.794 2.686-1.343-1.343.99-.99 1.343 1.343zm4.247-6.983 1.343 1.343-.99.99-1.343-1.343zm1.194 12.499-1.343-1.343.99-.99 1.343 1.343z"/><path d="m38.7 40.8-1.1 1.2 1.1 1.2 1-1-.2-.2.2-.2zm3.614-12.788.99.99-1.343 1.343-.99-.99zm-2.227 11.467 1.343-1.343.99.99-1.343 1.343zm2.723-2.69 1.343-1.343.99.99-1.343 1.343zm-6.018-3.331.99.99-1.343 1.343-.99-.99zm2.761-2.652.99.99-1.343 1.343-.99-.99zm11.947-7.406.7-1.2c-.7-.4-1.5-.5-2.3-.5l.1 1.4c.6-.1 1.1 0 1.5.3zm-.908 7.585-1.343 1.343-.99-.99 1.343-1.343zm.408-2.385 1 1 1.1-1.1.3-.3-1.1-.9-.2.2zm-5.996-3.311.99.99-1.343 1.343-.99-.99zm3.496-1.489.2-.2-.9-1.1-.3.3-1.1 1.1 1 1zm-3.036 10.231 1.343-1.344.99.99-1.343 1.344zm7.336-8.131 1.4.1v-.4c0-.7-.2-1.3-.5-1.9l-1.2.7c.2.4.3.8.3 1.2.1.1.1.2 0 .3zm-18.9 10.5-.1-.2-1 1 1.1 1.2 1.2-1.2-1-1zm-14.348-5.139-.99.99-1.343-1.343.99-.99zm-1.752-8.161.1-1.4c-.8-.1-1.6.1-2.3.4l.7 1.2c.5-.2 1-.3 1.5-.2zm5.071 2.234 1.343 1.343-.99.99-1.343-1.343zm-7.871.566v-.2c0-.4.1-.8.3-1.2l-1.2-.7c-.3.6-.5 1.2-.5 1.9v.4zm7.712 10.443.99-.99 1.343 1.343-.99.99zm-2.761-2.653.99-.99 1.343 1.343-.99.99zm.549-8.69 1-1-1.1-1.1-.3-.3-.9 1.1.2.2zm-5.8 3.4 1.1 1.1 1-1-1.1-1.1-.2-.2-1.1.9c.2.1.2.2.3.3zm10.703 10.665.99-.99 1.343 1.343-.99.99zm5.993-3.276-1.343-1.343.99-.99 1.343 1.343zm-3.078-5.075 1.343 1.343-.99.99-1.343-1.343zm-2.726-2.69 1.344 1.343-.99.99-1.344-1.343zm3.508 15.176 1.2-1.2-1.2-1.2-1 1 .2.2-.2.2zm-5.051 3.1.99.99-1.343 1.343-.99-.99zm2.761-2.794.99.99-1.343 1.343-.99-.99zm-7.41 16.694-.2.2.9 1.1.3-.3 1.1-1.1-1-1zm6.122-4.24-.99-.99 1.343-1.343.99.99zm-2.615 2.722-.99-.99 1.343-1.343.99.99zm5.372-5.445-.99-.99 1.343-1.343.99.99zm-6.991-4.285.99.99-1.343 1.343-.99-.99zm9.746 1.561-.99-.99 1.343-1.343.99.99zm-14.134 4.887-1-1-1.1 1.1-.3.3 1.1.9.2-.2zm-1.9 2.7-1.4-.1v.4c0 .6.2 1.3.5 1.9l1.2-.7c-.2-.4-.3-.8-.3-1.2zm2.293-5.054 1.343-1.343.99.99-1.343 1.343zm-.993 7.554-.7 1.2c.6.3 1.2.5 1.9.5h.4l-.1-1.4c-.5.1-1 0-1.5-.3zm16.5-13.8 1 1 .1-.2.2.2 1-1-1.2-1.2zm17.2 14.1-.1 1.4h.4c.6 0 1.3-.2 1.9-.5l-.7-1.2c-.4.3-1 .4-1.5.3zm-1.782-8.189.99-.99 1.343 1.343-.99.99zm-.918 6.289-1 1 1.1 1.1.3.3.9-1.1-.2-.2zm-.836-10.022 1.343 1.343-.99.99-1.343-1.343zm6.336 9.122v.2c0 .4-.1.8-.3 1.2l1.2.7c.3-.6.5-1.2.5-1.9v-.4zm.3-2.5-1.1-1.2-1 1 1.1 1.1.2.2 1.1-.9c-.1 0-.2-.1-.3-.2zm-12.011-12.074 1.343 1.343-.99.99-1.343-1.343zm-4.326 6.98-1.343-1.343.99-.99 1.343 1.343zm2.794 2.686-1.343-1.343.99-.99 1.343 1.343zm2.719 2.756-1.343-1.344.99-.99 1.343 1.344zm1.536-9.731 1.343 1.343-.99.99-1.343-1.343zm1.19 12.488-1.343-1.343.99-.99 1.343 1.343z"/></g></svg>