<svg enable-background="new 0 0 183.1 205" viewBox="0 0 183.1 205" xmlns="http://www.w3.org/2000/svg"><path d="m148.5 18.5h-1l.5-9.1 1.7-3.8h-1.5v-.3l-56.6.1-56.7-.2v.3h-1.5l1.7 3.8c.2 3.1.3 6.1.5 9.1h-35.6c-.2 35.9 12.7 77.4 54.2 80.1 6.8 11.6 16.1 21.8 28.9 30.1l-.1 25.4h17l-.1-25.5c12.9-8.2 22.2-18.5 28.9-30.1 41.5-2.6 54.4-44.1 54.2-80.1zm-136 11.4 23.9.1c1.7 20.3 4.8 39.8 12.1 57-27.5-3.5-36.1-32.2-36-57.1zm122.2 57.1c7.3-17.2 10.4-36.7 12.1-57l23.9-.1c0 24.9-8.6 53.6-36 57.1zm-106-87h125.7v9.7h-125.7z" fill="#fdc908"/><path d="m147.8 14.9-112.7-5.2h112.9zm-47.8 117.9-16.9-1.6h16.9z" fill="#fba413"/><path d="m103.5 130.2c0 .6-.5 1-1 1h-21.9c-.6 0-1-.4-1-1v-2.1c0-.5.4-1 1-1h21.9c.5 0 1 .4 1 1z" fill="#fdc908"/><path d="m128.9 159.7h-74.7l4.3-5.7h66.1z" fill="#fba413"/><path d="m40.1 197.2h102.8v7.8h-102.8zm5.3-37.5h92.4v37.5h-92.4z" fill="#425a68"/><path d="m54.2 168.2h74.6v20.6h-74.6z" fill="#abb9b8"/><g fill="#425a68"><circle cx="57.4" cy="171.4" r="1"/><circle cx="57.4" cy="185.6" r="1"/><circle cx="125.7" cy="171.5" r="1"/><circle cx="125.6" cy="185.5" r="1"/><path d="m67.9 173.5h39.9v1.9h-39.9zm0 4.2h47.3v1.9h-47.3zm0 4.2h47.3v1.9h-47.3z"/></g><path d="m44.4 86.3c-24.2-5.8-31.9-32.7-31.9-56.4h-3.1c0 24.6 8.3 52.9 35 56.4zm94.3 0c24.2-5.8 31.9-32.7 31.9-56.4h3.1c0 24.6-8.3 52.9-35 56.4z" fill="#fba413"/></svg>