<svg enable-background="new 0 0 244 147.5" viewBox="0 0 244 147.5" xmlns="http://www.w3.org/2000/svg" xmlns:xlink="http://www.w3.org/1999/xlink"><clipPath id="a"><circle cx="200.6" cy="60.2" r="5"/></clipPath><clipPath id="b"><circle cx="56.1" cy="61.3" r="5"/></clipPath><path d="m116.7 126.7c-.4 0-.8-.3-1-.7l-6.9-20.1c-.2-.5.1-1.1.6-1.3s1.1.1 1.3.6l6.9 20.1c.2.5-.1 1.1-.6 1.3z" fill="#fbc709"/><path d="m177.1 66 2 4.3c-10.5 6.3-17.6 17.9-17.6 31.1 0 20 16.3 36.2 36.2 36.2 20 0 36.2-16.3 36.2-36.2 0-19.2-15-34.9-33.8-36.1-.1-1.8-1.1-3.6-3.3-4.4.3-.1.6-.2.9-.4 22.6 0 40.8 18.3 40.8 40.9s-18.3 40.9-40.9 40.9-40.9-18.3-40.9-40.9c.1-15.1 8.3-28.3 20.4-35.4z" fill="#a9b7b6"/><path d="m175 61.1 2.4 5.2c-12 7-20.1 20.1-20.1 35 0 22.3 18.2 40.5 40.5 40.5s40.5-18.2 40.5-40.5-18.3-40.5-40.6-40.4h-.8c2.3-.7 3.7-3.2 3.5-5.6 24.2 1.4 43.5 21.5 43.5 46.1 0 25.5-20.7 46.2-46.2 46.2s-46.2-20.7-46.2-46.2c0-17.3 9.5-32.3 23.5-40.3z" fill="#425a68"/><g clip-path="url(#a)"><path d="m177.2 66 2 4.3c-10.5 6.3-17.6 17.9-17.6 31.1 0 20 16.3 36.2 36.2 36.2s36.2-16.3 36.2-36.2c0-20-16.3-36.2-36.2-36.2h-.5l-2.1-4.6c.9-.1 1.7-.1 2.6-.1 22.6 0 40.9 18.3 40.9 40.9s-18.3 40.9-40.9 40.9-40.9-18.3-40.9-40.9c0-15.1 8.2-28.3 20.3-35.4z" fill="#a9b7b6"/><path d="m175 61.2 2.4 5.2c-12 7-20.1 20.1-20.1 35 0 22.3 18.2 40.5 40.5 40.5s40.5-18.2 40.5-40.5-18.2-40.5-40.5-40.5c-.8 0-1.6 0-2.4.1l-2.5-5.5c1.6-.2 3.3-.3 4.9-.3 25.5 0 46.2 20.7 46.2 46.2s-20.7 46.2-46.2 46.2-46.2-20.7-46.2-46.2c0-17.3 9.4-32.3 23.4-40.2z" fill="#425a68"/></g><path d="m110 127.8c-1.3 0-1.7-1.7-.6-2.3 2.1-1.2 4.6-2 7.2-2 2.7 0 5.1.7 7.3 2 1.1.6.6 2.3-.7 2.3z" fill="#a9b7b6"/><path d="m108.8 126.6c0 .6.5 1.2 1.2 1.2l13.2-.1c.7 0 1.1-.5 1.2-1.1z" fill="#939a99"/><path d="m76.6 73.9-3.2 3.5c8.1 9.2 11.3 22.4 7.3 34.9-6.1 19-26.5 29.6-45.5 23.5s-29.6-26.5-23.5-45.5c5.9-18.2 24.9-28.7 43.3-24.1.6-1.7 2.1-3.1 4.4-3.2-.3-.2-.5-.4-.7-.7-21.5-6.8-44.5 5-51.3 26.5-6.9 21.5 5 44.5 26.5 51.4s44.5-5 51.4-26.5c4.5-14.3.8-29.3-8.7-39.8z" fill="#a9b7b6"/><path d="m80.2 70-3.9 4.3c9.3 10.4 13 25.2 8.5 39.4-6.8 21.3-29.6 33-50.9 26.2s-33-29.6-26.2-50.9 29.6-33 50.9-26.2c.2.1.5.2.7.2h.1c-2-1.4-2.5-4.2-1.7-6.4-23.5-6-48 7.2-55.4 30.7-7.8 24.3 5.6 50.3 29.9 58.1s50.3-5.6 58.1-29.9c5.2-16.5.8-33.7-10.1-45.5z" fill="#425a68"/><g clip-path="url(#b)"><path d="m76.6 73.9-3.2 3.5c8.1 9.2 11.3 22.4 7.3 34.9-6.1 19-26.5 29.6-45.5 23.5s-29.6-26.5-23.5-45.5 26.5-29.6 45.5-23.5c.2 0 .3.1.5.2l3.4-3.7-2.4-.9c-21.5-6.9-44.5 5-51.4 26.5s5 44.5 26.5 51.4 44.5-5 51.4-26.5c4.6-14.4.8-29.4-8.6-39.9z" fill="#a9b7b6"/><path d="m80.1 70-3.9 4.3c9.3 10.4 13 25.2 8.5 39.4-6.8 21.3-29.6 33-50.9 26.2s-33-29.6-26.2-50.9 29.6-33 50.9-26.2c.8.2 1.5.5 2.3.8l4.1-4.5c-1.5-.7-3-1.2-4.6-1.8-24.3-7.7-50.3 5.7-58.1 30s5.6 50.3 29.9 58.1 50.3-5.6 58.1-29.9c5.3-16.5.8-33.7-10.1-45.5z" fill="#425a68"/></g><path d="m42.4 101.4c.6 1.7 2.2 2.9 4 3.1l63.2 7.3h.6c1.5 0 3-.7 3.9-2l51.4-69.3 27.8 61.1c.8 1.8 2.6 2.9 4.4 2.9.7 0 1.4-.1 2-.4 2.4-1.1 3.5-4 2.4-6.4l-34.5-76 10.4-5.2c1.6-.8 2.7-2.5 2.7-4.3s-1-3.5-2.7-4.4l-14.6-7.3c-2.4-1.2-5.3-.2-6.5 2.2s-.2 5.3 2.2 6.5l5.9 2.9-5.9 2.9c-2.3 1.2-3.3 4-2.3 6.4l3.1 6.7-65 16.9-5.9-17.2 19.6-3.6c2.5-.4 4.2-2.7 4-5.2s-2.3-4.4-4.8-4.4h-41.4c-2.4 0-4.4 1.7-4.8 4.1s1 4.6 3.3 5.4l14.2 4.7 6.9 20.2-42.6 47.4c-1.2 1.4-1.6 3.3-1 5zm111.6-61.6-41.6 56.1-14.3-41.7zm-97.1 56.1 32.7-36.4 14.3 41.8z" fill="#fbc709"/><g fill="#f9a212"><path d="m55 97.7 49 3.7-47.1-5.5zm43.1-43.5 55.9-14.4-56.4 13.1zm-.5-1.3 14.8 43-17-46.1zm-17.8-22.1 9.2-3-9.9 1zm78.8-3.1c.1.5.7.8 1.2.7l9.4-2.5c.5-.1.8-.7.7-1.2l-.1-.5c-.1-.5-.7-.8-1.2-.7l-9.4 2.5c-.5.1-.8.7-.7 1.2z"/><circle cx="109.8" cy="105.5" r="2.6"/><circle cx="46.3" cy="100.5" r="1.4"/><circle cx="197.7" cy="100" r="1.4"/><path d="m114.6 109.2 50.9-68.6-48.6 63.4zm-53-90.5c.2-2.4 2.4-4.1 4.8-4.1 0 0-4.2.8-3.1 5.7.7 3.6 5.8 5.2 5.8 5.2-2.2-.8-8-1.3-7.5-6.8zm119.032 20.643-4.189 1.9-7.023-15.482 4.189-1.9z"/></g><path d="m174.6 26c2.1.8 3.9 2.3 4.9 4.5s1 4.6.2 6.7z" fill="#a9b7b6"/><path d="m179.5 30.5c-1-2.2-2.8-3.8-4.9-4.5 0 0 5.9 6.7 4.9 4.5z" fill="#fff"/><path d="m152.5 41.8 8.6-3.9-7.1 1.8zm6.6-32.6 5.9 3h7.8zm5.1 12.5 7.1-1.9-3.7 1.9.7 1.4z" fill="#f9a212"/><path d="m110.3 96.3c-.5-.1-.9-.2-1.4-.2v-.1l-63.7-.3h-.2c-2.5 0-4.6 2-4.6 4.7 0 .4.1.8.2 1.2.5 1.6 1.8 2.7 3.3 3.1.1 0 .2 0 .3.1l61.1 10.1c.2.1.4.1.5.1.6.1 1.2.2 1.8.2h.3c4.4 0 8.4-3 9.5-7.5 1.3-5-2-10.2-7.1-11.4zm5.2 11.1c-.8 3.4-3.8 5.8-7.2 5.9l-64.7-10.6c-.4-.2-.7-.5-.9-.9-.4-.6-.5-1.3-.3-2.1.2-.9.8-1.5 1.5-1.9l64.7.3c.4 0 .8.1 1.2.2 4.1.9 6.6 5 5.7 9.1zm-97.5-28.3c-5.6 6.4-9.1 14.7-9.1 23.9 0 19.9 16.1 36 36 36 10.6 0 20.1-4.6 26.7-11.8-9.2 9.1-23.1 12.8-36.3 8.6-18.9-6-29.4-26.4-23.3-45.3 1.3-4.3 3.4-8.1 6-11.4zm151.2 0c-5.6 6.3-9.1 14.7-9.1 23.9 0 19.8 16.1 35.9 35.9 35.9 10.6 0 20.1-4.6 26.6-11.8-9.2 9-23 12.8-36.2 8.6-18.9-6-29.4-26.3-23.3-45.2 1.4-4.3 3.5-8.1 6.1-11.4z" fill="#939a99"/></svg>