<svg enable-background="new 0 0 844.4 475.4" viewBox="0 0 844.4 475.4" xmlns="http://www.w3.org/2000/svg"><path d="m834.9 402.9-816.6 62.3v-381.4l816.6-62.2z" fill="#fdc908"/><path d="m8.8 475.4-8.8-11.3 8.8-.7v-388.4l826.7-63v-12l8.8 11.3v400.4l-835.5 63.7zm19-382.8v362.3l797.5-60.8v-362.3l-797.5 60.8z" fill="#fd7301"/><path d="m0 464.1v-400.4l835.5-63.7v400.4zm19-382.8v362.3l797.5-60.8v-362.3z" fill="#fff"/><path d="m185.7 324.7 7.6-.5c6.4-.4 10.5 3.6 10 9.3v.1c-.5 5.7-5.3 10.4-11.8 10.9l-7.6.5zm3.3 3-1.2 13.8 4-.3c4.3-.3 7.4-3.4 7.7-7.3v-.1c.3-4-2.2-6.7-6.5-6.4zm17.2 8.2c.4-4.4 3.8-8.2 8.2-8.5 4.9-.3 7.1 3.3 6.7 7.7 0 .3-.1.6-.1 1l-11.3.8c.2 2.5 1.8 3.7 4.1 3.6 1.7-.1 3-.8 4.3-2.1l1.9 1.7c-1.6 1.8-3.7 3.1-6.6 3.3-4.4.2-7.6-2.8-7.2-7.5zm11.5-1.9c0-2.2-1.2-3.9-3.6-3.8-2.2.1-3.8 1.9-4.4 4.3zm7.7-7.1 3.5-.2-.2 2.3c1.1-1.4 2.6-2.8 4.9-3 2.2-.2 3.7.8 4.4 2.4 1.4-1.7 3.1-2.9 5.4-3 3.4-.2 5.2 1.7 4.9 5.5l-.9 9.7-3.5.2.8-8.7c.2-2.4-.8-3.7-2.8-3.5-1.9.1-3.4 1.6-3.6 4l-.8 8.6-3.5.2.8-8.7c.2-2.4-.8-3.6-2.8-3.5s-3.4 1.7-3.6 4l-.8 8.6-3.5.2zm26.2 5.9c.4-4.4 4.2-8.3 8.9-8.6s7.9 3 7.5 7.4v.1c-.4 4.3-4.2 8.2-9 8.5-4.6.2-7.7-3.1-7.4-7.4zm13-.9c.2-2.7-1.5-4.8-4.3-4.6s-4.8 2.5-5.1 5.2v.1c-.2 2.7 1.5 4.8 4.3 4.6 2.8-.3 4.8-2.7 5.1-5.3zm5.4 5.1 1.8-2.5c1.6 1.1 3.3 1.6 4.9 1.5 1.5-.1 2.5-.8 2.5-1.8v-.1c.1-1.2-1.5-1.5-3.3-1.9-2.2-.5-4.7-1.2-4.4-4.2v-.1c.3-2.9 2.8-4.8 5.9-5 1.9-.1 4 .4 5.5 1.3l-1.6 2.6c-1.4-.8-2.9-1.2-4.2-1.1-1.4.1-2.2.8-2.3 1.7v.1c-.1 1.1 1.5 1.5 3.3 1.9 2.2.5 4.6 1.4 4.4 4.1v.1c-.3 3.2-2.9 5-6.1 5.2-2.3.2-4.6-.4-6.4-1.8zm16.5-3.3.7-8-2 .1.3-3 2-.1.4-4.2 3.5-.2-.4 4.2 4.2-.3-.3 3-4.2.3-.7 7.5c-.1 1.4.5 1.9 1.7 1.8.8-.1 1.5-.3 2.2-.7l-.2 2.9c-.9.6-1.9.9-3.3 1-2.4 0-4.2-1-3.9-4.3zm12.3-11.8 3.5-.2-.3 3.3c1.2-2.4 3.1-4 5.8-4.1l-.3 3.7h-.2c-3.1.2-5.4 2.4-5.8 6.4l-.5 5.8-3.5.2zm9.3 10.1c.3-3.4 3-5.2 6.8-5.4 1.7-.1 2.9.1 4.1.3v-.4c.2-2.2-1.1-3.2-3.5-3.1-1.7.1-3 .6-4.5 1.3l-.7-2.7c1.8-.9 3.5-1.5 5.9-1.6 2.3-.2 4 .3 5 1.4 1 1 1.4 2.6 1.3 4.6l-.8 9.1-3.5.2.2-1.9c-1.2 1.3-2.9 2.4-5.2 2.6-2.9.2-5.3-1.3-5.1-4.4zm10.7-1.8.1-1c-.9-.3-2.1-.5-3.5-.4-2.3.2-3.7 1.2-3.8 2.8v.1c-.1 1.5 1.1 2.2 2.8 2.1 2.4-.2 4.3-1.7 4.4-3.6zm-.1-16.4 3.1 1.2-3.9 3.6-2.7.2zm15.8 13.3c.4-4.4 4.1-8.3 8.7-8.6 2.9-.2 4.6.7 5.9 2.2l-2.4 2.5c-1-1.1-2.1-1.8-3.8-1.6-2.6.2-4.7 2.5-4.9 5.2v.1c-.2 2.7 1.5 4.8 4.2 4.6 1.7-.1 3-1 4.2-2.2l2 1.9c-1.7 1.8-3.6 3.1-6.6 3.3-4.6.2-7.6-3.1-7.3-7.4zm17.2.8.8-9.7 3.5-.2-.8 8.7c-.2 2.4.9 3.6 3 3.5 2-.1 3.6-1.6 3.8-4l.8-8.6 3.6-.2-1.3 15.3-3.6.2.2-2.4c-1.1 1.5-2.7 2.9-5.1 3-3.4.1-5.2-2.1-4.9-5.6zm17.2-.1c.3-3.4 3-5.2 6.8-5.4 1.7-.1 2.9.1 4.1.3v-.4c.2-2.2-1.1-3.2-3.5-3.1-1.7.1-3 .6-4.5 1.3l-.7-2.7c1.8-.9 3.5-1.5 5.9-1.6 2.3-.2 4 .3 5 1.4 1 1 1.4 2.6 1.3 4.6l-.8 9.1-3.5.2.2-1.9c-1.2 1.3-2.9 2.4-5.2 2.6-2.9.1-5.4-1.3-5.1-4.4zm10.7-1.8.1-1c-.9-.3-2.1-.5-3.5-.4-2.3.2-3.7 1.2-3.8 2.8v.1c-.1 1.5 1.1 2.2 2.8 2.1 2.3-.2 4.2-1.7 4.4-3.6zm-.1-16.4 3.1 1.2-3.9 3.6-2.7.2zm8.6 6.1 3.5-.2-.2 2.3c1.1-1.5 2.7-2.8 5.1-3 3.5-.2 5.3 1.9 5 5.5l-.8 9.7-3.5.2.8-8.7c.2-2.4-.9-3.6-3-3.5-2 .1-3.6 1.7-3.8 4l-.8 8.6-3.5.2zm17.9 9.7.7-8-2 .1.3-3 2-.1.4-4.2 3.5-.2-.4 4.2 4.2-.3-.3 3-4.2.3-.7 7.5c-.1 1.4.5 1.9 1.7 1.8.8-.1 1.5-.3 2.2-.7l-.2 2.9c-.9.6-1.9.9-3.3 1-2.5.1-4.2-.9-3.9-4.3zm10.2-4c.4-4.4 4.2-8.3 8.9-8.6s7.9 3 7.5 7.4v.1c-.4 4.3-4.2 8.2-9 8.5-4.6.3-7.7-3.1-7.4-7.4zm13-.9c.2-2.7-1.5-4.8-4.3-4.6s-4.8 2.5-5.1 5.2v.1c-.2 2.7 1.5 4.8 4.3 4.6 2.8-.3 4.8-2.7 5.1-5.3zm14.1 4.5 1.8-2.5c1.6 1.1 3.3 1.6 4.9 1.5 1.5-.1 2.5-.8 2.5-1.8v-.1c.1-1.2-1.5-1.5-3.3-1.9-2.2-.5-4.7-1.2-4.4-4.2v-.1c.3-2.9 2.8-4.8 5.9-5 1.9-.1 4 .4 5.5 1.3l-1.6 2.6c-1.4-.8-2.9-1.2-4.2-1.1-1.4.1-2.2.8-2.3 1.7v.1c-.1 1.1 1.5 1.5 3.3 1.9 2.2.5 4.6 1.4 4.4 4.1v.1c-.3 3.2-2.9 5-6.2 5.2-2.1.2-4.5-.4-6.3-1.8zm15.1-3.4c.3-3.4 3-5.2 6.8-5.4 1.7-.1 2.9.1 4.1.3v-.4c.2-2.2-1.1-3.2-3.5-3.1-1.7.1-3 .6-4.5 1.3l-.7-2.7c1.8-.9 3.5-1.5 5.9-1.6 2.3-.2 4 .3 5 1.4 1 1 1.4 2.6 1.3 4.6l-.8 9.1-3.5.2.2-1.9c-1.2 1.3-2.9 2.4-5.2 2.6-2.9.2-5.3-1.3-5.1-4.4zm10.7-1.8.1-1c-.9-.3-2.1-.5-3.5-.4-2.3.2-3.7 1.2-3.8 2.8v.1c-.1 1.5 1.1 2.2 2.8 2.1 2.4-.2 4.3-1.7 4.4-3.6zm10.9 2.3-.2 2.4-3.5.2 1.8-21.1 3.5-.2-.7 8.4c1.3-1.7 3-3.1 5.5-3.2 3.6-.3 6.9 2.3 6.5 7.4v.1c-.4 5.1-4.2 8.2-7.9 8.4-2.5.1-4-1-5-2.4zm9.3-5.8c.3-3-1.6-4.8-4-4.6s-4.7 2.3-4.9 5.2v.1c-.3 2.9 1.7 4.7 4.1 4.6 2.4-.3 4.5-2.3 4.8-5.3zm6.4-.4c.4-4.4 3.8-8.2 8.2-8.5 4.9-.3 7.1 3.3 6.7 7.7 0 .3-.1.6-.1 1l-11.3.8c.2 2.5 1.8 3.7 4.1 3.6 1.7-.1 3-.8 4.3-2.1l1.9 1.7c-1.6 1.8-3.7 3.1-6.6 3.3-4.5.2-7.6-2.8-7.2-7.5zm11.5-1.9c0-2.2-1.2-3.9-3.6-3.8-2.2.2-3.8 1.9-4.4 4.3zm-1.1-13.1 3.1 1.2-3.9 3.6-2.7.2zm6.4 19.4 1.8-2.5c1.6 1.1 3.3 1.6 4.9 1.5 1.5-.1 2.5-.8 2.5-1.8v-.1c.1-1.2-1.5-1.5-3.3-1.9-2.2-.5-4.7-1.2-4.4-4.2v-.1c.3-2.9 2.8-4.8 5.9-5 1.9-.1 4 .4 5.5 1.3l-1.6 2.6c-1.4-.8-2.9-1.2-4.2-1.1-1.4.1-2.2.8-2.3 1.7v.1c-.1 1.1 1.5 1.5 3.3 1.9 2.2.5 4.6 1.4 4.4 4.1v.1c-.3 3.2-2.9 5-6.2 5.2-2.2.2-4.5-.5-6.3-1.8zm24.3-7.3c.4-5.1 4.2-8.2 7.9-8.5 2.5-.2 4 1 5 2.3l.7-8.2 3.5-.2-1.8 21.1-3.5.2.2-2.5c-1.3 1.7-3 3.1-5.5 3.2-3.6.3-6.9-2.3-6.5-7.4zm12.5-.9c.3-3-1.7-4.8-4-4.6-2.4.2-4.6 2.2-4.9 5.2v.1c-.3 2.9 1.6 4.7 4 4.6 2.4-.2 4.7-2.3 4.9-5.3zm7.1-.4c.4-4.4 3.8-8.2 8.2-8.5 4.9-.3 7.1 3.3 6.7 7.7 0 .3-.1.6-.1 1l-11.3.8c.2 2.5 1.8 3.7 4.1 3.6 1.7-.1 3-.8 4.3-2.1l1.9 1.7c-1.6 1.8-3.7 3.1-6.6 3.3-4.4.2-7.6-2.8-7.2-7.5zm11.5-1.9c0-2.2-1.2-3.9-3.6-3.8-2.2.1-3.8 1.9-4.4 4.3zm17-4.7-2 .1.3-2.9 2-.1.1-1.1c.1-1.7.7-3 1.6-3.8.9-.9 2.1-1.3 3.6-1.5 1.2-.1 2.1 0 2.8.2l-.3 3c-.7-.2-1.3-.3-2-.2-1.3.1-2.1.9-2.2 2.5l-.1.8 4.1-.3-.3 2.9-4 .3-1.1 12.3-3.5.2zm9.4 6 .8-9.7 3.5-.2-.8 8.7c-.2 2.4.9 3.6 3 3.5 2-.1 3.6-1.6 3.8-4l.8-8.6 3.6-.2-1.3 15.3-3.6.2.2-2.4c-1.1 1.5-2.7 2.9-5.1 3-3.4.1-5.2-2.1-4.9-5.6zm10-17 3.1 1.2-3.9 3.6-2.7.2zm9 17 .7-8-2 .1.3-3 2-.1.4-4.2 3.5-.2-.4 4.2 4.2-.3-.3 3-4.2.3-.7 7.5c-.1 1.4.5 1.9 1.7 1.8.8-.1 1.5-.3 2.2-.7l-.2 2.9c-.9.6-1.9.9-3.3 1-2.5 0-4.2-1-3.9-4.3zm14.6.8-.2 2.4-3.5.2 1.8-21.1 3.5-.2-.7 8.4c1.3-1.7 3-3.1 5.5-3.2 3.6-.3 6.9 2.3 6.5 7.4v.1c-.4 5.1-4.2 8.2-7.9 8.4-2.5.1-4-1-5-2.4zm9.3-5.8c.3-3-1.6-4.8-4-4.6s-4.7 2.3-4.9 5.2v.1c-.3 2.9 1.7 4.7 4.1 4.6 2.4-.3 4.6-2.3 4.8-5.3zm6.4-.4c.4-4.4 4.2-8.3 8.9-8.6s7.9 3 7.5 7.4v.1c-.4 4.3-4.2 8.2-9 8.5-4.6.2-7.8-3.1-7.4-7.4zm12.9-.9c.2-2.7-1.5-4.8-4.3-4.6s-4.8 2.5-5.1 5.2v.1c-.2 2.7 1.5 4.8 4.3 4.6 2.9-.4 4.9-2.7 5.1-5.3zm8.6-14.1 3.5-.2-1.8 21.1-3.5.2z" fill="#fff"/><path d="m291.9 105 23.4-1.6-.5 5.7-8.3.6-3.8 43.5-6.9.5 3.8-43.5-8.3.6zm46.2 34.6c-.5 5.7-3.3 11.7-12.7 12.3-9.4.7-11.2-5-10.7-10.7l3.3-38.1 6.9-.5-3.4 39.3c-.3 3.3.8 5 4.4 4.7 3.5-.2 4.9-2 5.2-5.4l3.4-39.3 6.9-.5zm17.2-4.3 6.9-.5-.4 4c-.3 3.3.8 5.2 3.5 5 3.7-.3 4.8-2.8 5-6 .4-4.2.3-5.5-6.3-12-4-4.1-7.3-7.8-6.8-14.4.7-8 4.8-11.8 12.3-12.3 3.7-.3 6.3.8 7.8 2.2 1.1 1 1.8 2.7 1.5 6.1l-.4 4.6-6.5.4.3-3.9c.2-2.8-.8-4.3-3.5-4.2-2.8.2-4.3 1.9-4.6 5.7-.3 3.3.2 5.3 6 11.4 6.1 6.5 7.2 8.8 6.7 14.7-.7 7.7-4.1 12.3-12.3 12.9-6.3.4-10.4-1.9-9.9-8.1zm29.3-36.8 18.7-1.3-.5 5.7-11.9.8-1.3 15.4 11.2-.8-.5 5.7-11.2.8-1.5 16.6 11.9-.8-.5 5.7-18.7 1.3zm21.7-1.5 6.9-.5-3.8 43.5 11.6-.8-.5 5.7-18.5 1.3zm21.8-1.5 18.7-1.3-.5 5.7-11.9.8-1.3 15.4 11.2-.8-.5 5.7-11.2.8-1.5 16.6 11.9-.8-.5 5.7-18.7 1.3zm19.8 11.1c.6-6.9 3.4-13.1 12.8-13.8 6.8-.5 9.7 2.7 9.2 8.2l-.4 4.9-6.5.4.3-3.4c.3-3.1-.7-5-3.6-4.8-3.6.2-4.5 2.8-5 8.7l-2.1 24.1c-.5 5.8 1.3 6.7 3.5 6.5 2.5-.2 4.4-2.1 4.7-6.2l.3-3.4 6.5-.4-.5 5.5c-.5 5.2-2.9 9.3-10.9 9.8-8.7.6-11.1-3.8-10.4-11.4zm24.3-1.6c.6-6.9 3.4-13.1 12.8-13.8 6.8-.5 9.7 2.7 9.2 8.2l-.4 4.9-6.5.4.3-3.4c.3-3.1-.7-5-3.6-4.8-3.6.2-4.5 2.8-5 8.7l-2.1 24.1c-.5 5.8 1.3 6.7 3.5 6.5 2.5-.2 4.4-2.1 4.7-6.2l.3-3.4 6.5-.4-.5 5.5c-.5 5.2-2.9 9.3-10.9 9.8-8.7.6-11.1-3.8-10.4-11.4zm25.9-14.3 6.9-.5-4.3 49.2-6.9.5zm10.5 11.7c.6-6.9 3.4-13.1 12.8-13.8 8.9-.6 11.3 3.8 10.7 11.4l-2.2 24.9c-.6 6.9-3.4 13.1-12.8 13.8-8.8.6-11.2-3.8-10.6-11.4zm4.6 24.9c-.4 4.2 1.4 6.3 4.2 6.1 2.9-.2 5-2.6 5.4-6.8l2.3-25.8c.4-4.8-1-7-4.2-6.8-3.1.2-5 2.6-5.4 7.4zm10.7-51.6 6.9-.5-8.4 10.4-4.1.3zm14 12.2 9.5-.7 4.6 40.3h.1l3.6-40.9 6.5-.4-4.3 49.2-9.9.7-4.5-41.4h-.1l-3.7 42-6.1.4z" fill="#fff"/><path d="m607.3 110.3-28.7 2 .5-5.7 28.7-2zm-334.5 23.1-28.7 2 .5-5.7 28.7-1.9z" fill="#fff"/><path d="m222 225-1.6 18.3 26.1-1.8-1.2 14.1-26.1 1.8-2 22.5 27.1-1.9-1.2 14.1-43.5 3 7.3-83.3 43.5-3-1.2 14.1zm77.3-1.2c-2.8-4-6.5-6.4-12-6-5.2.4-10.6 4.7-11.1 10.1-1.2 14 32.7 5.9 30.2 33.8-1.5 16.7-13 29.2-30.2 30.4-11.6.8-19.5-5.2-24.5-14.4l11.5-11c1.7 6.2 7.1 11.6 14.1 11.1 6.7-.5 11.3-6.4 11.9-12.8.8-8.6-7.1-10.5-13.4-12.6-10.4-3.7-17.9-8.5-16.8-21.4 1.2-13.8 12.6-25.7 26.7-26.7 7.5-.5 17.5 2.4 22.2 7.7zm52.5-21.8 16.4-1.1-4.1 46.6c-.9 10.3-1.3 24.7 12.7 23.7s16.1-15.5 17-25.8l4.1-46.6 16.4-1.1-4.3 49.8c-1.8 20.3-11.8 36.3-34.4 37.8-22.6 1.6-29.9-13.2-28.1-33.5zm51-24-18.3 17.7-7.5-4.3 15-19.5zm23.3 16.6 11.8-.8 39.2 55.1h.2l4.9-56 16.4-1.1-7.4 84.9-11.8.8-39.2-55.1h-.2l-4.9 56.5-16.4 1.1zm93.7 78.5-16.4 1.1 7.3-83.3 16.4-1.1zm73.6-65.9c-4.1-5.2-10.7-8-17.8-7.6-15.7 1.1-26 16.1-27.3 30.4-1.2 14 6.9 27.4 22.2 26.3 7-.5 14.4-4.6 19.4-10.1l-1.7 19.3c-6.4 3.3-12.7 5.8-19.5 6.3-23.7 1.6-39.4-17.4-37.4-40.3 2.1-23.6 20.7-45.7 45.4-47.4 6.6-.5 12.9.9 18.3 3.6zm24.2 41.7-8.5 18-17.3 1.2 40.3-87.7 12.7-.9 24.5 83.3-17.5 1.2-4.9-17.1zm18-44.5h-.2l-11.9 30.9 20-1.4z" opacity=".1"/><g fill="#fd7301"><path d="m210.4 220.6-1.6 18.3 26.1-1.8-1.2 14.1-26.1 1.8-2 22.5 27.1-1.9-1.2 14.1-43.5 3 7.3-83.3 43.5-3-1.2 14.1zm77.4-1.2c-2.8-4-6.5-6.4-12-6-5.2.4-10.6 4.7-11.1 10.1-1.2 14 32.7 5.9 30.2 33.8-1.5 16.7-13 29.2-30.2 30.4-11.6.8-19.5-5.2-24.5-14.4l11.5-11c1.7 6.2 7.1 11.6 14.1 11.1 6.7-.5 11.3-6.4 11.9-12.8.8-8.6-7.1-10.5-13.4-12.6-10.4-3.7-17.9-8.5-16.8-21.4 1.2-13.8 12.6-25.7 26.7-26.7 7.5-.5 17.5 2.4 22.2 7.7zm52.5-21.8 16.4-1.1-4.1 46.6c-.9 10.3-1.3 24.7 12.7 23.7s16.1-15.5 17-25.8l4.1-46.6 16.4-1.1-4.3 49.8c-1.8 20.3-11.8 36.3-34.4 37.8-22.6 1.6-29.9-13.2-28.2-33.5zm51-24-18.3 17.8-7.5-4.3 15-19.5zm23.3 16.6 11.8-.8 39.2 55.1h.2l4.9-56 16.4-1.1-7.4 84.9-11.8.8-39.2-55.1h-.2l-4.9 56.5-16.4 1.1zm93.7 78.5-16.4 1.1 7.3-83.3 16.4-1.1zm73.5-65.9c-4.1-5.2-10.7-8-17.8-7.6-15.7 1.1-26 16.1-27.3 30.4-1.2 14 6.9 27.4 22.2 26.3 7-.5 14.4-4.6 19.4-10.1l-1.7 19.3c-6.4 3.3-12.7 5.8-19.5 6.3-23.7 1.6-39.4-17.4-37.4-40.3 2.1-23.6 20.7-45.7 45.4-47.4 6.6-.5 12.9.9 18.3 3.6zm24.3 41.7-8.5 18-17.3 1.2 40.3-87.7 12.7-.9 24.5 83.3-17.5 1.2-4.9-17.1zm17.9-44.5h-.2l-11.9 30.9 20-1.4z"/><path d="m210 220-1.6 18.3 26.1-1.8-1.2 14.1-26.1 1.8-2 22.5 27.1-1.9-1.2 14.1-43.5 3 7.3-83.3 43.5-3-1.2 14.1zm77.4-1.2c-2.8-4-6.5-6.4-12-6-5.2.4-10.6 4.7-11.1 10.1-1.2 14 32.7 5.9 30.2 33.8-1.5 16.7-13 29.2-30.2 30.4-11.6.8-19.5-5.2-24.5-14.4l11.5-11c1.7 6.2 7.1 11.6 14.1 11.1 6.7-.5 11.3-6.4 11.9-12.8.8-8.6-7.1-10.5-13.4-12.6-10.4-3.7-17.9-8.5-16.8-21.4 1.2-13.8 12.6-25.7 26.7-26.7 7.5-.5 17.5 2.4 22.2 7.7zm52.5-21.8 16.4-1.1-4.1 46.6c-.9 10.3-1.3 24.7 12.7 23.7s16.1-15.5 17-25.8l4.1-46.6 16.4-1.1-4.3 49.8c-1.8 20.3-11.8 36.3-34.4 37.8-22.6 1.6-29.9-13.2-28.2-33.5zm51-24-18.3 17.7-7.5-4.3 15-19.5zm23.3 16.6 11.8-.8 39.2 55.1h.2l4.9-56 16.4-1.1-7.4 84.9-11.8.8-39.2-55.1h-.2l-4.9 56.5-16.4 1.1zm93.7 78.5-16.4 1.1 7.3-83.3 16.4-1.1zm73.5-65.9c-4.1-5.2-10.7-8-17.8-7.6-15.7 1.1-26 16.1-27.3 30.4-1.2 14 6.9 27.4 22.2 26.3 7-.5 14.4-4.6 19.4-10.1l-1.7 19.3c-6.4 3.3-12.7 5.8-19.5 6.3-23.7 1.6-39.4-17.4-37.4-40.3 2.1-23.6 20.7-45.7 45.4-47.4 6.6-.5 12.9.9 18.3 3.6zm24.3 41.7-8.5 18-17.3 1.2 40.3-87.7 12.7-.9 24.5 83.3-17.5 1.2-4.9-17.1zm17.9-44.5h-.2l-11.9 30.9 20-1.4z"/><path d="m209.6 219.4-1.6 18.3 26.1-1.8-1.2 14.1-26.1 1.8-2 22.5 27.1-1.9-1.2 14.1-43.5 3 7.3-83.3 43.5-3-1.2 14.1zm77.4-1.2c-2.8-4-6.5-6.4-12-6-5.2.4-10.6 4.7-11.1 10.1-1.2 14 32.7 5.9 30.2 33.8-1.5 16.7-13 29.2-30.2 30.4-11.6.8-19.5-5.2-24.5-14.4l11.5-11c1.7 6.2 7.1 11.6 14.1 11.1 6.7-.5 11.3-6.4 11.9-12.8.8-8.6-7.1-10.5-13.4-12.6-10.4-3.7-17.9-8.5-16.8-21.4 1.2-13.8 12.6-25.7 26.7-26.7 7.5-.5 17.5 2.4 22.2 7.7zm52.5-21.8 16.4-1.1-4.1 46.6c-.9 10.3-1.3 24.7 12.7 23.7s16.1-15.5 17-25.8l4.1-46.6 16.4-1.1-4.3 49.8c-1.8 20.3-11.8 36.3-34.4 37.8-22.6 1.6-29.9-13.2-28.2-33.5zm51-24-18.3 17.7-7.5-4.3 15-19.5zm23.3 16.6 11.8-.8 39.2 55.1h.2l4.9-56 16.4-1.1-7.4 84.9-11.8.8-39.2-55.1h-.2l-4.9 56.5-16.4 1.1zm93.7 78.5-16.4 1.1 7.3-83.3 16.4-1.1zm73.5-65.9c-4.1-5.2-10.7-8-17.8-7.6-15.7 1.1-26 16.1-27.3 30.4-1.2 14 6.9 27.4 22.2 26.3 7-.5 14.4-4.6 19.4-10.1l-1.5 19.4c-6.4 3.3-12.7 5.8-19.5 6.3-23.7 1.7-39.5-17.3-37.5-40.3 2.1-23.6 20.7-45.7 45.4-47.4 6.6-.5 12.9.9 18.3 3.6zm24.3 41.7-8.5 18-17.3 1.2 40.3-87.7 12.7-.9 24.5 83.3-17.5 1.2-4.9-17.1zm17.9-44.5h-.2l-11.9 30.9 20-1.4z"/><path d="m209.2 218.8-1.6 18.3 26.1-1.8-1.2 14.1-26.1 1.8-2 22.5 27.1-1.9-1.2 14.1-43.5 3 7.3-83.3 43.5-3-1.2 14.1zm77.4-1.2c-2.8-4-6.5-6.4-12-6-5.2.4-10.6 4.7-11.1 10.1-1.2 14 32.7 5.9 30.2 33.8-1.5 16.7-13 29.2-30.2 30.4-11.6.8-19.5-5.2-24.5-14.4l11.5-11c1.7 6.2 7.1 11.6 14.1 11.1 6.7-.5 11.3-6.4 11.9-12.8.8-8.6-7.1-10.5-13.4-12.6-10.4-3.7-17.9-8.5-16.8-21.4 1.2-13.8 12.6-25.7 26.7-26.7 7.5-.5 17.5 2.4 22.2 7.7zm52.5-21.8 16.4-1.1-4.1 46.6c-.9 10.3-1.3 24.7 12.7 23.7s16.1-15.5 17-25.8l4.1-46.6 16.4-1.1-4.3 49.8c-1.8 20.3-11.8 36.3-34.4 37.8-22.6 1.6-29.9-13.2-28.2-33.5zm51-24-18.3 17.7-7.5-4.3 15-19.5zm23.3 16.6 11.8-.8 39.2 55.1h.2l4.9-56 16.4-1.1-7.4 84.9-11.8.8-39.2-55.1h-.2l-4.9 56.5-16.4 1.1zm93.7 78.5-16.4 1.1 7.3-83.3 16.4-1.1zm73.5-65.9c-4.1-5.2-10.7-8-17.8-7.6-15.7 1.1-26 16.1-27.3 30.4-1.2 14 6.9 27.4 22.2 26.3 7-.5 14.4-4.6 19.4-10.1l-1.7 19.3c-6.4 3.3-12.7 5.8-19.5 6.3-23.7 1.6-39.4-17.4-37.4-40.3 2.1-23.6 20.7-45.7 45.4-47.4 6.6-.5 12.9.9 18.3 3.6zm24.3 41.7-8.5 18-17.3 1.2 40.3-87.7 12.7-.9 24.5 83.3-17.5 1.2-4.9-17.1zm17.9-44.5h-.2l-11.9 30.9 20-1.4z"/><path d="m208.8 218.2-1.6 18.3 26.1-1.8-1.2 14.1-26.1 1.8-2 22.5 27.1-1.9-1.2 14.1-43.5 3 7.3-83.3 43.5-3-1.2 14.1zm77.4-1.2c-2.8-4-6.5-6.4-12-6-5.2.4-10.6 4.7-11.1 10.1-1.2 14 32.7 5.9 30.2 33.8-1.5 16.7-13 29.2-30.2 30.4-11.6.8-19.5-5.2-24.5-14.4l11.5-11c1.7 6.2 7.1 11.6 14.1 11.1 6.7-.5 11.3-6.4 11.9-12.8.8-8.6-7.1-10.5-13.4-12.6-10.4-3.7-17.9-8.5-16.8-21.4 1.2-13.8 12.6-25.7 26.7-26.7 7.5-.5 17.5 2.4 22.2 7.7zm52.5-21.8 16.4-1.1-4.1 46.6c-.9 10.3-1.3 24.7 12.7 23.7s16.1-15.5 17-25.8l4.1-46.6 16.4-1.1-4.3 49.8c-1.8 20.3-11.8 36.3-34.4 37.8-22.6 1.6-29.9-13.2-28.2-33.5zm51-24-18.3 17.8-7.5-4.3 15-19.5zm23.3 16.6 11.8-.8 39.2 55.1h.2l4.9-56 16.4-1.1-7.4 84.9-11.8.8-39.2-55.1h-.2l-4.9 56.5-16.4 1.1zm93.7 78.5-16.4 1.1 7.3-83.3 16.4-1.1zm73.5-65.9c-4.1-5.2-10.7-8-17.8-7.6-15.7 1.1-26 16.1-27.3 30.4-1.2 14 6.9 27.4 22.2 26.3 7-.5 14.4-4.6 19.4-10.1l-1.7 19.3c-6.4 3.3-12.7 5.8-19.5 6.3-23.7 1.6-39.4-17.4-37.4-40.3 2.1-23.6 20.7-45.7 45.4-47.4 6.6-.5 12.9.9 18.3 3.6zm24.3 41.7-8.5 18-17.3 1.2 40.3-87.7 12.7-.9 24.5 83.3-17.5 1.2-4.9-17.1zm17.9-44.5h-.2l-11.9 30.9 20-1.4z"/><path d="m208.4 217.6-1.6 18.3 26.1-1.8-1.2 14.1-26.1 1.8-2 22.5 27.1-1.9-1.2 14.1-43.5 3 7.3-83.3 43.5-3-1.2 14.1zm77.4-1.2c-2.8-4-6.5-6.4-12-6-5.2.4-10.6 4.7-11.1 10.1-1.2 14 32.7 5.9 30.2 33.8-1.5 16.7-13 29.2-30.2 30.4-11.6.8-19.5-5.2-24.5-14.4l11.5-11c1.7 6.2 7.1 11.6 14.1 11.1 6.7-.5 11.3-6.4 11.9-12.8.8-8.6-7.1-10.5-13.4-12.6-10.4-3.7-17.9-8.5-16.8-21.4 1.2-13.8 12.6-25.7 26.7-26.7 7.5-.5 17.5 2.4 22.2 7.7zm52.5-21.8 16.4-1.1-4.1 46.6c-.9 10.3-1.3 24.7 12.7 23.7s16.1-15.5 17-25.8l4.1-46.6 16.4-1.1-4.3 49.8c-1.8 20.3-11.8 36.3-34.4 37.8-22.6 1.6-29.9-13.2-28.2-33.5zm51-24-18.3 17.8-7.5-4.3 15-19.5zm23.3 16.6 11.8-.8 39.2 55.1h.2l4.9-56 16.4-1.1-7.4 84.9-11.8.8-39.2-55.1h-.2l-4.9 56.5-16.4 1.1zm93.7 78.5-16.4 1.1 7.3-83.3 16.4-1.1zm73.5-65.9c-4.1-5.2-10.7-8-17.8-7.6-15.7 1.1-26 16.1-27.3 30.4-1.2 14 6.9 27.4 22.2 26.3 7-.5 14.4-4.6 19.4-10.1l-1.7 19.3c-6.4 3.3-12.7 5.8-19.5 6.3-23.7 1.6-39.4-17.4-37.4-40.3 2.1-23.6 20.7-45.7 45.4-47.4 6.6-.5 12.9.9 18.3 3.6zm24.3 41.7-8.5 18-17.3 1.2 40.3-87.7 12.7-.9 24.5 83.3-17.5 1.2-4.9-17.1zm17.9-44.5h-.2l-11.9 30.9 20-1.4z"/><path d="m208 217-1.6 18.3 26.1-1.8-1.2 14.1-26.1 1.8-2 22.5 27.1-1.9-1.2 14.1-43.5 3 7.3-83.3 43.5-3-1.2 14.1zm77.4-1.2c-2.8-4-6.5-6.4-12-6-5.2.4-10.6 4.7-11.1 10.1-1.2 14 32.7 5.9 30.2 33.8-1.5 16.7-13 29.2-30.2 30.4-11.6.8-19.5-5.2-24.5-14.4l11.5-11c1.7 6.2 7.1 11.6 14.1 11.1 6.7-.5 11.3-6.4 11.9-12.8.8-8.6-7.1-10.5-13.4-12.6-10.4-3.7-17.9-8.5-16.8-21.4 1.2-13.8 12.6-25.7 26.7-26.7 7.5-.5 17.5 2.4 22.2 7.7zm52.5-21.8 16.4-1.1-4.1 46.6c-.9 10.3-1.3 24.7 12.7 23.7s16.1-15.5 17-25.8l4.1-46.6 16.4-1.1-4.3 49.8c-1.8 20.3-11.8 36.3-34.4 37.8-22.6 1.6-29.9-13.2-28.2-33.5zm51-24-18.3 17.7-7.5-4.3 15-19.5zm23.3 16.6 11.8-.8 39.2 55.1h.2l4.9-56 16.4-1.1-7.4 84.9-11.8.8-39.2-55.1h-.2l-4.9 56.5-16.4 1.1zm93.7 78.5-16.4 1.1 7.3-83.3 16.4-1.1zm73.5-65.9c-4.1-5.2-10.7-8-17.8-7.6-15.7 1.1-26 16.1-27.3 30.4-1.2 14 6.9 27.4 22.2 26.3 7-.5 14.4-4.6 19.4-10.1l-1.7 19.3c-6.4 3.3-12.7 5.8-19.5 6.3-23.7 1.6-39.4-17.4-37.4-40.3 2.1-23.6 20.7-45.7 45.4-47.4 6.6-.5 12.9.9 18.3 3.6zm24.3 41.7-8.5 18-17.3 1.2 40.3-87.7 12.7-.9 24.5 83.3-17.5 1.2-4.9-17.1zm17.9-44.5h-.2l-11.9 30.9 20-1.4z"/><path d="m207.6 216.4-1.6 18.3 26.1-1.8-1.2 14.1-26.1 1.8-2 22.5 27.1-1.9-1.2 14.1-43.5 3 7.3-83.3 43.5-3-1.2 14.1zm77.4-1.2c-2.8-4-6.5-6.4-12-6-5.2.4-10.6 4.7-11.1 10.1-1.2 14 32.7 5.9 30.2 33.8-1.5 16.7-13 29.2-30.2 30.4-11.6.8-19.5-5.2-24.5-14.4l11.5-11c1.7 6.2 7.1 11.6 14.1 11.1 6.7-.5 11.3-6.4 11.9-12.8.8-8.6-7.1-10.5-13.4-12.6-10.4-3.7-17.9-8.5-16.8-21.4 1.2-13.8 12.6-25.7 26.7-26.7 7.5-.5 17.5 2.4 22.2 7.7zm52.5-21.8 16.4-1.1-4.1 46.6c-.9 10.3-1.3 24.7 12.7 23.7s16.1-15.5 17-25.8l4.1-46.6 16.4-1.1-4.3 49.8c-1.8 20.3-11.8 36.3-34.4 37.8-22.6 1.6-29.9-13.2-28.2-33.5zm51-24-18.3 17.7-7.5-4.3 15-19.5zm23.3 16.6 11.8-.8 39.2 55.1h.2l4.9-56 16.4-1.1-7.4 84.9-11.8.8-39.2-55.1h-.2l-4.9 56.5-16.4 1.1zm93.7 78.5-16.4 1.1 7.3-83.3 16.4-1.1zm73.5-65.9c-4.1-5.2-10.7-8-17.8-7.6-15.7 1.1-26 16.1-27.3 30.4-1.2 14 6.9 27.4 22.2 26.3 7-.5 14.4-4.6 19.4-10.1l-1.5 19.4c-6.4 3.3-12.7 5.8-19.5 6.3-23.7 1.7-39.5-17.3-37.5-40.3 2.1-23.6 20.7-45.7 45.4-47.4 6.6-.5 12.9.9 18.3 3.6zm24.3 41.7-8.5 18-17.3 1.2 40.3-87.7 12.7-.9 24.5 83.3-17.5 1.2-4.9-17.1zm17.9-44.5h-.2l-11.9 30.9 20-1.4z"/><path d="m207.2 215.8-1.6 18.3 26.1-1.8-1.2 14.1-26.1 1.8-2 22.5 27.1-1.9-1.2 14.1-43.5 3 7.3-83.3 43.5-3-1.2 14.1zm77.4-1.2c-2.8-4-6.5-6.4-12-6-5.2.4-10.6 4.7-11.1 10.1-1.2 14 32.7 5.9 30.2 33.8-1.5 16.7-13 29.2-30.2 30.4-11.6.8-19.5-5.2-24.5-14.4l11.5-11c1.7 6.2 7.1 11.6 14.1 11.1 6.7-.5 11.3-6.4 11.9-12.8.8-8.6-7.1-10.5-13.4-12.6-10.4-3.7-17.9-8.5-16.8-21.4 1.2-13.8 12.6-25.7 26.7-26.7 7.5-.5 17.5 2.4 22.2 7.7zm52.5-21.8 16.4-1.1-4.1 46.6c-.9 10.3-1.3 24.7 12.7 23.7s16.1-15.5 17-25.8l4.1-46.6 16.4-1.1-4.3 49.8c-1.8 20.3-11.8 36.3-34.4 37.8-22.6 1.6-29.9-13.2-28.2-33.5zm51-24-18.3 17.7-7.5-4.3 15-19.5zm23.3 16.6 11.8-.8 39.2 55.1h.2l4.9-56 16.4-1.1-7.4 84.9-11.8.8-39.2-55.1h-.2l-4.9 56.5-16.4 1.1zm93.7 78.5-16.4 1.1 7.3-83.3 16.4-1.1zm73.5-65.9c-4.1-5.2-10.7-8-17.8-7.6-15.7 1.1-26 16.1-27.3 30.4-1.2 14 6.9 27.4 22.2 26.3 7-.5 14.4-4.6 19.4-10.1l-1.7 19.3c-6.4 3.3-12.7 5.8-19.5 6.3-23.7 1.6-39.4-17.4-37.4-40.3 2.1-23.6 20.7-45.7 45.4-47.4 6.6-.5 12.9.9 18.3 3.6zm24.3 41.7-8.5 18-17.3 1.2 40.3-87.7 12.7-.9 24.5 83.3-17.5 1.2-4.9-17.1zm17.9-44.5h-.2l-11.9 30.9 20-1.4z"/><path d="m206.8 215.2-1.6 18.3 26.1-1.8-1.2 14.1-26.1 1.8-2 22.5 27.1-1.9-1.2 14.1-43.5 3 7.3-83.3 43.5-3-1.2 14.1zm77.4-1.2c-2.8-4-6.5-6.4-12-6-5.2.4-10.6 4.7-11.1 10.1-1.2 14 32.7 5.9 30.2 33.8-1.5 16.7-13 29.2-30.2 30.4-11.6.8-19.5-5.2-24.5-14.4l11.5-11c1.7 6.2 7.1 11.6 14.1 11.1 6.7-.5 11.3-6.4 11.9-12.8.8-8.6-7.1-10.5-13.4-12.6-10.4-3.7-17.9-8.5-16.8-21.4 1.2-13.8 12.6-25.7 26.7-26.7 7.5-.5 17.5 2.4 22.2 7.7zm52.5-21.8 16.4-1.1-4.1 46.6c-.9 10.3-1.3 24.7 12.7 23.7s16.1-15.5 17-25.8l4.1-46.6 16.4-1.1-4.3 49.8c-1.8 20.3-11.8 36.3-34.4 37.8-22.6 1.6-29.9-13.2-28.2-33.5zm51-24-18.3 17.8-7.5-4.3 15-19.5zm23.3 16.6 11.8-.8 39.2 55.1h.2l4.9-56 16.4-1.1-7.4 84.9-11.8.8-39.2-55.1h-.2l-4.9 56.5-16.4 1.1zm93.7 78.5-16.4 1.1 7.3-83.3 16.4-1.1zm73.5-65.9c-4.1-5.2-10.7-8-17.8-7.6-15.7 1.1-26 16.1-27.3 30.4-1.2 14 6.9 27.4 22.2 26.3 7-.5 14.4-4.6 19.4-10.1l-1.7 19.3c-6.4 3.3-12.7 5.8-19.5 6.3-23.7 1.6-39.4-17.4-37.4-40.3 2.1-23.6 20.7-45.7 45.4-47.4 6.6-.5 12.9.9 18.3 3.6zm24.3 41.7-8.5 18-17.3 1.2 40.3-87.7 12.7-.9 24.5 83.3-17.5 1.2-4.9-17.1zm17.9-44.5h-.2l-11.9 30.9 20-1.4z"/><path d="m206.4 214.6-1.6 18.3 26.1-1.8-1.2 14.1-26.1 1.8-2 22.5 27.1-1.9-1.2 14.1-43.5 3 7.3-83.3 43.5-3-1.2 14.1zm77.4-1.2c-2.8-4-6.5-6.4-12-6-5.2.4-10.6 4.7-11.1 10.1-1.2 14 32.7 5.9 30.2 33.8-1.5 16.7-13 29.2-30.2 30.4-11.6.8-19.5-5.2-24.5-14.4l11.5-11c1.7 6.2 7.1 11.6 14.1 11.1 6.7-.5 11.3-6.4 11.9-12.8.8-8.6-7.1-10.5-13.4-12.6-10.4-3.7-17.9-8.5-16.8-21.4 1.2-13.8 12.6-25.7 26.7-26.7 7.5-.5 17.5 2.4 22.2 7.7zm52.5-21.8 16.4-1.1-4.1 46.6c-.9 10.3-1.3 24.7 12.7 23.7s16.1-15.5 17-25.8l4.1-46.6 16.4-1.1-4.3 49.8c-1.8 20.3-11.8 36.3-34.4 37.8-22.6 1.6-29.9-13.2-28.2-33.5zm51-24-18.3 17.8-7.5-4.3 15-19.5zm23.3 16.6 11.8-.8 39.2 55.1h.2l4.9-56 16.4-1.1-7.4 84.9-11.8.8-39.2-55.1h-.2l-4.9 56.5-16.4 1.1zm93.7 78.5-16.4 1.1 7.3-83.3 16.4-1.1zm73.5-65.9c-4.1-5.2-10.7-8-17.8-7.6-15.7 1.1-26 16.1-27.3 30.4-1.2 14 6.9 27.4 22.2 26.3 7-.5 14.4-4.6 19.4-10.1l-1.7 19.3c-6.4 3.3-12.7 5.8-19.5 6.3-23.7 1.6-39.4-17.4-37.4-40.3 2.1-23.6 20.7-45.7 45.4-47.4 6.6-.5 12.9.9 18.3 3.6zm24.3 41.7-8.5 18-17.3 1.2 40.3-87.7 12.7-.9 24.5 83.3-17.5 1.2-4.9-17.1zm17.9-44.5h-.2l-11.9 30.9 20-1.4z"/><path d="m206 214-1.6 18.3 26.1-1.8-1.2 14.1-26.1 1.8-2 22.5 27.1-1.9-1.2 14.1-43.5 3 7.3-83.3 43.5-3-1.2 14.1zm77.4-1.2c-2.8-4-6.5-6.4-12-6-5.2.4-10.6 4.7-11.1 10.1-1.2 14 32.7 5.9 30.2 33.8-1.5 16.7-13 29.2-30.2 30.4-11.6.8-19.5-5.2-24.5-14.4l11.5-11c1.7 6.2 7.1 11.6 14.1 11.1 6.7-.5 11.3-6.4 11.9-12.8.8-8.6-7.1-10.5-13.4-12.6-10.4-3.7-17.9-8.5-16.8-21.4 1.2-13.8 12.6-25.7 26.7-26.7 7.5-.5 17.5 2.4 22.2 7.7zm52.5-21.8 16.4-1.1-4.1 46.6c-.9 10.3-1.3 24.7 12.7 23.7s16.1-15.5 17-25.8l4.1-46.6 16.4-1.1-4.3 49.8c-1.8 20.3-11.8 36.3-34.4 37.8-22.6 1.6-29.9-13.2-28.2-33.5zm51-24-18.3 17.7-7.5-4.3 15-19.5zm23.3 16.6 11.8-.8 39.2 55.1h.2l4.9-56 16.4-1.1-7.4 84.9-11.8.8-39.2-55.1h-.2l-4.9 56.5-16.4 1.1zm93.7 78.5-16.4 1.1 7.3-83.3 16.4-1.1zm73.5-65.9c-4.1-5.2-10.7-8-17.8-7.6-15.7 1.1-26 16.1-27.3 30.4-1.2 14 6.9 27.4 22.2 26.3 7-.5 14.4-4.6 19.4-10.1l-1.7 19.3c-6.4 3.3-12.7 5.8-19.5 6.3-23.7 1.6-39.4-17.4-37.4-40.3 2.1-23.6 20.7-45.7 45.4-47.4 6.6-.5 12.9.9 18.3 3.6zm24.3 41.7-8.5 18-17.3 1.2 40.3-87.7 12.7-.9 24.5 83.3-17.5 1.2-4.9-17.1zm17.9-44.5h-.2l-11.9 30.9 20-1.4z"/><path d="m205.6 213.4-1.6 18.3 26.1-1.8-1.2 14.1-26.1 1.8-2 22.5 27.1-1.9-1.2 14.1-43.5 3 7.3-83.3 43.5-3-1.2 14.1zm77.4-1.2c-2.8-4-6.5-6.4-12-6-5.2.4-10.6 4.7-11.1 10.1-1.2 14 32.7 5.9 30.2 33.8-1.5 16.7-13 29.2-30.2 30.4-11.6.8-19.5-5.2-24.5-14.4l11.5-11c1.7 6.2 7.1 11.6 14.1 11.1 6.7-.5 11.3-6.4 11.9-12.8.8-8.6-7.1-10.5-13.4-12.6-10.4-3.7-17.9-8.5-16.8-21.4 1.2-13.8 12.6-25.7 26.7-26.7 7.5-.5 17.5 2.4 22.2 7.7zm52.5-21.8 16.4-1.1-4.1 46.6c-.9 10.3-1.3 24.7 12.7 23.7s16.1-15.5 17-25.8l4.1-46.6 16.4-1.1-4.3 49.8c-1.8 20.3-11.8 36.3-34.4 37.8-22.6 1.6-29.9-13.2-28.2-33.5zm51-24-18.3 17.7-7.5-4.3 15-19.5zm23.3 16.6 11.8-.8 39.2 55.1h.2l4.9-56 16.4-1.1-7.4 84.9-11.8.8-39.2-55.1h-.2l-4.9 56.5-16.4 1.1zm93.7 78.5-16.4 1.1 7.3-83.3 16.4-1.1zm73.5-65.9c-4.1-5.2-10.7-8-17.8-7.6-15.7 1.1-26 16.1-27.3 30.4-1.2 14 6.9 27.4 22.2 26.3 7-.5 14.4-4.6 19.4-10.1l-1.5 19.4c-6.4 3.3-12.7 5.8-19.5 6.3-23.7 1.7-39.5-17.3-37.5-40.3 2.1-23.6 20.7-45.7 45.4-47.4 6.6-.5 12.9.9 18.3 3.6zm24.3 41.7-8.5 18-17.3 1.2 40.3-87.7 12.7-.9 24.5 83.3-17.5 1.2-4.9-17.1zm17.9-44.5h-.2l-11.9 30.9 20-1.4z"/><path d="m205.2 212.8-1.6 18.3 26.1-1.8-1.2 14.1-26.1 1.8-2 22.5 27.1-1.9-1.2 14.1-43.5 3 7.3-83.3 43.5-3-1.2 14.1zm77.4-1.2c-2.8-4-6.5-6.4-12-6-5.2.4-10.6 4.7-11.1 10.1-1.2 14 32.7 5.9 30.2 33.8-1.5 16.7-13 29.2-30.2 30.4-11.6.8-19.5-5.2-24.5-14.4l11.5-11c1.7 6.2 7.1 11.6 14.1 11.1 6.7-.5 11.3-6.4 11.9-12.8.8-8.6-7.1-10.5-13.4-12.6-10.4-3.7-17.9-8.5-16.8-21.4 1.2-13.8 12.6-25.7 26.7-26.7 7.5-.5 17.5 2.4 22.2 7.7zm52.5-21.8 16.4-1.1-4.1 46.6c-.9 10.3-1.3 24.7 12.7 23.7s16.1-15.5 17-25.8l4.1-46.6 16.4-1.1-4.3 49.8c-1.8 20.3-11.8 36.3-34.4 37.8-22.6 1.6-29.9-13.2-28.2-33.5zm51-24-18.3 17.7-7.5-4.3 15-19.5zm23.3 16.6 11.8-.8 39.2 55.1h.2l4.9-56 16.4-1.1-7.4 84.9-11.8.8-39.2-55.1h-.2l-4.9 56.5-16.4 1.1zm93.7 78.5-16.4 1.1 7.3-83.3 16.4-1.1zm73.5-65.9c-4.1-5.2-10.7-8-17.8-7.6-15.7 1.1-26 16.1-27.3 30.4-1.2 14 6.9 27.4 22.2 26.3 7-.5 14.4-4.6 19.4-10.1l-1.7 19.3c-6.4 3.3-12.7 5.8-19.5 6.3-23.7 1.6-39.4-17.4-37.4-40.3 2.1-23.6 20.7-45.7 45.4-47.4 6.6-.5 12.9.9 18.3 3.6zm24.3 41.7-8.5 18-17.3 1.2 40.3-87.7 12.7-.9 24.5 83.3-17.5 1.2-4.9-17.1zm17.9-44.5h-.2l-11.9 30.9 20-1.4z"/><path d="m204.8 212.2-1.6 18.3 26.1-1.8-1.2 14.1-26.1 1.8-2 22.5 27.1-1.9-1.2 14.1-43.5 3 7.3-83.3 43.5-3-1.2 14.1zm77.4-1.2c-2.8-4-6.5-6.4-12-6-5.2.4-10.6 4.7-11.1 10.1-1.2 14 32.7 5.9 30.2 33.8-1.5 16.7-13 29.2-30.2 30.4-11.6.8-19.5-5.2-24.5-14.4l11.5-11c1.7 6.3 7.1 11.6 14.1 11.1 6.7-.5 11.3-6.4 11.9-12.8.8-8.6-7.1-10.5-13.4-12.6-10.4-3.7-17.9-8.5-16.8-21.4 1.2-13.8 12.6-25.7 26.7-26.7 7.5-.5 17.5 2.4 22.2 7.7zm52.5-21.8 16.4-1.1-4.1 46.6c-.9 10.3-1.3 24.7 12.7 23.7s16.1-15.5 17-25.8l4.1-46.6 16.4-1.1-4.3 49.8c-1.8 20.3-11.8 36.3-34.4 37.8-22.6 1.6-29.9-13.2-28.2-33.5zm51-24-18.3 17.8-7.5-4.3 15-19.5zm23.3 16.6 11.8-.8 39.2 55.1h.2l4.9-56 16.4-1.1-7.4 84.9-11.8.8-39.2-55.1h-.2l-4.9 56.5-16.4 1.1zm93.7 78.5-16.4 1.1 7.3-83.3 16.4-1.1zm73.5-65.9c-4.1-5.2-10.7-8-17.8-7.6-15.7 1.1-26 16.1-27.3 30.4-1.2 14 6.9 27.4 22.2 26.3 7-.5 14.4-4.6 19.4-10.1l-1.7 19.3c-6.4 3.3-12.7 5.8-19.5 6.3-23.7 1.6-39.4-17.4-37.4-40.3 2.1-23.6 20.7-45.7 45.4-47.4 6.6-.5 12.9.9 18.3 3.6zm24.3 41.7-8.5 18-17.3 1.2 40.3-87.7 12.7-.9 24.5 83.3-17.5 1.2-4.9-17.1zm17.9-44.5h-.2l-11.9 30.9 20-1.4z"/><path d="m204.4 211.6-1.6 18.3 26.1-1.8-1.2 14.1-26.1 1.8-2 22.5 27.1-1.9-1.2 14.1-43.5 3 7.3-83.3 43.5-3-1.2 14.1zm77.4-1.2c-2.8-4-6.5-6.4-12-6-5.2.4-10.6 4.7-11.1 10.1-1.2 14 32.7 5.9 30.2 33.8-1.5 16.7-13 29.2-30.2 30.4-11.6.8-19.5-5.2-24.5-14.4l11.5-11c1.7 6.2 7.1 11.6 14.1 11.1 6.7-.5 11.3-6.4 11.9-12.8.8-8.6-7.1-10.5-13.4-12.6-10.4-3.7-17.9-8.5-16.8-21.4 1.2-13.8 12.6-25.7 26.7-26.7 7.5-.5 17.5 2.4 22.2 7.7zm52.5-21.8 16.4-1.1-4.1 46.6c-.9 10.3-1.3 24.7 12.7 23.7s16.1-15.5 17-25.8l4.1-46.6 16.4-1.1-4.3 49.8c-1.8 20.3-11.8 36.3-34.4 37.8-22.6 1.6-29.9-13.2-28.2-33.5zm51-24-18.3 17.8-7.5-4.3 15-19.5zm23.3 16.6 11.8-.8 39.2 55.1h.2l4.9-56 16.4-1.1-7.4 84.9-11.8.8-39.2-55.1h-.2l-4.9 56.5-16.4 1.1zm93.7 78.5-16.4 1.1 7.3-83.3 16.4-1.1zm73.5-65.9c-4.1-5.2-10.7-8-17.8-7.6-15.7 1.1-26 16.1-27.3 30.4-1.2 14 6.9 27.4 22.2 26.3 7-.5 14.4-4.6 19.4-10.1l-1.7 19.3c-6.4 3.3-12.7 5.8-19.5 6.3-23.7 1.6-39.4-17.4-37.4-40.3 2.1-23.6 20.7-45.7 45.4-47.4 6.6-.5 12.9.9 18.3 3.6zm24.3 41.7-8.5 18-17.3 1.2 40.3-87.7 12.7-.9 24.5 83.3-17.5 1.2-4.9-17.1zm17.9-44.5h-.2l-11.9 30.9 20-1.4z"/><path d="m204 211-1.6 18.3 26.1-1.8-1.2 14.1-26.1 1.8-2 22.5 27.1-1.9-1.2 14.1-43.5 3 7.3-83.3 43.5-3-1.2 14.1zm77.4-1.2c-2.8-4-6.5-6.4-12-6-5.2.4-10.6 4.7-11.1 10.1-1.2 14 32.7 5.9 30.2 33.8-1.5 16.7-13 29.2-30.2 30.4-11.6.8-19.5-5.2-24.5-14.4l11.5-11c1.7 6.2 7.1 11.6 14.1 11.1 6.7-.5 11.3-6.4 11.9-12.8.8-8.6-7.1-10.5-13.4-12.6-10.4-3.7-17.9-8.5-16.8-21.4 1.2-13.8 12.6-25.7 26.7-26.7 7.5-.5 17.5 2.4 22.2 7.7zm52.5-21.8 16.4-1.1-4.1 46.6c-.9 10.3-1.3 24.7 12.7 23.7s16.1-15.5 17-25.8l4.1-46.6 16.4-1.1-4.3 49.8c-1.8 20.3-11.8 36.3-34.4 37.8-22.6 1.6-29.9-13.2-28.2-33.5zm51-24-18.3 17.7-7.5-4.3 15-19.5zm23.3 16.6 11.8-.8 39.2 55.1h.2l4.9-56 16.4-1.1-7.4 84.9-11.8.8-39.2-55.1h-.2l-4.9 56.5-16.4 1.1zm93.7 78.5-16.4 1.1 7.3-83.3 16.4-1.1zm73.5-65.9c-4.1-5.2-10.7-8-17.8-7.6-15.7 1.1-26 16.1-27.3 30.4-1.2 14 6.9 27.4 22.2 26.3 7-.5 14.4-4.6 19.4-10.1l-1.7 19.3c-6.4 3.3-12.7 5.8-19.5 6.3-23.7 1.6-39.4-17.4-37.4-40.3 2.1-23.6 20.7-45.7 45.4-47.4 6.6-.5 12.9.9 18.3 3.6zm24.3 41.7-8.5 18-17.3 1.2 40.3-87.7 12.7-.9 24.5 83.3-17.5 1.2-4.9-17.1zm17.9-44.5h-.2l-11.9 30.9 20-1.4z"/></g><path d="m204 210.9-1.6 18.3 26.1-1.8-1.2 14.1-26.1 1.8-2 22.5 27.1-1.9-1.2 14.1-43.5 3 7.3-83.3 43.5-3-1.2 14.1zm77.3-1.2c-2.8-4-6.5-6.4-12-6-5.2.4-10.6 4.7-11.1 10.1-1.2 14 32.7 5.9 30.2 33.8-1.5 16.7-13 29.2-30.2 30.4-11.6.8-19.5-5.2-24.5-14.4l11.5-11c1.7 6.2 7.1 11.6 14.1 11.1 6.7-.5 11.3-6.4 11.9-12.8.8-8.6-7.1-10.5-13.4-12.6-10.4-3.7-17.9-8.5-16.8-21.4 1.2-13.8 12.6-25.7 26.7-26.7 7.5-.5 17.5 2.4 22.2 7.7zm52.5-21.8 16.4-1.1-4.1 46.6c-.9 10.3-1.3 24.7 12.7 23.7s16.1-15.5 17-25.8l4.1-46.6 16.4-1.1-4.3 49.8c-1.8 20.3-11.8 36.3-34.4 37.8-22.6 1.6-29.9-13.2-28.1-33.5zm51-24-18.3 17.7-7.5-4.3 15-19.5zm23.3 16.6 11.8-.8 39.2 55.1h.2l4.9-56 16.4-1.1-7.4 84.9-11.8.8-39.2-55.1h-.2l-4.9 56.5-16.4 1.1zm93.7 78.5-16.4 1.1 7.3-83.3 16.4-1.1zm73.6-65.9c-4.1-5.2-10.7-8-17.8-7.6-15.7 1.1-26 16.1-27.3 30.4-1.2 14 6.9 27.4 22.2 26.3 7-.5 14.4-4.6 19.4-10.1l-1.7 19.3c-6.4 3.3-12.7 5.8-19.5 6.3-23.7 1.6-39.4-17.4-37.4-40.3 2.1-23.6 20.7-45.7 45.4-47.4 6.6-.5 12.9.9 18.3 3.6zm24.2 41.7-8.5 18-17.3 1.2 40.3-87.7 12.7-.9 24.5 83.3-17.5 1.2-4.9-17.1zm18-44.5h-.2l-11.9 30.9 20-1.4z" fill="#fff"/><path d="m188.3 358.7 9.6-.7.2 2.5-6.8.5.2 2.6 6-.4.2 2.5-6 .4.2 2.7 6.9-.5.2 2.5-9.7.7zm12.2-.8 2.8-.2.7 10.2 6.3-.4.2 2.5-9.1.6zm11.2-.8 9.6-.7.2 2.5-6.8.5.2 2.6 6-.4.2 2.5-6 .4.2 2.7 6.9-.5.2 2.5-9.7.7zm12.1 5.6c-.3-3.7 2.4-6.8 6.2-7.1 2.3-.2 3.7.4 5.1 1.4l-1.6 2.3c-1-.8-1.9-1.2-3.4-1.1-2 .1-3.5 2.1-3.4 4.2.2 2.3 1.9 3.9 4.1 3.8 1-.1 1.9-.4 2.6-.9l-.1-1.8-2.8.2-.2-2.4 5.5-.4.4 5.5c-1.2 1.2-3 2.2-5.3 2.4-3.9.2-6.8-2.4-7.1-6.1zm14.5-7.5 2.8-.2.9 12.7-2.8.2zm2.2-4 2.5.9-2.3 2-2.1.1zm13.6 2.8 2.6-.2 6.3 12.4-2.9.2-1.4-2.8-5.4.4-1 2.9-2.9.2zm3.4 7.3-2-4-1.4 4.2zm12-8.2 2.8-.2.7 10.1 6.3-.4.2 2.5-9.1.6zm10.4 5.7c-.3-3.7 2.4-6.8 6.3-7.1s6.9 2.5 7.2 6.1-2.4 6.8-6.3 7.1-6.9-2.5-7.2-6.1zm10.6-.8c-.2-2.2-1.9-3.9-4.1-3.8-2.3.2-3.7 2-3.5 4.2s1.9 3.9 4.1 3.7c2.2 0 3.7-1.9 3.5-4.1zm4.8 4.2 1.5-2.1c1.2.9 2.5 1.4 3.9 1.3 1.1-.1 1.8-.6 1.8-1.3s-.5-1-2.7-1.4c-2.6-.5-4.3-1.1-4.5-3.6-.2-2.3 1.6-4 4.2-4.1 1.9-.1 3.5.3 4.8 1.3l-1.3 2.2c-1.2-.7-2.3-1.1-3.4-1s-1.6.6-1.6 1.2c.1.8.6 1.1 2.9 1.5 2.6.5 4.1 1.3 4.3 3.5.2 2.5-1.7 4.1-4.4 4.3-1.9 0-3.9-.6-5.5-1.8zm17.2-12.1 3-.2 3.7 5.1 3-5.6 3-.2.9 12.7-2.8.2-.6-8.3-3.2 5.7h-.1l-3.9-5.1.6 8.3-2.7.2zm15.8-1.1 9.6-.7.2 2.5-6.8.5.2 2.6 6-.4.2 2.5-6 .4.2 2.7 6.9-.5.2 2.5-9.7.7zm11.6 10.2 1.6-2.1c.8.7 1.5 1.2 2.4 1.1 1.1-.1 1.7-.8 1.6-2.2l-.6-8.2 2.9-.2.6 8.3c.1 1.5-.3 2.7-1 3.5s-1.8 1.3-3.2 1.4c-2 .1-3.3-.6-4.3-1.6zm10.7-5.4c-.3-3.7 2.4-6.8 6.3-7.1s6.9 2.5 7.2 6.1-2.4 6.8-6.3 7.1c-4 .3-7-2.5-7.2-6.1zm10.6-.7c-.2-2.2-1.9-3.9-4.1-3.8-2.3.2-3.7 2-3.5 4.2s1.9 3.9 4.1 3.7c2.2 0 3.6-1.9 3.5-4.1zm4.9-6.8 5.8-.4c1.6-.1 2.9.3 3.8 1 .8.7 1.2 1.6 1.3 2.8.1 2.1-.9 3.4-2.5 4.1l3.4 4.3-3.3.2-3-3.9-2.2.2.3 4.1-2.7.3zm6.1 5.8c1.4-.1 2.1-.9 2-2-.1-1.2-1-1.8-2.3-1.7l-2.8.2.3 3.7zm7.1-6.7 9.6-.7.2 2.5-6.8.5.2 2.6 6-.4.2 2.5-6 .4.2 2.7 6.9-.5.2 2.5-9.7.7zm12 10.1 1.5-2.1c1.2.9 2.5 1.4 3.9 1.3 1.1-.1 1.8-.6 1.8-1.3s-.5-1-2.7-1.4c-2.6-.5-4.3-1.1-4.5-3.6-.2-2.3 1.6-4 4.2-4.1 1.9-.1 3.5.3 4.8 1.3l-1.3 2.2c-1.2-.7-2.3-1.1-3.4-1s-1.6.6-1.6 1.2c.1.8.6 1.1 2.9 1.5 2.6.5 4.1 1.3 4.3 3.5.2 2.5-1.7 4.1-4.4 4.3-1.9 0-3.8-.6-5.5-1.8zm21.3-4.7-5.4-7.4 3.3-.2 3.4 4.9 2.7-5.3 3.2-.2-4.4 8 .4 5.1-2.8.2zm14.4-8.8 5.2-.4c3-.2 5 1.5 5.2 4.1.2 2.9-2 4.6-4.8 4.8l-2.1.1.3 3.8-2.8.2zm5.5 6.1c1.4-.1 2.2-1 2.1-2.1-.1-1.3-1-1.9-2.4-1.8l-2.2.2.3 3.9zm9.7-7.2 2.6-.2 6.3 12.4-2.9.2-1.4-2.8-5.4.4-1 2.9-2.9.2zm3.5 7.3-2-4-1.4 4.2zm6.5-7.9 5.8-.4c1.6-.1 2.9.3 3.8 1 .8.7 1.2 1.6 1.3 2.8.1 2.1-.9 3.4-2.5 4.1l3.4 4.3-3.3.2-3-3.9-2.2.2.3 4.1-2.8.2zm6.1 5.8c1.4-.1 2.1-.9 2-2-.1-1.2-1-1.8-2.3-1.7l-2.8.2.3 3.7zm10.2-4.4-3.9.3-.2-2.6 10.5-.7.2 2.6-3.9.3.7 10.1-2.8.2zm8.8-3.2 2.8-.2.9 12.7-2.8.2zm5.8 6.1c-.3-3.7 2.3-6.8 6.2-7.1 2.4-.2 3.9.5 5.2 1.6l-1.6 2.2c-1-.8-2.1-1.3-3.4-1.2-2.1.1-3.6 2-3.4 4.2s1.8 3.9 4 3.7c1.5-.1 2.3-.7 3.2-1.7l1.9 1.7c-1.2 1.5-2.6 2.5-5.1 2.6-3.7.3-6.7-2.4-7-6zm13.7-7.4 2.8-.2.9 12.7-2.8.2zm5.9-.4 5.2-.4c3-.2 5 1.5 5.2 4.1.2 2.9-2 4.6-4.8 4.8l-2.1.1.3 3.8-2.8.2zm5.5 6c1.4-.1 2.2-1 2.1-2.1-.1-1.3-1-1.9-2.4-1.8l-2.2.2.3 3.9zm9.8-7.2 2.6-.2 6.3 12.4-2.9.2-1.4-2.8-5.4.4-1 2.9-2.9.2zm2.1-4.1 2.5.9-2.3 2-2.1.1zm1.3 11.4-2-4-1.4 4.2zm12-8.3 5.2-.4c3-.2 5 1.5 5.2 4.1.2 2.9-2 4.6-4.8 4.8l-2.1.1.3 3.8-2.8.2zm5.5 6.1c1.4-.1 2.2-1 2.1-2.1-.1-1.3-1-1.9-2.4-1.8l-2.2.2.3 3.9zm6.5-.5c-.3-3.7 2.4-6.8 6.3-7.1s6.9 2.5 7.2 6.1-2.4 6.8-6.3 7.1-6.9-2.5-7.2-6.1zm10.6-.7c-.2-2.2-1.9-3.9-4.1-3.8-2.3.2-3.7 2-3.5 4.2s1.9 3.9 4.1 3.7c2.3-.1 3.7-2 3.5-4.1zm5-6.8 5.8-.4c1.6-.1 2.9.3 3.8 1 .8.7 1.2 1.6 1.3 2.8.1 2.1-.9 3.4-2.5 4.1l3.4 4.3-3.3.2-3-3.9-2.2.2.3 4.1-2.8.2zm6.1 5.8c1.4-.1 2.1-.9 2-2-.1-1.2-1-1.8-2.3-1.7l-2.8.2.3 3.7zm12.8.2-.5-7.3 2.8-.2.5 7.2c.1 2.1 1.3 3.1 3 3s2.7-1.2 2.5-3.2l-.5-7.3 2.8-.2.5 7.2c.3 3.9-1.8 5.9-5.2 6.1s-5.6-1.6-5.9-5.3zm13.4-8.3 2.6-.2 6.5 7.4-.5-7.8 2.8-.2.9 12.7-2.4.2-6.7-7.7.6 8.1-2.8.2zm18.7-1.4 2.6-.2 6.3 12.4-2.9.2-1.4-2.8-5.4.4-1 2.9-2.9.2zm3.5 7.3-2-4-1.4 4.2zm12-8.3 5.9-.4c1.5-.1 2.6.2 3.4.9.6.5 1 1.2 1 2.1.1 1.4-.6 2.3-1.5 2.9 1.5.5 2.5 1.3 2.6 3 .2 2.3-1.6 3.6-4.5 3.8l-6.1.4zm7.6 3.3c-.1-.8-.7-1.3-1.9-1.2l-2.8.2.2 2.7 2.6-.2c1.2-.1 2-.5 1.9-1.5zm-1.1 3.8-3.2.2.2 2.8 3.3-.2c1.2-.1 2-.6 1.9-1.5s-.8-1.4-2.2-1.3zm6.7-8 2.8-.2.9 12.7-2.8.2zm5.9 6c-.3-3.7 2.3-6.8 6.2-7.1 2.4-.2 3.9.5 5.2 1.6l-1.6 2.2c-1-.8-2.1-1.3-3.4-1.2-2.1.1-3.6 2-3.4 4.2s1.8 3.9 4 3.7c1.5-.1 2.3-.7 3.2-1.7l1.9 1.7c-1.2 1.5-2.6 2.5-5.1 2.6-3.8.4-6.7-2.3-7-6zm13.7-7.4 2.8-.2.9 12.7-2.8.2z" fill="#fd7301"/></svg>