<svg enable-background="new 0 0 328.7 107.6" viewBox="0 0 328.7 107.6" xmlns="http://www.w3.org/2000/svg"><path d="m72.5 18.7c0-1.7-1.3-3-3-3h-67.4c-1.6 0-2.5 1.2-1.8 2.8l17 40.4c.6 1.5.6 4 0 5.5l-17 40.4c-.6 1.5.2 2.8 1.8 2.8h67.5c1.7 0 3-1.4 3-3v-85.9zm183.6 85.9c0 1.7 1.4 3 3 3h67.5c1.6 0 2.5-1.2 1.8-2.8l-17-40.4c-.6-1.5-.6-4 0-5.5l17-40.4c.6-1.5-.2-2.8-1.8-2.8h-67.5c-1.6 0-3 1.4-3 3z" fill="#0078ce"/><path d="m292.9 88.9c0 1.7-1.4 3-3 3h-251.1c-1.7 0-3-1.3-3-3v-85.9c0-1.6 1.4-3 3-3h251.1c1.6 0 3 1.4 3 3z" fill="#0270ce"/><text fill="#fff" font-family="'Gotham-Black'" font-size="21" transform="translate(64.752 53.428)">EMPEZÁ A VOTAR</text><path d="m72.5 104.6c0 1.6-1.2 2.5-2.8 1.8l-31.1-13.3c-1.5-.6-1.4-1.2.2-1.2h30.7c1.7 0 3 1.3 3 3zm183.6 0c0 1.6 1.2 2.5 2.8 1.8l31.2-13.3c1.5-.6 1.4-1.2-.2-1.2h-30.7c-1.6 0-3 1.3-3 3v9.7z" fill="#0093ce"/></svg>