<svg height="333" viewBox="0 0 378 333" width="378" xmlns="http://www.w3.org/2000/svg"><svg height="21.81" viewBox="-6 -6 110.84 21.81" width="110.84" x="232.41" y="191.13"><path d="m4.182 9.817a2.96 2.96 0 0 0 2.674-1.35l.134 1.16h1.558v-5.1h-3.95v1.648h1.962v.108a1.814 1.814 0 0 1 -1.975 1.782c-1.53 0-2.378-.756-2.378-3.16s.833-3.09 2.35-3.09a1.856 1.856 0 0 1 1.923 1.135l1.76-.946c-.62-1.417-1.815-2.01-3.67-2.01-3.05 0-4.58 1.47-4.58 4.9 0 3.343 1.57 4.923 4.19 4.923zm7.04-.19h7.347v-1.74h-5.2v-2.147h4.378v-1.755h-4.38v-2.065h5.066v-1.74h-7.213v9.45zm8.8-9.448v1.861h2.878v7.59h2.2v-7.586h2.875v-1.862h-7.955zm20.37 1.578a3.586 3.586 0 0 0 -3.522-1.767c-2.352 0-3.534 1.147-3.534 2.807 0 1.3.78 2.4 2.9 2.93l.873.216c1.076.256 1.385.512 1.385 1.147 0 .742-.55 1.147-1.733 1.147a2.52 2.52 0 0 1 -2.338-1.31l-1.437 1.067a4.03 4.03 0 0 0 3.815 1.823c2.445 0 3.815-1.026 3.815-2.876 0-1.375-.86-2.293-2.982-2.806l-.833-.2c-1.088-.256-1.45-.675-1.45-1.2 0-.607.375-1.066 1.544-1.066a2.177 2.177 0 0 1 2.015 1.091zm1.693-1.58v1.864h2.875v7.59h2.2v-7.587h2.875v-1.862h-7.953zm15.02 9.45h2.264l-3.185-9.449h-2.66l-3.184 9.452h2.19l.47-1.487h3.628zm-2.3-7.3 1.3 4.13h-2.605zm6.586 7.3h2.163v-3.1h1.868l1.425 3.1h2.424l-1.694-3.523a3.176 3.176 0 0 0 -1.6-5.926h-4.58v9.45zm4.219-7.627a1.214 1.214 0 0 1 1.36 1.337 1.274 1.274 0 0 1 -1.4 1.418h-2.017v-2.755h2.056zm4.983-1.82v1.86h2.875v7.59h2.2v-7.586h2.874v-1.862h-7.952zm10.064 9.448h7.348v-1.742h-5.2v-2.146h4.38v-1.755h-4.38v-2.065h5.065v-1.74h-7.213v9.45zm13.6-1.782c1.45 0 2.364-.743 2.364-2.97 0-2.065-.766-2.915-2.176-2.915h-1.72v5.886h1.532zm-3.735 1.782v-9.45h4.046c2.914 0 4.27 1.46 4.27 4.658 0 3.172-1.423 4.792-4.42 4.792h-3.9z" fill="#fff" fill-rule="evenodd"/></svg><svg height="98.5" viewBox="-6 -6 186 98.5" width="186" y="121.28"><path d="m8.327 18.344c3.24 0 5.28-1.652 5.28-6.606 0-4.594-1.71-6.486-4.86-6.486h-3.84v13.092zm-8.34 3.963v-21.024h9.03c6.51 0 9.54 3.243 9.54 10.36 0 7.056-3.18 10.66-9.87 10.66h-8.7zm32.64-7.446c0 3.124-1.05 4.385-3.33 4.385-2.31 0-3.36-1.26-3.36-4.384 0-3.092.99-4.323 3.36-4.323 2.34-.005 3.33 1.226 3.33 4.32zm-11.16-.03c0 5.346 2.67 7.9 7.83 7.9 5.13 0 7.83-2.642 7.83-7.9 0-5.404-2.58-7.837-7.83-7.837-4.92-.005-7.83 2.458-7.83 7.833zm18.99-7.446v14.923h4.74v-7.328c.03-2.582 1.35-3.873 3.27-3.873 1.74 0 2.64.84 2.64 3.423v7.777h4.74v-9.373c0-3.573-1.68-5.946-5.55-5.946a6.07 6.07 0 0 0 -5.52 3.093l-.39-2.7h-3.925zm18.57 1.47c2.7-.69 4.17-2.82 4.17-5.854 0-2.072-.96-3-2.61-3a2.223 2.223 0 0 0 -2.52 2.372 2.174 2.174 0 0 0 2.34 2.342 3.23 3.23 0 0 1 -2.31 2.282zm5.79-1.47v3.453h2.28v6.456c0 4.084 2.4 5.435 5.49 5.435a7.444 7.444 0 0 0 3.69-.87l-.63-3a4.076 4.076 0 0 1 -1.83.39c-1.32 0-2.1-.63-2.1-2.373v-6.036h3.99v-3.453h-3.99v-4.243h-4.62v4.234h-2.28zm19.32 0v3.453h2.425v11.47h4.62v-11.47h3.9v-3.454h-3.9v-1.05c0-1.773.69-2.463 2.01-2.463a3.218 3.218 0 0 1 1.71.42l.81-3.092a6.97 6.97 0 0 0 -3.51-.81c-3.36 0-5.64 1.77-5.64 5.855v1.14h-2.43zm23.7 7.477c0 3.124-1.05 4.385-3.33 4.385-2.31 0-3.36-1.26-3.36-4.384 0-3.092.99-4.323 3.36-4.323 2.338-.005 3.328 1.226 3.328 4.32zm-11.16-.03c0 5.346 2.67 7.9 7.83 7.9 5.13 0 7.83-2.642 7.83-7.9 0-5.404-2.58-7.837-7.83-7.837-4.92-.005-7.83 2.458-7.83 7.833zm18.99 7.477h4.74v-5.915c.03-3.213 1.62-5.165 4.95-4.894l-.03-4.5a5.55 5.55 0 0 0 -5.34 3.364l-.39-2.973h-3.935v14.919zm27.09-14.923h-3.84l-.39 2.162a5.214 5.214 0 0 0 -4.89-2.553c-3.96 0-6.51 2.553-6.51 7.627 0 5.015 2.49 7.507 6.24 7.507a4.916 4.916 0 0 0 4.68-2.492v2.132c0 2.612-1.47 3.783-3.84 3.783a4.188 4.188 0 0 1 -3.96-2.192l-2.67 2.313c1.2 2.4 3.87 3.274 6.81 3.274 4.86 0 8.37-2.283 8.37-7.237v-14.33zm-4.68 7.146c0 2.793-1.32 4.144-3.3 4.144-2.04 0-3.12-1.29-3.12-4.114 0-2.762 1.08-4.083 3.12-4.083 1.918-.005 3.298 1.286 3.298 4.048zm15.72 8.2c3.09 0 5.43-1.08 6.658-3.393l-2.85-1.742a3.427 3.427 0 0 1 -3.45 1.892c-2.16 0-3.39-.96-3.6-3.333h10.02a10.6 10.6 0 0 0 .12-1.622c0-4.234-2.04-7.537-7.02-7.537-4.86 0-7.62 2.943-7.62 7.958 0 5.278 3 7.77 7.74 7.77zm-.21-12.432c1.71 0 2.64 1.02 2.76 3.123h-5.79c.178-2.138 1.288-3.13 3.028-3.13zm8.94-2.912v3.453h2.28v6.455c0 4.084 2.4 5.435 5.488 5.435a7.444 7.444 0 0 0 3.69-.87l-.63-3a4.076 4.076 0 0 1 -1.83.39c-1.32 0-2.1-.63-2.1-2.373v-6.035h3.99v-3.453h-3.99v-4.247h-4.62v4.234h-2.28zm-150.347 45.332a5.413 5.413 0 0 0 4.98-2.61l.33 2.22h3.99v-8.917c0-4.834-3-6.4-7.11-6.4-3.06 0-5.37.87-6.81 2.582l1.8 2.643a5.368 5.368 0 0 1 4.29-1.712c1.89 0 3.06.54 3.18 2.673h-3c-4.2 0-6.69 1.92-6.69 5.133 0 2.827 2.04 4.388 5.04 4.388zm1.47-2.97c-1.5 0-2.22-.662-2.22-1.773 0-1.41.9-2.042 2.88-2.042h2.52v.27c0 2.253-1.23 3.54-3.18 3.54zm16.56-18.438h-4.74v21.02h3.66l.27-2.1a5.53 5.53 0 0 0 5.04 2.52c4.38 0 6.69-3.09 6.69-8.076 0-5.1-2.28-7.657-6.03-7.657a5.423 5.423 0 0 0 -4.89 2.49v-8.2zm-.09 13.662c0-3.122 1.35-4.414 3.3-4.414 1.98 0 3.15 1.262 3.15 4.384 0 2.913-1.08 4.324-3.21 4.324-1.92 0-3.24-1.324-3.24-4.294zm24.69-.09c0 3.123-1.05 4.384-3.33 4.384-2.31 0-3.36-1.26-3.36-4.384 0-3.093.99-4.324 3.36-4.324 2.34 0 3.33 1.23 3.33 4.324zm-11.16-.03c0 5.345 2.67 7.9 7.83 7.9 5.13 0 7.83-2.642 7.83-7.9 0-5.4-2.58-7.837-7.83-7.837-4.92 0-7.83 2.462-7.83 7.837zm30.21 7.477h3.87v-14.923h-4.71v7.627c-.03 2.523-1.35 3.844-3.15 3.844s-2.64-1.05-2.64-3.273v-8.2h-4.74v9.49c0 3.422 1.71 5.854 5.73 5.854a5.82 5.82 0 0 0 5.28-2.943zm6.51-14.923v3.454h2.28v6.457c0 4.083 2.4 5.434 5.49 5.434a7.455 7.455 0 0 0 3.69-.87l-.63-3a4.09 4.09 0 0 1 -1.83.39c-1.32 0-2.1-.63-2.1-2.37v-6.036h3.99v-3.457h-3.99v-4.236h-4.62v4.233h-2.28zm24.478 16.155a2.5 2.5 0 0 1 -2.55 1.892 5.327 5.327 0 0 1 -2.16-.48l-.48 3.393a8.28 8.28 0 0 0 3.21.57c2.79 0 4.98-.9 6.15-3.843l6.93-17.687h-4.86l-3.36 9.94-3.48-9.94h-4.888l5.88 14.984zm23.4-8.678c0 3.123-1.05 4.384-3.33 4.384-2.31 0-3.36-1.26-3.36-4.384 0-3.093.99-4.324 3.36-4.324 2.342 0 3.33 1.23 3.33 4.324zm-11.16-.03c0 5.345 2.67 7.9 7.83 7.9 5.13 0 7.83-2.642 7.83-7.9 0-5.4-2.58-7.837-7.83-7.837-4.92 0-7.83 2.462-7.83 7.837zm30.21 7.477h3.87v-14.924h-4.708v7.627c-.03 2.523-1.35 3.844-3.15 3.844s-2.64-1.05-2.64-3.273v-8.2h-4.74v9.49c0 3.422 1.71 5.854 5.73 5.854a5.82 5.82 0 0 0 5.28-2.943zm8.04 0h4.74v-5.914c.03-3.213 1.62-5.165 4.95-4.895l-.03-4.5a5.55 5.55 0 0 0 -5.34 3.364l-.39-2.973h-3.93v14.925zm-132.011 22.582c0 3.123-1.05 4.384-3.33 4.384-2.31 0-3.36-1.26-3.36-4.384 0-3.093.99-4.324 3.36-4.324 2.34 0 3.33 1.23 3.33 4.323zm-11.16-.03c0 5.345 2.67 7.9 7.83 7.9 5.13 0 7.83-2.642 7.83-7.9 0-5.4-2.58-7.837-7.83-7.837-4.92-.002-7.83 2.462-7.83 7.837zm23.76-13.54h-4.74v21.02h4.74zm14.97 21.02h4.05v-21.02h-4.74v7.748a5.107 5.107 0 0 0 -4.38-2.04c-3.96 0-6.57 2.73-6.57 8.016 0 5.075 2.46 7.717 6.3 7.717a5.447 5.447 0 0 0 5.1-2.732zm-.63-7.447c0 2.973-1.38 4.324-3.3 4.324-2.1 0-3.12-1.38-3.12-4.294 0-3.093 1.08-4.384 3.09-4.384 1.92-.003 3.325 1.228 3.325 4.35zm14.37 2.883h10.588v4.563h4.5v-4.563h2.4v-3.995h-2.4v-5.8h-4.5v5.8h-5.67l6.507-12.46h-4.56l-6.87 13.03v3.425zm27.508-16.877c5.7 0 8.61 3.393 8.61 10.93 0 7.477-3.03 10.93-8.61 10.93-5.7 0-8.61-3.423-8.61-10.93 0-7.54 2.91-10.933 8.61-10.933zm0 3.784c-2.64 0-4.11 1.77-4.11 7.146 0 5.405 1.47 7.177 4.08 7.177 2.67 0 4.14-1.772 4.14-7.177s-1.47-7.15-4.11-7.15zm11.64 17.656h14.31v-4.023h-4.86v-17.18h-3.03l-5.82 3.484 1.8 3.783 2.4-1.59v11.5h-4.8v4.023zm26.64.36c-3.36-.42-5.13-2.672-5.13-9.188 0-6.486 1.77-8.768 5.13-9.19l-.48-3.782c-5.85.48-8.64 4.864-8.64 12.972s2.79 12.52 8.76 12.972zm2.88-.36h4.68v-3.22l1.83-2.01 3.57 5.224h5.22l-5.73-8.288 5.67-6.637h-5.13l-5.52 6.816.12-12.906h-4.71v21.02zm17.16.36c3.36-.42 5.13-2.672 5.13-9.188 0-6.486-1.77-8.768-5.13-9.19l.48-3.782c5.85.48 8.64 4.864 8.64 12.972s-2.79 12.52-8.76 12.972z" fill="#fff" fill-rule="evenodd"/></svg><svg height="70.28" viewBox="-6 -6 232.41 70.28" width="232.41"><path d="m17.573 13.093c2.377 0 4-.83 4.988-2.74l-1.638-.953a3.32 3.32 0 0 1 -3.313 2c-2.378 0-3.728-1.118-3.728-4.867 0-3.767 1.35-4.794 3.727-4.794a2.916 2.916 0 0 1 3.078 1.82l1.675-.992c-.862-1.837-2.394-2.559-4.752-2.559-3.87 0-5.834 1.857-5.834 6.525 0 4.632 1.925 6.56 5.797 6.56zm13.374-4.65c0 2.235-.774 3.082-2.43 3.082-1.675 0-2.45-.847-2.45-3.082 0-2.252.738-3.08 2.45-3.08 1.673 0 2.433.828 2.433 3.08zm-6.86-.018c0 3.226 1.55 4.668 4.43 4.668s4.41-1.514 4.41-4.668c0-3.226-1.458-4.63-4.41-4.63-2.81 0-4.43 1.422-4.43 4.63zm11.263-4.42v8.85h2.035v-4.38c.036-1.91 1.026-2.937 2.52-2.937 1.26 0 1.945.63 1.945 2.36v4.957h2.035v-5.53c0-2.252-1.026-3.53-3.277-3.53a3.508 3.508 0 0 0 -3.33 1.855l-.2-1.64h-1.728zm14.455 7.588a2.824 2.824 0 0 1 -2.63-1.35l-1.255 1.063a4.128 4.128 0 0 0 3.853 1.784c2.88 0 3.71-1.35 3.71-2.757 0-1.208-.775-2.18-2.828-2.63l-.99-.218c-1.08-.234-1.44-.63-1.44-1.153 0-.667.558-1.01 1.584-1.01a2.612 2.612 0 0 1 2.268 1.118l1.206-1.19a3.99 3.99 0 0 0 -3.42-1.46c-2.432 0-3.494 1.118-3.494 2.614 0 1.316.918 2.36 2.935 2.81l.774.164c1.1.234 1.512.45 1.512 1.117 0 .71-.523 1.102-1.783 1.102zm6.227-7.587v8.85h2.035v-8.85h-2.03zm-.27-2.685a1.282 1.282 0 1 0 1.278-1.191 1.11 1.11 0 0 0 -1.274 1.195zm11.7 11.535h1.8v-12.613h-2.034v4.92a3.2 3.2 0 0 0 -2.81-1.37c-2.448 0-3.906 1.623-3.906 4.668 0 3.01 1.368 4.633 3.727 4.633a3.223 3.223 0 0 0 3.114-1.748zm-.212-4.43c0 2.163-1.027 3.082-2.43 3.082-1.532 0-2.3-.955-2.3-3.046 0-2.143.755-3.1 2.3-3.1 1.387.002 2.43.903 2.43 3.065zm8.765 4.668a3.892 3.892 0 0 0 3.853-2.126l-1.35-.775a2.26 2.26 0 0 1 -2.395 1.387c-1.513 0-2.36-.7-2.467-2.56h6.23a7.73 7.73 0 0 0 .054-.883c0-2.47-1.188-4.343-3.925-4.343-2.79 0-4.322 1.658-4.322 4.667.002 3.173 1.623 4.633 4.324 4.633zm-.054-7.785c1.26 0 1.98.72 2.053 2.36h-4.34c.13-1.694.957-2.362 2.29-2.362zm6.317 7.55h2.035v-3.964c.036-2.127 1.08-3.316 3.17-3.118v-1.947a3.228 3.228 0 0 0 -3.3 2.018l-.2-1.838h-1.713v8.85zm15.013.235a3.827 3.827 0 0 0 3.853-2.2l-1.458-.812a2.25 2.25 0 0 1 -2.335 1.426c-1.62 0-2.376-.865-2.376-3.046 0-2.306.756-3.063 2.394-3.063a2.31 2.31 0 0 1 2.25 1.333l1.423-.973a3.77 3.77 0 0 0 -3.69-1.964c-2.773 0-4.375 1.423-4.375 4.65-.004 3.263 1.598 4.65 4.317 4.65zm12.17-4.65c0 2.235-.775 3.082-2.432 3.082-1.674 0-2.45-.847-2.45-3.082 0-2.252.74-3.08 2.45-3.08 1.677 0 2.433.828 2.433 3.08zm-6.86-.018c0 3.226 1.547 4.668 4.428 4.668s4.41-1.514 4.41-4.668c0-3.226-1.457-4.63-4.41-4.63-2.807 0-4.427 1.422-4.427 4.63zm11.267-4.415v8.85h2.034v-4.381c.037-1.91 1.028-2.938 2.522-2.938 1.26 0 1.945.63 1.945 2.36v4.957h2.034v-5.534c0-2.253-1.025-3.532-3.276-3.532a3.51 3.51 0 0 0 -3.33 1.856l-.2-1.64h-1.73zm14.454 7.587a2.824 2.824 0 0 1 -2.627-1.35l-1.26 1.062a4.128 4.128 0 0 0 3.852 1.783c2.88 0 3.71-1.35 3.71-2.757 0-1.208-.775-2.18-2.827-2.63l-.99-.218c-1.08-.234-1.44-.63-1.44-1.153 0-.667.557-1.01 1.583-1.01a2.612 2.612 0 0 1 2.27 1.118l1.206-1.19a3.988 3.988 0 0 0 -3.42-1.46c-2.43 0-3.494 1.118-3.494 2.614 0 1.316.92 2.36 2.935 2.81l.774.164c1.1.235 1.514.45 1.514 1.118.002.708-.52 1.1-1.78 1.1zm12.458-3.154c0 2.235-.774 3.082-2.43 3.082-1.675 0-2.45-.847-2.45-3.082 0-2.252.74-3.08 2.45-3.08 1.676 0 2.432.828 2.432 3.08zm-6.86-.018c0 3.226 1.55 4.668 4.43 4.668s4.41-1.514 4.41-4.668c0-3.226-1.458-4.63-4.41-4.63-2.807 0-4.428 1.422-4.428 4.63zm13.34-8.182h-2.036v12.616h2.035v-12.618zm3.076 3.767v8.85h2.035v-8.856h-2.036zm-.27-2.685a1.282 1.282 0 1 0 1.278-1.19 1.11 1.11 0 0 0 -1.276 1.19zm11.7 11.534h1.8v-12.618h-2.034v4.92a3.2 3.2 0 0 0 -2.81-1.37c-2.448 0-3.906 1.623-3.906 4.668 0 3.01 1.368 4.633 3.727 4.633a3.223 3.223 0 0 0 3.116-1.748zm-.216-4.435c0 2.163-1.027 3.082-2.43 3.082-1.53 0-2.306-.955-2.306-3.046 0-2.143.757-3.1 2.305-3.1 1.39.002 2.433.903 2.433 3.065zm7.5 4.65a3.284 3.284 0 0 0 3.1-1.694l.162 1.48h1.73v-5.374c0-2.793-1.622-3.694-3.944-3.694a4.366 4.366 0 0 0 -3.745 1.5l.937 1.19a3.048 3.048 0 0 1 2.557-1.117c1.386 0 2.142.486 2.2 2.108h-2.106c-2.737 0-3.908 1.244-3.908 2.974 0 1.688 1.244 2.625 3.026 2.625zm.54-1.442c-1.152 0-1.656-.486-1.656-1.3 0-1.045.63-1.532 2.125-1.532h1.98v.09c-.01 1.752-.982 2.743-2.44 2.743zm6.19-7.623v1.532h1.478v4.364c0 2.307 1.206 3.19 2.988 3.19a4.187 4.187 0 0 0 1.765-.36l-.307-1.46a2.792 2.792 0 0 1 -1.062.2c-.846 0-1.404-.324-1.404-1.694v-4.235h2.485v-1.54h-2.484v-2.56h-1.98v2.56h-1.477zm8.047 0v8.85h2.035v-8.855h-2.035zm-.27-2.685a1.282 1.282 0 1 0 1.28-1.19 1.11 1.11 0 0 0 -1.272 1.19zm5.343 2.685v8.85h2.036v-4.38c.036-1.91 1.026-2.938 2.52-2.938 1.26 0 1.945.63 1.945 2.36v4.957h2.036v-5.534c0-2.253-1.027-3.532-3.277-3.532a3.508 3.508 0 0 0 -3.332 1.856l-.2-1.64h-1.73zm19.57 0h-1.693l-.18 1.388a3.214 3.214 0 0 0 -3.043-1.6c-2.413 0-3.8 1.55-3.8 4.5 0 2.974 1.422 4.506 3.727 4.506a3.12 3.12 0 0 0 2.972-1.6v1.478a2.34 2.34 0 0 1 -2.665 2.56 2.608 2.608 0 0 1 -2.557-1.5l-1.3 1.008c.738 1.514 2.16 2.037 3.907 2.037 2.7 0 4.627-1.316 4.627-4.29v-8.49zm-2.017 4.253c0 2.09-1.01 2.974-2.43 2.974-1.513 0-2.288-.92-2.288-2.956 0-2.017.757-2.936 2.287-2.936 1.394 0 2.44.862 2.44 2.92zm-203.18 26.625a1.684 1.684 0 0 1 -1.712 1.3 3.347 3.347 0 0 1 -1.205-.234l-.27 1.568a4.478 4.478 0 0 0 1.6.27 3.234 3.234 0 0 0 3.35-2.235l4.214-10.527h-2.107l-2.5 6.812-2.52-6.812h-2.129l3.583 8.957zm13.86-5.424c0 2.234-.774 3.08-2.43 3.08-1.675 0-2.45-.846-2.45-3.08 0-2.253.738-3.082 2.45-3.082 1.674 0 2.43.83 2.43 3.082zm-6.86-.02c0 3.228 1.548 4.67 4.43 4.67s4.41-1.515 4.41-4.67c0-3.225-1.458-4.63-4.41-4.63-2.81 0-4.43 1.423-4.43 4.63zm17.912 4.435h1.71v-8.85h-2.035v4.524c-.035 1.892-.97 2.9-2.43 2.9-1.314 0-1.963-.775-1.963-2.38v-5.043h-2.034v5.476c0 2.217 1.062 3.6 3.4 3.6a3.47 3.47 0 0 0 3.187-1.766zm4.732 0h2.033v-3.966c.036-2.127 1.08-3.316 3.17-3.118v-1.945a3.228 3.228 0 0 0 -3.3 2.018l-.2-1.838h-1.704v8.85zm13.752.215a3.285 3.285 0 0 0 3.1-1.694l.16 1.48h1.73v-5.374c0-2.793-1.62-3.694-3.943-3.694a4.364 4.364 0 0 0 -3.745 1.5l.936 1.19a3.05 3.05 0 0 1 2.557-1.118c1.386 0 2.143.486 2.2 2.108h-2.114c-2.737 0-3.907 1.244-3.907 2.974 0 1.692 1.243 2.63 3.026 2.63zm.54-1.442c-1.153 0-1.658-.486-1.658-1.3 0-1.045.63-1.532 2.125-1.532h1.98v.09c-.017 1.752-.99 2.743-2.448 2.743zm11.087 1.46a3.827 3.827 0 0 0 3.853-2.2l-1.458-.81a2.25 2.25 0 0 1 -2.34 1.422c-1.622 0-2.378-.865-2.378-3.045 0-2.307.756-3.064 2.395-3.064a2.312 2.312 0 0 1 2.25 1.333l1.422-.974a3.773 3.773 0 0 0 -3.69-1.964c-2.774 0-4.376 1.423-4.376 4.65 0 3.264 1.602 4.65 4.32 4.65zm9.63 0a3.828 3.828 0 0 0 3.853-2.2l-1.458-.81a2.252 2.252 0 0 1 -2.34 1.422c-1.622 0-2.378-.865-2.378-3.045 0-2.307.756-3.064 2.395-3.064a2.313 2.313 0 0 1 2.25 1.335l1.422-.972a3.773 3.773 0 0 0 -3.69-1.964c-2.774 0-4.376 1.423-4.376 4.65 0 3.262 1.602 4.65 4.32 4.65zm12.168-4.65c0 2.235-.774 3.082-2.43 3.082-1.675 0-2.45-.847-2.45-3.08 0-2.254.74-3.083 2.45-3.083 1.674 0 2.43.83 2.43 3.082zm-6.86-.018c0 3.227 1.55 4.668 4.43 4.668s4.41-1.514 4.41-4.668c0-3.226-1.457-4.63-4.41-4.63-2.81 0-4.43 1.422-4.43 4.63zm17.912 4.434h1.71v-8.85h-2.034v4.524c-.036 1.892-.972 2.9-2.43 2.9-1.315 0-1.963-.775-1.963-2.38v-5.042h-2.035v5.476c0 2.217 1.063 3.6 3.4 3.6a3.47 3.47 0 0 0 3.187-1.766zm4.732-8.85v8.85h2.034v-4.378c.036-1.91 1.026-2.938 2.52-2.938 1.26 0 1.945.63 1.945 2.36v4.957h2.034v-5.534c0-2.253-1.027-3.532-3.277-3.532a3.508 3.508 0 0 0 -3.33 1.856l-.2-1.64h-1.73zm10.276 0v1.532h1.477v4.36c0 2.308 1.206 3.19 2.99 3.19a4.186 4.186 0 0 0 1.763-.36l-.306-1.46a2.792 2.792 0 0 1 -1.062.2c-.846 0-1.4-.323-1.4-1.693v-4.236h2.484v-1.532h-2.484v-2.56h-1.98v2.56h-1.478zm11.018 7.587a2.824 2.824 0 0 1 -2.63-1.35l-1.26 1.062a4.13 4.13 0 0 0 3.854 1.783c2.88 0 3.71-1.35 3.71-2.757 0-1.208-.776-2.18-2.828-2.63l-.99-.218c-1.08-.234-1.44-.63-1.44-1.153 0-.667.557-1.01 1.584-1.01a2.61 2.61 0 0 1 2.268 1.118l1.207-1.19a3.988 3.988 0 0 0 -3.422-1.46c-2.43 0-3.493 1.118-3.493 2.614 0 1.316.918 2.36 2.934 2.81l.774.164c1.1.235 1.512.45 1.512 1.118 0 .703-.522 1.1-1.782 1.1zm10.456-7.587v8.85h2.035v-8.85zm-.27-2.685a1.282 1.282 0 1 0 1.278-1.19 1.11 1.11 0 0 0 -1.278 1.19zm5.346 2.685v8.85h2.035v-4.378c.037-1.91 1.027-2.938 2.52-2.938 1.262 0 1.946.63 1.946 2.36v4.957h2.035v-5.534c0-2.253-1.026-3.532-3.276-3.532a3.508 3.508 0 0 0 -3.33 1.856l-.2-1.64h-1.73zm10.277 0v1.532h1.477v4.36c0 2.308 1.206 3.19 2.99 3.19a4.186 4.186 0 0 0 1.763-.36l-.306-1.46a2.792 2.792 0 0 1 -1.062.2c-.846 0-1.4-.323-1.4-1.693v-4.236h2.484v-1.532h-2.485v-2.56h-1.985v2.56h-1.477zm14.277 4.434c0 2.234-.775 3.08-2.43 3.08-1.676 0-2.45-.846-2.45-3.08 0-2.253.738-3.082 2.45-3.082 1.673 0 2.43.83 2.43 3.082zm-6.86-.02c0 3.228 1.548 4.67 4.43 4.67s4.41-1.515 4.41-4.67c0-3.225-1.458-4.63-4.41-4.63-2.81 0-4.43 1.423-4.43 4.63zm17.964 4.65a3.285 3.285 0 0 0 3.1-1.693l.162 1.48h1.724v-5.374c0-2.793-1.62-3.694-3.943-3.694a4.365 4.365 0 0 0 -3.745 1.5l.936 1.19a3.05 3.05 0 0 1 2.557-1.118c1.387 0 2.143.486 2.2 2.108h-2.105c-2.737 0-3.907 1.244-3.907 2.974-.004 1.692 1.238 2.63 3.02 2.63zm.54-1.44c-1.152 0-1.656-.487-1.656-1.3 0-1.046.63-1.533 2.124-1.533h1.978v.09c-.015 1.752-.988 2.743-2.446 2.743zm7.36-7.624v8.85h2.036v-4.378c.036-1.91 1.026-2.938 2.52-2.938 1.26 0 1.945.63 1.945 2.36v4.957h2.034v-5.534c0-2.253-1.027-3.532-3.278-3.532a3.507 3.507 0 0 0 -3.33 1.856l-.2-1.64h-1.728zm16.04 8.85h2.105v-12.616h-2.107v12.618zm5.83 0h2.09v-4.543h3.132l2.323 4.542h2.3l-2.54-4.92a3.668 3.668 0 0 0 2.36-3.786c0-2.45-1.4-3.91-4.25-3.91h-5.42v12.615zm5.24-10.85a2.03 2.03 0 0 1 2.323 2.216 2.115 2.115 0 0 1 -2.36 2.343h-3.114v-4.56h3.15zm14.868 10.85h2.18l-4.358-12.617h-2.593l-4.356 12.616h2.124l.774-2.362h5.438zm-3.53-10.634 2.2 6.6h-4.362zm-194.34 22.86-1.91 6.452-1.912-6.508h-1.94l2.826 8.85h1.966l1.85-6.525 1.89 6.524h1.982l2.79-8.85h-1.887l-1.875 6.524-1.927-6.47h-1.853zm9.2-.054v8.85h2.034v-8.85h-2.038zm-.27-2.685a1.282 1.282 0 1 0 1.277-1.19 1.11 1.11 0 0 0 -1.282 1.188zm4.175 2.685v1.532h1.473v4.36c0 2.308 1.206 3.19 2.99 3.19a4.188 4.188 0 0 0 1.764-.36l-.306-1.46a2.794 2.794 0 0 1 -1.062.2c-.846 0-1.4-.323-1.4-1.693v-4.234h2.485v-1.532h-2.49v-2.56h-1.98v2.56h-1.477zm10.045-3.767h-2.038v12.617h2.035v-4.378c.035-1.91 1.007-2.938 2.52-2.938 1.242 0 1.945.65 1.945 2.4v4.92h2.035v-5.538c0-2.253-1.026-3.532-3.24-3.532a3.455 3.455 0 0 0 -3.26 1.892v-5.443zm13.39 6.29c0-4.56 1.91-6.524 5.817-6.524 4.086 0 5.832 1.983 5.832 6.525 0 4.56-1.926 6.56-5.833 6.56-4.002-.002-5.82-2.002-5.82-6.562zm2.108.018c0 3.66 1.278 4.83 3.71 4.83s3.708-1.135 3.708-4.866c0-3.622-1.28-4.794-3.71-4.794s-3.712 1.098-3.712 4.828zm12.293-2.54v8.849h2.035v-4.378c.036-1.91 1.026-2.938 2.52-2.938 1.26 0 1.945.63 1.945 2.36v4.957h2.035v-5.534c0-2.253-1.027-3.532-3.277-3.532a3.508 3.508 0 0 0 -3.33 1.856l-.2-1.64zm15.175 9.082a3.89 3.89 0 0 0 3.853-2.126l-1.35-.776a2.263 2.263 0 0 1 -2.394 1.387c-1.513 0-2.36-.7-2.467-2.558h6.23a7.718 7.718 0 0 0 .053-.883c0-2.47-1.188-4.344-3.925-4.344-2.79 0-4.32 1.658-4.32 4.668-.005 3.17 1.615 4.63 4.316 4.63zm-.054-7.785c1.26 0 1.98.72 2.052 2.36h-4.34c.123-1.696.95-2.362 2.284-2.362zm14.905-3.01c-.883-1.586-2.306-2.29-4.538-2.29-3.007 0-4.484 1.425-4.484 3.5 0 1.8 1.063 3.1 3.764 3.786l1.152.288c1.8.433 2.36.92 2.36 2 0 1.226-.884 1.928-2.81 1.928a3.543 3.543 0 0 1 -3.44-1.91l-1.53 1.045c1.063 1.8 2.845 2.45 5.024 2.45 3.043 0 4.79-1.3 4.79-3.693 0-1.91-1.207-3.028-4-3.695l-1.135-.27c-1.73-.4-2.233-1.137-2.233-2.038 0-.99.666-1.766 2.557-1.766a3.006 3.006 0 0 1 2.97 1.676zm1.616 1.712v1.532h1.476v4.36c0 2.308 1.207 3.19 2.99 3.19a4.187 4.187 0 0 0 1.764-.36l-.306-1.46a2.794 2.794 0 0 1 -1.063.2c-.846 0-1.4-.323-1.4-1.693v-4.234h2.485v-1.532h-2.485v-2.56h-1.98v2.56h-1.487zm14.276 4.434c0 2.234-.774 3.08-2.43 3.08-1.675 0-2.45-.846-2.45-3.08 0-2.253.74-3.082 2.45-3.082 1.67.002 2.426.827 2.426 3.08zm-6.86-.018c0 3.226 1.548 4.667 4.43 4.667s4.41-1.514 4.41-4.667c0-3.226-1.458-4.632-4.41-4.632-2.813-.002-4.434 1.422-4.434 4.63zm11.268-4.416v12.22h2.035v-4.436a3.1 3.1 0 0 0 2.736 1.3c2.594 0 3.98-1.73 3.98-4.722 0-2.973-1.3-4.577-3.673-4.577a3.355 3.355 0 0 0 -3.168 1.8l-.2-1.586h-1.71zm2.01 4.454c0-2.2 1.026-3.1 2.43-3.1 1.513 0 2.305.937 2.305 3.082 0 2.09-.774 3.08-2.36 3.08-1.382-.003-2.375-.922-2.375-3.062zm13.75 4.4h2.09v-4.542h3.132l2.323 4.542h2.305l-2.54-4.92a3.668 3.668 0 0 0 2.36-3.785c0-2.45-1.4-3.91-4.25-3.91h-5.42v12.616zm5.24-10.85a2.03 2.03 0 0 1 2.323 2.217 2.115 2.115 0 0 1 -2.36 2.343h-3.114v-4.56h3.15zm13.086 6.435c0 2.235-.774 3.082-2.43 3.082-1.675 0-2.45-.847-2.45-3.08 0-2.254.74-3.083 2.45-3.083 1.677-.004 2.433.82 2.433 3.074zm-6.86-.017c0 3.226 1.55 4.667 4.43 4.667s4.41-1.514 4.41-4.667c0-3.226-1.458-4.632-4.41-4.632-2.806-.006-4.427 1.418-4.427 4.626zm13.34-8.183h-2.036v12.616h2.035v-12.622zm5.11 0h-2.034v12.616h2.035v-12.622zm9.308 8.2c0 2.234-.774 3.08-2.43 3.08-1.675 0-2.45-.846-2.45-3.08 0-2.253.74-3.082 2.45-3.082 1.677-.002 2.433.823 2.433 3.076zm-6.86-.018c0 3.226 1.548 4.667 4.43 4.667s4.41-1.515 4.41-4.668c0-3.226-1.458-4.632-4.41-4.632-2.807-.006-4.427 1.418-4.427 4.626zm9.88-4.416 3.53 8.85h2.16l3.512-8.85h-2.07l-2.485 6.83-2.52-6.83h-2.12zm14.565 9.083a3.89 3.89 0 0 0 3.852-2.127l-1.35-.775a2.26 2.26 0 0 1 -2.395 1.387c-1.513 0-2.36-.7-2.467-2.56h6.23a7.718 7.718 0 0 0 .054-.882c0-2.47-1.19-4.343-3.925-4.343-2.792 0-4.323 1.658-4.323 4.668.003 3.166 1.624 4.625 4.325 4.625zm-.055-7.786c1.26 0 1.98.72 2.052 2.36h-4.34c.13-1.7.958-2.366 2.29-2.366zm6.316 7.55h2.036v-3.962c.036-2.127 1.08-3.316 3.17-3.118v-1.946a3.23 3.23 0 0 0 -3.296 2.018l-.2-1.838h-1.71v8.85z" fill="#fff" fill-rule="evenodd"/></svg><svg height="113" viewBox="-6 -6 77 113" width="77" x="232.41" y="78.13"><path d="m51.7 29.1-16.6-29.1-18.4 10.7 16.6 29.1h-33.3v21.4h33.3l-16.6 29.1 18.4 10.7 16.6-29.1 12.3-21.4z" fill="#63c"/></svg><svg height="17.09" viewBox="-6 -6 91.53 17.09" width="91.53" x="77" y="219.78"><path d="m.007 5.006h3.618v-.533h-3v-1.667h2.57v-.546h-2.58v-1.634h2.936v-.531h-3.543v4.9zm4.04-3.467h.91l-.456.783.4.23.456-.783.455.784.4-.23-.454-.785h.91v-.463h-.91l.452-.783-.4-.23-.454.79-.456-.79-.4.23.456.785h-.91v.462zm3.063-1.437v.532h1.6v4.37h.623v-4.368h1.6v-.533h-3.823zm4.683 4.9h.623v-1.856h1.373l.995 1.86h.686l-1.044-1.966a1.526 1.526 0 0 0 -.68-2.94h-1.95v4.9zm1.947-4.37a.885.885 0 0 1 1.023.96.917.917 0 0 1 -1.03 1.014h-1.317v-1.974h1.324zm5.783 4.373h.658l-1.716-4.9h-.785l-1.716 4.9h.637l.336-1h2.247zm-1.468-4.335.952 2.81h-1.892zm4.787 3.8c.93 0 1.527-.462 1.527-1.926 0-1.428-.54-1.912-1.48-1.912h-1.246v3.838h1.2zm-1.817.536v-4.9h1.85c1.428 0 2.12.728 2.12 2.423s-.72 2.48-2.128 2.48h-1.842zm5.27 0h3.61v-.533h-3v-1.667h2.57v-.546h-2.57v-1.634h2.93v-.531h-3.545v4.9zm9.4-4.12a1.715 1.715 0 0 0 -1.715-.866c-1.128 0-1.688.524-1.688 1.288a1.512 1.512 0 0 0 1.43 1.435l.454.113c.805.2 1.044.392 1.044.882 0 .553-.364.868-1.22.868a1.522 1.522 0 0 1 -1.414-.777l-.49.307a2.037 2.037 0 0 0 1.92.953c1.134 0 1.8-.477 1.8-1.4 0-.756-.484-1.163-1.55-1.408l-.454-.105a.942.942 0 0 1 -.94-.9c0-.442.288-.778 1.108-.778a1.228 1.228 0 0 1 1.226.693zm2.548 4.2a1.466 1.466 0 0 0 1.464-.847l-.448-.232a.93.93 0 0 1 -1 .595.96.96 0 0 1 -1.03-1.127h2.47c.008-.112.015-.217.015-.322a1.424 1.424 0 0 0 -1.46-1.648 1.536 1.536 0 0 0 -1.624 1.795 1.51 1.51 0 0 0 1.61 1.786zm-.014-3.1a.867.867 0 0 1 .89 1.03h-1.889a.928.928 0 0 1 .993-1.033zm3.856 3.1a1.43 1.43 0 0 0 1.45-.847l-.455-.239a.957.957 0 0 1 -.994.6c-.686 0-1.023-.342-1.023-1.3 0-.98.315-1.31 1.03-1.31a1.015 1.015 0 0 1 .966.56l.433-.28a1.437 1.437 0 0 0 -1.4-.762 1.8 1.8 0 0 0 -.01 3.578zm4.915-.082h.52v-3.41h-.6v1.743a1.083 1.083 0 0 1 -1.073 1.26.834.834 0 0 1 -.854-1.015v-1.989h-.6v2.073a1.226 1.226 0 0 0 1.317 1.422 1.348 1.348 0 0 0 1.247-.687zm1.82 0h.6v-1.64a1.087 1.087 0 0 1 1.282-1.253v-.574a1.237 1.237 0 0 0 -1.3.777l-.063-.72h-.523v3.413zm2.68-3.41v3.413h.6v-3.41h-.6zm-.11-1.06a.413.413 0 0 0 .825 0 .415.415 0 0 0 -.83 0zm1.5 1.06v.468h.6v1.808a1.028 1.028 0 0 0 1.092 1.22 1.555 1.555 0 0 0 .58-.1l-.1-.492a1.213 1.213 0 0 1 -.412.07c-.336 0-.574-.12-.574-.72v-1.79h.988v-.47h-.99v-1h-.588v1h-.6zm3.065 0v3.413h.6v-3.41h-.6zm-.112-1.06a.413.413 0 0 0 .826 0 .416.416 0 0 0 -.832 0zm3.382 4.553a1.466 1.466 0 0 0 1.464-.848l-.45-.23a.93.93 0 0 1 -1 .594.96.96 0 0 1 -1.03-1.127h2.473c.007-.112.014-.217.014-.322a1.424 1.424 0 0 0 -1.457-1.646 1.536 1.536 0 0 0 -1.624 1.792 1.51 1.51 0 0 0 1.61 1.786zm-.014-3.1a.867.867 0 0 1 .89 1.03h-1.882a.928.928 0 0 1 .994-1.033zm3.578 2.64a1.068 1.068 0 0 1 -1.036-.54l-.427.31a1.522 1.522 0 0 0 1.457.693c1.058 0 1.373-.5 1.373-1.03 0-.47-.245-.8-1.1-.98l-.385-.085c-.49-.105-.623-.3-.623-.54 0-.308.224-.47.7-.47a1 1 0 0 1 .9.442l.385-.37a1.426 1.426 0 0 0 -1.24-.547 1.062 1.062 0 0 0 -1.3.987 1.093 1.093 0 0 0 1.114 1.016l.308.063c.483.1.68.224.68.525-.006.327-.237.523-.805.523zm4.872-.154v-4.371h-.622v4.9h3.474v-.532h-2.85zm4.43 0v-4.371h-.62v4.9h3.473v-.532h-2.85zm5.574.617a1.915 1.915 0 0 0 1.87-1.01l-.462-.315a1.42 1.42 0 0 1 -1.408.82c-1.008 0-1.583-.463-1.583-2.046s.574-2.019 1.583-2.019a1.24 1.24 0 0 1 1.3.75l.49-.33a1.748 1.748 0 0 0 -1.787-.92c-1.457 0-2.206.7-2.206 2.528s.746 2.54 2.203 2.54z" fill="#fff" fill-rule="evenodd"/></svg><svg height="17.1" viewBox="-6 -6 91.5 17.1" width="91.5" x="77" y="236.87"><path d="m0 5h3.6v-.5h-3v-1.7h2.6v-.5h-2.6v-1.7h2.9v-.5h-3.5zm4-3.5h1l-.5.8.4.2.5-.8.5.8.4-.2-.5-.8h.9v-.4h-.9l.5-.8-.5-.2-.4.8-.5-.8-.4.2.5.8h-1zm3.1-1.4v.5h1.6v4.4h.6v-4.4h1.6v-.5zm4.7 4.9h.6v-1.9h1.4l1 1.9h.7l-1-2c.8-.3 1.2-1.2.9-2-.2-.6-.9-1-1.5-1h-2v5zm1.9-4.4c.5-.1.9.2 1 .7v.2c.1.5-.3 1-.8 1h-1.5v-2c0 .1 1.3.1 1.3.1zm5.8 4.4h.7l-1.7-4.9h-.8l-1.7 4.9h.6l.3-1h2.2zm-1.4-4.3 1 2.8h-1.9zm4.7 3.8c.9 0 1.5-.5 1.5-1.9s-.5-1.9-1.5-1.9h-1.2v3.8zm-1.8.5v-4.9h1.8c1.4 0 2.1.7 2.1 2.4s-.6 2.5-2 2.5zm5.3 0h3.6v-.5h-3v-1.7h2.6v-.5h-2.6v-1.7h2.9v-.5h-3.5zm9.4-4.1c-.3-.6-1-1-1.7-.9-1.1 0-1.7.5-1.7 1.3s.7 1.4 1.4 1.4l.5.1c.8.2 1 .4 1 .9 0 .6-.4.9-1.2.9-.6 0-1.1-.3-1.4-.8l-.5.3c.4.7 1.2 1 1.9 1 1.1 0 1.8-.5 1.8-1.4 0-.8-.5-1.2-1.5-1.4l-.5-.1c-.5 0-.9-.4-.9-.9 0-.4.3-.8 1.1-.8.5 0 1 .2 1.2.7l.5-.3zm2.5 4.2c.6.1 1.2-.3 1.5-.8l-.4-.3c-.2.4-.6.7-1 .6-.5 0-1-.3-1-.9v-.3h2.5v-.3c.1-.8-.4-1.5-1.2-1.6h-.3c-.8-.1-1.6.6-1.6 1.4v.4c-.2.8.4 1.6 1.2 1.8zm0-3.1c.5 0 .9.3.9.8v.2h-1.9c-.1-.5.3-1 .8-1zm3.9 3.1c.6.1 1.2-.3 1.5-.8l-.5-.3c-.2.4-.6.6-1 .6-.7 0-1-.3-1-1.3s.3-1.3 1-1.3c.4 0 .8.2 1 .6l.4-.3c-.3-.5-.8-.8-1.4-.8-1 .1-1.7 1-1.6 2 .1.8.7 1.5 1.6 1.6zm4.9-.1h.5v-3.4h-.6v1.7c.1.6-.3 1.2-.9 1.3h-.2c-.5 0-.9-.3-.9-.8v-2.2h-.6v2.1c-.1.7.3 1.3 1 1.4h.3c.5 0 1-.2 1.2-.7zm1.8 0h.6v-1.6c-.1-.6.3-1.2.9-1.3h.4v-.6c-.6-.1-1.1.3-1.3.8l-.1-.7h-.5zm2.7-3.4v3.4h.6v-3.4zm-.1-1.1c0 .2.2.4.4.4s.4-.2.4-.4-.2-.4-.4-.4-.4.2-.4.4zm1.5 1.1v.5h.6v1.8c-.1.6.3 1.1.8 1.2h.3c.2 0 .4 0 .6-.1l-.1-.5c-.1 0-.3.1-.4.1-.3 0-.6-.1-.6-.7v-1.8h1v-.5h-1v-1h-.6v1zm3.1 0v3.4h.6v-3.4zm-.2-1.1c0 .2.2.4.4.4s.4-.2.4-.4-.2-.4-.4-.4-.4.2-.4.4zm3.4 4.6c.6.1 1.2-.3 1.5-.8l-.5-.3c-.2.4-.6.7-1 .6-.5 0-1-.3-1-.9v-.3h2.5v-.3c.1-.8-.4-1.5-1.2-1.6h-.3c-.8-.1-1.6.6-1.6 1.4v.4c-.2.8.4 1.6 1.2 1.8zm0-3.1c.5 0 .9.4.9.8v.2h-1.9c-.1-.5.3-1 .8-1zm3.6 2.6c-.4 0-.8-.2-1-.5l-.4.3c.3.5.9.8 1.5.7 1.1 0 1.4-.5 1.4-1s-.2-.8-1.1-1l-.5-.1c-.5-.1-.7-.3-.7-.5 0-.4.3-.5.7-.5s.7.1.9.4l.4-.3c-.3-.4-.8-.6-1.2-.5-.6-.1-1.1.2-1.3.8v.2c0 .6.5 1 1.1 1l.3.1c.5.1.7.2.7.5 0 .2-.2.4-.8.4zm4.9-.1v-4.4h-.7v4.9h3.5v-.5zm4.4 0v-4.4h-.6v4.9h3.5v-.5zm5.6.6c.8.1 1.5-.3 1.9-1l-.5-.3c-.3.5-.8.9-1.4.8-1 0-1.6-.5-1.6-2s.6-2 1.6-2c.6-.1 1.1.2 1.3.8l.5-.3c-.3-.7-1.1-1-1.8-.9-1.5 0-2.2.7-2.2 2.5s.7 2.4 2.2 2.4z"/></svg><svg height="51" viewBox="-6 -6 195 51" width="195" y="70.28"><path d="m183 4.3c0 1.1-.9 1.9-1.9 1.9-1.1 0-1.9-.9-1.9-1.9 0-1.1.9-1.9 1.9-1.9 1-.1 1.9.8 1.9 1.9m-1.9-1.6c-.9 0-1.6.7-1.6 1.6s.7 1.6 1.6 1.6 1.6-.7 1.6-1.6-.7-1.6-1.6-1.6m.8 1.1c0 .3-.3.5-.6.5.3.2.6.5.7.9h-.4c-.1-.4-.4-.7-.8-.8h-.2v.9h-.3v-2h.8c.7 0 .8.3.8.5m-1.2.4h.4c.3 0 .5-.1.5-.3s-.2-.3-.5-.3h-.4zm-3.2 17.3h-21v-19h20.7v3.5h-15.9v4.1h11v3.4h-11v4.5h16.3zm-155-3.6h-16.3v-4.4h11v-3.4h-11v-4.1h15.9v-3.5h-20.6v19h21v-3.6zm39.7-11.8h9.4v-3.5h-23.6v3.6h9.3v15.4h4.7zm66.7-3.5h12.5c7.6 0 11.7 3.2 11.7 9.5.1 3.3-1.6 6.4-4.6 8-2 1.2-4.7 1.6-8.4 1.6h-11.3zm10.6 15.2c6 0 8.9-.9 8.9-5.8 0-4.1-2.5-5.8-6.9-5.8h-7.8v11.6zm-35.1 3.7h-4.7l11.4-19h4.7l11.7 19h-5.5l-2.4-3.8h-12.9zm4.4-7.3h8.9l-4.4-7.7zm-29.5 7.3h-4.7v-19h15.7c4.4 0 7.3 2.5 7.3 6.2.2 2.7-1.7 5.2-4.4 5.7l4.9 7.1h-5.2l-4.7-6.7h-8.9zm0-10.3h10.6c2 0 3.1-1 3.1-2.5s-1.1-2.4-3.2-2.4h-10.5z" fill="#fff"/><path d="m35.6 6.9 4.1-6.9 4.6 2.6-4.2 6.9h8.3v5.1h-8.3l4.2 6.9-4.6 2.6-4.1-6.9-3-5.1z" fill="#99ca3c"/><path d="m35.6 6.9-4.1-6.9-4.6 2.6 4.1 6.9h-8.2v5.1h8.2l-4.1 6.9 4.6 2.6 4.1-6.9 3-5.1z" fill="#624da0"/><path d="m0 35.2c0-2.5 1.1-3.7 3.7-3.7s3.7 1.3 3.7 3.7c0 2.5-1.2 3.7-3.7 3.7s-3.7-1.3-3.7-3.7zm2.1 0c0 1.5.5 2 1.6 2s1.6-.5 1.6-2.1-.5-2-1.5-2-1.7.6-1.7 2.1zm6.8-3.6h3.7c1.3-.1 2.5.9 2.6 2.2v.5c.1 1.4-1 2.6-2.4 2.6h-1.8v1.9h-2.1zm2.1 1.7v1.9h1.2c.5 0 .9-.3.9-.8v-.2c0-.5-.3-.9-.8-.9zm5.5-1.7h3.7c1.3-.1 2.5.9 2.6 2.2v.5c.1 1.4-1 2.6-2.4 2.6h-1.8v1.9h-2.1zm2.2 1.7v1.9h1.2c.5 0 .9-.3.9-.8v-.2c0-.5-.3-.9-.8-.9zm5.2 1.9c0-2.5 1.1-3.7 3.7-3.7s3.7 1.3 3.7 3.7c0 2.5-1.2 3.7-3.7 3.7s-3.7-1.3-3.7-3.7zm2.2 0c0 1.5.5 2 1.6 2s1.6-.5 1.6-2.1-.6-2-1.6-2-1.6.6-1.6 2.1zm6.7-3.6h3.9c1.3-.1 2.4.8 2.5 2.1v.4c.1.9-.4 1.7-1.1 2.1l1.1 2.6h-2.2l-.9-2.1h-1.1v2.2h-2.1v-7.3zm2.1 1.7v1.7h1.4c.4 0 .8-.3.9-.7v-.2c0-.4-.3-.8-.7-.8zm11.7-1.7v1.7h-2.2v5.4h-2.1v-5.4h-2.2v-1.7zm5.8 0h2.1v4.2c0 2.3-1.2 3.1-3.4 3.1s-3.4-.9-3.4-3.1v-4.2h2.1v4.3c0 .7.6 1.3 1.3 1.3s1.3-.6 1.3-1.3zm5.8 3.2v3.9h-1.9v-7.1h1.6l3.3 4.2v-4.2h2v7.1h-1.8zm6.8-3.2h2.1v7.1h-2.1zm9.8 0v1.7h-2.2v5.4h-2.1v-5.4h-2.2v-1.7zm.8 0h2.3l1.4 2.8 1.4-2.8h2.3l-2.6 4.6v2.5h-2.1v-2.6zm10.9 0h2.1v7.1h-2.1zm8 2.1c-.3-.5-.9-.8-1.4-.8-.8 0-1 .3-1 .6s.3.5 1 .7l.6.1c1.8.4 2.3 1.2 2.3 2.3 0 1.3-1.1 2.2-3.1 2.2-1.2.1-2.3-.4-3-1.4l1.3-1c.3.6 1 1 1.7.9.7 0 1.1-.2 1.1-.7s-.2-.5-.8-.7l-.7.1c-1.8-.4-2.3-1.4-2.3-2.3 0-1.3.9-2.2 2.9-2.2 1.1-.1 2.2.4 2.8 1.3zm5.3-2.1h5.8v1.6h-3.7v1.1h3.2v1.6h-3.2v1.2h3.8v1.6h-5.9zm9 0 1.5 4.9 1.6-4.9h2.1l-2.5 7.1h-2.5l-2.5-7.1zm6.4 0h5.8v1.6h-3.7v1.1h3.2v1.6h-3.2v1.2h3.8v1.6h-5.9zm7.5 0h3.9c1.3-.1 2.4.8 2.5 2.1v.4c.1.9-.4 1.7-1.1 2.1l1.1 2.6h-2.3l-.9-2.1h-1.1v2.2h-2.1zm2 1.7v1.7h1.4c.4 0 .8-.3.9-.7v-.2c0-.4-.3-.8-.7-.8zm4.9-1.7h2.3l1.4 2.8 1.4-2.8h2.2l-2.6 4.6v2.5h-2.1v-2.6zm14.2 0 1.1 4.3 1.1-4.4h2.1l-2.1 7.1h-2.1l-1.1-4.3-1.1 4.3h-2l-2-7.1h2.2l1 4.3 1.1-4.3h1.8zm10.1 4.5h-2.6v2.7h-2.1v-7.1h2.1v2.7h2.6v-2.7h2.1v7.1h-2.1zm4-4.5h5.8v1.6h-3.7v1.1h3.2v1.6h-3.2v1.2h3.8v1.6h-5.9zm7.5 0h3.9c1.3-.1 2.4.8 2.5 2.1v.4c.1.9-.4 1.7-1.1 2.1l1.1 2.6h-2.3l-.9-2.1h-1.1v2.2h-2.1zm2.1 1.7v1.7h1.4c.4 0 .8-.3.9-.7v-.2c0-.4-.3-.8-.7-.8zm5.8-1.7h5.8v1.6h-3.7v1.1h3.2v1.6h-3.2v1.2h3.8v1.6h-5.9z" fill="#99ca3c"/></svg><svg height="113" viewBox="-6 -6 77 113" width="77" y="219.78"><path d="m12.3 29.1 16.6-29.1 18.4 10.7-16.6 29.1h33.3v21.4h-33.3l16.6 29.1-18.4 10.7-16.6-29.1-12.3-21.4z" fill="#9c0"/></svg><svg height="78.13" viewBox="-6 -6 144.66 78.13" width="144.66" x="232.41"><path d="m18.845 24.64h4.895v-23.8h-5.3l.136 15.877-11.63-15.874h-4.386v23.8h5.27l-.135-15.1zm18.19.477c3.5 0 6.154-1.224 7.548-3.842l-3.23-1.972a3.882 3.882 0 0 1 -3.91 2.142c-2.447 0-3.84-1.088-4.08-3.774h11.357a11.986 11.986 0 0 0 .135-1.834c0-4.794-2.312-8.534-7.955-8.534-5.508 0-8.635 3.332-8.635 9.01 0 5.983 3.4 8.805 8.77 8.805zm-.235-14.075c1.938 0 2.992 1.156 3.128 3.536h-6.562c.204-2.414 1.46-3.536 3.434-3.536zm20.84-3.23-3.16 10.573-2.953-10.64h-5l5.337 16.9h4.763l3.06-10.846 3.093 10.844h4.793l5.27-16.9h-4.827l-2.896 10.707-3.2-10.64h-4.285zm25.774 17.51c0 2.174-.714 2.888-2.176 2.888a4.1 4.1 0 0 1 -1.768-.374l-.85 3.57a8.47 8.47 0 0 0 3.6.748c3.91 0 6.56-2.074 6.56-6.493v-17.916h-5.37v17.575zm-.408-22.54c0 1.87 1.122 2.753 3.093 2.753s3.091-.885 3.091-2.755c0-1.937-1.12-2.787-3.093-2.787s-3.093.85-3.093 2.788zm22.234 13.427c0 3.535-1.19 4.963-3.773 4.963-2.618 0-3.808-1.428-3.808-4.964 0-3.5 1.122-4.896 3.808-4.896 2.65 0 3.773 1.394 3.773 4.895zm-12.647-.035c0 6.052 3.027 8.942 8.875 8.942 5.813 0 8.873-2.992 8.873-8.942 0-6.12-2.924-8.873-8.873-8.873-5.576 0-8.874 2.788-8.874 8.873zm26.892-15.331h-5.37v23.8h4.146l.306-2.38a6.27 6.27 0 0 0 5.712 2.856c4.963 0 7.58-3.5 7.58-9.147 0-5.78-2.583-8.67-6.832-8.67a6.147 6.147 0 0 0 -5.542 2.823v-9.279zm-.1 15.468c0-3.534 1.53-5 3.74-5 2.244 0 3.57 1.43 3.57 4.964 0 3.3-1.224 4.9-3.638 4.9-2.178 0-3.674-1.497-3.674-4.863zm-119.391 25.434v16.9h5.37v-8.3c.035-2.923 1.53-4.385 3.707-4.385 1.973 0 2.993.95 2.993 3.875v8.805h5.37v-10.606c0-4.046-1.9-6.732-6.288-6.732a6.882 6.882 0 0 0 -6.255 3.5l-.442-3.06h-4.455zm29.784 17.373c3.5 0 6.153-1.224 7.547-3.842l-3.23-1.972a3.883 3.883 0 0 1 -3.91 2.142c-2.447 0-3.84-1.088-4.08-3.774h11.356a11.986 11.986 0 0 0 .137-1.834c0-4.794-2.312-8.534-7.955-8.534-5.508 0-8.636 3.332-8.636 9.01 0 5.983 3.4 8.805 8.77 8.805zm-.238-14.075c1.937 0 2.99 1.156 3.127 3.536h-6.562c.204-2.414 1.462-3.536 3.434-3.536zm20.84-3.23-3.16 10.573-2.958-10.64h-5l5.338 16.9h4.76l3.06-10.846 3.093 10.844h4.793l5.27-16.9h-4.828l-2.89 10.71-3.2-10.642h-4.284zm29.785 18.222a2.83 2.83 0 0 1 -2.89 2.142 6.03 6.03 0 0 1 -2.447-.544l-.544 3.842a9.376 9.376 0 0 0 3.637.646c3.163 0 5.645-1.02 6.97-4.352l7.854-20.024h-5.51l-3.81 11.253-3.943-11.253h-5.54l6.663 16.965zm26.52-9.825c0 3.535-1.19 4.963-3.774 4.963-2.617 0-3.807-1.428-3.807-4.964 0-3.5 1.122-4.896 3.808-4.896 2.65 0 3.773 1.394 3.773 4.895zm-12.648-.035c0 6.052 3.026 8.942 8.874 8.942 5.814 0 8.874-2.992 8.874-8.942 0-6.12-2.924-8.873-8.873-8.873-5.576 0-8.874 2.788-8.874 8.873zm34.237 8.466h4.385v-16.9h-5.335v8.636c-.034 2.856-1.53 4.352-3.57 4.352s-2.992-1.19-2.992-3.706v-9.28h-5.37v10.742c0 3.876 1.937 6.63 6.492 6.63a6.6 6.6 0 0 0 5.984-3.332z" fill="#fff" fill-rule="evenodd"/></svg></svg>