<svg enable-background="new 12.285 -210.236 935.43 1380.473" height="1380.473" viewBox="12.285 -210.236 935.43 1380.473" width="935.43" xml:space="preserve" xmlns="http://www.w3.org/2000/svg"><g transform="translate(480 480)"><path d="m0-407.021c52.143 0 103.8 10.019 152.162 29.513l-7.771 19.277c-45.891-18.498-94.91-28.005-144.391-28.005z" fill="#c4c4c4"/><path d="m170.84-369.431c.146.067.291.135.437.202l-8.746 18.854c-.139-.063-.276-.127-.414-.191z" fill="#bababa"/><path d="m189.516-360.208c30.738 16.172 59.28 36.213 84.93 59.633l-14.014 15.349c-24.34-22.224-51.425-41.241-80.594-56.588z" fill="#7f7f7f"/><path d="m289.125-286.482c32.636 32.937 59.403 71.208 79.147 113.161l-18.805 8.851c-18.736-39.811-44.138-76.127-75.107-107.382z" fill="#dedede"/><path d="m376.476-154.699c6.59 16.037 12.147 32.478 16.641 49.223l-20.074 5.386c-4.264-15.89-9.538-31.492-15.791-46.709z" fill="#bebebe"/><path d="m397.897-85.697c11.059 51.35 12.074 104.355 2.99 156.09l-20.472-3.593c8.621-49.094 7.657-99.393-2.837-148.121z" fill="#556270"/><path d="m396.867 90.343c-3.767 16.544-8.562 32.837-14.363 48.782l-19.532-7.104c5.504-15.132 10.057-30.593 13.63-46.293z" fill="#dcdcdc"/><path d="m375.073 158.068c-6.171 14.64-13.191 28.906-21.028 42.725l-18.079-10.253c7.438-13.114 14.1-26.651 19.954-40.543z" fill="#454545"/><path d="m343.567 218.236c-20.416 32.142-45.242 61.261-73.752 86.502l-13.777-15.561c27.053-23.953 50.611-51.585 69.986-82.085z" fill="#858585"/><path d="m254.246 317.843c-25.521 20.415-53.408 37.682-83.06 51.427l-8.741-18.855c28.137-13.044 54.601-29.429 78.818-48.801z" fill="#ababab"/><path d="m152.517 377.365c-12.41 5.016-25.061 9.416-37.904 13.186l-5.854-19.943c12.188-3.577 24.193-7.753 35.97-12.513z" fill="#b8b8b8"/><path d="m94.949 395.79c-31.803 7.63-64.411 11.398-97.116 11.225l.111-20.783c31.035.165 61.978-3.411 92.158-10.651z" fill="#c0c0c0"/><path d="m-22.506 406.398c-23.723-1.314-47.285-4.702-70.417-10.127l4.745-20.235c21.951 5.147 44.31 8.362 66.821 9.609z" fill="#ededed"/><path d="m-112.612 391.132c-28.654-8.249-56.314-19.623-82.484-33.916l9.962-18.24c24.833 13.562 51.082 24.355 78.272 32.184z" fill="#5e5e5e"/><path d="m-212.706 347.019c-51.648-31.658-95.578-74.445-128.587-125.242l17.428-11.324c31.322 48.202 73.01 88.805 122.021 118.847z" fill="#6cdfea"/><path d="m-351.951 204.442c-6.551-11.279-12.557-22.866-17.997-34.723l18.892-8.666c5.161 11.25 10.86 22.246 17.077 32.949z" fill="#d3d3d3"/><path d="m-377.967 151.019c-12.012-30.065-20.395-61.455-24.969-93.506l20.575-2.937c4.341 30.414 12.296 60.201 23.695 88.73z" fill="#4a4a4a"/><path d="m-405.308 37.303c-8.634-93.812 15.542-187.713 68.404-265.692l17.204 11.662c-50.164 73.997-73.104 163.104-64.911 252.125z" fill="#c3ff68"/><path d="m-325.068-244.942c25.28-33.548 55.6-62.982 89.885-87.254l12.009 16.963c-32.533 23.033-61.306 50.963-85.294 82.799z" fill="#cfcfcf"/><path d="m-218.287-343.536c40.788-25.917 85.865-44.363 133.12-54.475l4.349 20.324c-44.842 9.595-87.617 27.1-126.321 51.693z" fill="#a1a1a1"/><path d="m-65.169-401.77c14.843-2.408 29.808-3.991 44.827-4.742l1.039 20.758c-14.252.713-28.452 2.216-42.537 4.5z" fill="#7a7a7a"/><path d="m162.525-350.378s.001.001.002.002c-108.352 233.584-50.537 413.889 173.441 540.912-.001.001-.002.002-.002.004-223.977-127.026-281.792-307.332-173.441-540.918z" fill="#bababa"/><path d="m144.386-358.233c.002 0 .005.001.006.002-96.261 238.821-90.217 241.439 18.135 7.855.002 0 .003 0 .004.001-108.354 233.583-114.403 230.964-18.145-7.858z" fill="#c4c4c4"/><path d="m162.491-350.393c.003.001.007.003.01.004-108.335 233.593-46.012 295.564 186.965 185.915.001 0 .001.002.002.003-232.978 109.647-295.305 47.673-186.977-185.922z" fill="#bababa"/><path d="m-351.049 161.069c-.002-.005-.004-.01-.007-.016 234.037-107.368 405.233-277.845 513.587-511.428-108.354 233.583-279.547 404.064-513.58 511.444z" fill="#d3d3d3"/><path d="m108.771 370.604c-.005.001-.008.002-.012.003-72.506-247.072-54.589-487.402 53.752-720.991.002.001.004.002.007.003-108.346 233.588-126.262 473.915-53.747 720.985z" fill="#b8b8b8"/><path d="m162.469-350.403c.005.002.009.004.013.006-108.322 233.598-77.135 446.788 93.56 639.57-.002.001-.003.003-.005.005-170.692-192.785-201.881-405.979-93.568-639.581z" fill="#bababa"/><path d="m-323.85 210.477c-.005-.009-.01-.017-.015-.024 215.909-140.303 378.042-327.245 486.396-560.828-108.354 233.583-270.481 420.534-486.381 560.852z" fill="#6cdfea"/><path d="m-80.836-377.683c.005-.001.011-.002.017-.004 53.879 251.791 134.979 260.888 243.3 27.289.004.002.007.003.01.005-108.328 233.595-189.437 224.499-243.327-27.29z" fill="#a1a1a1"/><path d="m-382.356 54.611c-.002-.012-.003-.023-.005-.035 254.907-36.384 436.534-171.37 544.879-404.957.001.001.004.002.007.003-108.351 233.586-289.977 368.582-544.881 404.989z" fill="#4a4a4a"/><path d="m162.375-350.447c.008.003.016.007.022.011-108.265 233.624-75.593 255.355 98.015 65.193.007.006.013.011.02.017-173.622 190.151-206.307 168.411-98.057-65.221z" fill="#bababa"/><path d="m-319.742-216.665c.013-.021.028-.041.042-.062 213.133 144.485 373.846 99.921 482.136-133.691.007.002.012.005.017.007-108.302 233.607-269.034 278.189-482.195 133.746z" fill="#c3ff68"/><path d="m-19.357-385.751c.018-.001.036-.002.053-.003 12.869 257.169 73.417 268.933 181.644 35.291.012.005.023.011.035.017-108.25 233.631-168.827 221.862-181.732-35.305z" fill="#7a7a7a"/><path d="m162.255-350.502c.016.007.03.014.046.021-108.201 233.654-108.217 233.647-.046-.021z" fill="#bababa"/><path d="m373.021-100.169c.007.027.015.053.021.079-248.694 66.727-318.903-16.719-210.625-250.337.006.003.013.006.019.009-108.29 233.612-38.096 317.028 210.585 250.249z" fill="#bebebe"/><path d="m363.011 131.914c-.013.035-.026.071-.039.107-241.982-88.014-308.821-248.825-200.52-482.432.006.003.011.005.017.008-108.313 233.602-41.466 394.375 200.542 482.317z" fill="#dcdcdc"/><path d="m380.431 66.715c-.005.028-.01.056-.016.085-253.61-44.533-326.347-183.642-218.212-417.326.018.008.035.016.052.024-108.171 233.668-35.445 372.74 218.176 417.217z" fill="#556270"/><path d="m-88.05 376.066c-.043-.01-.085-.02-.128-.03 58.785-250.691 142.31-492.848 250.576-726.472.007.003.013.006.02.009-108.279 233.618-191.768 475.782-250.468 726.493z" fill="#ededed"/><path d="m-223.3-315.145c.042-.03.083-.059.125-.089 148.783 210.155 277.341 198.438 385.676-35.155l.01.005c-108.341 233.589-236.945 245.336-385.811 35.239z" fill="#cfcfcf"/><path d="m162.116-350.566c.029.014.059.027.087.04-108.135 233.684-162.863 479.27-164.184 736.757-.024 0-.05 0-.075 0 1.37-257.487 56.095-503.086 164.172-736.797z" fill="#bababa"/><path d="m162.598 350.343c-.051.024-.102.048-.152.071-108.298-233.609-108.346-467.241-.145-700.895.013.006.025.012.039.018-108.226 233.642-108.142 467.244.258 700.806z" fill="#ababab"/><path d="m-20.229-385.706c.151-.008.304-.017.455-.024 13.183 257.153 136.22 330.812 369.109 220.978.044.092.088.185.131.278-232.977 109.649-356.209 35.906-369.695-221.232z" fill="#7a7a7a"/><path d="m-350.811 161.588c-.08-.173-.159-.345-.238-.519 234.033-107.38 387.385-37.558 460.059 209.465-.081.023-.16.047-.239.07-72.515-247.07-225.708-316.741-459.582-209.016z" fill="#d3d3d3"/><path d="m336.182 190.158c-.071.126-.143.252-.214.378-223.978-127.023-342.56-319.113-355.742-576.266l.417-.021c12.905 257.167 131.417 449.138 355.539 575.909z" fill="#454545"/><path d="m372.698-101.363c.058.214.116.429.175.643-248.583 67.146-434.487 213.765-557.714 439.855-.098-.053-.195-.106-.293-.159 123.422-225.984 309.367-372.764 557.832-440.339z" fill="#bebebe"/><path d="m372.873-100.72c.049.184.099.367.147.551-248.68 66.779-260.798 163.27-36.355 289.471-.082.146-.165.292-.247.438-224.278-126.494-212.128-223.314 36.455-290.46z" fill="#bebebe"/><path d="m163.816 349.775c-.235.11-.47.22-.704.329-108.742-233.403-126.654-226.628-53.737 20.322-.122.037-.244.072-.365.108-72.674-247.022-54.405-253.942 54.806-20.759z" fill="#ababab"/><path d="m-21.454-385.641c.227-.013.454-.024.68-.037 13.849 257.118 106.269 481.938 277.259 674.458-.147.131-.295.262-.442.393-170.696-192.782-263.194-417.72-277.497-674.814z" fill="#7a7a7a"/><path d="m-23.051-385.548c.281-.017.562-.034.843-.05 14.805 257.065-39.279 498.711-162.253 724.939-.126-.069-.252-.138-.379-.207 123.226-226.089 177.156-467.65 161.789-724.682z" fill="#7a7a7a"/><path d="m-350.501 162.258c-.103-.224-.207-.446-.31-.67 233.874-107.725 343.886-290.148 330.037-547.266.181-.01.363-.02.544-.028 13.487 257.138-96.604 439.792-330.271 547.964z" fill="#d3d3d3"/><path d="m-320.275-215.876c.177-.263.355-.526.533-.789 213.161 144.443 356.324 340.104 429.49 586.981-.125.036-.249.073-.373.109-72.917-246.949-216.133-442.384-429.65-586.301z" fill="#c3ff68"/><path d="m259.712-285.881c.233.212.467.425.7.638-173.608 190.162-148.272 348.489 76.006 474.982-.078.139-.157.279-.236.419-224.122-126.771-249.611-285.452-76.47-476.039z" fill="#7f7f7f"/><path d="m372.421-102.377c.093.338.186.676.277 1.014-248.466 67.576-256.315 46.316-23.547-63.778.061.13.123.26.184.39-232.889 109.834-225.195 130.625 23.086 62.374z" fill="#bebebe"/><path d="m-349.742 163.889c-.132-.284-.265-.568-.397-.853 233.426-108.69 404.51-46.335 513.251 187.068-.171.08-.343.159-.514.238-108.4-233.561-279.179-295.712-512.34-186.453z" fill="#d3d3d3"/><path d="m164.534 349.438c-.239.112-.479.225-.719.337-109.21-233.183-50.96-287.813 174.748-163.888-.119.218-.239.436-.359.652-225.469-124.359-283.359-70.06-173.67 162.899z" fill="#ababab"/><path d="m-.89 386.235c-.364-.001-.728-.002-1.091-.004 1.321-257.487-59.357-273.036-182.032-46.646-.149-.081-.298-.162-.448-.243 122.973-226.229 184.164-210.597 183.571 46.893z" fill="#c0c0c0"/><path d="m112.1 369.61c-.286.087-.57.173-.856.259-74.163-246.579-118.647-498.402-133.452-755.467.251-.015.503-.029.754-.043 14.303 257.094 58.82 508.845 133.554 755.251z" fill="#b8b8b8"/><path d="m-350.139 163.036c-.121-.259-.242-.519-.362-.778 233.667-108.172 471.675-118.76 714.026-31.766-.089.249-.179.496-.269.745-242.171-87.491-479.97-76.891-713.395 31.799z" fill="#d3d3d3"/><path d="m-82.449-377.334c.32-.069.639-.139.958-.208 54.327 251.695 202.576 421.288 444.747 508.779-.081.226-.163.45-.245.677-242.008-87.942-390.495-257.692-445.46-509.248z" fill="#a1a1a1"/><path d="m142.603-358.947c.334.133.669.266 1.003.4-95.738 239.031-106.777 481.912-33.117 728.643-.247.073-.493.146-.74.221-73.167-246.878-62.216-489.966 32.854-729.264z" fill="#c4c4c4"/><path d="m-83.493-377.104c.348-.077.696-.153 1.043-.229 54.966 251.555 119.531 500.623 193.693 747.202-.251.076-.503.151-.755.227-73.659-246.731-138.319-495.797-193.981-747.2z" fill="#a1a1a1"/><path d="m-348.713 166.067c-.173-.364-.347-.729-.519-1.095 232.821-109.981 461.847-102.578 687.08 22.21-.109.197-.22.396-.33.594-225.012-125.184-453.756-132.421-686.231-21.709z" fill="#d3d3d3"/><path d="m-348.186 167.167c-.176-.366-.351-.732-.526-1.1 232.474-110.712 287.588-52.756 165.342 173.866-.215-.116-.429-.231-.643-.348 122.675-226.39 67.95-283.862-164.173-172.418z" fill="#d3d3d3"/><path d="m-349.232 164.973c-.17-.36-.34-.722-.51-1.084 233.161-109.259 397.61-283.405 493.348-522.436.261.104.521.208.78.313-96.258 238.823-260.797 413.225-493.618 523.207z" fill="#d3d3d3"/><path d="m116.223 368.336c-.395.124-.788.247-1.184.371-76.693-245.805 1.227-424.002 233.76-534.592.117.248.235.496.353.744-232.769 110.094-310.411 287.919-232.929 533.477z" fill="#b8b8b8"/><path d="m-382.199 55.701c-.053-.363-.106-.727-.157-1.09 254.904-36.407 420.034 68.498 495.39 314.715-.312.095-.622.189-.934.284-74.734-246.406-239.5-351.043-494.299-313.909z" fill="#4a4a4a"/><path d="m-84.943-376.78c.483-.109.966-.217 1.45-.324 55.662 251.403 195.999 439.696 421.011 564.881-.104.188-.209.374-.312.562-224.804-125.56-365.521-313.932-422.149-565.119z" fill="#a1a1a1"/><path d="m339.564 184.051c-.188.349-.378.696-.568 1.045-225.998-123.398-217.715-141.899 24.85-55.503-.106.301-.214.6-.321.899-242.351-86.994-250.337-69.142-23.961 53.559z" fill="#454545"/><path d="m.378 386.236c-.423 0-.846 0-1.269-.001.594-257.49 113.889-324.537 339.886-201.14-.144.264-.288.528-.433.791-225.707-123.924-338.436-57.14-338.184 200.35z" fill="#c0c0c0"/><path d="m-323.186 211.494c-.222-.34-.443-.679-.664-1.018 215.9-140.317 361.847-87.466 437.844 158.554-.319.1-.641.198-.961.296-75.355-246.217-220.762-298.828-436.219-157.832z" fill="#6cdfea"/><path d="m347.386-168.825c.196.404.392.808.586 1.213-231.982 111.741-226.579 210.498 16.207 296.268-.11.312-.222.625-.333.937-242.565-86.396-248.051-185.868-16.46-298.418z" fill="#dedede"/><path d="m365.039 126.193c-.146.421-.292.842-.439 1.263-243.067-84.972-425.424-13.983-547.07 212.96-.3-.16-.601-.322-.9-.483 122.246-226.622 305.049-297.869 548.409-213.74z" fill="#dcdcdc"/><path d="m-345.346 172.959c-.253-.507-.506-1.014-.758-1.522 230.736-114.291 318.94-297.284 264.613-548.979.218-.047.436-.094.655-.141 53.89 251.789-34.279 435.336-264.51 550.642z" fill="#d3d3d3"/><path d="m371.708-104.935c.13.46.26.921.388 1.383-248.065 69.034-286.361 199.598-114.891 391.691-.239.214-.479.428-.721.642-170.989-192.521-132.581-323.76 115.224-393.716z" fill="#bebebe"/><path d="m-382.019 56.921c-.061-.406-.121-.812-.18-1.22 254.799-37.134 506.23-90.219 754.295-159.253.108.392.217.783.325 1.175-248.281 68.251-499.761 121.351-754.44 159.298z" fill="#4a4a4a"/><path d="m-24.303-385.471c.417-.026.834-.052 1.252-.077 15.367 257.032-84.124 314.211-298.474 171.537.222-.335.445-.668.669-1.002 213.904 143.342 312.754 86.523 296.553-170.458z" fill="#7a7a7a"/><path d="m380.734 64.963c-.1.584-.2 1.169-.303 1.752-253.621-44.477-267.696-4.535-42.228 119.824-.118.215-.237.429-.355.644-225.233-124.788-210.938-165.529 42.886-122.22z" fill="#556270"/><path d="m167.967 347.801c-.395.191-.79.381-1.186.57-111.188-232.247-226.891-234.519-347.111-6.816-.359-.189-.718-.38-1.077-.571 120.938-227.323 237.397-225.05 349.374 6.817z" fill="#ababab"/><path d="m2.146 386.23c-.589.004-1.178.005-1.768.006-.252-257.49 115.758-441.805 348.029-552.942.13.273.262.546.392.82-232.533 110.591-348.084 294.629-346.653 552.116z" fill="#c0c0c0"/><path d="m-226.87-312.584c.594-.431 1.189-.86 1.786-1.288 150.056 209.248 337.391 376.82 562.006 502.716-.086.152-.171.306-.257.458-224.443-126.201-412.289-293.496-563.535-501.886z" fill="#cfcfcf"/><path d="m-84.141 376.96c-.505-.112-1.011-.227-1.516-.342 57.104-251.078 140.859-260.308 251.265-27.688-.357.169-.716.339-1.073.508-109.69-232.959-192.582-223.785-248.676 27.522z" fill="#ededed"/><path d="m371.244-106.563c.156.542.311 1.085.464 1.628-247.805 69.956-333.362 227.837-256.669 473.642-.348.108-.696.216-1.045.323-75.997-246.02 9.754-404.551 257.25-475.593z" fill="#bebebe"/><path d="m-347.544 168.499c-.215-.443-.43-.888-.643-1.332 232.124-111.444 434.422-262.765 606.892-453.96.336.304.672.607 1.007.912-173.141 190.587-375.56 342.048-607.256 454.38z" fill="#d3d3d3"/><path d="m-28.634-385.173c.521-.039 1.044-.077 1.567-.114 18.044 256.858-80.425 456.146-295.407 597.865-.237-.36-.475-.723-.712-1.084 215.457-140.996 313.641-339.886 294.552-596.667z" fill="#7a7a7a"/><path d="m172.112 345.77c-.479.237-.956.474-1.435.71-113.784-230.987-84.33-250.983 88.364-59.99-.314.284-.63.568-.945.852-172.065-191.562-200.726-172.086-85.984 58.428z" fill="#ababab"/><path d="m-343.721 176.167c-.284-.554-.566-1.108-.848-1.664 229.712-116.335 460.559-230.374 692.541-342.115.146.302.291.604.436.906-232.272 111.137-462.982 225.429-692.129 342.873z" fill="#d3d3d3"/><path d="m169.269 347.169c-.433.212-.867.422-1.302.632-111.977-231.867-295.236-328.357-549.773-289.467-.072-.471-.143-.942-.213-1.413 254.679-37.947 438.442 58.802 551.288 290.248z" fill="#ababab"/><path d="m-344.569 174.503c-.26-.515-.519-1.028-.777-1.544 230.231-115.306 431.377-77.179 603.442 114.383-.297.266-.594.531-.891.797-171.47-192.093-372.062-229.971-601.774-113.636z" fill="#d3d3d3"/><path d="m-86.504-376.425c.52-.119 1.04-.237 1.561-.355 56.628 251.187 56.391 502.32-.714 753.398-.442-.101-.885-.202-1.327-.304 57.989-250.876 58.149-501.789.48-752.739z" fill="#a1a1a1"/><path d="m133.519-362.424c.75.276 1.498.554 2.246.834-90.511 241.06-23.363 424.369 201.44 549.927-.094.169-.188.338-.283.506-224.615-125.895-292.416-309.651-203.403-551.267z" fill="#c4c4c4"/><path d="m-342.821 177.912c-.302-.581-.602-1.162-.9-1.745 229.147-117.444 236.769-247.838 22.865-391.18.193-.289.387-.576.581-.864 213.517 143.918 206.001 275.181-22.546 393.789z" fill="#d3d3d3"/><path d="m370.74-108.303c.17.58.338 1.159.504 1.739-247.496 71.043-379.786-21.898-396.867-278.822.439-.029.879-.058 1.319-.085 16.202 256.981 147.884 349.37 395.044 277.168z" fill="#bebebe"/><path d="m137.873-360.79c.561.214 1.121.43 1.68.646-93.036 240.096-17.724 401.771 225.937 485.026-.149.438-.299.874-.45 1.312-243.361-84.13-319.083-246.458-227.167-486.984z" fill="#c4c4c4"/><path d="m-33.615-384.771c.575-.05 1.151-.099 1.726-.147 21.259 256.612 78.959 265.085 173.1 25.421.464.182.928.366 1.392.55-95.07 239.298-153.808 230.69-176.218-25.824z" fill="#7a7a7a"/><path d="m121.123 366.753c-.618.204-1.236.406-1.855.607-79.512-244.906-178.999-253.31-298.459-25.207-.38-.199-.76-.398-1.139-.599 120.22-227.702 220.704-219.303 301.453 25.199z" fill="#b8b8b8"/><path d="m-381.525 60.145c-.095-.604-.188-1.207-.281-1.811 254.537-38.89 372.783-186.763 354.739-443.621.481-.034.962-.066 1.444-.099 17.081 256.924-101.552 405.434-355.902 445.531z" fill="#4a4a4a"/><path d="m369.024 114.021c-.198.64-.398 1.279-.6 1.919-245.616-77.293-312.831.185-201.643 232.432-.391.187-.782.374-1.174.56-110.405-232.621-42.599-310.925 203.417-234.911z" fill="#dcdcdc"/><path d="m135.765-361.589c.703.265 1.407.531 2.108.799-91.916 240.526-166.868 486.228-224.857 737.104-.355-.083-.71-.165-1.065-.248 58.699-250.711 133.303-496.596 223.814-737.655z" fill="#c4c4c4"/><path d="m123.021 366.12c-.632.213-1.265.423-1.897.633-80.75-244.502-7.718-305.807 219.094-183.913-.218.404-.435.808-.654 1.211-226.376-122.701-298.557-62.011-216.543 182.069z" fill="#b8b8b8"/><path d="m-88.212-376.028c.569-.134 1.138-.266 1.708-.397 57.668 250.95 76.419 248.075 56.249-8.625.541-.042 1.081-.084 1.622-.124 19.088 256.782-.771 259.831-59.579 9.146z" fill="#a1a1a1"/><g fill="#bebebe"><path d="m367.669-118.312c.238.742.476 1.485.71 2.228-245.586 77.389-246.847 158.568-3.779 243.54-.14.4-.279.8-.421 1.2-242.786-85.77-241.623-168.094 3.49-246.968z"/><path d="m369.64-112.005c.19.631.38 1.262.568 1.895-246.805 73.406-397.716 235.882-452.731 487.427-.54-.118-1.079-.236-1.618-.357 56.094-251.307 207.353-414.295 453.781-488.965z"/><path d="m370.208-110.111c.179.602.356 1.205.532 1.808-247.16 72.202-324.223-11.745-231.187-251.841.554.214 1.105.43 1.658.646-94.14 239.665-17.808 322.794 228.997 249.387z"/><path d="m369.029-114.003c.205.666.409 1.332.611 1.998-246.428 74.67-485.252 168.656-716.475 281.958-.237-.483-.474-.969-.708-1.454 231.695-112.332 470.553-206.5 716.572-282.502z"/></g><path d="m-225.084-313.872c.594-.426 1.188-.85 1.785-1.272 148.865 210.096 262.546 437.761 341.044 682.996-.508.162-1.016.323-1.522.484-77.482-245.558-191.251-472.96-341.307-682.208z" fill="#cfcfcf"/><path d="m-80.387 377.778c-.712-.151-1.424-.305-2.135-.461 55.015-251.545-32.846-320.172-263.582-205.881-.245-.493-.488-.987-.731-1.483 231.223-113.302 320.039-44.027 266.448 207.825z" fill="#ededed"/><path d="m369.636 112.016c-.202.669-.407 1.338-.612 2.005-246.016-76.014-476.18-42.657-690.494 100.073-.335-.504-.67-1.01-1.004-1.516 214.983-141.719 445.685-175.239 692.11-100.562z" fill="#dcdcdc"/><path d="m-40.16-384.143c.787-.083 1.574-.162 2.361-.24 25.199 256.256 94.692 499.876 208.476 730.862-.469.23-.938.461-1.408.689-112.846-231.445-182.655-475.216-209.429-731.311z" fill="#7a7a7a"/><path d="m125.163 365.395c-.714.244-1.428.486-2.143.726-82.014-244.08-1.008-325.035 243.021-242.864-.184.543-.367 1.085-.553 1.626-243.659-83.256-323.767-3.085-240.325 240.512z" fill="#b8b8b8"/><path d="m-35.695-384.583c.693-.064 1.386-.127 2.08-.188 22.41 256.514 156.02 424.675 400.83 504.485-.197.604-.396 1.21-.596 1.813-244.413-81.018-378.517-249.721-402.314-506.11z" fill="#7a7a7a"/><path d="m-380.825 64.425c-.124-.729-.245-1.457-.364-2.187 254.125-41.492 503.396-21.729 747.809 59.289-.191.577-.384 1.153-.577 1.729-244.03-82.171-492.985-101.781-746.868-58.831z" fill="#4a4a4a"/><path d="m9.056 386.13c-.828.02-1.656.036-2.483.051-4.382-257.453 80.196-291.068 253.734-100.841-.421.384-.843.768-1.266 1.15-172.694-190.993-256.022-157.78-249.985 99.64z" fill="#c0c0c0"/><path d="m366.894-120.695c.261.793.52 1.587.775 2.382-245.113 78.875-309.773 233.307-193.983 463.294-.524.264-1.05.526-1.574.788-114.742-230.513-49.815-386.001 194.782-466.464z" fill="#bebebe"/><path d="m-69.637 379.907c-.945-.174-1.89-.351-2.834-.53 48.314-252.918 186.097-318.843 413.351-197.775-.22.413-.44.826-.662 1.238-226.812-121.894-363.431-56.204-409.855 197.067z" fill="#ededed"/><path d="m-75.192 378.847c-.88-.175-1.759-.353-2.638-.533 51.886-252.209 193.391-435.069 424.512-548.579.235.48.47.96.704 1.441-231.591 112.549-372.45 295.106-422.578 547.671z" fill="#ededed"/><path d="m-230.669-309.791c.644-.479 1.29-.957 1.937-1.433 152.488 207.483 114.766 371.117-113.167 490.903-.309-.589-.617-1.178-.922-1.767 228.547-118.608 265.932-281.176 112.152-487.703z" fill="#cfcfcf"/><path d="m-72.471 379.377c-.908-.173-1.815-.35-2.721-.53 50.128-252.564 64.562-507.153 43.303-763.765.545-.045 1.089-.089 1.634-.132 20.17 256.7 6.098 511.509-42.216 764.427z" fill="#ededed"/><path d="m-324.148-210.017c.451-.694.903-1.388 1.357-2.08 215.194 141.398 445.599 250.743 691.215 328.036-.2.635-.401 1.271-.605 1.905-245.213-78.563-475.869-187.85-691.967-327.861z" fill="#c3ff68"/><path d="m-228.733-311.224c.619-.455 1.24-.909 1.862-1.36 151.247 208.39 349.664 273.889 595.25 196.499.218.694.435 1.388.649 2.082-246.018 76.002-445.272 10.262-597.761-197.221z" fill="#cfcfcf"/><path d="m264.008 281.919c-.666.624-1.334 1.245-2.005 1.864-174.669-189.188-139.397-244.502 105.816-165.938-.199.623-.4 1.246-.604 1.869-244.81-79.81-279.213-25.741-103.207 162.205z" fill="#858585"/><path d="m366.085-123.126c.272.81.542 1.62.809 2.432-244.597 80.462-472.853 193.826-684.77 340.089-.414-.601-.827-1.202-1.238-1.805 212.742-145.06 441.143-258.632 685.199-340.716z" fill="#bebebe"/><path d="m-232.827-308.172c.717-.542 1.437-1.082 2.158-1.619 153.78 206.527 218.069 181.664 192.87-74.592.701-.069 1.402-.136 2.104-.201 23.797 256.39-41.914 281.86-197.132 76.412z" fill="#cfcfcf"/><path d="m-100.201-373.013c1.035-.278 2.071-.552 3.108-.821 64.729 249.222 38.309 488.375-79.26 717.458-.483-.248-.965-.496-1.447-.747 118.533-228.584 144.399-467.214 77.599-715.89z" fill="#a1a1a1"/><path d="m-56.963 382.013c-1.09-.162-2.18-.329-3.269-.501 40.154-254.342.965-267.219-117.569-38.634-.464-.24-.928-.481-1.391-.725 119.461-228.102 160.204-214.815 122.229 39.86z" fill="#ededed"/><path d="m-238.445-303.847c.996-.782 1.997-1.559 3-2.331 156.963 204.119 174.975 419.839 54.037 647.161-.355-.188-.708-.377-1.063-.567 121.647-226.943 102.989-441.698-55.974-644.263z" fill="#cfcfcf"/><path d="m-77.83 378.313c-.854-.176-1.705-.354-2.558-.535 53.591-251.853-46.419-355.515-300.03-310.986-.138-.788-.274-1.577-.408-2.367 253.884-42.95 354.882 61.679 302.996 313.888z" fill="#ededed"/><path d="m-338.01 186.89c-.476-.86-.949-1.723-1.418-2.588 226.285-122.868 233.056-111.772 20.314 33.288-.401-.588-.8-1.177-1.198-1.767 213.541-143.883 207.641-153.527-17.698-28.933z" fill="#d3d3d3"/><path d="m256.666-288.619c.682.606 1.361 1.215 2.039 1.826-172.47 191.195-144.146 228.042 84.971 110.539.357.698.714 1.396 1.067 2.096-229.829 116.105-259.188 77.951-88.077-114.461z" fill="#7f7f7f"/><path d="m-340.672 181.993c-.412-.771-.82-1.542-1.227-2.314 227.933-119.786 215.239-156.593-38.078-110.42-.15-.822-.297-1.644-.441-2.467 253.612-44.528 266.86-6.128 39.746 115.201z" fill="#d3d3d3"/><path d="m-339.428 184.302c-.417-.768-.831-1.537-1.243-2.309 227.113-121.329 467.72-161.168 721.821-119.515-.136.828-.274 1.657-.416 2.485-253.824-43.309-493.877-3.529-720.162 119.339z" fill="#d3d3d3"/><path d="m180.633 341.394c-.949.504-1.901 1.003-2.856 1.497-118.518-228.594-62.511-400.243 168.02-514.946.297.596.592 1.192.885 1.789-231.121 113.511-286.471 284.064-166.049 511.66z" fill="#ababab"/><path d="m381.731 58.824c-.188 1.218-.381 2.436-.581 3.653-254.101-41.652-341.394 59.977-261.882 304.883-.507.165-1.016.328-1.522.491-78.499-245.234 9.497-348.244 263.985-309.027z" fill="#556270"/><path d="m-316.056 222.006c-.611-.868-1.216-1.739-1.819-2.611 211.917-146.263 431.847-159.511 659.787-39.743-.342.651-.686 1.302-1.031 1.95-227.255-121.068-446.234-107.599-656.937 40.404z" fill="#6cdfea"/><path d="m247.021-296.916c.915.761 1.827 1.527 2.735 2.297-166.504 196.412-307.488 409.695-422.95 639.848-.543-.272-1.084-.547-1.626-.82 116.546-229.606 257.16-443.381 421.841-641.325z" fill="#7f7f7f"/><path d="m364.082-128.931c.354.999.702 2 1.048 3.001-243.421 83.954-472.727 55.231-687.921-86.167.42-.64.842-1.277 1.266-1.914 214.35 142.674 442.886 171.034 685.607 85.08z" fill="#bebebe"/><path d="m130.351-363.576c1.059.38 2.113.764 3.168 1.152-89.013 241.616-260.583 383.17-514.708 424.662-.114-.697-.226-1.396-.336-2.094 254.35-40.096 424.974-181.336 511.876-423.72z" fill="#c4c4c4"/><path d="m-235.444-306.178c.87-.668 1.741-1.333 2.617-1.994 155.218 205.448 291.377 422.833 408.477 652.157-.654.334-1.309.665-1.964.996-115.79-229.987-252.167-447.04-409.13-651.159z" fill="#cfcfcf"/><path d="m136.547 361.294c-1.117.422-2.235.839-3.356 1.251-88.794-241.696-131.818-233.807-129.071 23.67-.658.007-1.315.013-1.975.016-1.43-257.488 43.371-265.799 134.402-24.937z" fill="#b8b8b8"/><path d="m382.832 51.166c-.171 1.282-.349 2.563-.533 3.844-254.866-36.673-440.573 59.793-557.12 289.398-.512-.261-1.022-.521-1.533-.783 117.569-229.084 303.965-326.569 559.186-292.459z" fill="#556270"/><path d="m130.052 363.683c-.896.32-1.792.637-2.688.95-84.91-243.088-42.499-461.449 127.232-655.08.692.607 1.383 1.216 2.07 1.829-171.111 192.411-213.316 409.846-126.614 652.301z" fill="#b8b8b8"/><path d="m-336.42 189.737c-.534-.946-1.064-1.896-1.59-2.848 225.339-124.593 340.201-58.161 344.583 199.292-.817.014-1.635.025-2.452.034-2.748-257.477-116.261-322.969-340.541-196.478z" fill="#d3d3d3"/><path d="m-46.74 383.398c-1.155-.142-2.311-.288-3.465-.439 33.47-255.306 92.659-261.414 177.568-18.326-.732.256-1.466.51-2.2.762-83.442-243.597-140.743-237.595-171.903 18.003z" fill="#ededed"/><path d="m-42.948 383.842c-1.265-.142-2.528-.29-3.792-.443 31.16-255.599-60.031-311.459-273.571-167.576-.387-.576-.774-1.152-1.159-1.729 214.314-142.73 307.154-86.147 278.522 169.748z" fill="#ededed"/><path d="m-379.381 72.447c-.203-1.062-.402-2.125-.595-3.188 253.317-46.173 383.887 59.427 391.712 316.799-.894.027-1.786.052-2.68.072-6.037-257.42-135.517-361.981-388.437-313.683z" fill="#4a4a4a"/><path d="m-94.037-374.614c.989-.249 1.98-.493 2.972-.733 60.709 250.231 212.774 333.37 456.195 249.417.321.933.641 1.868.955 2.804-244.056 82.084-397.431-1.745-460.122-251.488z" fill="#a1a1a1"/><path d="m-63.381 381.001c-1.046-.175-2.092-.353-3.137-.535 44.345-253.644 72.429-251.856 84.253 5.363-1.02.047-2.039.09-3.059.128-9.784-257.305-35.803-258.957-78.057-4.956z" fill="#ededed"/><path d="m-378.66 76.126c-.246-1.226-.486-2.451-.721-3.679 252.92-48.298 493.749-13.325 722.484 104.919-.395.764-.791 1.524-1.191 2.285-227.941-119.767-468.132-154.276-720.572-103.525z" fill="#4a4a4a"/><path d="m-53.661 382.491c-1.101-.155-2.202-.314-3.302-.479 37.975-254.674 141.055-479.501 309.239-674.477.776.67 1.549 1.343 2.32 2.018-169.731 193.631-272.483 417.944-308.257 672.938z" fill="#ededed"/><path d="m-43.724-383.753c1.188-.135 2.375-.265 3.564-.39 26.773 256.095 45.052 512.795 54.837 770.1-.98.038-1.962.071-2.941.101-7.825-257.372-26.311-513.976-55.46-769.811z" fill="#7a7a7a"/><path d="m346.085 171.475c-.547 1.104-1.1 2.205-1.657 3.304-229.618-116.519-400.606-58.937-512.962 172.748-.873-.424-1.745-.852-2.615-1.281 114.099-230.83 286.511-289.088 517.234-174.771z" fill="#454545"/><path d="m-50.204 382.959c-1.153-.15-2.305-.307-3.457-.468 35.774-254.994-54.953-451.617-272.182-589.869.562-.881 1.126-1.761 1.695-2.639 216.098 140.011 307.413 337.67 273.944 592.976z" fill="#ededed"/><path d="m382.299 55.01c-.184 1.272-.373 2.544-.568 3.814-254.488-39.217-412.087-183.94-472.796-434.172.951-.23 1.901-.458 2.854-.681 58.807 250.686 215.644 394.366 470.51 431.039z" fill="#556270"/><path d="m244.114-299.311c.974.793 1.942 1.592 2.907 2.395-164.681 197.944-157.558 389.499 21.369 574.666-.735.712-1.474 1.42-2.216 2.124-177.449-186.583-184.803-379.645-22.06-579.185z" fill="#7f7f7f"/><path d="m273.535 272.685c-.887.89-1.777 1.774-2.673 2.654-180.575-183.559-226.465-154.49-137.671 87.206-1.044.384-2.091.763-3.139 1.138-86.702-242.455-38.874-272.788 143.483-90.998z" fill="#858585"/><path d="m21.618 385.631c-1.294.073-2.588.139-3.883.198-11.824-257.22 103.255-429.839 345.234-517.859.375 1.031.746 2.064 1.113 3.099-242.721 85.954-356.876 257.475-342.464 514.562z" fill="#c0c0c0"/><path d="m384.351 38.117c-.161 1.624-.332 3.248-.515 4.87-255.892-28.658-268.922-101.04-39.093-217.145.354.7.704 1.401 1.054 2.103-230.531 114.703-217.681 184.761 38.554 210.172z" fill="#556270"/><path d="m361.603-135.728c.462 1.23.917 2.463 1.366 3.698-241.979 88.02-279.717 33.823-113.213-162.589.842.714 1.682 1.433 2.52 2.154-168.184 194.976-131.742 247.222 109.327 156.737z" fill="#bebebe"/><path d="m-241.727-301.242c1.09-.874 2.184-1.742 3.283-2.605 158.962 202.565 216.271 430.669 171.926 684.313-1.041-.183-2.081-.368-3.119-.559 46.424-253.271-10.939-480.321-172.09-681.149z" fill="#cfcfcf"/><path d="m383.836 42.987c-.156 1.395-.319 2.787-.491 4.18-255.564-31.444-403.423 80.003-443.577 334.345-1.05-.167-2.1-.337-3.149-.511 42.254-254.001 191.326-366.672 447.217-338.014z" fill="#556270"/><path d="m241.147-301.707c.993.793 1.981 1.592 2.967 2.396-162.743 199.54-278.672 175.29-347.787-72.751 1.155-.322 2.313-.639 3.472-.95 66.8 248.675 180.583 272.443 341.348 71.305z" fill="#7f7f7f"/><path d="m238.07-304.141c1.03.806 2.056 1.617 3.077 2.434-160.765 201.138-345.824 376.662-555.177 526.57-.68-.948-1.356-1.901-2.026-2.857 210.703-148.003 395.412-323.386 554.126-526.147z" fill="#7f7f7f"/><path d="m35.472 384.604c-1.718.158-3.438.305-5.159.44-20.209-256.696 28.946-270.748 147.464-42.154-.708.367-1.417.731-2.127 1.095-117.1-229.324-163.827-215.784-140.178 40.619z" fill="#c0c0c0"/><path d="m385.246 27.635c-.127 1.772-.267 3.542-.418 5.312-256.552-21.965-297.494 61.648-122.825 250.836-.563.521-1.129 1.039-1.696 1.557-173.538-190.227-131.892-276.129 124.939-257.705z" fill="#556270"/><path d="m383.345 47.167c-.164 1.334-.335 2.667-.513 3.999-255.221-34.11-398.625-178.939-430.213-434.486 1.219-.15 2.438-.295 3.656-.434 29.15 255.836 171.506 399.477 427.07 430.921z" fill="#556270"/><path d="m276.298 269.885c-.915.938-1.837 1.871-2.763 2.8-182.357-181.79-157.605-216.689 74.256-104.697-.562 1.164-1.132 2.326-1.706 3.486-230.723-114.316-253.986-81.513-69.787 98.411z" fill="#858585"/><path d="m-245.299-298.341c1.185-.974 2.375-1.941 3.572-2.901 161.151 200.828 365.248 337.548 612.289 410.158-.305 1.034-.612 2.067-.926 3.1-246.425-74.677-451.403-211.463-614.935-410.357z" fill="#cfcfcf"/><path d="m234.896-306.598c1.062.813 2.12 1.632 3.174 2.457-158.714 202.761-364.031 330.777-615.951 384.047-.266-1.258-.526-2.519-.78-3.78 252.441-50.751 456.96-178.325 613.557-382.724z" fill="#7f7f7f"/><path d="m111.801-369.702c1.835.555 3.666 1.124 5.492 1.706-78.195 245.331-174.343 483.412-288.442 714.242-.683-.337-1.364-.676-2.045-1.018 115.462-230.152 210.461-468.462 284.995-714.93z" fill="#c4c4c4"/><path d="m-375.87 88.886c-.364-1.537-.718-3.077-1.062-4.619 251.288-56.178 321.829 32.091 211.625 264.807-1.078-.511-2.154-1.026-3.227-1.546 112.356-231.686 43.244-317.9-207.336-258.642z" fill="#4a4a4a"/><path d="m231.384-309.257c1.176.88 2.347 1.766 3.512 2.66-156.597 204.398-111.007 341.623 136.772 411.677-.362 1.28-.731 2.559-1.106 3.836-247.041-72.61-293.435-212.002-139.178-418.173z" fill="#7f7f7f"/><path d="m-37.748 384.388c-1.734-.171-3.468-.353-5.2-.546 28.632-255.895 133.235-292.062 313.811-108.503-.82.808-1.646 1.611-2.473 2.411-178.927-185.167-280.973-149.621-306.138 106.638z" fill="#ededed"/><path d="m41.001 384.054c-1.842.197-3.685.381-5.529.551-23.649-256.404-67.837-509.216-132.566-758.438 1.018-.265 2.037-.525 3.057-.781 62.691 249.743 107.703 502.632 135.038 758.668z" fill="#c0c0c0"/><path d="m384.828 32.947c-.147 1.724-.307 3.447-.478 5.17-256.234-25.411-322.035 74.542-197.403 299.862-1.061.587-2.124 1.168-3.189 1.744-122.506-226.483-55.482-328.741 201.07-306.776z" fill="#556270"/><path d="m-249.159-295.124c1.28-1.081 2.566-2.153 3.86-3.217 163.532 198.894 338.311 387.359 524.337 565.392-.908.948-1.821 1.894-2.74 2.834-184.199-179.924-359.351-368.26-525.457-565.009z" fill="#cfcfcf"/><path d="m227.488-312.134c1.306.951 2.604 1.91 3.896 2.877-154.257 206.171-222.779 437.714-205.568 694.63-1.397.093-2.797.18-4.197.258-14.413-257.087 54.21-489.676 205.869-697.765z" fill="#7f7f7f"/><path d="m-253.105-291.748c1.308-1.135 2.623-2.26 3.945-3.376 166.106 196.749 213.323 171.466 141.65-75.849 1.276-.37 2.555-.733 3.836-1.09 69.116 248.042 19.306 274.814-149.431 80.315z" fill="#cfcfcf"/><path d="m214.219-321.386c1.569 1.046 3.132 2.104 4.686 3.173-145.937 212.142-157.653 431.453-35.148 657.936-1.038.562-2.079 1.119-3.124 1.671-120.422-227.596-109.227-448.523 33.586-662.78z" fill="#7f7f7f"/><path d="m46.582 383.417c-1.858.226-3.72.438-5.581.637-27.335-256.036 1.312-505.647 85.938-748.834 1.139.396 2.275.798 3.411 1.205-86.901 242.383-114.822 491.381-83.768 746.992z" fill="#c0c0c0"/><path d="m375.123 91.982c-.402 1.644-.817 3.285-1.241 4.924-249.255-64.603-363.778 31.443-343.569 288.139-1.498.118-2.996.228-4.497.328-17.211-256.916 99.225-354.712 349.307-293.391z" fill="#dcdcdc"/><path d="m-333.979 194.003c-.823-1.417-1.636-2.839-2.441-4.266 224.28-126.491 225.093-125.069 2.441 4.266z" fill="#d3d3d3"/><path d="m-260.972-284.731c1.3-1.191 2.607-2.374 3.923-3.547 171.366 192.185 297.914 166.19 379.644-77.986 1.451.486 2.9.98 4.345 1.483-84.626 243.187-213.93 269.87-387.912 80.05z" fill="#cfcfcf"/><path d="m105.134-371.652c2.228.63 4.45 1.28 6.667 1.951-74.534 246.467-23.076 462.992 154.373 649.575-.719.685-1.441 1.366-2.166 2.045-176.006-187.946-228.964-405.803-158.874-653.571z" fill="#c4c4c4"/><path d="m-257.049-288.279c1.307-1.165 2.622-2.322 3.944-3.469 168.737 194.499 128.188 322.913-121.645 385.243-.382-1.534-.756-3.07-1.12-4.609 250.58-59.258 290.187-184.979 118.821-377.165z" fill="#cfcfcf"/><path d="m386.084 10.832c-.053 1.889-.12 3.778-.2 5.666-257.257-10.998-511.528 11.591-762.816 67.769-.325-1.452-.641-2.905-.949-4.36 251.92-53.271 506.576-76.297 763.965-69.075z" fill="#556270"/><path d="m-276.326-269.856c1.73-1.772 3.478-3.527 5.242-5.267 180.722 183.415 385.214 215.545 613.476 96.388.432.826.859 1.653 1.284 2.481-229.117 117.503-435.785 86.302-620.002-93.602z" fill="#cfcfcf"/><path d="m218.905-318.212c1.522 1.047 3.037 2.105 4.544 3.173-148.966 210.026-332.944 247.317-551.934 111.873.872-1.41 1.752-2.813 2.642-4.212 217.228 138.253 398.811 101.307 544.748-110.834z" fill="#7f7f7f"/><path d="m117.293-367.996c1.771.564 3.539 1.142 5.302 1.732-81.73 244.176-48.112 261.251 100.854 51.225 1.353.96 2.699 1.928 4.039 2.905-151.659 208.089-188.39 189.469-110.195-55.862z" fill="#c4c4c4"/><path d="m385.884 16.498c-.08 1.866-.173 3.731-.28 5.596-257.07-14.73-265.677-68.922-25.823-162.578.617 1.582 1.225 3.167 1.821 4.756-241.068 90.485-232.975 141.228 24.282 152.226z" fill="#556270"/><path d="m-31.039 384.987c-2.239-.18-4.475-.381-6.709-.6 25.165-256.259 162.007-350.699 410.526-283.322-.362 1.34-.733 2.678-1.11 4.015-247.779-70.054-382.014 23.249-402.707 279.907z" fill="#ededed"/><path d="m-371.841 104.467c-.561-1.995-1.105-3.995-1.634-6.001 248.983-65.645 468.661-11.776 659.032 161.603-1.079 1.185-2.166 2.364-3.259 3.535-188.199-175.736-406.245-228.782-654.139-159.137z" fill="#4a4a4a"/><path d="m-113.724-369.114c2.066-.637 4.138-1.256 6.215-1.858 71.672 247.314 201.608 458.84 389.807 634.576-1.08 1.155-2.166 2.305-3.26 3.447-186.026-178.033-316.946-390.089-392.762-636.165z" fill="#a1a1a1"/><path d="m386.221-3.337c.021 2.373.02 4.748-.003 7.121-257.479-2.522-261.591 28.52-12.336 93.123-.359 1.389-.728 2.774-1.104 4.159-248.519-67.378-244.038-102.178 13.443-104.403z" fill="#556270"/><path d="m58.231 381.822c-2.016.307-4.033.599-6.053.873-34.786-255.13 76.356-375.331 333.426-360.601-.106 1.848-.225 3.695-.357 5.541-256.832-18.424-365.838 99.639-327.016 354.187z" fill="#c0c0c0"/><path d="m-343.726-176.157c1.347-2.626 2.723-5.237 4.128-7.832 226.398 122.659 454.408 242.249 684.026 358.767-.438.864-.88 1.727-1.325 2.588-228.736-118.244-457.679-236.085-686.829-353.523z" fill="#c3ff68"/><path d="m290.088 255.004c-1.495 1.701-3.006 3.39-4.531 5.064-190.371-173.379-339.095-142.982-446.17 91.19-1.57-.718-3.134-1.445-4.695-2.185 110.205-232.716 262.005-264.071 455.396-94.069z" fill="#858585"/><path d="m-126.924-364.786c2.24-.78 4.488-1.539 6.743-2.277 80.121 244.709-4.311 399.885-253.293 465.529-.436-1.654-.861-3.311-1.275-4.971 249.832-62.33 332.441-215.09 247.825-458.281z" fill="#a1a1a1"/><path d="m-265.857-280.176c1.615-1.533 3.243-3.051 4.885-4.555 173.982 189.82 278.364 412.296 313.15 667.426-1.863.255-3.729.495-5.596.722-31.054-255.611-135.201-476.809-312.439-663.593z" fill="#cfcfcf"/><path d="m-281.64-264.306c1.752-1.868 3.524-3.718 5.314-5.55 184.217 179.904 172.599 346.119-34.856 498.646-.958-1.304-1.907-2.611-2.848-3.927 209.353-149.908 220.15-312.965 32.39-489.169z" fill="#cfcfcf"/><path d="m376.602 85.729c-.476 2.089-.968 4.173-1.479 6.254-250.082-61.322-249.59-63.407 1.479-6.254z" fill="#dcdcdc"/><path d="m-369.781 111.54c-.709-2.352-1.396-4.709-2.06-7.073 247.894-69.645 270.211-25.429 66.953 132.646-1.129-1.451-2.248-2.91-3.355-4.379 205.495-155.156 184.983-195.554-61.538-121.194z" fill="#4a4a4a"/><path d="m-271.084-275.123c1.726-1.701 3.469-3.385 5.227-5.053 177.238 186.784 335.634 171.979 475.188-44.415 1.638 1.056 3.267 2.125 4.888 3.205-142.813 214.257-304.581 229.678-485.303 46.263z" fill="#cfcfcf"/><path d="m73.352 379.207c-2.688.521-5.381 1.012-8.078 1.474-43.516-253.787-168.022-303.103-373.517-147.948-.988-1.309-1.967-2.622-2.939-3.943 207.455-152.527 335.632-102.388 384.534 150.417z" fill="#c0c0c0"/><path d="m-120.181-367.063c2.146-.702 4.299-1.386 6.457-2.051 75.816 246.076 179.804 479.608 311.964 700.594-1.873 1.12-3.754 2.224-5.645 3.311-128.397-223.193-232.656-457.145-312.776-701.854z" fill="#a1a1a1"/><path d="m197.56-331.887c2.048 1.219 4.084 2.457 6.109 3.714-135.779 218.782-221.555 200.676-257.328-54.318 2.09-.293 4.184-.569 6.278-.829 31.588 255.547 113.235 272.691 244.941 51.433z" fill="#7f7f7f"/><path d="m88.908-375.864c2.986.707 5.964 1.448 8.932 2.226-65.226 249.092 15.614 312.783 242.525 191.072.683 1.273 1.358 2.55 2.027 3.831-228.262 119.157-312.756 53.447-253.484-197.129z" fill="#c4c4c4"/><path d="m357.251-146.799c.861 2.098 1.706 4.203 2.53 6.315-239.854 93.656-240.697 91.551-2.53-6.315z" fill="#bebebe"/><path d="m-367.192 119.785c-.894-2.738-1.756-5.487-2.588-8.245 246.52-74.36 481.659-175.247 705.417-302.662.878 1.542 1.745 3.091 2.602 4.646-225.493 124.318-460.637 226.404-705.431 306.261z" fill="#4a4a4a"/><path d="m65.274 380.681c-2.344.402-4.692.782-7.043 1.142-38.822-254.549-168.915-447.584-390.283-579.107 1.171-1.971 2.36-3.932 3.566-5.882 218.991 135.444 350.244 330.06 393.76 583.847z" fill="#c0c0c0"/><path d="m-143.611-358.546c2.969-1.189 5.953-2.341 8.95-3.456 89.773 241.335 247.407 299.844 472.898 175.526.717 1.299 1.426 2.603 2.127 3.91-226.91 121.711-388.234 63.051-483.975-175.98z" fill="#a1a1a1"/><path d="m97.84-373.639c2.438.638 4.869 1.3 7.294 1.986-70.09 247.769 23.606 372.914 281.084 375.436-.023 2.35-.067 4.699-.134 7.049-257.389-7.222-353.47-135.378-288.244-384.471z" fill="#c4c4c4"/><path d="m-288.766 256.5c-1.977-2.225-3.928-4.473-5.852-6.742 196.412-166.505 242.969-131.826 139.672 104.037-1.896-.831-3.785-1.676-5.667-2.537 107.075-234.172 64.357-265.758-128.153-94.758z" fill="#6cdfea"/><path d="m385.069-30.008c.238 3.044.439 6.093.604 9.143-257.116 13.91-317.783-88.526-182.004-307.308 1.897 1.178 3.785 2.372 5.662 3.582-139.554 216.394-80.975 314.588 175.738 294.583z" fill="#556270"/><path d="m326.311-206.639c1.759 2.779 3.483 5.579 5.171 8.401-220.988 132.159-214.648 252.322 19.021 360.492-.889 1.918-1.792 3.83-2.712 5.734-231.861-111.992-239.02-236.867-21.48-374.627z" fill="#dedede"/><path d="m386.047-12.095c.092 2.918.149 5.838.174 8.758-257.481 2.225-486.278 84.356-686.392 246.394-1.592-1.966-3.164-3.947-4.717-5.944 203.259-158.075 433.571-241.144 690.935-249.208z" fill="#556270"/><path d="m-352.224-158.483c1.355-3.011 2.748-6.003 4.18-8.979 232.029 111.641 412.243 279.06 540.64 502.253-1.874 1.079-3.758 2.141-5.649 3.188-124.632-225.32-304.355-390.807-539.171-496.462z" fill="#c3ff68"/><path d="m-61.841-381.254c2.723-.441 5.451-.854 8.182-1.237 35.773 254.994 33.045 255.407-8.182 1.237z" fill="#7a7a7a"/><path d="m385.672-20.865c.158 2.921.283 5.845.375 8.77-257.364 8.064-481.842-73.921-673.432-245.952 1.892-2.107 3.808-4.194 5.746-6.259 187.759 176.204 410.196 257.351 667.311 243.441z" fill="#556270"/><path d="m144.729 358.095c-2.715 1.098-5.442 2.164-8.182 3.199-91.031-240.862-88.305-241.929 8.182-3.199z" fill="#b8b8b8"/><path d="m-364.021 129.101c-1.097-3.092-2.153-6.196-3.171-9.315 244.794-79.858 253.992-181.116 27.594-303.774 1.308-2.413 2.64-4.812 3.999-7.196 223.732 127.456 214.258 234.217-28.422 320.285z" fill="#4a4a4a"/><path d="m-282.017 263.903c-2.282-2.438-4.532-4.906-6.75-7.403 192.51-171 357.331-147.531 494.461 70.407-2.468 1.553-4.953 3.077-7.454 4.573-132.16-220.986-292.246-243.512-480.257-67.577z" fill="#6cdfea"/><path d="m-21.357 385.646c-3.23-.179-6.457-.398-9.682-.658 20.693-256.659 23.92-256.439 9.682.658z" fill="#ededed"/><path d="m78.449-378.186c3.497.726 6.982 1.499 10.459 2.321-59.272 250.577-187.114 459.118-383.526 625.623-1.875-2.213-3.727-4.447-5.553-6.701 200.114-162.038 326.321-369.119 378.62-621.243z" fill="#c4c4c4"/><path d="m-274.587 271.626c-2.512-2.54-4.99-5.114-7.43-7.723 188.011-175.935 380.634-181.139 577.872-15.612-1.896 2.26-3.818 4.498-5.767 6.713-193.391-170.002-381.618-164.462-564.675 16.622z" fill="#6cdfea"/><path d="m-295.77-248.393c2.741-3.265 5.536-6.483 8.384-9.655 191.591 172.032 175.519 194.32-48.214 66.863 1.165-2.044 2.348-4.077 3.548-6.099 221.368 131.523 233.461 114.487 36.282-51.109z" fill="#cfcfcf"/><path d="m55.681-382.202c3.91.57 7.812 1.199 11.702 1.888-44.922 253.543-112.27 259.647-202.043 18.312 2.569-.955 5.147-1.884 7.736-2.784 84.616 243.191 145.484 237.385 182.605-17.416z" fill="#c4c4c4"/><path d="m-266.12 279.927c-2.864-2.724-5.687-5.49-8.466-8.301 183.056-181.084 385.08-337.705 606.068-469.864 1.409 2.357 2.795 4.729 4.154 7.116-223.758 127.415-424.343 284.431-601.756 471.049z" fill="#6cdfea"/><path d="m67.383-380.313c3.698.656 7.389 1.365 11.066 2.128-52.3 252.124-7.074 485.335 135.676 699.635-2.787 1.855-5.598 3.675-8.431 5.458-137.129-217.939-183.233-453.679-138.311-707.221z" fill="#c4c4c4"/><path d="m319.866-216.481c2.198 3.248 4.347 6.529 6.444 9.842-217.54 137.76-225.564 286.798-24.072 447.118-2.094 2.632-4.222 5.236-6.384 7.812-197.237-165.527-189.232-320.451 24.012-464.772z" fill="#dedede"/><path d="m383.666-44.48c.559 4.814 1.026 9.639 1.402 14.472-256.712 20.005-501.083-25.813-733.112-137.454 1.403-2.916 2.842-5.815 4.318-8.695 229.15 117.438 471.614 161.33 727.392 131.677z" fill="#556270"/><path d="m355.92 149.997c-1.734 4.116-3.54 8.202-5.417 12.257-233.669-108.17-231.863-112.255 5.417-12.257z" fill="#454545"/><path d="m-253.706 291.225c-4.219-3.676-8.358-7.442-12.414-11.298 177.413-186.618 214.384-397.821 110.912-633.607 3.839-1.685 7.705-3.307 11.597-4.866 95.741 239.031 59.041 455.621-110.095 649.771z" fill="#6cdfea"/><path d="m309.865-230.568c3.438 4.621 6.773 9.318 10.001 14.087-213.244 144.321-364.921 337.086-455.03 578.295-3.899-1.457-7.775-2.978-11.626-4.56 97.86-238.169 250.078-434.11 456.655-587.822z" fill="#dedede"/><path d="m-358.666 143.307c-1.878-4.7-3.664-9.436-5.355-14.206 242.68-86.068 244.465-81.332 5.355 14.206z" fill="#4a4a4a"/><path d="m-373.564-98.123c1.866-7.109 3.937-14.162 6.206-21.152 244.906 79.517 318.429 238.36 220.569 476.53-2.732-1.122-5.45-2.275-8.156-3.46 103.296-235.863 30.424-386.503-218.619-451.918z" fill="#c3ff68"/><path d="m-378.697-75.942c1.493-7.442 3.204-14.839 5.133-22.181 249.043 65.416 476.608 175.307 682.696 329.674-2.254 3.01-4.552 5.985-6.894 8.928-201.492-160.32-428.47-265.793-680.935-316.421z" fill="#c3ff68"/><path d="m90.102 375.58c-5.557 1.333-11.141 2.542-16.75 3.627-48.902-252.805-43.319-254.014 16.75-3.627z" fill="#c0c0c0"/><path d="m179.838-341.814c5.994 3.153 11.902 6.463 17.722 9.927-131.706 221.258-137.613 217.949-17.722-9.927z" fill="#7f7f7f"/><path d="m-308.469-232.434c4.092-5.43 8.326-10.752 12.699-15.958 197.179 165.595 192.947 170.914-12.699 15.958z" fill="#cfcfcf"/><path d="m-367.359-119.275c2.25-6.929 4.695-13.793 7.334-20.584 240.016 93.239 237.572 100.101-7.334 20.584z" fill="#c3ff68"/><path d="m31.432-384.955c8.11.662 16.196 1.581 24.249 2.753-37.121 254.801-175.69 335.582-415.706 242.343 2.438-6.275 5.039-12.485 7.801-18.624 234.816 105.655 362.701 30.164 383.656-226.472z" fill="#c4c4c4"/><path d="m-175.56-344.031c6.688-3.414 13.476-6.631 20.353-9.649 103.471 235.786 96.686 239.003-20.353 9.649z" fill="#a1a1a1"/><path d="m295.407-248.824c5.001 5.938 9.823 12.026 14.458 18.255-206.577 153.713-211.396 147.628-14.458-18.255z" fill="#dedede"/><path d="m326.024 207.093c-5.314 8.366-10.949 16.525-16.892 24.458-206.088-154.367-200.458-162.521 16.892-24.458z" fill="#858585"/><path d="m-106.862 371.159c-9.551-2.749-18.992-5.867-28.302-9.345 90.109-241.209 99.543-238.094 28.302 9.345z" fill="#5e5e5e"/><path d="m0-386.236c10.49 0 20.976.427 31.432 1.281-20.955 256.636-31.432 256.21-31.432-1.281z" fill="#c4c4c4"/><path d="m241.264 301.613c-8.754 7.002-17.81 13.62-27.139 19.836-142.75-214.3-133.704-220.912 27.139-19.836z" fill="#ababab"/><path d="m-201.844 329.299c-9.592-5.88-18.922-12.175-27.963-18.868 153.204-206.954 162.526-200.664 27.963 18.868z" fill="#6cdfea"/><path d="m-386.218-3.856c.125-12.426.849-24.838 2.169-37.194 256.032 27.367 475.502-49.568 658.409-230.803 7.323 7.39 14.345 15.073 21.047 23.03-196.938 165.882-424.147 247.537-681.625 244.967z" fill="#c3ff68"/><path d="m-384.611 35.397c-1.201-13.049-1.737-26.15-1.607-39.254 257.478 2.571 309.615 107.334 156.411 314.288-8.218-6.083-16.19-12.49-23.899-19.206 169.136-194.15 125.503-279.426-130.905-255.828z" fill="#c3ff68"/><path d="m-207.14-325.993c10.237-6.505 20.775-12.524 31.58-18.038 117.04 229.354 47.543 330.347-208.488 302.98 1.251-11.707 3.037-23.349 5.352-34.892 252.464 50.629 309.648-32.722 171.556-250.05z" fill="#a1a1a1"/><path d="m377.578-81.321c2.622 12.174 4.654 24.469 6.088 36.84-255.778 29.654-257.806 17.375-6.088-36.84z" fill="#556270"/></g><text font-family="'Helvetica'" font-size="18" transform="translate(72.9788 -59.5708)">Ciudad Autónoma de Buenos Aires</text><text font-family="'Helvetica-Bold'" font-size="43.0901" letter-spacing="-1" transform="translate(72.9788 -86.5054)">Bicicletas públicas</text><text font-family="'Helvetica'" font-size="12" transform="translate(72.9788 -40.5)">Visualización de relación matricial entre las estaciones de bicicletas de la ciudad.</text><text transform="translate(72.9788 1093.4453)"><tspan fill="#7f7f7f" font-family="'Helvetica'" font-size="12" x="0" y="0">Hecho con HTML, CSS, JavaScript, SVG </tspan><tspan fill="#7f7f7f" font-family="'Helvetica'" font-size="12" x="0" y="14.4">Código en </tspan><tspan fill="#7f7f7f" font-family="'Helvetica'" font-size="12" text-decoration="underline" x="58.043" y="14.4">http://j.mp/gcbadata-bicicletas</tspan></text><text transform="translate(807.637 1093.4453)"><tspan fill="#7f7f7f" font-family="'Helvetica'" font-size="12" x="0" y="0">Octubre, 2012.</tspan><tspan fill="#7f7f7f" font-family="'Helvetica'" font-size="12" x="-2.654" y="14.4">Davo Galavotti. </tspan><tspan fill="#7f7f7f" font-family="'Helvetica'" font-size="12" x="15.832" y="28.8">@pixelbeat.</tspan></text></svg>