<svg enable-background="new 0 0 25 25" viewBox="0 0 25 25" xmlns="http://www.w3.org/2000/svg" xmlns:xlink="http://www.w3.org/1999/xlink"><clipPath id="a"><path d="m12.5 1.8c-5.9 0-10.7 4.8-10.7 10.7s4.8 10.7 10.7 10.7 10.7-4.8 10.7-10.7-4.8-10.7-10.7-10.7z"/></clipPath><g fill="#cdcfcf"><path d="m12.5 25c-6.9 0-12.5-5.6-12.5-12.5s5.6-12.5 12.5-12.5 12.5 5.6 12.5 12.5-5.6 12.5-12.5 12.5zm0-23.2c-5.9 0-10.7 4.8-10.7 10.7s4.8 10.7 10.7 10.7 10.7-4.8 10.7-10.7-4.8-10.7-10.7-10.7z"/><path clip-path="url(#a)" d="m31 27.6c-.1-.1-12.7-12.7-12.8-12.8.9-2.4.4-5.3-1.6-7.3-1.4-1.4-3.4-2.2-5.4-2-.2 0-.4.2-.5.4s0 .5.1.6l3.3 3.3-1 3.5-3.4.8-3.3-3.3c-.2-.2-.4-.2-.6-.1s-.4.3-.4.5c-.2 2 .5 4 2 5.4 2 2 4.8 2.5 7.3 1.6l.3.3 1.8 1.9c13.5 13.5 13.3 13.7 13.2 13.8"/></g></svg>