<svg enable-background="new -269 392.9 56 56" viewBox="-269 392.9 56 56" xmlns="http://www.w3.org/2000/svg"><g fill="#64abe8"><path d="m-240.3 404.6h-1.5c-1.5 0-2.7 1.3-2.6 2.8l.7 16.3c.1 1.4 1.2 2.5 2.6 2.5h.1c1.4 0 2.6-1.1 2.6-2.5l.7-16.3c.1-1.5-1.1-2.8-2.6-2.8z"/><circle cx="-241" cy="433.5" r="3.6"/><path d="m-217.6 411.9c-.2 0-.4.1-.5.2l-5.6 8.5c-.1.2-.1.4 0 .6s.3.3.5.2l3.2-.6c0 7.3-3.9 14.5-9.8 18-12 7.2-23 1.3-27.7-4.3-.6-.8-1.8-.8-2.5-.2-.8.6-.8 1.8-.2 2.5 6 7.1 20.3 13.3 32.8 4.6 10.2-7.1 10.8-15.5 11-20.3l2.6 1c.2.1.4 0 .6-.1.1-.2.2-.4.1-.6l-4.1-9.3c0-.1-.2-.2-.4-.2zm0 0"/><path d="m-264.4 429.9c.2 0 .4-.1.5-.2l5.6-8.5c.1-.2.1-.4 0-.6s-.3-.3-.5-.2l-3.2.6c0-7.3 3.9-14.5 9.8-18 12-7.2 23-1.3 27.7 4.3.6.8 1.8.8 2.5.2.8-.6.8-1.8.2-2.5-6-7.1-20.3-13.3-32.8-4.6-10.2 7.1-10.8 15.5-11 20.3l-2.6-1c-.2-.1-.4 0-.6.1-.1.2-.2.4-.1.6l4.1 9.3c0 .1.2.2.4.2zm0 0"/></g></svg>