<svg enable-background="new 0 0 42 42" viewBox="0 0 42 42" xmlns="http://www.w3.org/2000/svg"><path d="m20.4 22.5c-.3 0-.5-.1-.7-.3l-.2-.2-.8.8.3.2c.4.4 1 .6 1.5.6s1.1-.2 1.5-.6l5.3-5.3c.8-.8.8-2.2 0-3l-2.1-2.1c-.4-.4-1-.6-1.5-.6s-1.1.2-1.5.6l-5.3 5.3c-.8.9-.8 2.2 0 3.1l.6.6-2.7 2.7c-.8.8-.8 2.2 0 3l2.1 2.1c.4.4 1 .6 1.5.6s1.1-.2 1.5-.6l5.3-5.3c.8-.8.8-2.2 0-3l-.2-.2-.8.8.2.2c.2.2.3.4.3.7s-.1.5-.3.7l-5.4 5.3c-.2.2-.4.3-.7.3s-.5-.1-.7-.3l-2.1-2.1c-.2-.2-.3-.4-.3-.7s.1-.5.3-.7l5.3-5.3c.2-.2.4-.3.7-.3s.5.1.7.3l.8.6-1.8 1.8c-.3.2-.4.3-.8.3zm2.7-3.5c-.4-.4-1-.6-1.5-.6s-1.1.1-1.5.6l-1.9 1.8-.6-.6c-.2-.2-.3-.5-.3-.7s.1-.5.3-.7l5.4-5.4c.2-.2.4-.3.7-.3s.5.1.7.3l2.1 2.1c.4.4.4 1 0 1.4l-2.7 2.7z" fill="#fff"/></svg>