<svg height="138" viewBox="0 0 262 138" width="262" xmlns="http://www.w3.org/2000/svg"><svg height="78.16" viewBox="-1 -1 261.88 78.16" width="261.88"><path d="m38.074 138.584v3.2h1.036v-2.094h2.59v9.748h-1.521v1.1h4.243v-1.1h-1.522v-9.748h2.589v2.094h1.037v-3.2zm21.713 1.1h-1.52v-1.1h4.245v1.1h-1.522v9.748h1.522v1.1h-4.246v-1.1h1.52v-4.472h-5.928v4.472h1.536v1.1h-4.259v-1.1h1.521v-9.748h-1.521v-1.1h4.259v1.1h-1.536v4.338h5.929zm15.783 7.776v3.081h-8.4v-1.1h1.522v-9.75h-1.525v-1.1h8.4v3.082h-1.2v-1.978h-4.476v4.323h4.609v.982h-4.609v4.44h4.477v-1.98h1.2zm19.825-6.012a2.275 2.275 0 0 0 -2.373-2.128 2.17 2.17 0 0 0 -2.288 2.094 2.055 2.055 0 0 0 .785 1.658 5.439 5.439 0 0 0 1.989.7 5.215 5.215 0 0 1 2.387 1 3.1 3.1 0 0 1 1.119 2.428 3.187 3.187 0 0 1 -.683 2.161 3.531 3.531 0 0 1 -2.974 1.407 3.135 3.135 0 0 1 -2.706-1.407v1.172h-1v-3.215h1a2.523 2.523 0 0 0 2.657 2.362 2.4 2.4 0 0 0 2.5-2.362c0-1.743-1.352-2.144-2.773-2.5a6.2 6.2 0 0 1 -2.272-.886 3.01 3.01 0 0 1 -1.236-2.5 3.045 3.045 0 0 1 .617-1.894 3.548 3.548 0 0 1 2.89-1.289 2.547 2.547 0 0 1 2.356 1.289v-.971h1v2.865h-1zm16.167.049a4.912 4.912 0 0 0 -4.109-2.027 4.977 4.977 0 0 0 -5.029 4.992 5.037 5.037 0 0 0 9.172 2.947h1.335a6.1 6.1 0 0 1 -5.478 3.367 6.365 6.365 0 0 1 -4.41-1.826 6.2 6.2 0 0 1 -1.821-4.488 6.431 6.431 0 0 1 1.871-4.472 6.046 6.046 0 0 1 4.343-1.724 5.428 5.428 0 0 1 4.126 1.724v-1.406h1.1v2.916h-1.1zm9.1 7.939h1.519v1.106h-4.241v-1.106h1.52v-9.746h-1.52v-1.106h4.243v1.106h-1.519v9.746zm15.7-1.976v3.081h-8.4v-1.1h1.52v-9.75h-1.52v-1.1h8.4v3.082h-1.2v-1.978h-4.477v4.323h4.611v.982h-4.611v4.44h4.477v-1.98zm16.383 3.081h-1.237l-7.131-10v8.894h1.536v1.1h-4.258v-1.1h1.518v-9.749h-1.518v-1.1h2.745l7.149 10.049v-8.945h-1.521v-1.1h4.245v1.1h-1.521v10.853zm15.264-9.044a4.91 4.91 0 0 0 -4.108-2.027 4.976 4.976 0 0 0 -5.027 4.992 5.035 5.035 0 0 0 9.169 2.947h1.336a6.1 6.1 0 0 1 -5.478 3.367 6.365 6.365 0 0 1 -4.41-1.826 6.2 6.2 0 0 1 -1.822-4.488 6.428 6.428 0 0 1 1.872-4.472 6.046 6.046 0 0 1 4.343-1.724 5.425 5.425 0 0 1 4.125 1.724v-1.406h1.1v2.916h-1.1zm14.112 5.963v3.081h-8.4v-1.1h1.519v-9.75h-1.519v-1.1h8.4v3.082h-1.2v-1.978h-4.477v4.323h4.611v.982h-4.611v4.44h4.477v-1.98zm24.637-2.965a5.07 5.07 0 1 0 -5.062 5.075v.017a5.09 5.09 0 0 0 5.062-5.092m-11.343.033a6.273 6.273 0 1 1 6.3 6.248 6.258 6.258 0 0 1 -6.3-6.248m19.775 4.908h1.537v1.106h-4.259v-1.106h1.52v-9.746h-1.52v-1.106h8.418v3.116h-1.2v-2.01h-4.495v4.354h4.544v.987h-4.544v4.405zm25.171-7.988a2.276 2.276 0 0 0 -2.374-2.128 2.169 2.169 0 0 0 -2.287 2.094 2.06 2.06 0 0 0 .784 1.658 5.438 5.438 0 0 0 1.99.7 5.223 5.223 0 0 1 2.387 1 3.1 3.1 0 0 1 1.118 2.428 3.2 3.2 0 0 1 -.683 2.161 3.528 3.528 0 0 1 -2.974 1.407 3.129 3.129 0 0 1 -2.7-1.407v1.172h-1v-3.215h1a2.521 2.521 0 0 0 2.656 2.362 2.4 2.4 0 0 0 2.5-2.362c0-1.743-1.353-2.144-2.773-2.5a6.2 6.2 0 0 1 -2.272-.886 3.009 3.009 0 0 1 -1.236-2.5 3.052 3.052 0 0 1 .618-1.894 3.548 3.548 0 0 1 2.89-1.289 2.547 2.547 0 0 1 2.356 1.289v-.971h1v2.865h-1zm11.724 3.266a2.9 2.9 0 0 0 2.02-.553 2.5 2.5 0 0 0 -.033-3.9 2.963 2.963 0 0 0 -2-.569h-2.137v5.024h2.155zm-2.155 4.722h1.518v1.106h-4.24v-1.106h1.518v-9.746h-1.518v-1.106h4.877a4.528 4.528 0 0 1 2.772.769 3.547 3.547 0 0 1 1.37 2.814 3.631 3.631 0 0 1 -4.026 3.651h-2.271zm18.372-1.976v3.081h-8.4v-1.1h1.52v-9.75h-1.522v-1.1h8.4v3.082h-1.2v-1.978h-4.477v4.323h4.609v.982h-4.609v4.44h4.477v-1.98h1.2zm13.361 0v3.081h-8.4v-1.1h1.521v-9.75h-1.521v-1.1h8.4v3.082h-1.2v-1.978h-4.477v4.323h4.614v.982h-4.609v4.44h4.477v-1.98h1.2zm10.02 1.976a4.511 4.511 0 0 0 3.642-1.323 5.322 5.322 0 0 0 1.4-3.534 5.163 5.163 0 0 0 -1.5-3.685 4.448 4.448 0 0 0 -3.49-1.206h-2.391v9.748zm-3.541-9.748h-1.536v-1.1h5.311a5.524 5.524 0 0 1 4.243 1.624 6.139 6.139 0 0 1 1.771 4.389 6.225 6.225 0 0 1 -1.7 4.253 5.4 5.4 0 0 1 -4.311 1.692h-5.311v-1.1h1.536v-9.748zm-146.056-31.747c2.477 0 3.957 1.216 3.957 3.257 0 1.035-.39 3.451-4.018 3.451h-2.18v-6.708zm-8.1-5.382v24.032h5.848v-10.536c.109.166 5.062 8.586 6.368 10.422l.085.114h6s-5.6-8.038-5.8-8.315a7.311 7.311 0 0 0 5.416-7.437 8.329 8.329 0 0 0 -2.947-6.557c-1.48-1.141-3.025-1.723-7.388-1.723h-7.578zm19.237 11.916a12.558 12.558 0 0 0 23.55 6.262l.757-1.352h-6.02l-.273.317a7.252 7.252 0 0 1 -5.477 2.683 7.771 7.771 0 0 1 -7.433-7.88 7.635 7.635 0 0 1 7.494-7.757 7.276 7.276 0 0 1 5.611 2.812l.332.372h5.936l-.814-1.417a12.1 12.1 0 0 0 -3.7-4.233 12.949 12.949 0 0 0 -7.425-2.378 12.565 12.565 0 0 0 -12.533 12.571m39.955-11.867v15.844a4.452 4.452 0 0 1 -4.486 4.809 4.5 4.5 0 0 1 -4.48-4.809v-15.844h-4.185v15.938a8.633 8.633 0 0 0 2.48 6.411 9.762 9.762 0 0 0 12.359.02 8.662 8.662 0 0 0 2.509-6.431v-15.938h-4.2zm15.238 3.4c3.764 0 5.1 2.306 5.1 4.282 0 2.943-2.206 4.5-6.372 4.5h-2.234v-8.781h3.5zm-7.214-3.435v23.941h3.709v-10.514c.455.585 8.126 10.511 8.126 10.511h4.653s-6.782-8.458-7.085-8.844a6.878 6.878 0 0 0 6.624-7.38 7.95 7.95 0 0 0 -2.212-5.7c-1.468-1.4-3.434-2.022-6.378-2.022h-7.437zm23.225-.038h-3.425v24.017h3.425v-24.018zm13.047 3.276c.43 1.143 3.819 10.114 4.058 10.751h-8.081c.244-.634 3.595-9.608 4.023-10.751m-1.535-3.236-9.255 24h2.98s2.677-7.047 2.8-7.374h10.059c.127.332 2.766 7.374 2.766 7.374h3.048l-9.223-24zm15.016.09h2.349v21.555h9.818v2.328h-12.168v-23.884zm-136.168-.189 6.65 12.082-6.621 12.03h13.61v.012h1.626v-5.655h-7.009v-3.671h6.8v-5.053h-6.8v-3.79h7.009v-5.958h-15.266zm-6.651 0 6.653 12.083-6.617 12.029h5.379l6.621-12.029-6.645-12.083h-5.392zm-24.52 24.111c.562-.988 6.019-10.542 6.437-11.162v11.162h6.561c.442-.868 4.054-7.866 5.377-10.3v10.3h4.913l6.622-12.029-6.65-12.084h-3.381l-6.313 11.226v-11.226h-8.281l-14.976 24.113h9.691zm74.128 49.784c-3.487 1.476-8.958 3.17-11.237-.5-1.27-2.036-.465-5.2 1.41-8.095a42.14 42.14 0 0 1 4.264-5.238c-.853 1.382-3.256 6.014-.108 8.329 1.223.887 3.377.979 6.058.28l31.976-8.47z" fill="#fff" fill-rule="evenodd" transform="translate(-38.063 -101.906)"/></svg><svg height="59" viewBox="-1 -1 198 59" width="198" y="78.16"><path d="m0 27.449v2.394h.782v-1.568h1.953v7.295h-1.147v.83h3.2v-.83h-1.146v-7.295h1.952v1.567h.783v-2.393zm16.377.826h-1.146v-.827h3.2v.827h-1.147v7.295h1.147v.83h-3.2v-.83h1.147v-3.346h-4.473v3.346h1.159v.83h-3.213v-.83h1.149v-7.295h-1.149v-.827h3.212v.827h-1.158v3.247h4.472zm11.9 5.816v2.309h-6.333v-.83h1.148v-7.3h-1.148v-.821h6.338v2.306h-.907v-1.48h-3.375v3.235h3.477v.738h-3.477v3.322h3.377v-1.479h.907zm14.953-4.5a1.712 1.712 0 0 0 -1.785-1.591 1.632 1.632 0 0 0 -1.726 1.567 1.534 1.534 0 0 0 .592 1.241 4.129 4.129 0 0 0 1.5.526 3.943 3.943 0 0 1 1.8.752 2.309 2.309 0 0 1 .844 1.817 2.373 2.373 0 0 1 -.515 1.617 2.672 2.672 0 0 1 -2.24 1.053 2.371 2.371 0 0 1 -2.041-1.053v.88h-.759v-2.409h.756a1.9 1.9 0 0 0 2 1.768 1.806 1.806 0 0 0 1.889-1.768c0-1.3-1.02-1.6-2.091-1.867a4.7 4.7 0 0 1 -1.713-.663 2.245 2.245 0 0 1 -.932-1.868 2.268 2.268 0 0 1 .466-1.417 2.687 2.687 0 0 1 2.18-.964 1.925 1.925 0 0 1 1.777.964v-.728h.758v2.144h-.755zm12.194.037a3.837 3.837 0 0 0 -6.892 2.219 3.783 3.783 0 0 0 3.768 3.823 3.832 3.832 0 0 0 3.15-1.617h1.007a4.6 4.6 0 0 1 -4.132 2.519 4.823 4.823 0 0 1 -3.325-1.365 4.626 4.626 0 0 1 -1.373-3.359 4.792 4.792 0 0 1 1.414-3.348 4.58 4.58 0 0 1 3.275-1.29 4.112 4.112 0 0 1 3.112 1.29v-1.051h.832v2.18h-.831zm6.865 5.941h1.151v.831h-3.2v-.83h1.147v-7.293h-1.148v-.828h3.2v.828h-1.145v7.293zm11.842-1.479v2.31h-6.331v-.83h1.147v-7.3h-1.147v-.821h6.338v2.306h-.91v-1.48h-3.376v3.235h3.478v.738h-3.478v3.322h3.377v-1.479h.908zm12.363 2.31h-.934l-5.379-7.482v6.652h1.159v.83h-3.212v-.83h1.145v-7.3h-1.145v-.821h2.066l5.392 7.52v-6.694h-1.147v-.826h3.2v.826h-1.145zm11.513-6.768a3.836 3.836 0 0 0 -6.891 2.219 3.782 3.782 0 0 0 3.766 3.822 3.829 3.829 0 0 0 3.15-1.617h1.008a4.6 4.6 0 0 1 -4.132 2.519 4.82 4.82 0 0 1 -3.326-1.366 4.624 4.624 0 0 1 -1.374-3.359 4.792 4.792 0 0 1 1.411-3.35 4.583 4.583 0 0 1 3.276-1.29 4.109 4.109 0 0 1 3.111 1.29v-1.051h.832v2.18h-.832zm10.644 4.462v2.306h-6.336v-.83h1.145v-7.3h-1.145v-.821h6.336v2.306h-.906v-1.48h-3.377v3.235h3.478v.738h-3.478v3.322h3.377v-1.479h.906zm18.582-2.219a3.824 3.824 0 1 0 -3.817 3.8v.012a3.823 3.823 0 0 0 3.817-3.81m-8.555.025a4.731 4.731 0 1 1 4.75 4.675 4.7 4.7 0 0 1 -4.75-4.675m14.915 3.673h1.16v.825h-3.213v-.83h1.147v-7.293h-1.147v-.828h6.35v2.331h-.907v-1.5h-3.39v3.258h3.428v.738h-3.428v3.3zm18.985-5.978a1.711 1.711 0 0 0 -1.791-1.597 1.631 1.631 0 0 0 -1.725 1.567 1.536 1.536 0 0 0 .592 1.241 4.118 4.118 0 0 0 1.5.526 3.947 3.947 0 0 1 1.8.752 2.315 2.315 0 0 1 .846 1.814 2.38 2.38 0 0 1 -.515 1.617 2.669 2.669 0 0 1 -2.243 1.053 2.367 2.367 0 0 1 -2.042-1.05v.88h-.757v-2.409h.757a1.9 1.9 0 0 0 2 1.768 1.805 1.805 0 0 0 1.889-1.768c0-1.3-1.02-1.6-2.092-1.867a4.7 4.7 0 0 1 -1.713-.663 2.244 2.244 0 0 1 -.932-1.868 2.275 2.275 0 0 1 .466-1.417 2.684 2.684 0 0 1 2.179-.964 1.924 1.924 0 0 1 1.777.964v-.728h.756v2.144h-.756zm8.843 2.444a2.2 2.2 0 0 0 1.524-.414 1.863 1.863 0 0 0 .693-1.467 1.882 1.882 0 0 0 -.718-1.453 2.248 2.248 0 0 0 -1.512-.425h-1.612v3.759zm-1.625 3.534h1.145v.825h-3.2v-.83h1.145v-7.293h-1.145v-.828h3.678a3.437 3.437 0 0 1 2.091.575 2.647 2.647 0 0 1 1.034 2.106 2.737 2.737 0 0 1 -.87 2.018 2.8 2.8 0 0 1 -2.167.714h-1.713v2.708zm13.857-1.479v2.304h-6.337v-.83h1.146v-7.3h-1.146v-.821h6.337v2.306h-.906v-1.48h-3.377v3.235h3.477v.738h-3.477v3.322h3.377v-1.479h.906zm10.078 0v2.304h-6.337v-.83h1.147v-7.3h-1.147v-.821h6.337v2.306h-.907v-1.48h-3.376v3.235h3.476v.738h-3.476v3.322h3.376v-1.479h.907zm7.557 1.478a3.418 3.418 0 0 0 2.747-.99 3.963 3.963 0 0 0 1.058-2.644 3.847 3.847 0 0 0 -1.133-2.758 3.372 3.372 0 0 0 -2.633-.9h-1.8v7.288h1.764zm-2.671-7.295h-1.158v-.831h4.006a4.183 4.183 0 0 1 3.2 1.216 4.571 4.571 0 0 1 1.335 3.284 4.642 4.642 0 0 1 -1.285 3.183 4.09 4.09 0 0 1 -3.251 1.266h-4.006v-.827h1.158v-7.295zm-110.165-23.761c1.868 0 2.985.91 2.985 2.437 0 .774-.294 2.582-3.031 2.582h-1.645v-5.019h1.69zm-6.107-4.028v17.984h4.41v-7.884c.082.124 3.817 6.425 4.8 7.8l.064.085h4.522s-4.223-6.015-4.373-6.222a5.476 5.476 0 0 0 4.085-5.566 6.209 6.209 0 0 0 -2.222-4.907c-1.116-.854-2.282-1.29-5.572-1.29zm14.509 8.918a9.485 9.485 0 0 0 17.763 4.686l.571-1.012h-4.543l-.206.238a5.49 5.49 0 0 1 -4.131 2.008 5.836 5.836 0 0 1 -5.608-5.898 5.735 5.735 0 0 1 5.652-5.805 5.5 5.5 0 0 1 4.233 2.1l.25.278h4.479l-.614-1.056a9.065 9.065 0 0 0 -2.793-3.167 9.823 9.823 0 0 0 -5.599-1.78 9.441 9.441 0 0 0 -9.454 9.408m30.136-8.881v11.857a3.346 3.346 0 0 1 -3.383 3.6 3.381 3.381 0 0 1 -3.379-3.6v-11.857h-3.157v11.927a6.435 6.435 0 0 0 1.871 4.8 7.407 7.407 0 0 0 9.322.015 6.453 6.453 0 0 0 1.892-4.813v-11.929zm11.494 2.544c2.839 0 3.847 1.725 3.847 3.2 0 2.2-1.664 3.366-4.806 3.366h-1.685v-6.566zm-5.441-2.571v17.916h2.8v-7.866c.343.437 6.129 7.865 6.129 7.865h3.509s-5.114-6.329-5.343-6.618a5.169 5.169 0 0 0 5-5.523 5.924 5.924 0 0 0 -1.668-4.262c-1.115-1.046-2.598-1.512-4.818-1.512zm17.517-.028h-2.583v17.973h2.583zm9.84 2.451c.324.856 2.881 7.569 3.061 8.046h-6.1c.185-.474 2.712-7.19 3.035-8.046m-1.153-2.423-6.981 17.96h2.248s2.019-5.273 2.112-5.519h7.587c.1.249 2.086 5.519 2.086 5.519h2.3l-6.957-17.96h-2.4zm11.326.067h1.771v16.133h7.406v1.742h-9.177v-17.873zm-102.7-.142 5.011 9.044-4.994 9h10.266v.011h1.226v-4.23h-5.287v-2.75h5.131v-3.778h-5.131v-2.836h5.287v-4.459h-11.513zm-5.017 0 5.014 9.045-4.991 9h4.058l4.994-9-5.013-9.043h-4.066zm-18.498 18.047c.424-.74 4.54-7.889 4.855-8.353v8.353h4.949c.333-.65 3.057-5.887 4.055-7.711v7.711h3.705l5-9-5.018-9.046h-2.55l-4.764 8.4v-8.4h-6.245l-11.3 18.045h7.31zm55.911 37.254c-2.63 1.1-6.756 2.372-8.475-.373-.958-1.524-.35-3.9 1.064-6.058a31.6 31.6 0 0 1 3.216-3.92c-.643 1.035-2.456 4.5-.082 6.233.923.663 2.548.733 4.57.209l24.118-6.338z" fill="#fff" fill-rule="evenodd"/></svg></svg>