<svg xmlns="http://www.w3.org/2000/svg"><defs><font horiz-adv-x="1024"><font-face ascent="1536" bbox="-344.8 -469 3604 1870" cap-height="1264" descent="-512" panose-1="2 0 5 6 9 0 0 2 0 4" underline-position="-102" underline-thickness="122" unicode-range="U+0020-FB05" units-per-em="2048" x-height="897"/><missing-glyph d="M102 195l287 522-287 522v-1044zM737 102l-286 523-287-523h573zM799 195v1044l-287-522zM737 1331h-573l287-522zM0 1434h901v-1434h-901v1434z" horiz-adv-x="901"/><glyph d="M182 0q-18 0-18 18v717q0 25-21 25h-90q-16 0-16 20v101q0 18 20 18h84q23 0 23 21v122q0 135 82 205t221 70 233-57q14-10 17.5-16.5t-4.5-22.5l-43-82q-10-16-38-6-95 34-168 34t-105.5-42-32.5-107v-98q0-20 22-21h420q18 0 18-18v-996q0-181-82.5-220.5t-168.5-39.5-100.5 14.5-10.5 30.5l22 101q4 23 32 15t60-9q56 0 71.5 34t15.5 93v833q0 10-3.5 16.5t-19.5 6.5h-256q-20 0-20-21v-721q0-18-21-18h-123z" glyph-name="fj" horiz-adv-x="899" unicode="&#x66;&#x6a;"/><glyph d="M465 1124q-139 0-139-151v-53q0-20 22-21h252q23 0 23 21v151q0 20-9 25-76 28-149 28zM1227 899q18 0 18-18v-996q0-181-82.5-220.5t-168.5-39.5-100.5 14.5-10.5 30.5l22 99q4 23 32 15 27-8 59-7 57 0 72 34t15 93v833q0 10-3 16.5t-19 6.5h-256q-20 0-21-21v-721q0-18-20-18h-123q-18 0-18 18v717q0 25-21 25h-256q-20 0-20-21v-721q0-18-21-18h-123q-18 0-18 18v717q0 25-21 25h-90q-16 0-16 20v101q0 18 20 18h84q23 0 23 21v67q0 127 82 207t202 80 220-41q13-7 22 2 82 82 228 82t241-57q14-10 17.5-16.5t-5.5-22.5l-43-82q-10-16-38-6-94 34-162 34-70 0-107-42t-37-107v-98q0-20 23-21h420z" glyph-name="ffj" horiz-adv-x="1357" unicode="&#x66;&#x66;&#x6a;"/><glyph d="M465 1133q-139 0-139-152v-61q0-20 22-21h252q23 0 23 21v159q0 20-9 25-78 29-149 29zM182 0q-18 0-18 18v717q0 25-21 25h-90q-16 0-16 20v101q0 18 20 18h84q23 0 23 21v92q0 115 83.5 192.5t197.5 77.5q113 0 223-45 2-2 10-2t12 4q82 82 234 82 108 0 200-45 14-4 14-18t-3-21l-29-72q-12-23-27-22-6 0-41 14-36 14-110 14t-108-40.5-34-100.5v-110q0-20 23-21h170q20 0 20-20v-101q0-18-20-18h-172q-20 0-21-21v-721q0-18-20-18h-123q-18 0-18 18v717q0 25-21 25h-258q-20 0-20-21v-721q0-18-21-18h-123z" glyph-name="ff" horiz-adv-x="1021" unicode="&#x66;&#x66;"/><glyph d="M182 0q-18 0-18 18v717q0 25-21 25h-90q-16 0-16 20v101q0 18 20 18h84q23 0 23 21v139q0 127 82 194.5t221 67.5 233-57q18-12 18-20t-5-19l-43-82q-11-21-37-6-99 34-173 34-134 0-134-149v-102q0-20 22-21h404q20 0 27-8t7-31v-842q0-18-20-18h-123q-18 0-18 18v717q0 25-21 25h-258q-20 0-20-21v-721q0-18-21-18h-123z" glyph-name="fi" horiz-adv-x="901" unicode="&#x66;&#x69;"/><glyph d="M922 14q0-30-12-30h-66q-188 0-204.5 112.5t-16.5 179.5v844q0 19-23 28-60 23-136 23-138 0-138-149v-102q0-20 22-21h160q20 0 25.5-6t5.5-29v-76q0-23-9.5-25.5t-21.5-2.5h-162q-20 0-20-21v-721q0-18-21-18h-123q-18 0-18 18v717q0 25-21 25h-90q-16 0-16 20v101q0 18 20 18h84q23 0 23 21v139q0 127 82 194.5t199 67.5 200-31q7-4 19-4t16 2l59 15q20 4 25 4 23 0 22-37v-1016q0-72 20.5-92.5t70.5-20.5h26q19 0 19-30v-97z" glyph-name="fl" horiz-adv-x="966" unicode="&#x66;&#x6c;"/><glyph d="M465 1130q-139 0-139-151v-59q0-20 22-21h252q23 0 23 21v157q0 20-9 25-76 28-149 28zM182 0q-18 0-18 18v717q0 25-21 25h-90q-16 0-16 20v101q0 18 20 18h84q23 0 23 21v88q0 115 83.5 192.5t197.5 77.5q113 0 223-45 2-2 10-2t12 4q82 82 228 82t241-57q19-12 19-20t-7-19l-43-82q-10-21-36-6-99 34-166 34-68 0-105-42t-37-107v-98q0-20 23-21h410q20 0 24-8t4-31v-842q0-18-20-18h-123q-19 0-19 18v717q0 25-20 25h-258q-20 0-21-21v-721q0-18-20-18h-123q-18 0-18 18v717q0 25-21 25h-256q-20 0-20-21v-721q0-18-21-18h-123z" glyph-name="ffi" horiz-adv-x="1359" unicode="&#x66;&#x66;&#x69;"/><glyph d="M465 1130q-139 0-139-151v-59q0-20 22-21h252q23 0 23 21v157q0 20-9 25-76 28-149 28zM182 0q-18 0-18 18v717q0 25-21 25h-90q-16 0-16 20v101q0 18 20 18h84q23 0 23 21v88q0 115 83.5 192.5t197.5 77.5q113 0 223-45 2-2 10-2t12 4q82 82 232 82 90 0 180-31 8-4 19-4t16 2l59 14 25 5q23 0 22-37v-1012q0-72 20.5-92.5t69.5-20.5h27q14 0 16-10t2-20v-97q0-30-12-30h-66q-186 0-203.5 112.5t-17.5 179.5v840q0 20-18 27-65 24-135 24t-107-42-37-107v-98q0-20 23-21h160q20 0 25-6t5-29v-76q0-23-9-25.5t-21-2.5h-162q-20 0-21-21v-721q0-18-20-18h-123q-18 0-18 18v717q0 25-21 25h-254q-20 0-20-21v-721q0-18-21-18h-123z" glyph-name="ffl" horiz-adv-x="1370" unicode="&#x66;&#x66;&#x6c;"/><glyph d="M182 0q-18 0-18 18v717q0 25-21 25h-90q-16 0-16 20v101q0 18 20 18h84q23 0 23 21v137q0 109 66 184.5t168 75.5q182 0 182-37 0-8-2-12l-23-101q-2-14-14-14t-37 7-77 7-76.5-38.5-24.5-90.5v-118q0-20 22-21h252q25 0 25 25v172q0 16 18 22l119 29h6q18 0 18-19v-210q0-20 21-21h188q20 0 21-18v-101q0-20-21-20h-186q-23 0-23-21v-469q0-129 111-129 70-1 93 9 22 10 30 10t12-15l23-100q2-4 2-12 0-25-71-33t-112-8q-129 0-189 68.5t-60 179.5v499q0 20-23 23h-256q-20 0-20-21v-721q0-18-21-18h-123z" glyph-name="ft" horiz-adv-x="1067" unicode="&#x66;&#x74;"/><glyph d="M102 195l287 522-287 522v-1044zM737 102l-286 523-287-523h573zM799 195v1044l-287-522zM737 1331h-573l287-522zM0 1434h901v-1434h-901v1434z" glyph-name=".notdef" horiz-adv-x="901"/><glyph glyph-name=".null" horiz-adv-x="0"/><glyph glyph-name="nonmarkingreturn" horiz-adv-x="681"/><glyph glyph-name="space" horiz-adv-x="430" unicode="&#x20;"/><glyph d="M393 89q0-46-31.5-77.5t-78.5-31.5-80 31.5-33 76.5 33 77 79 32 78.5-31 32.5-77zM322 330h-72q-18 0-19 16l-38 897q0 20 20 21h137q20 0 21-19l-31-897q0-18-18-18z" glyph-name="exclam" horiz-adv-x="538" unicode="&#x21;"/><glyph d="M233 1264q8 0 14.5-4.5t4.5-12.5v-381q0-16-21-16h-94q-20 0-20 16v379q0 18 18 19h98zM467 1264q23 0 18-17v-381q0-16-18-16h-96q-20 0-21 16v379q0 18 21 19h96z" glyph-name="quotedbl" horiz-adv-x="589" unicode="&#x22;"/><glyph d="M590 758h-154q-10 0-18-6.5t-8-12.5l-54-243q-2-14 0-20.5t23-6.5h158q16 0 20 16l55 248q2 12-1 18.5t-21 6.5zM61 356q-16 0-16 15 0 6 1 7t2 7 3 20.5 8 43.5q6 20 25 20h119q16 0 20 16l58 248q2 12-1.5 18.5t-21.5 6.5h-125q-16 0-16 16l16 76q2 18 23 18h141q14 0 18 17l54 245q4 12 18 13h84q28 0 23-23l-50-223q-10-29 23-29h160q14 0 18 17l57 245q0 12 19 13h82q18 0 21-6.5t1-16.5l-47-223q-9-27 21-27h110q23 0 17-30l-15-62q-6-20-24-20h-123q-18 0-21-13l-55-249q-2-14 1-20.5t22-6.5h127q20 0 16-18l-14-74q-6-20-25-21h-141q-18 0-21-10l-53-242q-2-14-18-14h-84q-18 0-21.5 7t-1.5 18l49 217q5 26-22 26h-160q-16 0-18-12l-60-242q-2-14-16-14h-86q-27 0-23 23 0 4 8.5 37.5t18.5 74.5l24 107q2 10-1 17t-21 7h-107z" glyph-name="numbersign" horiz-adv-x="972" unicode="&#x23;"/><glyph d="M446-137q-20 0-20 18v127q0 14-16 15-161 12-283 114-14 12 2 35l59 72q14 20 39 0 99-90 249-90t186 75.5 36 144.5-58.5 115-134.5 69q-77 23-229.5 79t-152.5 274q0 123 85 214.5t206 115.5q12 0 12 16v113q0 18 20 19h64q20 0 20-19v-110q0-10 17-15 157-12 270-108 16-14 0-35l-61-76q-16-23-41 0-95 88-226 88-79 0-146-55t-67-150q0-116 98-151t150-50q143-42 236.5-119t93.5-221q0-145-83.5-232t-223.5-109q-16-2-17-17v-127q0-20-20-20h-64z" glyph-name="dollar" horiz-adv-x="972" unicode="&#x24;"/><glyph d="M1223 563q0 49-33 81t-86 32-85-33-32-80v-352q0-51 31-83t85-32 87 32 33 83v352zM1352 211q0-104-66.5-160.5t-180.5-56.5-180.5 54-66.5 163v352q0 102 67.5 160.5t178 58.5 179.5-57 69-162v-352zM442 1051q0 47-29.5 77.5t-83 30.5-83-30.5-29.5-77.5v-351q0-49 29.5-78.5t83-29.5 83 29.5 29.5 78.5v351zM580 700q0-104-67-162.5t-183-58.5-182 55.5-66 165.5v351q0 104 67.5 162.5t179.5 58.5 181.5-57.5 69.5-163.5v-351zM391-61q-18 0-10 18l569 1352q8 16 27 16h61q18 0 20.5-6t-1.5-19l-568-1347q-6-14-24-14h-74z" glyph-name="percent" horiz-adv-x="1433" unicode="&#x25;"/><glyph d="M502 612q-20 0-21 21v98q0 20 23 21h418q135 0 235 73 23 19 41-4l39-57q8-10 8-22t-10-21q-100-96-285-107-37-4-37-32v-209q0-174-103.5-279.5t-285.5-105.5h-16q-193 0-285 98t-92 266v453q0 160 111 253t276 93h258q23 0 23-21v-100q0-20-21-20h-260q-98 0-160.5-56.5t-62.5-146.5v-453q0-105 29.5-146.5t71.5-60 112-18.5h16q180 0 204 101.5t24 144.5v217q0 4-2 12t-19 8h-229z" glyph-name="ampersand" horiz-adv-x="1167" unicode="&#x26;"/><glyph d="M111 1245q0 18 18 19h98q20 0 21-17l-2-381q0-16-19-16h-96q-20 0-20 16v379z" glyph-name="quotesingle" horiz-adv-x="354" unicode="&#x27;"/><glyph d="M285 538q0-357 264-767 20-29-4-47l-53-35q-35-20-62 8-213 271-268.5 495t-55.5 403 106.5 420.5 225.5 395.5q16 20 47 4l58-31q29-16 8-45-183-279-224.5-486t-41.5-315z" glyph-name="parenleft" horiz-adv-x="665" unicode="&#x28;"/><glyph d="M307 948.5q-74 210.5-192 390.5-20 29 8 45l57 31q31 16 47-4 118-153 225-393t107-526.5-134-505.5-189-289q-25-31-60-8l-53 35q-27 16-6 47 116 183 190 374.5t74 391.5q0 201-74 411.5z" glyph-name="parenright" horiz-adv-x="665" unicode="&#x29;"/><glyph d="M348 1339h64q39 0 34-30l-20-195q-2-20 14-14l176 71q35 16 48-20l24-61q11-32-18-39l-191-45q-22-5-6-21l123-147q25-31 0-47l-55-37q-20-12-30.5-12.5t-23.5 22.5l-96 160q-10 23-24 0l-101-162q-10-18-20-20.5t-31 12.5l-51 34q-33 23-2 56l121 141q14 14-4 19l-189 47q-29 6-20 34l20 66q12 37 47 23l180-74q14-4 15 8l-23 203q-2 14 5.5 21t33.5 7z" glyph-name="asterisk" horiz-adv-x="757" unicode="&#x2a;"/><glyph d="M891 457q0-31-31-31h-301q-10 0-10-8v-301q0-29-29-29h-69q-31 0-31 29v299q0 10-8 10h-299q-31 0-31 29v65q0 31 31 31h297q10 0 10 8v299q0 31 29 31h69q31 0 31-31v-297q0-10 10-10h301q31 0 31-31v-63z" glyph-name="plus" horiz-adv-x="972" unicode="&#x2b;"/><glyph d="M133-233q-32 0-24 36l22 369q4 35 33 35h137q41 0 29-43l-105-371q-8-27-32-26h-60z" glyph-name="comma" horiz-adv-x="436" unicode="&#x2c;"/><glyph d="M567 440q0-20-18-20h-418q-20 0-20 20v95q0 20 18 20h418q20 0 20-18v-97z" glyph-name="hyphen" horiz-adv-x="696" unicode="&#x2d;"/><glyph d="M218 201q46 0 79-31t33-78-33-78.5-79-31.5-77.5 32.5-31.5 77.5 31.5 77 77.5 32z" glyph-name="period" horiz-adv-x="436" unicode="&#x2e;"/><glyph d="M29-135q-29 0-19 29l479 1464q8 25 41 24h60q26 0 18-24l-481-1469q-10-25-35-24h-63z" glyph-name="slash" horiz-adv-x="620" unicode="&#x2f;"/><glyph d="M707 934q0 90-55.5 147.5t-146.5 57.5-146.5-58.5-55.5-146.5v-598q0-92 54.5-149.5t146.5-57.5 147.5 56.5 55.5 150.5v598zM872 336q0-166-99-257t-266-91-268.5 87-101.5 261v598q0 160 100.5 253t265.5 93q166 0 267.5-91t101.5-255v-598z" glyph-name="zero" horiz-adv-x="972" unicode="&#x30;"/><glyph d="M604 20q0-20-20-20h-127q-18 0-19 18v1004q0 20-14 20-6 0-18-6l-140-82q-20-10-33-10-20 0-20 23v94q0 33 20 47l220 135q34 21 53 21h67q31 0 31-31v-1213z" glyph-name="one" horiz-adv-x="972" unicode="&#x31;"/><glyph d="M842 20q0-20-21-20h-692q-35 0-35 33v59q0 52 25 84l475 608q65 81 65 174 0 123-69.5 152t-111.5 29q-68 0-128-32.5t-89-67.5q-30-35-52-17l-66 53q-14 10-14 19.5t6 19.5q55 86 148.5 126t179.5 40q166 0 266-83.5t100-233.5q0-72-33.5-142.5t-68.5-113.5l-422-541q-18-25 10-25h506q20 0 21-18v-103z" glyph-name="two" horiz-adv-x="972" unicode="&#x32;"/><glyph d="M811 342q0-163-105-258.5t-264-95.5-247 71q-63 49-89 99-4 8-4 16t17 19l88 55q12 8 19 8t18-10l20-29q74-88 166-88t154.5 54 62.5 155v96q0 80-54 133.5t-144 53.5h-127q-20 0-21 18v104q0 18 18 19h130q86 0 144 48t58 135-50.5 140.5-128.5 53.5q-135 0-200-97-20-33-45-18l-90 53q-19 14-4 39 53 86 142.5 125t187.5 39q174 0 263-91t89-235q0-77-46-152t-122-102q-10-4-9.5-10t26.5-12 86.5-54 60.5-184v-98z" glyph-name="three" horiz-adv-x="972" unicode="&#x33;"/><glyph d="M760 272q-27 0-27-28v-224q0-20-20-20h-125q-18 0-19 20v224q0 29-26 28h-445q-20 0-20 21v57q0 57 18 90l422 815q4 8 19 9h125q12 0 18-9.5t0-19.5l-418-805q-4-6-4-14t16-8h275q20 0 20 26v359q0 20 19 20h125q20 0 20-20v-355q0-16 2-23t19-7h120q20 0 21-21v-94q0-20-21-21h-114z" glyph-name="four" horiz-adv-x="972" unicode="&#x34;"/><glyph d="M823 348q0-165-106-262.5t-249-97.5q-142 0-217 42t-128 134q-10 20 8 31l94 53q20 12 35-4 39-53 77.5-84t124.5-31 141.5 58.5 55.5 144.5v157q0 130-73.5 159.5t-137.5 29.5-108-33q-45-33-76-20l-71 30q-31 16-31 43v545q0 20 18 21h592q20 0 21-19v-106q0-16-19-17h-426q-25 0-24-22v-279q0-39 48-18t120 21q155-1 243-93t88-244v-139z" glyph-name="five" horiz-adv-x="972" unicode="&#x35;"/><glyph d="M490 668q-84 0-144.5-54.5t-60.5-140.5v-147q0-90 60.5-144.5t146.5-54.5 143 54.5 59 154.5l2 147q2 90-60 137.5t-146 47.5zM860 336q0-157-101.5-252.5t-313-95.5-268 126-56.5 212v575q0 179 107.5 279t277.5 100q111 0 186.5-30.5t141.5-116.5q18-25-7-46l-77-63q-19-19-51 19-79 96-189 96t-167.5-61.5-57.5-155.5v-166q-1-40 41-4 26 22 78 39.5t114 17.5q142 0 242-87.5t100-238.5v-147z" glyph-name="six" horiz-adv-x="972" unicode="&#x36;"/><glyph d="M866 1174q0-22-16-62-230-501-298.5-656t-104-235-60.5-134.5-33-70.5-24-16h-133q-10 0-16.5 6t-.5 19l477 1058q8 16 2 27.5t-28 11.5h-332q-18 0-23.5-5t-5.5-17v-94q0-23-18-23h-105q-20 0-20 21v239q0 20 18 21h680q41 0 41-29v-61z" glyph-name="seven" horiz-adv-x="972" unicode="&#x37;"/><glyph d="M264 354q0-111 60.5-168t153.5-57 163 65 70 176q0 110-65.5 170t-156.5 60q-88 0-156.5-67.5t-68.5-178.5zM492 1145q-90 0-149.5-58.5t-59.5-144.5 57-144.5 146-58.5 148.5 58.5 59.5 144.5-56 144.5-146 58.5zM754 1193q104-93 104-253 0-72-33.5-140.5t-91.5-113.5q-18-16-4-24 66-39 107-111t41-166q0-182-111.5-289.5t-282.5-107.5q-271 0-328 139t-57 236 45 178.5 117 117.5q26 10-2 24-56 26-96.5 101t-40.5 153q0 79 28.5 143.5t103.5 135 236 70.5 265-93z" glyph-name="eight" horiz-adv-x="972" unicode="&#x38;"/><glyph d="M676 942q0 90-59.5 144.5t-145.5 54.5-145.5-56.5-59.5-140.5v-149q0-92 50.5-143.5t145.5-51.5 154.5 54.5 59.5 140.5v147zM676 391v125q0 37-33 8t-84-47-115-18q-140 0-242 91.5t-102 244.5v133q0 158 107.5 255t271.5 97 262.5-92 98.5-270v-523q0-193-98.5-300t-311.5-107-321 178q-14 25 6 35l94 55q18 12 35-10 87-117 198-117 234 0 234 262z" glyph-name="nine" horiz-adv-x="972" unicode="&#x39;"/><glyph d="M217 201q47 0 80-31t33-78-33-78.5-79-31.5-77.5 32.5-31.5 77.5 31.5 76 76.5 31v2zM330 673q0-44-33-77t-79-33-77.5 32-31.5 77 31.5 77.5 76.5 32.5 79-32.5 34-76.5z" glyph-name="colon" horiz-adv-x="436" unicode="&#x3a;"/><glyph d="M121-233q-30 0-25 36l23 367q5 37 35 37h135q41 0 28-45l-104-369q-8-27-33-26h-59zM330 675q0-46-33-78t-79-32-77.5 31-31.5 76 31.5 77.5 77.5 32.5 79-30.5 33-76.5z" glyph-name="semicolon" horiz-adv-x="436" unicode="&#x3b;"/><glyph d="M915 915q0-34-26-47l-664-333q-27-14 0-29l668-332q18-10 20-24t2-27v-82q-2-11-13-21t-28 0l-784 406q-37 16-37 43v90q0 33 27 47l794 408q14 8 28 4t13-21v-82z" glyph-name="less" horiz-adv-x="972" unicode="&#x3c;"/><glyph d="M891 649q0-31-31-31h-747q-31 0-31 29v66q0 31 31 30h747q31 0 31-30v-64zM891 299q0-31-31-31h-747q-31 0-31 29v65q0 31 31 31h747q31 0 31-31v-63z" glyph-name="equal" horiz-adv-x="972" unicode="&#x3d;"/><glyph d="M918 469q0-27-35-43l-789-406q-16-8-28 0t-11 21v82q2 13 3 27t22 24l665 332q29 16 0 29l-663 333q-25 11-25 47l-2 82q-1 17 13 21t28-4l795-408q27-14 27-47v-90z" glyph-name="greater" horiz-adv-x="972" unicode="&#x3e;"/><glyph d="M510 89q0-46-32-77.5t-79-31.5-79.5 31.5-32.5 76.5 32.5 77 78.5 32 79-31 33-77zM858 950q0-89-51-173.5t-143-140.5-136.5-109.5-44.5-131.5v-43q0-29-18-28h-119q-16 0-22.5 5t-6.5 25v70q0 78 43 156t129 136 142.5 114.5 56.5 125.5q0 125-69.5 156t-121.5 31-101.5-36-80.5-79q-16-23-41-6l-88 57q-23 14-8 35 53 86 141.5 130t175.5 44 151.5-21.5 111.5-63.5 73.5-103 26.5-150z" glyph-name="question" horiz-adv-x="1005" unicode="&#x3f;"/><glyph d="M762 616q-43 0-79-35.5t-36-89 36-89 89-35.5 89 35.5 36 89.5q0 79-46 101.5t-89 22.5zM1040 498q0-127 115-127t148.5 106.5 33.5 210.5-46 192.5-157 181.5-307 93q-239 0-402-159.5t-163-398.5 157.5-397.5 411.5-158.5q121 0 212.5 24.5t115.5 35.5 34.5 10.5 20.5-25.5l19-49q10-27-.5-34t-58.5-23q-154-53-321-54-330 0-522 182.5t-192 476.5 141.5 434 267.5 191.5 267 51.5q279 0 462-164t183-400-91-337-216-101-188 74q-8 8-17 2-81-76-181-76t-172.5 63-72.5 170 71 168.5 179 61.5q50 0 100-25 12-4 20.5 5t8.5 33-24.5 54.5-93.5 30.5-160-35q-18-4-25 13l-23 67q-6 18 9 25 92 47 217 47 126 0 182.5-62.5t56.5-185.5v-192z" glyph-name="at" horiz-adv-x="1544" unicode="&#x40;"/><glyph d="M319 430h283q10 0 12 3t0 13l-90 369-57 258q-2 6-5 6t-5-4l-56-252-92-377q-2-10-1-13t11-3zM750 0q-27 0-29 14l-68 267q-4 8-8 8h-362q-8 0-9.5-2t-3.5-4l-65-269q-2-14-27-14h-110q-34 0-27 31l303 1208q5 25 33 25h174q25 0 31-21l311-1208q14-35-19-35h-124z" glyph-name="A" horiz-adv-x="935" unicode="&#x41;"/><glyph d="M690 940q0 80-49 128t-143 48h-199q-16 0-16-16v-334q0-18 16-18h201q96 0 143 56t47 136zM727 371q0 154-81 192.5t-142 38.5h-205q-16 0-16-16v-418q0-18 16-18h227q94 0 147.5 61.5t53.5 159.5zM897 380q0-170-99.5-275t-267.5-105h-395q-25 0-24 23v1218q0 23 22 23h367q166 0 263-84t97-246q0-102-53-163.5t-82-82.5q-4-8 2-14 84-43 127-125t43-169z" glyph-name="B" horiz-adv-x="974" unicode="&#x42;"/><glyph d="M850 1107q0-9-16-24l-78-65q-8-8-21.5-5t-21.5 13q-83 104-237 104-80 0-132.5-55t-52.5-143v-596q0-86 57.5-142.5t137.5-56.5q128 0 227 99 10 12 20 19t27-5l82-68q15-10 4-32-61-80-151.5-121t-181.5-41q-179 0-286.5 91.5t-107.5 254.5v598q0 158 103 253t270 95q94 0 182-31t166-121q10-12 10-21z" glyph-name="C" horiz-adv-x="880" unicode="&#x43;"/><glyph d="M723 913q0 106-60.5 154.5t-156.5 48.5h-191q-18 0-18-16v-932q0-18 16-18h207q102 0 152.5 54t50.5 150v559zM895 381q0-190-99.5-285.5t-279.5-95.5h-366q-25 0-25 23v1218q0 23 25 23h366q184 0 281.5-96.5t97.5-272.5v-514z" glyph-name="D" horiz-adv-x="1007" unicode="&#x44;"/><glyph d="M840 25q0-25-25-25h-668q-25 0-24 23v1218q0 23 24 23h660q27 0 27-23v-100q0-25-25-25h-498q-16 0-16-16v-350q0-16 14-17h412q25 0 24-24v-103q0-23-22-22h-412q-16 0-16-19v-397q0-18 14-18h506q25 0 25-23v-102z" glyph-name="E" horiz-adv-x="901" unicode="&#x45;"/><glyph d="M799 1139q0-23-25-23h-467q-18 0-18-16v-359q0-16 16-16h400q23 0 22-25v-102q0-23-22-23h-398q-16 0-16-18v-532q0-25-23-25h-125q-25 0-24 23v1218q0 23 24 23h631q25 0 25-21v-104z" glyph-name="F" horiz-adv-x="823" unicode="&#x46;"/><glyph d="M874 330q0-152-103.5-247t-270-95-274 91.5-107.5 254.5v598q0 158 110.5 253t276.5 95q100 0 197.5-39t148.5-127q13-22-10-41l-80-63q-19-15-43 14-76 104-200 104t-176-62-52-151v-579q0-86 57.5-142.5t150.5-56.5 146 51.5 53 143.5v188q0 16-12 17h-151q-25 0-25 22v105q0 25 25 24h313q27 0 26-24v-334z" glyph-name="G" horiz-adv-x="983" unicode="&#x47;"/><glyph d="M944 25q0-25-24-25h-125q-25 0-25 23v538q0 18-16 19h-437q-16 0-16-19v-536q0-25-22-25h-125q-25 0-25 23v1218q0 23 23 23h124q25 0 25-21v-498q0-18 16-18h437q16 0 16 18v496q0 23 23 23h125q27 0 26-21v-1218z" glyph-name="H" horiz-adv-x="1069" unicode="&#x48;"/><glyph d="M332 25q0-25-25-25h-127q-25 0-24 23v1218q0 23 24 23h127q25 0 25-21v-1218z" glyph-name="I" horiz-adv-x="493" unicode="&#x49;"/><glyph d="M252 250v987q0 27 31 27h106q31 0 31-27v-971q0-204-82-325.5t-291-180.5q-31-8-41 29l-26 82q-4 16-3.5 26.5t39.5 26.5q119 47 177.5 113t58.5 213z" glyph-name="J" horiz-adv-x="550" unicode="&#x4a;"/><glyph d="M911 1264q20 0 24.5-9.5t-3.5-19.5l-379-465q-16-20 10-20 16 0 29.5 1t28.5-1q267-19 288-338l31-392q0-20-20-20h-119q-23 0-23 18l-24 369q-6 95-35 139.5t-70 68-110 23.5q-117 0-176.5-67.5t-59.5-175.5v-355q0-20-18-20h-133q-23 0-23 18v1225q0 20 23 21h133q18 0 18-19v-508q0-28 23-8l424 520q12 14 28 15h133z" glyph-name="K" horiz-adv-x="1021" unicode="&#x4b;"/><glyph d="M834 25q0-25-23-25h-651q-25 0-25 23v1218q0 23 23 23h125q23 0 22-21v-1075q0-18 17-18h487q25 0 25-23v-102z" glyph-name="L" horiz-adv-x="872" unicode="&#x4c;"/><glyph d="M1145 1264q37 0 37-37v-1202q0-25-23-25h-117q-23 0-22 23v794q0 4-3 5t-5-3l-86-239-199-510q-4-6-12-17.5t-27-11.5h-80q-31 0-41 27l-188 495-88 250q-6 6-6 0v-788q0-25-23-25h-115q-25 0-24 23v1202q0 39 37 39h80q29 0 35-5.5t16-25.5l274-733 78-226q10-16 19-2 20 55 39.5 116t39.5 116l273 731q10 16 19 22.5t30 6.5h82z" glyph-name="M" horiz-adv-x="1284" unicode="&#x4d;"/><glyph d="M242 1264q25 0 35-9.5t20-23.5l477-879q6-12 6-2v891q0 23 23 23h115q25 0 24-21v-1202q0-27-13.5-34t-25.5-7h-78q-38 0-53 31l-477 876q-6 6-6 0v-882q0-25-23-25h-116q-25 0-25 23v1189q0 27 7 39.5t36 12.5h74z" glyph-name="N" horiz-adv-x="1062" unicode="&#x4e;"/><glyph d="M727 928q0 88-59.5 145t-158.5 57-158.5-58-59.5-144v-586q0-92 55.5-148.5t159.5-56.5 162.5 56.5 58.5 148.5v586zM899 338q0-162-109.5-256t-279.5-94-280.5 91-110.5 259v594q0 159 110.5 253.5t277.5 94.5 279.5-91 112.5-257v-594z" glyph-name="O" horiz-adv-x="1017" unicode="&#x4f;"/><glyph d="M319 1116q-18 0-18-16v-416q0-18 16-18h189q96 0 154.5 60t58.5 157-57 165-156 68h-187zM779.5 627.5q-109.5-107.5-271.5-107.5h-189q-16 0-16-18v-477q0-25-24-25h-123q-25 0-25 23v1218q0 23 25 23h350q174 0 278.5-106t104.5-264q0-159-109.5-266.5z" glyph-name="P" horiz-adv-x="937" unicode="&#x50;"/><glyph d="M727 928q0 88-59.5 145t-158.5 57-158.5-58-59.5-144v-586q0-92 55.5-148.5t159.5-56.5 162.5 56.5 58.5 148.5v586zM899 338q0-141-81-232.5t-214-109.5q-18-2-18-37 0-82 84-82 57-1 102 19t55.5 18 14.5-18l30-70q9-30-18-45-85-49-199-49t-173.5 62.5-59.5 178.5q0 17-19 25-122 28-203 115t-81 225v594q0 159 110.5 253.5t277.5 94.5 279.5-91 112.5-257v-594z" glyph-name="Q" horiz-adv-x="1017" unicode="&#x51;"/><glyph d="M319 1116q-18 0-18-16v-416q0-18 16-18h250q18 0 33 10 55 39 88 102.5t33 107.5q0 103-51.5 166.5t-175.5 63.5h-175zM911 0h-106q-33 0-44 10t-22 31l-209 461q-9 18-30 18h-181q-16 0-16-18v-477q0-25-24-25h-123q-25 0-25 23v1218q0 23 25 23h360q193 0 286-96.5t93-268.5-188-342q-9-6-7-12t7.5-17.5 28-59.5 68.5-146.5 130-276.5q12-27 1-36t-24-9z" glyph-name="R" horiz-adv-x="989" unicode="&#x52;"/><glyph d="M688 348q0 126-97 166.5t-147 57.5q-160 54-261 131t-101 233 105.5 250 265.5 94q208 0 346-102 18-14 12-25.5t-10-19.5l-49-78q-18-25-70 7-107 66-211 66-153 0-186-71.5t-33-120.5q0-82 65-125.5t155-78.5q90-34 238-96.5t148-285.5q0-167-121-263.5t-311-96.5q-117 0-218.5 40t-156.5 117q-18 20 8 41l76 70q12 10 21.5 5t23.5-19q98-105 268-105 94 0 167 52.5t73 156.5z" glyph-name="S" horiz-adv-x="927" unicode="&#x53;"/><glyph d="M823 1139q0-23-24-23h-271q-18 0-18-16v-1075q0-25-23-25h-125q-25 0-24 23v1075q0 18-16 18h-267q-25 0-24 23v102q0 23 24 23h744q25 0 24-21v-104z" glyph-name="T" horiz-adv-x="854" unicode="&#x54;"/><glyph d="M901 328q0-159-114.5-249.5t-278-90.5-276.5 91-113 249v913q0 23 22 23h127q23 0 23-21v-915q0-84 62.5-137.5t159.5-53.5 156.5 55.5 59.5 141.5v907q0 23 25 23h123q25 0 24-21v-915z" glyph-name="U" horiz-adv-x="1019" unicode="&#x55;"/><glyph d="M532 0h-139q-23 0-31 20l-339 1209q-10 35 26 35h127q23 0 29-19l178-708 78-328q4-12 8 0l74 328 176 708q8 18 29 19h118q45 0 29-39l-334-1207q-6-18-29-18z" glyph-name="V" horiz-adv-x="911" unicode="&#x56;"/><glyph d="M1049 0h-152q-18 0-23 16l-141 672-47 248q0 4-4 0l-47-252-133-670q-6-14-25-14h-147q-18 0-25 12l-287 1223q-6 29 25 29h133q16 0 19.5-8.5t5.5-18.5l141-651 59-303q4-10 11 0 12 72 26.5 146.5t26.5 145.5l135 674q8 15 29 15h116q23 0 29-21l141-665 58-295q0-6 4-5t6 5l57 301 138 659q4 20 26 21h121q39 0 27-35l-281-1211q-12-18-22-18z" glyph-name="W" horiz-adv-x="1363" unicode="&#x57;"/><glyph d="M186 0h-127q-35 0-18 33l315 602q10 23 6 33t-8 18l-286 549q-16 29 22 29h135q30 0 41-23l199-410q8-8 16 0 104 204 203 410 12 23 41 23h123q33 0 22-29-72-139-146.5-278.5t-145.5-278.5q-10-25 0-41 37-70 93.5-179.5t225.5-424.5q16-33-18-33h-127q-16 0-26.5 3t-18.5 20l-228 454q-2 6-9 9t-11-7l-228-456q-10-16-19-19.5t-26-3.5z" glyph-name="X" horiz-adv-x="923" unicode="&#x58;"/><glyph d="M530 25q0-25-24-25h-123q-25 0-25 23v434q0 25-8 41l-315 731q-14 35 20 35h117q33 0 43-23l221-561q10-16 19-2 161 407 219 559 8 16 16 21.5t31 5.5h113q23 0 25.5-9.5t-3.5-23.5l-315-729q-10-23-11-49v-428z" glyph-name="Y" horiz-adv-x="890" unicode="&#x59;"/><glyph d="M774 150q25 0 25-23v-102q0-25-25-25h-665q-20 0-29.5 10t-9.5 23v65q0 29 14 58l489 936q14 25-14 24h-434q-25 0-25 23v102q0 23 25 23h616q45 0 45-37v-60q0-35-26-84l-473-909q-14-25 12-24h475z" glyph-name="Z" horiz-adv-x="860" unicode="&#x5a;"/><glyph d="M551-283q0-18-19-18h-303q-18 0-18 18v1663q0 20 18 21h301q20 0 21-21v-102q0-18-19-18h-135q-23 0-22-23v-1376q0-20 20-21h135q20 0 21-18v-105z" glyph-name="bracketleft" horiz-adv-x="667" unicode="&#x5b;"/><glyph d="M590-135h-64q-25 0-34 24l-482 1469q-8 24 19 24h59q33 0 41-24l479-1464q10-29-18-29z" glyph-name="backslash" horiz-adv-x="620" unicode="&#x5c;"/><glyph d="M440-285q0-18-18-18h-303q-18 0-19 18v103q0 18 19 18h135q23 0 22 23v1376q0 20-22 20h-135q-18 0-19 21v102q0 20 19 21h301q20 0 20-21v-1663z" glyph-name="bracketright" horiz-adv-x="649" unicode="&#x5d;"/><glyph d="M514 1284h94q16 0 21.5-3t15.5-17l303-412q12-16 6-25.5t-18-19.5l-45-35q-12-10-43 21l-283 305q-4 4-7 9t-9.5 5-18.5-14l-258-310q-25-33-49-20l-55 35q-10 4-12 17.5t8 25.5l309 418q8 10 14.5 15t26.5 5z" glyph-name="asciicircum" horiz-adv-x="1122" unicode="&#x5e;"/><glyph d="M1024-274q0-20-18-21h-988q-20 0-20 19v83q0 18 20 19h986q20 0 20-19v-81z" glyph-name="underscore" horiz-adv-x="1024" unicode="&#x5f;"/><glyph d="M246 1231q-23 23 4 45l90 59q22 14 41-18l156-260q14-23-9-37l-39-25q-19-15-43 9z" glyph-name="grave" horiz-adv-x="897" unicode="&#x60;"/><glyph d="M236 306q0-77 45-129t134-52 138 51 49 128-44 129-134 52-139-51-49-128zM414 614q90 0 161-39 14-8 25.5-5t11.5 22v18q0 82-42 121t-128 39-145-19.5-80-29.5-29 12l-34 90q-6 20 10 27 116 61 285 61 262 0 294.5-126t32.5-199v-566q0-20-18-20h-113q-18 0-18 16v37q0 36-50-14-50-51-193-51t-222.5 86-79.5 225 88 227 244 88z" glyph-name="a" horiz-adv-x="897" unicode="&#x61;"/><glyph d="M670 565q0 84-45 143.5t-143 59.5-153-59.5-55-143.5v-237q0-84 55-142.5t153-58.5 143 57.5 45 143.5v237zM834 328q0-150-88.5-244t-256.5-94q-103 0-185 61-42 32-42-2v-29q0-20-22-20h-109q-20 0-20 18v1266q0 20 20 21h125q18 0 18-19v-426q0-12 10-19t30 9q69 57 175 57 185 0 265-98.5t80-243.5v-237z" glyph-name="b" horiz-adv-x="923" unicode="&#x62;"/><glyph d="M434 768q-72 0-125-54.5t-53-140.5v-254q0-84 54.5-136t139.5-52 132 35 84 82q10 12 30-2l68-49q35-21 16-45-109-164-323-164-166 0-265.5 90t-99.5 248v235q0 163 102 255.5t259 92.5q198-1 315-155 8-10 6-23.5t-14-21.5l-72-56q-27-18-47 13-69 102-207 102z" glyph-name="c" horiz-adv-x="823" unicode="&#x63;"/><glyph d="M455 766q-104 0-150.5-58.5t-46.5-142.5v-237q0-86 48-142.5t138-56.5 148.5 57.5 58.5 141.5l2 237q0 84-47 142.5t-151 58.5zM817 18q0-18-18-18h-111q-20 0-20 20v29q0 12-11 16.5t-31-12.5-75-40-129-23q-150 0-239 86t-89 252v237q0 147 91 244.5t224 97.5 209-61q16-12 24.5-6t8.5 20v424q0 20 21 21h125q20 0 20-19v-1268z" glyph-name="d" horiz-adv-x="923" unicode="&#x64;"/><glyph d="M264 567q0-24 31-24h336q20 0 20 22v19q0 78-49 132t-140 54-144.5-55.5-53.5-132.5v-15zM817 461q0-23-13-36t-28-13h-479q-16 0-26.5-10.5t-10.5-26.5v-39q0-142 71-173.5t129-31.5q116 0 193 105 16 23 41 6l72-49q25-16 16-33-49-90-135-131t-186-41q-166 0-265.5 91t-99.5 245v233q0 156 101 255t263 99q161 0 259-98t98-256v-96z" glyph-name="e" horiz-adv-x="897" unicode="&#x65;"/><glyph d="M182 0q-18 0-18 18v717q0 25-21 25h-90q-16 0-16 20v101q0 18 20 18h84q23 0 23 21v137q0 109 66 184.5t168 75.5q103-1 138-11t40.5-16 1.5-22l-23-99q-7-18-41-10t-86 8q-53 0-77.5-38.5t-24.5-90.5v-118q0-20 22-21h170q20 0 21-20v-101q0-18-21-18h-172q-20 0-20-21v-721q0-18-21-18h-123z" glyph-name="f" horiz-adv-x="561" unicode="&#x66;"/><glyph d="M610 581q0 77-52 133t-140 56-142.5-57-54.5-131 48.5-130.5 142.5-56.5 146 54.5 52 131.5zM702-137q0 69-88 107t-233 19.5-195-26.5-60-2-32 38-22 102q0 69 40 121t95 83q6 4 6 10t-14 13q-142 92-142 262 0 131 103.5 226t244.5 95 242-77q10-8 21 0 84 71 184 71 29 2 29-31v-104q0-16-5.5-21t-41.5 1-80-11q-16-2-11-16 35-59 35-132 0-142-107.5-233.5t-260.5-91.5q-87 0-134-53t-51-90q0-16 15-10 98 24 195 24 197 0 316-62t119-204q0-86-64-162.5t-151-114.5q-27-14-43 13l-45 69q-12 19 13 35 51 31 86.5 72t35.5 80z" glyph-name="g" horiz-adv-x="897" unicode="&#x67;"/><glyph d="M840 20q0-20-19-20h-127q-18 0-18 18v547q0 88-46 144.5t-144 56.5-150.5-56.5-52.5-142.5v-547q0-20-21-20h-125q-20 0-20 18v1266q0 20 18 21h127q18 0 19-21v-432q-1-39 47-1 28 22 82.5 39t111.5 17q154 0 236-93t82-247v-547z" glyph-name="h" horiz-adv-x="954" unicode="&#x68;"/><glyph d="M125 877q0 20 18 20h127q20 0 21-20v-859q0-18-19-18h-127q-20 0-20 18v859zM315 1181q0-42-30.5-73t-73.5-31-72.5 29-29.5 72 29.5 72.5 72.5 29.5 73.5-28.5 30.5-70.5z" glyph-name="i" horiz-adv-x="415" unicode="&#x69;"/><glyph d="M299 897q18 0 18-18v-996q0-183-87.5-221.5t-153.5-38.5-90 6-29.5 12.5-1.5 22.5l18 100q4 20 33 16t67-4q39 1 61 33.5t22 92.5v977q0 18 20 18h123zM340 1181q0-42-30.5-73t-73.5-31-73 29-30 72 30.5 72.5 72.5 29.5 73-28.5 31-70.5z" glyph-name="j" horiz-adv-x="448" unicode="&#x6a;"/><glyph d="M819 0h-108q-29 0-29 29l-10 190q-5 90-46.5 143.5t-142.5 53.5q-100 0-150-57.5t-50-137.5v-201q0-20-21-20h-125q-20 0-20 18v1266q0 20 18 21h127q18 0 19-19v-725q0-23 10-27t20 7l318 346q10 10 28 10h152q23 0 22-18 0-9-10-19l-270-291q-12-14 8-20 14-2 27.5-3t25.5-5q125-29 173.5-115t54.5-205l8-186q0-35-29-35z" glyph-name="k" horiz-adv-x="894" unicode="&#x6b;"/><glyph d="M428 14q0-30-12-30h-66q-189 0-205 102t-16 170v1028q0 20 18 21h125q20 0 21-19v-1032q0-72 20.5-92.5t69.5-20.5h27q14 0 16-10t2-20v-97z" glyph-name="l" horiz-adv-x="452" unicode="&#x6c;"/><glyph d="M1333 20q0-20-18-20h-127q-18 0-19 18v549q0 80-45 140.5t-129 60.5-138-59.5-54-141.5v-547q0-20-19-20h-125q-20 0-20 18v549q0 80-43 140.5t-137 60.5q-130 0-157.5-81t-27.5-120v-547q0-20-18-20h-127q-20 0-20 18v549q0 150 92 246t251 96 257-112q12-14 24-2 99 114 263 114t250.5-92.5 86.5-249.5v-547z" glyph-name="m" horiz-adv-x="1439" unicode="&#x6d;"/><glyph d="M836 20q0-20-19-20h-127q-18 0-18 18v547q0 88-49.5 145.5t-143.5 57.5-147-56.5-53-144.5v-547q0-20-21-20h-125q-20 0-20 18v859q0 20 18 20h119q18 0 18-18v-31q0-18 15-19 4 0 16 9 86 72 205 71 154 0 243-93t89-249v-547z" glyph-name="n" horiz-adv-x="946" unicode="&#x6e;"/><glyph d="M501 129q149 0 154 203v235q0 88-48 144.5t-143 56.5-148.5-55.5-53.5-145.5v-235q0-88 45-145.5t194-57.5zM819 334q0-166-97-256t-265-90-263.5 89-95.5 255v235q0 158 92.5 251t266.5 93 268-90 94-254v-233z" glyph-name="o" horiz-adv-x="917" unicode="&#x6f;"/><glyph d="M670 569q0 86-50.5 142.5t-141.5 56.5-146.5-56.5-55.5-140.5v-241q0-84 54.5-143.5t143.5-59.5 142.5 58.5 53.5 144.5v239zM836 330q0-144-94-244t-227-100-204 63q-16 14-25.5 7t-9.5-19v-387q0-20-18-21h-127q-18 0-18 19v1231q0 18 18 18h113q20 0 20-18v-43q0-12 10-11.5t30 18.5 72 41 130 23q147 0 238.5-87t91.5-249v-241z" glyph-name="p" horiz-adv-x="929" unicode="&#x70;"/><glyph d="M659 569q0 86-54 142.5t-140 56.5-142.5-55.5-56.5-141.5v-241q0-84 53.5-143.5t142.5-59.5 143 58.5 54 144.5v239zM825-371q0-20-18-20h-127q-20 0-21 18v410q0 10-8.5 18.5t-30.5-11.5q-63-58-166-58-178 0-265 97.5t-87 244.5v241q0 153 92.5 245.5t226.5 92.5 218-69q12-12 22.5-8t10.5 16v33q0 18 20 18h113q20 0 20-18v-1250z" glyph-name="q" horiz-adv-x="929" unicode="&#x71;"/><glyph d="M246 897q20 0 20-18v-97q0-10 7.5-13t15.5 7q35 49 96 91t125 42 74-6q26-6 18-31l-24-120q-7-26-32-21-26 6-54 6-115 0-160-66.5t-45-164.5v-486q0-20-19-20h-127q-20 0-20 18v859q0 20 18 20h107z" glyph-name="r" horiz-adv-x="604" unicode="&#x72;"/><glyph d="M727 256q0-119-87-192.5t-216-73.5q-273 0-354 200-6 16 8 23l104 47q14 6 25-10 67-127 209-127 66 0 109.5 33.5t43.5 81.5-34.5 75-88.5 47-203 72-149 223q0 119 91 185.5t218 66.5q185 4 302-121 14-14-7-34l-55-64q-20-23-54 8-81 74-188 74-68 0-107.5-27.5t-39.5-73.5 34-74 93-50.5 120.5-45 143.5-73.5 82-170z" glyph-name="s" horiz-adv-x="802" unicode="&#x73;"/><glyph d="M324 270q0-129 89-129 60 0 114 9.5t59-19.5l16-84q4-16 0-22.5t-39-21.5-160-15q-241 0-241 248v501q0 20-23 21h-84q-20 0-20 18v101q0 20 16 20h86q25 0 25 25v172q0 16 18 22l119 29q25 8 25-19v-208q0-20 20-21h188q20 0 21-18v-101q0-20-21-20h-186q-23 0-22-21v-467z" glyph-name="t" horiz-adv-x="624" unicode="&#x74;"/><glyph d="M821 20q0-20-20-20h-117q-20 0-20 18v31q0 14-10 17.5t-34-19.5-83.5-41-112.5-18q-154 0-240 92t-86 250v547q0 20 19 20h127q18 0 18-18v-549q0-86 49-143.5t143-57.5 147.5 56.5 53.5 144.5v547q0 20 19 20h127q20 0 20-18v-859z" glyph-name="u" horiz-adv-x="940" unicode="&#x75;"/><glyph d="M365 0q-29 0-37 23l-299 845q-10 29 16 29h113q35 0 41-25l139-423 68-232q4-10 9-10t9 8l63 221 140 430q4 10 11 20.5t28 10.5h116q29 0 19-27l-299-845q-7-25-37-25h-100z" glyph-name="v" horiz-adv-x="827" unicode="&#x76;"/><glyph d="M938 0h-92q-16 0-24.5 3t-12.5 20l-131 417-64 232q-8 14-12 0l-65-248-123-401q-6-23-37-23h-92q-31 0-37 27l-228 843q-10 29 17 29h127q29 0 35-27l135-620q2-8 7-8t7 8l78 274 104 340q8 33 37 33h92q10 0 20.5-4t16.5-27l125-405 60-211q2-6 7-7t7 7l39 197 92 421q10 29 37 29h121q25 0 18-27l-231-843q-8-29-33-29z" glyph-name="w" horiz-adv-x="1236" unicode="&#x77;"/><glyph d="M754 0h-125q-32 0-47 25l-174 297q-8 14-14.5 8t-10.5-11l-172-294q-16-25-47-25h-123q-16 0-19.5 9t5.5 20l256 407q14 23 12 34t-10 26l-232 370q-8 12-4 21.5t21 9.5h118q20 0 28.5-3t19.5-20l151-260q14-21 23 2l149 258q10 16 18.5 19.5t28.5 3.5h119q16 0 20.5-9t-4.5-22l-235-372q-12-20-8-30.5t8-19.5l262-415q8-10 5-19.5t-19-9.5z" glyph-name="x" horiz-adv-x="792" unicode="&#x78;"/><glyph d="M684 899h96q36 0 27-39l-395-1192q-4-14-19.5-28.5t-44.5-14.5h-76q-45 0-28 53l96 291q12 31-10 31h-21q-39 0-49 41l-225 821q-9 37 22 37h109q35 0 45-31l172-690q4-16 12-19t17 19l225 682q13 39 47 39z" glyph-name="y" horiz-adv-x="843" unicode="&#x79;"/><glyph d="M752 20q0-20-19-20h-627q-16 0-24 9t-8 20v55q0 36 14 53l397 592q10 12 4 21.5t-22 9.5h-352q-20 0-21 18v99q0 20 19 20h563q41 0 41-35v-57q0-29-12-53l-394-582q-16-31 19-31h401q20 0 21-20v-99z" glyph-name="z" horiz-adv-x="823" unicode="&#x7a;"/><glyph d="M78 598q0 23 12 28.5t54 25.5 80 65 38 121v264q0 164 79 230.5t226 66.5h31q20 0 20-21v-100q0-20-18-21h-25q-88 0-111.5-19t-29.5-47-6-73v-315q0-74-37-133.5t-100-96.5q-8-6-8.5-14t21.5-17q48-20 86-92.5t38-148.5v-330q0-89 23.5-110t52-25 71.5-4h25q18 0 18-20v-101q0-20-20-20h-31q-147 0-225 66.5t-78 230.5v291q0 142-135 192-29 10-40 17.5t-11 21.5v88z" glyph-name="braceleft" horiz-adv-x="692" unicode="&#x7b;"/><glyph d="M289-215q0-20-19-21h-80q-20 0-20 19v1583q0 18 20 18h78q20 0 21-16v-1583z" glyph-name="bar" horiz-adv-x="464" unicode="&#x7c;"/><glyph d="M610 514q0-16-11-25t-55-25-82-63-38-122v-291q0-164-78-230.5t-225-66.5h-31q-20 0-20 20v101q0 20 18 20h25q91 0 113 19.5t28 46 6 73.5v330q0 117 51 174t80 70 6 28q-63 37-100 96.5t-37 133.5v315q0 91-29.5 115t-117.5 24h-25q-18 0-18 21v100q0 20 20 21h31q147 0 226-66.5t79-230.5v-264q0-76 38-121t80-65 54-25.5 12-28.5v-84z" glyph-name="braceright" horiz-adv-x="692" unicode="&#x7d;"/><glyph d="M700 479q-68 0-132 27.5t-150 67.5-138 40q-51 0-87.5-23.5t-77.5-70.5q-6-6-13-6l-6 2-69 66q-15 15 0 28 110 144 239 144 92 0 225.5-63.5t190.5-63.5 89.5 25.5 54.5 47.5 30 21.5 14-6.5l68-53q12-10 12-16.5t-8-18.5q-112-148-242-148z" glyph-name="asciitilde" horiz-adv-x="972" unicode="&#x7e;"/><glyph d="M172 787q0 46 32 78t79 32 79.5-31.5 32.5-77-32.5-77-78.5-31.5-79 30.5-33 76.5zM315 547q18 0 19-17l39-897q0-20-21-20h-137q-20 0-20 18l30 897q0 18 19 19h71z" glyph-name="exclamdown" horiz-adv-x="538" unicode="&#xa1;"/><glyph d="M487-145q-20 0-20 18v90q0 23-31 31-131 23-206.5 108.5t-75.5 223.5v235q0 143 81.5 232.5t208.5 109.5q6 2 14.5 5t8.5 26v92q0 18 20 18h64q20 0 20-18v-96q0-23 49.5-32.5t106.5-48 104-99.5q8-10 6.5-23.5t-14.5-21.5l-78-56q-27-18-55 23-64 96-161 96t-154.5-54.5-57.5-140.5v-254q0-84 57.5-136t149.5-52 130 47 57 72q10 12 30-2l80-51q36-21 17-45-87-130-232-156-10-2-22.5-3t-12.5-30v-88q0-20-20-20h-64z" glyph-name="cent" horiz-adv-x="972" unicode="&#xa2;"/><glyph d="M358 733q0-20 21-20h223q20 0 21-21v-102q0-18-21-19h-221q-23 0-23-22v-123q0-86-6-152.5t-37-115.5q-6-16 9-17h497q20 0 21-18v-103q0-20-19-20h-735q-18 0-18 18v103q0 16 28 23 96 24 95 192v213q0 20-21 20h-80q-18 0-18 21v102q0 18 18 19h78q23 0 23 22v178q0 159 103.5 264t260.5 105q98 0 192.5-39t145.5-127q12-23-8-35l-90-57q-29-18-41 6-65 111-195 111-86 0-144.5-54.5t-58.5-140.5v-211z" glyph-name="sterling" horiz-adv-x="972" unicode="&#xa3;"/><glyph d="M295 498q0-43 16.5-81t45-65.5 66.5-44 81-16.5 81 16.5 65.5 44 44 65.5 16.5 81-16.5 80.5-44 66.5-65.5 45.5-81 16.5-81-16.5-66.5-45.5-45-66.5-16.5-80.5zM502 154q-100 0-187 67l-106-108q-12-16-27-2l-69 67q-14 12 0 27l108 114q-59 82-59 180 0 99 57 185l-94 104q-6 10-8 14.5t8 14.5l68 66q14 14 26 2l94-105q83 58 185 58t184-58l113 107q4 8 13 9t15-9l66-66q14-16 2-28l-109-105q62-84 62-190t-60-189l103-98q14-14 2-27l-70-69q-14-14-26 0l-105 100q-86-61-186-61z" glyph-name="currency" horiz-adv-x="1007" unicode="&#xa4;"/><glyph d="M111 623q-20 0-21 18v76q0 20 21 20h159q10 0 12.5 8.5t-1.5 12.5l-205 475q-16 31 16 31h121q16 0 23.5-3.5t15.5-19.5l127-293 96-243q14-29 27-3l102 256 119 279q8 16 15 21.5t28 5.5h108q18 0 21.5-9.5t-2.5-19.5l-209-481q-8-16 12-17h189q18 0 18-18v-76q0-20-18-20h-774zM401 383q0 27-26 27h-264q-20 0-21 20v76q0 18 21 18h774q18 0 18-18v-76q0-10-7-14t-11-4h-301q-19 0-19-27v-365q0-20-20-20h-123q-20 0-21 18v365z" glyph-name="yen" horiz-adv-x="972" unicode="&#xa5;"/><glyph d="M190-236q-20 0-20 19l2 725q0 18 21 18h77q20 0 21-16l-2-727q-4-18-19-19h-80zM190 616q-20 0-20 19v731q0 18 20 18h78q20 0 21-16v-733q-4-18-19-19h-80z" glyph-name="brokenbar" horiz-adv-x="464" unicode="&#xa6;"/><glyph d="M125 2q0 8 12 21l68 63q10 10 22 10t38-28 90.5-56 114.5-28q98 0 157 30t59 90q0 61-68.5 96.5t-151.5 62.5q-314 102-314 272 0 88 46 143t126 92q12 4 16 4 14 0 22-18l29-64q6-12 6-22-1-10-27-24t-46.5-41-20.5-50q0-47 44.5-79t130.5-62q191-65 278.5-127t87.5-180-105.5-187.5-273.5-69.5q-88 0-181.5 36t-152.5 102q-6 6-6 14zM821 670q0-74-51-137.5t-127-86.5q-12 0-18 15l-35 80q-4 8-4 12 0 12 22 22t41 35 19 60q0 61-54 95.5t-141 64.5q-87 31-203 81t-116 203q0 107 88 177.5t263 70.5 288-125q6-6 6-14t-13-21l-59-63q-23-23-55 11-31 34-81.5 56.5t-122.5 22.5-116.5-32-44.5-79 41.5-78.5 129.5-62.5 148-55.5 103-57.5 67.5-76.5 24.5-117.5z" glyph-name="section" horiz-adv-x="925" unicode="&#xa7;"/><glyph d="M379 1116q0-41-27.5-68.5t-68.5-27.5-69 27.5-28 68.5 28 68.5 69 27.5 68.5-27.5 27.5-68.5zM711 1116q0-41-27-68.5t-68-27.5-69.5 27.5-28.5 68.5 27.5 68.5 68.5 27.5 69-27.5 28-68.5z" glyph-name="dieresis" horiz-adv-x="931" unicode="&#xa8;"/><glyph d="M1245 778q0 179-138 292.5t-381.5 113.5-377-115.5-133.5-290.5v-293q0-172 132-289.5t377.5-117.5 383 116.5 137.5 290.5v293zM125 489v283q0 225 168 358.5t436 133.5 437-130 169-362v-283q0-230-169-359.5t-438-129.5-436 132.5-167 356.5zM741 885q-59 0-97-38t-38-97v-256q0-59 37-97.5t87-38.5q82 0 134 68 11 22 31 6l61-41q8-8 0-20-80-109-203-109t-190 58.5-67 171.5v256q0 109 68.5 170t161.5 61 146.5-26 88.5-85q8-14-7-22l-59-39q-20-10-29 4-41 74-125 74z" glyph-name="copyright" horiz-adv-x="1447" unicode="&#xa9;"/><glyph d="M383 694q0 41-29.5 69t-75.5 28-75-28-29-69 29-70.5 77-29.5 75.5 29.5 27.5 70.5zM391 879q0 82-90 82t-154-31q-18-9-30 14l-21 49q-14 25 13 39 89 41 201 41 216 0 216-209v-342q0-14-3-20t-19-6h-76q-16 0-19 6t-3 16v14q0 10-13 3-20-16-57-31t-68-15q-109 0-167 53.5t-58 149.5 64.5 150.5 148.5 54.5 125-35q8-4 10 6v11z" glyph-name="ordfeminine" horiz-adv-x="598" unicode="&#xaa;"/><glyph d="M516 41h-98q-23 0-37 8t-33 31l-231 291q-20 27-18.5 45t18.5 41l235 297q12 14 24.5 23t39.5 9h100q46 0 19-36l-252-318q-12-14-11.5-21.5t11.5-17.5l247-311q12-16 6-28.5t-20-12.5zM881 41h-97q-38 0-69 39l-232 291q-23 27-20.5 45t18.5 41l238 297q23 32 63 32h99q47 0 20-36l-254-318q-12-14-10-21.5t10-17.5l250-311q12-16 6-28.5t-22-12.5z" glyph-name="guillemotleft" horiz-adv-x="980" unicode="&#xab;"/><glyph d="M891 117q0-29-29-29h-84q-31 0-30 29v299q0 10-9 10h-626q-31 0-31 29v65q0 31 31 31h747q31 0 31-31v-403z" glyph-name="logicalnot" horiz-adv-x="972" unicode="&#xac;"/><glyph d="M567 440q0-20-18-20h-418q-20 0-20 20v95q0 20 18 20h418q20 0 20-18v-97z" glyph-name="sfthyphen" horiz-adv-x="696" unicode="&#xad;"/><glyph d="M686 1053q0 90-68.5 150.5t-198.5 60.5-201-60.5-71-150.5v-158q0-141 100.5-176t167.5-35q128 0 199.5 61t71.5 150v158zM176 703q-90 74-90 196v152q0 120 89.5 195t237.5 75 242.5-72 94.5-198v-152q0-125-92.5-197.5t-241.5-72.5q-150 0-240 74zM485 1050.5q0 22.5-15 37t-38 14.5h-47q-12 0-12-10v-88q0-8 10-9h43q23 0 41 16.5t18 39zM432 1161q57 0 88-28.5t31-67.5q0-67-55-104-12-8-7-21l64-133q4-8 4-16.5t-16-8.5h-35q-16 0-23 15l-57 133q-4 8-18 8h-23q-12 0-12-10v-129q0-16-15-17h-36q-16 0-17 15v348q0 16 17 16h110z" glyph-name="registered" horiz-adv-x="837" unicode="&#xae;"/><glyph d="M694 1075q0-20-18-20h-436q-20 0-21 20v84q0 20 19 21h436q20 0 20-19v-86z" glyph-name="macron" horiz-adv-x="897" unicode="&#xaf;"/><glyph d="M302 1204q-56 0-94-39t-38-93 36-95 90-41 94 40 40 94-36 94-92 40zM307 1298q109 0 172.5-64.5t63.5-160.5-74-162.5-171.5-66.5-167 64-69.5 161 68.5 163 177.5 66z" glyph-name="degree" horiz-adv-x="620" unicode="&#xb0;"/><glyph d="M891 113q0-31-31-31h-747q-31 0-31 29v65q0 31 31 31h747q31 0 31-31v-63zM891 682q0-31-31-31h-301q-10 0-10-8v-301q0-29-29-29h-69q-31 0-31 29v299q0 10-8 10h-299q-31 0-31 29v65q0 31 31 31h297q10 0 10 8v299q0 31 29 31h69q31 0 31-31v-297q0-10 10-10h301q31 0 31-31v-63z" glyph-name="plusminus" horiz-adv-x="972" unicode="&#xb1;"/><glyph d="M539 696q0-25-23-24h-448q-18 0-24.5 5t-6.5 21v45q0 27 16 50l299 362q39 47 39 90t-29.5 72-72.5 29-74-20-44-38-20.5-22-19.5 6l-59 45q-20 12-2 35 78 104 203 104t188-54 63-136-73-179l-228-280q-6-8-4-13.5t8-5.5h289q8 0 15.5-6t7.5-16v-70z" glyph-name="twosuperior" horiz-adv-x="632" unicode="&#xb2;"/><glyph d="M528 891q0-109-67.5-168t-159.5-59-147.5 24.5-90.5 89.5q-4 8-4 18.5t17 18.5l49 31q27 16 47-6 44-64 100-64t89.5 29 33.5 74v59q0 41-31.5 71.5t-78.5 30.5h-80q-18 0-23.5 4.5t-5.5 16.5v61q0 16 5 21.5t22 5.5h82q47 0 76.5 25.5t29.5 70.5-30.5 71.5-72.5 26.5q-72 0-110-51-26-32-49-18l-55 35q-23 15-4 45 67 102 213 102 111 0 176-58t65-154-82-152q-4-4 0-7 41-23 63.5-62.5t22.5-80.5v-51z" glyph-name="threesuperior" horiz-adv-x="632" unicode="&#xb3;"/><glyph d="M477 1004q-18-24-43-9l-39 25q-18 14-6 37l154 260q6 10 15 19t26-1l90-59q25-19 6-45z" glyph-name="acute" horiz-adv-x="897" unicode="&#xb4;"/><glyph d="M836 18q0-18-19-18h-117q-20 0-20 18v31q0 14-10 16.5t-30-15.5-66-40-125-22q-78 1-134 45-18 14-27 5t-9-20v-368q0-20-19-21h-125q-20 0-22 19v1229q0 18 20 18h125q18 0 18-18v-555q0-78 57.5-135.5t142.5-57.5 139.5 55.5 54.5 137.5v555q0 18 20 18h125q20 0 21-18v-859z" glyph-name="mu" horiz-adv-x="970" unicode="&#xb5;"/><glyph d="M836 18q0-18-19-18h-117q-20 0-20 18v31q0 14-10 16.5t-30-15.5-66-40-125-22q-78 1-134 45-18 14-27 5t-9-20v-368q0-20-19-21h-125q-20 0-22 19v1229q0 18 20 18h125q18 0 18-18v-555q0-78 57.5-135.5t142.5-57.5 139.5 55.5 54.5 137.5v555q0 18 20 18h125q20 0 21-18v-859z" glyph-name="mu" horiz-adv-x="970" unicode="&#x3bc;"/><glyph d="M817 180q0-253-125-303.5t-177-53.5-57 0-7 15l-9 74q-4 23 17 27 190 21 208.5 100.5t18.5 128.5v1118q0 18 21 19h90q20 0 20-19v-1106zM393 645q-143 0-237.5 94.5t-94.5 232.5 97 235.5 235 97.5h178q18 0 19-19v-622q0-18-19-19h-178z" glyph-name="paragraph" horiz-adv-x="919" unicode="&#xb6;"/><glyph d="M330 474q0-44-33-76.5t-79-32.5-77.5 31.5-31.5 76.5 31.5 78 76.5 33 79-33 34-77z" glyph-name="periodcentered" horiz-adv-x="436" unicode="&#xb7;"/><glyph d="M643-252q0-66-50.5-115t-120.5-49-107 11.5-72 33.5q-16 12-2 31l33 43q12 12 30 3 58-30 98-30t62.5 18 22.5 36q0 78-78 77h-56q-39 0-53 23.5t-5 59.5q24 99 35 127t23 28h62q18 0 10-30-20-72-26-95t16-22h22q72 0 114-42t42-108z" glyph-name="cedilla" horiz-adv-x="835" unicode="&#xb8;"/><glyph d="M369 698q0-29-29-28h-80q-29 0-29 26v576q0 10-6 6l-88-47q-18-10-34.5-6t-16.5 22v66q0 29 23 41l153 84q16 10 31 10h45q23 0 27-9t4-26v-715z" glyph-name="onesuperior" horiz-adv-x="524" unicode="&#xb9;"/><glyph d="M422 854q0 45-32 74.5t-84 29.5-84-29.5-32-74.5v-143q0-47 31-79t84-32 84 32 33 79v143zM555 713q0-109-66.5-166.5t-182.5-57.5-182.5 57.5-66.5 164.5v143q0 100 68 159.5t180.5 59.5 181-57.5 68.5-161.5v-141z" glyph-name="ordmasculine" horiz-adv-x="612" unicode="&#xba;"/><glyph d="M215 37h-96q-16 0-22.5 12t5.5 29l250 309q8 10 10.5 17.5t-10.5 23.5l-254 317q-12 14-7 25.5t28 11.5h98q29 0 41-9t23-23l237-299q35-44-2-86l-231-289q-31-39-70-39zM483 37q-14 0-20 12t6 29l250 309q14 18 0 41l-254 317q-12 14-8 25.5t26 11.5h101q27 0 39-9t24-23l236-299q34-42 0-86l-232-289q-31-39-69-39h-99z" glyph-name="guillemotright" horiz-adv-x="980" unicode="&#xbb;"/><glyph d="M1024 279q14 0 14 16v178q0 12 13 12h98q14 0 14-12v-176q0-10 2-14t13-4h84q14 0 14-13v-82q0-12-14-12h-80q-18 0-19-16v-144q0-12-14-12h-98q-12 0-13 12v144q0 16-18 16h-301q-14 0-14 12v35q0 34 12 55l262 500q4 4 14 4h101q8 0 12-5t0-13l-240-467q-2-4-2-9t13-5h147zM340-61q-18 0-10 18l569 1352q8 16 27 16h61q18 0 20.5-6t-1.5-19l-568-1347q-6-14-24-14h-74zM438 514q0-29-28-29h-80q-29 0-29 27v575q0 10-6 7l-88-47q-18-10-34.5-6.5t-16.5 22.5v65q0 28 22 41l154 84q16 10 30 11h46q23 0 26.5-9.5t3.5-25.5v-715z" glyph-name="onequarter" horiz-adv-x="1433" unicode="&#xbc;"/><glyph d="M1296 25q0-25-22-25h-449q-18 0-24 5t-6 22v45q0 26 16 49l299 362q39 47 39 90t-29.5 72-73.5 29-74-20-43-38-20.5-22-19.5 6l-60 45q-20 12-2 35 78 104 203 104t188.5-54 63.5-148q0-41-25.5-89.5t-48.5-76.5l-227-281q-6-8-4-13t8-5h289q8 0 15-6.5t7-16.5v-69zM326-61q-18 0-11 18l570 1352q8 16 26 16h62q18 0 20-6t-2-19l-567-1347q-6-14-25-14h-73zM418 514q0-29-29-29h-80q-29 0-28 27v575q0 10-7 7l-88-47q-18-10-34.5-6.5t-16.5 22.5v65q0 29 23 41l153 84q16 10 31 11h45q23 0 27-9.5t4-25.5v-715z" glyph-name="onehalf" horiz-adv-x="1433" unicode="&#xbd;"/><glyph d="M375-61q-18 0-10 18l569 1352q8 16 27 16h61q18 0 20-6t-2-19l-567-1347q-6-14-24-14h-74zM543 707q0-109-67.5-168.5t-159.5-59.5-147.5 24.5-90.5 90.5q-4 8-4 18.5t16 18.5l49 31q27 16 47-7 44-63 100-63t90 28.5 34 73.5v60q0 41-32 71.5t-79 30.5h-80q-18 0-23.5 4t-5.5 17v61q0 16 5.5 21.5t21.5 5.5h82q47 0 77 25.5t30 70.5-31 71.5-73 26.5q-72 0-109-51-27-33-50-18l-55 34q-23 14-4 45 68 103 213 103 111 0 176.5-57.5t65.5-153.5-82-154q-4-4 0-6 41-23 63.5-62.5t22.5-80.5v-51zM1065 279q14 0 14 16v178q0 12 13 12h98q14 0 14-12v-176q0-10 2-14t13-4h84q14 0 14-13v-82q0-12-14-12h-80q-18 0-19-16v-144q0-12-14-12h-98q-12 0-13 12v144q0 16-18 16h-301q-14 0-15 12v35q0 32 13 55l262 500q4 4 14 4h101q8 0 12-5t0-13l-240-467q-2-4-2-9t13-5h147z" glyph-name="threequarters" horiz-adv-x="1433" unicode="&#xbe;"/><glyph d="M530 787q0 46 32 78t79 32 80-31.5 33-77-33-77-79-31.5-79 30.5-33 76.5zM172-70q0 90 56.5 172t148.5 138 136 109.5 44 131.5v43q0 29 18 29h119q16 0 22.5-5t6.5-26v-69q0-78-43-156t-129-136-144.5-109.5-65.5-123.5 48-133 134-61 120 28.5 68 67.5q4 4 14 24t39 1l90-58q12-8 12-16t-4-19q-53-88-138-129t-172-41-153.5 20.5-117 62.5-80 103.5-29.5 151.5z" glyph-name="questiondown" horiz-adv-x="1005" unicode="&#xbf;"/><glyph d="M162 1458q-33 13-10 41l61 90q19 19 45-2l238-188q20-16 6-37l-27-37q-15-19-43-8zM319 430h283q10 0 12 3t0 13l-90 369-57 258q-2 6-5 6t-5-4l-56-252-92-377q-2-10-1-13t11-3zM750 0q-27 0-29 14l-68 267q-4 8-8 8h-362q-8 0-9.5-2t-3.5-4l-65-269q-2-14-27-14h-110q-34 0-27 31l303 1208q5 25 33 25h174q25 0 31-21l311-1208q14-35-19-35h-124z" glyph-name="Agrave" horiz-adv-x="935" unicode="&#xc0;"/><glyph d="M475 1323q-28-11-43 8l-26 37q-16 20 6 37l237 188q27 22 45 2l62-90q22-29-11-41zM319 430h283q10 0 12 3t0 13l-90 369-57 258q-2 6-5 6t-5-4l-56-252-92-377q-2-10-1-13t11-3zM750 0q-27 0-29 14l-68 267q-4 8-8 8h-362q-8 0-9.5-2t-3.5-4l-65-269q-2-14-27-14h-110q-34 0-27 31l303 1208q5 25 33 25h174q25 0 31-21l311-1208q14-35-19-35h-124z" glyph-name="Aacute" horiz-adv-x="935" unicode="&#xc1;"/><glyph d="M414 1604h65q26 0 45-19l197-203q23-18-2-34l-29-21q-22-16-45 2l-180 125q-14 14-31 0l-186-125q-25-16-45-2l-29 21q-25 16-2 34l197 203q19 19 45 19zM319 430h283q10 0 12 3t0 13l-90 369-57 258q-2 6-5 6t-5-4l-56-252-92-377q-2-10-1-13t11-3zM750 0q-27 0-29 14l-68 267q-4 8-8 8h-362q-8 0-9.5-2t-3.5-4l-65-269q-2-14-27-14h-110q-34 0-27 31l303 1208q5 25 33 25h174q25 0 31-21l311-1208q14-35-19-35h-124z" glyph-name="Acircumflex" horiz-adv-x="935" unicode="&#xc2;"/><glyph d="M444.5 1373q-73.5 36-96.5 36-42 0-82-63-12-20-35-9l-55 33q-15 6 5 45t61 78 82 39 70.5-12.5 57-25.5 54-25.5 54.5-12.5 69 68q10 15 22 8l66-31q18-6 6-35-33-70-77-99.5t-86-29.5-115.5 36zM319 430h283q10 0 12 3t0 13l-90 369-57 258q-2 6-5 6t-5-4l-56-252-92-377q-2-10-1-13t11-3zM750 0q-27 0-29 14l-68 267q-4 8-8 8h-362q-8 0-9.5-2t-3.5-4l-65-269q-2-14-27-14h-110q-34 0-27 31l303 1208q5 25 33 25h174q25 0 31-21l311-1208q14-35-19-35h-124z" glyph-name="Atilde" horiz-adv-x="935" unicode="&#xc3;"/><glyph d="M379 1434q0-41-27.5-69t-68.5-28-69 28-28 69 28 68.5 69 27.5 68.5-27.5 27.5-68.5zM711 1434q0-41-27-69t-68-28-69.5 28-28.5 69 27.5 68.5 68.5 27.5 69-27.5 28-68.5zM319 430h283q10 0 12 3t0 13l-90 369-57 258q-2 6-5 6t-5-4l-56-252-92-377q-2-10-1-13t11-3zM750 0q-27 0-29 14l-68 267q-4 8-8 8h-362q-8 0-9.5-2t-3.5-4l-65-269q-2-14-27-14h-110q-34 0-27 31l303 1208q5 25 33 25h174q25 0 31-21l311-1208q14-35-19-35h-124z" glyph-name="Adieresis" horiz-adv-x="935" unicode="&#xc4;"/><glyph d="M535 1472q0 36-27 63.5t-61.5 27.5-59.5-27-25-63.5 25-62.5 59.5-26 61.5 26 27 62zM623 1475q0-112-70-143.5t-106.5-31.5-68.5 13.5-55.5 36-38 54.5-14.5 85 52 105.5 124 52.5 124.5-50 52.5-122zM319 430h283q10 0 12 3t0 13l-90 369-57 258q-2 6-5 6t-5-4l-56-252-92-377q-2-10-1-13t11-3zM750 0q-27 0-29 14l-68 267q-4 8-8 8h-362q-8 0-9.5-2t-3.5-4l-65-269q-2-14-27-14h-110q-34 0-27 31l303 1208q5 25 33 25h174q25 0 31-21l311-1208q14-35-19-35h-124z" glyph-name="Aring" horiz-adv-x="935" unicode="&#xc5;"/><glyph d="M616 1116q-16 0-24-18l-221-625q-6-14 8-14h313q23 0 23 24v617q0 16-19 16h-80zM1432 25q0-25-25-25h-668q-25 0-24 23v258q0 10-3 18t-20 8h-370q-9 0-13-8l-98-279q-8-20-29-20h-114q-33 0-23 39l444 1196q14 29 46 29h864q27 0 26-23v-100q0-25-24-25h-496q-18 0-18-16v-361q0-16 16-16h410q25 0 24-25v-102q0-23-22-23h-410q-18 0-18-18v-387q0-18 16-18h504q25 0 25-23v-102z" glyph-name="AE" horiz-adv-x="1492" unicode="&#xc6;"/><glyph d="M610-260q0 67-78 67h-55q-39 0-53 23.5t-6 55.5 14 56.5 14 49.5q-143 14-235 101t-92 241v598q0 158 103 253t270 95q94 0 182-30.5t166-121.5q10-12 10-21t-16-24l-78-65q-8-8-21.5-5t-21.5 13q-83 104-237 104-80 0-132.5-55t-52.5-143v-596q0-86 57.5-142.5t137.5-56.5q128 0 227 99 10 12 20 19t27-5l82-68q15-10 4-32-109-143-303-160l-19-70q-8-23 15-22h22q72 0 114-42t42-108-50.5-115-120.5-49-107.5 11.5-71.5 33.5q-16 12-2 31l32 43q12 12 30 3 60-30 99-30t61.5 17.5 22.5 46.5z" glyph-name="Ccedilla" horiz-adv-x="880" unicode="&#xc7;"/><glyph d="M209 1458q-33 13-10 41l61 90q19 19 45-2l238-188q20-16 6-37l-27-37q-15-19-43-8zM840 25q0-25-25-25h-668q-25 0-24 23v1218q0 23 24 23h660q27 0 27-23v-100q0-25-25-25h-498q-16 0-16-16v-350q0-16 14-17h412q25 0 24-24v-103q0-23-22-22h-412q-16 0-16-19v-397q0-18 14-18h506q25 0 25-23v-102z" glyph-name="Egrave" horiz-adv-x="901" unicode="&#xc8;"/><glyph d="M420 1323q-28-11-43 8l-27 37q-16 20 6 37l238 188q27 22 45 2l61-90q21-28-10-41zM840 25q0-25-25-25h-668q-25 0-24 23v1218q0 23 24 23h660q27 0 27-23v-100q0-25-25-25h-498q-16 0-16-16v-350q0-16 14-17h412q25 0 24-24v-103q0-23-22-22h-412q-16 0-16-19v-397q0-18 14-18h506q25 0 25-23v-102z" glyph-name="Eacute" horiz-adv-x="901" unicode="&#xc9;"/><glyph d="M426 1604h66q24 0 45-19l196-203q23-18-2-34l-29-21q-21-15-45 2l-180 125q-14 14-31 0l-186-125q-25-16-45-2l-29 21q-25 16-2 34l197 203q19 19 45 19zM840 25q0-25-25-25h-668q-25 0-24 23v1218q0 23 24 23h660q27 0 27-23v-100q0-25-25-25h-498q-16 0-16-16v-350q0-16 14-17h412q25 0 24-24v-103q0-23-22-22h-412q-16 0-16-19v-397q0-18 14-18h506q25 0 25-23v-102z" glyph-name="Ecircumflex" horiz-adv-x="901" unicode="&#xca;"/><glyph d="M393 1434q0-41-27.5-69t-68.5-28-68.5 28-27.5 69 27.5 68.5 68.5 27.5 68.5-27.5 27.5-68.5zM725 1434q0-41-26.5-69t-67.5-28-70 28-29 69 28 68.5 69 27.5 68.5-27.5 27.5-68.5zM840 25q0-25-25-25h-668q-25 0-24 23v1218q0 23 24 23h660q27 0 27-23v-100q0-25-25-25h-498q-16 0-16-16v-350q0-16 14-17h412q25 0 24-24v-103q0-23-22-22h-412q-16 0-16-19v-397q0-18 14-18h506q25 0 25-23v-102z" glyph-name="Edieresis" horiz-adv-x="901" unicode="&#xcb;"/><glyph d="M-66 1458q-31 13-10 41l62 90q18 18 45-2l237-188q20-16 6-37l-26-37q-15-19-43-8zM332 25q0-25-25-25h-127q-25 0-24 23v1218q0 23 24 23h127q25 0 25-21v-1218z" glyph-name="Igrave" horiz-adv-x="493" unicode="&#xcc;"/><glyph d="M258 1323q-28-11-43 8l-27 37q-16 20 7 37l237 188q27 22 45 2l62-90q22-29-11-41zM332 25q0-25-25-25h-127q-25 0-24 23v1218q0 23 24 23h127q25 0 25-21v-1218z" glyph-name="Iacute" horiz-adv-x="493" unicode="&#xcd;"/><glyph d="M209 1620h65q27 0 45-18l197-203q23-18-2-35l-29-21q-22-16-45 3l-180 124q-14 14-31 0l-186-124q-25-17-45-3l-29 21q-25 16-2 35l197 203q18 18 45 18zM332 25q0-25-25-25h-127q-25 0-24 23v1218q0 23 24 23h127q25 0 25-21v-1218z" glyph-name="Icircumflex" horiz-adv-x="493" unicode="&#xce;"/><glyph d="M174 1434q0-41-27.5-69t-68.5-28-68.5 28-27.5 69 27.5 68.5 68.5 27.5 68.5-27.5 27.5-68.5zM506 1434q0-41-26.5-69t-67.5-28-70 28-29 69 28 68.5 69 27.5 68.5-27.5 27.5-68.5zM332 25q0-25-25-25h-127q-25 0-24 23v1218q0 23 24 23h127q25 0 25-21v-1218z" glyph-name="Idieresis" horiz-adv-x="493" unicode="&#xcf;"/><glyph d="M295 727q0-20 18-20h144q25 0 24-23v-76q0-25-22-24h-148q-16 0-16-19v-397q0-18 16-18h195q100 0 151.5 54t51.5 150v559q0 106-60.5 154.5t-156.5 48.5h-179q-18 0-18-16v-373zM125 1241q0 23 25 23h352q184 0 281.5-96.5t97.5-272.5v-514q0-190-99.5-285.5t-279.5-95.5h-352q-25 0-25 23v542q0 18-16 19h-66q-25 0-25 24v74q0 25 23 25h68q16 0 16 18v516z" glyph-name="Eth" horiz-adv-x="995" unicode="&#xd0;"/><glyph d="M524.5 1365q-73.5 36-96.5 36-46 0-82-64-12-20-35-8l-55 33q-14 6-2 33 68 129 160 129 37 0 91-25.5t80.5-38 54.5-12.5 69 68q10 15 22 8l66-31q18-6 6-35-33-70-77-99.5t-86-29.5-115.5 36zM242 1264q25 0 35-9.5t20-23.5l477-879q6-12 6-2v891q0 23 23 23h115q25 0 24-21v-1202q0-27-13.5-34t-25.5-7h-78q-38 0-53 31l-477 876q-6 6-6 0v-882q0-25-23-25h-116q-25 0-25 23v1189q0 27 7 39.5t36 12.5h74z" glyph-name="Ntilde" horiz-adv-x="1062" unicode="&#xd1;"/><glyph d="M252 1475q-32 13-10 41l61 90q19 19 45-2l238-189q20-16 6-37l-27-37q-15-19-43-8zM727 928q0 88-59.5 145t-158.5 57-158.5-58-59.5-144v-586q0-92 55.5-148.5t159.5-56.5 162.5 56.5 58.5 148.5v586zM899 338q0-162-109.5-256t-279.5-94-280.5 91-110.5 259v594q0 159 110.5 253.5t277.5 94.5 279.5-91 112.5-257v-594z" glyph-name="Ograve" horiz-adv-x="1017" unicode="&#xd2;"/><glyph d="M508 1337q-28-11-43 9l-27 36q-16 20 6 37l238 189q26 21 45 2l61-90q21-28-10-41zM727 928q0 88-59.5 145t-158.5 57-158.5-58-59.5-144v-586q0-92 55.5-148.5t159.5-56.5 162.5 56.5 58.5 148.5v586zM899 338q0-162-109.5-256t-279.5-94-280.5 91-110.5 259v594q0 159 110.5 253.5t277.5 94.5 279.5-91 112.5-257v-594z" glyph-name="Oacute" horiz-adv-x="1017" unicode="&#xd3;"/><glyph d="M487 1604h66q26 0 45-19l197-203q23-18-2-34l-29-21q-22-16-45 2l-180 125q-14 14-31 0l-186-125q-24-16-46-2l-28 21q-25 16-2 34l196 203q19 19 45 19zM727 928q0 88-59.5 145t-158.5 57-158.5-58-59.5-144v-586q0-92 55.5-148.5t159.5-56.5 162.5 56.5 58.5 148.5v586zM899 338q0-162-109.5-256t-279.5-94-280.5 91-110.5 259v594q0 159 110.5 253.5t277.5 94.5 279.5-91 112.5-257v-594z" glyph-name="Ocircumflex" horiz-adv-x="1017" unicode="&#xd4;"/><glyph d="M501.5 1385.5q-69.5 35.5-95.5 35.5-46 0-82-63-12-20-35-8l-56 32q-15 6 5 45t61 78 82 39 70.5-12 83.5-38 83.5-26 67.5 68q10 15 23 8l65-31q18-5 6-34-33-70-77-99.5t-88-29.5-113.5 35.5zM727 928q0 88-59.5 145t-158.5 57-158.5-58-59.5-144v-586q0-92 55.5-148.5t159.5-56.5 162.5 56.5 58.5 148.5v586zM899 338q0-162-109.5-256t-279.5-94-280.5 91-110.5 259v594q0 159 110.5 253.5t277.5 94.5 279.5-91 112.5-257v-594z" glyph-name="Otilde" horiz-adv-x="1017" unicode="&#xd5;"/><glyph d="M438 1434q0-41-27.5-69t-68.5-28-68.5 28-27.5 69 27.5 68.5 68.5 27.5 68.5-27.5 27.5-68.5zM770 1434q0-41-26.5-69t-67.5-28-69.5 28-28.5 69 27.5 68.5 68.5 27.5 68.5-27.5 27.5-68.5zM727 928q0 88-59.5 145t-158.5 57-158.5-58-59.5-144v-586q0-92 55.5-148.5t159.5-56.5 162.5 56.5 58.5 148.5v586zM899 338q0-162-109.5-256t-279.5-94-280.5 91-110.5 259v594q0 159 110.5 253.5t277.5 94.5 279.5-91 112.5-257v-594z" glyph-name="Odieresis" horiz-adv-x="1017" unicode="&#xd6;"/><glyph d="M795 135q-23-23-45 0l-256 256q-8 8-13 2l-256-256q-23-18-41 0l-49 49q-23 20-2 41l256 256q6 6 0 13l-254 256q-23 20-2 41l47 47q20 20 43 0l254-254q6-6 12-2l256 256q20 20 41 2l50-51q20-23 0-43l-254-252q-6-8 0-17l258-256q20-23 0-43z" glyph-name="multiply" horiz-adv-x="972" unicode="&#xd7;"/><glyph d="M291 365q0-4 2-8.5t6 3.5l367 682q12 24-2 35-58 53-156 53t-157.5-58-59.5-144v-563zM727 913q0 4-1 5.5t-1-.5l-379-705q-6-10 2-23 58-53 160-53t160.5 56.5 58.5 148.5v571zM119 338v594q0 159 110.5 253.5t260.5 94.5q151 0 249-57 10-8 23 4 6 12 15 26.5t17 28.5 26 6q17-8 32.5-17t33.5-17 7-28q-10-20-32.5-54.5t-14.5-51.5q53-85 53-188v-594q0-162-109.5-256t-267.5-94-246 57q-15 15-22-2l-27-49q-14-20-28-10l-66 34q-14 8-4 29l39 72q6 16 2 26-51 78-51 193z" glyph-name="Oslash" horiz-adv-x="1017" unicode="&#xd8;"/><glyph d="M262 1458q-31 13-10 41l61 90q19 19 45-2l238-188q20-16 6-37l-27-37q-15-18-43-8zM901 328q0-159-114.5-249.5t-278-90.5-276.5 91-113 249v913q0 23 22 23h127q23 0 23-21v-915q0-84 62.5-137.5t159.5-53.5 156.5 55.5 59.5 141.5v907q0 23 25 23h123q25 0 24-21v-915z" glyph-name="Ugrave" horiz-adv-x="1019" unicode="&#xd9;"/><glyph d="M502 1323q-28-11-43 8l-27 37q-16 20 6 37l238 188q27 22 45 2l61-90q21-28-10-41zM901 328q0-159-114.5-249.5t-278-90.5-276.5 91-113 249v913q0 23 22 23h127q23 0 23-21v-915q0-84 62.5-137.5t159.5-53.5 156.5 55.5 59.5 141.5v907q0 23 25 23h123q25 0 24-21v-915z" glyph-name="Uacute" horiz-adv-x="1019" unicode="&#xda;"/><glyph d="M483 1604h66q26 0 45-19l197-203q23-18-3-34l-28-21q-22-16-45 2l-180 125q-14 14-31 0l-187-125q-24-16-45-2l-28 21q-25 16-2 34l196 203q19 19 45 19zM901 328q0-159-114.5-249.5t-278-90.5-276.5 91-113 249v913q0 23 22 23h127q23 0 23-21v-915q0-84 62.5-137.5t159.5-53.5 156.5 55.5 59.5 141.5v907q0 23 25 23h123q25 0 24-21v-915z" glyph-name="Ucircumflex" horiz-adv-x="1019" unicode="&#xdb;"/><glyph d="M446 1434q0-41-27.5-69t-68.5-28-68.5 28-27.5 69 27.5 68.5 68.5 27.5 68.5-27.5 27.5-68.5zM778 1434q0-41-26.5-69t-67.5-28-69.5 28-28.5 69 27.5 68.5 68.5 27.5 68.5-27.5 27.5-68.5zM901 328q0-159-114.5-249.5t-278-90.5-276.5 91-113 249v913q0 23 22 23h127q23 0 23-21v-915q0-84 62.5-137.5t159.5-53.5 156.5 55.5 59.5 141.5v907q0 23 25 23h123q25 0 24-21v-915z" glyph-name="Udieresis" horiz-adv-x="1019" unicode="&#xdc;"/><glyph d="M412 1323q-28-11-43 8l-27 37q-16 20 6 37l238 188q27 22 45 2l61-90q21-28-10-41zM530 25q0-25-24-25h-123q-25 0-25 23v434q0 25-8 41l-315 731q-14 35 20 35h117q33 0 43-23l221-561q10-16 19-2 161 407 219 559 8 16 16 21.5t31 5.5h113q23 0 25.5-9.5t-3.5-23.5l-315-729q-10-23-11-49v-428z" glyph-name="Yacute" horiz-adv-x="890" unicode="&#xdd;"/><glyph d="M319 864q-14 0-18-12v-426q0-12 16-12h189q96 0 154.5 60.5t58.5 156.5-60 164.5-153 68.5h-187zM319 1012h187q174 0 278.5-106t104.5-264q0-159-110.5-267.5t-270.5-108.5h-189q-16 0-16-18v-223q0-25-24-25h-123q-20 0-25 23v1218q0 23 25 23h120q25 0 25-21v-219q4-12 18-12z" glyph-name="Thorn" horiz-adv-x="937" unicode="&#xde;"/><glyph d="M881 317q0-142-93-239-93-98-223-98h-137q-18 0-18 16v88q0 20 10 23.5t26 3.5h86q79 0 132 65t53 141v215q0 86-49.5 133.5t-135.5 47.5h-24q-18 0-19 18v96q0 18 17 19h33q74 0 115.5 46t41.5 121-49 123-135 48-138-56.5-52-138.5v-969q0-20-19-20h-127q-20 0-20 18v965q0 150 96 246t257 96 256-86 95-238q0-107-33.5-155.5t-60.5-63.5q-12-8 0-16 115-68 115-234v-215z" glyph-name="germandbls" horiz-adv-x="991" unicode="&#xdf;"/><glyph d="M246 1231q-25 25 4 45l90 59q22 14 41-18l156-260q14-23-9-37l-39-25q-19-15-43 9zM236 306q0-77 45-129t134-52 138 51 49 128-44 129-134 52-139-51-49-128zM414 614q90 0 161-39 14-8 25.5-5t11.5 22v18q0 82-42 121t-128 39-145-19.5-80-29.5-29 12l-34 90q-6 20 10 27 116 61 285 61 262 0 294.5-126t32.5-199v-566q0-20-18-20h-113q-18 0-18 16v37q0 36-50-14-50-51-193-51t-222.5 86-79.5 225 88 227 244 88z" glyph-name="agrave" horiz-adv-x="897" unicode="&#xe0;"/><glyph d="M477 1004q-19-25-43-9l-39 25q-18 14-6 37l154 260q6 10 15 19.5t26-1.5l90-59q25-19 6-45zM236 306q0-77 45-129t134-52 138 51 49 128-44 129-134 52-139-51-49-128zM414 614q90 0 161-39 14-8 25.5-5t11.5 22v18q0 82-42 121t-128 39-145-19.5-80-29.5-29 12l-34 90q-6 20 10 27 116 61 285 61 262 0 294.5-126t32.5-199v-566q0-20-18-20h-113q-18 0-18 16v37q0 36-50-14-50-51-193-51t-222.5 86-79.5 225 88 227 244 88z" glyph-name="aacute" horiz-adv-x="897" unicode="&#xe1;"/><glyph d="M434 1339h66q23 0 45-22l196-240q25-25-2-43l-28-24q-20-17-45 4l-187 164q-16 16-30 2l-181-166q-23-23-45-4l-28 24q-28 20-2 43l196 240q22 22 45 22zM236 306q0-77 45-129t134-52 138 51 49 128-44 129-134 52-139-51-49-128zM414 614q90 0 161-39 14-8 25.5-5t11.5 22v18q0 82-42 121t-128 39-145-19.5-80-29.5-29 12l-34 90q-6 20 10 27 116 61 285 61 262 0 294.5-126t32.5-199v-566q0-20-18-20h-113q-18 0-18 16v37q0 36-50-14-50-51-193-51t-222.5 86-79.5 225 88 227 244 88z" glyph-name="acircumflex" horiz-adv-x="897" unicode="&#xe2;"/><glyph d="M472 1078q-72 36-96 36-46 0-83-63-12-20-35-9l-55 33q-15 6 5 45t60.5 78 81.5 39 71-12.5 57.5-25.5 54-25.5 55.5-12.5 67 68q10 16 23 8l65-31q19-6 7-35-33-70-77.5-99.5t-86.5-29.5-114 36zM236 306q0-77 45-129t134-52 138 51 49 128-44 129-134 52-139-51-49-128zM414 614q90 0 161-39 14-8 25.5-5t11.5 22v18q0 82-42 121t-128 39-145-19.5-80-29.5-29 12l-34 90q-6 20 10 27 116 61 285 61 262 0 294.5-126t32.5-199v-566q0-20-18-20h-113q-18 0-18 16v37q0 36-50-14-50-51-193-51t-222.5 86-79.5 225 88 227 244 88z" glyph-name="atilde" horiz-adv-x="897" unicode="&#xe3;"/><glyph d="M379 1116q0-41-27.5-68.5t-68.5-27.5-69 27.5-28 68.5 28 68.5 69 27.5 68.5-27.5 27.5-68.5zM711 1116q0-41-27-68.5t-68-27.5-69.5 27.5-28.5 68.5 27.5 68.5 68.5 27.5 69-27.5 28-68.5zM236 306q0-77 45-129t134-52 138 51 49 128-44 129-134 52-139-51-49-128zM414 614q90 0 161-39 14-8 25.5-5t11.5 22v18q0 82-42 121t-128 39-145-19.5-80-29.5-29 12l-34 90q-6 20 10 27 116 61 285 61 262 0 294.5-126t32.5-199v-566q0-20-18-20h-113q-18 0-18 16v37q0 36-50-14-50-51-193-51t-222.5 86-79.5 225 88 227 244 88z" glyph-name="adieresis" horiz-adv-x="897" unicode="&#xe4;"/><glyph d="M555 1150q0 36-26.5 63.5t-61.5 27.5-59.5-26.5-24.5-63.5 24.5-62.5 59.5-25.5 61.5 25.5 26.5 61.5zM643 1153q0-110-69.5-142t-106.5-32-68.5 13.5-55.5 36-38 54-14 85.5 53 105.5 124 51.5 123-50 52-122zM236 306q0-77 45-129t134-52 138 51 49 128-44 129-134 52-139-51-49-128zM414 614q90 0 161-39 14-8 25.5-5t11.5 22v18q0 82-42 121t-128 39-145-19.5-80-29.5-29 12l-34 90q-6 20 10 27 116 61 285 61 262 0 294.5-126t32.5-199v-566q0-20-18-20h-113q-18 0-18 16v37q0 36-50-14-50-51-193-51t-222.5 86-79.5 225 88 227 244 88z" glyph-name="aring" horiz-adv-x="897" unicode="&#xe5;"/><glyph d="M780 567q0-24 31-24h336q20 0 20 22v19q0 78-53 132t-140 54-140.5-55.5-53.5-132.5v-15zM419 489q-81 0-132-53t-51-130 44-131 131-54 137 56 50 130-49 128-130 54zM702 801q98 110 266 110 169 0 267-98t98-256v-96q0-23-13-36t-28-13h-479q-16 0-26.5-10.5t-10.5-26.5v-39q0-84 53-144.5t129-60.5 123 29.5 82 77.5q16 23 41 6l78-51q25-16 16-33-49-90-135-131t-186-41q-199 0-297 125-41-55-112.5-89t-150.5-34q-151 0-243 83.5t-92 227.5q0 143 96.5 230t241.5 87q35 0 81-13t67-27q44-28 44 14v22q0 82-58 119t-120 37q-119 0-215-49-23-10-31 12l-34 90q-6 20 10 27 116 61 268 61 198 0 270-110z" glyph-name="ae" horiz-adv-x="1413" unicode="&#xe6;"/><glyph d="M643-252q0-66-50.5-115t-120.5-49-107 11.5-72 33.5q-16 12-2 31l33 43q12 12 30 3 58-30 98-30t62.5 18 22.5 36q0 78-78 77h-56q-39 0-53 23.5t-6 55.5 15.5 58.5 13.5 51.5q-129 20-205 106t-76 224v235q0 163 102 255.5t259 92.5q199-2 315-155 8-10 6-23.5t-14-21.5l-72-56q-26-18-54 23t-78 66.5-122 25.5-125-54.5-53-140.5v-254q0-84 54.5-136t139.5-52 132 35 84 82q10 12 30-2l68-49q35-21 16-45-104-159-313-164l-16-68q-8-23 14-22h22q72 0 114-42t42-108z" glyph-name="ccedilla" horiz-adv-x="835" unicode="&#xe7;"/><glyph d="M233 1231q-24 24 5 45l90 59q19 13 41-18l155-260q14-23-8-37l-39-25q-20-16-43 9zM264 567q0-24 31-24h336q20 0 20 22v19q0 78-49 132t-140 54-144.5-55.5-53.5-132.5v-15zM817 461q0-23-13-36t-28-13h-479q-16 0-26.5-10.5t-10.5-26.5v-39q0-142 71-173.5t129-31.5q116 0 193 105 16 23 41 6l72-49q25-16 16-33-49-90-135-131t-186-41q-166 0-265.5 91t-99.5 245v233q0 156 101 255t263 99q161 0 259-98t98-256v-96z" glyph-name="egrave" horiz-adv-x="897" unicode="&#xe8;"/><glyph d="M457 1004q-19-25-43-9l-39 25q-18 14-6 37l153 260q20 33 41 18l90-59q27-21 6-45zM264 567q0-24 31-24h336q20 0 20 22v19q0 78-49 132t-140 54-144.5-55.5-53.5-132.5v-15zM817 461q0-23-13-36t-28-13h-479q-16 0-26.5-10.5t-10.5-26.5v-39q0-142 71-173.5t129-31.5q116 0 193 105 16 23 41 6l72-49q25-16 16-33-49-90-135-131t-186-41q-166 0-265.5 91t-99.5 245v233q0 156 101 255t263 99q161 0 259-98t98-256v-96z" glyph-name="eacute" horiz-adv-x="897" unicode="&#xe9;"/><glyph d="M434 1339h66q23 0 45-22l196-240q25-25-2-43l-28-24q-20-17-45 4l-187 164q-16 16-30 2l-181-166q-23-23-45-4l-28 24q-28 20-2 43l196 240q22 22 45 22zM264 567q0-24 31-24h336q20 0 20 22v19q0 78-49 132t-140 54-144.5-55.5-53.5-132.5v-15zM817 461q0-23-13-36t-28-13h-479q-16 0-26.5-10.5t-10.5-26.5v-39q0-142 71-173.5t129-31.5q116 0 193 105 16 23 41 6l72-49q25-16 16-33-49-90-135-131t-186-41q-166 0-265.5 91t-99.5 245v233q0 156 101 255t263 99q161 0 259-98t98-256v-96z" glyph-name="ecircumflex" horiz-adv-x="897" unicode="&#xea;"/><glyph d="M395 1116q0-41-27.5-68.5t-68.5-27.5-68.5 27.5-27.5 68.5 27.5 68.5 68.5 27.5 68.5-27.5 27.5-68.5zM727 1116q0-41-26.5-68.5t-67.5-27.5-69.5 27.5-28.5 68.5 27.5 68.5 68.5 27.5 68.5-27.5 27.5-68.5zM264 567q0-24 31-24h336q20 0 20 22v19q0 78-49 132t-140 54-144.5-55.5-53.5-132.5v-15zM817 461q0-23-13-36t-28-13h-479q-16 0-26.5-10.5t-10.5-26.5v-39q0-142 71-173.5t129-31.5q116 0 193 105 16 23 41 6l72-49q25-16 16-33-49-90-135-131t-186-41q-166 0-265.5 91t-99.5 245v233q0 156 101 255t263 99q161 0 259-98t98-256v-96z" glyph-name="edieresis" horiz-adv-x="897" unicode="&#xeb;"/><glyph d="M-16 1231q-25 25 4 45l90 59q22 14 41-18l155-260q14-23-8-37l-39-25q-19-15-43 9zM125 877q0 20 18 20h127q20 0 21-20v-859q0-18-19-18h-127q-20 0-20 18v859z" glyph-name="igrave" horiz-adv-x="415" unicode="&#xec;"/><glyph d="M240 1004q-19-25-43-9l-39 25q-18 14-6 37l153 260q20 33 41 18l90-59q27-21 6-45zM125 877q0 20 18 20h127q20 0 21-20v-859q0-18-19-18h-127q-20 0-20 18v859z" glyph-name="iacute" horiz-adv-x="415" unicode="&#xed;"/><glyph d="M176 1339h66q21 0 45-22l196-240q25-25-2-43l-28-24q-20-17-45 4l-187 164q-16 16-31 2l-180-166q-23-23-45-4l-28 24q-27 19-3 43l197 240q22 22 45 22zM125 877q0 20 18 20h127q20 0 21-20v-859q0-18-19-18h-127q-20 0-20 18v859z" glyph-name="icircumflex" horiz-adv-x="415" unicode="&#xee;"/><glyph d="M139 1116q0-41-27.5-68.5t-68.5-27.5-68.5 27.5-27.5 68.5 27.5 68.5 68.5 27.5 68.5-27.5 27.5-68.5zM471 1116q0-41-26.5-68.5t-67.5-27.5-69.5 27.5-28.5 68.5 27.5 68.5 68.5 27.5 68.5-27.5 27.5-68.5zM125 877q0 20 18 20h127q20 0 21-20v-859q0-18-19-18h-127q-20 0-20 18v859z" glyph-name="idieresis" horiz-adv-x="415" unicode="&#xef;"/><glyph d="M258 332q0-90 46-146.5t150-56.5 152.5 57.5 48.5 145.5v153q0 107-40 175.5t-148 68.5-158.5-57.5-50.5-145.5v-194zM274 1194v98q0 16 9.5 20.5t66.5 4.5 148.5-21.5 150.5-72.5l8-4q2 0 9 6l84 84q6 6 12 6t10-6l47-43q6-6 6-12t-6-11l-88-88q-6-6-6-11t4-9q85-90 87.5-256t2.5-226v-321q0-163-100.5-253.5t-267.5-90.5q-166 0-260.5 90t-94.5 256v192q0 158 96.5 251t235.5 93 215-65q4-4 8-4t4 37q0 122-49 192 0 2-3 2t-11-8l-78-84q-6-6-12-6l-8 4-45 41q-12 12-3 22l82 91q13 13 2 20-64 47-206 53-50 2-50 29z" glyph-name="eth" horiz-adv-x="917" unicode="&#xf0;"/><glyph d="M455.5 1078q-70.5 36-96.5 36-44 0-83-63-12-20-34-9l-56 33q-15 6 5 45t61 78 82 39 70.5-12.5 83.5-38 83.5-25.5 67.5 68q10 15 23 8l65-31q18-6 6-35-33-70-77-99.5t-87-29.5-113.5 36zM836 20q0-20-19-20h-127q-18 0-18 18v547q0 88-49.5 145.5t-143.5 57.5-147-56.5-53-144.5v-547q0-20-21-20h-125q-20 0-20 18v859q0 20 18 20h119q18 0 18-18v-31q0-18 15-19 4 0 16 9 86 72 205 71 154 0 243-93t89-249v-547z" glyph-name="ntilde" horiz-adv-x="946" unicode="&#xf1;"/><glyph d="M242 1231q-25 25 4 45l90 59q22 14 41-18l155-260q14-23-8-37l-39-25q-19-15-43 9zM501 129q149 0 154 203v235q0 88-48 144.5t-143 56.5-148.5-55.5-53.5-145.5v-235q0-88 45-145.5t194-57.5zM819 334q0-166-97-256t-265-90-263.5 89-95.5 255v235q0 158 92.5 251t266.5 93 268-90 94-254v-233z" glyph-name="ograve" horiz-adv-x="917" unicode="&#xf2;"/><glyph d="M477 1004q-19-25-43-9l-39 25q-18 14-6 37l154 260q6 10 15 19.5t26-1.5l90-59q25-19 6-45zM501 129q149 0 154 203v235q0 88-48 144.5t-143 56.5-148.5-55.5-53.5-145.5v-235q0-88 45-145.5t194-57.5zM819 334q0-166-97-256t-265-90-263.5 89-95.5 255v235q0 158 92.5 251t266.5 93 268-90 94-254v-233z" glyph-name="oacute" horiz-adv-x="917" unicode="&#xf3;"/><glyph d="M434 1339h66q23 0 45-22l196-240q25-25-2-43l-28-24q-20-17-45 4l-187 164q-16 16-30 2l-181-166q-23-23-45-4l-28 24q-28 20-2 43l196 240q22 22 45 22zM501 129q149 0 154 203v235q0 88-48 144.5t-143 56.5-148.5-55.5-53.5-145.5v-235q0-88 45-145.5t194-57.5zM819 334q0-166-97-256t-265-90-263.5 89-95.5 255v235q0 158 92.5 251t266.5 93 268-90 94-254v-233z" glyph-name="ocircumflex" horiz-adv-x="917" unicode="&#xf4;"/><glyph d="M463.5 1078q-70.5 36-96.5 36-46 0-82-63-12-20-35-9l-55 33q-18 7 3 46 22 38 62.5 77t81.5 39 70.5-12.5 57.5-25.5 54.5-25.5 55.5-12.5 67 68q10 15 23 8l65-31q18-6 6-35-33-70-76.5-99.5t-86.5-29.5q-44 0-114.5 36zM501 129q149 0 154 203v235q0 88-48 144.5t-143 56.5-148.5-55.5-53.5-145.5v-235q0-88 45-145.5t194-57.5zM819 334q0-166-97-256t-265-90-263.5 89-95.5 255v235q0 158 92.5 251t266.5 93 268-90 94-254v-233z" glyph-name="otilde" horiz-adv-x="917" unicode="&#xf5;"/><glyph d="M391 1116q0-41-27.5-68.5t-68.5-27.5-68.5 27.5-27.5 68.5 27.5 68.5 68.5 27.5 68.5-27.5 27.5-68.5zM723 1116q0-41-26.5-68.5t-67.5-27.5-70 27.5-29 68.5 28 68.5 69 27.5 68.5-27.5 27.5-68.5zM501 129q149 0 154 203v235q0 88-48 144.5t-143 56.5-148.5-55.5-53.5-145.5v-235q0-88 45-145.5t194-57.5zM819 334q0-166-97-256t-265-90-263.5 89-95.5 255v235q0 158 92.5 251t266.5 93 268-90 94-254v-233z" glyph-name="odieresis" horiz-adv-x="917" unicode="&#xf6;"/><glyph d="M575 807q0-41-27.5-68.5t-68.5-27.5-68.5 27.5-27.5 68.5 27.5 68.5 68.5 27.5 68.5-27.5 27.5-68.5zM573 119q0-41-26.5-68.5t-67.5-27.5-69.5 27.5-28.5 68.5 27.5 68.5 68.5 27.5 68.5-27.5 27.5-68.5zM891 444q0-31-31-30h-747q-31 0-31 28v66q0 31 31 31h747q31 0 31-31v-64z" glyph-name="divide" horiz-adv-x="972" unicode="&#xf7;"/><glyph d="M262 567v-135q0-134 5-140.5t9-.5l314 405q11 14-2 27-61 45-140 45t-132.5-55.5-53.5-145.5zM655 597q0 3-4 12t-10 3l-315-403q-10-16 0-33 37-47 135-47t145 56.5 49 146.5v265zM98 332v235q0 158 95 251t247 93 248-67q13-7 21 2l36 45q10 10 21 2l47-39q10-10 4-20l-47-58q-7-9-2-18 51-80 51-191v-233q0-166-97-256t-251-90-248 67q-13 7-22-4l-31-41q-8-13-20-4l-50 37q-8 8 0 18l45 60q6 8 0 18-47 78-47 193z" glyph-name="oslash" horiz-adv-x="917" unicode="&#xf8;"/><glyph d="M242 1231q-25 25 4 45l90 59q22 14 41-18l155-260q14-23-8-37l-39-25q-19-15-43 9zM821 20q0-20-20-20h-117q-20 0-20 18v31q0 14-10 17.5t-34-19.5-83.5-41-112.5-18q-154 0-240 92t-86 250v547q0 20 19 20h127q18 0 18-18v-549q0-86 49-143.5t143-57.5 147.5 56.5 53.5 144.5v547q0 20 19 20h127q20 0 20-18v-859z" glyph-name="ugrave" horiz-adv-x="940" unicode="&#xf9;"/><glyph d="M487 1004q-18-24-43-9l-38 25q-18 14-7 37l154 260q20 33 41 18l90-59q25-19 6-45zM821 20q0-20-20-20h-117q-20 0-20 18v31q0 14-10 17.5t-34-19.5-83.5-41-112.5-18q-154 0-240 92t-86 250v547q0 20 19 20h127q18 0 18-18v-549q0-86 49-143.5t143-57.5 147.5 56.5 53.5 144.5v547q0 20 19 20h127q20 0 20-18v-859z" glyph-name="uacute" horiz-adv-x="940" unicode="&#xfa;"/><glyph d="M424 1339h65q22 0 46-22l196-240q24-24-2-43l-29-24q-14-12-23-9t-22 13l-186 164q-16 16-31 2l-180-166q-24-24-45-4l-29 24q-26 19-2 43l197 240q22 22 45 22zM821 20q0-20-20-20h-117q-20 0-20 18v31q0 14-10 17.5t-34-19.5-83.5-41-112.5-18q-154 0-240 92t-86 250v547q0 20 19 20h127q18 0 18-18v-549q0-86 49-143.5t143-57.5 147.5 56.5 53.5 144.5v547q0 20 19 20h127q20 0 20-18v-859z" glyph-name="ucircumflex" horiz-adv-x="940" unicode="&#xfb;"/><glyph d="M389 1116q0-41-27.5-68.5t-68.5-27.5-68.5 27.5-27.5 68.5 27.5 68.5 68.5 27.5 68.5-27.5 27.5-68.5zM721 1116q0-41-26.5-68.5t-67.5-27.5-70 27.5-29 68.5 28 68.5 69 27.5 68.5-27.5 27.5-68.5zM821 20q0-20-20-20h-117q-20 0-20 18v31q0 14-10 17.5t-34-19.5-83.5-41-112.5-18q-154 0-240 92t-86 250v547q0 20 19 20h127q18 0 18-18v-549q0-86 49-143.5t143-57.5 147.5 56.5 53.5 144.5v547q0 20 19 20h127q20 0 20-18v-859z" glyph-name="udieresis" horiz-adv-x="940" unicode="&#xfc;"/><glyph d="M430 1004q-19-25-43-9l-39 25q-18 14-6 37l154 260q6 10 15 19.5t26-1.5l90-59q25-19 6-45zM684 899h96q36 0 27-39l-395-1192q-4-14-19.5-28.5t-44.5-14.5h-76q-45 0-28 53l96 291q12 31-10 31h-21q-39 0-49 41l-225 821q-9 37 22 37h109q35 0 45-31l172-690q4-16 12-19t17 19l225 682q13 39 47 39z" glyph-name="yacute" horiz-adv-x="843" unicode="&#xfd;"/><glyph d="M670 569q0 86-55.5 142.5t-141.5 56.5-141.5-56.5-55.5-140.5v-241q0-84 54.5-143.5t143.5-59.5 142.5 58.5 53.5 144.5v239zM836 330q0-144-94-244t-227-100-204 63q-16 14-25.5 7t-9.5-19v-387q0-20-18-21h-127q-18 0-18 19v1638q0 18 18 19h113q20 0 20-19v-450q0-12 10-11.5t30 18.5q69 64 204 64 134 0 231-90.5t97-245.5v-241z" glyph-name="thorn" horiz-adv-x="929" unicode="&#xfe;"/><glyph d="M328 1116q0-41-28-68.5t-69-27.5-68.5 27.5-27.5 68.5 27.5 68.5 68.5 27.5 69-27.5 28-68.5zM659 1116q0-41-26.5-68.5t-67.5-27.5-69.5 27.5-28.5 68.5 27.5 68.5 68.5 27.5 68.5-27.5 27.5-68.5zM684 899h96q36 0 27-39l-395-1192q-4-14-19.5-28.5t-44.5-14.5h-76q-45 0-28 53l96 291q12 31-10 31h-21q-39 0-49 41l-225 821q-9 37 22 37h109q35 0 45-31l172-690q4-16 12-19t17 19l225 682q13 39 47 39z" glyph-name="ydieresis" horiz-adv-x="843" unicode="&#xff;"/><glyph d="M688 1399q0-20-18-21h-437q-20 0-20 21v84q0 20 18 20h437q20 0 20-18v-86zM319 430h283q10 0 12 3t0 13l-90 369-57 258q-2 6-5 6t-5-4l-56-252-92-377q-2-10-1-13t11-3zM750 0q-27 0-29 14l-68 267q-4 8-8 8h-362q-8 0-9.5-2t-3.5-4l-65-269q-2-14-27-14h-110q-34 0-27 31l303 1208q5 25 33 25h174q25 0 31-21l311-1208q14-35-19-35h-124z" glyph-name="Amacron" horiz-adv-x="935" unicode="&#x100;"/><glyph d="M694 1075q0-20-18-20h-436q-20 0-21 20v84q0 20 19 21h436q20 0 20-19v-86zM236 306q0-77 45-129t134-52 138 51 49 128-44 129-134 52-139-51-49-128zM414 614q90 0 161-39 14-8 25.5-5t11.5 22v18q0 82-42 121t-128 39-145-19.5-80-29.5-29 12l-34 90q-6 20 10 27 116 61 285 61 262 0 294.5-126t32.5-199v-566q0-20-18-20h-113q-18 0-18 16v37q0 36-50-14-50-51-193-51t-222.5 86-79.5 225 88 227 244 88z" glyph-name="amacron" horiz-adv-x="897" unicode="&#x101;"/><glyph d="M238 1593h43q16 0 20-6.5t15-42.5 43-67 92-31q111 0 141 121 4 14 7 20t22 6h43q24 0 24-22-4-106-70-178t-166-72-167.5 71.5-71.5 178.5q0 22 25 22zM319 430h283q10 0 12 3t0 13l-90 369-57 258q-2 6-5 6t-5-4l-56-252-92-377q-2-10-1-13t11-3zM750 0q-27 0-29 14l-68 267q-4 8-8 8h-362q-8 0-9.5-2t-3.5-4l-65-269q-2-14-27-14h-110q-34 0-27 31l303 1208q5 25 33 25h174q25 0 31-21l311-1208q14-35-19-35h-124z" glyph-name="Abreve" horiz-adv-x="935" unicode="&#x102;"/><glyph d="M248 1280h43q16 0 20-6t15-43 43-67.5 92-30.5q111 0 141 120 4 14 7 20.5t22 6.5h43q16 0 20-6t3-37-19.5-77-67-99-147.5-53q-100 0-168 71t-72 178q0 23 25 23zM236 306q0-77 45-129t134-52 138 51 49 128-44 129-134 52-139-51-49-128zM414 614q90 0 161-39 14-8 25.5-5t11.5 22v18q0 82-42 121t-128 39-145-19.5-80-29.5-29 12l-34 90q-6 20 10 27 116 61 285 61 262 0 294.5-126t32.5-199v-566q0-20-18-20h-113q-18 0-18 16v37q0 36-50-14-50-51-193-51t-222.5 86-79.5 225 88 227 244 88z" glyph-name="abreve" horiz-adv-x="897" unicode="&#x103;"/><glyph d="M319 430h283q10 0 12 3t0 13l-90 369-57 258q-2 6-5 6t-5-4l-56-252-92-377q-2-10-1-13t11-3zM709-217q0-64 67-64 35 0 123 48 12 6 19-3l32-45q4-4 4-9 0-4-18-22t-75-44.5-131-26.5-109 42.5-35 90.5q0 81 38.5 154t92.5 119l2 2-66 256q-4 8-8 8h-362q-8 0-9.5-2t-3.5-4l-65-269q-2-14-27-14h-110q-34 0-27 31l303 1208q5 25 33 25h174q25 0 31-21l311-1208q14-35-19-35h-73q-41-45-66.5-104.5t-25.5-112.5z" glyph-name="Aogonek" horiz-adv-x="935" unicode="&#x104;"/><glyph d="M236 306q0-77 45-129t134-52 138 51 49 128-44 129-134 52-139-51-49-128zM608-217q0-64 68-64 35 0 123 48 12 6 18-3l33-45q4-4 4-9 0-4-18-22t-74.5-44.5-131.5-26.5-110 42.5-35 90.5q0 79 42.5 159t99.5 122v22q0 36-50-14-50-51-193-51t-222.5 86-79.5 225 88 227 244 88q90 0 161-39 14-8 25.5-5t11.5 22v18q0 82-42 121t-128 39-145-19.5-80-29.5-29 12l-34 90q-6 20 10 27 116 61 285 61 262 0 294.5-126t32.5-199v-566q0-20-18-20h-58q-41-45-66.5-104.5t-25.5-112.5z" glyph-name="aogonek" horiz-adv-x="897" unicode="&#x105;"/><glyph d="M469 1323q-28-11-43 8l-27 37q-16 20 7 37l237 188q27 22 45 2l62-90q22-29-11-41zM850 1107q0-9-16-24l-78-65q-8-8-21.5-5t-21.5 13q-83 104-237 104-80 0-132.5-55t-52.5-143v-596q0-86 57.5-142.5t137.5-56.5q128 0 227 99 10 12 20 19t27-5l82-68q15-10 4-32-61-80-151.5-121t-181.5-41q-179 0-286.5 91.5t-107.5 254.5v598q0 158 103 253t270 95q94 0 182-31t166-121q10-12 10-21z" glyph-name="Cacute" horiz-adv-x="880" unicode="&#x106;"/><glyph d="M434 1004q-19-25-43-9l-39 25q-18 14-6 37l154 260q6 10 15 19.5t26-1.5l90-59q25-19 6-45zM434 768q-72 0-125-54.5t-53-140.5v-254q0-84 54.5-136t139.5-52 132 35 84 82q10 12 30-2l68-49q35-21 16-45-109-164-323-164-166 0-265.5 90t-99.5 248v235q0 163 102 255.5t259 92.5q198-1 315-155 8-10 6-23.5t-14-21.5l-72-56q-27-18-47 13-69 102-207 102z" glyph-name="cacute" horiz-adv-x="823" unicode="&#x107;"/><glyph d="M479 1604h66q26 0 45-19l196-203q23-18-2-34l-28-21q-22-16-45 2l-181 125q-14 14-30 0l-187-125q-24-16-45-2l-28 21q-25 16-2 34l196 203q19 19 45 19zM850 1107q0-9-16-24l-78-65q-8-8-21.5-5t-21.5 13q-83 104-237 104-80 0-132.5-55t-52.5-143v-596q0-86 57.5-142.5t137.5-56.5q128 0 227 99 10 12 20 19t27-5l82-68q15-10 4-32-61-80-151.5-121t-181.5-41q-179 0-286.5 91.5t-107.5 254.5v598q0 158 103 253t270 95q94 0 182-31t166-121q10-12 10-21z" glyph-name="Ccircumflex" horiz-adv-x="880" unicode="&#x108;"/><glyph d="M418 1339h65q23 0 45-22l197-240q24-24-2-43l-29-24q-14-12-23-9t-22 13l-186 164q-16 16-31 2l-180-166q-24-24-45-4l-29 24q-26 19-2 43l197 240q22 22 45 22zM434 768q-72 0-125-54.5t-53-140.5v-254q0-84 54.5-136t139.5-52 132 35 84 82q10 12 30-2l68-49q35-21 16-45-109-164-323-164-166 0-265.5 90t-99.5 248v235q0 163 102 255.5t259 92.5q198-1 315-155 8-10 6-23.5t-14-21.5l-72-56q-27-18-47 13-69 102-207 102z" glyph-name="ccircumflex" horiz-adv-x="823" unicode="&#x109;"/><glyph d="M569 1480q0-40-27.5-68t-67.5-28-68.5 27-28.5 68 27.5 68.5 68.5 27.5 68.5-27.5 27.5-67.5zM850 1107q0-9-16-24l-78-65q-8-8-21.5-5t-21.5 13q-83 104-237 104-80 0-132.5-55t-52.5-143v-596q0-86 57.5-142.5t137.5-56.5q128 0 227 99 10 12 20 19t27-5l82-68q15-10 4-32-61-80-151.5-121t-181.5-41q-179 0-286.5 91.5t-107.5 254.5v598q0 158 103 253t270 95q94 0 182-31t166-121q10-12 10-21z" glyph-name="Cdotaccent" horiz-adv-x="880" unicode="&#x10a;"/><glyph d="M557 1132q0-40-27.5-68t-67.5-28-68.5 27-28.5 67.5 27.5 68.5 68.5 28 68.5-27.5 27.5-67.5zM434 768q-72 0-125-54.5t-53-140.5v-254q0-84 54.5-136t139.5-52 132 35 84 82q10 12 30-2l68-49q35-21 16-45-109-164-323-164-166 0-265.5 90t-99.5 248v235q0 163 102 255.5t259 92.5q198-1 315-155 8-10 6-23.5t-14-21.5l-72-56q-27-18-47 13-69 102-207 102z" glyph-name="cdotaccent" horiz-adv-x="823" unicode="&#x10b;"/><glyph d="M528 1319h-65q-27 0-45 18l-197 203q-23 18 2 35l29 20q22 15 45-2l186-125q16-14 31 0l180 125q24 19 45 2l29-20q25-16 2-35l-197-203q-18-18-45-18zM850 1107q0-9-16-24l-78-65q-8-8-21.5-5t-21.5 13q-83 104-237 104-80 0-132.5-55t-52.5-143v-596q0-86 57.5-142.5t137.5-56.5q128 0 227 99 10 12 20 19t27-5l82-68q15-10 4-32-61-80-151.5-121t-181.5-41q-179 0-286.5 91.5t-107.5 254.5v598q0 158 103 253t270 95q94 0 182-31t166-121q10-12 10-21z" glyph-name="Ccaron" horiz-adv-x="880" unicode="&#x10c;"/><glyph d="M498 989h-66q-24 0-45 23l-197 239q-25 25 3 43l28 25q22 19 45-4l180-166q14-14 31 2l187 164q12 10 21 13t24-9l28-25q26-19 2-43l-196-239q-23-23-45-23zM434 768q-72 0-125-54.5t-53-140.5v-254q0-84 54.5-136t139.5-52 132 35 84 82q10 12 30-2l68-49q35-21 16-45-109-164-323-164-166 0-265.5 90t-99.5 248v235q0 163 102 255.5t259 92.5q198-1 315-155 8-10 6-23.5t-14-21.5l-72-56q-27-18-47 13-69 102-207 102z" glyph-name="ccaron" horiz-adv-x="823" unicode="&#x10d;"/><glyph d="M479 1319h-65q-27 0-45 18l-197 203q-23 18 2 35l29 20q22 15 45-2l186-125q16-14 31 0l180 125q24 19 45 2l29-20q25-16 2-35l-197-203q-18-18-45-18zM723 913q0 106-60.5 154.5t-156.5 48.5h-191q-18 0-18-16v-932q0-18 16-18h207q102 0 152.5 54t50.5 150v559zM895 381q0-190-99.5-285.5t-279.5-95.5h-366q-25 0-25 23v1218q0 23 25 23h366q184 0 281.5-96.5t97.5-272.5v-514z" glyph-name="Dcaron" horiz-adv-x="1007" unicode="&#x10e;"/><glyph d="M455 766q-104 0-150.5-58.5t-46.5-142.5v-237q0-86 48-142.5t138-56.5 148.5 57.5 58.5 141.5l2 237q0 84-47 142.5t-151 58.5zM817 18q0-18-18-18h-111q-20 0-20 20v29q0 12-11 16.5t-31-12.5-75-40-129-23q-150 0-239 86t-89 252v237q0 147 91 244.5t224 97.5 209-61q16-12 24.5-6t8.5 20v424q0 20 21 21h125q20 0 20-19v-1268zM1026 913h-55q-14 0-19.5 11.5t-3.5 23.5l21 322q4 33 30 33h127q39 0 27-41l-96-324q-10-25-31-25z" glyph-name="dcaron" horiz-adv-x="1150" unicode="&#x10f;"/><glyph d="M295 727q0-20 18-20h144q25 0 24-23v-76q0-25-22-24h-148q-16 0-16-19v-397q0-18 16-18h195q100 0 151.5 54t51.5 150v559q0 106-60.5 154.5t-156.5 48.5h-179q-18 0-18-16v-373zM125 1241q0 23 25 23h352q184 0 281.5-96.5t97.5-272.5v-514q0-190-99.5-285.5t-279.5-95.5h-352q-25 0-25 23v542q0 18-16 19h-66q-25 0-25 24v74q0 25 23 25h68q16 0 16 18v516z" glyph-name="Dcroat" horiz-adv-x="995" unicode="&#x110;"/><glyph d="M456 766q-89 0-143.5-58.5t-54.5-142.5v-237q0-86 56.5-142.5t142.5-56.5 140 57.5 54 141.5l2 237q0 84-54 142.5t-143 58.5zM838 987q-21 0-21-22v-947q0-18-18-18h-111q-20 0-20 20v29q0 12-11 16.5t-31-12.5-66-40-157-23-210 93.5-99 244.5v237q0 145 96.5 243.5t245.5 98.5q82 0 122-22.5t58-36.5 26.5-8 8.5 20v105q0 14-3 18t-17 4h-148q-18 0-18 21v75q0 18 20 19h144q22 0 22 24v117q0 20 21 21h125q20 0 20-19v-121q0-23 21-22h65q18 0 19-21v-73q0-20-21-21h-63z" glyph-name="dcroat" horiz-adv-x="923" unicode="&#x111;"/><glyph d="M696 1399q0-20-18-21h-436q-20 0-21 21v84q0 20 19 20h436q20 0 20-18v-86zM840 25q0-25-25-25h-668q-25 0-24 23v1218q0 23 24 23h660q27 0 27-23v-100q0-25-25-25h-498q-16 0-16-16v-350q0-16 14-17h412q25 0 24-24v-103q0-23-22-22h-412q-16 0-16-19v-397q0-18 14-18h506q25 0 25-23v-102z" glyph-name="Emacron" horiz-adv-x="901" unicode="&#x112;"/><glyph d="M696 1075q0-20-18-20h-436q-20 0-21 20v84q0 20 19 21h436q20 0 20-19v-86zM264 567q0-24 31-24h336q20 0 20 22v19q0 78-49 132t-140 54-144.5-55.5-53.5-132.5v-15zM817 461q0-23-13-36t-28-13h-479q-16 0-26.5-10.5t-10.5-26.5v-39q0-142 71-173.5t129-31.5q116 0 193 105 16 23 41 6l72-49q25-16 16-33-49-90-135-131t-186-41q-166 0-265.5 91t-99.5 245v233q0 156 101 255t263 99q161 0 259-98t98-256v-96z" glyph-name="emacron" horiz-adv-x="897" unicode="&#x113;"/><glyph d="M266 1593h43q16 0 20.5-6.5t15.5-42.5 43-67 91-31q111 0 142 121 4 14 7 20t21 6h43q25 0 25-22-4-106-70.5-178t-166.5-72-167 71.5-71 178.5q0 22 24 22zM840 25q0-25-25-25h-668q-25 0-24 23v1218q0 23 24 23h660q27 0 27-23v-100q0-25-25-25h-498q-16 0-16-16v-350q0-16 14-17h412q25 0 24-24v-103q0-23-22-22h-412q-16 0-16-19v-397q0-18 14-18h506q25 0 25-23v-102z" glyph-name="Ebreve" horiz-adv-x="901" unicode="&#x114;"/><glyph d="M258 1280h43q16 0 20.5-6t15.5-43 43-67.5 91-30.5q111 0 141 120 4 14 7.5 20.5t21.5 6.5h43q25 0 25-23-4-105-70.5-177t-165.5-72-167.5 71-72.5 178q0 23 25 23zM264 567q0-24 31-24h336q20 0 20 22v19q0 78-49 132t-140 54-144.5-55.5-53.5-132.5v-15zM817 461q0-23-13-36t-28-13h-479q-16 0-26.5-10.5t-10.5-26.5v-39q0-142 71-173.5t129-31.5q116 0 193 105 16 23 41 6l72-49q25-16 16-33-49-90-135-131t-186-41q-166 0-265.5 91t-99.5 245v233q0 156 101 255t263 99q161 0 259-98t98-256v-96z" glyph-name="ebreve" horiz-adv-x="897" unicode="&#x115;"/><glyph d="M571 1439q0-40-27.5-68t-67.5-28-68.5 27-28.5 68 27.5 68.5 68.5 27.5 68.5-27.5 27.5-67.5zM840 25q0-25-25-25h-668q-25 0-24 23v1218q0 23 24 23h660q27 0 27-23v-100q0-25-25-25h-498q-16 0-16-16v-350q0-16 14-17h412q25 0 24-24v-103q0-23-22-22h-412q-16 0-16-19v-397q0-18 14-18h506q25 0 25-23v-102z" glyph-name="Edotaccent" horiz-adv-x="901" unicode="&#x116;"/><glyph d="M557 1132q0-40-27.5-68t-67.5-28-68.5 27-28.5 67.5 27.5 68.5 68.5 28 68.5-27.5 27.5-67.5zM264 567q0-24 31-24h336q20 0 20 22v19q0 78-49 132t-140 54-144.5-55.5-53.5-132.5v-15zM817 461q0-23-13-36t-28-13h-479q-16 0-26.5-10.5t-10.5-26.5v-39q0-142 71-173.5t129-31.5q116 0 193 105 16 23 41 6l72-49q25-16 16-33-49-90-135-131t-186-41q-166 0-265.5 91t-99.5 245v233q0 156 101 255t263 99q161 0 259-98t98-256v-96z" glyph-name="edotaccent" horiz-adv-x="897" unicode="&#x117;"/><glyph d="M659-217q0-64 68-64 35 0 123 48 12 6 18-3l33-45q4-4 4-9-1-4-19-22t-74-44.5-131-26.5-109.5 42.5-34.5 102.5 30.5 125.5 75.5 112.5h-496q-25 0-24 23v1218q0 23 24 23h660q27 0 27-23v-100q0-25-25-25h-498q-16 0-16-16v-350q0-16 14-17h412q25 0 24-24v-103q0-23-22-22h-412q-16 0-16-19v-397q0-18 14-18h506q25 0 25-23v-102q0-25-25-25h-63q-41-45-67-104.5t-26-112.5z" glyph-name="Eogonek" horiz-adv-x="901" unicode="&#x118;"/><glyph d="M264 567q0-24 31-24h336q20 0 20 22v19q0 78-49 132t-140 54-144.5-55.5-53.5-132.5v-15zM563-182q0-64 68-64 29 0 60 15.5l53 26.5t28 3l33-45q4-4 4-9-1-5-19-23t-75-44-131-26-109 43-35 96q0 102 70 199-12-2-15-2h-34q-166 0-265.5 91t-99.5 245v233q0 156 101 255t263 99q161 0 259-98t98-256v-96q0-23-13-36t-28-13h-479q-16 0-26.5-10.5t-10.5-26.5v-39q0-142 71-173.5t129-31.5q116 0 193 105 16 23 41 6l72-49q25-16 16-33-47-84-129-127-39-45-64.5-103.5t-25.5-111.5z" glyph-name="eogonek" horiz-adv-x="897" unicode="&#x119;"/><glyph d="M485 1319h-65q-27 0-45 18l-197 203q-23 18 2 35l29 20q22 15 45-2l186-125q16-14 31 0l180 125q24 19 45 2l29-20q25-16 2-35l-197-203q-18-18-45-18zM840 25q0-25-25-25h-668q-25 0-24 23v1218q0 23 24 23h660q27 0 27-23v-100q0-25-25-25h-498q-16 0-16-16v-350q0-16 14-17h412q25 0 24-24v-103q0-23-22-22h-412q-16 0-16-19v-397q0-18 14-18h506q25 0 25-23v-102z" glyph-name="Ecaron" horiz-adv-x="901" unicode="&#x11a;"/><glyph d="M264 567q0-24 31-24h336q20 0 20 22v19q0 78-49 132t-140 54-144.5-55.5-53.5-132.5v-15zM492 989h-66q-24 0-45 23l-197 239q-24 24 2 43l29 25q22 19 45-4l180-166q14-14 31 2l186 164q25 21 45 4l29-25q25-18 2-43l-196-239q-23-23-45-23zM817 461q0-23-13-36t-28-13h-479q-16 0-26.5-10.5t-10.5-26.5v-39q0-142 71-173.5t129-31.5q116 0 193 105 16 23 41 6l72-49q25-16 16-33-49-90-135-131t-186-41q-166 0-265.5 91t-99.5 245v233q0 156 101 255t263 99q161 0 259-98t98-256v-96z" glyph-name="ecaron" horiz-adv-x="897" unicode="&#x11b;"/><glyph d="M471 1604h66q24 0 45-19l196-203q23-18-2-34l-28-21q-22-16-46 2l-180 125q-14 14-30 0l-187-125q-25-16-45-2l-29 21q-25 16-2 34l197 203q19 19 45 19zM874 330q0-152-103.5-247t-270-95-274 91.5-107.5 254.5v598q0 158 110.5 253t276.5 95q100 0 197.5-39t148.5-127q13-22-10-41l-80-63q-19-15-43 14-76 104-200 104t-176-62-52-151v-579q0-86 57.5-142.5t150.5-56.5 146 51.5 53 143.5v188q0 16-12 17h-151q-25 0-25 22v105q0 25 25 24h313q27 0 26-24v-334z" glyph-name="Gcircumflex" horiz-adv-x="983" unicode="&#x11c;"/><glyph d="M416 1339h65q23 0 45-22l197-240q24-24-2-43l-29-24q-20-17-45 4l-186 164q-16 16-31 2l-180-166q-24-24-45-4l-29 24q-26 19-2 43l197 240q22 22 45 22zM610 581q0 77-52 133t-140 56-142.5-57-54.5-131 48.5-130.5 142.5-56.5 146 54.5 52 131.5zM702-137q0 69-88 107t-233 19.5-195-26.5-60-2-32 38-22 102q0 69 40 121t95 83q6 4 6 10t-14 13q-142 92-142 262 0 131 103.5 226t244.5 95 242-77q10-8 21 0 84 71 184 71 29 2 29-31v-104q0-16-5.5-21t-41.5 1-80-11q-16-2-11-16 35-59 35-132 0-142-107.5-233.5t-260.5-91.5q-87 0-134-53t-51-90q0-16 15-10 98 24 195 24 197 0 316-62t119-204q0-86-64-162.5t-151-114.5q-27-14-43 13l-45 69q-12 19 13 35 51 31 86.5 72t35.5 80z" glyph-name="gcircumflex" horiz-adv-x="897" unicode="&#x11d;"/><glyph d="M287 1593h43q16 0 20-6.5t15-42.5 43-67 92-31q111 0 141 121 4 14 7 20t22 6h43q24 0 24-22-4-106-70-178t-165-72q-100 0-168 71t-72 179q0 22 25 22zM874 330q0-152-103.5-247t-270-95-274 91.5-107.5 254.5v598q0 158 110.5 253t276.5 95q100 0 197.5-39t148.5-127q13-22-10-41l-80-63q-19-15-43 14-76 104-200 104t-176-62-52-151v-579q0-86 57.5-142.5t150.5-56.5 146 51.5 53 143.5v188q0 16-12 17h-151q-25 0-25 22v105q0 25 25 24h313q27 0 26-24v-334z" glyph-name="Gbreve" horiz-adv-x="983" unicode="&#x11e;"/><glyph d="M209 1280h43q16 0 20-6t16-43 43-67.5 91-30.5q111 0 141 120 4 14 7 20.5t22 6.5h43q16 0 20-6t3-37-19-77-67-99-148-53-167.5 71-72.5 178q0 23 25 23zM610 581q0 77-52 133t-140 56-142.5-57-54.5-131 48.5-130.5 142.5-56.5 146 54.5 52 131.5zM702-137q0 69-88 107t-233 19.5-195-26.5-60-2-32 38-22 102q0 69 40 121t95 83q6 4 6 10t-14 13q-142 92-142 262 0 131 103.5 226t244.5 95 242-77q10-8 21 0 84 71 184 71 29 2 29-31v-104q0-16-5.5-21t-41.5 1-80-11q-16-2-11-16 35-59 35-132 0-142-107.5-233.5t-260.5-91.5q-87 0-134-53t-51-90q0-16 15-10 98 24 195 24 197 0 316-62t119-204q0-86-64-162.5t-151-114.5q-27-14-43 13l-45 69q-12 19 13 35 51 31 86.5 72t35.5 80z" glyph-name="gbreve" horiz-adv-x="897" unicode="&#x11f;"/><glyph d="M598 1439q0-40-27.5-68t-67.5-28-68.5 27-28.5 68 27.5 68.5 68.5 27.5 68.5-27.5 27.5-67.5zM874 330q0-152-103.5-247t-270-95-274 91.5-107.5 254.5v598q0 158 110.5 253t276.5 95q100 0 197.5-39t148.5-127q13-22-10-41l-80-63q-19-15-43 14-76 104-200 104t-176-62-52-151v-579q0-86 57.5-142.5t150.5-56.5 146 51.5 53 143.5v188q0 16-12 17h-151q-25 0-25 22v105q0 25 25 24h313q27 0 26-24v-334z" glyph-name="Gdotaccent" horiz-adv-x="983" unicode="&#x120;"/><glyph d="M555 1132q0-40-27.5-68t-67.5-28-69 27-29 67.5 28 68.5 69 28 68.5-27.5 27.5-67.5zM610 581q0 77-52 133t-140 56-142.5-57-54.5-131 48.5-130.5 142.5-56.5 146 54.5 52 131.5zM702-137q0 69-88 107t-233 19.5-195-26.5-60-2-32 38-22 102q0 69 40 121t95 83q6 4 6 10t-14 13q-142 92-142 262 0 131 103.5 226t244.5 95 242-77q10-8 21 0 84 71 184 71 29 2 29-31v-104q0-16-5.5-21t-41.5 1-80-11q-16-2-11-16 35-59 35-132 0-142-107.5-233.5t-260.5-91.5q-87 0-134-53t-51-90q0-16 15-10 98 24 195 24 197 0 316-62t119-204q0-86-64-162.5t-151-114.5q-27-14-43 13l-45 69q-12 19 13 35 51 31 86.5 72t35.5 80z" glyph-name="gdotaccent" horiz-adv-x="897" unicode="&#x121;"/><glyph d="M403-469q-28 0-22 35l20 321q4 33 31 33h127q39 0 27-41l-97-323q-10-25-30-25h-56zM874 330q0-152-103.5-247t-270-95-274 91.5-107.5 254.5v598q0 158 110.5 253t276.5 95q100 0 197.5-39t148.5-127q13-22-10-41l-80-63q-19-15-43 14-76 104-200 104t-176-62-52-151v-579q0-86 57.5-142.5t150.5-56.5 146 51.5 53 143.5v188q0 16-12 17h-151q-25 0-25 22v105q0 25 25 24h313q27 0 26-24v-334z" glyph-name="Gcommaaccent" horiz-adv-x="983" unicode="&#x122;"/><glyph d="M459 1395h55q14 0 19.5-11.5t3.5-23.5l-21-322q-4-33-31-32h-127q-39 0-26 41l96 323q8 25 31 25zM610 581q0 77-52 133t-140 56-142.5-57-54.5-131 48.5-130.5 142.5-56.5 146 54.5 52 131.5zM702-137q0 69-88 107t-233 19.5-195-26.5-60-2-32 38-22 102q0 69 40 121t95 83q6 4 6 10t-14 13q-142 92-142 262 0 131 103.5 226t244.5 95 242-77q10-8 21 0 84 71 184 71 29 2 29-31v-104q0-16-5.5-21t-41.5 1-80-11q-16-2-11-16 35-59 35-132 0-142-107.5-233.5t-260.5-91.5q-87 0-134-53t-51-90q0-16 15-10 98 24 195 24 197 0 316-62t119-204q0-86-64-162.5t-151-114.5q-27-14-43 13l-45 69q-12 19 13 35 51 31 86.5 72t35.5 80z" glyph-name="gcommaaccent" horiz-adv-x="897" unicode="&#x123;"/><glyph d="M487 1604h66q26 0 45-19l197-203q23-18-2-34l-29-21q-22-16-45 2l-180 125q-14 14-31 0l-186-125q-24-16-46-2l-28 21q-25 16-2 34l196 203q19 19 45 19zM944 25q0-25-24-25h-125q-25 0-25 23v538q0 18-16 19h-437q-16 0-16-19v-536q0-25-22-25h-125q-25 0-25 23v1218q0 23 23 23h124q25 0 25-21v-498q0-18 16-18h437q16 0 16 18v496q0 23 23 23h125q27 0 26-21v-1218z" glyph-name="Hcircumflex" horiz-adv-x="1284" unicode="&#x124;"/><glyph d="M170 1604h66q24 0 45-19l196-203q23-18-2-34l-29-21q-21-15-45 2l-180 125q-14 14-31 0l-186-125q-25-16-45-2l-29 21q-25 16-2 34l197 203q19 19 45 19zM840 20q0-20-19-20h-127q-18 0-18 18v547q0 88-46 144.5t-144 56.5-150.5-56.5-52.5-142.5v-547q0-20-21-20h-125q-20 0-20 18v1266q0 20 18 21h127q18 0 19-21v-432q-1-39 47-1 28 22 82.5 39t111.5 17q154 0 236-93t82-247v-547z" glyph-name="hcircumflex" horiz-adv-x="954" unicode="&#x125;"/><glyph d="M786 973q0 25-16 24h-436q-16 0-17-24v-228q0-18 17-18h436q16 0 16 18v228zM958 1128q0-22 25-22h59q23 0 23-25v-59q0-25-25-25h-55q-27 0-27-24v-948q0-25-24-25h-123q-25 0-25 23v538q0 18-16 19h-436q-16 0-17-19v-536q0-25-22-25h-125q-25 0-25 23v950q0 25-26 24h-56q-25 0-24 25v59q0 25 22 25h60q24 0 24 22v113q0 23 23 23h125q25 0 24-21v-110q0-27 21-27h428q20 0 20 27v108q0 23 23 23h121q29 0 28-21v-115z" glyph-name="Hbar" horiz-adv-x="1103" unicode="&#x126;"/><glyph d="M109 1116q28 0 28 27v100q0 20 19 21h127q18 0 18-21v-96q0-31 25-31h350q20 0 20-18v-68q0-20-18-20h-356q-20 0-21-29v-129q1-40 49-1 28 22 81.5 39t111.5 17q154 0 235.5-93t81.5-247v-547q0-20-18-20h-127q-18 0-19 18v547q0 88-46 144.5t-143 56.5-150.5-56.5-53.5-142.5v-547q0-20-20-20h-125q-20 0-21 18v963q0 29-31 29h-55q-20 0-20 20v66q0 20 18 20h60z" glyph-name="hbar" horiz-adv-x="974" unicode="&#x127;"/><glyph d="M229.5 1426.5q-69.5 35.5-95.5 35.5-44 0-83-63-12-20-35-8l-55 32q-15 6 5 45t61 78 82 39 70.5-12 82.5-38 82-26 70 68q10 15 22 8l66-31q18-5 6-34-33-70-77-99.5t-88-29.5-113.5 35.5zM332 25q0-25-25-25h-127q-25 0-24 23v1218q0 23 24 23h127q25 0 25-21v-1218z" glyph-name="Itilde" horiz-adv-x="493" unicode="&#x128;"/><glyph d="M267.5 1078q-70.5 36-96.5 36-47 0-83-63-12-20-35-9l-55 33q-15 6 5 45t60.5 78 82.5 39 71-12.5 56.5-25.5 54-25.5 54.5-12.5 69 68q10 15 22 8l66-31q18-6 6-35-33-70-77-99.5t-87-29.5-113.5 36zM186 877q0 20 19 20h127q20 0 20-20v-859q0-18-18-18h-127q-20 0-21 18v859z" glyph-name="itilde" horiz-adv-x="536" unicode="&#x129;"/><glyph d="M473 1399q0-20-18-21h-437q-20 0-20 21v84q0 20 18 20h437q20 0 20-18v-86zM332 25q0-25-25-25h-127q-25 0-24 23v1218q0 23 24 23h127q25 0 25-21v-1218z" glyph-name="Imacron" horiz-adv-x="493" unicode="&#x12a;"/><glyph d="M477 1075q0-20-18-20h-436q-20 0-21 20v84q0 20 18 21h437q20 0 20-19v-86zM162 877q0 20 18 20h127q20 0 21-20v-859q0-18-19-18h-127q-20 0-20 18v859z" glyph-name="imacron" horiz-adv-x="479" unicode="&#x12b;"/><glyph d="M365 25q0-25-25-25h-127q-25 0-25 23v1218q0 23 25 23h127q25 0 25-21v-1218zM57 1593h43q16 0 20.5-6.5t15.5-42.5 43-67 91-31q111 0 142 121 4 14 7 20t21 6h43q25 0 25-22-4-106-70-178t-166-72-167.5 71.5-71.5 178.5q0 22 24 22z" glyph-name="Ibreve" horiz-adv-x="555" unicode="&#x12c;"/><glyph d="M20 1292h43q16 0 20.5-6t15.5-42 43-67.5 91-31.5q111 0 142 121 4 14 7 20t21 6h43q25 0 25-22-4-106-70-178t-166-72-167.5 71.5-71.5 178.5q0 22 24 22zM150 877q0 20 18 20h127q20 0 20-20v-859q0-18-18-18h-127q-20 0-20 18v859z" glyph-name="ibreve" horiz-adv-x="473" unicode="&#x12d;"/><glyph d="M170-217q0-64 68-64 37 0 122 48 12 6 19-3l33-45q4-4 4-9 0-4-18-22t-75-44.5-131-26.5-109.5 42.5-35.5 104.5 33 129.5 80 112.5q-4 8-4 17v1218q0 23 24 23h127q25 0 25-21v-1218q0-25-25-25h-45q-41-45-66.5-104.5t-25.5-112.5z" glyph-name="Iogonek" horiz-adv-x="493" unicode="&#x12e;"/><glyph d="M315 1181q0-42-30.5-73t-73.5-31-72.5 29-29.5 72 29.5 72.5 72.5 29.5 73.5-28.5 30.5-70.5zM143-217q0-64 68-64 35 0 123 48 12 6 18-3l33-45q4-4 4-9-1-4-19-22t-74-44.5-131-26.5-110 43.5-35 103.5 32 126.5 79 113.5q-6 2-6 14v859q0 20 18 20h127q20 0 21-20v-859q0-18-19-18h-36q-41-45-67-104.5t-26-112.5z" glyph-name="iogonek" horiz-adv-x="415" unicode="&#x12f;"/><glyph d="M342 1480q0-40-27.5-68t-67.5-28-68.5 27-28.5 68 27.5 68.5 68.5 27.5 68.5-27.5 27.5-67.5zM332 25q0-25-25-25h-127q-25 0-24 23v1218q0 23 24 23h127q25 0 25-21v-1218z" glyph-name="Idotaccent" horiz-adv-x="493" unicode="&#x130;"/><glyph d="M125 877q0 20 18 20h127q20 0 21-20v-859q0-18-19-18h-127q-20 0-20 18v859z" glyph-name="dotlessi" horiz-adv-x="415" unicode="&#x131;"/><glyph d="M643 250v987q0 27 31 27h106q31 0 31-27v-971q0-204-82-325.5t-291-180.5q-31-8-41 29l-26 82q-4 16-2.5 26.5t39.5 26.5q119 48 177 113.5t58 212.5zM309 25q0-25-24-25h-127q-25 0-25 23v1218q0 23 25 23h127q25 0 24-21v-1218z" glyph-name="IJ" horiz-adv-x="944" unicode="&#x132;"/><glyph d="M668 897q18 0 18-18v-996q0-182-87-221t-153-39-90 6-30.5 12.5-1.5 22.5l18 100q4 20 33 16t67-4q82 2 82 126v977q0 18 21 18h123zM709 1181q0-42-31-73t-74-31-72.5 29-29.5 72 29.5 72.5 72.5 29.5 74-28.5 31-70.5zM125 877q0 20 18 20h127q20 0 21-20v-859q0-18-19-18h-127q-20 0-20 18v859zM315 1181q0-42-30.5-73t-73.5-31-72.5 29-29.5 72 29.5 72.5 72.5 29.5 73.5-28.5 30.5-70.5z" glyph-name="ij" horiz-adv-x="817" unicode="&#x133;"/><glyph d="M295 1608h65q25 0 46-19l196-203q23-18-2-34l-29-21q-21-15-45 2l-180 125q-14 14-31 0l-186-125q-25-16-45-2l-29 21q-25 16-2 34l197 203q19 19 45 19zM252 252v987q0 27 31 27h106q31 0 31-27v-971q0-204-82-325.5t-291-180.5q-31-8-41 29l-26 82q-4 16-3.5 26.5t39.5 26.5q119 47 177.5 113t58.5 213z" glyph-name="Jcircumflex" horiz-adv-x="550" unicode="&#x134;"/><glyph d="M215 1339h66q21 0 45-22l196-240q25-25-2-43l-28-24q-14-12-23.5-9t-22.5 13l-186 164q-16 16-31 2l-180-166q-24-24-45-4l-29 24q-26 19-2 43l197 240q22 22 45 22zM311 897q19 0 19-18v-996q0-182-87-221t-154-39-90 6-29.5 12.5-2.5 22.5l19 100q4 20 32 16t68-4q82 2 82 126v977q0 18 20 18h123z" glyph-name="jcircumflex" horiz-adv-x="518" unicode="&#x135;"/><glyph d="M393-428q-27 0-22 35l20 321q4 33 31 33h127q39 0 26-41l-96-323q-10-25-30-25h-56zM911 1264q20 0 24.5-9.5t-3.5-19.5l-379-465q-16-20 10-20 16 0 29.5 1t28.5-1q267-19 288-338l31-392q0-20-20-20h-119q-23 0-23 18l-24 369q-6 95-35 139.5t-70 68-110 23.5q-117 0-176.5-67.5t-59.5-175.5v-355q0-20-18-20h-133q-23 0-23 18v1225q0 20 23 21h133q18 0 18-19v-508q0-28 23-8l424 520q12 14 28 15h133z" glyph-name="Kcommaaccent" horiz-adv-x="1021" unicode="&#x136;"/><glyph d="M434-469h-55q-14 0-19.5 11.5t-3.5 23.5l21 321q4 33 31 33h127q39 0 26-41l-96-323q-10-25-31-25zM819 0h-108q-29 0-29 29l-10 190q-5 90-46.5 143.5t-142.5 53.5q-100 0-150-57.5t-50-137.5v-201q0-20-21-20h-125q-20 0-20 18v1266q0 20 18 21h127q18 0 19-19v-725q0-23 10-27t20 7l318 346q10 10 28 10h152q23 0 22-18 0-9-10-19l-270-291q-12-14 8-20 14-2 27.5-3t25.5-5q125-29 173.5-115t54.5-205l8-186q0-35-29-35z" glyph-name="kcommaaccent" horiz-adv-x="894" unicode="&#x137;"/><glyph d="M819 0h-108q-29 0-29 29l-10 190q-5 90-46.5 143.5t-142.5 53.5q-100 0-150-57.5t-50-137.5v-201q0-20-21-20h-125q-20 0-20 18v863q0 20 18 20h127q18 0 19-18v-322q0-23 10-27t20 7l318 346q10 10 28 10h152q23 0 22-18 0-9-10-19l-270-291q-12-14 8-20 51-5 90-15 39-9 78-39t71.5-88.5 41.5-185.5l8-186q0-35-29-35z" glyph-name="kgreenlandic" horiz-adv-x="903" unicode="&#x138;"/><glyph d="M229 1323q-26-11-43 8l-26 37q-16 20 6 37l237 188q27 21 46 2l61-90q21-28-10-41zM834 25q0-25-23-25h-651q-25 0-25 23v1218q0 23 23 23h125q23 0 22-21v-1075q0-18 17-18h487q25 0 25-23v-102z" glyph-name="Lacute" horiz-adv-x="872" unicode="&#x139;"/><glyph d="M229 1397q-26-11-43 8l-26 37q-16 20 6 37l237 188q26 21 46 2l61-90q21-28-10-41zM428 14q0-30-12-30h-66q-189 0-205 102t-16 170v1028q0 20 18 21h125q20 0 21-19v-1032q0-72 20.5-92.5t69.5-20.5h27q14 0 16-10t2-20v-97z" glyph-name="lacute" horiz-adv-x="452" unicode="&#x13a;"/><glyph d="M352-469q-28 0-22 35l20 321q4 33 31 33h127q39 0 27-41l-97-323q-10-25-30-25h-56zM834 25q0-25-23-25h-651q-25 0-25 23v1218q0 23 23 23h125q23 0 22-21v-1075q0-18 17-18h487q25 0 25-23v-102z" glyph-name="Lcommaaccent" horiz-adv-x="872" unicode="&#x13b;"/><glyph d="M217-469h-55q-14 0-19.5 11.5t-3.5 23.5l21 321q4 33 30 33h127q39 0 27-41l-96-323q-10-25-31-25zM428 14q0-30-12-30h-66q-189 0-205 102t-16 170v1028q0 20 18 21h125q20 0 21-19v-1032q0-72 20.5-92.5t69.5-20.5h27q14 0 16-10t2-20v-97z" glyph-name="lcommaaccent" horiz-adv-x="452" unicode="&#x13c;"/><glyph d="M567 874h-55q-14 0-19.5 11.5t-3.5 23.5l21 322q4 33 31 33h127q39 0 26-41l-96-324q-10-25-31-25zM834 25q0-25-23-25h-651q-25 0-25 23v1218q0 23 23 23h125q23 0 22-21v-1075q0-18 17-18h487q25 0 25-23v-102z" glyph-name="Lcaron" horiz-adv-x="872" unicode="&#x13d;"/><glyph d="M428 14q0-30-12-30h-66q-189 0-205 102t-16 170v1028q0 20 18 21h125q20 0 21-19v-1032q0-72 20.5-92.5t69.5-20.5h27q14 0 16-10t2-20v-97zM473 901q-28 0-22 35l20 321q4 33 31 33h127q39 0 26-41l-96-323q-10-25-31-25h-55z" glyph-name="lcaron" horiz-adv-x="671" unicode="&#x13e;"/><glyph d="M672 620q0-40-28-68t-68-28-68.5 27-28.5 67.5 28 68.5 68.5 28 68.5-27.5 28-67.5zM834 25q0-25-23-25h-651q-25 0-25 23v1218q0 23 23 23h125q23 0 22-21v-1075q0-18 17-18h487q25 0 25-23v-102z" glyph-name="Ldot" horiz-adv-x="872" unicode="&#x13f;"/><glyph d="M428 14q0-30-12-30h-66q-189 0-205 102t-16 170v1028q0 20 18 21h125q20 0 21-19v-1032q0-72 20.5-92.5t69.5-20.5h27q14 0 16-10t2-20v-97zM590 701q0-40-27.5-67.5t-67.5-27.5-69 26.5-29 67.5 28 69 69 28 68.5-28 27.5-68z" glyph-name="ldot" horiz-adv-x="608" unicode="&#x140;"/><glyph d="M356 168q0-18 17-18h487q25 0 25-23v-102q0-25-23-25h-651q-25 0-25 23v385q0 12-14 4l-90-54q-18-12-29 9l-41 69q-12 16 6 29l152 86q16 12 16 29v661q0 23 23 23h123q25 0 24-21v-569q0-8 9-6l172 102q19 10 28-8l41-70q10-17-6-28l-229-134q-14-8-15-28v-334z" glyph-name="Lslash" horiz-adv-x="892" unicode="&#x141;"/><glyph d="M504 14q0-30-12-30h-66q-132 0-176.5 62t-44.5 210v205q0 8-2 16t-17 0l-116-69q-16-10-23 6l-41 69q-8 14 4 23l178 104q17 10 17 31v643q0 20 18 21h123q20 0 21-19v-547q0-23 14-14l147 88q16 8 23-6l41-70q10-16-4-22l-201-119q-20-11-20-41l2-301q0-72 20.5-92.5t69.5-20.5h26q19 0 19-30v-97z" glyph-name="lslash" horiz-adv-x="595" unicode="&#x142;"/><glyph d="M543 1323q-28-11-43 8l-27 37q-16 20 6 37l238 188q27 22 45 2l61-90q21-28-10-41zM242 1264q25 0 35-9.5t20-23.5l477-879q6-12 6-2v891q0 23 23 23h115q25 0 24-21v-1202q0-27-13.5-34t-25.5-7h-78q-38 0-53 31l-477 876q-6 6-6 0v-882q0-25-23-25h-116q-25 0-25 23v1189q0 27 7 39.5t36 12.5h74z" glyph-name="Nacute" horiz-adv-x="1062" unicode="&#x143;"/><glyph d="M469 1004q-19-25-43-9l-39 25q-18 14-6 37l154 260q6 10 15 19.5t25-1.5l91-59q25-19 6-45zM836 20q0-20-19-20h-127q-18 0-18 18v547q0 88-49.5 145.5t-143.5 57.5-147-56.5-53-144.5v-547q0-20-21-20h-125q-20 0-20 18v859q0 20 18 20h119q18 0 18-18v-31q0-18 15-19 4 0 16 9 86 72 205 71 154 0 243-93t89-249v-547z" glyph-name="nacute" horiz-adv-x="946" unicode="&#x144;"/></font>
</defs>
</svg>
