<svg xmlns="http://www.w3.org/2000/svg"><defs><font horiz-adv-x="1024"><font-face ascent="1536" bbox="-346.19 -475 3604 3124.33" cap-height="1264" descent="-512" panose-1="2 0 5 6 5 0 0 2 0 4" underline-position="-103" underline-thickness="143" unicode-range="U+0020-FB05" units-per-em="2048" x-height="901"/><missing-glyph d="M121 240l262 477q-70 127-131.5 238.5t-130.5 238.5v-954zM788 240v954l-264-477zM721 1313h-533q66-123 133.5-243t133.5-243zM721 121q-66 123-133.5 242.5t-132.5 242.5q-68-125-133.5-241.5t-133.5-243.5h533zM0 1434h909v-1434h-909v1434z" horiz-adv-x="909"/><glyph d="M811 903q25 0 25-24v-1002q-7-175-94-213.5t-175-38.5-110.5 16.5-18.5 36.5l23 111q6 29 45 21 22-9 67-9t58.5 34 13.5 79v797q0 20-4 26t-27 6h-237q-25 0-25-24v-694q0-25-26-25h-140q-27 0-26 25v692q0 27-23 26h-82q-23 0-22 27v109q0 25 26 24h78q25 0 25 23v118q0 129 83 203t234 74q172-7 254-59 14-10 19.5-17.5t-.5-21.5l-47-105q-8-16-21.5-16t-62.5 20-127 21q-77 0-109.5-39t-32.5-98v-82q0-20 25-21h434z" glyph-name="fj" horiz-adv-x="944" unicode="&#x66;&#x6a;"/><glyph d="M625 903q23 0 22 23v131q0 20-8 22-70 29-143 29-72 0-108-37t-36-100v-47q0-20 25-21h248zM1298 903q25 0 25-24v-1002q-7-175-93.5-213.5t-175.5-38.5-110.5 16.5-17.5 36.5l22 111q6 29 45 21 23-9 68-9t58.5 34 13.5 79v795q0 28-19 34h-250q-24 0-24-24v-694q0-25-27-25h-141q-25 0-25 25v692q0 27-22 26h-248q-25 0-25-24v-694q0-25-26-25h-140q-27 0-26 25v692q0 27-23 26h-82q-23 0-22 27v109q0 25 26 24h78q25 0 25 23v75q0 123 83 205t215 82 236-43l10-1q11 0 39 22 29 22 90.5 43.5t154.5 19.5q166-4 251-57 14-10 19.5-17.5t-.5-21.5l-48-105q-8-16-21-16t-37 10q-74 31-181 31-63 0-98-39t-35-98v-92q0-20 22-21h436z" glyph-name="ffj" horiz-adv-x="1431" unicode="&#x66;&#x66;&#x6a;"/><glyph d="M625 903q23 0 22 23v137q0 20-8 22-75 29-149 29-75 0-106.5-39t-31.5-98v-53q0-20 25-21h248zM866 743q-24 0-24-24v-694q0-25-27-25h-141q-25 0-25 25v692q0 27-22 26h-250q-25 0-25-24v-694q0-25-26-25h-140q-27 0-26 25v692q0 27-23 26h-82q-23 0-22 27v109q0 25 26 24h78q25 0 25 23v94q0 120 86.5 197t211.5 77 234-45q2-2 12-2t13 4q88 84 250 84 115 0 207-47 18-12 18-21t-4-22l-37-92q-10-25-24-25t-46 14-103 13q-71 0-104.5-38t-33.5-91v-102q0-20 22-21h164q27 0 27-26v-109q0-25-27-25h-162z" glyph-name="ff" horiz-adv-x="1083" unicode="&#x66;&#x66;"/><glyph d="M352 924q0-20 25-21h422q23 0 30-8t7-31v-839q0-25-27-25h-139q-25 0-25 25v684q0 20-4 27t-27 7h-237q-25 0-25-24v-694q0-25-26-25h-140q-27 0-26 25v692q0 27-23 26h-82q-23 0-22 27v109q0 25 26 24h78q25 0 25 23v143q4 119 88 187.5t236 68.5 247-61q16-12 19.5-19.5t-4.5-27.5l-43-95q-10-18-22.5-18t-61.5 20-125 21q-75 0-109.5-38t-34.5-97v-86z" glyph-name="fi" horiz-adv-x="946" unicode="&#x66;&#x69;"/><glyph d="M946 164q25 0 25-33v-113q0-23-19-28.5t-28-5.5h-45q-193 0-214.5 113.5t-21.5 183.5v811q0 30-58.5 40.5t-107.5 10.5-87-38-38-97v-84q0-20 25-21h151q20 0 27.5-7t7.5-30v-90q0-23-10-28t-25-5h-151q-25 0-25-24v-694q0-25-26-25h-140q-27 0-26 25v692q0 27-23 26h-82q-23 0-22 27v109q0 25 26 24h78q25 0 25 23v139q4 121 87 189.5t230 68.5q94 0 193-33 12-4 18-4h8q9 0 48 12t60 11q21 0 25.5-9.5t4.5-31.5v-998q0-66 18-86t68-20h24z" glyph-name="fl" horiz-adv-x="1015" unicode="&#x66;&#x6c;"/><glyph d="M625 903q23 0 22 23v135q0 12-4 17t-22 14q-57 20-129 20-139 0-140-137v-51q0-20 25-21h248zM864 743q-24 0-24-24v-694q0-25-27-25h-141q-25 0-25 25v692q0 27-22 26h-248q-25 0-25-24v-694q0-25-26-25h-140q-27 0-26 25v692q0 27-23 26h-82q-23 0-22 27v109q0 25 26 24h78q25 0 25 23v90q0 120 86.5 197t211.5 77 234-45q2-2 12-2 10 1 39 23t88.5 43.5 140.5 21.5q148 0 247-59 16-12 19-20.5t-5-26.5l-43-97q-10-16-22.5-16t-62.5 20-124 21q-73 0-108-39t-35-98v-92q0-20 22-21h428q23 0 28-8t5-31v-839q0-25-27-25h-139q-25 0-24 25v686q0 20-4.5 26t-26.5 6h-238z" glyph-name="ffi" horiz-adv-x="1433" unicode="&#x66;&#x66;&#x69;"/><glyph d="M625 903q23 0 22 23v135q0 16-8 24-78 27-147 27-139 0-140-137v-51q0-20 25-21h248zM1321 1280v-1010q0-66 18.5-86t67.5-20h25q22 0 22-33v-113q0-27-27-30-16-4-21-4h-42q-193 0-214.5 113.5t-21.5 183.5v813q0 23-9 28.5t-40 17.5-98 13q-67 0-105-39t-38-98v-92q0-20 24-21h148q23 0 28.5-7t5.5-30v-90q0-23-9-28t-25-5h-148q-25 0-24-24v-694q0-25-27-25h-139q-27 0-27 25v692q0 27-22 26h-246q-25 0-25-24v-694q0-25-26-25h-140q-27 0-26 25v692q0 27-23 26h-82q-23 0-22 27v109q0 25 26 24h78q25 0 25 23v102q4 113 90 187.5t210 74.5 232-45q2-2 10-2.5t32 21.5 88.5 44.5 159.5 22.5 171-31q13-4 19-4h2l118 23q27 0 27-39z" glyph-name="ffl" horiz-adv-x="1460" unicode="&#x66;&#x66;&#x6c;"/><glyph d="M842 279q0-115 102-115 45 0 78 8t37 8q20 0 24-22l23-109q2-2 2-13 0-22-31-29-76-17-164-17-139 0-199.5 68.5t-62.5 177.5v485q0 20-24 22h-250q-25 0-25-24v-694q0-25-26-25h-140q-27 0-26 25v692q0 27-23 26h-82q-23 0-22 27v109q0 25 26 24h78q25 0 25 23v135q7 175 105 215.5t151 40.5q151 0 170.5-20.5t15.5-39.5l-22-110q-2-20-25-21h-7q-7 0-31 8t-72 7q-47 0-71-34t-24-81v-102q0-20 25-21h248q25 0 24 27v157q0 25 27 31l133 33q33 7 33-25v-200q0-25 24-25h176q27 0 27-24v-109q0-27-27-27h-176q-25 0-24-20v-442z" glyph-name="ft" horiz-adv-x="1118" unicode="&#x66;&#x74;"/><glyph d="M121 240l262 477q-70 127-131.5 238.5t-130.5 238.5v-954zM788 240v954l-264-477zM721 1313h-533q66-123 133.5-243t133.5-243zM721 121q-66 123-133.5 242.5t-132.5 242.5q-68-125-133.5-241.5t-133.5-243.5h533zM0 1434h909v-1434h-909v1434z" glyph-name=".notdef" horiz-adv-x="909"/><glyph glyph-name=".null" horiz-adv-x="0"/><glyph glyph-name="nonmarkingreturn" horiz-adv-x="681"/><glyph glyph-name="space" horiz-adv-x="466" unicode="&#x20;"/><glyph d="M292 221q50 0 87-34.5t38-84.5-35-85-88-35-89 35.5-37 84.5 37 84 87 35zM342 342h-90q-10 0-15.5 7t-5.5 11l-41 879q0 25 25 25h156q25 0 24-23l-35-879q0-20-18-20z" glyph-name="exclam" horiz-adv-x="552" unicode="&#x21;"/><glyph d="M266 864q0-22-26-22h-101q-27 0-26 22v375q0 25 24 25h105q10 0 18-5.5t6-15.5v-379zM389 842q-27 0-27 22v375q0 25 27 25h103q10 0 18-5.5t6-15.5v-379q0-22-24-22h-103z" glyph-name="quotedbl" horiz-adv-x="622" unicode="&#x22;"/><glyph d="M592 750h-139q-23 0-27-21l-45-213q-8-27 20-27h142q18 0 22 19l47 215q9 27-20 27zM791 750q-24 0-27-17l-47-217q-8-27 20-27h123q27 0 23-24l-19-86q-4-25-28-25h-138q-20 0-22-14l-53-236q-4-18-23-18h-94q-37 0-27 31l47 213q4 26-22 26h-144q-16 0-20-16l-57-236q-4-18-23-18h-94q-33 0-29 29 1 21 27 124t22 109-20 6h-105q-20 0-20 21l18 90q6 25 29 24h115q20 0 24 19l49 217q5 25-22 25h-121q-16 0-19 6t-1 16l18 88q6 23 29 23h137q16 0 20 18l50 227q4 16 24 17h94q37 0 27-29l-45-205q-8-29 20-28h144q16 0 20 18l56 227q0 16 22 17h92q23 0 27-8.5t2-20.5l-45-205q-9-26 20-26h107q31 0 20-33l-16-80q-4-22-31-22h-114z" glyph-name="numbersign" horiz-adv-x="995" unicode="&#x23;"/><glyph d="M796 149q-78-83-214-110-31-7-31-39v-109q0-25-25-24h-73q-25 0-25 22v111q0 27-35 33-160 18-260 114-24 20 0 46l64 77q25 27 61-8t98-56.5 110-21.5q99 0 163.5 47.5t64.5 130.5q0 115-98 152t-143 52q-142 47-234 118.5t-92 205.5q0 133 74.5 220t193.5 119q33 8 33 35v102q0 23 25 23h73q25 0 25-23v-98q0-12 6-20.5t50-15.5q117-19 214-108 23-23 0-47l-63-76q-20-29-51-2-94 86-215 86-72 0-130.5-48t-58.5-136q0-103 94.5-135.5t142.5-46.5 110.5-41 143-91.5 80.5-209.5-78-228z" glyph-name="dollar" horiz-adv-x="995" unicode="&#x24;"/><glyph d="M1245 561q0 43-28.5 69.5t-74.5 26.5-75-26.5-29-69.5v-346q0-43 29-69.5t75-26.5 74.5 25.5 28.5 70.5v346zM1399 215q0-109-69.5-166t-185.5-57-187.5 56-71.5 167v346q0 106 71.5 164.5t185.5 58.5 185.5-57 71.5-166v-346zM457 1049q0 43-29 69.5t-75 26.5-74.5-26.5-28.5-69.5v-347q0-43 28.5-69.5t74.5-26.5 75 25.5 29 70.5v347zM610 702q0-109-69.5-166t-185.5-57-187.5 56.5-71.5 166.5v347q0 106 72 164.5t186 58.5 185-57.5 71-165.5v-347zM410-61q-27 0-17 26l574 1342q9 18 32 18h68q23 0 26-9t-3-24l-574-1337q-6-16-27-16h-79z" glyph-name="percent" horiz-adv-x="1495" unicode="&#x25;"/><glyph d="M516 999q-90 0-147.5-51t-57.5-129v-452q0-95 41.5-152t163.5-57h33q119 0 169 64.5t50 160.5v190q-2 4-5 12.5t-20 8.5h-215q-25 0-24 24v115q0 25 26 25h426q127 0 242 73 28 22 43-6l47-75q6-12 6-24t-14-24q-117-94-285-104-18-4-27.5-10t-9.5-27v-178q0-174-105.5-284.5t-303.5-110.5h-31q-303 0-351 147.5t-48 231.5v450q0 159 112.5 255.5t282.5 96.5h299q10 0 19.5-7t9.5-19v-117q0-27-27-27h-299z" glyph-name="ampersand" horiz-adv-x="1222" unicode="&#x26;"/><glyph d="M246 842h-101q-28 0-28 22v375q0 25 26 25h105q27 0 26-21l-2-379q0-22-26-22z" glyph-name="quotesingle" horiz-adv-x="387" unicode="&#x27;"/><glyph d="M344 551q0-181 72.5-399.5t169.5-374.5q25-41-4-53l-52-33q-41-27-71 12-318 424-318 844 0 225 95.5 449t230.5 409q23 30 55 10l70-37q32-16 12-49-260-412-260-778z" glyph-name="parenleft" horiz-adv-x="692" unicode="&#x28;"/><glyph d="M530 548q0-422-317-845-31-39-72-12l-51 33q-29 12-4 53 157 255 199.5 464.5t42.5 309.5q0 194-73 395.5t-187 382.5q-20 33 12 49l70 37q32 20 55-10 135-185 230-408t95-449z" glyph-name="parenright" horiz-adv-x="663" unicode="&#x29;"/><glyph d="M518.5 725q-14.5 0-26.5 23l-95 163q-10 16-20 0l-98-166q-19-31-54-8l-61 43q-34 21-4 58l123 137q12 14-4 18l-187 45q-33 6-24 39l26 76q10 39 47 25l176-76q14-8 15 8l-21 199q-5 32 39 32h76q39 0 37-36l-23-191q-4-18 15-12l174 74q37 14 49-23l27-72q4-16 2-28.5t-23-16.5l-186-41q-22-6-6-20l114-137q33-33 6-54l-65-49q-14-10-28.5-10z" glyph-name="asterisk" horiz-adv-x="774" unicode="&#x2a;"/><glyph d="M913 516q0-37-34-37h-291q-12 0-15.5-2t-3.5-12v-287q0-33-34-33h-80q-37 0-37 33v287q0 14-19 14h-282q-37 0-37 35v72q0 35 37 35h282q18 0 19 16v285q0 35 35 34h79q37 0 37-34v-281q0-12 3-16t16-4h291q35 0 34-35v-70z" glyph-name="plus" horiz-adv-x="995" unicode="&#x2b;"/><glyph d="M176 225h135q35 0 42-15t-1-42l-106-367q-10-37-47-37h-60q-25 0-30 16.5t-5 35.5l25 360q0 49 47 49z" glyph-name="comma" horiz-adv-x="452" unicode="&#x2c;"/><glyph d="M565 430q0-25-24-24h-414q-27 0-27 24v105q0 25 25 24h414q27 0 26-22v-107z" glyph-name="hyphen" horiz-adv-x="679" unicode="&#x2d;"/><glyph d="M340 105q0-50-36-85.5t-87-35.5-87 35.5-36 85 36 85 87 35.5 87-35 36-85z" glyph-name="period" horiz-adv-x="452" unicode="&#x2e;"/><glyph d="M104-135h-71q-32 0-23 37l475 1452q10 29 52 28h63q35 0 25-32l-480-1456q-8-29-41-29z" glyph-name="slash" horiz-adv-x="636" unicode="&#x2f;"/><glyph d="M680 930q0 82-51 132t-132 50-132.5-51-51.5-131v-590q0-84 51.5-134t132.5-50 132 49 51 135v590zM877 340q0-170-105.5-261t-275.5-91-273.5 90.5-103.5 261.5v590q0 162 103 257t272 95 276-92.5 107-259.5v-590z" glyph-name="zero" horiz-adv-x="995" unicode="&#x30;"/><glyph d="M633 27q0-27-27-27h-143q-27 0-27 25v966q0 33-33 17l-135-78q-23-14-38-10t-15 26v111q0 39 23 53l217 133q31 20 57 21h86q35 0 35-33v-1204z" glyph-name="one" horiz-adv-x="995" unicode="&#x31;"/><glyph d="M858 27q0-27-24-27h-701q-35 0-35 35v76q0 25 3 42t26 46l438 559q84 101 84 178 0 76-44 126t-144 50q-59 0-103.5-29t-63.5-55-32.5-33.5-30.5 2.5l-84 62q-33 22-12 51 114 172 359 172 244 0 299-125t55-187q0-92-35-158.5t-88-137.5l-375-477q-20-27 12-27l472-2q25 0 24-23v-118z" glyph-name="two" horiz-adv-x="995" unicode="&#x32;"/><glyph d="M831 350q0-172-103-267t-272-95-259 78q-66 57-93 106-10 26 15 41l106 61q25 16 39-8 77-110 176-110t149 49 50 127v94q0 72-45 125t-123 53h-141q-27 0-27 25v116q0 25 25 25h129q82 0 129 46t47 125-52.5 125-118.5 46q-126 0-188-92-22-38-51-21l-94 56q-33 20-12 51 53 92 151.5 134t200.5 42q180 0 269-90t89-230-55-195.5-92-68.5q-24-10 6-22 107-33 126-118t19-118v-90z" glyph-name="three" horiz-adv-x="995" unicode="&#x33;"/><glyph d="M102 270q-28 0-28 29v72q0 49 18 90l402 786q10 16 32 17h140q18 0 23-12.5t-1-22.5l-393-772q-4-6-4-14.5t16-8.5h240q22 0 22 31v315q0 23 23 23h147q25 0 25-25v-311q0-18 4-25.5t20-7.5h111q23 0 23-22v-117q0-25-23-25h-106q-29 0-29-30v-217q0-23-23-23h-149q-23 0-23 23v219q0 29-28 28h-439z" glyph-name="four" horiz-adv-x="995" unicode="&#x34;"/><glyph d="M848 340q0-161-110.5-256.5t-256.5-95.5q-147 0-206.5 30.5t-93.5 66.5-64 91q-16 27 10 39l111 59q16 10 23 6t31-34 61.5-60 111.5-30 131 48 57 128v153q0 78-55 127.5t-128 49.5-128-37q-41-23-70-11l-77 35q-37 18-37 51v537q0 27 26 27h602q27 0 27-25v-121q0-23-25-22h-411q-27 0-27-23v-242q0-37 47-17t109 20q63 0 128.5-26t139.5-97.5 74-225.5v-145z" glyph-name="five" horiz-adv-x="995" unicode="&#x35;"/><glyph d="M682 473q0 84-57 130t-133 46-131.5-49-55.5-125v-141q0-82 56.5-130t134-48 132 50 54.5 128v139zM877 334q0-160-105.5-253t-275-93-276.5 90.5-107 253.5v600q0 160 105.5 255t256.5 95q272 0 359-188 10-23-11-35l-100-64q-29-18-47 15-76 102-184 102-78 0-132.5-50t-54.5-128v-158q0-16 9.5-21t33.5 15 72.5 33.5 89.5 13.5q164 0 265.5-91t101.5-251v-141z" glyph-name="six" horiz-adv-x="995" unicode="&#x36;"/><glyph d="M846 1264q49 0 49-37v-64q0-31-18-67-4-19-56.5-131.5t-92.5-200.5-83-181.5-86-184.5-78-166.5-60.5-131.5-35.5-78-33-22h-155q-14 0-21.5 8t-1.5 23l467 1026q20 39-25 39h-284q-23 0-29-6.5t-6-20.5v-86q0-29-25-29h-116q-27 0-27 27v256q0 27 25 27h692z" glyph-name="seven" horiz-adv-x="995" unicode="&#x37;"/><glyph d="M291 363q0-100 56-153.5t143-53.5 149.5 60.5 62.5 160.5-60 155.5-143 55.5-145.5-62.5-62.5-162.5zM688 934q0 78-51 132t-135 54-139.5-54-55.5-131 53.5-131 136.5-54 137 53 54 131zM772 1189.5q107-96.5 107-257.5 0-70-34-137.5t-89-108.5q-18-16-2-27 61-39 101-110.5t40-165.5q0-183-114.5-289t-286.5-106q-273 0-334.5 140t-61.5 238 44 177.5 114 115.5q18 10 2 21-95 49-116 133.5t-21 140.5 29.5 121.5 109 138 242.5 72.5 270-96.5z" glyph-name="eight" horiz-adv-x="995" unicode="&#x38;"/><glyph d="M674 930q0 77-57.5 130.5t-134.5 53.5-132-53-55-129v-135q0-82 57.5-128t133.5-46 132 49 56 125v133zM868 338q0-161-107.5-255.5t-257.5-94.5q-151 0-237 51-83 54-127 141-10 23 13 35l110 61q16 10 24 2t30-36q64-86 157-86 92 0 146.5 50t54.5 130v162q0 35-29 16-71-61-162-61-175 0-279 95t-104 249v129q0 162 109.5 259t279.5 97q169 0 274-93t105-259v-592z" glyph-name="nine" horiz-adv-x="995" unicode="&#x39;"/><glyph d="M350 105q0-50-35-85.5t-87-35.5-88 35.5-36 84.5 36 85 87 36 87-35 36-85zM350 674q0-49-35-85t-87-36-88 35-36 84 36 86 85 37 87-36 38-85z" glyph-name="colon" horiz-adv-x="452" unicode="&#x3a;"/><glyph d="M125-236q-38 0-33 52l21 360q4 51 49 51h135q33 0 41-16t0-45l-105-365q-10-37-49-37h-59zM350 674q0-49-36-85t-88-36-88 35-36 83 36 85 88 37 88-35 36-84z" glyph-name="semicolon" horiz-adv-x="452" unicode="&#x3b;"/><glyph d="M926 33q0-15-12-25t-29 0l-779 408q-41 23-40 53v90q0 38 34 53l785 416q16 10 28 1t13-23v-103q0-12-2-27t-25-26l-623-315q-31-16 0-33l623-316q23-10 25-25t2-28v-100z" glyph-name="less" horiz-adv-x="995" unicode="&#x3c;"/><glyph d="M913 293q0-45-49-45h-735q-49 0-49 43v57q0 41 49 41h735q49 0 49-41v-55zM913 651q0-45-49-45h-735q-49 0-49 43v58q0 41 49 41h735q49 0 49-41v-56z" glyph-name="equal" horiz-adv-x="995" unicode="&#x3d;"/><glyph d="M68 133q0 11 2 27t24 26l623 316q31 16 0 33l-623 315q-22 10-24 26t-2 27v103q0 14 12 23t29-1l784-416q35-15 35-53v-90q0-31-41-53l-778-408q-16-10-29-1-12 9-12 26v100z" glyph-name="greater" horiz-adv-x="995" unicode="&#x3e;"/><glyph d="M409.5 221q51.5 0 87-33.5t37.5-83.5-34.5-86-88.5-36-88 35.5-36 84.5 35.5 84 87 35zM895 939q0-91-60.5-174t-143.5-134-131-101.5-48-128.5v-39q0-10-8-17t-19-7h-135q-20 0-27.5 7t-7.5 30v61q0 78 45.5 156t126.5 131q82 57 140.5 106t63.5 115-43 119-123 53-116.5-28.5-80.5-81.5q-19-24-43-9l-97 64q-22 16-8 45 104 178 338 178 166 0 271.5-88.5t105.5-256.5z" glyph-name="question" horiz-adv-x="1019" unicode="&#x3f;"/><glyph d="M759 602q-54 0-86-32.5t-32-80 32-80 81-32.5 80.5 32.5 31.5 74.5-26.5 80-80.5 38zM1026 498q0-121 111-121t142.5 103.5 31.5 205.5-46 189.5-118 146.5-162.5 91-192.5 32-203.5-42-218-157.5-116.5-350.5 156-392.5 405-157.5q168 0 330 66 16 4 29.5 6t21.5-21l18-53q13-37-20-51-191-66-359-66-330 0-522 181.5t-192 477.5q0 295 141 434.5t267.5 191 268.5 51.5q280 0 463-164t183-401-93.5-339-218.5-102q-124 0-190 72-4 6-8 6t-24-18-67.5-39-94.5-21q-106 0-178 62t-72 170 69.5 169.5 180.5 61.5q59 0 100-27 10-4 18 2t8 17v8q0 39-27.5 65.5t-86.5 26.5-156-35q-20-8-29 15l-22 69q-6 20 10 29 102 45 221 45t180.5-70.5 61.5-175.5v-190z" glyph-name="at" horiz-adv-x="1521" unicode="&#x40;"/><glyph d="M475 1040q-4 0-6-6l-51-241-78-334q-4-19 12-19h248q18 0 12 19l-77 327-54 246q-2 8-6 8zM899 0h-145q-29 0-35 20l-57 236q-4 10-6.5 14t-12.5 4h-332q-12 0-14-5t-6-11l-55-238q-6-20-33-20h-135q-41 0-31 37l301 1200q6 27 37 27h205q28 0 34-25l310-1200q4-10 1-24.5t-26-14.5z" glyph-name="A" horiz-adv-x="962" unicode="&#x41;"/><glyph d="M535 758q82 0 123.5 50t41.5 122-44 114.5-126 42.5h-190q-20 0-21-20v-283q0-27 21-26h195zM559 178q86 0 132 56.5t46 142.5q0 139-71.5 174t-126.5 35h-197q-23 0-23-25v-360q0-23 23-23h217zM903 932q0-106-54-166.5t-83-79.5q-8-8 2-14 88-41 131-122t43-167q0-174-101-278.5t-278-104.5h-416q-31 0-30 29v1206q0 29 30 29h390q170 0 268-85t98-247z" glyph-name="B" horiz-adv-x="1015" unicode="&#x42;"/><glyph d="M526-12q-187 0-296 95.5t-109 260.5v582q0 162 108.5 259t276.5 97q100 0 192.5-34t169.5-136q21-25-8-49l-94-74q-12-10-26.5-5t-22.5 17q-77 103-223 103-76 0-124-52.5t-48-129.5v-578q0-76 51-127t127-51q130 0 217 98 10 10 21.5 19.5t27.5-2.5l102-72q25-14 11-41-66-94-160.5-137t-192.5-43z" glyph-name="C" horiz-adv-x="923" unicode="&#x43;"/><glyph d="M729 899q0 188-199 188h-174q-27 0-26-24v-858q0-27 24-27h189q96 0 141 51.5t45 139.5v530zM160 0q-33 0-33 29v1206q0 29 33 29h389q190 0 286.5-98.5t96.5-274.5v-508q0-186-97.5-284.5t-281.5-98.5h-393z" glyph-name="D" horiz-adv-x="1044" unicode="&#x44;"/><glyph d="M825 1264q31 0 31-29v-117q0-31-29-31h-477q-25 0-24-20v-297q0-27 24-27h393q29 0 29-30v-117q0-29-27-29h-395q-25 0-24-24v-340q0-25 26-25h484q29 0 28-28v-119q0-31-28-31h-680q-31 0-31 29v1206q0 29 31 29h669z" glyph-name="E" horiz-adv-x="929" unicode="&#x45;"/><glyph d="M326 31q0-31-31-31h-141q-31 0-31 29v1206q0 29 31 29h653q29 0 29-27v-119q0-31-29-31h-459q-25 0-24-20v-307q0-23 22-23h387q27 0 27-30v-119q0-29-27-29h-385q-23 0-22-27v-501z" glyph-name="F" horiz-adv-x="862" unicode="&#x46;"/><glyph d="M527 1282q95 0 196.5-39t159.5-141q16-25-11-45l-98-74q-24-14-49 16-74 103-203 103-98 0-149-55.5t-51-135.5v-567q0-78 54-128t140-50 137.5 47 51.5 133v158q0 18-17 18h-131q-31 0-31 29v119q0 29 31 28h317q35 0 35-28v-330q0-161-108-256.5t-283-95.5-286 93.5-111 258.5v588q0 161 112.5 257.5t293.5 96.5z" glyph-name="G" horiz-adv-x="1015" unicode="&#x47;"/><glyph d="M358 563q-26 0-26-26v-508q0-29-29-29h-141q-33 0-33 27v1210q0 27 31 27h141q31 0 31-25v-473q0-27 22-27h394q25 0 24 27v471q0 27 29 27h141q33 0 33-25v-1210q0-29-31-29h-141q-31 0-31 27v510q0 27-27 26h-387z" glyph-name="H" horiz-adv-x="1101" unicode="&#x48;"/><glyph d="M180 0q-31 0-30 27v1210q0 27 30 27h144q31 0 30-27v-1208q0-29-30-29h-144z" glyph-name="I" horiz-adv-x="509" unicode="&#x49;"/><glyph d="M250 231v1006q0 27 31 27h137q31 0 31-27v-1008q0-203-86-327t-297-178q-38-9-46 28l-34 105q-4 16-2 26.5t42 28.5q116 50 170 114t54 205z" glyph-name="J" horiz-adv-x="591" unicode="&#x4a;"/><glyph d="M942 0h-141q-27 0-29 25l-24 370q-5 88-48 148.5t-149 60.5-161.5-61.5-55.5-157.5v-358q0-27-25-27h-153q-25 0-25 25v1212q0 27 29 27h149q25 0 25-25v-467q0-28 22-6l389 479q19 19 43 19h158q18 0 23.5-10.5t-4.5-22.5l-369-455q-16-23 10-22 180 0 254-101.5t78-238.5l29-387q0-27-25-27z" glyph-name="K" horiz-adv-x="1058" unicode="&#x4b;"/><glyph d="M834 178q29 0 28-28v-119q0-31-26-31h-670q-31 0-31 29v1208q0 27 29 27h143q29 0 29-25v-1036q0-12 3-18.5t19-6.5h476z" glyph-name="L" horiz-adv-x="899" unicode="&#x4c;"/><glyph d="M1196 31q0-31-31-31h-133q-29 0-28 27v723q0 4-3.5 5t-5.5-3l-86-232-174-448q-13-33-43-33h-88q-16 0-27.5 4t-19.5 25l-168 438-84 239q-8 8-8 0v-716q0-29-29-29h-133q-31 0-31 29v1194q0 41 41 41h103q27 0 37-5.5t17-20.5 25.5-64.5 45-119 57.5-150.5 73-195.5 50-130.5l90-246q8-16 19-2 10 33 33.5 97.5t35.5 99 21 55.5l245 649q16 33 58 33h100q41 0 41-39v-1194z" glyph-name="M" horiz-adv-x="1300" unicode="&#x4d;"/><glyph d="M969 41q0-41-41-41h-90q-25 0-37.5 6t-22.5 25l-452 809q0 4-4 4l-3-4v-813q0-27-30-27h-131q-33 0-33 27v1187q0 25 8 37.5t37 12.5h90q27 0 38-9.5t21-25.5l451-813q2-2 5-2t3 2v819q0 29 29 29h131q31 0 31-27v-1196z" glyph-name="N" horiz-adv-x="1093" unicode="&#x4e;"/><glyph d="M727 918q0 78-52.5 132t-148.5 54-150-54.5-54-131.5v-566q0-80 52-133t148-53 150.5 52 54.5 134v566zM930 350q0-164-111.5-263t-290-99-293 95-114.5 267v570q0 166 113.5 264t288.5 98 291-97.5 116-264.5v-570z" glyph-name="O" horiz-adv-x="1050" unicode="&#x4f;"/><glyph d="M526 1087h-172q-25 0-24-22v-348q0-25 22-25h174q86 0 137.5 54.5t51.5 137.5-50.5 143-138.5 60zM804.5 623q-110.5-105-276.5-105h-176q-20 0-20-22v-467q0-29-31-29h-139q-33 0-33 29v1208q0 27 33 27h364q178 0 283.5-105.5t105.5-267.5q0-163-110.5-268z" glyph-name="P" horiz-adv-x="966" unicode="&#x50;"/><glyph d="M727 918q0 78-52.5 132t-148.5 54-150-54.5-54-131.5v-566q0-80 52-133t148-53 150.5 52 54.5 134v566zM426-25q0 21-18 27-125 29-206 118t-81 230v570q0 166 113.5 264t288.5 98 291-97.5 116-264.5v-570q0-143-83-236.5t-218-115.5q-18-2-19-27 2-84 80-84 34 0 123 27 35 18 43-12l31-82q9-30-19-45-79-49-198-49-244 0-244 249z" glyph-name="Q" horiz-adv-x="1050" unicode="&#x51;"/><glyph d="M578 678q20 0 36 12 53 39 81 96.5t28 98.5q0 89-47.5 145.5t-153.5 56.5h-166q-25 0-24-22v-363q0-25 22-24h224zM543 1264q190 0 287.5-96.5t97.5-275.5-185-343q-10-9-7-17t15.5-33.5 50-108.5 163.5-345q10-23-.5-34t-26.5-11h-131q-37 0-49.5 11.5t-22.5 31.5l-198 442q-10 19-29 19h-158q-16 0-16-21v-454q0-29-33-29h-139q-31 0-31 27v1208q0 29 29 29h383z" glyph-name="R" horiz-adv-x="1019" unicode="&#x52;"/><glyph d="M772.5 90q-120.5-100-313.5-100-117 0-222.5 39t-170.5 116q-14 14-14.5 25.5t16.5 30.5l77 80q16 14 27.5 10t45.5-37 103-60.5 159-27.5 151 49 61 135q0 116-101.5 157.5t-155.5 59.5q-149 50-247 128.5t-98 236.5q0 157 110.5 252.5t274.5 95.5q209 0 350-98 20-14 17.5-26.5t-13.5-29.5l-51-88q-10-16-24.5-16t-55.5 22q-115 60-209 60-134 0-166-64.5t-32-109.5 21.5-74 54-50.5 74-37.5 93.5-36 118.5-48.5 153.5-94.5 87-233q0-166-120.5-266z" glyph-name="S" horiz-adv-x="962" unicode="&#x53;"/><glyph d="M309 1087h-246q-31 0-30 31v117q0 29 30 29h754q29 0 29-27v-119q0-31-29-31h-256q-25 0-24-20l-2-1038q0-29-29-29h-141q-33 0-33 27l2 1038q0 22-25 22z" glyph-name="T" horiz-adv-x="878" unicode="&#x54;"/><glyph d="M322 342q0-76 56-126t148-50 147.5 51 55.5 129v891q0 27 31 27h141q31 0 31-25v-897q0-160-116-257t-290-97q-173 0-289 94t-116 260v895q0 27 29 27h143q29 0 29-25v-897z" glyph-name="U" horiz-adv-x="1052" unicode="&#x55;"/><glyph d="M557 0h-158q-31 0-39 27l-337 1198q-10 39 32 39h146q29 0 35-21l163-647 78-328q2-6 5-6t5 6l76 328 160 647q6 20 33 21h139q47 0 33-41l-332-1198q-6-25-39-25z" glyph-name="V" horiz-adv-x="946" unicode="&#x56;"/><glyph d="M1087 0h-157q-28 0-35 20-35 166-69.5 332t-71.5 332l-41 207q0 2-3 2-3-1-8-27t-15.5-79-32.5-163-57.5-274-68.5-330q-8-20-36-20h-156q-29 0-35 18l-281 1211q0 12 3.5 23.5t25.5 11.5h152q25 0 30-29 35-160 67-319.5t67-319.5l49-264q4-4 8-4t9 34 18.5 99 23.5 127q35 166 68.5 327.5t68.5 327.5q5 21 35 21h133q27 0 33-25l143-651 52-256q0-6 6-6t6 6q12 66 24.5 131t22.5 131l127 645q6 25 33 25h141q41 0 31-39l-275-1202q-6-23-35-23z" glyph-name="W" horiz-adv-x="1419" unicode="&#x57;"/><glyph d="M207 0h-141q-50 0-29 43 76 143 154.5 292t123.5 233 45 94-12 30l-282 537q-14 37 32 37h150q33 0 51-31 47-94 90-186.5t88-186.5q10-10 21 2l178 371q18 31 51 31h139q23 0 32-12.5t-1-30.5l-285-537q-14-25 0-53 78-147 159-298t159-298q18-37-29-37h-143q-20 0-31.5 4t-21.5 25l-213 426q-8 16-19 0l-211-426q-10-23-22.5-26t-32.5-3z" glyph-name="X" horiz-adv-x="954" unicode="&#x58;"/><glyph d="M197 1264q38 0 51-29l203-528q12-14 18-2 146 375 201 526 10 18 19 25.5t38 7.5h131q29 0 32-11.5t-3-25.5l-316-729q-10-27-10-52v-415q0-31-31-31h-141q-31 0-31 29v422q0 25-10 43l-315 731q-15 39 24 39h140z" glyph-name="Y" horiz-adv-x="921" unicode="&#x59;"/><glyph d="M795 178q28 0 28-28v-121q0-29-28-29h-680q-27 0-38 13.5t-11 29.5v63q0 32 12 56t49 92 86 162 106.5 201.5 106.5 200.5 85 161.5 47 88.5-17 19h-412q-29 0-29 31v119q0 27 31 27h627q29 0 39-9.5t10-31.5v-66q0-34-27-88l-456-866q-18-25 10-25h461z" glyph-name="Z" horiz-adv-x="882" unicode="&#x5a;"/><glyph d="M565-279q0-25-24-24h-320q-25 0-24 24v1659q0 29 26 29h318q25 0 24-27v-114q0-25-24-25h-123q-29 0-29-31v-1323q0-31 29-30h123q25 0 24-25v-113z" glyph-name="bracketleft" horiz-adv-x="694" unicode="&#x5b;"/><glyph d="M602-135h-72q-33 0-43 29l-477 1456q-10 33 23 32h65q41 0 52-28l475-1452q9-37-23-37z" glyph-name="backslash" horiz-adv-x="636" unicode="&#x5c;"/><glyph d="M471-279q0-25-25-24h-319q-25 0-25 24v113q0 25 25 25h123q29 0 29 30v1323q0 29-29 29h-123q-25 0-25 27v112q0 29 25 29h317q27 0 27-27v-1661z" glyph-name="bracketright" horiz-adv-x="679" unicode="&#x5d;"/><glyph d="M526 1284h88q20 0 29.5-5t22.5-22l301-405q25-31-11-59l-47-33q-20-17-59 22l-272 289q-18 25-39-4l-252-295q-35-35-62-18l-55 34q-33 20-4 56l309 416q24 24 51 24z" glyph-name="asciicircum" horiz-adv-x="1142" unicode="&#x5e;"/><glyph d="M1034-293q0-25-24-24h-996q-27 0-26 22v96q0 23 26 23h994q27 0 26-23v-94z" glyph-name="underscore" horiz-adv-x="1024" unicode="&#x5f;"/><glyph d="M569 1067q16-23-8-39l-49-31q-28-19-47 7l-219 243q-25 31 6 49l106 64q24 16 45-17z" glyph-name="grave" horiz-adv-x="823" unicode="&#x60;"/><glyph d="M598 312q0 66-42 114.5t-124 48.5-126-48-44-119 40-118 125-47 128 51.5 43 117.5zM807 25q0-25-23-25h-135q-23 0-22 20v29q1 34-37 1-20-18-74.5-39t-118.5-21q-152 0-233.5 82t-81.5 228 87 232 247 86q95 0 168-43 31-20 30 13v28q0 63-38.5 103.5t-116.5 40.5-143.5-18.5-89.5-29.5-33 17l-37 92q-6 25 14 35 139 64 312 64t249-90.5 76-243.5v-561z" glyph-name="a" horiz-adv-x="921" unicode="&#x61;"/><glyph d="M492 750q-86 0-137.5-53.5t-51.5-127.5v-235q0-74 46-126t132-52 132 46 46 132l3 235q0 74-42 127.5t-128 53.5zM293 25q0-25-23-25h-133q-27 0-26 25v1253q0 27 26 27h142q25 0 24-25v-416q0-38 36-10 81 61 181 61 176 0 255-97t79-249v-235q0-151-90.5-247.5t-238.5-96.5-208 73q-24 24-24-10v-28z" glyph-name="b" horiz-adv-x="942" unicode="&#x62;"/><glyph d="M88 332v233q0 160 108 256.5t271 96.5q204 0 321-170 18-30-10-50l-92-65q-23-16-34-7t-21 25q-31 47-82 73t-86 26q-78 0-129-49.5t-51-125.5v-247q0-74 51-122t137-48 123 44 53 66 45 0l84-55q37-24 19-49-117-176-332-176-170 0-272.5 92t-102.5 252z" glyph-name="c" horiz-adv-x="843" unicode="&#x63;"/><glyph d="M468 750q-87 0-135-53.5t-48-127.5v-235q0-78 45-128t128-50 133 52 50 126l2 235q0 74-44 127.5t-131 53.5zM836 25q0-25-27-25h-131q-16 0-19.5 7t-5.5 18v18q-2 33-22 12-71-67-221-67-151 0-234.5 96t-83.5 250v235q0 145 90 245.5t246 100.5q111 0 178-53 16-12 25.5-12t9.5 22v408q0 25 27 25h141q27 0 27-27v-1253z" glyph-name="d" horiz-adv-x="942" unicode="&#x64;"/><glyph d="M464 752q-83 0-122-51.5t-45-127.5q-2-10 3-16t24-6h294q23 0 23 31-4 78-49 124t-128 46zM836 465q0-23-14.5-38t-33.5-15h-462q-18 0-28.5-11.5t-10.5-25.5v-35q0-74 49.5-128t119.5-54 114 30 66 56 31 29 25-7l90-57q34-21 21-43-51-94-140.5-136t-183.5-42q-178 0-281.5 92t-103.5 250v231q0 157 105 258t267.5 101 266-97.5 103.5-259.5v-98z" glyph-name="e" horiz-adv-x="917" unicode="&#x65;"/><glyph d="M186 0q-24 0-24 25v692q0 27-25 26h-80q-25 0-24 27v109q0 25 26 24h78q25 0 25 23v127q0 113 71 189.5t197 76.5 152-19.5 22-42.5l-20-108q-6-31-52-19t-79 13q-101 0-101-115v-104q0-20 25-21h160q27 0 26-24v-109q0-27-24-27h-160q-27 0-27-24v-694q0-25-26-25h-140z" glyph-name="f" horiz-adv-x="598" unicode="&#x66;"/><glyph d="M606 577.5q0 67.5-47 117.5t-127 50-129-50.5-49-116.5 45-116 129-50 131 49 47 116.5zM883 913q30 0 30-32v-115q0-16-5-21.5t-43-.5-59-3-30.5-11-3.5-15q31-59 31-130 0-139-109-235t-270-96l-47-2q-47-6-82-43t-43-78q-4-16 14-14 108 24 197 24 190 0 311-69t121-215q0-83-53.5-151.5t-145.5-113.5q-16-8-30.5-8t-22.5 15l-53 86q-14 25 16 43 56 37 75 70.5t19 51.5q0 70-62 96.5t-154 26.5-220-17-138.5-11-19.5 18q-40 57-40 128t36.5 123 94.5 81q20 10 0 29-59 43-96.5 110.5t-37.5 145.5q0 142 109 240t245 98q137 0 247-74 12-10 26 0 104 69 193 69z" glyph-name="g" horiz-adv-x="929" unicode="&#x67;"/><glyph d="M115 1278q0 27 24 27h144q25 0 24-27v-410q0-14 10.5-18t36.5 16 76.5 34.5 99.5 14.5q162 0 245-96t83-250l2-542q0-27-26-27h-144q-27 0-26 25v542q0 78-43 129.5t-129 51.5-133.5-51.5-47.5-129.5v-53l-2-487q0-27-24-27h-144q-27 0-26 25v39l1 132v198 249z" glyph-name="h" horiz-adv-x="968" unicode="&#x68;"/><glyph d="M315 25q0-25-24-25h-144q-27 0-26 25v852q0 27 24 26h144q27 0 26-26v-852zM340 1167q0-47-36-80.5t-84-33.5-83 32.5-35 80.5 35 82 83 34 84-34 36-81z" glyph-name="i" horiz-adv-x="436" unicode="&#x69;"/><glyph d="M311 903q25 0 25-24v-990q0-186-92-227t-156-41-100 8q-35 8-45.5 15.5t-5.5 29.5l20 109q6 29 38 23t70-6q78 2 78 112v967q0 25 27 24h141zM358 1167q0-47-34.5-81.5t-84-34.5-83 33.5-33.5 81.5 33.5 82 83.5 34 84-34 34-81z" glyph-name="j" horiz-adv-x="460" unicode="&#x6a;"/><glyph d="M838 0h-133q-18 0-24.5 7t-8.5 24l-10 186q-4 87-44 139t-132 52q-93 0-135-56.5t-42-132.5v-194q0-25-24-25h-146q-25 0-24 25v1253q0 27 24 27h144q25 0 24-25v-686q0-25 15-25 6 0 14 9l278 309q14 14 41 14h176q18 0 21.5-11t-4.5-20l-264-290q-6-6-6-14t12-9q211-21 238.5-148.5t31.5-193.5l8-178q0-37-30-37z" glyph-name="k" horiz-adv-x="925" unicode="&#x6b;"/><glyph d="M455 20q0-36-15-36h-78q-132 0-183.5 66t-51.5 210v1024q0 20 18 21h156q20 0 21-19v-1014q0-66 18-86t68-20h24q23 0 23-35v-111z" glyph-name="l" horiz-adv-x="483" unicode="&#x6c;"/><glyph d="M1354 27q0-27-25-27h-143q-25 0-25 25v546q0 123-61.5 151t-101.5 28q-71 0-121-54.5t-50-124.5v-544q0-27-24-27h-141q-27 0-27 25v546q0 73-46.5 126t-121.5 53q-74 0-118-53.5t-44-125.5v-544q0-27-26-27h-144q-27 0-26 25v546q0 151 100 249t256 98q78 0 144.5-32t109.5-81q14-14 26-2 41 47 112 81t152 34q157 0 251-96t94-251v-544z" glyph-name="m" horiz-adv-x="1460" unicode="&#x6d;"/><glyph d="M856 27q0-27-25-27h-143q-27 0-26 25v542q0 78-43.5 129.5t-129.5 51.5-134-50.5-48-128.5v-542q0-27-26-27h-142q-29 0-28 25v852q0 27 26 26h142q23 0 22-24v-41q0-31 32 2t97.5 54 120.5 21q158 0 231.5-95t73.5-249v-544z" glyph-name="n" horiz-adv-x="964" unicode="&#x6e;"/><glyph d="M291 336q0-78 43-129t130-51 134 49 47 131v233q0 80-45 130.5t-131 50.5-132-50.5-46-130.5v-233zM840 336q0-168-98.5-258t-272.5-90-273.5 90-99.5 254v239q0 156 102.5 252.5t271.5 96.5 269.5-90.5 100.5-256.5v-237z" glyph-name="o" horiz-adv-x="937" unicode="&#x6f;"/><glyph d="M662 567q0 78-46.5 128t-128.5 50-132-52-50-126v-235q0-74 50.5-127t130-53 128 53 48.5 127v235zM856 332q0-147-89-246.5t-245-99.5q-116 0-180 53-16 12-26.5 12t-10.5-22v-373q0-25-24-25h-142q-27 0-26 27v1219q0 25 26 24h137q16 0 18.5-7t2.5-17v-19q0-16 8-19t40 23q65 52 168 51 179 0 261-96.5t82-249.5v-235z" glyph-name="p" horiz-adv-x="946" unicode="&#x70;"/><glyph d="M651 567q0 74-46 126t-127 52-132-50-51-128v-235q0-74 43-127t128-53 135 53 50 127v235zM844-342q0-27-27-27h-141q-25 0-25 25v373q0 23-10 22.5t-30-15.5-73.5-32.5-127.5-17.5q-151 0-230.5 98.5t-79.5 247.5v235q0 152 88.5 249t249.5 97q118 0 195-67 10-10 18-7t8 17v21q0 10 2.5 17t18.5 7h137q27 0 27-24v-1219z" glyph-name="q" horiz-adv-x="946" unicode="&#x71;"/><glyph d="M506 723q-193 0-193-225v-471q0-27-26-27h-142q-29 0-28 25v852q0 27 26 26h123q27 0 27-24v-80q0-10 7-13.5t15 7.5q35 47 94.5 86t118.5 39 86-9 19-37l-31-133q-4-20-12-23t-32 2-52 5z" glyph-name="r" horiz-adv-x="624" unicode="&#x72;"/><glyph d="M435-10q-277 0-365 192-4 12-4 20t12 15l106 53q16 8 22.5 4t16.5-16q73-111 201-111 57 0 96 27t39 72-28.5 67.5-81.5 42.5l-132 45q-103 35-146.5 77t-61 81-17.5 99q0 118 93 187.5t227 69.5q193 0 309-114 18-18 0-37l-68-88q-10-10-20-10t-37 20-81 43-89 23q-63 0-104-23.5t-41-66.5q0-66 110-105 59-20 209-70.5t150-226.5q0-125-92.5-197.5t-222.5-72.5z" glyph-name="s" horiz-adv-x="823" unicode="&#x73;"/><glyph d="M164 244v477q0 23-25 22h-78q-29 0-28 25v109q0 27 24 26h80q27 0 27 27v164q0 23 24 30l134 31q18 4 25-4t7-18v-205q0-25 27-25h174q27 0 27-24v-111q0-25-27-25h-176q-25 0-25-22v-440q0-53 20.5-84t71.5-31q52 0 96 9t53 1 13-24l19-99q4-23-21.5-44t-185.5-21q-256 0-256 256z" glyph-name="t" horiz-adv-x="645" unicode="&#x74;"/><glyph d="M842 27q0-27-25-27h-141q-23 0-23 25v26q0 33-26 4-78-67-221-67-142 0-225 95t-83 249v545q0 27 25 26h143q27 0 27-24v-543q0-78 42-129t129-51 135 50 48 128v543q0 27 27 26h141q27 0 27-24v-852z" glyph-name="u" horiz-adv-x="954" unicode="&#x75;"/><glyph d="M489 0h-120q-23 0-31 5t-14 24l-295 837q-14 37 22 37h131q41 0 49-33l121-385 68-239q4-10 9-10t9 8l64 231 121 389q4 10 13 24.5t34 14.5h135q18 0 23.5-11t.5-24l-297-841q-8-27-43-27z" glyph-name="v" horiz-adv-x="856" unicode="&#x76;"/><glyph d="M872 0q-20 0-29 4t-16 25l-116 370-66 242q-8 16-14 0l-68-256-110-356q-6-23-16.5-26t-26.5-3h-113q-18 0-28.5 5t-16.5 26l-229 837q-6 16 0 26.5t22 10.5h141q37 0 45-35l127-581q2-8 8.5-8t8.5 8l74 264 96 311q9 41 43 41h108q14 0 24.5-6t18.5-31l113-362 59-217q2-6 8.5-7t8.5 7l123 579q9 37 47 37h137q35 0 25-37l-234-835q-10-33-41-33h-113z" glyph-name="w" horiz-adv-x="1290" unicode="&#x77;"/><glyph d="M774 0h-135q-23 0-36 9t-28 34l-151 260q-16 25-33-4l-155-270q-17-29-56-29h-133q-23 0-27 12.5t5 24.5l254 399q14 20 14 34t-12 32l-230 360q-12 20-4 29.5t25 9.5h135q23 0 32-3t21-24l139-239q8-14 13.5-12t13.5 16l135 235q12 20 21.5 23.5t31.5 3.5h136q45 0 22-39l-231-360q-13-23-13-34t11-28l258-403q10-16 4-26.5t-27-10.5z" glyph-name="x" horiz-adv-x="811" unicode="&#x78;"/><glyph d="M389-375h-102q-50 0-31 56l92 286q4 14 4 23.5t-18 9.5h-21q-39 0-51 41l-229 827q-14 39 26 39h136q38 0 47-33l90-368 69-305q4-16 13.5-17.5t15.5 17.5l209 667q6 14 15.5 26.5t35.5 12.5h121q45 0 31-45l-391-1194q-11-43-62-43z" glyph-name="y" horiz-adv-x="876" unicode="&#x79;"/><glyph d="M698 903q50 0 50-41v-67q0-38-17-64l-375-534q-16-31 17-31h381q27 0 26-25v-114q0-27-24-27h-641q-45 0-45 39v57q0 35 18 62l385 551q8 10 5 19t-19 9h-342q-27 0-27 25v115q0 27 25 26h583z" glyph-name="z" horiz-adv-x="849" unicode="&#x7a;"/><glyph d="M641-291q0-23-20-22h-31q-166 0-244 70.5t-78 234.5l-2 282q0 140-135 193-29 10-40 19.5t-11 25.5v88q0 23 12 30.5t54 27.5 81 65 39 121v254q0 164 79 234.5t245 70.5h31q20 0 20-23v-112q0-27-27-27h-20q-80 0-102.5-22.5t-27.5-50-5-66.5v-303q0-72-38-131.5t-99-96.5q-23-16 0-26 68-35 102.5-109t34.5-139v-307q0-83 26.5-111.5t108.5-28.5h20q27 0 27-28v-113z" glyph-name="braceleft" horiz-adv-x="718" unicode="&#x7b;"/><glyph d="M305-209q0-27-24-27h-88q-29 0-29 25v1571q0 25 26 24h89q27 0 26-22v-1571z" glyph-name="bar" horiz-adv-x="473" unicode="&#x7c;"/><glyph d="M633 512q0-16-11.5-26t-55.5-26-82-63-38-123l-2-282q0-164-78.5-234.5t-244.5-70.5h-31q-20 0-20 22v113q0 29 26 28h21q84 0 110.5 29t26.5 111v307q0 66 35 139.5t102 108.5q23 10 0 26-61 37-99 96.5t-38 131.5v303q0 80-26.5 109.5t-110.5 29.5h-21q-27 0-26 27v112q0 23 20 23h31q166 0 245.5-70.5t79.5-234.5v-254q0-76 38-121t82-65 55.5-27.5 11.5-30.5v-88z" glyph-name="braceright" horiz-adv-x="718" unicode="&#x7d;"/><glyph d="M716 465q-68 0-124.5 19.5t-110 44-100.5 44-86 19.5-68.5-16.5-66.5-63.5q-23-23-45-4l-82 67q-33 26 50 110.5t210 84.5q81 0 211.5-61.5t184.5-62.5 82.5 25.5 54.5 53.5 55 2l67-53q35-29 15-58-45-70-112-110.5t-135-40.5z" glyph-name="asciitilde" horiz-adv-x="995" unicode="&#x7e;"/><glyph d="M293 664q-51 0-88 33.5t-37 83.5 36 86 88 36 89-36 37-85-37-83.5-88-34.5zM244 543h90q10 0 15-7.5t5-11.5l41-878q0-25-24-25h-156q-25 0-25 23l35 878q0 21 19 21z" glyph-name="exclamdown" horiz-adv-x="552" unicode="&#xa1;"/><glyph d="M522 750q-78 0-129-49.5t-51-125.5v-247q0-74 51-122t137-48 123 44 48 59 21.5 17.5 29.5-10.5l84-55q37-25 18-49-92-135-236-166-23-4-26.5-13.5t-3.5-19.5v-88q0-25-25-24h-76q-25 0-24 22v90q0 23-12.5 26t-20.5 5q-131 25-207 113t-76 223v233q0 139 79 228.5t206 115.5q8 2 19.5 6.5t11.5 20.5v96q0 23 24 23h76q25 0 25-23v-90q0-25 9-28t24-7q133-27 227-159 17-29-10-50l-93-65q-23-16-34-7t-21 25q-31 47-82 73t-86 26z" glyph-name="cent" horiz-adv-x="995" unicode="&#xa2;"/><glyph d="M96 0q-27 0-26 25v112q0 23 28 33 85 24 91 88t6 86v184q0 14-4.5 20.5t-20.5 8.5h-72q-25 0-24 25v112q0 25 24 25h72q25 0 25 29v165q0 163 104.5 266t278.5 103q247 0 342-182 11-28-13-41l-102-62q-28-18-47 11-60 106-180 106-90 0-138.5-49t-48.5-127v-188q0-29 27-29h66q65 0 143-2 27 0 26-23v-112q0-27-24-27l-93 1q-94 1-116 1-29 0-29-29v-108q0-72-6-132.5t-35-101.5q-4-8-3-14t13-4h482q27 0 26-25v-118q0-29-24-29l-236 1q-235 1-512 1z" glyph-name="sterling" horiz-adv-x="995" unicode="&#xa3;"/><glyph d="M504 309q80 0 135 56.5t55 136.5-55 136-136 56-136.5-57-55.5-136 56.5-135.5 136.5-56.5zM495 848q101 0 185-53l100 96q8 10 22.5 12t24.5-12l64-64q25-25 2-45l-98-94q55-80 55-186t-53-187l92-88q22-22 2-43l-70-67q-18-17-42 3t-47 42-48 45q-90-55-186-55t-179 61l-98-98h2q-18-27-43-2l-69 67q-24 19 0 41l98 105q-53 87-53 181 0 95 53 177-53 61-76 85-22 23-24.5 30.5t14.5 23.5l67 66q20 20 41 2l88-96q75 53 176 53z" glyph-name="currency" horiz-adv-x="1007" unicode="&#xa4;"/><glyph d="M121 621q-27 0-27 24v82q0 25 27 25h131q10 0 13 9t-1 17l-194 447q-17 39 22 39h141q20 0 28.5-4.5t19.5-24.5l202-504q6-14 14.5-16t14.5 14l203 502q8 18 18 25.5t33 7.5h131q39 0 23-37l-197-453q-11-22 12-22h152q25 0 24-25v-80q0-27-24-26h-766zM616 397q-24 0-24-32v-340q0-25-27-25h-141q-27 0-27 25v337q0 12-4 22.5t-26 10.5h-246q-27 0-27 27v82q0 25 27 24h766q10 0 17-7t7-17v-82q0-25-24-25h-271z" glyph-name="yen" horiz-adv-x="995" unicode="&#xa5;"/><glyph d="M188-236q-20 0-20 19l2 725q0 18 20 18h97q20 0 20-16l-2-727q-4-18-18-19h-99zM188 616q-20 0-20 19v731q0 18 20 18h97q20 0 20-16v-733q-4-18-18-19h-99z" glyph-name="brokenbar" horiz-adv-x="464" unicode="&#xa6;"/><glyph d="M133 0q-6 6-6 16.5t16 26.5l72 63q30 22 60-14 30-35 91.5-61.5t107.5-26.5q86 0 139 26t53 75-44 79-112 52q-163 54-255.5 122.5t-92.5 173.5q0 147 166 226 12 8 25 8t26-21l39-75q4-12 4-19 0-18-21-26-61-37-61-79t41-72 119-58q183-65 268.5-127.5t85.5-180.5-105-185.5-278-67.5q-88 0-185.5 36.5t-152.5 108.5zM344 1111q0-46 36-74.5t115-56.5q168-59 251-119t83-167q0-170-159-239-12-4-26-4t-19 12l-45 92q-2 2-2 15t22 22q49 27 49 92t-78.5 95.5-129.5 48.5q-140 51-210.5 107.5t-70.5 166.5q0 109 91 180.5t249 71.5q80 0 168-33t145-107q6-6 6-16t-16-27l-66-63q-12-12-25-12t-30 20q-78 86-194 86-56 0-100-22.5t-44-68.5z" glyph-name="section" horiz-adv-x="944" unicode="&#xa7;"/><glyph d="M399 1125q0-46-30.5-76.5t-77.5-30.5-79 30.5-32 76.5 32 78 78 32 77.5-32 31.5-78zM745 1125q0-46-30.5-76.5t-77.5-30.5-79 30.5-32 76.5 31 78 78 32 78.5-32 31.5-78z" glyph-name="dieresis" horiz-adv-x="948" unicode="&#xa8;"/><glyph d="M494 483v271q0 104 68.5 164.5t158.5 60.5q175 0 233-113 8-18-8-26l-61-43q-18-12-29 8-41 68-117 67-53 0-88-32.5t-35-85.5v-271q0-51 34-83.5t80-32.5q81 0 124 63 15 19 33 8l67-43q16-10 4-22-77-115-221-115-109 0-176 58.5t-67 166.5zM1231 776q0 173-133 284t-373 111-368-113.5-128-281.5v-289q0-167 130-281t367-114 371 114 134 281v289zM1335 492q0-234-170.5-363t-438.5-129-434.5 134-166.5 358v278q0 227 168 360.5t435 133.5 437-131.5 170-362.5v-278z" glyph-name="copyright" horiz-adv-x="1447" unicode="&#xa9;"/><glyph d="M391 700.5q0 36.5-27.5 61t-68.5 24.5-67.5-24.5-26.5-61 26.5-63.5 70.5-27 68.5 27 24.5 63.5zM315 1087q240 0 240-217v-344q0-16-4-22t-21-6h-92q-25 0-24 22v10q0 12-13 5-54-43-145-43-92 0-149.5 53t-57.5 149 64.5 152.5 151.5 56.5 122-31q14-14 14 5v10q0 78-100 78-77 0-149-29-20-8-29 14l-21 62q-8 20 25 39 63 36 188 36z" glyph-name="ordfeminine" horiz-adv-x="622" unicode="&#xaa;"/><glyph d="M551 41h-115q-25 0-39 9t-35 32l-231 285q-23 29-20.5 49t20.5 43l236 295q27 32 67 32h117q25 0 32-13t-8-30l-249-309q-12-16-11.5-23.5t9.5-17.5l247-303q14-16 6-32.5t-26-16.5zM938 41h-115q-25 0-39 9t-34 32l-232 285q-23 29-20.5 49t18.5 43l238 295q27 32 67 32h117q25 0 32-13t-7-30l-250-309q-12-16-11.5-23.5t9.5-17.5l247-303q14-16 6-32.5t-26-16.5z" glyph-name="guillemotleft" horiz-adv-x="1050" unicode="&#xab;"/><glyph d="M778 455q0 24-20 24h-643q-14 0-24.5 9.5t-10.5 21.5v84q0 12 10 19.5t23 7.5h770q10 0 20-9.5t10-19.5v-420q0-27-22-27h-88q-25 0-25 25v285z" glyph-name="logicalnot" horiz-adv-x="995" unicode="&#xac;"/><glyph d="M565 430q0-25-24-24h-414q-27 0-27 24v105q0 25 25 24h414q27 0 26-22v-107z" glyph-name="sfthyphen" horiz-adv-x="679" unicode="&#xad;"/><glyph d="M483 1053q0 47-49 47h-57v-101h57q16 0 32.5 15.5t16.5 38.5zM545 782h-39q-18 5-23 17l-55 129q-2 10-12 10h-37v-137q0-18-14-19h-43q-16 0-17 17v350q0 16 17 16h112q61 0 92-31.5t31-68.5q0-70-55-104-10-4-4-17l61-135q9-27-14-27zM680 1053q0 86-66.5 145t-198.5 59-195.5-61-63.5-143v-156q0-82 63.5-143.5t195.5-61.5 198.5 60.5 66.5 144.5v156zM750 899q0-125-92.5-197.5t-239.5-72.5-239.5 71.5-92.5 198.5v150q0 127 92 199.5t238 72.5q226 0 280-103.5t54-168.5v-150z" glyph-name="registered" horiz-adv-x="837" unicode="&#xae;"/><glyph d="M733 1085q0-31-31-30h-428q-33 0-32 30v84q0 31 30 31h428q33 0 33-29v-86z" glyph-name="macron" horiz-adv-x="921" unicode="&#xaf;"/><glyph d="M436 1068q0 52-35 88t-87 36-89-35-37-88 35-90 86-37 89 37 38 89zM318 1303q110 0 178.5-68t68.5-165-74.5-166.5-179.5-69.5-176.5 67.5-71.5 168 72.5 167 182.5 66.5z" glyph-name="degree" horiz-adv-x="638" unicode="&#xb0;"/><glyph d="M928 623q0-37-35-37h-291q-12 0-15-2t-3-13v-286q0-33-35-33h-80q-37 0-37 33v286q0 14-18 15h-283q-37 0-37 35v71q0 35 37 35h283q18 0 18 16v285q0 35 35 35h80q37 0 37-35v-280q0-12 3-16.5t15-4.5h291q35 0 35-35v-69zM901 55q0-45-49-45h-735q-49 0-49 43v58q0 41 49 41h735q49 0 49-41v-56z" glyph-name="plusminus" horiz-adv-x="995" unicode="&#xb1;"/><glyph d="M575 700q0-31-28-30h-453q-18 0-25.5 6t-7.5 24v54q0 33 19 57l280 330q54 63 54 100t-27 62.5-78 25.5-90-41-65-26l-64 41q-14 12-14 22t10 25q82 108 233 108 104 0 176-55t72-144-86-192q-26-28-81.5-94t-84-98.5-46.5-54.5-1-21h279q29 0 28-29v-70z" glyph-name="twosuperior" horiz-adv-x="636" unicode="&#xb2;"/><glyph d="M541 891q0-106-70-166.5t-167-59.5-154.5 27.5-94.5 91.5q-4 12-4 22t17 19l61 33q15 10 27 10t22-16q42-61 96-61t84.5 25.5 30.5 66.5v53q0 39-28.5 65.5t-71.5 26.5h-82q-18 0-24.5 6t-6.5 21v67q0 31 29 31h84q45 0 71.5 24.5t26.5 63.5-27.5 62.5-85.5 23.5-90-47q-14-25-30-25t-23 5l-61 36q-27 14-9 52 75 108 226 108 115 0 183.5-57.5t68.5-152.5-84-152q-4-4-4-7l4-4q43-18 64.5-58t21.5-81v-53z" glyph-name="threesuperior" horiz-adv-x="636" unicode="&#xb3;"/><glyph d="M479 1004q-19-24-47-7l-49 31q-23 14-8 39l166 276q21 32 45 19l106-66q33-20 6-47z" glyph-name="acute" horiz-adv-x="913" unicode="&#xb4;"/><glyph d="M850 25q0-25-25-25h-135q-27 0-26 25v24q0 10-9.5 13.5t-21.5-8.5-64-39q-51-27-117-27t-118 39q-16 10-24.5 3t-8.5-18v-356q0-27-25-27h-141q-29 0-29 25v1223q0 25 25 24h143q25 0 25-24v-549q0-72 52-122t128-50 126 50 50 122v549q0 25 27 24h141q27 0 27-24v-852z" glyph-name="mu" horiz-adv-x="978" unicode="&#xb5;"/><glyph d="M850 25q0-25-25-25h-135q-27 0-26 25v24q0 10-9.5 13.5t-21.5-8.5-64-39q-51-27-117-27t-118 39q-16 10-24.5 3t-8.5-18v-356q0-27-25-27h-141q-29 0-29 25v1223q0 25 25 24h143q25 0 25-24v-549q0-72 52-122t128-50 126 50 50 122v549q0 25 27 24h141q27 0 27-24v-852z" glyph-name="mu" horiz-adv-x="978" unicode="&#x3bc;"/><glyph d="M414 627q-151 0-246.5 97.5t-95.5 239.5q0 141 99 242t243 101h170q10 0 17-7.5t7-17.5v-633q0-23-24-22h-170zM877 174q0-352-381-373-10 0-16.5 3t-10.5 20l-12 98q-5 29 20 33 190 22 209 98t19 125v1104q0 10 7 17.5t17 7.5h121q12 0 19.5-7.5t7.5-17.5v-1108z" glyph-name="paragraph" horiz-adv-x="989" unicode="&#xb6;"/><glyph d="M227 358q-51 0-87 35t-36 85 36 86 86 36 87-36 37-85-36-85-87-36z" glyph-name="periodcentered" horiz-adv-x="452" unicode="&#xb7;"/><glyph d="M535-254q0 64-74 64h-60q-35 0-53 20t-8 55l37 140q7 28 24 28h66q10 0 13-11t-1-22l-24-102q0-8 14-8h20q72 0 117-44t45-114-53.5-120-144.5-50-164 49q-18 12-6 31l34 45q14 16 21.5 13t40.5-19 73-16 61.5 17 21.5 44z" glyph-name="cedilla" horiz-adv-x="839" unicode="&#xb8;"/><glyph d="M102 1237v74q0 26 25 43l149 84q14 8 33 8h53q23 0 28-9.5t5-25.5v-711q0-31-30-30h-86q-35 0-35 30v553q0 14-11 7l-77-39q-23-12-38.5-8t-15.5 24z" glyph-name="onesuperior" horiz-adv-x="579" unicode="&#xb9;"/><glyph d="M420 854q0 41-29 67.5t-75 26.5-75.5-26.5-29.5-67.5v-145q0-41 27.5-69t75.5-28 75 27 31 70v145zM573 711q0-111-71.5-170.5t-187.5-59.5-186.5 59.5-70.5 166.5v149q0 100 71 161.5t185.5 61.5 187-58 72.5-165v-145z" glyph-name="ordmasculine" horiz-adv-x="630" unicode="&#xba;"/><glyph d="M137 41q-18 0-26.5 16.5t6.5 32.5l248 303q8 10 9 17.5t-12 23.5l-249 309q-14 16-7 29.5t31 13.5h117q29 0 42-9t26-23l237-295q16-23 18.5-43.5t-20.5-48.5l-231-285q-36-41-74-41h-115zM639 41h-115q-18 0-26.5 16.5t6.5 32.5l248 303q8 10 9 17.5t-11 23.5l-250 309q-14 16-7 29.5t31 13.5h117q29 0 42-9t26-23l235-295q18-23 20.5-43.5t-20.5-48.5l-231-285q-20-23-34.5-32t-39.5-9z" glyph-name="guillemotright" horiz-adv-x="1050" unicode="&#xbb;"/><glyph d="M1087 291q17 0 17 16v156q0 16 18 16h107q18 0 18-18v-152q0-18 15-18h75q20 0 21-17v-88q0-18-19-18h-73q-18 0-19-16v-134q0-18-18-18h-109q-16 0-16 18v134q0 16-21 16h-295q-20 0-20 18v45q0 34 12 60l252 475q8 10 27 10h108q10 0 16.5-5t-1.5-17l-234-449q-4-4-2-9t12-5h129zM348-61q-26 0-16 26l573 1342q9 18 33 18h68q23 0 25.5-9t-3.5-24l-573-1337q-6-16-27-16h-80zM127 1053v73q0 28 25 43l149 84q14 8 33 9h53q23 0 28-9.5t5-25.5v-711q0-31-31-31h-86q-35 0-35 31v553q0 14-10 6l-78-39q-23-12-38-8t-15 25z" glyph-name="onequarter" horiz-adv-x="1495" unicode="&#xbc;"/><glyph d="M131 1053v73q0 28 25 43l149 84q14 8 33 9h53q23 0 28-9.5t5-25.5v-711q0-31-31-31h-86q-35 0-35 31v553q0 14-10 6l-78-39q-23-12-38-8t-15 25zM324-61q-27 0-17 26l574 1342q9 18 32 18h68q23 0 26-9t-3-24l-574-1337q-6-16-27-16h-79zM1341 29q0-31-28-31h-453q-18 0-25.5 6t-7.5 25v53q0 34 19 57l280 330q54 63 54 100t-27 62.5-79 25.5-90-41-64-26l-64 43q-25 18-4 45 82 108 233 108 104 0 176-55t72-146-86-188q-23-27-50.5-59.5t-57-67-58-67.5-46.5-55-1-21h279q29 0 28-29v-69z" glyph-name="onehalf" horiz-adv-x="1495" unicode="&#xbd;"/><glyph d="M410-61q-27 0-17 26l574 1342q9 18 32 18h68q23 0 26-9t-3-24l-574-1337q-6-16-27-16h-79zM1143 291q16 0 16 16v156q0 16 19 16h106q18 0 19-18v-152q0-18 14-18h76q20 0 20-17v-88q0-18-18-18h-74q-18 0-18-16v-134q0-18-19-18h-108q-16 0-17 18v134q0 16-20 16h-295q-20 0-21 18v45q0 35 13 60l251 475q8 10 27 10h109q10 0 16-5t-2-17l-233-449q-4-4-2-9t12-5h129zM248 844q-31 0-31 26v68q0 31 29 31h84q45 0 71.5 24.5t26.5 63.5-27 62.5-85 23.5-91-47q-13-25-29-25t-24 4l-61 37q-28 14-9 51 76 109 226 109 115 0 183.5-57.5t68.5-151.5-84-154q-4-4-4-6l4-4q43-18 64.5-58t21.5-81v-53q0-106-70-167t-167-60-154.5 28-94.5 92q-4 12-4 22t17 19l61 33q15 10 27 10t22-16q43-62 97-62t84 25.5 30 66.5v54q0 39-28.5 65.5t-71.5 26.5h-82z" glyph-name="threequarters" horiz-adv-x="1495" unicode="&#xbe;"/><glyph d="M535 781q0 50 35.5 86t87.5 36 88-36 36-85-36-83.5-88-34.5-87.5 33.5-35.5 83.5zM174-55q0 91 60.5 174.5t143.5 134.5 131 101.5 48 127.5v39q0 10 8 17.5t19 7.5h135q20 0 27.5-7.5t7.5-29.5v-61q0-78-45-156t-128-133-140.5-104.5-62.5-115.5 43-118.5 123-52.5 116.5 28.5 80.5 81.5q19 24 43 8l97-63q23-16 8-45-104-178-338-178-165 0-271 88.5t-106 255.5z" glyph-name="questiondown" horiz-adv-x="1019" unicode="&#xbf;"/><glyph d="M260 1624q14 0 25-10l258-195q25-18 6-39l-33-47q-22-22-47-12l-295 145q-10 4-18.5 16.5t6.5 30.5l76 101q8 10 22 10zM475 1040q-4 0-6-6l-51-241-78-334q-4-19 12-19h248q18 0 12 19l-77 327-54 246q-2 8-6 8zM899 0h-145q-29 0-35 20l-57 236q-4 10-6.5 14t-12.5 4h-332q-12 0-14-5t-6-11l-55-238q-6-20-33-20h-135q-41 0-31 37l301 1200q6 27 37 27h205q28 0 34-25l310-1200q4-10 1-24.5t-26-14.5z" glyph-name="Agrave" horiz-adv-x="962" unicode="&#xc0;"/><glyph d="M669.5 1624q14.5 0 22.5-10l76-101q14-18 6-30.5t-18-16.5l-299-149q-25-10-43 16l-33 47q-18 20 6 39l258 195q10 10 24.5 10zM475 1040q-4 0-6-6l-51-241-78-334q-4-19 12-19h248q18 0 12 19l-77 327-54 246q-2 8-6 8zM899 0h-145q-29 0-35 20l-57 236q-4 10-6.5 14t-12.5 4h-332q-12 0-14-5t-6-11l-55-238q-6-20-33-20h-135q-41 0-31 37l301 1200q6 27 37 27h205q28 0 34-25l310-1200q4-10 1-24.5t-26-14.5z" glyph-name="Aacute" horiz-adv-x="962" unicode="&#xc1;"/><glyph d="M475 1040q-4 0-6-6l-51-241-78-334q-4-19 12-19h248q18 0 12 19l-77 327-54 246q-2 8-6 8zM412 1622h102q24 0 45-23l195-196q25-25 0-43l-45-39q-10-8-19.5-4t-23.5 12l-193 127q-12 8-24 0l-189-129q-24-17-45-2l-41 39q-26 19-2 43l197 192q23 23 43 23zM899 0h-145q-29 0-35 20l-57 236q-4 10-6.5 14t-12.5 4h-332q-12 0-14-5t-6-11l-55-238q-6-20-33-20h-135q-41 0-31 37l301 1200q6 27 37 27h205q28 0 34-25l310-1200q4-10 1-24.5t-26-14.5z" glyph-name="Acircumflex" horiz-adv-x="962" unicode="&#xc2;"/><glyph d="M457.5 1369q-77.5 34-114.5 34-38 0-75-55-19-19-43 0l-53 38q-15 12-4 39 27 51 73 85t89 34q55 0 137-35.5t117-35.5q36 0 69 55 10 20 33 8l64-37q22-14 8-43-33-63-81-92t-95-29-124.5 34zM475 1040q-4 0-6-6l-51-241-78-334q-4-19 12-19h248q18 0 12 19l-77 327-54 246q-2 8-6 8zM899 0h-145q-29 0-35 20l-57 236q-4 10-6.5 14t-12.5 4h-332q-12 0-14-5t-6-11l-55-238q-6-20-33-20h-135q-41 0-31 37l301 1200q6 27 37 27h205q28 0 34-25l310-1200q4-10 1-24.5t-26-14.5z" glyph-name="Atilde" horiz-adv-x="962" unicode="&#xc3;"/><glyph d="M397 1433q0-46-30.5-77t-77.5-31-79 30.5-32 76.5 32 78 78 32 77.5-31.5 31.5-77.5zM743 1433q0-46-30.5-77t-77.5-31-79 30.5-32 76.5 31 78 78 32 78.5-31.5 31.5-77.5zM475 1040q-4 0-6-6l-51-241-78-334q-4-19 12-19h248q18 0 12 19l-77 327-54 246q-2 8-6 8zM899 0h-145q-29 0-35 20l-57 236q-4 10-6.5 14t-12.5 4h-332q-12 0-14-5t-6-11l-55-238q-6-20-33-20h-135q-41 0-31 37l301 1200q6 27 37 27h205q28 0 34-25l310-1200q4-10 1-24.5t-26-14.5z" glyph-name="Adieresis" horiz-adv-x="962" unicode="&#xc4;"/><glyph d="M553 1472q0 36-26.5 63.5t-61.5 27.5-59.5-27-24.5-63.5 24.5-62.5 59.5-26 61.5 26 26.5 62zM475 1040q-4 0-6-6l-51-241-78-334q-4-19 12-19h248q18 0 12 19l-77 327-54 246q-2 8-6 8zM281 1470.5q0 76.5 54 130.5t130 54 130-52 54-127-53-129.5-129-54.5-131 51-55 127.5zM899 0h-145q-29 0-35 20l-57 236q-4 10-6.5 14t-12.5 4h-332q-12 0-14-5t-6-11l-55-238q-6-20-33-20h-135q-41 0-31 37l301 1200q6 27 37 27h205q28 0 34-25l310-1200q4-10 1-24.5t-26-14.5z" glyph-name="Aring" horiz-adv-x="962" unicode="&#xc5;"/><glyph d="M408 471h282q27 0 27 27v573q0 16-19 16h-71q-16 0-25-16l-205-584q-8-16 11-16zM1432 178q29 0 28-28v-121q0-29-28-29h-684q-31 0-31 27v239q0 10-3 20.5t-24 10.5h-344q-12 0-15-5t-7-13l-93-254q-8-25-34-25h-138q-35 0-24 43 41 111 101.5 268.5t124 326.5 123.5 326.5 101 268.5q12 31 47 31h889q31 0 31-27v-119q0-31-29-31h-479q-25 0-24-20v-307q0-25 22-25h395q29 0 29-28v-119q0-31-27-31h-397q-23 0-22-25v-329q0-10 3-17.5t19-7.5h490z" glyph-name="AE" horiz-adv-x="1523" unicode="&#xc6;"/><glyph d="M602-254q0 64-74 64h-59q-35 0-53.5 20t-7.5 55l28 109q-141 18-228 110.5t-87 239.5v582q0 162 108.5 259t276.5 97q100 0 192.5-34t169.5-136q21-25-8-49l-94-74q-12-10-26.5-5t-22.5 17q-77 103-223 103-76 0-124-52.5t-48-129.5v-578q0-76 51-127t127-51q130 0 217 98 10 10 21.5 19.5t27.5-2.5l102-72q25-14 11-41-120-171-340-180l-17-70q0-8 15-8h20q72 0 117-44t45-113-53-120-145-51-165 49q-18 12-6 31l35 45q14 16 21.5 13t39.5-19 72-16 62 17 22 44z" glyph-name="Ccedilla" horiz-adv-x="923" unicode="&#xc7;"/><glyph d="M274.5 1624q14.5 0 24.5-10l258-195q25-18 6-39l-33-47q-21-21-47-12l-295 145q-10 4-18 16.5t6 30.5l76 101q8 10 22.5 10zM825 1264q31 0 31-29v-117q0-31-29-31h-477q-25 0-24-20v-297q0-27 24-27h393q29 0 29-30v-117q0-29-27-29h-395q-25 0-24-24v-340q0-25 26-25h484q29 0 28-28v-119q0-31-28-31h-680q-31 0-31 29v1206q0 29 31 29h669z" glyph-name="Egrave" horiz-adv-x="929" unicode="&#xc8;"/><glyph d="M628.5 1624q14.5 0 22.5-10l76-101q14-18 6-30.5t-18-16.5l-299-149q-25-10-43 16l-33 47q-18 20 6 39l258 195q10 10 24.5 10zM825 1264q31 0 31-29v-117q0-31-29-31h-477q-25 0-24-20v-297q0-27 24-27h393q29 0 29-30v-117q0-29-27-29h-395q-25 0-24-24v-340q0-25 26-25h484q29 0 28-28v-119q0-31-28-31h-680q-31 0-31 29v1206q0 29 31 29h669z" glyph-name="Eacute" horiz-adv-x="929" unicode="&#xc9;"/><glyph d="M410 1622h102q24 0 45-23l195-196q25-25 0-43l-45-39q-10-8-19.5-4t-23.5 12l-193 127q-12 8-25 0l-188-129q-24-17-45-2l-41 39q-26 19-2 43l197 192q23 23 43 23zM825 1264q31 0 31-29v-117q0-31-29-31h-477q-25 0-24-20v-297q0-27 24-27h393q29 0 29-30v-117q0-29-27-29h-395q-25 0-24-24v-340q0-25 26-25h484q29 0 28-28v-119q0-31-28-31h-680q-31 0-31 29v1206q0 29 31 29h669z" glyph-name="Ecircumflex" horiz-adv-x="929" unicode="&#xca;"/><glyph d="M424 1433q0-46-31-77t-78-31-78.5 30.5-31.5 76.5 31.5 78 77.5 32 78-31.5 32-77.5zM770 1433q0-46-30.5-77t-78-31-79 30.5-31.5 76.5 30.5 78 78 32 79-31.5 31.5-77.5zM825 1264q31 0 31-29v-117q0-31-29-31h-477q-25 0-24-20v-297q0-27 24-27h393q29 0 29-30v-117q0-29-27-29h-395q-25 0-24-24v-340q0-25 26-25h484q29 0 28-28v-119q0-31-28-31h-680q-31 0-31 29v1206q0 29 31 29h669z" glyph-name="Edieresis" horiz-adv-x="929" unicode="&#xcb;"/><glyph d="M38.5 1624q14.5 0 24.5-10l259-195q25-18 6-39l-33-47q-22-22-47-12l-295 145q-10 4-18.5 16.5t6.5 30.5l75 101q8 10 22.5 10zM180 0q-31 0-30 27v1210q0 27 30 27h144q31 0 30-27v-1208q0-29-30-29h-144z" glyph-name="Igrave" horiz-adv-x="509" unicode="&#xcc;"/><glyph d="M466.5 1624q14.5 0 22.5-10l76-101q14-18 6-30.5t-18-16.5l-299-149q-25-10-43 16l-33 47q-18 20 6 39l258 195q10 10 24.5 10zM180 0q-31 0-30 27v1210q0 27 30 27h144q31 0 30-27v-1208q0-29-30-29h-144z" glyph-name="Iacute" horiz-adv-x="509" unicode="&#xcd;"/><glyph d="M195 1638h102q23 0 45-22l195-197q25-25 0-43l-45-39q-13-10-43 9l-193 127q-12 8-25 0l-188-130q-24-17-45-2l-41 39q-26 19-2 43l197 193q22 22 43 22zM180 0q-31 0-30 27v1210q0 27 30 27h144q31 0 30-27v-1208q0-29-30-29h-144z" glyph-name="Icircumflex" horiz-adv-x="509" unicode="&#xce;"/><glyph d="M178 1433q0-46-30.5-77t-77.5-31-79 30.5-32 76.5 32 78 78 32 77.5-31.5 31.5-77.5zM524 1433q0-46-30.5-77t-77.5-31-79 30.5-32 76.5 31 78 78 32 78.5-31.5 31.5-77.5zM180 0q-31 0-30 27v1210q0 27 30 27h144q31 0 30-27v-1208q0-29-30-29h-144z" glyph-name="Idieresis" horiz-adv-x="509" unicode="&#xcf;"/><glyph d="M330 735q0-24 20-24h135q29 0 29-27v-84q0-27-27-27h-137q-20 0-20-14v-354q0-27 24-27h189q96 0 141 51.5t45 139.5v530q0 188-199 188h-174q-27 0-26-24v-328zM160 0q-33 0-33 29v522q0 10-2 16t-16 6h-60q-27 0-26 27v84q0 27 24 27h62q18 0 18 22v502q0 29 33 29h389q190 0 286.5-98.5t96.5-274.5v-508q0-186-97.5-284.5t-281.5-98.5h-393z" glyph-name="Eth" horiz-adv-x="1044" unicode="&#xd0;"/><glyph d="M527.5 1361q-77.5 34-114.5 34-38 0-75-56-19-19-43 0l-53 39q-17 13 3 52 20 38 65.5 72t89.5 34q53 0 137-36t108-36q43 0 78 56 10 20 33 8l63-37q22-14 8-43-33-63-81-92t-95-29q-46 0-123.5 34zM969 41q0-41-41-41h-90q-25 0-37.5 6t-22.5 25l-452 809q0 4-4 4l-3-4v-813q0-27-30-27h-131q-33 0-33 27v1187q0 25 8 37.5t37 12.5h90q27 0 38-9.5t21-25.5l451-813q2-2 5-2t3 2v819q0 29 29 29h131q31 0 31-27v-1196z" glyph-name="Ntilde" horiz-adv-x="1093" unicode="&#xd1;"/><glyph d="M358.5 1624q14.5 0 24.5-10l258-195q25-18 6-39l-33-47q-21-21-47-12l-295 145q-10 4-18 16.5t6 30.5l76 101q8 10 22.5 10zM727 918q0 78-52.5 132t-148.5 54-150-54.5-54-131.5v-566q0-80 52-133t148-53 150.5 52 54.5 134v566zM930 350q0-164-111.5-263t-290-99-293 95-114.5 267v570q0 166 113.5 264t288.5 98 291-97.5 116-264.5v-570z" glyph-name="Ograve" horiz-adv-x="1050" unicode="&#xd2;"/><glyph d="M704.5 1624q14.5 0 22.5-10l76-101q14-18 6-30.5t-18-16.5l-299-149q-25-10-43 16l-33 47q-18 20 6 39l258 195q10 10 24.5 10zM727 918q0 78-52.5 132t-148.5 54-150-54.5-54-131.5v-566q0-80 52-133t148-53 150.5 52 54.5 134v566zM930 350q0-164-111.5-263t-290-99-293 95-114.5 267v570q0 166 113.5 264t288.5 98 291-97.5 116-264.5v-570z" glyph-name="Oacute" horiz-adv-x="1050" unicode="&#xd3;"/><glyph d="M469 1622h102q24 0 45-23l195-196q25-25 0-43l-45-39q-10-8-19.5-4t-23.5 12l-193 127q-12 8-24 0l-189-129q-14-10-22-11t-23 9l-41 39q-26 19-2 43l197 192q23 23 43 23zM727 918q0 78-52.5 132t-148.5 54-150-54.5-54-131.5v-566q0-80 52-133t148-53 150.5 52 54.5 134v566zM930 350q0-164-111.5-263t-290-99-293 95-114.5 267v570q0 166 113.5 264t288.5 98 291-97.5 116-264.5v-570z" glyph-name="Ocircumflex" horiz-adv-x="1050" unicode="&#xd4;"/><glyph d="M523.5 1381.5q-73.5 33.5-112.5 33.5-40 0-77-55-19-19-43 0l-53 39q-15 12-5 39 27 51 73 84.5t90 33.5q57 0 137-35.5t115-35.5q36 0 71 55 10 20 33 8l63-37q22-14 8-43-33-63-81-91.5t-97-28.5q-48 0-121.5 33.5zM727 918q0 78-52.5 132t-148.5 54-150-54.5-54-131.5v-566q0-80 52-133t148-53 150.5 52 54.5 134v566zM930 350q0-164-111.5-263t-290-99-293 95-114.5 267v570q0 166 113.5 264t288.5 98 291-97.5 116-264.5v-570z" glyph-name="Otilde" horiz-adv-x="1050" unicode="&#xd5;"/><glyph d="M457 1433q0-46-31-77t-78-31-78.5 30.5-31.5 76.5 31.5 78 77.5 32 78-31.5 32-77.5zM803 1433q0-46-31-77t-78-31-78.5 30.5-31.5 76.5 30.5 78 77.5 32 79-31.5 32-77.5zM727 918q0 78-52.5 132t-148.5 54-150-54.5-54-131.5v-566q0-80 52-133t148-53 150.5 52 54.5 134v566zM930 350q0-164-111.5-263t-290-99-293 95-114.5 267v570q0 166 113.5 264t288.5 98 291-97.5 116-264.5v-570z" glyph-name="Odieresis" horiz-adv-x="1050" unicode="&#xd6;"/><glyph d="M176 217q-25 27 0 51l205 207q14 12 4 23l-209 207q-27 23 0 47l57 57q25 25 50 2l209-207q10-10 22 4l205 203q25 25 51 2l49-51q25-25 0-51l-205-203q-8-8-9-12t7-13l205-207q23-27 0-49l-57-57q-25-29-51-2l-201 205q-8 10-12 11t-15-9l-205-207q-27-23-51 0z" glyph-name="multiply" horiz-adv-x="995" unicode="&#xd7;"/><glyph d="M727 852q0 20-10 8l-344-622q-8-16 2-23 51-51 146-51t150.5 52 55.5 134v502zM322 414q0-12 5-12.5t9 6.5l338 610q4 10 6 16t-14 23-56.5 32-85.5 15q-92 0-147-54.5t-55-131.5v-504zM119 344v373q0 373 119.5 468t269.5 95q149 0 256-59 8-4 14-4t10 8l31 51q14 20 33 8l63-33q20-10 7-32l-45-80q-6-12 0-29 53-81 53-184v-580q0-164-113.5-261t-277.5-97-252 57q-6 6-14.5 6t-12.5-9-11-20.5-16-27.5-28-6l-66 35q-17 8-4 34l37 66q11 16-5 39t-32 75-16 107z" glyph-name="Oslash" horiz-adv-x="1050" unicode="&#xd8;"/><glyph d="M323.5 1624q14.5 0 24.5-10l258-195q25-18 6-39l-32-47q-22-22-48-12l-294 145q-10 4-18.5 16.5t5.5 30.5l76 101q8 10 22.5 10zM322 342q0-76 56-126t148-50 147.5 51 55.5 129v891q0 27 31 27h141q31 0 31-25v-897q0-160-116-257t-290-97q-173 0-289 94t-116 260v895q0 27 29 27h143q29 0 29-25v-897z" glyph-name="Ugrave" horiz-adv-x="1052" unicode="&#xd9;"/><glyph d="M690.5 1624q14.5 0 22.5-10l75-101q14-18 6-30.5t-18-16.5l-299-149q-25-10-43 16l-33 47q-18 20 7 39l258 195q10 10 24.5 10zM322 342q0-76 56-126t148-50 147.5 51 55.5 129v891q0 27 31 27h141q31 0 31-25v-897q0-160-116-257t-290-97q-173 0-289 94t-116 260v895q0 27 29 27h143q29 0 29-25v-897z" glyph-name="Uacute" horiz-adv-x="1052" unicode="&#xda;"/><glyph d="M465 1622h102q24 0 45-23l195-196q25-25 0-43l-45-39q-10-8-19.5-4t-23.5 12l-193 127q-12 8-24 0l-189-129q-14-10-22-11t-23 9l-41 39q-26 19-2 43l197 192q23 23 43 23zM322 342q0-76 56-126t148-50 147.5 51 55.5 129v891q0 27 31 27h141q31 0 31-25v-897q0-160-116-257t-290-97q-173 0-289 94t-116 260v895q0 27 29 27h143q29 0 29-25v-897z" glyph-name="Ucircumflex" horiz-adv-x="1052" unicode="&#xdb;"/><glyph d="M457 1433q0-46-31-77t-78-31-78.5 30.5-31.5 76.5 31.5 78 77.5 32 78-31.5 32-77.5zM803 1433q0-46-31-77t-78-31-78.5 30.5-31.5 76.5 30.5 78 77.5 32 79-31.5 32-77.5zM322 342q0-76 56-126t148-50 147.5 51 55.5 129v891q0 27 31 27h141q31 0 31-25v-897q0-160-116-257t-290-97q-173 0-289 94t-116 260v895q0 27 29 27h143q29 0 29-25v-897z" glyph-name="Udieresis" horiz-adv-x="1052" unicode="&#xdc;"/><glyph d="M636.5 1624q14.5 0 22.5-10l76-101q14-18 6-30.5t-18-16.5l-299-149q-25-10-43 16l-33 47q-18 20 6 39l258 195q10 10 24.5 10zM197 1264q38 0 51-29l203-528q12-14 18-2 146 375 201 526 10 18 19 25.5t38 7.5h131q29 0 32-11.5t-3-25.5l-316-729q-10-27-10-52v-415q0-31-31-31h-141q-31 0-31 29v422q0 25-10 43l-315 731q-15 39 24 39h140z" glyph-name="Yacute" horiz-adv-x="921" unicode="&#xdd;"/><glyph d="M526 838h-172q-20 0-24-21v-354q0-20 22-21h174q86 0 137.5 53.5t51.5 135.5-53 144.5-136 62.5zM129 1237q0 27 33 27h137q31 0 31-25v-209q4-16 22-16h174q178 0 283.5-105.5t105.5-267.5-110.5-268.5-276.5-106.5h-176q-20 0-20-22v-215q0-29-31-29h-139q-31 0-33 27v1210z" glyph-name="Thorn" horiz-adv-x="966" unicode="&#xde;"/><glyph d="M891 326q0-151-101-249-101-97-231-97h-113q-25 0-24 22v100q0 20 11 25.5t28 5.5h67q71 0 119.5 57t48.5 132v172q0 76-43 120.5t-121 44.5h-20q-25 0-25 23v104q0 23 23 23h29q137 0 137 131 0 72-44 124t-121 52-124-50-47-126v-913q0-27-25-27h-143q-27 0-27 25v907q0 152 98 252t264 100 264.5-96.5 98.5-251.5q0-57-22.5-112.5t-75.5-82.5q-19-8 0-20 59-29 89-90.5t30-132.5v-172z" glyph-name="germandbls" horiz-adv-x="997" unicode="&#xdf;"/><glyph d="M569 1067q16-23-8-39l-49-31q-28-19-47 7l-219 243q-25 31 6 49l106 64q24 16 45-17zM598 312q0 66-42 114.5t-124 48.5-126-48-44-119 40-118 125-47 128 51.5 43 117.5zM807 25q0-25-23-25h-135q-23 0-22 20v29q1 34-37 1-20-18-74.5-39t-118.5-21q-152 0-233.5 82t-81.5 228 87 232 247 86q95 0 168-43 31-20 30 13v28q0 63-38.5 103.5t-116.5 40.5-143.5-18.5-89.5-29.5-33 17l-37 92q-6 25 14 35 139 64 312 64t249-90.5 76-243.5v-561z" glyph-name="agrave" horiz-adv-x="921" unicode="&#xe0;"/><glyph d="M479 1004q-20-25-47-7l-49 31q-23 14-8 39l166 276q21 32 45 19l106-66q35-21 6-47zM598 312q0 66-42 114.5t-124 48.5-126-48-44-119 40-118 125-47 128 51.5 43 117.5zM807 25q0-25-23-25h-135q-23 0-22 20v29q1 34-37 1-20-18-74.5-39t-118.5-21q-152 0-233.5 82t-81.5 228 87 232 247 86q95 0 168-43 31-20 30 13v28q0 63-38.5 103.5t-116.5 40.5-143.5-18.5-89.5-29.5-33 17l-37 92q-6 25 14 35 139 64 312 64t249-90.5 76-243.5v-561z" glyph-name="aacute" horiz-adv-x="921" unicode="&#xe1;"/><glyph d="M420 1354h102q22 0 45-23l199-254q25-25 0-43l-47-28q-26-16-45 4l-191 174q-16 14-28 2l-187-178q-19-19-45-2l-45 28q-26 19-2 43l201 254q23 23 43 23zM598 312q0 66-42 114.5t-124 48.5-126-48-44-119 40-118 125-47 128 51.5 43 117.5zM807 25q0-25-23-25h-135q-23 0-22 20v29q1 34-37 1-20-18-74.5-39t-118.5-21q-152 0-233.5 82t-81.5 228 87 232 247 86q95 0 168-43 31-20 30 13v28q0 63-38.5 103.5t-116.5 40.5-143.5-18.5-89.5-29.5-33 17l-37 92q-6 25 14 35 139 64 312 64t249-90.5 76-243.5v-561z" glyph-name="acircumflex" horiz-adv-x="921" unicode="&#xe2;"/><glyph d="M480.5 1074q-77.5 34-114.5 34-38 0-75-55-20-20-43 0l-53 39q-15 12-5 38 27 51 72.5 85t89.5 34q57 0 137.5-35.5t106.5-35.5q46 0 80 55 10 20 33 8l63-37q22-14 8-43-33-63-81-92t-95-29q-46 0-123.5 34zM598 312q0 66-42 114.5t-124 48.5-126-48-44-119 40-118 125-47 128 51.5 43 117.5zM807 25q0-25-23-25h-135q-23 0-22 20v29q1 34-37 1-20-18-74.5-39t-118.5-21q-152 0-233.5 82t-81.5 228 87 232 247 86q95 0 168-43 31-20 30 13v28q0 63-38.5 103.5t-116.5 40.5-143.5-18.5-89.5-29.5-33 17l-37 92q-6 25 14 35 139 64 312 64t249-90.5 76-243.5v-561z" glyph-name="atilde" horiz-adv-x="921" unicode="&#xe3;"/><glyph d="M399 1125q0-46-30.5-76.5t-77.5-30.5-79 30.5-32 76.5 32 78 78 32 77.5-32 31.5-78zM745 1125q0-46-30.5-76.5t-77.5-30.5-79 30.5-32 76.5 31 78 78 32 78.5-32 31.5-78zM598 312q0 66-42 114.5t-124 48.5-126-48-44-119 40-118 125-47 128 51.5 43 117.5zM807 25q0-25-23-25h-135q-23 0-22 20v29q1 34-37 1-20-18-74.5-39t-118.5-21q-152 0-233.5 82t-81.5 228 87 232 247 86q95 0 168-43 31-20 30 13v28q0 63-38.5 103.5t-116.5 40.5-143.5-18.5-89.5-29.5-33 17l-37 92q-6 25 14 35 139 64 312 64t249-90.5 76-243.5v-561z" glyph-name="adieresis" horiz-adv-x="921" unicode="&#xe4;"/><glyph d="M541 1150q0 36-27 63.5t-61.5 27.5-59-26.5-24.5-63.5 24.5-62.5 59-25.5 61.5 25.5 27 61.5zM452 1333q77 0 131-52t54-126-52-129-130-55q-77 0-132 51.5t-55 126 53.5 129.5 130.5 55zM598 312q0 66-42 114.5t-124 48.5-126-48-44-119 40-118 125-47 128 51.5 43 117.5zM807 25q0-25-23-25h-135q-23 0-22 20v29q1 34-37 1-20-18-74.5-39t-118.5-21q-152 0-233.5 82t-81.5 228 87 232 247 86q95 0 168-43 31-20 30 13v28q0 63-38.5 103.5t-116.5 40.5-143.5-18.5-89.5-29.5-33 17l-37 92q-6 25 14 35 139 64 312 64t249-90.5 76-243.5v-561z" glyph-name="aring" horiz-adv-x="921" unicode="&#xe5;"/><glyph d="M994 752q-151 0-167-179-4-22 27-22h295q22 0 22 31-4 78-49 124t-128 46zM598 312q0 66-47 114.5t-119 48.5-118-48-46-117 46-118 121-49 119 51.5 44 117.5zM678 94q-108-104-257-104t-244 84-95 229 94.5 233.5 243.5 88.5q78 0 160-45 14-10 24-7.5t10 19.5v24q0 72-55 109t-134 37-196-51q-27-12-36 16l-37 94q-6 25 14 35 139 64 247 64 182 0 294-97 10-7 24 0 102 97 263 97t264.5-96.5 103.5-260.5v-98q0-23-14.5-38t-32.5-15h-463q-18 0-28.5-11.5t-10.5-25.5v-35q0-74 49.5-128t119.5-54 114 30 66 56 31 29 26-7l90-57q33-21 20-43-97-178-334-178-180 0-286 106-17 18-35 0z" glyph-name="ae" horiz-adv-x="1447" unicode="&#xe6;"/><glyph d="M535-254q0 64-74 64h-60q-35 0-53 20t-8 55l29 111q-129 23-205 112t-76 224v233q0 160 108 256.5t271 96.5q204 0 321-170 18-30-10-50l-92-65q-23-16-34-7t-21 25q-31 47-82 73t-86 26q-78 0-129-49.5t-51-125.5v-247q0-74 51-122t137-48 123 44 53 66 45 0l84-55q37-25 19-49-113-172-324-176l-16-70q0-8 14-8h20q72 0 117-44t45-114-53.5-120-144.5-50-164 49q-18 12-6 31l34 45q14 16 21.5 13t40.5-19 73-16 61.5 17 21.5 44z" glyph-name="ccedilla" horiz-adv-x="843" unicode="&#xe7;"/><glyph d="M557 1067q16-23-8-39l-49-31q-28-19-47 7l-220 243q-25 31 7 49l106 64q24 16 45-17zM464 752q-83 0-122-51.5t-45-127.5q-2-10 3-16t24-6h294q23 0 23 31-4 78-49 124t-128 46zM836 465q0-23-14.5-38t-33.5-15h-462q-18 0-28.5-11.5t-10.5-25.5v-35q0-74 49.5-128t119.5-54 114 30 66 56 31 29 25-7l90-57q34-21 21-43-51-94-140.5-136t-183.5-42q-178 0-281.5 92t-103.5 250v231q0 157 105 258t267.5 101 266-97.5 103.5-259.5v-98z" glyph-name="egrave" horiz-adv-x="917" unicode="&#xe8;"/><glyph d="M479 1004q-20-25-47-7l-49 31q-23 14-8 39l166 276q21 32 45 19l106-66q35-21 6-47zM464 752q-83 0-122-51.5t-45-127.5q-2-10 3-16t24-6h294q23 0 23 31-4 78-49 124t-128 46zM836 465q0-23-14.5-38t-33.5-15h-462q-18 0-28.5-11.5t-10.5-25.5v-35q0-74 49.5-128t119.5-54 114 30 66 56 31 29 25-7l90-57q34-21 21-43-51-94-140.5-136t-183.5-42q-178 0-281.5 92t-103.5 250v231q0 157 105 258t267.5 101 266-97.5 103.5-259.5v-98z" glyph-name="eacute" horiz-adv-x="917" unicode="&#xe9;"/><glyph d="M420 1354h102q22 0 45-23l199-254q25-25 0-43l-47-28q-26-16-45 4l-191 174q-16 14-28 2l-187-178q-19-19-45-2l-45 28q-26 19-2 43l201 254q23 23 43 23zM464 752q-83 0-122-51.5t-45-127.5q-2-10 3-16t24-6h294q23 0 23 31-4 78-49 124t-128 46zM836 465q0-23-14.5-38t-33.5-15h-462q-18 0-28.5-11.5t-10.5-25.5v-35q0-74 49.5-128t119.5-54 114 30 66 56 31 29 25-7l90-57q34-21 21-43-51-94-140.5-136t-183.5-42q-178 0-281.5 92t-103.5 250v231q0 157 105 258t267.5 101 266-97.5 103.5-259.5v-98z" glyph-name="ecircumflex" horiz-adv-x="917" unicode="&#xea;"/><glyph d="M412 1125q0-46-31-76.5t-78-30.5-78.5 30.5-31.5 76.5 31.5 78 77.5 32 78-32 32-78zM758 1125q0-46-31-76.5t-78-30.5-78.5 30.5-31.5 76.5 30.5 78 77.5 32 79-32 32-78zM464 752q-83 0-122-51.5t-45-127.5q-2-10 3-16t24-6h294q23 0 23 31-4 78-49 124t-128 46zM836 465q0-23-14.5-38t-33.5-15h-462q-18 0-28.5-11.5t-10.5-25.5v-35q0-74 49.5-128t119.5-54 114 30 66 56 31 29 25-7l90-57q34-21 21-43-51-94-140.5-136t-183.5-42q-178 0-281.5 92t-103.5 250v231q0 157 105 258t267.5 101 266-97.5 103.5-259.5v-98z" glyph-name="edieresis" horiz-adv-x="917" unicode="&#xeb;"/><glyph d="M279 1067q16-23-9-39l-49-31q-28-19-47 7l-219 243q-25 31 6 49l107 64q23 15 45-17zM315 25q0-25-24-25h-144q-27 0-26 25v852q0 27 24 26h144q27 0 26-26v-852z" glyph-name="igrave" horiz-adv-x="436" unicode="&#xec;"/><glyph d="M242 1004q-20-25-47-7l-50 31q-23 14-8 39l166 276q8 12 21.5 18.5t23.5.5l107-66q33-20 6-47zM315 25q0-25-24-25h-144q-27 0-26 25v852q0 27 24 26h144q27 0 26-26v-852z" glyph-name="iacute" horiz-adv-x="436" unicode="&#xed;"/><glyph d="M166 1354h102q22 0 45-23l199-254q25-25 0-43l-47-28q-26-16-45 4l-191 174q-16 14-28 2l-187-178q-19-19-45-2l-45 28q-26 19-2 43l201 254q23 23 43 23zM315 25q0-25-24-25h-144q-27 0-26 25v852q0 27 24 26h144q27 0 26-26v-852z" glyph-name="icircumflex" horiz-adv-x="436" unicode="&#xee;"/><glyph d="M160 1125q0-46-31-76.5t-78-30.5-78.5 30.5-31.5 76.5 31.5 78 77.5 32 78-32 32-78zM506 1125q0-46-31-76.5t-78-30.5-78.5 30.5-31.5 76.5 30.5 78 77.5 32 79-32 32-78zM315 25q0-25-24-25h-144q-27 0-26 25v852q0 27 24 26h144q27 0 26-26v-852z" glyph-name="idieresis" horiz-adv-x="436" unicode="&#xef;"/><glyph d="M643 475q0 225-184 225-94 0-134-55t-40-127v-182q0-80 44-130t133-50 135 50 46 130v139zM287 1182v104q0 29 39 29h32q86-4 158-21t111-45 49-18l82 84q13 13 26 0l54-53q10-10-4-25l-82-84q-11-11-1.5-22t13.5-21q72-101 72-436v-342q-4-166-106.5-255t-271.5-89-267.5 89-98.5 263v143q0 188 88 284.5t256 96.5q125 0 201-63 2-2 8-2t6 14q0 126-39 193-8 6-18-5l-72-75q-14-14-26-2l-54 45q-14 10 4 28l66 70q16 16 16 23t-31.5 32-165.5 28q-44 1-44 32z" glyph-name="eth" horiz-adv-x="935" unicode="&#xf0;"/><glyph d="M445.5 1074q-77.5 34-114.5 34-38 0-75-55-20-20-43 0l-53 39q-15 12-4 38 27 51 72.5 85t89.5 34q57 0 137-35.5t106-35.5q46 0 80 55 10 20 33 8l63-37q22-14 8-43-33-63-81-92t-95-29q-46 0-123.5 34zM856 27q0-27-25-27h-143q-27 0-26 25v542q0 78-43.5 129.5t-129.5 51.5-134-50.5-48-128.5v-542q0-27-26-27h-142q-29 0-28 25v852q0 27 26 26h142q23 0 22-24v-41q0-31 32 2t97.5 54 120.5 21q158 0 231.5-95t73.5-249v-544z" glyph-name="ntilde" horiz-adv-x="964" unicode="&#xf1;"/><glyph d="M565 1067q16-23-8-39l-49-31q-28-19-47 7l-219 243q-25 31 6 49l106 64q24 16 45-17zM291 336q0-78 43-129t130-51 134 49 47 131v233q0 80-45 130.5t-131 50.5-132-50.5-46-130.5v-233zM840 336q0-168-98.5-258t-272.5-90-273.5 90-99.5 254v239q0 156 102.5 252.5t271.5 96.5 269.5-90.5 100.5-256.5v-237z" glyph-name="ograve" horiz-adv-x="937" unicode="&#xf2;"/><glyph d="M504 1004q-20-25-47-7l-49 31q-23 14-9 39l166 276q8 12 21.5 18.5t23.5.5l107-66q33-20 6-47zM291 336q0-78 43-129t130-51 134 49 47 131v233q0 80-45 130.5t-131 50.5-132-50.5-46-130.5v-233zM840 336q0-168-98.5-258t-272.5-90-273.5 90-99.5 254v239q0 156 102.5 252.5t271.5 96.5 269.5-90.5 100.5-256.5v-237z" glyph-name="oacute" horiz-adv-x="937" unicode="&#xf3;"/><glyph d="M420 1354h102q22 0 45-23l199-254q25-25 0-43l-47-28q-26-16-45 4l-191 174q-16 14-28 2l-187-178q-19-19-45-2l-45 28q-26 19-2 43l201 254q23 23 43 23zM291 336q0-78 43-129t130-51 134 49 47 131v233q0 80-45 130.5t-131 50.5-132-50.5-46-130.5v-233zM840 336q0-168-98.5-258t-272.5-90-273.5 90-99.5 254v239q0 156 102.5 252.5t271.5 96.5 269.5-90.5 100.5-256.5v-237z" glyph-name="ocircumflex" horiz-adv-x="937" unicode="&#xf4;"/><glyph d="M472 1074q-78 34-116 34-37 0-73-55-20-20-43 0l-54 39q-15 12-4 38 27 51 73 85t89 34q57 0 137.5-35.5t115.5-35.5 71 55q10 20 32 8l64-37q22-14 8-43-33-63-81-92t-94-29q-47 0-125 34zM291 336q0-78 43-129t130-51 134 49 47 131v233q0 80-45 130.5t-131 50.5-132-50.5-46-130.5v-233zM840 336q0-168-98.5-258t-272.5-90-273.5 90-99.5 254v239q0 156 102.5 252.5t271.5 96.5 269.5-90.5 100.5-256.5v-237z" glyph-name="otilde" horiz-adv-x="937" unicode="&#xf5;"/><glyph d="M412 1125q0-46-31-76.5t-78-30.5-78.5 30.5-31.5 76.5 31.5 78 77.5 32 78-32 32-78zM758 1125q0-46-31-76.5t-78-30.5-78.5 30.5-31.5 76.5 30.5 78 77.5 32 79-32 32-78zM291 336q0-78 43-129t130-51 134 49 47 131v233q0 80-45 130.5t-131 50.5-132-50.5-46-130.5v-233zM840 336q0-168-98.5-258t-272.5-90-273.5 90-99.5 254v239q0 156 102.5 252.5t271.5 96.5 269.5-90.5 100.5-256.5v-237z" glyph-name="odieresis" horiz-adv-x="937" unicode="&#xf6;"/><glyph d="M920 524q0-45-50-45h-735q-49 0-49 43v58q0 41 49 41h735q49 0 50-41v-56zM643 202q0-54-38-92t-95-38-95 37.5-38 91 39 92.5 93 39 94-38 40-92zM643 900q0-54-38-92t-95-38-95 38-38 91 39 92 93 39 94-38 40-92z" glyph-name="divide" horiz-adv-x="995" unicode="&#xf7;"/><glyph d="M274 338q0-12 6.5-9t10.5 9l274 360q6 9-2 17-43 37-113 37t-123-50.5-53-132.5v-231zM629 578q0 16-4 15t-9-5l-286-369q-6-7 6-23t45-28 68-12q82 0 130 50t50 132v240zM80 338v231q0 159 102 255t267 96q125 0 217-56 16-6 26 4l27 35q10 14 19.5 12t23.5-12l45-37q20-14 4-37l-33-45q-8-10-5-16t3-8q47-76 47-189v-231q0-170-101-261t-254-91-251 65q-8 6-14-4l-29-35q-8-10-13-14t-22 8l-41 35q-25 18-10 37l39 51q6 8-20.5 43.5t-26.5 163.5z" glyph-name="oslash" horiz-adv-x="917" unicode="&#xf8;"/><glyph d="M555 1067q16-23-8-39l-49-31q-28-19-47 7l-220 243q-25 31 7 49l106 64q24 16 45-17zM842 27q0-27-25-27h-141q-23 0-23 25v26q0 33-26 4-78-67-221-67-142 0-225 95t-83 249v545q0 27 25 26h143q27 0 27-24v-543q0-78 42-129t129-51 135 50 48 128v543q0 27 27 26h141q27 0 27-24v-852z" glyph-name="ugrave" horiz-adv-x="954" unicode="&#xf9;"/><glyph d="M524 1004q-20-25-47-7l-49 31q-23 14-8 39l166 276q8 12 21.5 18.5t23.5.5l106-66q35-21 6-47zM842 27q0-27-25-27h-141q-23 0-23 25v26q0 33-26 4-78-67-221-67-142 0-225 95t-83 249v545q0 27 25 26h143q27 0 27-24v-543q0-78 42-129t129-51 135 50 48 128v543q0 27 27 26h141q27 0 27-24v-852z" glyph-name="uacute" horiz-adv-x="954" unicode="&#xfa;"/><glyph d="M424 1354h102q22 0 45-23l199-254q25-25 0-43l-47-28q-26-16-45 4l-191 174q-16 14-28 2l-187-178q-19-19-45-2l-45 28q-26 19-2 43l201 254q23 23 43 23zM842 27q0-27-25-27h-141q-23 0-23 25v26q0 33-26 4-78-67-221-67-142 0-225 95t-83 249v545q0 27 25 26h143q27 0 27-24v-543q0-78 42-129t129-51 135 50 48 128v543q0 27 27 26h141q27 0 27-24v-852z" glyph-name="ucircumflex" horiz-adv-x="954" unicode="&#xfb;"/><glyph d="M412 1125q0-46-31-76.5t-78-30.5-78.5 30.5-31.5 76.5 31.5 78 77.5 32 78-32 32-78zM758 1125q0-46-31-76.5t-78-30.5-78.5 30.5-31.5 76.5 30.5 78 77.5 32 79-32 32-78zM842 27q0-27-25-27h-141q-23 0-23 25v26q0 33-26 4-78-67-221-67-142 0-225 95t-83 249v545q0 27 25 26h143q27 0 27-24v-543q0-78 42-129t129-51 135 50 48 128v543q0 27 27 26h141q27 0 27-24v-852z" glyph-name="udieresis" horiz-adv-x="954" unicode="&#xfc;"/><glyph d="M461 1004q-20-25-47-7l-49 31q-23 14-9 39l166 276q8 12 21.5 18.5t23.5.5l107-66q33-20 6-47zM389-375h-102q-50 0-31 56l92 286q4 14 4 23.5t-18 9.5h-21q-39 0-51 41l-229 827q-14 39 26 39h136q38 0 47-33l90-368 69-305q4-16 13.5-17.5t15.5 17.5l209 667q6 14 15.5 26.5t35.5 12.5h121q45 0 31-45l-391-1194q-11-43-62-43z" glyph-name="yacute" horiz-adv-x="876" unicode="&#xfd;"/><glyph d="M659 569q0 76-50 127.5t-127 51.5-127-51.5-50-125.5v-237q0-74 49-127t128-53 128 52 49 128v235zM270 1303q25 0 25-25v-422q0-23 12-18.5t32 22.5q63 56 171 55 158 0 251-94t93-250v-237q0-150-95-249t-245-99q-112 0-174 53-16 14-25.5 9t-9.5-17v-375q0-27-24-27h-144q-27 0-26 25v1624q0 25 26 25h133z" glyph-name="thorn" horiz-adv-x="946" unicode="&#xfe;"/><glyph d="M377 1125q0-46-31-76.5t-78-30.5-78.5 30.5-31.5 76.5 31.5 78 77.5 32 78-32 32-78zM723 1125q0-46-30.5-76.5t-78-30.5-79 30.5-31.5 76.5 30.5 78 77.5 32 79-32 32-78zM389-375h-102q-50 0-31 56l92 286q4 14 4 23.5t-18 9.5h-21q-39 0-51 41l-229 827q-14 39 26 39h136q38 0 47-33l90-368 69-305q4-16 13.5-17.5t15.5 17.5l209 667q6 14 15.5 26.5t35.5 12.5h121q45 0 31-45l-391-1194q-11-43-62-43z" glyph-name="ydieresis" horiz-adv-x="876" unicode="&#xff;"/><glyph d="M709 1397q0-31-31-31h-428q-33 0-33 31v84q0 31 31 30h428q33 0 33-28v-86zM475 1040q-4 0-6-6l-51-241-78-334q-4-19 12-19h248q18 0 12 19l-77 327-54 246q-2 8-6 8zM899 0h-145q-29 0-35 20l-57 236q-4 10-6.5 14t-12.5 4h-332q-12 0-14-5t-6-11l-55-238q-6-20-33-20h-135q-41 0-31 37l301 1200q6 27 37 27h205q28 0 34-25l310-1200q4-10 1-24.5t-26-14.5z" glyph-name="Amacron" horiz-adv-x="962" unicode="&#x100;"/><glyph d="M733 1085q0-31-31-30h-428q-33 0-32 30v84q0 31 30 31h428q33 0 33-29v-86zM598 312q0 66-42 114.5t-124 48.5-126-48-44-119 40-118 125-47 128 51.5 43 117.5zM807 25q0-25-23-25h-135q-23 0-22 20v29q1 34-37 1-20-18-74.5-39t-118.5-21q-152 0-233.5 82t-81.5 228 87 232 247 86q95 0 168-43 31-20 30 13v28q0 63-38.5 103.5t-116.5 40.5-143.5-18.5-89.5-29.5-33 17l-37 92q-6 25 14 35 139 64 312 64t249-90.5 76-243.5v-561z" glyph-name="amacron" horiz-adv-x="921" unicode="&#x101;"/><glyph d="M475 1040q-4 0-6-6l-51-241-78-334q-4-19 12-19h248q18 0 12 19l-77 327-54 246q-2 8-6 8zM618 1604h70q59 0 10.5-113t-115.5-145.5-119-32.5q-99 0-170.5 75t-84.5 183q-5 33 29 33h69q27 0 35-25 40-119 119.5-119t122.5 119q8 25 34 25zM899 0h-145q-29 0-35 20l-57 236q-4 10-6.5 14t-12.5 4h-332q-12 0-14-5t-6-11l-55-238q-6-20-33-20h-135q-41 0-31 37l301 1200q6 27 37 27h205q28 0 34-25l310-1200q4-10 1-24.5t-26-14.5z" glyph-name="Abreve" horiz-adv-x="962" unicode="&#x102;"/><glyph d="M639 1296h70q58 0 9.5-112.5t-115.5-145-119-32.5q-100 0-170 75t-85 183q-5 32 29 32h70q26 0 34-24 40-119 123-119t123 119q8 24 31 24zM598 312q0 66-42 114.5t-124 48.5-126-48-44-119 40-118 125-47 128 51.5 43 117.5zM807 25q0-25-23-25h-135q-23 0-22 20v29q1 34-37 1-20-18-74.5-39t-118.5-21q-152 0-233.5 82t-81.5 228 87 232 247 86q95 0 168-43 31-20 30 13v28q0 63-38.5 103.5t-116.5 40.5-143.5-18.5-89.5-29.5-33 17l-37 92q-6 25 14 35 139 64 312 64t249-90.5 76-243.5v-561z" glyph-name="abreve" horiz-adv-x="921" unicode="&#x103;"/><glyph d="M475 1040q-4 0-6-6l-51-241-78-334q-4-19 12-19h248q18 0 12 19l-77 327-54 246q-2 8-6 8zM643 274h-332q-12 0-14-5t-6-11l-55-238q-6-20-33-20h-135q-41 0-31 37l301 1200q6 27 37 27h205q28 0 34-25l310-1200q4-10 1-24.5t-26-14.5h-113q-43-47-69.5-106.5t-26.5-98.5 10.5-55 57.5-16 110 45q16 10 27-2l33-50q9-16-16-36-25-21-79.5-45.5t-128.5-24.5-111.5 44-37.5 93q0 83 37 153.5t94 118.5q16 16 27 19l-51 217q-4 10-6.5 14t-12.5 4z" glyph-name="Aogonek" horiz-adv-x="962" unicode="&#x104;"/><glyph d="M598 312q0 66-42 114.5t-124 48.5-126-48-44-119 40-118 125-47 128 51.5 43 117.5zM627 49q1 34-37 1-20-18-74.5-39t-118.5-21q-152 0-233.5 82t-81.5 228 87 232 247 86q95 0 168-43 31-20 30 13v28q0 63-38.5 103.5t-116.5 40.5-143.5-18.5-89.5-29.5-33 17l-37 92q-6 25 14 35 139 64 312 64t249-90.5 76-243.5v-561q0-25-23-25h-61q-43-47-69.5-106.5t-26.5-98.5 10-55 56-16 112 45q16 10 26-2l33-50q9-16-16-36-25-21-79-45.5t-129-24.5-111.5 44-36.5 93q0 83 38 155t93 117l4 5v24z" glyph-name="aogonek" horiz-adv-x="921" unicode="&#x105;"/><glyph d="M657.5 1624q14.5 0 22.5-10l76-101q14-18 6-30.5t-19-16.5l-299-149q-25-10-43 16l-32 47q-18 20 6 39l258 195q10 10 24.5 10zM526-12q-187 0-296 95.5t-109 260.5v582q0 162 108.5 259t276.5 97q100 0 192.5-34t169.5-136q21-25-8-49l-94-74q-12-10-26.5-5t-22.5 17q-77 103-223 103-76 0-124-52.5t-48-129.5v-578q0-76 51-127t127-51q130 0 217 98 10 10 21.5 19.5t27.5-2.5l102-72q25-14 11-41-66-94-160.5-137t-192.5-43z" glyph-name="Cacute" horiz-adv-x="923" unicode="&#x106;"/><glyph d="M457 1004q-20-25-47-7l-50 31q-23 14-8 39l166 276q8 12 21.5 18.5t23.5.5l107-66q33-20 6-47zM88 332v233q0 160 108 256.5t271 96.5q204 0 321-170 18-30-10-50l-92-65q-23-16-34-7t-21 25q-31 47-82 73t-86 26q-78 0-129-49.5t-51-125.5v-247q0-74 51-122t137-48 123 44 53 66 45 0l84-55q37-24 19-49-117-176-332-176-170 0-272.5 92t-102.5 252z" glyph-name="cacute" horiz-adv-x="843" unicode="&#x107;"/><glyph d="M461 1622h102q24 0 45-23l195-196q25-25 0-43l-45-39q-10-8-19.5-4t-23.5 12l-193 127q-12 8-24 0l-189-129q-14-10-22-11t-23 9l-41 39q-26 19-2 43l197 192q23 23 43 23zM526-12q-187 0-296 95.5t-109 260.5v582q0 162 108.5 259t276.5 97q100 0 192.5-34t169.5-136q21-25-8-49l-94-74q-12-10-26.5-5t-22.5 17q-77 103-223 103-76 0-124-52.5t-48-129.5v-578q0-76 51-127t127-51q130 0 217 98 10 10 21.5 19.5t27.5-2.5l102-72q25-14 11-41-66-94-160.5-137t-192.5-43z" glyph-name="Ccircumflex" horiz-adv-x="923" unicode="&#x108;"/><glyph d="M406 1354h102q22 0 45-23l199-254q25-25 0-43l-47-28q-26-16-46 4l-190 174q-16 14-29 2l-186-178q-20-20-45-2l-45 28q-26 19-2 43l200 254q23 23 44 23zM88 332v233q0 160 108 256.5t271 96.5q204 0 321-170 18-30-10-50l-92-65q-23-16-34-7t-21 25q-31 47-82 73t-86 26q-78 0-129-49.5t-51-125.5v-247q0-74 51-122t137-48 123 44 53 66 45 0l84-55q37-24 19-49-117-176-332-176-170 0-272.5 92t-102.5 252z" glyph-name="ccircumflex" horiz-adv-x="843" unicode="&#x109;"/><glyph d="M629 1485q0-45-32-76t-78-31-77.5 30-31.5 76 30.5 77.5 77.5 31.5 79-31.5 32-76.5zM526-12q-187 0-296 95.5t-109 260.5v582q0 162 108.5 259t276.5 97q100 0 192.5-34t169.5-136q21-25-8-49l-94-74q-12-10-26.5-5t-22.5 17q-77 103-223 103-76 0-124-52.5t-48-129.5v-578q0-76 51-127t127-51q130 0 217 98 10 10 21.5 19.5t27.5-2.5l102-72q25-14 11-41-66-94-160.5-137t-192.5-43z" glyph-name="Cdotaccent" horiz-adv-x="923" unicode="&#x10a;"/><glyph d="M573 1137q0-45-31.5-76t-77.5-31-78 30-32 76 31 77.5 78 31.5 78.5-31.5 31.5-76.5zM88 332v233q0 160 108 256.5t271 96.5q204 0 321-170 18-30-10-50l-92-65q-23-16-34-7t-21 25q-31 47-82 73t-86 26q-78 0-129-49.5t-51-125.5v-247q0-74 51-122t137-48 123 44 53 66 45 0l84-55q37-24 19-49-117-176-332-176-170 0-272.5 92t-102.5 252z" glyph-name="cdotaccent" horiz-adv-x="843" unicode="&#x10b;"/><glyph d="M561 1337h-102q-20 0-43 23l-197 192q-24 24 2 43l41 39q21 15 45-2l189-129q12-8 24 0l193 127q14 8 23 12.5t20-4.5l45-39q24-17 0-43l-195-196q-23-23-45-23zM526-12q-187 0-296 95.5t-109 260.5v582q0 162 108.5 259t276.5 97q100 0 192.5-34t169.5-136q21-25-8-49l-94-74q-12-10-26.5-5t-22.5 17q-77 103-223 103-76 0-124-52.5t-48-129.5v-578q0-76 51-127t127-51q130 0 217 98 10 10 21.5 19.5t27.5-2.5l102-72q25-14 11-41-66-94-160.5-137t-192.5-43z" glyph-name="Ccaron" horiz-adv-x="923" unicode="&#x10c;"/><glyph d="M530 1008h-102q-21 0-43 22l-201 254q-24 24 2 43l45 29q26 17 45-2l187-178q12-14 29 2l190 174q20 20 45 4l47-29q25-18 0-43l-199-254q-22-22-45-22zM88 332v233q0 160 108 256.5t271 96.5q204 0 321-170 18-30-10-50l-92-65q-23-16-34-7t-21 25q-31 47-82 73t-86 26q-78 0-129-49.5t-51-125.5v-247q0-74 51-122t137-48 123 44 53 66 45 0l84-55q37-24 19-49-117-176-332-176-170 0-272.5 92t-102.5 252z" glyph-name="ccaron" horiz-adv-x="843" unicode="&#x10d;"/><glyph d="M496 1337h-103q-20 0-43 23l-196 192q-25 25 2 43l41 39q14 10 22 9t23-11l188-129q12-8 25 0l192 127q14 8 23.5 12.5t19.5-4.5l45-39q24-17 0-43l-194-196q-23-23-45-23zM729 899q0 188-199 188h-174q-27 0-26-24v-858q0-27 24-27h189q96 0 141 51.5t45 139.5v530zM160 0q-33 0-33 29v1206q0 29 33 29h389q190 0 286.5-98.5t96.5-274.5v-508q0-186-97.5-284.5t-281.5-98.5h-393z" glyph-name="Dcaron" horiz-adv-x="1044" unicode="&#x10e;"/><glyph d="M995 913h-55q-23 0-28 15.5t-5 34.5l23 297q0 45 45 45h127q54 0 37-54l-99-303q-10-35-45-35zM468 750q-87 0-135-53.5t-48-127.5v-235q0-78 45-128t128-50 133 52 50 126l2 235q0 74-44 127.5t-131 53.5zM836 25q0-25-27-25h-131q-16 0-19.5 7t-5.5 18v18q-2 33-22 12-71-67-221-67-151 0-234.5 96t-83.5 250v235q0 145 90 245.5t246 100.5q111 0 178-53 16-12 25.5-12t9.5 22v408q0 25 27 25h141q27 0 27-27v-1253z" glyph-name="dcaron" horiz-adv-x="1150" unicode="&#x10f;"/><glyph d="M330 735q0-24 20-24h135q29 0 29-27v-84q0-27-27-27h-137q-20 0-20-14v-354q0-27 24-27h189q96 0 141 51.5t45 139.5v530q0 188-199 188h-174q-27 0-26-24v-328zM160 0q-33 0-33 29v522q0 10-2 16t-16 6h-60q-27 0-26 27v84q0 27 24 27h62q18 0 18 22v502q0 29 33 29h389q190 0 286.5-98.5t96.5-274.5v-508q0-186-97.5-284.5t-281.5-98.5h-393z" glyph-name="Dcroat" horiz-adv-x="1044" unicode="&#x110;"/><glyph d="M463 725q-80 0-129-53.5t-49-126.5v-211q0-78 51-128t128-50 127 52 50 126l2 211q0 74-50 127t-130 53zM641 969q0 23-20 22h-185q-25 0-24 25v78q0 23 26 22h180q23 0 23 23v100q0 25 27 25h141q27 0 27-27v-96q0-25 18-25h59q25 0 25-24v-76q0-25-27-25h-51q-20 0-22-7t-2-19v-940q0-25-27-25h-131q-16 0-19.5 7t-5.5 18v18q-2 33-22 12-69-65-208-65-140 0-235.5 97.5t-95.5 246.5v211q0 142 92.5 244t243.5 102q107 0 178-53 16-12 25.5-12.5t9.5 22.5v121z" glyph-name="dcroat" horiz-adv-x="942" unicode="&#x111;"/><glyph d="M729 1397q0-31-31-31h-428q-33 0-32 31v84q0 31 30 30h428q33 0 33-28v-86zM825 1264q31 0 31-29v-117q0-31-29-31h-477q-25 0-24-20v-297q0-27 24-27h393q29 0 29-30v-117q0-29-27-29h-395q-25 0-24-24v-340q0-25 26-25h484q29 0 28-28v-119q0-31-28-31h-680q-31 0-31 29v1206q0 29 31 29h669z" glyph-name="Emacron" horiz-adv-x="929" unicode="&#x112;"/><glyph d="M735 1085q0-31-30-30h-429q-33 0-32 30v84q0 31 30 31h428q33 0 33-29v-86zM464 752q-83 0-122-51.5t-45-127.5q-2-10 3-16t24-6h294q23 0 23 31-4 78-49 124t-128 46zM836 465q0-23-14.5-38t-33.5-15h-462q-18 0-28.5-11.5t-10.5-25.5v-35q0-74 49.5-128t119.5-54 114 30 66 56 31 29 25-7l90-57q34-21 21-43-51-94-140.5-136t-183.5-42q-178 0-281.5 92t-103.5 250v231q0 157 105 258t267.5 101 266-97.5 103.5-259.5v-98z" glyph-name="emacron" horiz-adv-x="917" unicode="&#x113;"/><glyph d="M627 1604h69q59 0 10.5-113t-115.5-145.5-119-32.5q-99 0-170.5 75t-84.5 183q-5 33 29 33h69q27 0 35-25 40-119 119.5-119t122.5 119q8 25 35 25zM825 1264q31 0 31-29v-117q0-31-29-31h-477q-25 0-24-20v-297q0-27 24-27h393q29 0 29-30v-117q0-29-27-29h-395q-25 0-24-24v-340q0-25 26-25h484q29 0 28-28v-119q0-31-28-31h-680q-31 0-31 29v1206q0 29 31 29h669z" glyph-name="Ebreve" horiz-adv-x="929" unicode="&#x114;"/><glyph d="M625 1296h69q59 0 10.5-112.5t-115.5-145-119-32.5q-99 0-171 75t-84 183q-5 32 29 32h69q27 0 35-24 40-119 121.5-119t124.5 119q4 12 9 18t22 6zM464 752q-83 0-122-51.5t-45-127.5q-2-10 3-16t24-6h294q23 0 23 31-4 78-49 124t-128 46zM836 465q0-23-14.5-38t-33.5-15h-462q-18 0-28.5-11.5t-10.5-25.5v-35q0-74 49.5-128t119.5-54 114 30 66 56 31 29 25-7l90-57q34-21 21-43-51-94-140.5-136t-183.5-42q-178 0-281.5 92t-103.5 250v231q0 157 105 258t267.5 101 266-97.5 103.5-259.5v-98z" glyph-name="ebreve" horiz-adv-x="917" unicode="&#x115;"/><glyph d="M604 1444q0-45-31.5-76t-77.5-31-78 30-32 76 30.5 77.5 78 31.5 79-31.5 31.5-76.5zM825 1264q31 0 31-29v-117q0-31-29-31h-477q-25 0-24-20v-297q0-27 24-27h393q29 0 29-30v-117q0-29-27-29h-395q-25 0-24-24v-340q0-25 26-25h484q29 0 28-28v-119q0-31-28-31h-680q-31 0-31 29v1206q0 29 31 29h669z" glyph-name="Edotaccent" horiz-adv-x="929" unicode="&#x116;"/><glyph d="M590 1137q0-45-32-76t-78-31-77.5 30-31.5 76 30.5 77.5 77.5 31.5 79-31.5 32-76.5zM464 752q-83 0-122-51.5t-45-127.5q-2-10 3-16t24-6h294q23 0 23 31-4 78-49 124t-128 46zM836 465q0-23-14.5-38t-33.5-15h-462q-18 0-28.5-11.5t-10.5-25.5v-35q0-74 49.5-128t119.5-54 114 30 66 56 31 29 25-7l90-57q34-21 21-43-51-94-140.5-136t-183.5-42q-178 0-281.5 92t-103.5 250v231q0 157 105 258t267.5 101 266-97.5 103.5-259.5v-98z" glyph-name="edotaccent" horiz-adv-x="917" unicode="&#x117;"/><glyph d="M825 1264q31 0 31-29v-117q0-31-29-31h-477q-25 0-24-20v-297q0-27 24-27h393q29 0 29-30v-117q0-29-27-29h-395q-25 0-24-24v-340q0-25 26-25h484q29 0 28-28v-119q0-31-28-31h-74q-43-47-69.5-106.5t-26.5-98.5 10-55 56-16 112 45q16 10 26-2l33-50q9-16-16-36-25-21-79-45.5t-129-24.5-112 44-37 106 32 128 77 111h-483q-31 0-31 29v1206q0 29 31 29h669z" glyph-name="Eogonek" horiz-adv-x="929" unicode="&#x118;"/><glyph d="M464 752q-83 0-122-51.5t-45-127.5q-2-10 3-16t24-6h294q23 0 23 31-4 78-49 124t-128 46zM401-215q0 100 80 203h-12q-168 0-271.5 92t-103.5 250v231q0 157 105 258t267.5 101 266-97.5 103.5-259.5v-98q0-23-14.5-38t-33.5-15h-462q-18 0-28.5-11.5t-10.5-25.5v-35q0-74 49.5-128t119.5-54 114 30 66 56 31 29 25-7l90-57q34-21 21-43-58-107-176-152-90-103-90-211 0-27 10-43t54-16 114 45q16 10 26-2l33-49q10-16-16-37-25-21-79-45.5t-129-24.5-112 44-37 110z" glyph-name="eogonek" horiz-adv-x="917" unicode="&#x119;"/><glyph d="M532 1337h-102q-20 0-43 23l-197 192q-25 25 3 43l40 39q14 10 22.5 9t23.5-11l188-129q12-8 25 0l192 127q14 8 23.5 12.5t19.5-4.5l45-39q24-17 0-43l-194-196q-23-23-46-23zM825 1264q31 0 31-29v-117q0-31-29-31h-477q-25 0-24-20v-297q0-27 24-27h393q29 0 29-30v-117q0-29-27-29h-395q-25 0-24-24v-340q0-25 26-25h484q29 0 28-28v-119q0-31-28-31h-680q-31 0-31 29v1206q0 29 31 29h669z" glyph-name="Ecaron" horiz-adv-x="929" unicode="&#x11a;"/><glyph d="M464 752q-83 0-122-51.5t-45-127.5q-2-10 3-16t24-6h294q23 0 23 31-4 78-49 124t-128 46zM524 1008h-102q-21 0-43 22l-201 254q-24 24 2 43l45 29q26 17 45-2l187-178q12-14 28 2l191 174q20 20 45 4l47-29q25-18 0-43l-199-254q-22-22-45-22zM836 465q0-23-14.5-38t-33.5-15h-462q-18 0-28.5-11.5t-10.5-25.5v-35q0-74 49.5-128t119.5-54 114 30 66 56 31 29 25-7l90-57q34-21 21-43-51-94-140.5-136t-183.5-42q-178 0-281.5 92t-103.5 250v231q0 157 105 258t267.5 101 266-97.5 103.5-259.5v-98z" glyph-name="ecaron" horiz-adv-x="917" unicode="&#x11b;"/><glyph d="M455 1622h102q24 0 45-23l195-196q25-25 0-43l-45-39q-10-8-19.5-4t-23.5 12l-193 127q-12 8-24 0l-189-129q-24-17-45-2l-41 39q-26 19-2 43l197 192q23 23 43 23zM527 1282q95 0 196.5-39t159.5-141q16-25-11-45l-98-74q-24-14-49 16-74 103-203 103-98 0-149-55.5t-51-135.5v-567q0-78 54-128t140-50 137.5 47 51.5 133v158q0 18-17 18h-131q-31 0-31 29v119q0 29 31 28h317q35 0 35-28v-330q0-161-108-256.5t-283-95.5-286 93.5-111 258.5v588q0 161 112.5 257.5t293.5 96.5z" glyph-name="Gcircumflex" horiz-adv-x="1015" unicode="&#x11c;"/><glyph d="M387 1354h102q21 0 46-23l198-254q26-26 0-43l-47-28q-26-16-45 4l-190 174q-16 14-29 2l-186-178q-19-19-46-2l-45 28q-26 19-2 43l201 254q23 23 43 23zM606 577.5q0 67.5-47 117.5t-127 50-129-50.5-49-116.5 45-116 129-50 131 49 47 116.5zM883 913q30 0 30-32v-115q0-16-5-21.5t-43-.5-59-3-30.5-11-3.5-15q31-59 31-130 0-139-109-235t-270-96l-47-2q-47-6-82-43t-43-78q-4-16 14-14 108 24 197 24 190 0 311-69t121-215q0-83-53.5-151.5t-145.5-113.5q-16-8-30.5-8t-22.5 15l-53 86q-14 25 16 43 56 37 75 70.5t19 51.5q0 70-62 96.5t-154 26.5-220-17-138.5-11-19.5 18q-40 57-40 128t36.5 123 94.5 81q20 10 0 29-59 43-96.5 110.5t-37.5 145.5q0 142 109 240t245 98q137 0 247-74 12-10 26 0 104 69 193 69z" glyph-name="gcircumflex" horiz-adv-x="929" unicode="&#x11d;"/><glyph d="M668 1604h69q59 0 10.5-113t-115.5-145.5-119-32.5q-99 0-170.5 75t-84.5 183q-5 33 29 33h69q27 0 35-25 40-119 119.5-119t122.5 119q8 25 35 25zM527 1282q95 0 196.5-39t159.5-141q16-25-11-45l-98-74q-24-14-49 16-74 103-203 103-98 0-149-55.5t-51-135.5v-567q0-78 54-128t140-50 137.5 47 51.5 133v158q0 18-17 18h-131q-31 0-31 29v119q0 29 31 28h317q35 0 35-28v-330q0-161-108-256.5t-283-95.5-286 93.5-111 258.5v588q0 161 112.5 257.5t293.5 96.5z" glyph-name="Gbreve" horiz-adv-x="1015" unicode="&#x11e;"/><glyph d="M610 1296h70q59 0 10.5-112.5t-115.5-145-119-32.5q-100 0-171.5 75.5t-83.5 182.5q-5 32 28 32h70q27 0 35-24 40-119 121.5-119t124.5 119q4 12 9 18t21 6zM606 577.5q0 67.5-47 117.5t-127 50-129-50.5-49-116.5 45-116 129-50 131 49 47 116.5zM883 913q30 0 30-32v-115q0-16-5-21.5t-43-.5-59-3-30.5-11-3.5-15q31-59 31-130 0-139-109-235t-270-96l-47-2q-47-6-82-43t-43-78q-4-16 14-14 108 24 197 24 190 0 311-69t121-215q0-83-53.5-151.5t-145.5-113.5q-16-8-30.5-8t-22.5 15l-53 86q-14 25 16 43 56 37 75 70.5t19 51.5q0 70-62 96.5t-154 26.5-220-17-138.5-11-19.5 18q-40 57-40 128t36.5 123 94.5 81q20 10 0 29-59 43-96.5 110.5t-37.5 145.5q0 142 109 240t245 98q137 0 247-74 12-10 26 0 104 69 193 69z" glyph-name="gbreve" horiz-adv-x="929" unicode="&#x11f;"/><glyph d="M629 1444q0-45-32-76t-78-31-77.5 30-31.5 76 30.5 77.5 77.5 31.5 79-31.5 32-76.5zM527 1282q95 0 196.5-39t159.5-141q16-25-11-45l-98-74q-24-14-49 16-74 103-203 103-98 0-149-55.5t-51-135.5v-567q0-78 54-128t140-50 137.5 47 51.5 133v158q0 18-17 18h-131q-31 0-31 29v119q0 29 31 28h317q35 0 35-28v-330q0-161-108-256.5t-283-95.5-286 93.5-111 258.5v588q0 161 112.5 257.5t293.5 96.5z" glyph-name="Gdotaccent" horiz-adv-x="1015" unicode="&#x120;"/><glyph d="M588 1137q0-45-32-76t-78-31-77.5 30-31.5 76 30.5 77.5 77.5 31.5 79-31.5 32-76.5zM606 577.5q0 67.5-47 117.5t-127 50-129-50.5-49-116.5 45-116 129-50 131 49 47 116.5zM883 913q30 0 30-32v-115q0-16-5-21.5t-43-.5-59-3-30.5-11-3.5-15q31-59 31-130 0-139-109-235t-270-96l-47-2q-47-6-82-43t-43-78q-4-16 14-14 108 24 197 24 190 0 311-69t121-215q0-83-53.5-151.5t-145.5-113.5q-16-8-30.5-8t-22.5 15l-53 86q-14 25 16 43 56 37 75 70.5t19 51.5q0 70-62 96.5t-154 26.5-220-17-138.5-11-19.5 18q-40 57-40 128t36.5 123 94.5 81q20 10 0 29-59 43-96.5 110.5t-37.5 145.5q0 142 109 240t245 98q137 0 247-74 12-10 26 0 104 69 193 69z" glyph-name="gdotaccent" horiz-adv-x="929" unicode="&#x121;"/><glyph d="M483-475h-55q-23 0-28 15.5t-5 33.5l23 297q0 45 45 45h127q55 0 37-53l-99-303q-10-35-45-35zM527 1282q95 0 196.5-39t159.5-141q16-25-11-45l-98-74q-24-14-49 16-74 103-203 103-98 0-149-55.5t-51-135.5v-567q0-78 54-128t140-50 137.5 47 51.5 133v158q0 18-17 18h-131q-31 0-31 29v119q0 29 31 28h317q35 0 35-28v-330q0-161-108-256.5t-283-95.5-286 93.5-111 258.5v588q0 161 112.5 257.5t293.5 96.5z" glyph-name="Gcommaaccent" horiz-adv-x="1015" unicode="&#x122;"/><glyph d="M606 577.5q0 67.5-47 117.5t-127 50-129-50.5-49-116.5 45-116 129-50 131 49 47 116.5zM883 913q30 0 30-32v-115q0-16-5-21.5t-43-.5-59-3-30.5-11-3.5-15q31-59 31-130 0-139-109-235t-270-96l-47-2q-47-6-82-43t-43-78q-4-16 14-14 108 24 197 24 190 0 311-69t121-215q0-83-53.5-151.5t-145.5-113.5q-16-8-30.5-8t-22.5 15l-53 86q-14 25 16 43 56 37 75 70.5t19 51.5q0 70-62 96.5t-154 26.5-220-17-138.5-11-19.5 18q-40 57-40 128t36.5 123 94.5 81q20 10 0 29-59 43-96.5 110.5t-37.5 145.5q0 142 109 240t245 98q137 0 247-74 12-10 26 0 104 69 193 69zM512 1446h55q23 0 28-15.5t5-33.5l-22-297q0-45-46-45h-126q-56 0-37 53l98 303q10 35 45 35z" glyph-name="gcommaaccent" horiz-adv-x="929" unicode="&#x123;"/><glyph d="M487 1622h103q24 0 45-23l194-196q26-26 0-43l-45-39q-10-8-19-4t-24 12l-192 127q-12 8-25 0l-188-129q-24-17-45-2l-41 39q-26 19-2 43l196 192q23 23 43 23zM358 563q-26 0-26-26v-508q0-29-29-29h-141q-33 0-33 27v1210q0 27 31 27h141q31 0 31-25v-473q0-27 22-27h394q25 0 24 27v471q0 27 29 27h141q33 0 33-25v-1210q0-29-31-29h-141q-31 0-31 27v510q0 27-27 26h-387z" glyph-name="Hcircumflex" horiz-adv-x="1101" unicode="&#x124;"/><glyph d="M158 1622h102q24 0 45-23l195-196q25-25 0-43l-45-39q-10-8-19.5-4t-23.5 12l-193 127q-12 8-24 0l-189-129q-24-17-45-2l-41 39q-26 19-2 43l197 192q23 23 43 23zM115 1278q0 27 24 27h144q25 0 24-27v-410q0-14 10.5-18t36.5 16 76.5 34.5 99.5 14.5q162 0 245-96t83-250l2-542q0-27-26-27h-144q-27 0-26 25v542q0 78-43 129.5t-129 51.5-133.5-51.5-47.5-129.5v-53l-2-487q0-27-24-27h-144q-27 0-26 25v39l1 132v198 249z" glyph-name="hcircumflex" horiz-adv-x="968" unicode="&#x125;"/><glyph d="M365 987q-20 0-21-29v-194q0-16 4-20.5t19-4.5h393q25 0 24 25v194q0 29-20 29h-399zM117 1108q24 0 24 25v104q0 27 31 27h141q31 0 31-25v-102q0-29 21-29h397q23 0 22 29v100q0 27 29 27h139q33 0 33-25v-106q0-25 27-25h53q27 0 27-29v-63q0-29-29-29h-51q-27 0-27-29v-929q0-29-31-29h-139q-31 0-31 27v510q0 27-26 26h-387q-27 0-27-24v-510q0-29-29-29h-141q-33 0-33 27v931q0 29-26 29h-52q-27 0-26 29v63q0 29 24 29h56z" glyph-name="Hbar" horiz-adv-x="1126" unicode="&#x126;"/><glyph d="M303 0h-143q-27 0-27 25v952q0 12-2 19.5t-22 7.5h-52q-27 0-26 24v68q0 25 24 24h60q18 0 18 25v92q0 27 25 27h143q25 0 25-27v-94q0-23 22-23h295q27 0 27-22v-70q0-25-25-24h-299q-20 0-20-23v-145q0-38 46-4 26 20 79 35.5t102 15.5q162 0 243-96.5t81-249.5l2-510q0-27-27-27h-143q-27 0-27 25v510q0 78-45 129t-128 51-131-51.5-48-128.5v-47l-2-461q0-27-25-27z" glyph-name="hbar" horiz-adv-x="987" unicode="&#x127;"/><glyph d="M238.5 1422.5q-73.5 33.5-112.5 33.5-40 0-77-55-19-19-43 0l-53 39q-14 11-4 39 27 51 73 84.5t89 33.5q55 0 137-35.5t116-35.5q35 0 70 55 10 20 33 8l63-37q23-14 9-43-33-63-81-91.5t-97-28.5-122.5 33.5zM180 0q-31 0-30 27v1210q0 27 30 27h144q31 0 30-27v-1208q0-29-30-29h-144z" glyph-name="Itilde" horiz-adv-x="509" unicode="&#x128;"/><glyph d="M263 1074q-78 34-115 34t-74-55q-20-20-43 0l-54 39q-15 12-4 38 27 51 73 85t89 34q57 0 137.5-35.5t115.5-35.5 71 55q10 20 33 8l63-37q22-14 8-43-33-63-81-92t-94-29q-47 0-125 34zM365 25q0-25-25-25h-143q-27 0-27 25v852q0 27 25 26h143q27 0 27-26v-852z" glyph-name="itilde" horiz-adv-x="544" unicode="&#x129;"/><glyph d="M487 1397q0-31-30-31h-428q-33 0-33 31v84q0 31 31 30h428q33 0 32-28v-86zM180 0q-31 0-30 27v1210q0 27 30 27h144q31 0 30-27v-1208q0-29-30-29h-144z" glyph-name="Imacron" horiz-adv-x="509" unicode="&#x12a;"/><glyph d="M485 1085q0-31-30-30h-428q-33 0-33 30v84q0 31 31 31h428q33 0 32-29v-86zM334 25q0-25-25-25h-143q-27 0-27 25v852q0 27 25 26h143q27 0 27-26v-852z" glyph-name="imacron" horiz-adv-x="473" unicode="&#x12b;"/><glyph d="M213 0q-31 0-31 27v1210q0 27 31 27h143q31 0 31-27v-1208q0-29-31-29h-143zM278.5 1460q80.5 0 120.5 119 8 25 35 25h70q58 0 19.5-89.5t-91.5-145.5-152-56q-100 0-171 75.5t-84 182.5q-5 33 28 33h70q27 0 35-25 40-119 120.5-119z" glyph-name="Ibreve" horiz-adv-x="555" unicode="&#x12c;"/><glyph d="M416 1309h69q59 0 10.5-113t-115.5-145.5-119-32.5q-99 0-170.5 75t-84.5 183q-5 33 29 33h69q27 0 35-25 40-119 123-119t123 119q4 12 9 18.5t22 6.5zM358 25q0-25-24-25h-144q-27 0-26 25v852q0 27 24 26h144q27 0 26-26v-852z" glyph-name="ibreve" horiz-adv-x="518" unicode="&#x12d;"/><glyph d="M176-205q0-39 10.5-55t57.5-16 110 45q16 10 27-2l33-50q9-16-16-36-25-21-79.5-45.5t-128.5-24.5-111.5 44-37.5 107 34 131 81 113q-6 6-6 21v1210q0 27 30 27h144q31 0 30-27v-1208q0-29-30-29h-52q-43-47-69.5-106.5t-26.5-98.5z" glyph-name="Iogonek" horiz-adv-x="509" unicode="&#x12e;"/><glyph d="M340 1167q0-47-36-80.5t-84-33.5-83 32.5-35 80.5 35 82 83 34 84-34 36-81zM315 25q0-25-24-25h-45q-43-47-69.5-106.5t-26.5-98.5 10-55 56-16 112 45q16 10 26-2l33-50q9-16-16-36-25-21-79-45.5t-129-24.5-112 44-37 107 33 130 80 112q-6 6-6 21v852q0 27 24 26h144q27 0 26-26v-852z" glyph-name="iogonek" horiz-adv-x="436" unicode="&#x12f;"/><glyph d="M362 1485q0-45-31.5-76t-77.5-31-78 30-32 76 31 77.5 78 31.5 78.5-31.5 31.5-76.5zM180 0q-31 0-30 27v1210q0 27 30 27h144q31 0 30-27v-1208q0-29-30-29h-144z" glyph-name="Idotaccent" horiz-adv-x="509" unicode="&#x130;"/><glyph d="M315 25q0-25-24-25h-144q-27 0-26 25v852q0 27 24 26h144q27 0 26-26v-852z" glyph-name="dotlessi" horiz-adv-x="436" unicode="&#x131;"/><glyph d="M651 231v1006q0 27 31 27h137q31 0 31-27v-1008q0-203-86.5-327.5t-296.5-177.5q-38-10-45 28l-35 105q-4 16-2 26.5t43 28.5q114 49 168.5 112.5t54.5 206.5zM180 0q-31 0-30 27v1210q0 27 30 27h144q31 0 30-27v-1208q0-29-30-29h-144z" glyph-name="IJ" horiz-adv-x="993" unicode="&#x132;"/><glyph d="M317 25q0-25-24-25h-143q-27 0-27 25v852q0 27 24 26h144q27 0 26-26v-852zM342 1167q0-47-36-80.5t-84-33.5-83 32.5-35 80.5 35 82 83 34 84-34 36-81zM707 903q24 0 24-24v-990q0-186-92-227t-156-41q-63 0-99 8t-46 15.5-6 29.5l20 109q6 29 38 23 30-6 70-6 78 2 79 112v967q0 25 26 24h142zM754 1167q0-47-35-81.5t-84-34.5-83 33.5-34 81.5 34 82 83 34 84-34 35-81z" glyph-name="ij" horiz-adv-x="856" unicode="&#x133;"/><glyph d="M297 1622h102q24 0 45-23l195-196q25-25 0-43l-45-39q-10-8-19.5-4t-23.5 12l-193 127q-12 8-24 0l-189-129q-14-10-22-11t-23 9l-41 39q-26 19-2 43l197 192q23 23 43 23zM250 231v1006q0 27 31 27h137q31 0 31-27v-1008q0-203-86-327t-297-178q-38-9-46 28l-34 105q-4 16-2 26.5t42 28.5q116 50 170 114t54 205z" glyph-name="Jcircumflex" horiz-adv-x="591" unicode="&#x134;"/><glyph d="M229 1354h103q22 0 45-23l198-254q26-26 0-43l-47-28q-25-16-45 4l-190 174q-16 14-29 2l-186-178q-20-20-45-2l-45 28q-28 20-2 43l200 254q23 23 43 23zM348 903q25 0 25-24v-990q0-186-92.5-227t-155.5-41-99 8-46.5 15.5-6.5 29.5l21 109q6 29 38 23t70-6q78 2 78 112v967q0 25 27 24h141z" glyph-name="jcircumflex" horiz-adv-x="563" unicode="&#x135;"/><glyph d="M500-438h-56q-23 0-27.5 15t-4.5 34l22 297q0 45 45 45h127q55 0 37-53l-98-303q-10-35-45-35zM942 0h-141q-27 0-29 25l-24 370q-5 88-48 148.5t-149 60.5-161.5-61.5-55.5-157.5v-358q0-27-25-27h-153q-25 0-25 25v1212q0 27 29 27h149q25 0 25-25v-467q0-28 22-6l389 479q19 19 43 19h158q18 0 23.5-10.5t-4.5-22.5l-369-455q-16-23 10-22 180 0 254-101.5t78-238.5l29-387q0-27-25-27z" glyph-name="Kcommaaccent" horiz-adv-x="1058" unicode="&#x136;"/><glyph d="M438-475h-55q-23 0-28 15.5t-5 33.5l23 297q0 45 45 45h127q55 0 37-53l-99-303q-10-35-45-35zM838 0h-133q-18 0-24.5 7t-8.5 24l-10 186q-4 87-44 139t-132 52q-93 0-135-56.5t-42-132.5v-194q0-25-24-25h-146q-25 0-24 25v1253q0 27 24 27h144q25 0 24-25v-686q0-25 15-25 6 0 14 9l278 309q14 14 41 14h176q18 0 21.5-11t-4.5-20l-264-290q-6-6-6-14t12-9q211-21 238.5-148.5t31.5-193.5l8-178q0-37-30-37z" glyph-name="kcommaaccent" horiz-adv-x="948" unicode="&#x137;"/><glyph d="M838 0h-133q-18 0-24.5 7t-8.5 24l-10 186q-4 87-44 139t-132 52q-93 0-135-56.5t-42-132.5v-194q0-25-24-25h-146q-25 0-24 25v847q0 27 24 27h144q25 0 24-25v-280q0-25 15-25 6 0 14 9l278 309q14 14 41 14h176q18 0 21.5-11t-4.5-20l-264-290q-6-6-6-14t12-9q211-21 238.5-148.5t31.5-193.5l8-178q0-37-30-37z" glyph-name="kgreenlandic" horiz-adv-x="948" unicode="&#x138;"/><glyph d="M438.5 1624q14.5 0 22.5-10l76-101q14-18 6-30.5t-19-16.5l-299-149q-25-10-43 16l-32 47q-18 20 6 39l258 195q10 10 24.5 10zM834 178q29 0 28-28v-119q0-31-26-31h-670q-31 0-31 29v1208q0 27 29 27h143q29 0 29-25v-1036q0-12 3-18.5t19-6.5h476z" glyph-name="Lacute" horiz-adv-x="899" unicode="&#x139;"/><glyph d="M438.5 1698q14.5 0 22.5-10l76-101q14-18 6-30.5t-19-16.5l-299-149q-25-10-43 16l-32 47q-18 20 6 39l258 195q10 10 24.5 10zM455 20q0-36-15-36h-78q-132 0-183.5 66t-51.5 210v1024q0 20 18 21h156q20 0 21-19v-1014q0-66 18-86t68-20h24q23 0 23-35v-111z" glyph-name="lacute" horiz-adv-x="479" unicode="&#x13a;"/><glyph d="M446-475h-55q-23 0-28 15.5t-5 33.5l23 297q0 45 45 45h127q55 0 37-53l-98-303q-10-35-46-35zM834 178q29 0 28-28v-119q0-31-26-31h-670q-31 0-31 29v1208q0 27 29 27h143q29 0 29-25v-1036q0-12 3-18.5t19-6.5h476z" glyph-name="Lcommaaccent" horiz-adv-x="899" unicode="&#x13b;"/><glyph d="M205-475h-55q-23 0-28 15.5t-5 33.5l22 297q0 45 45 45h127q55 0 37-53l-98-303q-10-35-45-35zM455 20q0-36-15-36h-78q-132 0-183.5 66t-51.5 210v1024q0 20 18 21h156q20 0 21-19v-1014q0-66 18-86t68-20h24q23 0 23-35v-111z" glyph-name="lcommaaccent" horiz-adv-x="479" unicode="&#x13c;"/><glyph d="M618 872h-55q-23 0-28 15.5t-5 34.5l23 297q0 45 45 45h127q54 0 37-54l-98-303q-10-35-46-35zM643 2681h-102q-21 0-43 22l-197 193q-24 24 2 43l41 39q21 15 45-2l189-129q12-8 24 0l193 127q14 8 23 12t20-4l45-39q25-18 0-43l-195-197q-22-22-45-22zM834 178q29 0 28-28v-119q0-31-26-31h-670q-31 0-31 29v1208q0 27 29 27h143q29 0 29-25v-1036q0-12 3-18.5t19-6.5h476z" glyph-name="Lcaron" horiz-adv-x="899" unicode="&#x13d;"/><glyph d="M524 913h-55q-23 0-28 15.5t-5 34.5l23 297q0 45 45 45h127q54 0 37-54l-99-303q-10-35-45-35zM455 20q0-36-15-36h-78q-132 0-183.5 66t-51.5 210v1024q0 20 18 21h156q20 0 21-19v-1014q0-66 18-86t68-20h24q23 0 23-35v-111z" glyph-name="lcaron" horiz-adv-x="673" unicode="&#x13e;"/><glyph d="M705 625q0-45-32-76t-78-31-78 30-32 76 31 77.5 78 31.5 79-31.5 32-76.5zM834 178q29 0 28-28v-119q0-31-26-31h-670q-31 0-31 29v1208q0 27 29 27h143q29 0 29-25v-1036q0-12 3-18.5t19-6.5h476z" glyph-name="Ldot" horiz-adv-x="899" unicode="&#x13f;"/><glyph d="M455 20q0-36-15-36h-78q-132 0-183.5 66t-51.5 210v1024q0 20 18 21h156q20 0 21-19v-1014q0-66 18-86t68-20h24q23 0 23-35v-111zM643 666q0-45-31.5-76t-77.5-31-78 29.5-32 75.5 30.5 78 78 32 79-31.5 31.5-76.5z" glyph-name="ldot" horiz-adv-x="659" unicode="&#x140;"/><glyph d="M391 203q0-27 25-27h471q31 0 31-26v-119q0-31-29-31h-668q-31 0-31 29v370q0 18-14 9l-88-52q-23-12-35 11l-39 65q-12 23 9 35l149 88q18 14 18 31v649q0 29 29 29h141q31 0 31-27v-539q0-10 6-10h4l164 98q23 10 35-10l39-67q6-10 3-20.5t-13-14.5l-221-129q-16-8-17-31v-311z" glyph-name="Lslash" horiz-adv-x="931" unicode="&#x141;"/></font>
</defs>
</svg>
