<svg><defs><font horiz-adv-x="500"><font-face ascent="800" bbox="-70 -165 1180 922" cap-height="700" descent="-200" panose-1="2 0 6 4 3 0 0 2 0 4" stemh="111" stemv="122" underline-position="-113" underline-thickness="20" unicode-range="U+0020-U+FB02" x-height="528"/><missing-glyph/><glyph glyph-name=".notdef"/><glyph glyph-name="NUL" horiz-adv-x="0"/><glyph d="M120 0v297h-75v110h75v293h261c220 0 372-151 372-348v-2c0-197-152-350-372-350h-261zM242 112h139c147 0 243 99 243 236v2c0 137-96 238-243 238h-139v-181h176v-110h-176v-185z" glyph-name="Eth" horiz-adv-x="812" unicode="&#xd0;"/><glyph d="M316-12c-155 0-269 116-269 260v2c0 140 101 236 232 236 57 0 96-15 139-41l-105 143-119-53-48 63 121 53-58 79h139l24-35 99 43 47-63-102-44 89-129c60-84 88-154 88-243v-2c0-144-104-269-277-269zM321 91c93 0 153 70 153 154v2c0 83-64 150-157 150-92 0-151-65-151-150v-2c0-83 64-154 155-154z" glyph-name="eth" horiz-adv-x="642" unicode="&#xf0;"/><glyph d="M120 0v278l-75-22v114l75 23v307h122v-270l202 60v-114l-202-61v-203h369v-112h-491z" glyph-name="Lslash" horiz-adv-x="649" unicode="&#x141;"/><glyph d="M113 0v297l-76-23v115l76 23v318h120v-283l76 23v-115l-76-23v-332h-120z" glyph-name="lslash" horiz-adv-x="346" unicode="&#x142;"/><glyph d="M335-10c-107 0-208 37-292 112l74 88c67-58 134-91 221-91 76 0 124 35 124 88v2c0 50-28 77-158 107-149 36-233 80-233 209v2c0 120 100 203 239 203 102 0 183-31 254-88l-66-93c-63 47-126 72-190 72-72 0-114-37-114-83v-2c0-54 32-78 166-110 148-36 225-89 225-205v-2c0-131-103-209-250-209zM264 758l-116 146h96l77-66 77 66h94l-116-146h-112z" glyph-name="Scaron" horiz-adv-x="640" unicode="&#x160;"/><glyph d="M257-10c-75 0-158 27-224 79l54 82c57-43 119-65 173-65 52 0 82 22 82 57v2c0 41-56 55-118 74-78 22-165 54-165 155v2c0 100 83 161 188 161 66 0 138-23 194-60l-48-86c-51 31-105 50-149 50-47 0-74-22-74-53v-2c0-38 57-54 119-74 77-24 164-59 164-154v-2c0-111-86-166-196-166zM198 595l-116 146h96l77-66 77 66h94l-116-146h-112z" glyph-name="scaron" unicode="&#x161;"/><glyph d="M296 0v276l-278 424h145l196-310 198 310h141l-278-421v-279h-124zM311 753l106 164 110-49-122-115h-94z" glyph-name="Yacute" horiz-adv-x="716" unicode="&#xdd;"/><glyph d="M184-163c-51 0-88 12-125 32l41 90c22-12 46-20 71-20 34 0 55 15 75 61l-220 528h129l150-392 137 392h126l-210-543c-42-108-89-148-174-148zM244 594l106 164 110-49-122-115h-94z" glyph-name="yacute" horiz-adv-x="596" unicode="&#xfd;"/><glyph d="M90 0v700h123v-110h153c163 0 266-93 266-233v-2c0-158-126-239-280-239h-139v-116h-123zM213 226h143c93 0 151 53 151 126v2c0 82-59 125-151 125h-143v-253z" glyph-name="Thorn" horiz-adv-x="673" unicode="&#xde;"/><glyph d="M76-160v890h121v-290c39 55 94 99 179 99 125 0 246-99 246-274v-2c0-175-120-274-246-274-87 0-142 44-179 93v-242h-121zM348 94c83 0 151 65 151 169v2c0 102-69 169-151 169s-154-68-154-169v-2c0-102 72-169 154-169z" glyph-name="thorn" horiz-adv-x="670" unicode="&#xfe;"/><glyph d="M65 0v91l413 500h-400v109h560v-91l-413-500h413v-109h-573zM299 758l-116 146h96l77-66 77 66h94l-116-146h-112z" glyph-name="Zcaron" horiz-adv-x="702" unicode="&#x17d;"/><glyph d="M52 0v83l305 346h-294v99h448v-83l-305-346h305v-99h-459zM232 595l-116 146h96l77-66 77 66h94l-116-146h-112z" glyph-name="zcaron" horiz-adv-x="560" unicode="&#x17e;"/><glyph glyph-name="space" horiz-adv-x="300" unicode="&#x20;"/><glyph d="M118 221l-38 444v35h142v-35l-37-444h-67zM85 0v137h133v-137h-133z" glyph-name="exclam" horiz-adv-x="302" unicode="&#x21;"/><glyph d="M279 401l24 299h137v-5l-98-294h-63zM60 401l23 299h137v-5l-97-294h-63z" glyph-name="quotedbl" horiz-adv-x="487" unicode="&#x22;"/><glyph d="M101 0l28 161h-90v104h108l29 174h-100v104h118l27 157h107l-27-157h164l26 157h107l-27-157h89v-104h-107l-29-174h100v-104h-118l-28-161h-107l28 161h-164l-27-161h-107zM253 265h164l30 174h-164z" glyph-name="numbersign" horiz-adv-x="700" unicode="&#x23;"/><glyph d="M285-98v100c-87 10-168 45-236 99l64 91c57-46 111-76 176-86v196c-146 38-214 93-214 205v2c0 108 85 181 210 191v58h87v-60c73-9 133-35 188-76l-56-94c-44 33-89 54-136 64v-190c152-38 217-99 217-206v-2c0-109-86-182-213-193v-99h-87zM289 423v176c-63-5-96-39-96-83v-2c0-41 19-68 96-91zM368 102c63 5 99 37 99 85v2c0 44-21 71-99 94v-181z" glyph-name="dollar" horiz-adv-x="642" unicode="&#x24;"/><glyph d="M212 350c-98 0-164 81-164 177v2c0 97 67 179 166 179 98 0 164-81 164-177v-2c0-97-67-179-166-179zM119 0l512 700h99l-512-700h-99zM635-8c-98 0-164 81-164 177v2c0 97 67 179 166 179 98 0 164-81 164-177v-2c0-97-67-179-166-179zM214 427c47 0 75 46 75 100v2c0 56-32 102-77 102-47 0-75-46-75-100v-2c0-57 32-102 77-102zM637 69c47 0 75 46 75 100v2c0 56-32 102-77 102-47 0-75-46-75-100v-2c0-57 32-102 77-102z" glyph-name="percent" horiz-adv-x="849" unicode="&#x25;"/><glyph d="M575-14l-93 95c-60-56-130-91-215-91-130 0-228 79-228 200v2c0 90 53 155 149 196-40 51-58 95-58 146v2c0 94 76 176 201 176 111 0 186-75 186-169v-2c0-92-61-147-154-182l120-122c27 40 52 86 75 135l93-49c-28-56-59-111-95-160l110-112zM298 425c72 26 110 59 110 109v2c0 47-33 79-80 79-50 0-83-35-83-84v-2c0-35 14-61 53-104zM280 92c48 0 92 23 132 61l-156 159c-65-28-93-71-93-116v-2c0-59 49-102 117-102z" glyph-name="ampersand" horiz-adv-x="696" unicode="&#x26;"/><glyph d="M60 401l23 299h139v-5l-98-294h-64z" glyph-name="quotesingle" horiz-adv-x="269" unicode="&#x27;"/><glyph d="M340-141c-182 100-277 239-277 428s95 328 277 428l53-81c-142-94-209-198-209-347s67-253 209-347z" glyph-name="parenleft" horiz-adv-x="440" unicode="&#x28;"/><glyph d="M101-141l-53 81c142 94 209 198 209 347s-67 253-209 347l53 81c181-100 277-239 277-428s-96-328-277-428z" glyph-name="parenright" horiz-adv-x="440" unicode="&#x29;"/><glyph d="M180 382l14 122-100-73-36 61 114 50-114 50 36 61 100-73-14 122h70l-14-122 100 73 36-61-114-50 114-50-36-61-100 73 14-122h-70z" glyph-name="asterisk" horiz-adv-x="430" unicode="&#x2a;"/><glyph d="M263 106v191h-192v110h192v191h114v-191h192v-110h-192v-191h-114z" glyph-name="plus" horiz-adv-x="640" unicode="&#x2b;"/><glyph d="M47-145l-13 51c61 12 90 43 85 94h-51v137h133v-116c0-111-53-158-154-166z" glyph-name="comma" horiz-adv-x="269" unicode="&#x2c;"/><glyph d="M56 247v119h296v-119h-296z" glyph-name="hyphen" horiz-adv-x="408" unicode="&#x2d;"/><glyph d="M68 0v137h133v-137h-133z" glyph-name="period" horiz-adv-x="269" unicode="&#x2e;"/><glyph d="M-25-128l452 926h105l-452-926h-105z" glyph-name="slash" horiz-adv-x="521" unicode="&#x2f;"/><glyph d="M361-12c-184 0-304 160-304 360v2c0 200 122 362 306 362 183 0 304-160 304-360v-2c0-200-122-362-306-362zM363 99c109 0 177 111 177 249v2c0 138-71 251-179 251s-177-110-177-249v-2c0-138 70-251 179-251z" glyph-name="zero" horiz-adv-x="724" unicode="&#x30;"/><glyph d="M178 0v580l-126-35-26 100 188 60h86v-705h-122z" glyph-name="one" horiz-adv-x="396" unicode="&#x31;"/><glyph d="M49 0v97l241 205c96 81 131 126 131 189 0 69-49 109-113 109s-108-35-162-105l-87 68c67 94 133 147 258 147 137 0 231-84 231-209v-2c0-110-58-170-182-271l-144-120h333v-108h-506z" glyph-name="two" horiz-adv-x="613" unicode="&#x32;"/><glyph d="M311-12c-122 0-209 51-268 123l86 80c50-59 106-92 184-92 69 0 121 42 121 106v2c0 69-63 108-161 108h-57l-20 77 189 201h-303v107h463v-92l-195-200c106-14 206-67 206-197v-2c0-129-100-221-245-221z" glyph-name="three" horiz-adv-x="618" unicode="&#x33;"/><glyph d="M412 0v157h-353l-23 88 389 460h105v-447h100v-101h-100v-157h-118zM182 258h230v277z" glyph-name="four" horiz-adv-x="681" unicode="&#x34;"/><glyph d="M304-12c-107 0-191 43-257 107l76 89c56-52 115-84 180-84 84 0 139 48 139 121v2c0 71-60 116-145 116-50 0-93-14-129-31l-74 49 20 343h418v-109h-312l-11-164c33 12 64 20 111 20 136 0 243-72 243-220v-2c0-143-104-237-259-237z" glyph-name="five" horiz-adv-x="622" unicode="&#x35;"/><glyph d="M337-12c-86 0-148 27-195 73-53 54-85 127-85 268v2c0 214 102 381 300 381 91 0 153-29 214-78l-66-95c-49 38-91 61-152 61-104 0-162-94-168-222 37 36 85 70 167 70 136 0 245-80 245-220v-2c0-139-113-238-260-238zM334 94c87 0 140 55 140 127v2c0 70-56 122-143 122s-142-56-142-123v-2c0-71 57-126 145-126z" glyph-name="six" horiz-adv-x="656" unicode="&#x36;"/><glyph d="M106 0l314 592h-352v108h492v-93l-316-607h-138z" glyph-name="seven" horiz-adv-x="609" unicode="&#x37;"/><glyph d="M315-10c-153 0-267 80-267 200v2c0 85 47 138 126 171-59 31-102 78-102 156v2c0 107 103 189 243 189s243-81 243-189v-2c0-78-43-125-102-156 76-35 126-85 126-168v-2c0-125-114-203-267-203zM315 404c72 0 125 43 125 103v2c0 54-50 98-125 98s-125-44-125-97v-2c0-61 53-104 125-104zM315 93c92 0 147 47 147 105v2c0 64-64 106-147 106s-147-42-147-106v-2c0-57 55-105 147-105z" glyph-name="eight" horiz-adv-x="630" unicode="&#x38;"/><glyph d="M299-12c-97 0-165 35-224 84l67 94c53-45 100-66 160-66 103 0 165 91 169 220-35-42-89-74-164-74-149 0-248 87-248 222v2c0 137 106 242 261 242 88 0 145-25 194-74 52-52 85-129 85-267v-2c0-225-112-381-300-381zM325 349c89 0 142 58 142 126v2c0 73-57 129-146 129-87 0-139-58-139-130v-2c0-73 56-125 143-125z" glyph-name="nine" horiz-adv-x="656" unicode="&#x39;"/><glyph d="M73 391v137h133v-137h-133zM73 0v137h133v-137h-133z" glyph-name="colon" horiz-adv-x="279" unicode="&#x3a;"/><glyph d="M73 391v137h133v-137h-133zM52-145l-13 51c61 12 90 43 85 94h-51v137h133v-116c0-111-53-158-154-166z" glyph-name="semicolon" horiz-adv-x="279" unicode="&#x3b;"/><glyph d="M547 77l-477 221v108l477 221v-115l-357-159 357-160v-116z" glyph-name="less" horiz-adv-x="640" unicode="&#x3c;"/><glyph d="M86 421v112h468v-112h-468zM86 171v112h468v-112h-468z" glyph-name="equal" horiz-adv-x="640" unicode="&#x3d;"/><glyph d="M93 77v115l357 159-357 160v116l477-221v-108z" glyph-name="greater" horiz-adv-x="640" unicode="&#x3e;"/><glyph d="M207 221l-20 162 5 5c127 5 185 46 185 112v2c0 56-43 95-115 95-63 0-115-28-163-79l-75 80c58 66 133 111 241 111 140 0 234-78 234-203v-2c0-126-90-183-201-202l-10-81h-81zM178 0v137h134v-137h-134z" glyph-name="question" horiz-adv-x="541" unicode="&#x3f;"/><glyph d="M499-162c-256 0-446 197-446 436s193 438 438 438 436-189 436-396c0-168-91-249-194-249-78 0-125 33-148 70-36-37-85-70-155-70-100 0-181 74-181 189 0 141 111 250 227 250 72 0 115-34 141-74l12 60 97-15-44-252c-3-18-5-34-5-43 0-43 29-71 78-71 71 0 132 68 132 205 0 184-169 358-396 358-228 0-398-180-398-400 0-221 168-398 406-398 99 0 171 23 247 67l18-30c-77-47-161-75-265-75zM457 154c73 0 138 71 138 158 0 64-45 108-105 108-73 0-139-68-139-158 0-69 44-108 106-108z" glyph-name="at" horiz-adv-x="980" unicode="&#x40;"/><glyph d="M30 0l308 705h114l308-705h-130l-71 169h-331l-72-169h-126zM273 278h241l-121 280z" glyph-name="A" horiz-adv-x="790" unicode="&#x41;"/><glyph d="M90 0v700h314c80 0 143-22 183-62 31-31 47-69 47-116v-2c0-84-48-129-100-156 82-28 139-75 139-170v-2c0-125-103-192-259-192h-324zM211 405h168c79 0 132 31 132 95v2c0 55-44 89-123 89h-177v-186zM211 109h204c84 0 135 33 135 96v2c0 59-47 94-144 94h-195v-192z" glyph-name="B" horiz-adv-x="722" unicode="&#x42;"/><glyph d="M415-12c-204 0-356 159-356 360v2c0 199 149 362 361 362 129 0 207-45 274-109l-79-91c-56 52-116 87-196 87-134 0-231-110-231-247v-2c0-137 97-249 231-249 86 0 141 35 201 91l79-80c-73-76-153-124-284-124z" glyph-name="C" horiz-adv-x="738" unicode="&#x43;"/><glyph d="M90 0v700h261c220 0 372-151 372-348v-2c0-197-152-350-372-350h-261zM213 112h138c147 0 243 99 243 236v2c0 137-96 238-243 238h-138v-476z" glyph-name="D" horiz-adv-x="782" unicode="&#x44;"/><glyph d="M90 0v700h519v-110h-396v-182h351v-110h-351v-188h401v-110h-524z" glyph-name="E" horiz-adv-x="670" unicode="&#x45;"/><glyph d="M90 0v700h521v-112h-398v-191h353v-112h-353v-285h-123z" glyph-name="F" horiz-adv-x="656" unicode="&#x46;"/><glyph d="M422-12c-219 0-363 156-363 360v2c0 196 150 362 361 362 122 0 197-34 269-95l-78-93c-54 46-107 75-196 75-129 0-227-113-227-247v-2c0-144 95-250 238-250 66 0 126 21 169 53v131h-179v107h298v-294c-69-59-168-109-292-109z" glyph-name="G" horiz-adv-x="784" unicode="&#x47;"/><glyph d="M90 0v700h123v-291h334v291h123v-700h-123v295h-334v-295h-123z" glyph-name="H" horiz-adv-x="760" unicode="&#x48;"/><glyph d="M97 0v700h123v-700h-123z" glyph-name="I" horiz-adv-x="317" unicode="&#x49;"/><glyph d="M245-10c-108 0-178 50-224 113l81 83c41-52 82-82 141-82 66 0 111 44 111 137v459h126v-462c0-83-24-145-65-186s-100-62-170-62z" glyph-name="J" horiz-adv-x="559" unicode="&#x4a;"/><glyph d="M90 0v700h123v-352l333 352h151l-291-301 304-399h-149l-239 315-109-112v-203h-123z" glyph-name="K" horiz-adv-x="725" unicode="&#x4b;"/><glyph d="M90 0v700h123v-588h368v-112h-491z" glyph-name="L" horiz-adv-x="619" unicode="&#x4c;"/><glyph d="M90 0v700h131l213-331 213 331h131v-700h-123v502l-221-330h-4l-219 328v-500h-121z" glyph-name="M" horiz-adv-x="868" unicode="&#x4d;"/><glyph d="M90 0v700h114l375-484v484h121v-700h-103l-386 498v-498h-121z" glyph-name="N" horiz-adv-x="790" unicode="&#x4e;"/><glyph d="M424-12c-215 0-365 163-365 360v2c0 197 152 362 367 362s365-163 365-360v-2c0-197-152-362-367-362zM426 101c139 0 236 111 236 247v2c0 136-99 249-238 249s-236-111-236-247v-2c0-136 99-249 238-249z" glyph-name="O" horiz-adv-x="850" unicode="&#x4f;"/><glyph d="M90 0v700h276c163 0 266-93 266-234v-2c0-157-126-239-280-239h-139v-225h-123zM213 336h143c93 0 151 52 151 125v2c0 82-59 125-151 125h-143v-252z" glyph-name="P" horiz-adv-x="668" unicode="&#x50;"/><glyph d="M721-21l-84 75c-59-42-131-66-213-66-215 0-365 163-365 360v2c0 197 152 362 367 362s365-163 365-360v-2c0-79-25-154-71-215l80-68zM426 101c46 0 87 13 120 34l-120 102 79 90 121-110c24 37 36 82 36 131v2c0 136-99 249-238 249s-236-111-236-247v-2c0-136 99-249 238-249z" glyph-name="Q" horiz-adv-x="850" unicode="&#x51;"/><glyph d="M90 0v700h312c88 0 157-26 202-70 37-38 58-90 58-151v-2c0-115-69-184-167-212l189-265h-145l-172 244h-2-152v-244h-123zM213 353h180c88 0 144 46 144 117v2c0 75-54 116-145 116h-179v-235z" glyph-name="R" horiz-adv-x="723" unicode="&#x52;"/><glyph d="M335-10c-107 0-208 37-292 112l74 88c67-58 134-91 221-91 76 0 124 35 124 88v2c0 50-28 77-158 107-149 36-233 80-233 209v2c0 120 100 203 239 203 102 0 183-31 254-88l-66-93c-63 47-126 72-190 72-72 0-114-37-114-83v-2c0-54 32-78 166-110 148-36 225-89 225-205v-2c0-131-103-209-250-209z" glyph-name="S" horiz-adv-x="640" unicode="&#x53;"/><glyph d="M262 0v586h-222v114h568v-114h-222v-586h-124z" glyph-name="T" horiz-adv-x="648" unicode="&#x54;"/><glyph d="M377-11c-182 0-298 105-298 308v403h123v-398c0-130 67-200 177-200 109 0 176 66 176 195v403h123v-397c0-209-118-314-301-314z" glyph-name="U" horiz-adv-x="757" unicode="&#x55;"/><glyph d="M321-5l-291 705h136l211-538 210 538h133l-291-705h-108z" glyph-name="V" horiz-adv-x="750" unicode="&#x56;"/><glyph d="M280-5l-244 705h133l167-519 172 521h104l172-521 167 519h129l-244-705h-106l-172 503-172-503h-106z" glyph-name="W" horiz-adv-x="1116" unicode="&#x57;"/><glyph d="M37 0l255 356-245 344h145l174-251 175 251h141l-244-342 254-358h-145l-184 265-185-265h-141z" glyph-name="X" horiz-adv-x="729" unicode="&#x58;"/><glyph d="M296 0v276l-278 424h145l196-310 198 310h141l-278-421v-279h-124z" glyph-name="Y" horiz-adv-x="716" unicode="&#x59;"/><glyph d="M65 0v91l413 500h-400v109h560v-91l-413-500h413v-109h-573z" glyph-name="Z" horiz-adv-x="702" unicode="&#x5a;"/><glyph d="M88-130v830h307v-95h-192v-640h192v-95h-307z" glyph-name="bracketleft" horiz-adv-x="454" unicode="&#x5b;"/><glyph d="M441-128l-452 926h105l452-926h-105z" glyph-name="backslash" horiz-adv-x="521" unicode="&#x5c;"/><glyph d="M59-130v95h192v640h-192v95h308v-830h-308z" glyph-name="bracketright" horiz-adv-x="454" unicode="&#x5d;"/><glyph d="M56 493l151 208h86l151-208h-93l-102 132-102-132h-91z" glyph-name="asciicircum" unicode="&#x5e;"/><glyph d="M-2-160v94h604v-94h-604z" glyph-name="underscore" horiz-adv-x="600" unicode="&#x5f;"/><glyph d="M246 595l-122 115 110 49 106-164h-94z" glyph-name="grave" unicode="&#x60;"/><glyph d="M519 0h-120v65c-36-43-91-76-171-76-100 0-188 57-188 163v2c0 117 91 173 214 173 64 0 105-9 146-22v10c0 73-46 113-130 113-59 0-103-13-151-33l-33 97c58 26 115 44 201 44 156 0 232-82 232-223v-313zM402 191v30c-31 12-74 21-121 21-76 0-121-31-121-82v-2c0-50 45-78 102-78 80 0 140 45 140 111z" glyph-name="a" horiz-adv-x="587" unicode="&#x61;"/><glyph d="M376-11c-87 0-142 44-179 93v-82h-121v730h121v-290c39 55 94 99 179 99 125 0 246-99 246-274v-2c0-175-120-274-246-274zM348 94c83 0 151 65 151 169v2c0 102-69 169-151 169s-154-68-154-169v-2c0-102 72-169 154-169z" glyph-name="b" horiz-adv-x="670" unicode="&#x62;"/><glyph d="M320-12c-157 0-273 123-273 273v2c0 150 116 276 274 276 100 0 162-37 211-91l-75-81c-37 39-76 66-137 66-88 0-152-76-152-168v-2c0-94 65-170 158-170 57 0 99 27 137 66l73-72c-52-58-113-99-216-99z" glyph-name="c" horiz-adv-x="571" unicode="&#x63;"/><glyph d="M294-11c-124 0-245 99-245 274v2c0 175 119 274 245 274 87 0 142-44 180-93v284h121v-730h-121v88c-39-55-94-99-180-99zM323 94c81 0 153 68 153 169v2c0 102-72 169-153 169-83 0-152-64-152-169v-2c0-102 70-169 152-169z" glyph-name="d" horiz-adv-x="670" unicode="&#x64;"/><glyph d="M318-12c-153 0-271 111-271 274v2c0 151 107 275 258 275 168 0 253-132 253-284 0-11-1-22-2-34h-388c13-86 74-134 152-134 59 0 101 22 143 63l71-63c-50-60-119-99-216-99zM167 301h271c-8 78-54 139-134 139-74 0-126-57-137-139z" glyph-name="e" horiz-adv-x="604" unicode="&#x65;"/><glyph d="M103 0v424h-67v101h67v38c0 59 15 103 43 131s67 42 119 42c42 0 71-6 98-14v-102c-24 8-45 13-71 13-46 0-70-25-70-80v-29h140v-100h-138v-424h-121z" glyph-name="f" horiz-adv-x="376" unicode="&#x66;"/><glyph d="M311-162c-87 0-168 22-236 63l45 91c56-35 116-56 188-56 108 0 167 56 167 162v41c-44-57-99-97-186-97-124 0-240 92-240 247v2c0 156 117 248 240 248 89 0 144-41 185-90v79h121v-420c0-89-23-155-67-199-48-48-122-71-217-71zM321 144c84 0 155 60 155 145v2c0 87-71 146-155 146s-150-58-150-145v-2c0-87 67-146 150-146z" glyph-name="g" horiz-adv-x="670" unicode="&#x67;"/><glyph d="M76 0v730h121v-284c34 50 83 93 165 93 119 0 188-80 188-203v-336h-121v300c0 82-41 129-113 129-70 0-119-49-119-131v-298h-121z" glyph-name="h" horiz-adv-x="620" unicode="&#x68;"/><glyph d="M78 609v115h130v-115h-130zM83 0v528h121v-528h-121z" glyph-name="i" horiz-adv-x="286" unicode="&#x69;"/><glyph d="M78 609v115h130v-115h-130zM50-163c-23 0-39 2-58 5v97c12-2 23-3 34-3 34 0 57 18 57 64v528h121v-535c0-107-55-156-154-156z" glyph-name="j" horiz-adv-x="286" unicode="&#x6a;"/><glyph d="M76 0v730h121v-436l219 234h147l-210-215 217-313h-140l-159 228-74-77v-151h-121z" glyph-name="k" horiz-adv-x="582" unicode="&#x6b;"/><glyph d="M83 0v730h121v-730h-121z" glyph-name="l" horiz-adv-x="286" unicode="&#x6c;"/><glyph d="M76 0v528h121v-80c34 47 80 91 161 91 76 0 129-37 157-93 43 56 99 93 179 93 115 0 185-73 185-202v-337h-121v300c0 84-39 129-107 129-66 0-113-46-113-131v-298h-121v301c0 82-40 128-107 128s-113-50-113-132v-297h-121z" glyph-name="m" horiz-adv-x="950" unicode="&#x6d;"/><glyph d="M76 0v528h121v-82c34 50 83 93 165 93 119 0 188-80 188-203v-336h-121v300c0 82-41 129-113 129-70 0-119-49-119-131v-298h-121z" glyph-name="n" horiz-adv-x="620" unicode="&#x6e;"/><glyph d="M327-12c-161 0-280 123-280 273v2c0 151 120 276 282 276s281-123 281-274v-2c0-150-120-275-283-275zM329 93c98 0 160 77 160 168v2c0 93-67 170-162 170-97 0-159-76-159-168v-2c0-92 67-170 161-170z" glyph-name="o" horiz-adv-x="657" unicode="&#x6f;"/><glyph d="M76-160v688h121v-88c39 55 94 99 179 99 125 0 246-99 246-274v-2c0-175-120-274-246-274-87 0-142 44-179 93v-242h-121zM348 94c83 0 151 65 151 169v2c0 102-69 169-151 169s-154-68-154-169v-2c0-102 72-169 154-169z" glyph-name="p" horiz-adv-x="670" unicode="&#x70;"/><glyph d="M474-160v248c-39-55-94-99-180-99-124 0-245 99-245 274v2c0 175 119 274 245 274 87 0 142-44 180-93v82h121v-688h-121zM323 94c81 0 153 68 153 169v2c0 102-72 169-153 169-83 0-152-64-152-169v-2c0-102 70-169 152-169z" glyph-name="q" horiz-adv-x="670" unicode="&#x71;"/><glyph d="M76 0v528h121v-119c33 79 94 133 187 129v-128h-7c-106 0-180-69-180-209v-201h-121z" glyph-name="r" horiz-adv-x="413" unicode="&#x72;"/><glyph d="M257-10c-75 0-158 27-224 79l54 82c57-43 119-65 173-65 52 0 82 22 82 57v2c0 41-56 55-118 74-78 22-165 54-165 155v2c0 100 83 161 188 161 66 0 138-23 194-60l-48-86c-51 31-105 50-149 50-47 0-74-22-74-53v-2c0-38 57-54 119-74 77-24 164-59 164-154v-2c0-111-86-166-196-166z" glyph-name="s" unicode="&#x73;"/><glyph d="M253-9c-89 0-152 39-152 155v278h-67v104h67v145h121v-145h142v-104h-142v-259c0-47 24-66 65-66 27 0 51 6 75 18v-99c-30-17-64-27-109-27z" glyph-name="t" horiz-adv-x="410" unicode="&#x74;"/><glyph d="M258-11c-119 0-188 80-188 203v336h121v-300c0-82 41-129 113-129 70 0 119 49 119 131v298h121v-528h-121v82c-34-50-83-93-165-93z" glyph-name="u" horiz-adv-x="620" unicode="&#x75;"/><glyph d="M243-4l-217 532h130l142-388 143 388h127l-216-532h-109z" glyph-name="v" horiz-adv-x="595" unicode="&#x76;"/><glyph d="M203-4l-171 532h124l106-362 117 364h103l118-364 108 362h121l-173-532h-108l-118 361-119-361h-108z" glyph-name="w" horiz-adv-x="861" unicode="&#x77;"/><glyph d="M30 0l194 268-187 260h132l122-174 122 174h129l-187-257 195-271h-132l-130 185-129-185h-129z" glyph-name="x" horiz-adv-x="580" unicode="&#x78;"/><glyph d="M184-163c-51 0-88 12-125 32l41 90c22-12 46-20 71-20 34 0 55 15 75 61l-220 528h129l150-392 137 392h126l-210-543c-42-108-89-148-174-148z" glyph-name="y" horiz-adv-x="596" unicode="&#x79;"/><glyph d="M52 0v83l305 346h-294v99h448v-83l-305-346h305v-99h-459z" glyph-name="z" horiz-adv-x="560" unicode="&#x7a;"/><glyph d="M416-141c-182 33-227 97-227 200 0 15 2 55 2 72 0 78-30 110-113 110h-26v92h26c83 0 113 32 113 110 0 17-2 57-2 72 0 103 45 167 227 200l21-80c-120-33-136-64-136-137 0-20 2-53 2-74 0-78-38-116-104-137 67-22 104-59 104-137 0-21-2-54-2-74 0-73 16-104 136-137z" glyph-name="braceleft" horiz-adv-x="487" unicode="&#x7b;"/><glyph d="M117-128v926h97v-926h-97z" glyph-name="bar" horiz-adv-x="331" unicode="&#x7c;"/><glyph d="M71-141l-21 80c120 33 136 64 136 137 0 20-2 53-2 74 0 78 38 116 104 137-67 22-104 59-104 137 0 21 2 54 2 74 0 73-16 104-136 137l21 80c182-33 227-97 227-200 0-15-2-55-2-72 0-78 30-110 113-110h26v-92h-26c-83 0-113-32-113-110 0-17 2-57 2-72 0-103-45-167-227-200z" glyph-name="braceright" horiz-adv-x="487" unicode="&#x7d;"/><glyph d="M126 229l-67 21c22 80 51 124 112 124 55 0 108-40 143-40 29 0 41 16 55 50l67-20c-22-81-51-125-112-125-55 0-108 40-143 40-29 0-41-16-55-50z" glyph-name="asciitilde" horiz-adv-x="495" unicode="&#x7e;"/><glyph d="M30 0l308 705h114l308-705h-130l-71 169h-331l-72-169h-126zM273 278h241l-121 280zM433 758v118h123v-118h-123zM234 758v118h123v-118h-123z" glyph-name="Adieresis" horiz-adv-x="790" unicode="&#xc4;"/><glyph d="M30 0l298 684c-27 20-47 51-47 87v2c0 59 54 109 114 109s114-50 114-109v-2c0-36-20-67-47-87l298-684h-130l-71 169h-331l-72-169h-126zM395 710c34 0 62 28 62 61v2c0 33-28 61-62 61s-62-28-62-61v-2c0-33 28-61 62-61zM273 278h241l-121 280z" glyph-name="Aring" horiz-adv-x="790" unicode="&#xc5;"/><glyph d="M371-165l-105 44 79 116c-168 31-286 176-286 353v2c0 199 149 362 361 362 129 0 207-45 274-109l-79-91c-56 52-116 87-196 87-134 0-231-110-231-247v-2c0-137 97-249 231-249 86 0 141 35 201 91l79-80c-68-71-143-118-262-123z" glyph-name="Ccedilla" horiz-adv-x="738" unicode="&#xc7;"/><glyph d="M90 0v700h519v-110h-396v-182h351v-110h-351v-188h401v-110h-524zM277 758l106 164 110-49-122-115h-94z" glyph-name="Eacute" horiz-adv-x="670" unicode="&#xc9;"/><glyph d="M90 0v700h114l375-484v484h121v-700h-103l-386 498v-498h-121zM273 748l-67 20c22 81 51 125 112 125 55 0 108-40 144-40 29 0 40 16 55 50l67-21c-22-80-51-124-112-124-55 0-108 40-144 40-29 0-40-16-55-50z" glyph-name="Ntilde" horiz-adv-x="790" unicode="&#xd1;"/><glyph d="M424-12c-215 0-365 163-365 360v2c0 197 152 362 367 362s365-163 365-360v-2c0-197-152-362-367-362zM426 101c139 0 236 111 236 247v2c0 136-99 249-238 249s-236-111-236-247v-2c0-136 99-249 238-249zM463 758v118h123v-118h-123zM264 758v118h123v-118h-123z" glyph-name="Odieresis" horiz-adv-x="850" unicode="&#xd6;"/><glyph d="M377-11c-182 0-298 105-298 308v403h123v-398c0-130 67-200 177-200 109 0 176 66 176 195v403h123v-397c0-209-118-314-301-314zM417 757v118h123v-118h-123zM218 757v118h123v-118h-123z" glyph-name="Udieresis" horiz-adv-x="757" unicode="&#xdc;"/><glyph d="M519 0h-120v65c-36-43-91-76-171-76-100 0-188 57-188 163v2c0 117 91 173 214 173 64 0 105-9 146-22v10c0 73-46 113-130 113-59 0-103-13-151-33l-33 97c58 26 115 44 201 44 156 0 232-82 232-223v-313zM402 191v30c-31 12-74 21-121 21-76 0-121-31-121-82v-2c0-50 45-78 102-78 80 0 140 45 140 111zM235 595l106 164 110-49-122-115h-94z" glyph-name="aacute" horiz-adv-x="587" unicode="&#xe1;"/><glyph d="M519 0h-120v65c-36-43-91-76-171-76-100 0-188 57-188 163v2c0 117 91 173 214 173 64 0 105-9 146-22v10c0 73-46 113-130 113-59 0-103-13-151-33l-33 97c58 26 115 44 201 44 156 0 232-82 232-223v-313zM402 191v30c-31 12-74 21-121 21-76 0-121-31-121-82v-2c0-50 45-78 102-78 80 0 140 45 140 111zM257 595l-122 115 110 49 106-164h-94z" glyph-name="agrave" horiz-adv-x="587" unicode="&#xe0;"/><glyph d="M519 0h-120v65c-36-43-91-76-171-76-100 0-188 57-188 163v2c0 117 91 173 214 173 64 0 105-9 146-22v10c0 73-46 113-130 113-59 0-103-13-151-33l-33 97c58 26 115 44 201 44 156 0 232-82 232-223v-313zM402 191v30c-31 12-74 21-121 21-76 0-121-31-121-82v-2c0-50 45-78 102-78 80 0 140 45 140 111zM121 595l116 146h112l116-146h-96l-77 67-77-67h-94z" glyph-name="acircumflex" horiz-adv-x="587" unicode="&#xe2;"/><glyph d="M519 0h-120v65c-36-43-91-76-171-76-100 0-188 57-188 163v2c0 117 91 173 214 173 64 0 105-9 146-22v10c0 73-46 113-130 113-59 0-103-13-151-33l-33 97c58 26 115 44 201 44 156 0 232-82 232-223v-313zM402 191v30c-31 12-74 21-121 21-76 0-121-31-121-82v-2c0-50 45-78 102-78 80 0 140 45 140 111zM331 595v118h123v-118h-123zM132 595v118h123v-118h-123z" glyph-name="adieresis" horiz-adv-x="587" unicode="&#xe4;"/><glyph d="M519 0h-120v65c-36-43-91-76-171-76-100 0-188 57-188 163v2c0 117 91 173 214 173 64 0 105-9 146-22v10c0 73-46 113-130 113-59 0-103-13-151-33l-33 97c58 26 115 44 201 44 156 0 232-82 232-223v-313zM402 191v30c-31 12-74 21-121 21-76 0-121-31-121-82v-2c0-50 45-78 102-78 80 0 140 45 140 111zM172 585l-67 20c22 81 51 125 112 125 55 0 108-40 144-40 29 0 40 16 55 50l67-21c-22-80-51-124-112-124-55 0-108 40-144 40-29 0-40-16-55-50z" glyph-name="atilde" horiz-adv-x="587" unicode="&#xe3;"/><glyph d="M519 0h-120v65c-36-43-91-76-171-76-100 0-188 57-188 163v2c0 117 91 173 214 173 64 0 105-9 146-22v10c0 73-46 113-130 113-59 0-103-13-151-33l-33 97c58 26 115 44 201 44 156 0 232-82 232-223v-313zM402 191v30c-31 12-74 21-121 21-76 0-121-31-121-82v-2c0-50 45-78 102-78 80 0 140 45 140 111zM293 593c-60 0-114 50-114 109v2c0 59 54 109 114 109s114-50 114-109v-2c0-59-54-109-114-109zM293 641c34 0 62 28 62 61v2c0 33-28 61-62 61s-62-28-62-61v-2c0-33 28-61 62-61z" glyph-name="aring" horiz-adv-x="587" unicode="&#xe5;"/><glyph d="M276-165l-106 44 80 118c-120 30-203 137-203 264v2c0 150 116 276 274 276 100 0 162-37 211-91l-75-81c-37 39-76 66-137 66-88 0-152-76-152-168v-2c0-94 65-170 158-170 57 0 99 27 137 66l73-72c-49-53-104-93-195-98z" glyph-name="ccedilla" horiz-adv-x="571" unicode="&#xe7;"/><glyph d="M318-12c-153 0-271 111-271 274v2c0 151 107 275 258 275 168 0 253-132 253-284 0-11-1-22-2-34h-388c13-86 74-134 152-134 59 0 101 22 143 63l71-63c-50-60-119-99-216-99zM167 301h271c-8 78-54 139-134 139-74 0-126-57-137-139zM249 595l106 164 110-49-122-115h-94z" glyph-name="eacute" horiz-adv-x="604" unicode="&#xe9;"/><glyph d="M318-12c-153 0-271 111-271 274v2c0 151 107 275 258 275 168 0 253-132 253-284 0-11-1-22-2-34h-388c13-86 74-134 152-134 59 0 101 22 143 63l71-63c-50-60-119-99-216-99zM167 301h271c-8 78-54 139-134 139-74 0-126-57-137-139zM261 595l-122 115 110 49 106-164h-94z" glyph-name="egrave" horiz-adv-x="604" unicode="&#xe8;"/><glyph d="M318-12c-153 0-271 111-271 274v2c0 151 107 275 258 275 168 0 253-132 253-284 0-11-1-22-2-34h-388c13-86 74-134 152-134 59 0 101 22 143 63l71-63c-50-60-119-99-216-99zM167 301h271c-8 78-54 139-134 139-74 0-126-57-137-139zM131 595l116 146h112l116-146h-96l-77 67-77-67h-94z" glyph-name="ecircumflex" horiz-adv-x="604" unicode="&#xea;"/><glyph d="M318-12c-153 0-271 111-271 274v2c0 151 107 275 258 275 168 0 253-132 253-284 0-11-1-22-2-34h-388c13-86 74-134 152-134 59 0 101 22 143 63l71-63c-50-60-119-99-216-99zM167 301h271c-8 78-54 139-134 139-74 0-126-57-137-139zM341 595v118h123v-118h-123zM142 595v118h123v-118h-123z" glyph-name="edieresis" horiz-adv-x="604" unicode="&#xeb;"/><glyph d="M83 0v528h121v-528h-121zM91 595l106 164 110-49-122-115h-94z" glyph-name="iacute" horiz-adv-x="286" unicode="&#xed;"/><glyph d="M83 0v528h121v-528h-121zM101 595l-122 115 110 49 106-164h-94z" glyph-name="igrave" horiz-adv-x="286" unicode="&#xec;"/><glyph d="M83 0v528h121v-528h-121zM-29 595l116 146h112l116-146h-96l-77 67-77-67h-94z" glyph-name="icircumflex" horiz-adv-x="286" unicode="&#xee;"/><glyph d="M83 0v528h121v-528h-121zM181 595v118h123v-118h-123zM-18 595v118h123v-118h-123z" glyph-name="idieresis" horiz-adv-x="286" unicode="&#xef;"/><glyph d="M76 0v528h121v-82c34 50 83 93 165 93 119 0 188-80 188-203v-336h-121v300c0 82-41 129-113 129-70 0-119-49-119-131v-298h-121zM192 585l-67 20c22 81 51 125 112 125 56 0 109-40 145-40 29 0 40 16 55 50l67-21c-22-80-51-124-112-124-55 0-108 40-145 40-29 0-40-16-55-50z" glyph-name="ntilde" horiz-adv-x="620" unicode="&#xf1;"/><glyph d="M327-12c-161 0-280 123-280 273v2c0 151 120 276 282 276s281-123 281-274v-2c0-150-120-275-283-275zM329 93c98 0 160 77 160 168v2c0 93-67 170-162 170-97 0-159-76-159-168v-2c0-92 67-170 161-170zM281 595l106 164 110-49-122-115h-94z" glyph-name="oacute" horiz-adv-x="657" unicode="&#xf3;"/><glyph d="M327-12c-161 0-280 123-280 273v2c0 151 120 276 282 276s281-123 281-274v-2c0-150-120-275-283-275zM329 93c98 0 160 77 160 168v2c0 93-67 170-162 170-97 0-159-76-159-168v-2c0-92 67-170 161-170zM281 595l-122 115 110 49 106-164h-94z" glyph-name="ograve" horiz-adv-x="657" unicode="&#xf2;"/><glyph d="M327-12c-161 0-280 123-280 273v2c0 151 120 276 282 276s281-123 281-274v-2c0-150-120-275-283-275zM329 93c98 0 160 77 160 168v2c0 93-67 170-162 170-97 0-159-76-159-168v-2c0-92 67-170 161-170zM156 595l116 146h112l116-146h-96l-77 67-77-67h-94z" glyph-name="ocircumflex" horiz-adv-x="657" unicode="&#xf4;"/><glyph d="M327-12c-161 0-280 123-280 273v2c0 151 120 276 282 276s281-123 281-274v-2c0-150-120-275-283-275zM329 93c98 0 160 77 160 168v2c0 93-67 170-162 170-97 0-159-76-159-168v-2c0-92 67-170 161-170zM366 595v118h123v-118h-123zM167 595v118h123v-118h-123z" glyph-name="odieresis" horiz-adv-x="657" unicode="&#xf6;"/><glyph d="M327-12c-161 0-280 123-280 273v2c0 151 120 276 282 276s281-123 281-274v-2c0-150-120-275-283-275zM329 93c98 0 160 77 160 168v2c0 93-67 170-162 170-97 0-159-76-159-168v-2c0-92 67-170 161-170zM206 585l-67 20c22 81 51 125 112 125 55 0 108-40 144-40 29 0 40 16 55 50l67-21c-22-80-51-124-112-124-55 0-108 40-144 40-29 0-40-16-55-50z" glyph-name="otilde" horiz-adv-x="657" unicode="&#xf5;"/><glyph d="M258-11c-119 0-188 80-188 203v336h121v-300c0-82 41-129 113-129 70 0 119 49 119 131v298h121v-528h-121v82c-34-50-83-93-165-93zM249 594l106 164 110-49-122-115h-94z" glyph-name="uacute" horiz-adv-x="620" unicode="&#xfa;"/><glyph d="M258-11c-119 0-188 80-188 203v336h121v-300c0-82 41-129 113-129 70 0 119 49 119 131v298h121v-528h-121v82c-34-50-83-93-165-93zM275 594l-122 115 110 49 106-164h-94z" glyph-name="ugrave" horiz-adv-x="620" unicode="&#xf9;"/><glyph d="M258-11c-119 0-188 80-188 203v336h121v-300c0-82 41-129 113-129 70 0 119 49 119 131v298h121v-528h-121v82c-34-50-83-93-165-93zM138 595l116 146h112l116-146h-96l-77 67-77-67h-94z" glyph-name="ucircumflex" horiz-adv-x="620" unicode="&#xfb;"/><glyph d="M258-11c-119 0-188 80-188 203v336h121v-300c0-82 41-129 113-129 70 0 119 49 119 131v298h121v-528h-121v82c-34-50-83-93-165-93zM348 595v118h123v-118h-123zM149 595v118h123v-118h-123z" glyph-name="udieresis" horiz-adv-x="620" unicode="&#xfc;"/><glyph d="M169 238l9 275-122-9v71l121-9-12 134h80l-12-134 121 9v-71l-122 9 9-275h-72z" glyph-name="dagger" horiz-adv-x="410" unicode="&#x2020;"/><glyph d="M235 381c-87 0-166 75-166 162v2c0 87 79 161 166 161 88 0 167-74 167-161v-2c0-87-79-162-167-162zM235 447c55 0 95 45 95 96v2c0 51-40 95-95 95-54 0-94-44-94-95v-2c0-51 40-96 94-96z" glyph-name="degree" horiz-adv-x="471" unicode="&#xb0;"/><glyph d="M210-6l20 102c-105 37-178 139-178 257v2c0 151 116 275 273 275h9l15 76h88l-18-89c49-15 86-43 118-78l-73-78c-21 21-44 39-69 50l-65-326c56 1 100 28 138 65l70-69c-52-59-118-101-217-101h-6l-17-86h-88zM255 202l63 323c-85-2-148-76-148-168v-2c0-67 32-125 85-153z" glyph-name="cent" horiz-adv-x="581" unicode="&#xa2;"/><glyph d="M63 0v78l79 24v176h-79v104h79v92c0 73 22 134 62 174 39 40 96 62 168 62 111 0 173-49 221-112l-94-75c-36 46-70 73-126 73-31 0-54-10-73-28-21-22-34-55-34-97v-89h249v-104h-249v-171h325v-107h-528z" glyph-name="sterling" horiz-adv-x="644" unicode="&#xa3;"/><glyph d="M326-10c-98 0-175 36-231 95l69 68c46-43 98-71 161-71 55 0 81 21 81 49v2c0 29-29 47-132 70-155 35-216 74-216 146v2c0 65 46 100 107 116-36 23-55 57-55 95v2c0 89 74 146 196 146 98 0 175-36 231-95l-69-68c-46 43-98 71-161 71-53 0-81-20-81-49v-2c0-27 24-45 132-70 155-35 216-73 216-146v-2c0-64-46-100-107-116 35-21 55-57 55-95v-2c0-88-73-146-196-146zM388 278c45 0 77 23 77 54v2c0 29-32 49-117 70-51 13-81 18-104 18-45 0-77-23-77-54v-2c0-29 32-49 117-70 51-13 81-18 104-18z" glyph-name="section" horiz-adv-x="632" unicode="&#xa7;"/><glyph d="M245 211c-77 0-141 62-141 140v2c0 78 65 140 141 140 77 0 142-62 142-140v-2c0-78-64-140-142-140z" glyph-name="bullet" horiz-adv-x="491" unicode="&#x2022;"/><glyph d="M346 0v244h-18c-164 0-288 78-288 227v2c0 142 111 227 271 227h159v-700h-124z" glyph-name="paragraph" horiz-adv-x="557" unicode="&#xb6;"/><glyph d="M296-2v93c97 3 154 40 154 108v2c0 65-63 103-154 114v82c64 31 113 73 113 139v2c0 58-40 96-101 96-66 0-112-50-112-128v-506h-120v502c0 145 92 235 238 235 136 0 215-83 215-188v-2c0-90-52-139-110-171 78-26 152-78 152-178v-2c0-129-107-203-275-198z" glyph-name="germandbls" horiz-adv-x="620" unicode="&#xdf;"/><glyph d="M414-12c-203 0-361 163-361 360v2c0 197 160 362 363 362s361-163 361-360v-2c0-197-160-362-363-362zM414 24c185 0 325 147 325 326v2c0 179-139 324-323 324-185 0-325-147-325-326v-2c0-179 139-324 323-324zM269 171v379h169c50 0 89-15 115-41 20-19 31-46 31-79v-2c0-61-36-99-88-114l102-143h-86l-92 131h-2-77v-131h-72zM341 365h94c47 0 75 23 75 59v2c0 38-28 59-75 59h-94v-120z" glyph-name="registered" horiz-adv-x="830" unicode="&#xae;"/><glyph d="M414-12c-203 0-361 163-361 360v2c0 197 160 362 363 362s361-163 361-360v-2c0-197-160-362-363-362zM414 24c185 0 325 147 325 326v2c0 179-139 324-323 324-185 0-325-147-325-326v-2c0-179 139-324 323-324zM419 159c-110 0-192 86-192 194v2c0 107 81 196 194 196 71 0 113-24 149-59l-47-54c-29 26-62 45-102 45-68 0-118-57-118-127v-2c0-69 50-127 118-127 45 0 73 18 104 47l48-47c-40-42-83-68-154-68z" glyph-name="copyright" horiz-adv-x="830" unicode="&#xa9;"/><glyph d="M341 392v308h63l93-146 93 146h61v-308h-57v219l-95-148h-6l-95 148v-219h-57zM121 392v254h-95v54h249v-54h-95v-254h-59z" glyph-name="trademark" horiz-adv-x="690" unicode="&#x2122;"/><glyph d="M160 595l106 164 110-49-122-115h-94z" glyph-name="acute" unicode="&#xb4;"/><glyph d="M288 595v118h123v-118h-123zM89 595v118h123v-118h-123z" glyph-name="dieresis" unicode="&#xa8;"/><glyph d="M12 0l391 700h581v-110h-374v-182h329v-110h-329v-188h379v-110h-502v169h-255l-93-169h-127zM291 278h196v315h-20z" glyph-name="AE" horiz-adv-x="1045" unicode="&#xc6;"/><glyph d="M424-12c-78 0-147 22-204 60l-48-53h-121l99 111c-58 64-91 150-91 242v2c0 197 152 362 367 362 78 0 147-22 204-60l48 53h121l-99-112c58-63 91-149 91-241v-2c0-197-152-362-367-362zM232 201l320 360c-35 25-79 40-128 40-139 0-238-112-238-249v-2c0-56 16-107 46-149zM426 99c139 0 238 112 238 249v2c0 56-16 107-46 149l-320-360c35-25 79-40 128-40z" glyph-name="Oslash" horiz-adv-x="850" unicode="&#xd8;"/><glyph d="M311-12c-114 0-208 49-272 122l85 79c49-55 108-90 189-90 77 0 125 40 125 101v2c0 64-57 99-154 99h-75v104h78c81 0 132 40 132 100v2c0 55-46 94-121 94-67 0-113-34-159-88l-86 70c60 78 131 129 247 129 145 0 241-79 241-187v-2c0-88-47-136-104-164 70-27 123-73 123-158v-2c0-119-93-211-249-211z" glyph-name="plusminus" horiz-adv-x="610" unicode="&#xb1;"/><glyph d="M284 0v102h-193v89h193v73h-193v89h159l-231 347h143l183-293 183 293h139l-232-347h160v-89h-193v-73h193v-89h-193v-102h-118z" glyph-name="yen" horiz-adv-x="686" unicode="&#xa5;"/><glyph d="M666-101l-117 111c-38-14-80-22-125-22-215 0-365 163-365 360v2c0 197 152 362 367 362s365-163 365-360v-2c0-106-44-204-120-271l175-172v-8h-180zM426 101c139 0 236 111 236 247v2c0 136-99 249-238 249s-236-111-236-247v-2c0-136 99-249 238-249z" glyph-name="mu" horiz-adv-x="850" unicode="&#xb5;"/><glyph d="M414-12c-203 0-361 163-361 360v2c0 197 160 362 363 362s361-163 361-360v-2c0-197-160-362-363-362zM414 24c185 0 325 147 325 326v2c0 179-139 324-323 324-185 0-325-147-325-326v-2c0-179 139-324 323-324zM286 167v380h153c90 0 147-50 147-128v-2c0-86-71-130-155-130h-71v-120h-74zM360 352h73c48 0 78 26 78 64v2c0 41-30 63-78 63h-73v-129z" glyph-name="pi" horiz-adv-x="830" unicode="&#x3c0;"/><glyph d="M159 403c-55 0-103 31-103 90v2c0 62 50 93 120 93 32 0 54-5 76-11v5c0 39-25 61-70 61-31 0-55-8-83-19l-19 54c34 16 64 25 111 25 44 0 76-11 97-33 21-20 31-52 31-89v-172h-68v34c-21-24-50-40-92-40zM53 282v58h270v-58h-270zM177 454c43 0 75 25 75 60v18c-17 6-37 11-63 11-40 0-64-17-64-45v-2c0-26 22-42 52-42z" glyph-name="ordfeminine" horiz-adv-x="390" unicode="&#xaa;"/><glyph d="M194 402c-86 0-150 67-150 150v2c0 83 65 151 152 151 86 0 150-67 150-150v-2c0-83-65-151-152-151zM51 282v58h288v-58h-288zM196 464c49 0 80 40 80 88v2c0 48-34 89-82 89-49 0-80-40-80-88v-2c0-48 34-89 82-89z" glyph-name="ordmasculine" horiz-adv-x="390" unicode="&#xba;"/><glyph d="M479 0v424h-67v101h67v38c0 59 15 103 43 131s67 42 118 42c43 0 72-6 99-14v-102c-24 8-45 13-71 13-46 0-70-25-70-80v-29h140v-100h-138v-424h-121zM103 0v424h-67v101h67v38c0 59 15 103 43 131s67 42 119 42c42 0 71-6 98-14v-102c-24 8-45 13-71 13-46 0-70-25-70-80v-29h140v-100h-138v-424h-121z" glyph-name="Omega" horiz-adv-x="752" unicode="&#x2126;"/><glyph d="M240-11c-110 0-200 57-200 163v2c0 117 91 173 212 173 66 0 104-9 145-22v10c0 75-43 113-129 113-57 0-101-13-149-33l-33 97c58 26 115 44 199 44 86 0 153-31 185-87 42 55 107 90 185 90 165 0 250-132 250-284 0-11 0-22-1-34h-388c14-86 74-134 151-134 60 0 102 22 144 63l71-63c-51-60-119-99-217-99-82 0-156 34-204 90-59-49-132-89-221-89zM514 301h272c-8 78-54 139-134 139-75 0-127-57-138-139zM260 80c58 0 110 25 156 68-9 23-16 48-19 76-31 11-69 18-118 18-74 0-119-31-119-82v-2c0-50 44-78 100-78z" glyph-name="ae" horiz-adv-x="952" unicode="&#xe6;"/><glyph d="M327-12c-56 0-108 16-151 43l-34-36h-110l80 89c-41 48-65 110-65 177v2c0 151 120 276 282 276 57 0 109-16 151-43l35 38h110l-81-91c42-47 66-109 66-178v-2c0-150-120-275-283-275zM190 172l218 240c-23 15-50 24-81 24-99 0-162-78-162-171v-2c0-33 9-65 25-91zM329 91c100 0 163 78 163 170v2c0 34-10 66-25 92l-219-241c23-15 51-23 81-23z" glyph-name="oslash" horiz-adv-x="657" unicode="&#xf8;"/><glyph d="M229 563v137h134v-137h-134zM276-9c-140 0-234 78-234 203v2c0 126 90 183 201 202l10 81h81l20-162-5-5c-127-5-185-46-185-112v-2c0-56 43-95 115-95 63 0 115 28 163 79l75-80c-58-66-133-111-241-111z" glyph-name="questiondown" horiz-adv-x="541" unicode="&#xbf;"/><glyph d="M85 563v137h133v-137h-133zM80 0v35l38 444h67l37-444v-35h-142z" glyph-name="exclamdown" horiz-adv-x="302" unicode="&#xa1;"/><glyph d="M479 0v424h-67v101h67v38c0 59 15 103 43 131s67 42 118 42c43 0 72-6 99-14v-102c-24 8-45 13-71 13-46 0-70-25-70-80v-29h140v-100h-138v-424h-121zM103 0v424h-67v101h67v38c0 59 15 103 43 131s67 42 119 42c42 0 71-6 98-14v-102c-24 8-45 13-71 13-46 0-70-25-70-80v-29h140v-100h-138v-424h-121zM834 0v730h122v-730h-122z" glyph-name="radical" horiz-adv-x="1038" unicode="&#x221a;"/><glyph d="M97-5c-24 0-40 1-56 5v99c14-2 26-3 40-3 42 0 65 19 73 67l35 193h-80v101h97l18 93c19 101 67 155 175 155 38 0 67-4 92-11v-102c-24 6-48 10-69 10-47 0-71-23-81-77l-12-68h127v-101h-145l-38-211c-19-107-73-150-176-150z" glyph-name="florin" horiz-adv-x="527" unicode="&#x192;"/><glyph d="M830 609v115h130v-115h-130zM479 0v424h-67v101h67v38c0 59 15 103 43 131s67 42 118 42c43 0 72-6 99-14v-102c-24 8-45 13-71 13-46 0-70-25-70-80v-29h140v-100h-138v-424h-121zM103 0v424h-67v101h67v38c0 59 15 103 43 131s67 42 119 42c42 0 71-6 98-14v-102c-24 8-45 13-71 13-46 0-70-25-70-80v-29h140v-100h-138v-424h-121zM834 0v528h122v-528h-122z" glyph-name="approxequal" horiz-adv-x="1038" unicode="&#x2248;"/><glyph d="M461 41l-165 219v8l165 220 92-47-132-176 132-177zM210 41l-166 219v8l166 220 92-47-132-176 132-177z" glyph-name="guillemotleft" horiz-adv-x="606" unicode="&#xab;"/><glyph d="M396 41l-92 46 132 176-132 177 92 48 166-220v-8zM145 41l-92 46 132 176-132 177 92 48 165-220v-8z" glyph-name="guillemotright" horiz-adv-x="606" unicode="&#xbb;"/><glyph d="M594 0v134h130v-134h-130zM331 0v134h130v-134h-130zM68 0v134h130v-134h-130z" glyph-name="ellipsis" horiz-adv-x="792" unicode="&#x2026;"/><glyph glyph-name="nbspace" horiz-adv-x="300" unicode="&#xa0;"/><glyph d="M30 0l308 705h114l308-705h-130l-71 169h-331l-72-169h-126zM273 278h241l-121 280zM351 758l-122 115 110 49 106-164h-94z" glyph-name="Agrave" horiz-adv-x="790" unicode="&#xc0;"/><glyph d="M30 0l308 705h114l308-705h-130l-71 169h-331l-72-169h-126zM273 278h241l-121 280zM273 748l-67 20c22 81 51 125 112 125 55 0 108-40 144-40 29 0 40 16 55 50l67-21c-22-80-51-124-112-124-55 0-108 40-144 40-29 0-40-16-55-50z" glyph-name="Atilde" horiz-adv-x="790" unicode="&#xc3;"/><glyph d="M424-12c-215 0-365 163-365 360v2c0 197 152 362 367 362s365-163 365-360v-2c0-197-152-362-367-362zM426 101c139 0 236 111 236 247v2c0 136-99 249-238 249s-236-111-236-247v-2c0-136 99-249 238-249zM303 748l-67 20c22 81 51 125 112 125 55 0 108-40 144-40 29 0 40 16 55 50l67-21c-22-80-51-124-112-124-55 0-108 40-144 40-29 0-40-16-55-50z" glyph-name="Otilde" horiz-adv-x="850" unicode="&#xd5;"/><glyph d="M431 0c-220 0-372 151-372 348v2c0 197 152 350 372 350h606v-110h-374v-182h329v-110h-329v-188h379v-110h-611zM431 112h109v476h-109c-147 0-243-99-243-236v-2c0-137 96-238 243-238z" glyph-name="OE" horiz-adv-x="1098" unicode="&#x152;"/><glyph d="M321-12c-152 0-274 123-274 273v2c0 151 122 276 279 276 90 0 166-44 211-109 44 66 117 109 204 109 167 0 252-132 252-284 0-11-1-22-2-34h-388c14-86 75-134 152-134 60 0 102 22 144 63l71-63c-51-60-120-99-216-99-92 0-171 42-218 111-46-67-124-111-215-111zM602 301h272c-9 78-54 139-134 139-75 0-127-57-138-139zM326 93c95 0 156 77 156 168v2c0 93-66 170-158 170-95 0-156-78-156-168v-2c0-92 66-170 158-170z" glyph-name="oe" horiz-adv-x="1040" unicode="&#x153;"/><glyph d="M56 249v115h416v-115h-416z" glyph-name="endash" horiz-adv-x="528" unicode="&#x2013;"/><glyph d="M56 249v115h786v-115h-786z" glyph-name="emdash" horiz-adv-x="898" unicode="&#x2014;"/><glyph d="M295 422v117c0 111 53 158 154 166l13-52c-61-11-90-42-86-93h52v-138h-133zM63 422v117c0 111 53 158 154 166l13-52c-61-11-90-42-85-93h51v-138h-133z" glyph-name="quotedblleft" horiz-adv-x="501" unicode="&#x201c;"/><glyph d="M284 417l-13 52c61 11 90 42 85 94h-51v137h133v-117c0-111-53-158-154-166zM52 417l-13 52c61 11 90 42 85 94h-51v137h133v-117c0-111-53-158-154-166z" glyph-name="quotedblright" horiz-adv-x="501" unicode="&#x201d;"/><glyph d="M63 422v117c0 111 53 158 154 166l13-52c-61-11-90-42-85-93h51v-138h-133z" glyph-name="quoteleft" horiz-adv-x="269" unicode="&#x2018;"/><glyph d="M52 417l-13 52c61 11 90 42 85 94h-51v137h133v-117c0-111-53-158-154-166z" glyph-name="quoteright" horiz-adv-x="269" unicode="&#x2019;"/><glyph d="M184-163c-51 0-88 12-125 32l41 90c22-12 46-20 71-20 34 0 55 15 75 61l-220 528h129l150-392 137 392h126l-210-543c-42-108-89-148-174-148zM336 595v118h123v-118h-123zM137 595v118h123v-118h-123z" glyph-name="ydieresis" horiz-adv-x="596" unicode="&#xff;"/><glyph d="M296 0v276l-278 424h145l196-310 198 310h141l-278-421v-279h-124zM396 757v118h123v-118h-123zM197 757v118h123v-118h-123z" glyph-name="Ydieresis" horiz-adv-x="716" unicode="&#x178;"/><glyph d="M-70-98l467 856h110l-467-856h-110z" glyph-name="fraction" horiz-adv-x="459" unicode="&#x2044;"/><glyph d="M434-12c-148 0-253 96-291 237h-91v85h77c-1 13-1 25-1 38v2c0 15 0 31 2 45h-78v85h94c40 135 143 232 284 232 122 0 191-56 244-132l-93-69c-43 59-84 91-154 91-71 0-126-47-154-122h215v-85h-234c-1-13-2-28-2-43v-2c0-14 1-27 2-40h234v-85h-216c27-78 85-127 163-127 67 0 107 35 153 95l88-64c-57-83-128-141-242-141z" glyph-name="currency" horiz-adv-x="720" unicode="&#xa4;"/><glyph d="M210 41l-166 219v8l166 220 92-47-132-176 132-177z" glyph-name="guilsinglleft" horiz-adv-x="354" unicode="&#x2039;"/><glyph d="M145 41l-92 46 132 176-132 177 92 48 165-220v-8z" glyph-name="guilsinglright" horiz-adv-x="354" unicode="&#x203a;"/><glyph d="M454 609v115h130v-115h-130zM103 0v424h-67v101h67v38c0 59 15 103 43 131s67 42 119 42c42 0 71-6 98-14v-102c-24 8-45 13-71 13-46 0-70-25-70-80v-29h140v-100h-138v-424h-121zM459 0v528h121v-528h-121z" glyph-name="fi" horiz-adv-x="662" unicode="&#xfb01;"/><glyph d="M103 0v424h-67v101h67v38c0 59 15 103 43 131s67 42 119 42c42 0 71-6 98-14v-102c-24 8-45 13-71 13-46 0-70-25-70-80v-29h140v-100h-138v-424h-121zM459 0v730h121v-730h-121z" glyph-name="fl" horiz-adv-x="662" unicode="&#xfb02;"/><glyph d="M175 0l12 134-121-9v71l121-9-8 163 8 163-121-9v71l121-9-12 134h80l-12-134 121 9v-71l-121 9 8-163-8-163 121 9v-71l-121 9 12-134h-80z" glyph-name="daggerdbl" horiz-adv-x="430" unicode="&#x2021;"/><glyph d="M68 238v137h133v-137h-133z" glyph-name="periodcentered" horiz-adv-x="269" unicode="&#xb7;"/><glyph d="M47-145l-13 51c61 12 90 43 85 94h-51v137h133v-116c0-111-53-158-154-166z" glyph-name="quotesinglbase" horiz-adv-x="269" unicode="&#x201a;"/><glyph d="M279-145l-13 51c61 12 90 43 85 94h-51v137h133v-116c0-111-53-158-154-166zM47-145l-13 51c61 12 90 43 85 94h-51v137h133v-116c0-111-53-158-154-166z" glyph-name="quotedblbase" horiz-adv-x="501" unicode="&#x201e;"/><glyph d="M212 350c-98 0-164 81-164 177v2c0 97 67 179 166 179 98 0 164-81 164-177v-2c0-97-67-179-166-179zM119 0l512 700h99l-512-700h-99zM1014-8c-99 0-164 81-164 177v2c0 97 66 179 166 179 98 0 164-81 164-177v-2c0-97-67-179-166-179zM635-8c-98 0-164 81-164 177v2c0 97 67 179 166 179 98 0 164-81 164-177v-2c0-97-67-179-166-179zM214 427c47 0 75 46 75 100v2c0 56-32 102-77 102-47 0-75-46-75-100v-2c0-57 32-102 77-102zM1016 69c47 0 75 46 75 100v2c0 56-32 102-77 102-47 0-75-46-75-100v-2c0-57 32-102 77-102zM637 69c47 0 75 46 75 100v2c0 56-32 102-77 102-47 0-75-46-75-100v-2c0-57 32-102 77-102z" glyph-name="perthousand" horiz-adv-x="1228" unicode="&#x2030;"/><glyph d="M30 0l308 705h114l308-705h-130l-71 169h-331l-72-169h-126zM273 278h241l-121 280zM223 757l116 146h112l116-146h-96l-77 67-77-67h-94z" glyph-name="Acircumflex" horiz-adv-x="790" unicode="&#xc2;"/><glyph d="M90 0v700h519v-110h-396v-182h351v-110h-351v-188h401v-110h-524zM175 758l116 146h112l116-146h-96l-77 67-77-67h-94z" glyph-name="Ecircumflex" horiz-adv-x="670" unicode="&#xca;"/><glyph d="M30 0l308 705h114l308-705h-130l-71 169h-331l-72-169h-126zM273 278h241l-121 280zM345 758l106 164 110-49-122-115h-94z" glyph-name="Aacute" horiz-adv-x="790" unicode="&#xc1;"/><glyph d="M90 0v700h519v-110h-396v-182h351v-110h-351v-188h401v-110h-524zM385 758v118h123v-118h-123zM186 758v118h123v-118h-123z" glyph-name="Edieresis" horiz-adv-x="670" unicode="&#xcb;"/><glyph d="M90 0v700h519v-110h-396v-182h351v-110h-351v-188h401v-110h-524zM327 758l-122 115 110 49 106-164h-94z" glyph-name="Egrave" horiz-adv-x="670" unicode="&#xc8;"/><glyph d="M97 0v700h123v-700h-123zM108 758l106 164 110-49-122-115h-94z" glyph-name="Iacute" horiz-adv-x="317" unicode="&#xcd;"/><glyph d="M97 0v700h123v-700h-123zM-13 758l116 146h112l116-146h-96l-77 67-77-67h-94z" glyph-name="Icircumflex" horiz-adv-x="317" unicode="&#xce;"/><glyph d="M97 0v700h123v-700h-123zM197 758v118h123v-118h-123zM-2 758v118h123v-118h-123z" glyph-name="Idieresis" horiz-adv-x="317" unicode="&#xcf;"/><glyph d="M97 0v700h123v-700h-123zM116 758l-122 115 110 49 106-164h-94z" glyph-name="Igrave" horiz-adv-x="317" unicode="&#xcc;"/><glyph d="M424-12c-215 0-365 163-365 360v2c0 197 152 362 367 362s365-163 365-360v-2c0-197-152-362-367-362zM426 101c139 0 236 111 236 247v2c0 136-99 249-238 249s-236-111-236-247v-2c0-136 99-249 238-249zM382 758l106 164 110-49-122-115h-94z" glyph-name="Oacute" horiz-adv-x="850" unicode="&#xd3;"/><glyph d="M424-12c-215 0-365 163-365 360v2c0 197 152 362 367 362s365-163 365-360v-2c0-197-152-362-367-362zM426 101c139 0 236 111 236 247v2c0 136-99 249-238 249s-236-111-236-247v-2c0-136 99-249 238-249zM253 758l116 146h112l116-146h-96l-77 67-77-67h-94z" glyph-name="Ocircumflex" horiz-adv-x="850" unicode="&#xd4;"/><glyph d="M868 0h-767v750h767v-750zM859-104h-6l-3 20-10-21h-2l-10 21-3-20h-6l6 34h1l13-26 13 26h1zM806-87c0-10-7-18-17-18s-17 8-17 17c0 10 7 18 18 18 9 0 16-8 16-17zM758-96l-1-6c-2-2-6-3-10-3-11 0-18 7-18 17s8 18 18 18c4 0 8-1 11-3l-2-5c-2 2-6 3-9 3-6 0-12-5-12-12 0-9 6-13 13-13 3 0 7 2 10 4zM702-71l-13-19v-14h-6v14l-14 19 6 1 11-15 9 14h7zM656-104h-6v15h-16v-15h-6v33h6v-13h16v13h6v-33zM612-82c0-8-7-12-17-12v-10h-6v33c18 2 23-4 23-11zM576-104h-6l-4 8h-14l-3-8h-6l15 34h2zM534-104h-7l-8 11h-5v-11h-6v33c18 2 23-4 23-10 0-5-3-8-7-10zM491-101c-3-2-8-4-13-4-10 0-18 7-18 17s8 18 19 18c4 0 9-2 12-4l-2-5c-2 2-7 4-11 4-7 0-12-5-12-13 0-7 6-12 13-12 2 0 4 1 6 2v7h-9v5h15v-15zM447-87c0-10-7-18-17-18s-17 8-17 17c0 10 7 18 18 18 9 0 16-8 16-17zM400-82c0-8-7-12-17-12v-10h-6v33c18 2 23-4 23-11zM364-71l-13-19v-14h-6v14l-14 19 6 1 11-15 9 14h7zM323-71v-5h-12v-28h-6v28h-12v5h30zM267-71l-12-34h-1l-11 23-10-23h-1l-12 34 6 1 7-23 10 23h1l10-23 7 22h6zM211-71l-12-34h-1l-11 23-10-23h-1l-12 34 6 1 7-23 10 23h1l10-23 7 22h6zM155-71l-12-34h-1l-11 23-10-23h-1l-12 34 6 1 7-23 10 23h1l10-23 7 22h6zM716-101c0-2-1-4-4-4-2 0-4 2-4 4s1 4 4 4c2 0 4-2 4-4zM284-101c0-2-1-4-4-4-2 0-4 2-4 4s1 4 4 4c2 0 4-2 4-4zM559 686c0 0 0 8-1 12-2-1-8-1-17-1-10 0-15 0-18 1 0-4-1-12-1-12h2s4 9 10 9c3 0 3-1 3-3v-23c0-6-5-5-5-5v-2h17v2s-5-1-5 5v23c0 2 1 3 3 3 7 0 10-9 10-9h2zM504 662v2s-6-1-6 5v21c0 6 6 5 6 5v2h-18v-1-1s5 1 5-5v-9h-17v9c0 6 5 5 5 5v1 1h-17v-2s5 1 5-5v-21c0-5-5-5-5-5v-2h17v2s-5 0-5 5v10h17v-10c0-6-5-5-5-5v-2h18zM439 664c0 0-5-1-5 5v21c0 6 5 5 5 5v2h-29l-2-10 2-1s3 8 9 8h4c2 0 4 0 4-3v-10h-4c-6 0-6 5-6 5h-2v-13h2s0 6 6 6h4v-11c0-3-2-3-4-3h-4c-7 0-10 9-10 9l-2-1 2-11h30v2zM827 618v6h-685v-6h685zM696 540c0 20-18 38-37 38-9 0-23-6-23-22 0-21 18-38 37-38 9 0 23 6 23 22zM589 537c0 7-5 14-14 17 3 2 5 5 5 9 0 6-6 15-21 15-8 0-13-5-13-11 0-3 2-6 5-6s4 2 4 3c0 4-3 3-3 6s3 5 7 5c7 0 10-5 10-12 0-4-1-5-2-6-9 1-16 0-16-6 0-3 4-6 8-6 5 0 8 2 11 5 4-3 6-8 6-15 0-9-5-14-12-14s-12 4-12 9c0 2 1 3 3 3 1 0 2-2 5-2 2 0 4 2 4 5s-3 5-7 5c-5 0-9-5-9-10 0-7 7-13 16-13 17 0 25 9 25 19zM295 537c0 7-5 14-14 17 3 2 5 5 5 9 0 6-6 15-21 15-8 0-13-5-13-11 0-3 2-6 5-6s4 2 4 3c0 4-3 3-3 6s3 5 7 5c7 0 10-5 10-12 0-4-1-5-2-6-9 1-16 0-16-6 0-3 4-6 8-6 5 0 8 2 11 5 4-3 6-8 6-15 0-9-5-14-12-14s-12 4-12 9c0 2 1 3 3 3 1 0 2-2 5-2 2 0 4 2 4 5s-3 5-7 5c-5 0-9-5-9-10 0-7 7-13 16-13 17 0 25 9 25 19zM820 522c0 0-8-1-10 8l-7 35c-2 9 7 8 7 8l-1 3h-28l1-3s7 1 9-8l3-15h-24l-3 15c-2 9 7 8 7 8l-1 3h-29l1-3s8 1 10-8l7-35c2-9-7-8-7-8l1-3h29l-1 3s-8-1-10 8l-3 16h24l3-16c2-9-7-8-7-8l1-3h29zM498 519l-1 3s-8-1-10 8l-7 35c-2 9 7 8 7 8l-1 3h-45c1-4 0-17 0-17h4s-1 13 13 13h4c3 0 5-1 6-6l3-16h-4c-9 0-12 9-12 9h-3l5-23h3s-1 11 8 11h4l3-17c2-9-7-8-7-8l1-3h29zM202 522c0 0-8-1-10 8l-7 35c-2 9 7 8 7 8l-1 3h-27s-20-5-20-15c0-8 9-14 19-15l-9-16c-5-9-14-8-14-8l1-3h19l12 23c1 2 3 3 5 3l3-15c2-9-7-8-7-8l1-3h29zM400 521c0 3-4 8-13 9-10 7 2 48-29 48-7 0-13-6-13-10 0-3 2-5 5-5 4 0 4 2 4 6 0 3 1 6 5 6 13 0 4-30 21-45-14 0-16-13-23-13-3 0-5 2-5 4 0 3 2 3 2 5 0 3-2 5-5 5-4 0-5-4-5-7 0-6 8-12 15-12 18 0 14 13 25 13 2-4 7-7 12-7 2 0 4 1 4 3zM827 475v6h-685v-6h685zM827 378v62h-147v-62h36v28h11v-65h-14v-33h81v33h-14v65h11v-28h36zM648 406v34h-81v-34h11l-15-23-15 23h10v34h-62v-34h12l37-46v-19h-14v-33h81v33h-15v20l37 45h14zM458 308v33h-14v65h14v34h-96c-29 0-47-18-47-40 0-23 18-40 47-40h30v-19h-15v-33h81zM283 308v33h-14v65h14v34h-141v-62h41v28h33v-20h-24v-24h24v-21h-33v28h-41v-61h141zM827 271v6h-685v-6h685zM728 192c0 20-18 38-37 38-9 0-23-6-23-22 0-21 18-38 37-38 9 0 23 6 23 22zM203 217c-4 7-8 13-18 13-9 0-15-7-14-23-4 13-10 23-21 23-6 0-12-4-12-12l3-1c0 4 3 6 8 6 13 0 20-17 24-33 4-17-6-15-6-15l1-4h28l-1 4s-7-2-10 9c-3 10-5 20-5 25 0 8 3 13 9 13s9-4 12-7zM823 171l-1 3s-8-1-10 8l-7 35c-2 9 7 8 7 8l-1 3h-45c1-4 0-17 0-17h4s-1 13 13 13h4c3 0 5-1 6-6l3-16h-4c-9 0-12 9-12 9h-3l5-23h3s-1 11 8 11h4l3-17c2-9-7-8-7-8l1-3h29zM621 225l-1 3h-29l1-3s8 1 10-9l5-21c3-13 3-20-11-20-11 0-17 10-20 22l-4 19c-2 11 7 9 7 9v3h-24l1-3s9 1 11-9l4-19c2-11 10-27 28-27 23 0 21 14 19 24l-5 22c-3 11 8 9 8 9zM522 174c0 0-6 0-9 10l-7 32c-2 10 8 9 8 9l-1 3h-14l-29-42-5 30c-2 9 7 9 7 9l-1 3h-21l1-3s7 0 9-9l8-45 3-1 30 44 6-30c2-11-6-10-6-10l1-3h21zM414 171l-1 4s-7-2-10 9l-8 31c-2 6 0 9 8 10l-1 3h-30c-12 0-25-7-25-22 0-21 18-35 35-35h32zM306 174c0 0-8-1-10 8l-7 35c-2 9 7 8 7 8l-1 3h-27s-20-5-20-15c0-8 9-14 19-15l-9-16c-5-9-14-8-14-8l1-3h19l12 23c1 2 3 3 5 3l3-15c2-9-7-8-7-8l1-3h29zM827 127v6h-685v-6h685zM694 46v2s-6 1-6 5v20c0 3 6 6 6 6v2h-10l-24-26v18c0 5 6 6 6 6v2h-15v-2s6-1 6-6v-28h3l25 28v-20c0-4-5-5-5-5v-2h14zM633 48c0 0-5-1-5 5v21c0 6 5 5 5 5v2h-29l-2-10 2-1s3 8 9 8h4c2 0 4 0 4-3v-10h-4c-6 0-6 5-6 5h-2v-13h2s0 6 6 6h4v-11c0-3-2-3-4-3h-4c-7 0-10 9-10 9l-2-1 2-11h30v2zM583 81h-15v-2s4-1 2-5l-9-19-5 10 4 8c2 4 6 6 6 6v2h-26l1-2s3 0 7-6l3-5-7-13-8 18c-2 5 2 6 2 6v2h-13v-2s4-1 6-6l13-27h1s1-1 1 0l8 16 9-16h1l12 27c3 6 7 6 7 6v2zM480 79v2h-15v-2s4 0 1-5l-6-9-6 9c-3 5 3 5 3 5v2h-15v-2s5 0 8-5l8-12v-8c0-6-5-6-5-6v-2h17v2s-5 0-5 6v8l8 12c3 5 7 5 7 5zM425 64c0 10-7 18-20 18s-20-8-20-18 7-19 20-19 20 9 20 19zM364 46v2s-5 0-5 5v20c0 6 5 6 5 6v2h-18s-13-4-13-9c0-4 4-7 9-9l-7-10c-4-5-8-5-8-5v-2h11l7 12c3 4 3 4 7 4v-9c0-5-5-5-5-5v-2h17zM309 46v2s-6 1-6 6v20c0 5 6 5 6 5v2h-18v-2s6 0 6-5v-9c-2 0-3 1-4 2l-8 8c-3 3 1 4 1 4v2h-14v-2s5-1 8-4l10-9-13-13c-2-2-7-5-7-5v-2h17v2s-6 0-2 5l8 8c1 1 2 2 4 2v-9c0-6-6-6-6-6v-2h18zM606-83c0 5-3 8-11 7v-13c6 0 11 1 11 6zM525-82c0 5-5 7-11 6v-12c9-1 11 3 11 6zM394-83c0 5-3 8-11 7v-13c6 0 11 2 11 6zM564-92l-5 12-5-12h10zM800-88c0 9-5 13-11 13s-11-5-11-12c0-8 5-13 11-13s11 5 11 12zM441-88c0 9-5 13-11 13s-11-5-11-12c0-8 5-13 11-13s11 5 11 12zM176 548h-5c-11 0-15 9-15 15s2 9 8 9 8-1 9-5zM566 553c-2-3-5-4-7-4-3 0-4 1-4 2 0 2 1 3 4 3 2 0 5 0 7-1zM272 553c-2-3-5-4-7-4-3 0-4 1-4 2 0 2 1 3 4 3 2 0 5 0 7-1zM684 535c0-9-3-13-11-13-12 0-25 18-25 38 0 9 4 14 11 14 12 0 25-18 25-39zM392 384h-11c-9 0-13 5-13 11s4 11 13 11h11v-22zM280 200h-5c-11 0-15 9-15 15s2 9 8 9 8-1 9-5zM716 187c0-9-3-13-11-13-12 0-25 18-25 38 0 9 4 14 11 14 12 0 25-18 25-39zM393 182c0-6-1-7-4-7h-5c-15 0-26 16-26 32 0 11 5 17 14 17h6c4-1 4-1 6-7zM553 79c4 0 3-3 0-9-4 7-2 9 0 9zM352 64h-3c-4 0-8 2-8 8 0 3 2 6 7 6 3 0 4-1 4-4v-10zM417 64c0-9-3-17-12-17-8 0-12 8-12 17s4 16 12 16c9 0 12-7 12-16z" glyph-name="apple" horiz-adv-x="967" unicode="&#xf8ff;"/><glyph d="M424-12c-215 0-365 163-365 360v2c0 197 152 362 367 362s365-163 365-360v-2c0-197-152-362-367-362zM426 101c139 0 236 111 236 247v2c0 136-99 249-238 249s-236-111-236-247v-2c0-136 99-249 238-249zM374 758l-122 115 110 49 106-164h-94z" glyph-name="Ograve" horiz-adv-x="850" unicode="&#xd2;"/><glyph d="M377-11c-182 0-298 105-298 308v403h123v-398c0-130 67-200 177-200 109 0 176 66 176 195v403h123v-397c0-209-118-314-301-314zM322 753l106 164 110-49-122-115h-94z" glyph-name="Uacute" horiz-adv-x="757" unicode="&#xda;"/><glyph d="M377-11c-182 0-298 105-298 308v403h123v-398c0-130 67-200 177-200 109 0 176 66 176 195v403h123v-397c0-209-118-314-301-314zM207 757l116 146h112l116-146h-96l-77 67-77-67h-94z" glyph-name="Ucircumflex" horiz-adv-x="757" unicode="&#xdb;"/><glyph d="M377-11c-182 0-298 105-298 308v403h123v-398c0-130 67-200 177-200 109 0 176 66 176 195v403h123v-397c0-209-118-314-301-314zM341 753l-122 115 110 49 106-164h-94z" glyph-name="Ugrave" horiz-adv-x="757" unicode="&#xd9;"/><glyph d="M83 0v528h121v-528h-121z" glyph-name="dotlessi" horiz-adv-x="286" unicode="&#x131;"/><glyph d="M78 595l116 146h112l116-146h-96l-77 67-77-67h-94z" glyph-name="circumflex" unicode="&#x2c6;"/><glyph d="M128 585l-67 20c22 81 51 125 112 125 55 0 108-40 144-40 29 0 40 16 55 50l67-21c-22-80-51-124-112-124-55 0-108 40-144 40-29 0-40-16-55-50z" glyph-name="tilde" unicode="&#x2dc;"/><glyph d="M79 600v89h342v-89h-342z" glyph-name="macron" unicode="&#xaf;"/><glyph d="M250 593c-96 0-164 54-171 148h83c12-38 37-63 88-63s76 25 88 63h83c-7-94-75-148-171-148z" glyph-name="breve" unicode="&#x2d8;"/><glyph d="M187 595v119h126v-119h-126z" glyph-name="dotaccent" unicode="&#x2d9;"/><glyph d="M250 593c-60 0-114 50-114 109v2c0 59 54 109 114 109s114-50 114-109v-2c0-59-54-109-114-109zM250 641c34 0 62 28 62 61v2c0 33-28 61-62 61s-62-28-62-61v-2c0-33 28-61 62-61z" glyph-name="ring" unicode="&#x2da;"/><glyph d="M237-165l-106 44 90 131h91z" glyph-name="cedilla" unicode="&#xb8;"/><glyph d="M238 595l106 164 106-49-122-115h-90zM56 595l104 164 106-49-120-115h-90z" glyph-name="hungarumlaut" unicode="&#x2dd;"/><glyph d="M366-164c-123-8-190 34-190 108 0 23 7 47 15 66h86c-4-15-6-30-6-44 0-45 27-70 95-74v-56z" glyph-name="ogonek" unicode="&#x2db;"/><glyph d="M194 595l-116 146h96l77-66 77 66h94l-116-146h-112z" glyph-name="caron" unicode="&#x2c7;"/></font>
</defs>
</svg>
