<svg height="342" viewBox="0 0 592 342" width="592" xmlns="http://www.w3.org/2000/svg"><svg height="84.5" viewBox="-10 -10 180.5 84.5" width="180.5" x="275.4"><path d="m2.5 33h139.5v31.5h-139.5z" fill="#fff"/><path d="m47.7 58.9h-1v-1.7c-1.2-.1-2.3-.4-3.1-1s-1.4-1.5-1.6-2.8c0-.2-.1-.4-.1-.5v-.5h1.4c0 .5.1 1 .2 1.4.2.4.4.8.7 1.1s.7.6 1.1.8.9.3 1.4.4v-6.5c-.6-.1-1.2-.3-1.7-.5s-1-.5-1.4-.8-.7-.7-.9-1.2-.3-1-.3-1.7c0-.6.1-1.2.4-1.7.2-.5.6-.9 1-1.3s.9-.6 1.4-.8 1.1-.3 1.7-.3v-1.3h1v1.3c.6 0 1.2.1 1.7.3s1 .4 1.3.7c.4.3.7.7.9 1.2s.3 1 .4 1.6h-1.4c0-.4-.1-.8-.2-1.1s-.4-.6-.6-.8c-.3-.2-.6-.4-.9-.5s-.7-.2-1.1-.2v5.9c.7.2 1.4.4 2 .6s1.1.5 1.5.8.7.8 1 1.3c.2.5.3 1.2.3 2.1 0 .6-.1 1.2-.4 1.7s-.6.9-1.1 1.3c-.4.4-1 .6-1.5.8-.6.2-1.1.3-1.7.3v1.6zm-1-16.5c-.4 0-.8.1-1.2.2s-.7.3-.9.6c-.3.2-.5.5-.6.9-.2.3-.2.7-.2 1.1 0 .5.1.9.2 1.2.2.3.4.6.6.8.3.2.6.4.9.5.4.1.7.3 1.2.4zm1 13.6c.5 0 .9-.1 1.3-.2.4-.2.8-.4 1.1-.7s.6-.6.7-1c.2-.4.3-.8.3-1.3s-.1-1-.3-1.4-.4-.7-.7-.9-.7-.4-1.1-.5-.8-.2-1.3-.4zm7.8-3.3c.1 1.1.6 1.8 1.3 2.4.7.5 1.6.8 2.6.8.6 0 1.1-.1 1.6-.3s.9-.5 1.2-.8c.3-.4.6-.8.7-1.3.2-.5.3-1 .3-1.6s-.1-1.1-.3-1.6-.4-.9-.8-1.3c-.3-.4-.7-.6-1.2-.8s-1-.3-1.6-.3c-.7 0-1.3.1-1.9.4s-1 .7-1.5 1.2l-1.2-.2 1.3-8h7.7v1.2h-6.5l-1 5.2c.3-.2.6-.4.8-.5.3-.1.5-.2.8-.3s.5-.1.8-.2h1c.7 0 1.4.1 2 .4.6.2 1.1.6 1.6 1 .4.4.8 1 1 1.6s.4 1.4.4 2.1c0 .8-.1 1.6-.4 2.2s-.6 1.2-1.1 1.6-1 .8-1.6 1-1.2.3-1.8.3c-.7 0-1.4-.1-2.1-.2s-1.2-.4-1.7-.7-.9-.8-1.2-1.3-.5-1.2-.5-2zm17.9.2h-7.1v-1.2l7.2-10.3h1.3v10.3h2.2v1.2h-2.2v3.8h-1.4zm-5.7-1.2h5.7v-8.2zm16.2-10.4c.8 0 1.4.1 2 .3s1 .5 1.4.9.7.9.9 1.4.4 1.1.6 1.7l.3 1.8c0 .6.1 1.2.1 1.8 0 1-.1 2-.2 2.9s-.4 1.8-.8 2.5-.9 1.3-1.6 1.7-1.5.6-2.6.6-1.9-.2-2.6-.6-1.2-1-1.6-1.7-.7-1.6-.8-2.5c-.1-1-.2-2-.2-3s.1-1.9.2-2.9c.1-.9.4-1.8.8-2.5s.9-1.3 1.6-1.8c.4-.4 1.3-.6 2.5-.6zm3.8 7.8c0-.8 0-1.7-.1-2.5s-.3-1.5-.6-2.1-.7-1.1-1.2-1.5-1.2-.6-2-.6-1.4.2-1.9.6-.9.9-1.2 1.6c-.3.6-.5 1.4-.6 2.2s-.2 1.7-.2 2.5c0 1 .1 1.9.2 2.7s.3 1.5.6 2.1.7 1 1.2 1.3 1.1.5 1.9.5 1.5-.2 2-.6.9-.9 1.2-1.6c.3-.6.4-1.4.5-2.2s.2-1.6.2-2.4zm6.1 8.3c0 .6-.2 1.2-.5 1.6s-.7.7-1.2.8v-.8c.2-.1.3-.3.5-.5s.2-.5.2-1v-.7h-.7v-1.9h1.6v2.5zm8.4-16.1c.8 0 1.4.1 2 .3s1 .5 1.4.9.7.9.9 1.4.4 1.1.6 1.7l.3 1.8c0 .6.1 1.2.1 1.8 0 1-.1 2-.2 2.9s-.4 1.8-.8 2.5-.9 1.3-1.6 1.7-1.5.6-2.6.6-1.9-.2-2.6-.6-1.2-1-1.6-1.7-.7-1.6-.8-2.5c-.1-1-.2-2-.2-3s.1-1.9.2-2.9c.1-.9.4-1.8.8-2.5s.9-1.3 1.6-1.8c.5-.4 1.4-.6 2.5-.6zm3.8 7.8c0-.8 0-1.7-.1-2.5s-.3-1.5-.6-2.1-.7-1.1-1.2-1.5-1.2-.6-2-.6-1.4.2-1.9.6-.9.9-1.2 1.6c-.3.6-.5 1.4-.6 2.2s-.2 1.7-.2 2.5c0 1 .1 1.9.2 2.7s.3 1.5.6 2.1.7 1 1.2 1.3 1.1.5 1.9.5 1.5-.2 2-.6.9-.9 1.2-1.6c.3-.6.4-1.4.5-2.2s.2-1.6.2-2.4zm8.4-7.8c.8 0 1.4.1 2 .3s1 .5 1.4.9.7.9.9 1.4.4 1.1.6 1.7l.3 1.8c0 .6.1 1.2.1 1.8 0 1-.1 2-.2 2.9s-.4 1.8-.8 2.5-.9 1.3-1.6 1.7-1.5.6-2.6.6-1.9-.2-2.6-.6-1.2-1-1.6-1.7-.7-1.6-.8-2.5c-.1-1-.2-2-.2-3s.1-1.9.2-2.9c.1-.9.4-1.8.8-2.5s.9-1.3 1.6-1.8c.5-.4 1.4-.6 2.5-.6zm3.9 7.8c0-.8 0-1.7-.1-2.5s-.3-1.5-.6-2.1-.7-1.1-1.2-1.5-1.2-.6-2-.6-1.4.2-1.9.6-.9.9-1.2 1.6c-.3.6-.5 1.4-.6 2.2s-.2 1.7-.2 2.5c0 1 .1 1.9.2 2.7s.3 1.5.6 2.1.7 1 1.2 1.3 1.1.5 1.9.5 1.5-.2 2-.6.9-.9 1.2-1.6c.3-.6.4-1.4.5-2.2s.2-1.6.2-2.4z"/><path d="m0 0h160.5v17h-160.5z" fill="#e6007e"/><g fill="#fffefe"><path d="m126.6 13.8h-.4v-.9c-.6-.1-1.1-.2-1.4-.4-.5-.4-.8-1-.8-1.8h1.3c0 .4.1.7.2.8.1.2.4.3.7.4v-2l-.4-.1c-.6-.2-1-.4-1.2-.7s-.4-.7-.4-1.1c0-.3 0-.5.1-.8.1-.2.2-.4.4-.6s.5-.4.7-.5.4-.1.7-.1v-.7h.4v.7c.5 0 .9.2 1.2.4.5.3.8.9.8 1.6h-1.2c0-.3-.1-.5-.1-.6 0-.3-.2-.4-.6-.4v1.8c.7.3 1.2.5 1.5.7.4.3.6.8.6 1.4 0 .8-.3 1.3-.9 1.7-.3.2-.8.3-1.2.4zm-.4-6.8c-.3 0-.5.1-.6.2s-.2.3-.2.6.1.5.3.6c.1.1.3.2.5.2zm.4 4.8c.2 0 .4-.1.5-.2.2-.1.3-.4.3-.7s-.1-.5-.3-.6c-.1-.1-.3-.2-.5-.3zm4-1.2c0 .3 0 .5.1.7.2.3.5.5.9.5.3 0 .5-.1.7-.3s.3-.4.3-.8-.2-.7-.5-.9c-.2-.1-.5-.1-1-.1v-.9c.4 0 .7 0 .9-.1.3-.1.4-.4.4-.8 0-.3-.1-.5-.2-.6-.1-.2-.4-.2-.6-.2-.3 0-.5.1-.7.3-.1.2-.2.5-.2.8h-1.2c0-.3.1-.7.2-1s.3-.5.5-.7.4-.3.6-.4.5-.1.9-.1c.6 0 1.2.2 1.6.5s.6.8.6 1.3c0 .4-.1.7-.4 1-.1.2-.3.3-.5.3.1 0 .3.1.5.3.3.3.5.7.5 1.3s-.2 1.1-.6 1.5-1 .6-1.7.6c-1 0-1.6-.3-2-.9-.2-.3-.3-.8-.3-1.3zm8.8-3.5c-.2.2-.5.5-.8 1l-.9 1.5c-.2.4-.4.9-.5 1.5s-.2 1.1-.2 1.5h-1.4c0-1.2.4-2.5 1.2-3.8.5-.8.9-1.4 1.2-1.7h-3.4v-1.2h4.8zm1.8 3.8c.1.3.2.5.3.7s.4.2.6.2c.3 0 .6-.1.7-.3.2-.2.3-.5.3-.9 0-.3-.1-.6-.2-.9-.2-.2-.4-.4-.7-.4-.2 0-.3 0-.4.1-.2.1-.4.2-.5.4l-1.2-.1.5-3.7h3.7v1.1h-2.7l-.2 1.5c.2-.1.4-.2.5-.3.2-.1.4-.1.7-.1.6 0 1 .2 1.5.6.4.4.6.9.6 1.6 0 .6-.2 1.2-.6 1.7s-1 .7-1.8.7c-.6 0-1.2-.2-1.6-.5s-.6-.8-.7-1.5h1.2zm4.3 2.9c.3-.1.5-.2.6-.4s.2-.4.2-.7h-.8v-1.4h1.4v1.2c0 .2 0 .4-.1.7s-.2.4-.3.6c-.2.2-.4.3-.6.4s-.4.1-.5.1v-.5zm6.5-7c.3.6.5 1.5.5 2.6s-.2 2-.5 2.6-.9.9-1.8.9-1.5-.3-1.8-.9-.5-1.5-.5-2.6.2-2 .5-2.6.9-.9 1.8-.9c.8 0 1.4.3 1.8.9zm-2.6 4.4c.1.4.4.6.8.6s.6-.2.8-.6c.1-.4.2-1 .2-1.8s-.1-1.4-.2-1.8-.4-.6-.8-.6-.7.2-.8.6-.2 1-.2 1.8.1 1.4.2 1.8zm7.9-4.4c.3.6.5 1.5.5 2.6s-.2 2-.5 2.6-.9.9-1.8.9-1.5-.3-1.8-.9-.5-1.5-.5-2.6.2-2 .5-2.6.9-.9 1.8-.9 1.4.3 1.8.9zm-2.6 4.4c.1.4.4.6.8.6s.7-.2.8-.6.2-1 .2-1.8-.1-1.4-.2-1.8-.5-.6-.8-.6-.7.2-.8.6-.2 1-.2 1.8 0 1.4.2 1.8z"/><path d="m39.2 10.4-1 1.3h-.4l1.2-1.6-1.1-1.5h.4l.9 1.2.8-1.1h.5l-1.1 1.5 1.2 1.6h-.4zm4.9-1.8h-1.1v-.2h.4c.1 0 .2-.1.3-.1.2-.2.3-.2.4-.3s.1-.2.1-.4h.3v4.2h-.4zm4.1 4.4h-.4v-4.3h.4v.5c.1-.1.1-.2.2-.3s.2-.1.3-.2.2-.1.3-.1h.3c.3 0 .5 0 .6.1.2.1.3.2.4.3s.2.3.2.5c.1.2.1.4.1.6s0 .4-.1.6-.1.4-.3.5-.3.3-.4.4c-.2.1-.4.1-.6.1s-.4 0-.6-.1-.4-.2-.5-.4v1.8zm0-2.8c0 .2 0 .3.1.5 0 .2.1.3.2.4l.3.3c.1.1.3.1.4.1.2 0 .3 0 .5-.1.1-.1.3-.2.3-.3.1-.1.2-.3.2-.4s.1-.4 0-.5c0-.2 0-.4-.1-.5s0-.4-.1-.5-.2-.2-.4-.2c-.1-.1-.3-.1-.4-.1-.2 0-.3 0-.4.1l-.3.3c-.1.1-.2.3-.2.4-.1.2-.1.3-.1.5zm3.6 1.6h-.4v-3.1h.4v.6c.1-.3.2-.5.4-.6s.4-.1.6-.1v.4c-.2 0-.4 0-.5.1l-.3.3c-.1.1-.1.3-.2.4zm2.9 0c-.2 0-.4 0-.6-.1s-.3-.2-.5-.3c-.1-.1-.2-.3-.3-.5s-.1-.4-.1-.7c0-.2 0-.4.1-.6s.1-.4.3-.5c.1-.1.3-.3.5-.4s.4-.1.6-.1.5 0 .6.1.3.2.4.3c.2.2.3.4.3.6.1.2.1.4.1.6s0 .5-.1.7-.2.4-.3.5-.3.3-.5.3c-.1.1-.3.1-.5.1zm1-1.6c0-.2 0-.4-.1-.5 0-.2-.1-.3-.2-.4l-.3-.3c-.1-.1-.3-.1-.5-.1s-.3 0-.5.1l-.3.3c-.1.1-.1.3-.2.4 0 .2-.1.3-.1.5s0 .4.1.5c0 .2.1.3.2.4l.3.3c.1.1.3.1.5.1s.3 0 .5-.1l.3-.3c.1-.1.1-.3.2-.4.1-.2.1-.3.1-.5zm3.5-2.8h.4v4.3h-.4v-.5c-.1.1-.1.2-.2.3s-.2.1-.3.2-.2.1-.3.1h-.3c-.3 0-.5 0-.6-.1s-.3-.2-.4-.3-.2-.3-.2-.5c-.1-.2-.1-.4-.1-.6s0-.4.1-.6.1-.4.3-.5c.1-.2.3-.3.4-.4.2-.1.4-.1.6-.1s.4 0 .6.1.2.2.4.4zm0 2.8c0-.2 0-.3-.1-.5 0-.2-.1-.3-.2-.4l-.3-.3c-.1-.1-.3-.1-.4-.1-.2 0-.4 0-.5.1l-.3.3c-.1.1-.2.3-.2.4 0 .2-.1.4 0 .5 0 .2 0 .4.1.5s.1.3.2.4.2.2.3.2c.1.1.3.1.4.1.2 0 .3 0 .4-.1l.3-.3c.1-.1.2-.3.2-.4s.1-.2.1-.4zm3.3-1.5h.4v3.1h-.4v-.4c0 .1-.1.1-.2.2l-.2.2c-.1 0-.2.1-.3.1s-.2.1-.4.1-.4 0-.5-.1-.3-.1-.3-.2c-.1-.1-.1-.2-.2-.4 0-.1-.1-.3-.1-.5v-2h.4v2c0 .3.1.5.2.6s.3.2.6.2c.1 0 .3 0 .4-.1s.2-.1.3-.2.1-.2.2-.4.1-.3.1-.5zm3.5.9c-.1-.2-.2-.4-.3-.5s-.4-.2-.7-.2c-.2 0-.3 0-.5.1l-.3.3c-.1.1-.1.3-.2.4 0 .2-.1.3-.1.5s0 .3.1.5c0 .2.1.3.2.4l.3.3c.1.1.3.1.5.1.3 0 .5-.1.6-.2.2-.1.3-.4.3-.6h.4c0 .2-.1.3-.2.5-.1.1-.2.3-.3.4s-.2.2-.4.2-.3.1-.5.1-.5 0-.6-.1c-.2-.1-.3-.2-.4-.3s-.2-.3-.3-.5-.1-.4-.1-.6 0-.4.1-.6.2-.4.3-.5c.1-.2.3-.3.4-.4.2-.1.4-.1.6-.1.4 0 .7.1.9.3s.4.4.4.8h-.2zm2.2 2.2h-.4c-.2 0-.3 0-.4-.1s-.1-.3-.1-.5v-2.2h-.4v-.3h.4v-.9h.4v.9h.6v.3h-.6v2.4l.1.1h.4zm1.8 0c-.2 0-.4 0-.6-.1s-.3-.2-.5-.3c-.1-.1-.2-.3-.3-.5s-.1-.4-.1-.7c0-.2 0-.4.1-.6s.1-.4.3-.5c.1-.1.3-.3.5-.4s.4-.1.6-.1.5 0 .6.1.4.2.5.3.2.3.3.5.1.4.1.6 0 .5-.1.7-.2.4-.3.5-.3.3-.5.3c-.2.2-.4.2-.6.2zm1.1-1.6c0-.2 0-.4-.1-.5 0-.2-.1-.3-.2-.4l-.3-.3c-.1-.1-.3-.1-.5-.1s-.3 0-.5.1l-.3.3c-.1.1-.2.3-.2.4 0 .2-.1.3-.1.5s0 .4.1.5c0 .2.1.3.2.4l.3.3c.1.1.3.1.5.1s.3 0 .5-.1l.3-.3c.1-.1.1-.3.2-.4 0-.2.1-.3.1-.5zm1.2.6c.1.3.2.5.3.6s.4.2.6.2h.3c.1 0 .2-.1.2-.1s.1-.1.1-.2v-.2c0-.2 0-.3-.1-.3-.1-.1-.2-.1-.4-.2s-.3-.1-.5-.1-.3-.1-.5-.1c-.1-.1-.3-.1-.4-.3.2-.3.1-.4.1-.6 0-.3.1-.5.3-.6.2-.2.5-.2.8-.2s.6.1.8.2.3.4.4.8h-.4c0-.2-.1-.4-.3-.5-.1-.1-.3-.1-.6-.1s-.4 0-.5.1-.2.2-.2.4c0 .1 0 .2.1.3s.2.1.4.2c.1 0 .3.1.5.1s.3.1.5.2.3.2.4.3.1.3.1.5c0 .1 0 .3-.1.4l-.3.3c-.1.1-.2.1-.4.2-.2 0-.3.1-.5.1s-.3 0-.5-.1c-.1-.1-.3-.1-.4-.2s-.2-.2-.2-.3c-.1-.1-.1-.3-.1-.4h.5z"/><path d="m10.2 7.8c-.1-.6-.4-1-.7-1.2-.4-.2-.9-.4-1.5-.4-.4 0-.7.1-1 .3-.3.1-.6.4-.8.6-.2.3-.3.6-.4 1s-.1.8-.1 1.2 0 .8.1 1.1.2.7.4 1 .4.5.7.7.7.3 1.2.3c.3 0 .6 0 .8-.1s.5-.2.6-.4c.2-.2.3-.4.5-.6.1-.2.2-.5.3-.8h.7l-.3.9c-.1.3-.3.6-.6.8s-.5.4-.9.5c-.3.1-.7.2-1.2.2s-1-.1-1.3-.3c-.4-.2-.7-.5-.9-.8s-.4-.7-.5-1.1c-.2-.5-.3-.9-.3-1.4 0-.7.1-1.2.2-1.7.2-.5.4-.8.7-1.1s.6-.5 1-.6.8-.2 1.3-.2c.3 0 .7 0 1 .1s.5.2.8.4c.2.2.4.4.6.7.1.3.3.6.3.9h-.7zm3.9 5c-.3 0-.6-.1-.9-.2s-.5-.3-.7-.5-.4-.5-.5-.8-.2-.7-.2-1.1 0-.7.1-1 .2-.6.4-.8.4-.4.7-.6c.3-.1.6-.2 1-.2s.7.1 1 .2.5.3.7.6c.2.2.3.5.4.8s.1.7.1 1c0 .4-.1.7-.2 1.1-.1.3-.3.6-.5.8s-.4.4-.7.5-.4.2-.7.2zm1.6-2.6c0-.3 0-.6-.1-.8-.1-.3-.2-.5-.3-.7s-.3-.3-.5-.4-.5-.2-.8-.2-.6.1-.8.2-.4.3-.5.5-.2.4-.3.7-.1.5-.1.8 0 .6.1.8c.1.3.2.5.3.7s.3.3.5.4.4.2.7.2.6-.1.8-.2.4-.3.5-.5.2-.4.3-.7c.2-.2.2-.5.2-.8zm2.3 2.5h-.6v-6.8h.6v2.7c.2-.3.4-.5.8-.7s.7-.2 1-.2c.4 0 .7.1 1 .2s.5.3.7.6c.2.2.3.5.4.8s.1.6.1 1 0 .7-.1 1-.2.6-.4.8-.4.4-.7.5-.6.2-1 .2c-.2 0-.3 0-.5-.1s-.3-.1-.5-.2-.3-.2-.4-.3-.3-.2-.4-.4zm0-2.5c0 .3 0 .6.1.8.1.3.2.5.3.7s.3.3.5.4.4.2.7.2c.2 0 .5 0 .7-.1s.4-.2.5-.4c.2-.2.3-.4.4-.6s.1-.5.1-.8 0-.6-.1-.9c0-.2-.1-.5-.2-.7s-.3-.4-.5-.5-.5-.1-.8-.1-.5.1-.7.2-.4.3-.5.4c-.1.2-.3.4-.3.7-.1.2-.2.4-.2.7zm5.8 2.5h-.6v-4.9h.6v.9c.2-.4.4-.7.6-.8.2-.2.6-.2 1-.2v.6c-.3 0-.6 0-.8.2-.2.1-.4.3-.5.4s-.2.4-.2.6c0 .3-.1.5-.1.8zm4.8-2.9c.1 0 .2 0 .4-.1.1 0 .3-.1.4-.1s.2-.1.2-.2v-.3c0-.3-.1-.5-.3-.7s-.5-.3-.9-.3c-.2 0-.4 0-.5.1-.2 0-.3.1-.4.2l-.3.3c-.1.1-.1.3-.2.5h-.6c0-.3.1-.5.2-.7 0-.2.2-.4.4-.5l.6-.3c.2-.1.5-.1.8-.1.2 0 .5 0 .7.1s.4.1.6.3c.2.1.3.3.4.5s.1.4.1.7v2.7c0 .2 0 .4.1.4.1.1.2 0 .5 0v.4s-.1 0-.2.1h-.6c-.1 0-.2 0-.2-.1-.1 0-.1-.1-.1-.2s-.1-.1-.1-.2v-.3c-.2.3-.5.5-.8.6s-.6.2-1 .2c-.2 0-.4 0-.6-.1s-.4-.1-.5-.3c-.2-.1-.3-.3-.4-.4-.1-.2-.1-.4-.1-.6 0-.8.6-1.3 1.7-1.5zm1 .3c-.2.1-.5.2-.7.2s-.5.1-.7.1c-.4 0-.8.1-1 .3s-.4.4-.4.8c0 .2 0 .3.1.4s.1.2.2.3.2.1.3.2c.1 0 .3.1.4.1.2 0 .4 0 .7-.1.2-.1.4-.1.6-.3.2-.1.3-.3.4-.4.1-.2.2-.4.2-.6v-1zm2.6 2.6h-.6v-4.9h.6v.9c.2-.4.4-.7.6-.8.2-.2.6-.2 1-.2v.6c-.3 0-.6 0-.8.2-.2.1-.4.3-.5.4-.1.2-.2.4-.3.7 0 .3-.1.5-.1.8v2.3z"/></g></svg><svg height="84.5" viewBox="-10 -10 180.5 84.5" width="180.5" x="275.4" y="84.5"><path d="m2.5 33h139.5v31.5h-139.5z" fill="#fff"/><path d="m47.7 58.8h-1v-1.7c-1.2 0-2.3-.4-3.1-1s-1.3-1.5-1.6-2.8v-1h1.5c0 .5.1 1 .2 1.4s.4.8.7 1.2c.3.3.7.6 1 .8.4.2.8.3 1.3.3v-6.5c-.6-.2-1.2-.3-1.7-.5s-1-.5-1.4-.8-.7-.7-1-1.2c-.2-.5-.3-1-.3-1.8 0-.6.1-1.2.3-1.7s.5-.9 1-1.3c.4-.3.8-.6 1.4-.8s1.1-.2 1.7-.2v-1.3h1v1.3c.6 0 1.2.1 1.7.2s1 .4 1.3.8c.4.3.7.8.9 1.2s.3 1 .3 1.7h-1.5c0-.4-.1-.8-.2-1.1s-.3-.6-.6-.8-.5-.4-.9-.5c-.3-.2-.7-.2-1.1-.2v5.8c.7.2 1.3.3 2 .5.6.2 1.1.5 1.5.8s.8.8 1 1.3.3 1.2.3 2c0 .7-.2 1.2-.4 1.8-.3.5-.7 1-1.1 1.3-.5.3-1 .6-1.5.8s-1.2.3-1.7.3zm-1-16.3c-.4 0-.8 0-1.2.2-.3.2-.7.3-1 .5-.2.2-.5.5-.7.8s-.2.7-.2 1.1c0 .5.1.9.2 1.2s.3.6.7.8c.2.2.6.4 1 .5.3.2.8.2 1.2.3zm1 13.5c.5 0 .9-.1 1.3-.2.4-.2.8-.4 1-.7.3-.3.5-.6.8-1s.2-.8.2-1.3-.1-1-.2-1.3c-.2-.3-.4-.7-.7-.9s-.7-.4-1-.5c-.4-.2-.8-.2-1.3-.3zm10.5-7.8c.7 0 1.2 0 1.8-.1.5-.1 1-.2 1.4-.5.4-.2.7-.5.9-.9s.3-.8.3-1.5c0-.5-.1-.9-.2-1.2s-.4-.7-.7-.8c-.3-.2-.7-.4-1-.5-.4-.1-.8-.2-1.2-.2-.5 0-1 .1-1.3.2-.4.2-.8.4-1 .7s-.5.7-.7 1c-.2.4-.2.8-.2 1.3h-1.4c0-.7.1-1.3.3-1.9.2-.5.6-1.1 1.2-1.5.5-.5 1-.7 1.7-.8.6-.1 1.2-.2 1.9-.2.6 0 1.2.1 1.8.2s1 .4 1.4.7.7.7 1 1.2.3 1 .3 1.7c0 .8-.2 1.5-.5 2.1s-.9 1-1.7 1.3c.5.2 1 .4 1.4.7.3.3.7.6.9 1 .2.3.3.7.4 1.1s.1.8.1 1.1c0 .7-.1 1.2-.3 1.8-.2.5-.5 1-1 1.5s-1 .8-1.5 1-1.3.4-2.1.4c-.9 0-1.7-.1-2.3-.2s-1.2-.5-1.7-.8-.8-.8-1-1.5c-.2-.6-.4-1.3-.5-2.3h1.4c0 1.2.3 2.1 1 2.7s1.7.9 2.8.9c.5 0 1.1-.1 1.5-.3.5-.2.9-.5 1.2-.8s.6-.7.8-1.1c.2-.5.2-.8.2-1.3 0-.7-.2-1.2-.5-1.5s-.6-.8-1-1-1-.4-1.5-.5-1.2-.1-1.9 0v-1.3h-.5zm8.6-6.8h9.9v1.3c-1.1 1.2-2.1 2.5-2.8 3.9-.8 1.3-1.4 2.6-1.9 3.8s-.8 2.4-1.1 3.5-.4 2-.4 2.8h-1.6c.1-1.1.3-2.3.7-3.5s.8-2.5 1.4-3.8 1.2-2.4 1.9-3.5c.7-1.2 1.4-2.2 2.2-3.1h-8.2zm13.1 11.4c.2 1 .6 1.8 1.2 2.3s1.6.8 2.6.8c.6 0 1.1-.1 1.6-.3.4-.2.8-.5 1.2-.8.3-.3.6-.8.8-1.2.2-.5.2-1 .2-1.5s-.1-1.1-.3-1.6-.4-.9-.8-1.2c-.3-.3-.8-.6-1.2-.8-.5-.2-1-.3-1.6-.3-.7 0-1.3.2-1.9.4s-1.1.7-1.4 1.2l-1.2-.2 1.2-8h7.7v1.2h-6.5l-.9 5.2c.3-.2.6-.3.8-.5s.5-.2.8-.3.6-.2.8-.2h.9c.7 0 1.3.1 1.9.3s1.1.5 1.6 1c.4.5.8 1 1 1.6.2.7.3 1.3.3 2.2 0 .8-.2 1.5-.4 2.2s-.7 1.2-1.1 1.6-1 .8-1.6 1-1.2.3-1.8.3c-.8 0-1.4 0-2.1-.2s-1.2-.4-1.7-.8-.9-.8-1.2-1.3-.5-1.2-.6-2zm13.9 4.6c0 .7-.2 1.2-.4 1.5-.3.4-.7.7-1.2.8v-.7c.2-.1.3-.3.5-.5s.2-.5.2-1v-.8h-.8v-2h1.6v2.7zm8.4-16.2c.8 0 1.4.1 2 .3s1.1.5 1.4 1c.4.4.7.8.9 1.4.2.5.4 1.1.6 1.7s.2 1.2.2 1.8c.1.7.1 1.2.1 1.8 0 1-.1 2-.2 3-.2 1-.4 1.8-.8 2.5s-.9 1.3-1.6 1.7c-.7.5-1.6.7-2.6.7-1.1 0-1.9-.2-2.7-.7-.7-.5-1.2-1-1.6-1.8s-.7-1.5-.8-2.5c-.2-1-.2-2-.2-3s.1-2 .2-2.9c.2-1 .4-1.8.8-2.5.3-.8.9-1.3 1.6-1.8s1.6-.7 2.7-.7zm3.9 8c0-.8-.1-1.7-.2-2.5s-.3-1.5-.6-2.2-.7-1.2-1.2-1.5c-.5-.4-1.2-.5-2-.5s-1.4.2-1.9.6-.9.9-1.2 1.5c-.3.7-.4 1.4-.6 2.2s-.2 1.7-.2 2.5c0 1 .1 1.9.2 2.7s.3 1.5.7 2.1c.3.5.7 1 1.2 1.3s1.1.5 1.8.5c.8 0 1.5-.2 2-.6s.9-1 1.2-1.6c.2-.7.4-1.3.6-2.2s.2-1.6.2-2.3zm8.3-8c.8 0 1.4.1 2 .3s1.1.5 1.4 1c.4.4.7.8.9 1.4.2.5.4 1.1.6 1.7s.2 1.2.2 1.8c.1.7.1 1.2.1 1.8 0 1-.1 2-.2 3-.2 1-.4 1.8-.8 2.5s-.9 1.3-1.6 1.7c-.7.5-1.6.7-2.6.7-1.1 0-1.9-.2-2.7-.7-.7-.5-1.2-1-1.6-1.8s-.7-1.5-.8-2.5c-.2-1-.2-2-.2-3s.1-2 .2-2.9c.2-1 .4-1.8.8-2.5.3-.8.9-1.3 1.6-1.8.7-.4 1.6-.7 2.7-.7zm3.8 8c0-.8-.1-1.7-.2-2.5s-.3-1.5-.6-2.2-.7-1.2-1.2-1.5c-.5-.4-1.2-.5-2-.5s-1.4.2-1.9.6-.9.9-1.2 1.5c-.3.7-.4 1.4-.6 2.2s-.2 1.7-.2 2.5c0 1 .1 1.9.2 2.7s.3 1.5.7 2.1c.3.5.7 1 1.2 1.3s1.1.5 1.8.5c.8 0 1.5-.2 2-.6s.9-1 1.2-1.6c.2-.7.4-1.3.6-2.2s.2-1.6.2-2.3z"/><path d="m0 0h160.5v17h-160.5z" fill="#e6007e"/><g fill="#fffefe"><path d="m137.2 13.8h-.4v-.9c-.6-.1-1.1-.2-1.4-.4-.6-.4-.8-.9-.8-1.8h1.2c.1.4.1.6.2.8s.4.4.7.4v-2l-.4-.1c-.6-.1-1-.4-1.2-.7s-.4-.7-.4-1.1c0-.3.1-.6.1-.8.1-.2.2-.4.4-.6s.4-.3.8-.4c.1-.1.4-.1.7-.1v-.6h.4v.7c.5.1.9.2 1.2.3.5.3.8.8.8 1.6h-1.1c0-.3-.1-.5-.1-.6-.1-.2-.4-.3-.6-.3v1.8c.8.2 1.2.5 1.5.6.4.3.6.8.6 1.4 0 .8-.3 1.4-.9 1.7-.4.2-.8.4-1.2.4zm-.4-6.8c-.2 0-.4.1-.6.2s-.2.3-.2.6c0 .2.1.4.3.6.1.1.2.1.5.2zm.4 4.9c.2-.1.4-.1.6-.1.2-.1.3-.4.3-.8 0-.2-.1-.5-.2-.6s-.3-.2-.6-.3zm6.9-5.1c.4.6.5 1.5.5 2.5s-.1 1.9-.5 2.6-.9.9-1.8.9-1.4-.3-1.8-.9-.5-1.4-.5-2.6.1-1.9.5-2.6.9-.9 1.8-.9c.8.1 1.4.4 1.8 1zm-2.7 4.4c.1.4.4.6.8.6s.6-.2.8-.6c.1-.4.2-1 .2-1.8s-.1-1.4-.2-1.8-.4-.6-.8-.6-.6.2-.8.6c-.1.4-.2 1-.2 1.8.1.8.2 1.4.2 1.8zm4 2.6c.2-.1.4-.2.6-.4.1-.1.2-.4.2-.8h-.8v-1.4h1.4v1.2c0 .2-.1.4-.1.6s-.1.4-.3.6c-.1.2-.4.3-.6.4s-.4.1-.4.1zm6.5-7c.4.6.5 1.5.5 2.5s-.1 1.9-.5 2.6-.9.9-1.8.9-1.4-.3-1.8-.9-.5-1.4-.5-2.6.1-1.9.5-2.6.9-.9 1.8-.9c1 .1 1.5.4 1.8 1zm-2.5 4.4c.1.4.4.6.8.6s.6-.2.8-.6c.1-.4.2-1 .2-1.8s-.1-1.4-.2-1.8-.4-.6-.8-.6-.6.2-.8.6c-.1.4-.2 1-.2 1.8s0 1.4.2 1.8zm7.8-4.4c.4.6.5 1.5.5 2.5s-.1 1.9-.5 2.6-.9.9-1.8.9-1.4-.3-1.8-.9-.5-1.4-.5-2.6.1-1.9.5-2.6.9-.9 1.8-.9 1.5.4 1.8 1zm-2.5 4.4c.1.4.4.6.8.6s.6-.2.8-.6c.1-.4.2-1 .2-1.8s-.1-1.4-.2-1.8-.4-.6-.8-.6-.6.2-.8.6-.2 1-.2 1.8.1 1.4.2 1.8z"/><path d="m39.2 10.4-1 1.4h-.5l1.2-1.6-1.1-1.5h.5l.8 1.2.9-1.2h.4l-1.1 1.5 1.2 1.6h-.5zm4.8-2.8c.2 0 .4.1.5.1.2.1.3.2.4.2.1.1.3.2.3.4s.1.3.2.4v1.8c0 .2-.1.5-.2.7s-.2.4-.5.4c-.2.1-.4.1-.7.1s-.5-.1-.7-.1c-.2-.1-.3-.2-.5-.4-.1-.2-.2-.4-.2-.7v-1.7c0-.2.1-.5.2-.7s.2-.3.5-.5.4 0 .7 0zm1 2.1v-.6c0-.2-.1-.4-.2-.6-.1-.1-.2-.3-.3-.4s-.3-.2-.5-.2-.4.1-.5.2-.2.2-.3.4c-.1.1-.2.3-.2.6v1.5c0 .2.1.4.2.6.1.1.2.3.3.4.2.1.3.1.5.1s.4-.1.5-.1c.2-.1.2-.2.3-.4s.1-.4.2-.6zm3.2 3.3h-.3v-4.4h.3v.6c0-.1.1-.2.2-.2.1-.1.2-.1.2-.2s.2-.1.3-.1c.1-.1.2-.1.3-.1.2 0 .5.1.7.1.2.1.3.2.5.4.1.1.2.3.2.5s.1.4.1.6 0 .4-.1.6c0 .2-.2.4-.2.5s-.2.2-.5.4c-.2.1-.4.1-.6.1s-.5-.1-.7-.1c-.2-.1-.3-.2-.5-.4zm0-2.8v.5c0 .1.1.3.2.4l.3.3c.2.1.3.1.5.1s.3-.1.5-.1.2-.1.3-.3c.1-.1.2-.3.2-.4v-.6c0-.2 0-.4-.1-.5s-.1-.3-.1-.4c-.1-.1-.2-.2-.3-.2-.2-.1-.2-.1-.4-.1s-.3.1-.5.1-.2.1-.3.3c-.1.1-.2.2-.2.4-.1.2-.1.4-.1.5zm3.6 1.6h-.3v-3.2h.3v.6c.1-.2.2-.3.4-.4s.3-.1.7-.1v.3c-.2 0-.3.1-.5.1s-.2.1-.3.3c-.1.1-.2.2-.2.4v.5zm2.9.1c-.2 0-.4-.1-.5-.1-.2-.1-.3-.1-.5-.3-.2-.1-.2-.3-.3-.5s-.1-.4-.1-.7 0-.4.1-.6.2-.4.2-.5.2-.2.5-.4.4-.1.7-.1.5.1.7.1.3.2.5.4c.1.1.2.3.2.5s.1.4.1.6 0 .4-.1.6-.2.4-.3.5c-.2.1-.3.2-.5.4-.4 0-.5.1-.7.1zm1-1.7v-.5c0-.1-.1-.3-.2-.4l-.3-.3c-.2-.1-.3-.1-.5-.1s-.4 0-.5.1-.2.1-.3.3-.2.2-.2.4v1.1c0 .1.1.3.2.4s.2.2.3.2c.2.1.3.1.5.1s.3-.1.5-.1.2-.1.3-.3.2-.2.2-.4zm3.5-2.8h.3v4.3h-.3v-.6c0 .1-.1.2-.2.2s-.2.1-.2.2-.2.1-.3.1-.2.1-.3.1c-.2 0-.5-.1-.7-.1s-.3-.2-.5-.4c-.1-.1-.2-.3-.2-.5s-.1-.4-.1-.6 0-.4.1-.6c0-.2.2-.4.2-.5.1-.1.2-.2.5-.4.2-.1.4-.1.6-.1s.5.1.7.1.3.2.5.4zm0 2.8v-.5c0-.1-.2-.3-.3-.4l-.3-.3c-.2-.1-.3-.1-.5-.1s-.3.1-.5.1-.2.1-.3.3-.2.3-.2.4v.6c0 .2 0 .4.1.5s.2.3.2.4c.1.1.2.2.3.2.2.1.2.1.4.1s.3-.1.5-.1.2-.1.3-.3c.1-.1.2-.2.2-.4s.1-.3.1-.5zm3.3-1.6h.3v3.1h-.3v-.4c0 .1-.1.1-.2.1 0 .1-.2.1-.2.1-.1.1-.2.1-.2.1-.1.1-.2.1-.3.1-.2 0-.4-.1-.5-.1-.2-.1-.2-.1-.3-.2s-.2-.2-.2-.4v-2.4h.3v2.1c0 .2 0 .4.2.6.1.1.3.2.6.2.2 0 .3-.1.4-.1.1-.1.2-.1.3-.2s.2-.2.2-.4v-.4zm3.4 1-.3-.6c-.1-.2-.4-.1-.6-.1s-.3.1-.4.1c-.2.1-.2.2-.3.3s-.2.2-.2.4c-.1.2-.1.4-.1.5s0 .3.1.5c.1.1.1.3.2.4l.3.3c.2.1.3.1.5.1s.5-.1.7-.2.2-.3.2-.5h.4c-.1.1-.1.4-.2.4-.1.1-.2.2-.2.4s-.2.2-.4.2-.3.1-.5.1-.4-.1-.7-.1c-.2-.1-.3-.2-.4-.4-.1-.1-.2-.3-.2-.5s-.1-.4-.1-.6 0-.4.1-.6c0-.2.2-.4.2-.5s.2-.2.4-.4.4-.1.6-.1c.3 0 .7.1.8.2s.3.4.4.8zm2.3 2.2c-.1 0-.1 0-.2.1-.1 0-.2.1-.2.1-.2 0-.3-.1-.4-.1-.1-.1-.2-.2-.2-.5v-2.4h-.4v-.3h.4v-.8h.3v.8h.6v.3h-.6v2.4c0 .1 0 .1.1.1 0 .1.1.1.1.1h.4c.1 0 .1 0 .2-.1zm1.8.1c-.2 0-.4-.1-.6-.1s-.3-.1-.4-.3c-.2-.1-.2-.3-.3-.5s-.1-.4-.1-.7.1-.4.1-.6c.1-.2.2-.4.2-.5s.2-.2.4-.4.4-.1.7-.1.4.1.7.1.3.2.4.4c.1.1.2.3.2.5s.1.4.1.6-.1.4-.1.6c-.1.2-.2.4-.3.5s-.3.2-.4.4c-.2 0-.4.1-.6.1zm1.1-1.7c0-.2 0-.4-.1-.5s-.1-.3-.2-.4l-.3-.3c-.2-.1-.3-.1-.5-.1s-.3 0-.5.1-.2.1-.3.3-.2.3-.2.4c-.1.1-.1.3-.1.5s0 .4.1.6c.1.1.1.3.2.4s.2.2.3.2.3.1.4.1c.2 0 .3-.1.5-.1s.2-.1.3-.3.2-.2.2-.4c.2-.1.2-.3.2-.5zm1.2.6.3.6c.1.2.3.1.7.1.2 0 .2 0 .3-.1s.2-.1.2-.1l.2-.2c.1-.1.1-.1.1-.2s-.1-.2-.2-.4c-.1-.1-.2-.1-.3-.1s-.3-.1-.5-.1c-.2-.1-.3-.1-.5-.1-.2-.1-.2-.1-.3-.2s-.2-.2-.2-.4.1-.4.3-.6c.2-.1.4-.2.8-.2.3 0 .6.1.8.2s.3.4.4.8h-.4c-.1-.2-.1-.4-.2-.5s-.3-.1-.6-.1-.4-.2-.5-.1-.2.2-.2.4.1.2.2.3.2.1.3.2.3.1.5.1c.2.1.3.1.5.1s.2.1.3.2.2.2.2.4c0 .1-.1.3-.1.4-.1.1-.2.2-.2.3s-.2.1-.4.1c-.2.1-.3.1-.5.1s-.3-.1-.5-.1-.2-.1-.3-.2-.2-.2-.2-.4c-.1-.1-.1-.2-.1-.4h.2v.2z"/><path d="m10.2 7.8c-.1-.6-.4-1-.8-1.2s-.8-.4-1.3-.4c-.4 0-.8.1-1.1.3s-.6.4-.8.7-.3.6-.4 1-.1.7-.1 1 .1.8.1 1.1.2.7.4 1 .4.5.8.7.7.2 1.2.2c.3 0 .6-.1.8-.1.2-.1.4-.2.6-.4s.4-.4.4-.6c.1-.2.2-.5.3-.8h.6c-.1.4-.2.6-.4.9s-.4.6-.6.8-.6.4-.9.6c-.4.1-.8.2-1.2.2-.6 0-1-.1-1.3-.3s-.7-.4-.9-.8-.4-.7-.5-1.1-.1-.9-.1-1.4c0-.6.1-1.2.3-1.6s.4-.8.7-1.1.6-.5 1-.7.8-.2 1.2-.2.6.1.9.2.6.2.8.4.4.4.6.7c.1.2.2.6.3.9zm3.9 5.1c-.3 0-.6-.1-.9-.1-.3-.1-.5-.2-.7-.5s-.4-.5-.5-.8-.2-.7-.2-1.1.1-.7.1-1 .2-.6.4-.8.4-.4.7-.6.6-.2 1-.2.7.1 1 .2.5.3.7.6.4.5.4.8c.1.3.1.6.1 1s0 .8-.1 1.1-.2.6-.4.8-.4.4-.7.5-.6.1-.9.1zm1.7-2.7c0-.3-.1-.6-.1-.8s-.2-.4-.4-.6c-.1-.2-.3-.4-.5-.4-.2-.1-.4-.1-.8-.1s-.6.1-.8.2-.4.2-.5.4l-.3.6c-.1.2-.1.5-.1.8s.1.6.1.9.2.5.3.6c.1.2.3.4.5.4.2.1.4.1.7.1s.6-.1.8-.2.4-.2.5-.4l.3-.6c.2-.3.3-.6.3-.9zm2.2 2.5h-.5v-6.9h.5v2.7c.2-.3.5-.6.8-.7s.6-.2 1-.2.7.1 1 .2.5.4.7.6.3.5.4.9.1.6.1 1 0 .7-.1 1-.2.6-.4.8-.4.4-.7.6c-.3.1-.6.2-1 .2-.1 0-.3 0-.5-.1s-.3-.1-.5-.2c-.1-.1-.3-.2-.5-.3s-.3-.3-.3-.5zm0-2.5c0 .3 0 .6.1.9 0 .2.2.5.3.6.1.2.3.4.5.4.2.1.5.1.7.1s.5-.1.6-.1.4-.2.5-.4c.1-.1.2-.4.4-.6s.1-.5.1-.8 0-.6-.1-.9c0-.2-.1-.5-.3-.7s-.3-.4-.5-.5-.5-.2-.8-.2c-.2 0-.5.1-.7.1s-.4.2-.5.4-.2.4-.4.6c.1.6.1.8.1 1.1zm5.8 2.5h-.5v-4.9h.5v.9c.1-.4.4-.6.6-.8s.6-.2 1-.2v.6c-.3 0-.6.1-.8.1-.2.1-.4.2-.5.4s-.2.4-.2.6v.8c-.1.1-.1 2.5-.1 2.5zm4.8-2.8c.1 0 .2-.1.4-.1.1-.1.2-.1.4-.1s.1-.1.2-.2v-.3c0-.3-.1-.6-.3-.7-.2-.2-.5-.3-1-.3-.2 0-.4 0-.5.1s-.3.1-.5.2-.2.2-.3.4c-.1.1-.1.3-.1.6h-.6c0-.3.1-.6.2-.8s.2-.4.5-.5c.2-.2.4-.2.6-.3s.5-.1.8-.1.5.1.7.1.4.2.5.2c.1.1.3.2.4.4s.1.4.1.7v2.7c0 .2 0 .4.1.4.1.1.2.1.5-.1v.4s-.1.1-.2.1c-.1.1-.1.1-.2.1s-.1 0-.2-.1c-.1 0-.1-.1-.2-.1 0-.1-.1-.1-.1-.1v-.4c-.2.2-.5.4-.9.6-.3.1-.6.2-1 .2-.2 0-.4-.1-.6-.1s-.4-.1-.5-.2l-.4-.4c-.1-.1-.1-.4-.1-.6 0-.9.5-1.4 1.7-1.5zm.9.2c-.2.1-.5.1-.8.2s-.5.1-.8.1c-.5.1-.8.1-1 .3-.2.1-.4.4-.4.8 0 .1 0 .3.1.4 0 .1.1.2.2.3s.2.1.4.1c.1.1.2.1.4.1s.5-.1.6-.1c.2-.1.4-.1.5-.2s.3-.2.4-.4.1-.4.1-.6c.3-.2.3-1 .3-1zm2.7 2.6h-.5v-4.9h.5v.9c.2-.4.3-.6.6-.8.2-.2.6-.2 1-.2v.6c-.3 0-.6.1-.8.1-.2.1-.4.2-.5.4s-.2.4-.2.6v3.3z"/></g></svg><svg height="146" viewBox="-10 -10 137.7 146" width="137.7" y="195.8"><g fill="#fff"><path d="m51.3 9-.1.1c-.2.2-.4.3-.6.4l-.6.3c-.2.1-.5.1-.7.2-.3 0-.6.1-.9.1-.5 0-1-.1-1.5-.3s-.9-.5-1.2-.8c-.4-.4-.6-.9-.8-1.4-.2-.6-.3-1.2-.3-1.8s.1-1.2.3-1.8c.2-.5.4-1 .8-1.4.3-.4.7-.7 1.2-.8.5-.2 1-.3 1.5-.3.4 0 .8 0 1.2.1.3.1.5.2.8.3.2.1.4.2.5.3s.2.1.3.1.2 0 .2-.1c.1 0 .1-.1.1-.1l.5-.8c-.5-.4-1-.8-1.6-1-.5-.2-1.2-.3-2-.3s-1.5.1-2.2.4-1.3.7-1.7 1.2c-.5.5-.9 1.1-1.1 1.8-.3.7-.4 1.5-.4 2.3s.1 1.6.4 2.3c.2.7.6 1.3 1.1 1.8s1.1.9 1.7 1.2c.7.3 1.5.4 2.2.4.8 0 1.6-.1 2.4-.4.6-.3 1.2-.7 1.7-1.3l-.7-.7zm12.6-5.6c-.3-.7-.6-1.3-1.1-1.8s-1.1-.9-1.8-1.2c-1.5-.6-3.1-.6-4.6 0-.7.3-1.3.7-1.8 1.2s-.9 1.1-1.1 1.8c-.5 1.5-.5 3.1 0 4.6.3.7.6 1.3 1.1 1.8s1.1.9 1.8 1.2c1.5.6 3.1.6 4.6 0 .7-.3 1.3-.7 1.8-1.2s.9-1.1 1.1-1.8c.5-1.4.5-3.1 0-4.6zm-1.6 4.1c-.2.5-.4 1-.8 1.4-.3.4-.8.7-1.2.8-1 .4-2.2.4-3.2 0-.5-.2-.9-.5-1.2-.8-.4-.4-.6-.9-.8-1.4-.4-1.2-.4-2.4 0-3.6.2-.5.4-1 .8-1.4.3-.4.8-.7 1.2-.9 1-.4 2.2-.4 3.2 0 .5.2.9.5 1.2.9.4.4.6.9.8 1.4.4 1.2.4 2.5 0 3.6zm11.9-7.4v8.5l-6.4-8.2c-.1-.1-.1-.2-.2-.2s-.2-.1-.3-.1h-.9v11.3h1.5v-8.6l6.4 8.2c.1.1.2.2.3.2.1.1.2.1.3.1h.8v-11.2z"/><path d="m1.7 5h33v1h-33z"/><path d="m84.7 5h33v1h-33z"/></g><path d="m23 26.1h-8.1v23.6h-6.8v-23.6h-8.1v-5.3h23zm31.2 9.1c0 2.1-.4 4-1.1 5.8s-1.7 3.4-3.1 4.7-2.9 2.4-4.7 3.1-3.9 1.2-6.2 1.2-4.3-.4-6.2-1.1c-1.9-.8-3.4-1.8-4.8-3.1s-2.3-2.9-3.1-4.7c-.7-1.8-1.1-3.7-1.1-5.8s.4-4 1.1-5.8 1.7-3.4 3.1-4.7c1.3-1.3 2.9-2.4 4.8-3.1 1.9-.8 3.9-1.1 6.2-1.1s4.3.4 6.2 1.1c1.8.8 3.4 1.8 4.7 3.1s2.3 2.9 3.1 4.7c.7 1.7 1.1 3.6 1.1 5.7zm-6.9 0c0-1.4-.2-2.7-.6-3.9-.4-1.1-.9-2.1-1.6-2.9s-1.5-1.4-2.6-1.8-2.1-.6-3.4-.6-2.5.2-3.5.6-1.9 1-2.6 1.8-1.2 1.8-1.6 2.9-.6 2.4-.6 3.9c0 1.4.2 2.7.6 3.9.4 1.1.9 2.1 1.6 2.9s1.6 1.4 2.6 1.8 2.2.6 3.5.6 2.4-.2 3.4-.6 1.9-1 2.6-1.8 1.2-1.8 1.6-2.9c.4-1.2.6-2.4.6-3.9zm37.1 0c0 2.1-.4 4-1.1 5.8s-1.7 3.3-3.1 4.6c-1.3 1.3-2.9 2.3-4.7 3s-3.9 1.1-6.2 1.1h-11.2v-29h11.2c2.3 0 4.3.4 6.2 1.1s3.4 1.7 4.7 3 2.3 2.8 3.1 4.6c.7 1.8 1.1 3.7 1.1 5.8zm-6.9 0c0-1.4-.2-2.7-.6-3.9s-.9-2.1-1.6-2.9-1.5-1.4-2.6-1.8-2.2-.6-3.4-.6h-4.5v18.6h4.5c1.3 0 2.4-.2 3.4-.6s1.9-1 2.6-1.8 1.2-1.8 1.6-2.9c.4-1.3.6-2.6.6-4.1zm39.3 0c0 2.1-.4 4-1.1 5.8s-1.7 3.4-3.1 4.7-2.9 2.4-4.7 3.1-3.9 1.2-6.1 1.2c-2.3 0-4.3-.4-6.2-1.1-1.9-.8-3.4-1.8-4.8-3.1s-2.3-2.9-3.1-4.7c-.7-1.8-1.1-3.7-1.1-5.8s.4-4 1.1-5.8 1.7-3.4 3.1-4.7c1.3-1.3 2.9-2.4 4.8-3.1 1.9-.8 3.9-1.1 6.2-1.1s4.3.4 6.2 1.1c1.8.8 3.4 1.8 4.7 3.1s2.3 2.9 3.1 4.7c.6 1.7 1 3.6 1 5.7zm-6.9 0c0-1.4-.2-2.7-.6-3.9-.4-1.1-.9-2.1-1.6-2.9s-1.5-1.4-2.6-1.8-2.1-.6-3.3-.6c-1.3 0-2.5.2-3.5.6s-1.9 1-2.6 1.8-1.2 1.8-1.6 2.9-.6 2.4-.6 3.9c0 1.4.2 2.7.6 3.9.4 1.1.9 2.1 1.6 2.9s1.6 1.4 2.6 1.8 2.2.6 3.5.6 2.4-.2 3.4-.6 1.9-1 2.6-1.8 1.2-1.8 1.6-2.9c.3-1.2.5-2.4.5-3.9zm-96.6 21.4c2.2 0 4 .3 5.6.8s2.9 1.2 3.9 2.1 1.8 2 2.2 3.2c.5 1.2.7 2.6.7 4 0 1.5-.2 3-.7 4.2-.5 1.3-1.3 2.4-2.3 3.3s-2.3 1.6-3.9 2.2c-1.6.5-3.4.8-5.5.8h-3.7v10.3h-7.2v-30.9zm0 15.2c1.9 0 3.2-.4 4-1.3s1.2-2.1 1.2-3.7c0-.7-.1-1.4-.3-1.9-.2-.6-.5-1.1-1-1.5-.4-.4-1-.7-1.6-1s-1.4-.4-2.3-.4h-3.7v9.8zm41.7 15.8h-5.6c-.6 0-1.1-.1-1.5-.4s-.7-.7-.9-1.2l-1.8-5.4h-11.8l-1.8 5.4c-.2.4-.4.8-.8 1.1s-.9.5-1.5.5h-5.6l12-30.9h7.3zm-11.4-11.9-2.9-8.5c-.2-.5-.4-1.2-.7-1.9-.2-.7-.5-1.5-.7-2.4-.2.9-.4 1.7-.7 2.4-.2.7-.5 1.4-.7 1.9l-2.8 8.4h8.5zm27.6-4.2h11v13c-1.6 1.2-3.3 2-5.1 2.5s-3.7.8-5.6.8c-2.5 0-4.9-.4-6.9-1.2-2.1-.8-3.9-1.9-5.4-3.3s-2.6-3.1-3.4-5-1.2-4-1.2-6.3.4-4.4 1.1-6.4c.8-1.9 1.9-3.6 3.3-5s3.1-2.5 5.2-3.3c2-.8 4.3-1.2 6.8-1.2 1.3 0 2.5.1 3.6.3s2.2.5 3.1.9c1 .4 1.8.8 2.6 1.3s1.5 1.1 2.1 1.7l-2.1 3.2c-.3.5-.7.8-1.3.9-.5.1-1.1 0-1.7-.4-.6-.3-1.1-.6-1.6-.9s-1-.4-1.5-.6-1.1-.3-1.7-.3-1.2-.1-2-.1c-1.3 0-2.6.2-3.6.7-1.1.5-2 1.1-2.7 2s-1.2 2-1.7 3.2c-.4 1.2-.6 2.6-.6 4 0 1.6.2 3.1.7 4.4s1.1 2.3 1.9 3.2 1.8 1.5 3 2 2.4.7 3.8.7c.9 0 1.6-.1 2.3-.3s1.4-.4 2-.7v-4.7h-3.1c-.5 0-.8-.1-1.1-.4-.3-.2-.4-.5-.4-.9v-3.8zm46.2.6c0 2.2-.4 4.3-1.2 6.2s-1.9 3.6-3.3 5-3.1 2.5-5.1 3.3-4.2 1.2-6.6 1.2-4.6-.4-6.6-1.2-3.7-1.9-5.1-3.3-2.5-3.1-3.3-5-1.2-4-1.2-6.2.4-4.3 1.2-6.2 1.9-3.6 3.3-5 3.1-2.5 5.1-3.3 4.2-1.2 6.6-1.2 4.6.4 6.6 1.2 3.7 1.9 5.1 3.3 2.5 3.1 3.3 5 1.2 4 1.2 6.2zm-7.4 0c0-1.5-.2-2.9-.6-4.1s-1-2.3-1.7-3.1-1.7-1.5-2.7-2c-1.1-.5-2.3-.7-3.7-.7s-2.6.2-3.7.7-2 1.1-2.7 2c-.7.8-1.3 1.9-1.7 3.1s-.6 2.6-.6 4.1.2 2.9.6 4.1 1 2.3 1.7 3.1 1.7 1.5 2.7 1.9c1.1.4 2.3.7 3.7.7s2.6-.2 3.7-.7c1.1-.4 2-1.1 2.7-1.9s1.3-1.9 1.7-3.1.6-2.6.6-4.1zm-105.7 53.3v-20.6h3.8c.8 0 1.3.3 1.5 1l.3 1.1c.3-.4.7-.7 1.1-1s.8-.6 1.2-.8.9-.4 1.4-.5 1-.2 1.6-.2c1.2 0 2.3.3 3.1 1 .8.6 1.4 1.5 1.9 2.6.3-.6.8-1.2 1.3-1.6.5-.5 1-.8 1.6-1.1s1.2-.5 1.8-.6 1.3-.2 1.9-.2c1.2 0 2.2.2 3.1.5.9.4 1.7.9 2.3 1.5s1.1 1.5 1.4 2.5.5 2.1.5 3.3v13.1h-6.1v-13.1c0-2.1-.9-3.2-2.7-3.2-.8 0-1.5.3-2.1.8s-.8 1.3-.8 2.4v13.1h-6.2v-13.1c0-1.2-.2-2-.7-2.5s-1.1-.7-2-.7c-.6 0-1.1.1-1.6.4s-1 .6-1.4 1v14.9zm44.3-29c2 0 3.8.2 5.3.7s2.7 1.1 3.6 2c.9.8 1.6 1.8 2.1 3s.7 2.4.7 3.7c0 1.4-.2 2.8-.7 4s-1.2 2.2-2.1 3.1-2.2 1.5-3.6 2c-1.5.5-3.2.7-5.2.7h-3.5v9.7h-6.7v-29h10.1zm0 14.3c1.7 0 3-.4 3.8-1.3.8-.8 1.2-2 1.2-3.5 0-.7-.1-1.3-.3-1.8s-.5-1-.9-1.4-.9-.7-1.5-.9-1.3-.3-2.2-.3h-3.5v9.2zm43.5.2c0 2.1-.4 4-1.1 5.8s-1.7 3.4-3.1 4.7c-1.3 1.3-2.9 2.4-4.7 3.1-1.8.8-3.9 1.1-6.2 1.1s-4.3-.4-6.2-1.1c-1.9-.8-3.4-1.8-4.8-3.1-1.3-1.3-2.3-2.9-3.1-4.7-.7-1.8-1.1-3.8-1.1-5.8 0-2.1.4-4 1.1-5.8s1.7-3.4 3.1-4.7 2.9-2.4 4.8-3.1c1.9-.8 3.9-1.1 6.2-1.1s4.3.4 6.2 1.1 3.4 1.8 4.7 3.1 2.3 2.9 3.1 4.7 1.1 3.7 1.1 5.8zm-6.8 0c0-1.4-.2-2.7-.6-3.9-.4-1.1-.9-2.1-1.6-2.9s-1.5-1.4-2.6-1.8-2.2-.6-3.4-.6c-1.3 0-2.5.2-3.5.6s-1.9 1-2.6 1.8-1.2 1.8-1.6 2.9-.6 2.4-.6 3.9c0 1.4.2 2.7.6 3.9.4 1.1.9 2.1 1.6 2.9s1.6 1.4 2.6 1.8 2.2.6 3.5.6 2.4-.2 3.4-.6 1.9-1 2.6-1.8 1.2-1.8 1.6-2.9.6-2.4.6-3.9zm26.8-8.6c-.2.3-.4.6-.6.7s-.5.2-.8.2-.6-.1-1-.3-.7-.4-1.2-.6c-.4-.2-1-.5-1.5-.6-.6-.2-1.2-.3-1.9-.3-1.3 0-2.2.3-2.8.8s-.9 1.3-.9 2.2c0 .6.2 1.1.6 1.5s.9.7 1.5 1 1.3.5 2.1.8c.8.2 1.6.5 2.4.8s1.6.6 2.4 1 1.5.9 2.1 1.5 1.1 1.3 1.5 2.2.6 1.9.6 3.1c0 1.3-.2 2.6-.7 3.8s-1.1 2.2-2 3.1-2 1.6-3.3 2c-1.3.5-2.8.7-4.4.7-.9 0-1.8-.1-2.8-.3-.9-.2-1.8-.4-2.7-.8-.9-.3-1.7-.7-2.5-1.2s-1.4-1-2-1.5l2-3.1.6-.6c.3-.2.5-.2.8-.2.4 0 .8.1 1.2.4s.9.5 1.4.8 1.1.6 1.8.8c.7.3 1.4.4 2.3.4 1.2 0 2.2-.3 2.8-.8s1-1.4 1-2.6c0-.7-.2-1.2-.6-1.6s-.9-.8-1.5-1.1-1.3-.5-2.1-.7-1.6-.4-2.4-.7-1.6-.6-2.4-1-1.5-.9-2.1-1.5-1.1-1.4-1.5-2.3-.6-2.1-.6-3.4c0-1.1.2-2.1.7-3.2.4-1 1.1-2 1.9-2.8s1.9-1.5 3.1-1.9c1.2-.5 2.6-.7 4.2-.7.9 0 1.8.1 2.6.2s1.6.3 2.4.6 1.5.6 2.1 1c.7.4 1.2.8 1.8 1.3z" fill="#e60077"/></svg><svg fill="#fff" height="144.9" viewBox="-10 -10 136.8 144.9" width="136.8" x="137.7" y="195.8"><path d="m15.6.2v14c0 .2 0 .5.1.8l-11.1-14.3c-.1-.1-.2-.3-.4-.4s-.4-.1-.6-.1h-1.5v19.5h2.5v-14.7l11 14.3c.1.2.3.3.5.4s.4.1.6.1h1.5v-19.6zm24.8 5.8c-.4-1.2-1.1-2.3-2-3.2s-1.9-1.6-3.1-2.1c-2.5-1-5.4-1-7.9 0-1.2.5-2.2 1.2-3.1 2.1s-1.5 2-2 3.2c-.9 2.6-.9 5.4 0 8 .4 1.2 1.1 2.2 2 3.2.9.9 1.9 1.6 3.1 2.1 2.5 1 5.4 1 7.9 0 1.2-.5 2.2-1.2 3.1-2.1s1.5-2 2-3.2c1-2.6 1-5.4 0-8zm-2.7 7.1c-.3.9-.7 1.7-1.4 2.3-.6.6-1.3 1.1-2.1 1.5-1.8.7-3.8.7-5.6 0-.8-.3-1.5-.8-2.1-1.5s-1.1-1.5-1.4-2.3c-.6-2-.6-4.2 0-6.3.3-.9.7-1.7 1.4-2.4.6-.6 1.3-1.2 2.1-1.5 1.8-.7 3.8-.7 5.6 0 .8.3 1.5.8 2.1 1.5.7.8 1.1 1.6 1.4 2.5.6 2 .6 4.2 0 6.2zm24.8-11.1c-.7-.7-1.5-1.2-2.4-1.5-1-.4-2-.5-3-.5-.9 0-1.8.1-2.6.5-.7.3-1.4.7-1.9 1.2s-.9 1.1-1.2 1.7-.4 1.3-.4 2c0 .8.1 1.5.4 2.2.2.6.6 1.1 1 1.5s.9.7 1.5 1c.6.2 1.1.5 1.7.6.6.2 1.1.4 1.7.5l1.5.6c.4.2.8.5 1 .9.3.4.4.9.4 1.4s-.1.9-.3 1.4c-.2.4-.4.8-.7 1.1s-.8.5-1.2.7c-.5.2-1.1.2-1.6.2-.6 0-1.3-.1-1.9-.3-.5-.2-.9-.4-1.3-.7-.4-.2-.7-.5-.9-.7s-.4-.3-.7-.3c-.1 0-.3 0-.4.1l-.3.3-.8 1.4c.4.4.8.7 1.2 1.1.5.3 1 .6 1.5.8 1.1.5 2.3.7 3.5.7.9 0 1.9-.1 2.8-.5.8-.3 1.5-.7 2.1-1.3s1-1.2 1.3-2 .4-1.6.4-2.4c0-.7-.1-1.4-.4-2-.3-.5-.6-1-1.1-1.4-.4-.4-.9-.7-1.5-1s-1.1-.5-1.7-.7-1.1-.4-1.7-.6c-.5 0-1-.3-1.5-.5-.4-.2-.7-.5-1-.9s-.4-.8-.4-1.3c0-.4.1-.8.2-1.1s.4-.7.7-.9c.3-.3.7-.5 1.1-.6.5-.2 1-.2 1.5-.2s1.1.1 1.6.2c.4.1.8.3 1.1.5s.6.4.8.5.4.2.6.2c.1 0 .3 0 .4-.1l.3-.3zm6.8 15.4v-6.4h7.4v-2.2h-7.4v-6.2h9.2v-2.4h-12.1v19.5h12.1v-2.4zm32.2-17.2h-15.3v2.4h6.2v17.1h2.9v-17.1h6.2zm5.7 17.2v-6.4h7.4v-2.2h-7.4v-6.2h9.2v-2.4h-12.1v19.5h12.1v-2.4z"/><path d="m4.6 52.6v-7.4h8.6v-2.6h-8.6v-7.2h10.7v-2.7h-14.1v22.8h14.1v-2.7h-10.7zm27.5-17.9c-.8-.8-1.8-1.4-2.8-1.8-1.1-.4-2.3-.6-3.5-.6-1 0-2.1.2-3 .5-.8.3-1.6.8-2.2 1.4s-1.1 1.3-1.4 2-.5 1.6-.5 2.4c0 .9.1 1.7.5 2.6.3.7.7 1.2 1.2 1.7s1.1.8 1.7 1.1 1.3.5 2 .8c.7.2 1.3.4 2 .6.6.2 1.2.4 1.7.7s.9.6 1.2 1.1.5 1.1.5 1.6c0 .6-.1 1.1-.3 1.6s-.5.9-.9 1.2c-.4.4-.9.6-1.4.8-.6.2-1.2.3-1.9.3s-1.5-.1-2.2-.3c-.5-.2-1.1-.5-1.5-.8s-.8-.5-1.1-.8c-.2-.2-.5-.3-.8-.3-.2 0-.3 0-.5.1l-.3.3-1 1.6c.4.5.9.9 1.4 1.2.5.4 1.1.7 1.7.9 1.3.5 2.7.8 4.1.8 1.1 0 2.2-.2 3.3-.6.9-.3 1.7-.9 2.4-1.5.7-.7 1.2-1.4 1.5-2.3s.5-1.9.5-2.8c0-.8-.1-1.6-.5-2.4-.3-.6-.7-1.2-1.2-1.7s-1.1-.8-1.7-1.1-1.3-.6-2-.8-1.3-.4-2-.7c-.6-.2-1.2-.4-1.7-.7s-.9-.6-1.2-1-.5-1-.5-1.5.1-.9.3-1.3.4-.8.8-1.1.8-.6 1.3-.7c.6-.2 1.2-.3 1.8-.3s1.2.1 1.8.3c.5.2.9.3 1.3.6.4.2.7.4.9.6s.4.2.6.3c.2 0 .3 0 .4-.1s.3-.2.3-.4zm20.2 15.8c-.1 0-.2.1-.3.2-.4.3-.7.6-1.2.9-.4.2-.8.5-1.2.6-.5.2-1 .3-1.4.4-.6.1-1.2.1-1.8.1-1 0-2.1-.2-3-.6s-1.8-1-2.4-1.7c-.7-.8-1.3-1.7-1.6-2.7-.4-1.2-.6-2.4-.6-3.7 0-1.2.2-2.5.6-3.7.3-1 .9-1.9 1.6-2.7.7-.7 1.5-1.3 2.4-1.7 1-.4 2-.6 3.1-.6.8 0 1.6.1 2.4.3.6.2 1.1.4 1.6.7.4.2.7.4 1.1.7.2.2.4.3.7.3.2 0 .3 0 .4-.1l.3-.3 1.1-1.6c-1-.9-2.1-1.6-3.3-2.1-1.4-.6-2.8-.8-4.3-.8-1.6 0-3.1.3-4.5.9-1.3.5-2.5 1.4-3.5 2.4-1 1.1-1.8 2.3-2.3 3.7-.6 1.5-.8 3.1-.8 4.7s.2 3.2.8 4.7c.5 1.4 1.2 2.6 2.2 3.7 1 1 2.1 1.9 3.4 2.4 1.4.6 2.9.9 4.5.9 1.7 0 3.3-.3 4.8-.9 1.3-.6 2.5-1.5 3.4-2.6l-1.3-1.5c-.1-.1-.3-.2-.5-.2-.2-.1-.3-.1-.4-.1zm9.5-3.6 3.4-8.8c.1-.3.2-.7.4-1 .1-.4.2-.8.4-1.3.2.8.4 1.5.7 2.3l3.4 8.8zm5.8-14.3h-3.4l-9.1 22.8h2.6c.3 0 .5-.1.7-.2s.3-.3.4-.5l2-5.3h10l2 5.3c.1.2.2.4.4.6s.5.2.7.2h2.6zm15.3 11.7v-9.1h3.5c1.4-.1 2.8.3 3.9 1.2.9.8 1.4 2 1.3 3.3 0 .6-.1 1.3-.3 1.9s-.6 1.1-1 1.5c-.5.4-1 .7-1.6.9-.7.2-1.5.3-2.3.3zm-3.4-11.7v22.8h3.4v-8.4h3.5c1.3 0 2.5-.2 3.7-.5 1-.3 1.9-.8 2.7-1.5.7-.6 1.3-1.4 1.6-2.3.4-.9.6-1.9.6-2.9s-.2-2-.5-2.9-.9-1.6-1.6-2.2c-.8-.7-1.7-1.1-2.7-1.4-1.2-.4-2.5-.5-3.8-.5zm21.5 14.3 3.4-8.8c.1-.3.2-.7.4-1 .1-.4.2-.8.4-1.3.2.8.4 1.5.7 2.3l3.4 8.8zm5.8-14.3h-3.4l-9.1 22.8h2.6c.3 0 .5-.1.7-.2s.3-.3.4-.5l2-5.3h10l2 5.3c.1.2.2.4.4.6s.5.2.7.2h2.6z"/><path d="m12.9 68.6v12.8c0 .2 0 .5.1.7l-10.2-13c-.1-.2-.2-.3-.4-.4s-.3-.1-.5-.1h-1.3v18h2.3v-13.6l10.1 13.1.4.4c.2.1.3.1.5.1h1.3v-18zm9.5 0h-2.7v18h2.7zm16.8 0v12.8c0 .2 0 .5.1.7l-10.2-13c-.1-.2-.2-.3-.4-.4s-.3-.1-.5-.1h-1.4v18h2.3v-13.6l10.1 13.1.4.4c.2.1.3.1.5.1h1.4v-18zm15.8 9.2v1.5c0 .1.1.3.2.4s.3.2.4.1h2.7v3.8c-.3.2-.6.3-.9.4l-.9.3c-.3.1-.7.2-1 .2-.4 0-.7.1-1.1.1-.9 0-1.9-.1-2.8-.5-.8-.3-1.5-.8-2.1-1.4s-1.1-1.4-1.3-2.2c-.3-1-.5-2-.5-3s.1-1.9.5-2.8c.3-.8.7-1.5 1.3-2.2.6-.6 1.3-1.1 2-1.4.8-.3 1.8-.5 2.7-.5.6 0 1.1 0 1.7.1.4.1.9.2 1.3.4.3.1.6.3.9.5s.5.3.7.4.4.2.6.1.4-.2.5-.4l.8-1.2c-.4-.4-.8-.7-1.2-.9-.5-.3-.9-.5-1.5-.7s-1.1-.4-1.7-.5c-.7-.1-1.3-.2-2-.2-1.3 0-2.6.2-3.8.7-1.1.4-2.1 1.1-2.9 1.9s-1.4 1.8-1.8 2.9c-.4 1.2-.7 2.5-.6 3.7 0 1.3.2 2.5.7 3.7.4 1.1 1.1 2.1 1.9 2.9.9.8 1.9 1.5 3 1.9 1.3.5 2.6.7 3.9.7 1.1 0 2.3-.2 3.4-.5 1-.3 2-.8 2.9-1.5v-7zm14.3 6.3c-.5-.2-1-.6-1.4-1-.4-.5-.7-1-.9-1.6-.2-.7-.3-1.3-.3-2v-10.9h-2.7v10.9c0 1 .2 2 .5 2.9.6 1.8 2 3.2 3.7 3.8 1.9.7 4.1.7 6 0 .9-.3 1.6-.9 2.3-1.5.6-.7 1.1-1.5 1.4-2.3.3-.9.5-1.9.5-2.9v-10.9h-2.7v10.9c0 .7-.1 1.4-.3 2s-.5 1.1-.9 1.6c-.4.4-.9.8-1.4 1a5 5 0 0 1 -3.8 0zm25.8-15.5v12.8c0 .2 0 .5.1.7l-10.2-13c-.1-.2-.2-.3-.4-.4s-.3-.1-.5-.1h-1.4v18h2.3v-13.6l10.1 13.1.4.4c.2.1.3.1.5.1h1.4v-18zm9.8 11.3 2.6-6.9c.1-.2.2-.5.3-.8s.2-.6.3-1c.2.6.3 1.2.6 1.8l2.7 7zm4.6-11.3h-2.7l-7.2 18h2.1c.2 0 .4-.1.6-.2.1-.1.3-.3.3-.4l1.6-4.2h7.9l1.6 4.2c.1.2.2.3.3.5.2.1.4.2.6.2h2.1z"/></svg><svg height="144.9" viewBox="-10 -10 136.8 144.9" width="136.8" x="274.5" y="195.8"><path d="m21 99.4c-.4 0-.9.1-1.2.4-.3.2-.5.5-.7.9l-4.9 13.6c-.2.6-.5 1.2-.7 2s-.4 1.4-.6 2.2c-.2-.8-.4-1.5-.6-2.2s-.4-1.4-.7-2l-4.9-13.6c-.2-.4-.4-.7-.7-.9-.4-.3-.8-.4-1.2-.4h-4.8l10.2 25.5h5.4l10.2-25.5zm23.2 4.5v-4.6h-16.4v25.5h16.4v-4.6h-10.5v-6.1h8v-4.4h-8v-5.9zm20.7-4.5v14.8c0 .5.1.9.1 1.4l-12.1-15.3c-.1-.2-.3-.3-.4-.5-.1-.1-.3-.2-.4-.3s-.3-.1-.5-.1h-3.7v25.5h5.2v-14.9c0-.4-.1-.9-.1-1.3l12 15.2c.2.3.6.6.9.8.4.2.8.2 1.1.2h3.1v-25.5zm28.5 0h-20.3v4.7h7.2v20.8h5.9v-20.8h7.2zm7 15.7 2.3-6.9c.2-.4.4-1 .6-1.6s.4-1.3.6-2c.2.7.4 1.4.6 2s.4 1.1.6 1.6l2.4 7h-7.1zm6.5-15.7h-6.1l-9.9 25.5h4.6c.4 0 .9-.1 1.2-.4.3-.2.5-.5.7-.9l1.5-4.4h9.7l1.5 4.4c.2.4.4.7.7.9.4.3.8.4 1.2.4h4.6z" fill="#e60077"/></svg><svg height="195.8" viewBox="-10 -10 137.7 195.8" width="137.7"><path d="m23.1.3h-23.1v5.3h8.2v23.7h6.7v-23.6h8.2zm30.2 8.7c-.7-1.8-1.7-3.4-3.1-4.7-1.4-1.4-3-2.4-4.8-3.1-2-.8-4.1-1.2-6.2-1.1-2.1 0-4.2.4-6.2 1.1-1.8.7-3.4 1.8-4.8 3.1-1.2 1.3-2.3 2.9-3 4.7-1.5 3.8-1.5 8 0 11.7 1.4 3.6 4.3 6.4 7.9 7.9 4 1.5 8.4 1.5 12.4 0 3.6-1.4 6.4-4.3 7.8-7.9 1.4-3.8 1.4-7.9 0-11.7zm-6.4 9.7c-.3 1.1-.9 2.1-1.6 2.9s-1.6 1.4-2.6 1.8c-1.1.4-2.3.6-3.5.6s-2.4-.2-3.5-.6c-1-.4-1.9-1-2.6-1.8-.7-.9-1.3-1.8-1.6-2.9-.7-2.5-.7-5.2 0-7.8.5-1 1-2 1.7-2.9.7-.8 1.6-1.4 2.6-1.8 1.1-.4 2.3-.7 3.5-.6 1.2 0 2.4.2 3.5.6 1 .4 1.9 1 2.6 1.8.7.9 1.3 1.8 1.6 2.9.6 2.6.6 5.3-.1 7.8zm36.7-9.7c-.7-1.7-1.7-3.3-3.1-4.6s-3-2.4-4.8-3c-2-.8-4.1-1.1-6.2-1.1h-11.2v29.1h11.3c2.1 0 4.2-.3 6.2-1.1 1.8-.7 3.4-1.7 4.8-3 1.3-1.3 2.4-2.9 3.1-4.6 1.4-3.8 1.4-7.9-.1-11.7zm-6.3 9.8c-.3 1.1-.9 2.1-1.6 2.9s-1.6 1.4-2.6 1.9c-1.1.4-2.3.7-3.5.6h-4.5v-18.7h4.5c1.2 0 2.4.2 3.5.6 1 .4 1.9 1 2.6 1.9s1.3 1.9 1.6 2.9c.7 2.6.7 5.3 0 7.9zm38.9-9.8c-.7-1.8-1.7-3.4-3.1-4.7-1.4-1.4-3-2.4-4.8-3.1-2-.8-4.1-1.2-6.2-1.1-2.1-.1-4.2.3-6.1 1-1.8.7-3.4 1.8-4.8 3.1-1.3 1.3-2.4 2.9-3.1 4.7-1.4 3.8-1.4 8 0 11.7 1.4 3.6 4.3 6.4 7.9 7.9 4 1.5 8.4 1.5 12.4 0 3.6-1.4 6.4-4.3 7.8-7.9 1.4-3.7 1.4-7.8 0-11.6zm-6.4 9.7c-.3 1.1-.9 2.1-1.6 2.9s-1.6 1.4-2.6 1.8c-1.1.4-2.3.6-3.5.6s-2.4-.2-3.5-.6c-1-.4-1.9-1-2.6-1.8-.7-.9-1.3-1.8-1.6-2.9-.7-2.5-.7-5.2 0-7.8.3-1.1.9-2.1 1.6-2.9s1.6-1.4 2.6-1.8c1.1-.4 2.3-.7 3.5-.6 1.2 0 2.4.2 3.5.6 1 .4 1.9 1 2.6 1.8.7.9 1.3 1.8 1.6 2.9.7 2.6.7 5.3 0 7.8zm-100.5 31.7v-9.8h3.7c.8 0 1.6.1 2.4.3.6.2 1.2.5 1.6 1 .4.4.8.9 1 1.5s.3 1.3.3 1.9c.3 2.5-1.4 4.8-3.9 5.1-.4.1-.9 0-1.3 0zm-7.2-15.2v31h7.2v-10.3h3.7c1.9 0 3.8-.2 5.6-.8 1.4-.4 2.8-1.2 3.9-2.2 1-.9 1.8-2 2.3-3.3.5-1.4.8-2.8.7-4.3 0-1.4-.2-2.7-.7-4-.5-1.2-1.3-2.3-2.2-3.2-1.1-1-2.5-1.7-3.9-2.1-1.8-.6-3.7-.8-5.6-.8h-11zm32.8 19.2 2.9-8.5c.2-.5.4-1.2.7-1.9.2-.7.5-1.5.7-2.4.2.9.5 1.6.7 2.4.2.7.5 1.4.7 1.9l2.9 8.5zm7.9-19.2h-7.4l-12 31h5.6c.5 0 1.1-.2 1.5-.5s.7-.6.8-1.1l1.8-5.4h11.9l1.8 5.4c.2.4.5.8.9 1.1s1 .5 1.5.4h5.6zm28.4 18.9c0 .3.1.7.4.9.3.3.7.4 1.1.4h3.1v4.7c-.7.3-1.4.5-2.1.7-.8.2-1.6.3-2.4.3-1.3 0-2.6-.2-3.8-.7-1.1-.4-2.1-1.1-3-2s-1.5-2-1.9-3.2c-.5-1.4-.7-2.9-.7-4.4 0-1.4.2-2.7.6-4.1.4-1.1 1-2.2 1.8-3.1s1.7-1.6 2.8-2c1.2-.5 2.4-.7 3.6-.7.7 0 1.3 0 2 .1.6.1 1.1.2 1.7.3l1.5.6c.5.2 1 .5 1.6.9.5.3 1.1.5 1.7.4.5-.1 1-.5 1.3-.9l2.1-3.2c-.7-.6-1.4-1.2-2.1-1.7-.8-.5-1.7-1-2.6-1.3-1-.4-2.1-.7-3.1-.9-1.2-.2-2.4-.3-3.6-.3-2.3 0-4.6.4-6.8 1.2-1.9.7-3.7 1.8-5.2 3.3-1.4 1.4-2.6 3.1-3.3 5-.8 2-1.2 4.2-1.2 6.4s.4 4.3 1.2 6.3c.8 1.9 2 3.6 3.5 5 1.6 1.5 3.4 2.6 5.4 3.3 2.2.8 4.6 1.2 7 1.2 1.9 0 3.8-.3 5.6-.8s3.5-1.4 5.1-2.5v-13.1h-11v3.9zm45.1-9.6c-.7-1.9-1.9-3.6-3.3-5s-3.2-2.6-5.1-3.4c-2.1-.8-4.3-1.3-6.6-1.2-2.3 0-4.5.4-6.6 1.2-1.9.8-3.6 1.9-5.1 3.3-1.4 1.4-2.5 3.1-3.3 5-1.5 4-1.5 8.5 0 12.5 1.5 3.8 4.5 6.9 8.4 8.4 4.3 1.6 8.9 1.6 13.2 0 3.8-1.5 6.9-4.6 8.4-8.4 1.6-3.9 1.6-8.4 0-12.4zm-6.8 10.4c-.4 1.1-.9 2.2-1.7 3.1-.7.9-1.7 1.5-2.7 1.9-1.2.5-2.4.7-3.7.7s-2.5-.2-3.7-.7c-1.1-.4-2-1.1-2.7-1.9-.8-.9-1.4-2-1.7-3.1-.8-2.7-.8-5.6 0-8.3.4-1.1.9-2.2 1.7-3.1s1.7-1.5 2.7-2c1.2-.5 2.4-.7 3.7-.7s2.5.2 3.7.7c1.1.4 2 1.1 2.7 2 .8.9 1.4 2 1.7 3.1.8 2.7.8 5.6 0 8.3zm-99.1 48.2v-15c.4-.4.9-.8 1.4-1 .5-.3 1-.4 1.6-.4.8-.1 1.5.2 2.1.7.5.7.8 1.6.7 2.5v13.1h6.2v-13c-.1-.9.2-1.7.8-2.4.6-.6 1.3-.9 2.1-.8 1.8 0 2.8 1.1 2.8 3.2v13.1h6.2v-13.1c0-1.1-.1-2.2-.5-3.3-.3-.9-.8-1.8-1.4-2.5s-1.4-1.2-2.3-1.5c-1-.4-2.1-.5-3.2-.5-.6 0-1.3.1-1.9.2s-1.3.3-1.8.6c-.6.3-1.1.7-1.6 1.1-.5.5-.9 1-1.3 1.6-.4-1-1-1.9-1.9-2.6s-2-1-3.1-1-2.1.2-3 .7c-.4.2-.8.5-1.2.8s-.7.6-1.1 1l-.3-1.1c-.2-.7-.8-1.1-1.5-1h-4v20.7zm34.8-14.8v-9.2h3.5c.7 0 1.5.1 2.2.3.6.2 1.1.5 1.5.9s.7.9.9 1.4c.2.6.3 1.2.3 1.8.3 2.3-1.4 4.5-3.7 4.8-.4.1-.8 0-1.3 0zm-6.7-14.2v29.1h6.7v-9.7h3.5c1.8 0 3.5-.2 5.2-.7 1.3-.4 2.6-1.1 3.6-2 .9-.9 1.7-1.9 2.1-3.1.5-1.3.7-2.6.7-4 0-1.3-.2-2.6-.7-3.8s-1.2-2.2-2.1-3c-1.1-.9-2.3-1.6-3.6-2-1.7-.5-3.5-.8-5.3-.7zm52.8 8.6c-.7-1.8-1.7-3.4-3.1-4.7-1.4-1.4-3-2.4-4.8-3.1-2-.8-4.1-1.2-6.2-1.1-2.1 0-4.2.4-6.2 1.1-1.8.7-3.4 1.8-4.8 3.1-1.2 1.3-2.2 3-2.9 4.7-1.4 3.8-1.4 8 0 11.7 1.4 3.6 4.3 6.4 7.9 7.9 4 1.5 8.4 1.5 12.4 0 3.6-1.4 6.4-4.3 7.8-7.9 1.3-3.7 1.3-7.9-.1-11.7zm-6.4 9.8c-.3 1.1-.9 2.1-1.6 2.9s-1.6 1.4-2.6 1.8c-1.1.4-2.3.6-3.5.6s-2.4-.2-3.5-.6c-1-.4-1.9-1-2.6-1.8-.7-.9-1.3-1.8-1.6-2.9-.7-2.5-.7-5.2 0-7.8.3-1.1.9-2.1 1.6-2.9s1.6-1.4 2.6-1.8c1.1-.4 2.3-.7 3.5-.6 1.2 0 2.4.2 3.5.6 1 .4 1.9 1 2.6 1.8.7.9 1.3 1.8 1.6 2.9.8 2.5.8 5.2 0 7.8zm29.2-15.7c-.5-.5-1.1-.9-1.8-1.3s-1.4-.7-2.1-1c-.8-.3-1.6-.5-2.4-.6-.9-.1-1.7-.2-2.6-.2-1.4 0-2.9.2-4.2.7-1.2.4-2.2 1.1-3.1 1.9-.8.8-1.5 1.7-1.9 2.8-.4 1-.7 2.1-.7 3.2 0 1.2.2 2.3.6 3.4.3.9.8 1.6 1.5 2.3.6.6 1.3 1.1 2.1 1.5s1.6.7 2.4 1 1.6.5 2.4.7c.7.2 1.4.4 2.1.7.6.2 1.1.6 1.5 1.1s.6 1.1.6 1.7c.1 1-.3 1.9-1 2.6-.8.6-1.8.9-2.9.8-.8 0-1.6-.1-2.4-.4-.6-.2-1.2-.5-1.8-.8-.5-.3-1-.6-1.4-.8s-.8-.4-1.2-.4c-.3 0-.6.1-.8.2s-.5.3-.6.6l-2 3.2c.6.6 1.3 1.1 2 1.6.8.5 1.6.9 2.5 1.2s1.8.6 2.7.8 1.8.3 2.8.3c1.5 0 3-.2 4.4-.7 1.2-.5 2.3-1.2 3.3-2.1.9-.9 1.6-1.9 2-3.1.5-1.2.7-2.5.7-3.8 0-1.1-.2-2.1-.6-3.1-.3-.8-.8-1.6-1.5-2.2-.6-.6-1.3-1.1-2.1-1.5s-1.6-.7-2.4-1-1.6-.5-2.4-.8c-.7-.2-1.4-.5-2.1-.8-.5-.2-1-.6-1.5-1-.4-.4-.6-.9-.6-1.5 0-.8.3-1.6.9-2.2.8-.6 1.8-.9 2.8-.8.7 0 1.3.1 2 .3l1.5.6c.4.2.8.5 1.2.6.3.2.6.3 1 .3.3 0 .6-.1.8-.2.3-.2.5-.4.6-.7z" fill="#fff"/></svg><svg fill="#e60077" height="195.8" viewBox="-10 -10 137.7 195.8" width="137.7" x="137.7"><path d="m36.3 119.2 1.7-4.4c.1-.3.2-.7.3-1 .1.2.1.4.2.6s.1.3.2.5l1.7 4.4zm2.7-6.7h-1.5l-4.3 10.7h1.1c.1 0 .2 0 .3-.1l.2-.2 1-2.6h4.8l1 2.6c0 .1.1.2.2.2.1.1.2.1.3.1h1.1zm14.9 1c-.4-.4-.8-.6-1.3-.8s-1.1-.3-1.6-.3-1 .1-1.4.2-.7.4-1 .7-.5.6-.6.9c-.3.7-.3 1.6 0 2.3.1.3.3.6.6.8.2.2.5.4.8.5s.6.3.9.4l.9.3c.3.1.6.2.8.4.2.1.4.3.6.5s.2.5.2.8 0 .5-.1.8c-.1.2-.2.4-.4.6s-.4.3-.7.4-.6.1-.9.1c-.2 0-.5 0-.7-.1-.2 0-.4-.1-.6-.2s-.3-.2-.5-.3c-.1-.1-.3-.2-.4-.3s-.2-.1-.3-.2c-.1 0-.1-.1-.2-.1s-.1 0-.2.1c-.1 0-.1.1-.1.1l-.4.7c.4.4.9.8 1.5 1 .6.3 1.3.4 1.9.4.5 0 1-.1 1.5-.3.4-.2.8-.4 1.1-.7s.5-.7.7-1.1.2-.9.2-1.3-.1-.8-.2-1.1-.3-.6-.6-.8c-.2-.2-.5-.4-.8-.5s-.6-.3-.9-.4l-.9-.3c-.3-.1-.6-.2-.8-.4-.2-.1-.4-.3-.6-.5s-.2-.5-.2-.7 0-.4.1-.7c.1-.2.2-.4.4-.5.2-.2.4-.3.6-.4.3-.1.6-.1.9-.1s.6 0 .9.1l.6.3c.2.1.3.2.4.3s.2.1.3.1.1 0 .2-.1c.1 0 .1-.1.1-.2zm11.8 2.1c-.2-.6-.6-1.2-1.1-1.7s-1-.9-1.7-1.1c-1.4-.5-2.9-.5-4.3 0-.6.3-1.2.6-1.7 1.1s-.8 1.1-1.1 1.7c-.5 1.4-.5 3 0 4.4.2.6.6 1.2 1.1 1.7s1 .9 1.7 1.1c1.4.5 2.9.5 4.3 0 .6-.3 1.2-.6 1.7-1.1s.8-1.1 1.1-1.7c.5-1.4.5-2.9 0-4.4zm-1.3 4c-.2.5-.4.9-.8 1.3-.3.4-.7.6-1.2.8-1 .4-2.1.4-3.1 0-.5-.2-.9-.5-1.2-.8-.3-.4-.6-.8-.8-1.3-.4-1.2-.4-2.4 0-3.6.2-.5.4-.9.8-1.3.3-.4.7-.6 1.2-.8 1-.4 2.1-.4 3.1 0 .5.2.9.5 1.2.8.3.4.6.8.8 1.3.3 1.2.3 2.5 0 3.6zm5.2 2.4v-9.5h-1.4v10.7h6.1v-1.2zm15.3-6.4c-.2-.6-.6-1.2-1.1-1.7s-1-.9-1.7-1.1c-1.4-.5-2.9-.5-4.3 0-.6.3-1.2.6-1.7 1.1s-.8 1.1-1.1 1.7c-.5 1.4-.5 3 0 4.4.2.6.6 1.2 1.1 1.7s1 .9 1.7 1.1c1.4.5 2.9.5 4.3 0 .6-.3 1.2-.6 1.7-1.1s.8-1.1 1.1-1.7c.6-1.4.6-2.9 0-4.4zm-1.3 4c-.2.5-.4.9-.8 1.3-.3.4-.7.6-1.2.8-1 .4-2.1.4-3.1 0-.5-.2-.9-.5-1.2-.8-.3-.4-.6-.8-.8-1.3-.4-1.2-.4-2.4 0-3.6.2-.5.4-.9.8-1.3.3-.4.7-.6 1.2-.8 1-.4 2.1-.4 3.1 0 .5.2.9.5 1.2.8.3.4.6.8.8 1.3.3 1.2.3 2.5 0 3.6z"/><path d="m1.7 118.4h26v1h-26z"/><path d="m91.7 118.4h26v1h-26z"/><path d="m17.7 154.4c.7.2 1.4.5 2.1.8.6.3 1.2.6 1.7 1s.8.9 1.1 1.4c.3.6.4 1.2.4 1.9.1 1.5-.5 3-1.6 4.2-1.2 1.2-2.9 1.9-4.6 2zm-2.9-6.2c-.7-.3-1.3-.5-2-.9-.6-.3-1.1-.7-1.6-1.1-.4-.4-.8-.9-1-1.4-.3-.6-.4-1.2-.4-1.9 0-.6.1-1.2.3-1.8s.6-1.1 1-1.5c.5-.5 1.1-.9 1.8-1.1.8-.3 1.7-.5 2.6-.6zm4.1-10.2c.7.1 1.3.3 2 .6.6.3 1.1.5 1.6.8s.9.5 1.2.7.6.3.9.3c.6 0 1.1-.4 1.4-.9l1.3-2c-1-1-2.1-1.8-3.4-2.5-1.4-.8-3-1.2-4.6-1.4l.4-4.9h-2c-.4 0-.8.1-1 .4-.3.3-.4.6-.4 1l-.3 3.4c-1.6.1-3.3.4-4.8 1-1.3.5-2.5 1.3-3.5 2.3-1.9 1.8-2.9 4.3-2.9 6.9-.1 1.4.2 2.9.8 4.2.5 1.1 1.3 2 2.2 2.8s2 1.4 3.1 1.8c1.2.4 2.3.8 3.5 1.2l-.9 12.2c-.9-.1-1.8-.4-2.7-.8-.7-.3-1.3-.7-2-1.1-.6-.4-1-.7-1.5-1-.3-.3-.7-.4-1.1-.4-.3 0-.6.1-.8.2s-.4.3-.6.5l-1.6 2.5c1.3 1.3 2.8 2.3 4.4 3.1 1.7.8 3.6 1.4 5.5 1.6l-.4 5.5h2c.4 0 .8-.2 1-.4.3-.3.4-.6.4-1l.3-4c1.7-.1 3.4-.5 4.9-1.1 1.4-.6 2.6-1.5 3.6-2.5s1.8-2.2 2.3-3.6.8-2.8.8-4.3c0-1.4-.3-2.7-.9-3.9-.6-1-1.3-1.9-2.3-2.6s-2.1-1.3-3.2-1.7c-1.2-.4-2.4-.9-3.6-1.2zm25.6 26.8c-.7 0-1.4.1-2.1.2s-1.5.3-2.2.5l8.8-9c1-1 1.9-2 2.8-3 .9-.9 1.7-2 2.4-3s1.2-2.1 1.6-3.3.6-2.5.6-3.7c0-1.5-.3-2.9-.8-4.3-.5-1.2-1.3-2.3-2.3-3.2s-2.2-1.6-3.5-2c-1.4-.5-2.9-.7-4.5-.7-1.5 0-3 .2-4.5.7-1.3.4-2.6 1.1-3.6 2-1.1.9-2 2-2.6 3.2-.7 1.4-1.2 2.9-1.4 4.5l2.9.5c.6.2 1.2.1 1.7-.2s.8-.8 1-1.4c.2-.7.4-1.3.8-1.9s.8-1.1 1.4-1.5 1.2-.8 1.9-1 1.5-.4 2.3-.4 1.6.1 2.4.4c1.4.4 2.5 1.5 3.1 2.9.3.8.5 1.7.4 2.5 0 1-.1 1.9-.4 2.8s-.7 1.8-1.2 2.7c-.6.9-1.2 1.8-1.9 2.6-.7.9-1.6 1.8-2.6 2.8l-11.3 11.3c-.3.3-.6.7-.7 1.1s-.2.8-.2 1.2v1.8h24.6v-3.3c0-.5-.2-1-.5-1.3-.4-.4-.9-.5-1.4-.5zm23.4-23.1c.3-.8.8-1.5 1.4-2.1s1.3-1.1 2.1-1.4c.9-.3 1.8-.5 2.8-.5.9 0 1.8.1 2.7.5 1.6.6 2.9 1.9 3.5 3.5.3.9.5 1.9.5 2.8s-.1 1.7-.5 2.6c-.3.8-.7 1.5-1.3 2.1s-1.3 1.1-2.2 1.4c-.9.4-1.9.5-2.9.5-1.8.1-3.5-.5-4.8-1.7-1.2-1.3-1.8-3.1-1.7-5-.1-.9 0-1.8.4-2.7zm-2.3 28.3h5c.6 0 1.2-.1 1.7-.4.4-.2.8-.5 1.1-.9l8.6-12.3c.6-.9 1.2-1.8 1.7-2.7s.9-1.8 1.3-2.7.6-1.9.8-2.8c.2-1 .3-2.1.3-3.1 0-1.6-.3-3.3-.8-4.8-.5-1.4-1.3-2.7-2.4-3.8s-2.3-1.9-3.7-2.4c-3.2-1.2-6.7-1.2-9.9 0-1.4.6-2.7 1.4-3.9 2.5-1.1 1.1-1.9 2.3-2.5 3.7s-.9 3-.9 4.5.3 3.1.8 4.5c.5 1.2 1.3 2.4 2.3 3.3.9.9 2 1.6 3.2 2s2.5.7 3.8.7c1.2 0 2.3-.2 3.4-.5 1-.3 2-.8 2.9-1.4-.3.4-.5.8-.8 1.1s-.6.8-.9 1.2zm31.5-28.3c.6-1.6 1.9-2.9 3.5-3.5.9-.3 1.8-.5 2.8-.5.9 0 1.8.1 2.7.5 1.6.6 2.9 1.9 3.5 3.5.3.9.5 1.9.5 2.8s-.1 1.7-.5 2.6c-.3.8-.7 1.5-1.3 2.1s-1.4 1.1-2.2 1.4c-.9.4-1.9.5-2.9.5-1.8.1-3.5-.5-4.8-1.7-1.2-1.3-1.8-3.1-1.7-5 0-.9.1-1.8.4-2.7zm-2.3 28.3h5c.6 0 1.2-.1 1.7-.4.4-.2.8-.5 1.1-.9l8.6-12.3c.6-.9 1.2-1.8 1.7-2.7s.9-1.8 1.3-2.7.6-1.9.8-2.8c.2-1 .3-2.1.3-3.1 0-1.6-.3-3.3-.8-4.8-.5-1.4-1.3-2.7-2.4-3.8s-2.3-1.9-3.7-2.4c-3.2-1.2-6.7-1.2-9.9 0-1.4.6-2.7 1.4-3.9 2.5-1.1 1.1-1.9 2.3-2.5 3.7s-.9 3-.9 4.5.3 3.1.8 4.5c.5 1.2 1.3 2.4 2.3 3.3.9.9 2 1.6 3.2 2s2.5.7 3.8.7c1.2 0 2.3-.2 3.4-.5 1-.3 2-.8 2.9-1.4-.3.4-.5.8-.8 1.1s-.6.8-.9 1.2z"/></svg><svg fill="#e60077" height="132" viewBox="-10 -10 135.6 132" width="135.6" x="455.9"><path d="m13.9 4.7c-.3 0-.6.1-.8.3-.2.1-.4.4-.5.6l-3.2 9c-.2.4-.3.8-.4 1.3s-.3 1-.4 1.5c-.1-.5-.3-1-.4-1.5-.2-.5-.3-.9-.5-1.3l-3.3-9c0-.3-.2-.5-.4-.6-.3-.2-.5-.3-.8-.3h-3.2l6.8 16.8h3.5l6.8-16.8zm15.6 3v-3h-10.8v16.8h10.9v-3h-6.9v-4h5.3v-2.9h-5.3v-3.9zm14-3v9.8c0 .3 0 .6.1.9l-8-10.1-.3-.3c-.1 0-.2-.1-.3-.2-.1 0-.2-.1-.3-.1h-2.5v16.8h3.5v-9.8c0-.3 0-.6-.1-.9l8 10c.2.2.4.4.6.5s.5.2.8.1h2v-16.7zm21.6 5.1c-.4-1-1-1.9-1.8-2.7s-1.7-1.4-2.8-1.8-2.4-.7-3.6-.6h-6.6v16.8h6.7c1.2 0 2.4-.2 3.6-.6 1-.4 2-1 2.8-1.8s1.4-1.7 1.8-2.7c.7-2.1.7-4.5-.1-6.6zm-3.7 5.6c-.2.6-.5 1.2-.9 1.7s-.9.8-1.5 1.1-1.3.4-2 .4h-2.6v-10.9h2.6c.7 0 1.4.1 2 .4.6.2 1.1.6 1.5 1.1s.7 1.1.9 1.7c.4 1.5.4 3 0 4.5zm17.8-7.7v-3h-10.9v16.8h10.9v-3h-6.9v-4h5.3v-2.9h-5.3v-3.9zm-3.9-7.7h-.5c-.1 0-.2 0-.4.1-.1 0-.2.1-.3.2l-.3.3-2.2 3.1h3.3c.1 0 .2-.1.3-.1.1-.1.2-.1.3-.2l3.7-3.4zm23 7.7v-3h-10.9v16.8h10.9v-3h-6.9v-4h5.3v-2.9h-5.3v-3.9zm13.9-3v9.8c0 .3 0 .6.1.9l-8-10.1-.3-.3c-.1-.1-.2-.1-.3-.2-.1 0-.2-.1-.3-.1h-2.5v16.8h3.5v-9.8c0-.3 0-.6-.1-.9l8 10c.2.2.4.4.6.5s.5.2.8.1h2v-16.7z"/><path d="m16.7 45.6c-.1.1-.3.1-.4.2-.3.2-.5.5-.8.6-.3.2-.6.3-.9.4s-.7.2-1 .2c-.4 0-.8.1-1.2.1-.7 0-1.5-.1-2.1-.4-.7-.3-1.3-.7-1.8-1.3s-.9-1.3-1.2-2.1c-.3-.9-.5-1.9-.4-2.8 0-1 .1-1.9.4-2.8.2-.8.6-1.5 1.1-2.1s1.1-1 1.7-1.3c.7-.3 1.4-.5 2.2-.4.4 0 .9 0 1.3.1.3.1.7.2 1 .3s.5.2.7.4c.2.1.4.2.6.4.2.1.3.2.5.3s.3.1.5.1.4 0 .6-.2c.1-.1.3-.2.4-.4l1.6-2.2c-.4-.4-.9-.8-1.3-1.1-.5-.4-1.1-.6-1.7-.9s-1.3-.4-1.9-.6c-.7-.1-1.5-.2-2.2-.2-1.4 0-2.9.2-4.2.8-1.2.5-2.4 1.2-3.3 2.2s-1.7 2.1-2.1 3.4c-.5 1.4-.8 2.8-.8 4.3 0 1.4.2 2.9.7 4.2.4 1.2 1.1 2.4 2 3.4s2 1.7 3.2 2.2c1.4.6 2.8.8 4.3.8s3.1-.2 4.5-.8c1.2-.5 2.3-1.4 3.2-2.5l-1.9-2c-.1-.1-.2-.2-.3-.2-.5-.3-.8-.3-1-.1zm12.1 1.1c-.5-.2-.9-.5-1.3-.9s-.6-.9-.8-1.5-.3-1.3-.3-2v-12.2h-4.8v12.3c0 1.2.2 2.4.6 3.5.4 1 1 2 1.8 2.8s1.8 1.4 2.8 1.8c2.4.9 5.1.9 7.5 0 1.1-.4 2-1 2.8-1.8s1.4-1.7 1.8-2.8.6-2.3.6-3.5v-12.3h-4.8v12.3c0 .7-.1 1.3-.3 2-.2.5-.4 1-.8 1.5-.4.4-.8.7-1.3.9-1.2.3-2.4.3-3.5-.1zm34.2-10.4c-.5-1.3-1.2-2.4-2.2-3.4s-2.1-1.7-3.4-2.2c-1.4-.6-2.9-.8-4.4-.8s-3 .3-4.4.8c-1.3.5-2.5 1.3-3.4 2.2-1 1-1.7 2.1-2.2 3.4-1 2.7-1 5.7 0 8.4.5 1.3 1.3 2.4 2.2 3.4 1 1 2.1 1.7 3.4 2.2 2.9 1.1 6 1.1 8.9 0 2.6-1 4.6-3 5.6-5.6.9-2.8.9-5.7-.1-8.4zm-4.6 6.9c-.2.8-.6 1.5-1.2 2.1-.5.6-1.1 1-1.8 1.3-.8.3-1.6.5-2.5.4-.9 0-1.7-.1-2.5-.4-.7-.3-1.3-.7-1.8-1.3s-.9-1.3-1.2-2.1c-.5-1.8-.5-3.7 0-5.6.2-.8.6-1.5 1.2-2.1.5-.6 1.1-1 1.8-1.3.8-.3 1.6-.5 2.5-.5.8 0 1.7.1 2.5.5.7.3 1.3.7 1.8 1.3s.9 1.3 1.2 2.1c.5 1.9.5 3.8 0 5.6zm22.7-13.1h-16.6v3.8h5.9v17h4.8v-17h5.9zm5.7 12.8 1.9-5.7c.1-.4.3-.8.5-1.3s.3-1 .5-1.6c.2.6.3 1.1.5 1.6s.3.9.5 1.3l1.9 5.7zm5.3-12.8h-5l-8.1 20.8h3.8c.4 0 .7-.1 1-.3.2-.2.4-.4.6-.7l1.2-3.6h7.9l1.2 3.6c.1.3.3.6.6.7.3.2.7.3 1 .3h3.8zm22.5 1.9c-.4-.4-.8-.7-1.3-.9-.5-.3-1-.5-1.5-.7-.6-.2-1.1-.3-1.7-.4s-1.2-.2-1.9-.2c-1 0-2.1.2-3.1.5-.8.3-1.6.8-2.2 1.4s-1.1 1.2-1.4 2c-.3.7-.5 1.5-.5 2.3s.1 1.7.4 2.4c.2.6.6 1.2 1.1 1.7.4.4.9.8 1.5 1.1.5.3 1.1.5 1.7.7s1.1.4 1.7.5c.5.1 1 .3 1.5.5.4.2.8.4 1.1.8.3.3.4.8.4 1.2.1.7-.2 1.4-.7 1.8-.6.4-1.3.6-2 .6-.6 0-1.1-.1-1.7-.3-.4-.2-.9-.4-1.3-.6s-.7-.4-1-.6-.6-.3-.9-.3c-.2 0-.4.1-.6.2s-.3.2-.5.4l-1.4 2.3c.4.4.9.8 1.4 1.1l1.8.9c.6.2 1.3.4 2 .6.7.1 1.3.2 2 .2 1.1 0 2.2-.2 3.2-.5.9-.3 1.7-.8 2.4-1.5.6-.6 1.1-1.4 1.5-2.2.3-.9.5-1.8.5-2.7 0-.8-.1-1.5-.4-2.2-.2-.6-.6-1.1-1.1-1.6-.4-.4-.9-.8-1.5-1.1s-1.1-.5-1.7-.7-1.2-.4-1.7-.6c-.5-.1-1-.3-1.5-.5-.4-.2-.7-.4-1.1-.7-.3-.3-.4-.7-.4-1 0-.6.2-1.2.7-1.6.6-.4 1.3-.6 2-.6.5 0 .9.1 1.4.2.4.1.7.3 1.1.5.3.2.6.3.9.5.2.1.5.2.7.2s.4-.1.6-.2.3-.3.5-.5z"/></svg><svg fill="#fff" height="132" viewBox="-10 -10 135.6 132" width="135.6" x="455.9" y="132"><path d="m14.6 83.3c-.3-.8-.8-1.6-1.5-2.2s-1.4-1.1-2.3-1.5c-1-.4-2-.5-3-.5h-5.5v14h5.5c1 0 2-.2 3-.5.9-.3 1.6-.8 2.3-1.5.6-.6 1.1-1.4 1.5-2.2.7-1.8.7-3.8 0-5.6zm-3.1 4.7c-.2.5-.4 1-.8 1.4-.3.4-.8.7-1.2.9-.5.2-1.1.3-1.7.3h-2.2v-9h2.2c.6 0 1.1.1 1.7.3.5.2.9.5 1.2.9.4.4.6.9.8 1.4.4 1.2.4 2.6 0 3.8zm14.7-6.4v-2.5h-9.1v14h9.1v-2.5h-5.8v-3.3h4.4v-2.4h-4.4v-3.3zm15.7 7.9c-.1 0-.2.1-.3.2-.2.2-.4.3-.6.4l-.6.3c-.2.1-.5.1-.7.1h-.8c-.5 0-1-.1-1.5-.3s-.9-.5-1.2-.9c-.2-.3-.5-.8-.7-1.3-.2-.6-.3-1.3-.3-1.9s.1-1.3.3-1.9c.2-.5.4-1 .8-1.4.3-.4.7-.7 1.2-.9s1-.3 1.5-.3c.3 0 .6 0 .9.1.2 0 .5.1.7.2s.3.1.5.2c.1.1.3.2.4.2.1.1.2.1.3.2s.2.1.3.1.3 0 .4-.1.2-.2.3-.2l1.1-1.5c-.3-.3-.6-.5-.9-.8-.4-.2-.7-.4-1.1-.6s-.9-.3-1.3-.4c-.5-.1-1-.1-1.5-.1-1 0-1.9.2-2.9.5-.8.3-1.6.8-2.2 1.5s-1.1 1.4-1.4 2.3c-.4.9-.5 1.9-.5 2.9s.2 1.9.5 2.9c.3.8.8 1.6 1.4 2.3.6.6 1.3 1.2 2.2 1.5.9.4 1.9.6 2.9.5 1 0 2.1-.2 3-.6.8-.4 1.6-.9 2.1-1.7l-1.3-1.4c-.1-.1-.1-.1-.2-.1zm6.7-3.8v-4.2h1.3c.7-.1 1.3.1 1.9.5.4.4.6.9.6 1.4 0 .3 0 .6-.1.9s-.2.5-.4.7-.5.4-.8.5c-.4.1-.8.2-1.1.2zm5.3 2.5c-.1-.2-.3-.4-.5-.6s-.4-.3-.6-.4c.4-.2.8-.4 1.2-.7l.9-.9c.2-.3.4-.7.5-1.1s.2-.9.2-1.3c0-.6-.1-1.1-.3-1.7-.2-.5-.6-1-1-1.3-.5-.4-1.1-.7-1.8-.9-.9-.2-1.7-.3-2.6-.3h-4.6v14h3.3v-5.2h.8c.2 0 .4 0 .6.1s.3.2.4.4l2.3 4.1c.2.4.7.7 1.2.6h3zm13.3-6.6v-2.5h-9.1v14h9.1v-2.5h-5.8v-3.3h4.4v-2.4h-4.4v-3.3zm-3.3-6.5h-.4c-.1 0-.2 0-.3.1-.1 0-.2.1-.2.1l-.2.2-1.8 2.6h2.7c.1 0 .2 0 .2-.1.1 0 .2-.1.2-.2l3.1-2.7zm17.6 8.2c-.3-.8-.8-1.6-1.5-2.2s-1.4-1.1-2.3-1.5c-1-.4-2-.5-3-.5h-5.5v14h5.5c1 0 2-.2 3-.5.9-.3 1.6-.8 2.3-1.5.6-.6 1.1-1.4 1.5-2.2.7-1.8.7-3.8 0-5.6zm-3.1 4.7c-.2.5-.4 1-.8 1.4-.3.4-.8.7-1.2.9-.5.2-1.1.3-1.7.3h-2.2v-9h2.2c.6 0 1.1.1 1.7.3.5.2.9.5 1.2.9.4.4.6.9.8 1.4.3 1.2.3 2.6 0 3.8zm8.8-8.9h-3.3v14h3.3zm12.9 0h-11.2v2.6h4v11.5h3.3v-11.5h4zm14.6 4.2c-.3-.9-.8-1.6-1.5-2.3s-1.4-1.2-2.3-1.5c-1-.4-2-.6-3-.6s-2 .2-3 .6c-.9.3-1.7.9-2.3 1.5s-1.2 1.4-1.5 2.3c-.7 1.8-.7 3.8 0 5.7.7 1.7 2.1 3.1 3.8 3.8 1.9.7 4.1.7 6 0 1.7-.7 3.1-2.1 3.8-3.8.7-1.9.7-3.9 0-5.7zm-3.1 4.7c-.2.5-.4 1-.8 1.4-.3.4-.8.7-1.2.9-.5.2-1.1.3-1.7.3s-1.2-.1-1.7-.3-.9-.5-1.2-.9c-.4-.4-.6-.9-.8-1.4-.4-1.2-.4-2.5 0-3.8.2-.5.4-1 .8-1.4.3-.4.8-.7 1.2-.9.5-.2 1.1-.3 1.7-.3s1.1.1 1.7.3c.5.2.9.5 1.2.9.4.4.6.9.8 1.4.4 1.2.4 2.5 0 3.8z"/><path d="m13.6 103.8c-.3-.7-.7-1.3-1.2-1.9-.5-.5-1.2-1-1.9-1.2-.8-.3-1.6-.5-2.4-.5s-1.7.1-2.4.4-1.3.7-1.9 1.2c-.5.5-.9 1.2-1.2 1.9-.6 1.5-.6 3.1 0 4.6.3.7.7 1.3 1.2 1.9.5.5 1.2 1 1.9 1.2 1.6.6 3.3.6 4.9 0 1.4-.6 2.5-1.7 3.1-3.1.5-1.3.5-3-.1-4.5zm-2.5 3.9c-.1.4-.3.8-.6 1.2-.3.3-.6.6-1 .7-.4.2-.9.3-1.4.2-.5 0-.9-.1-1.4-.2-.4-.2-.7-.4-1-.7s-.5-.7-.6-1.2c-.3-1-.3-2.1 0-3.1.1-.4.3-.8.6-1.1s.6-.6 1-.7c.4-.2.9-.3 1.4-.3s.9.1 1.4.3c.4.2.7.4 1 .7s.5.7.6 1.1c.3 1 .3 2.1 0 3.1zm15.7 1.2c-.1 0-.1.1-.2.1-.1.1-.3.2-.5.3s-.3.2-.5.2c-.2.1-.4.1-.6.1h-.7c-.4 0-.8-.1-1.2-.2-.4-.2-.7-.4-1-.7s-.5-.7-.7-1.1c-.2-.5-.2-1-.2-1.6 0-.5.1-1 .2-1.6.1-.4.3-.8.6-1.1s.6-.5.9-.7c.4-.2.8-.2 1.2-.2.2 0 .5 0 .7.1.2 0 .4.1.5.2s.3.1.4.2l.3.2c.1.1.2.1.3.2.1 0 .2.1.3.1s.2 0 .3-.1l.2-.2.9-1.2c-.2-.2-.5-.4-.7-.6-.3-.2-.6-.4-.9-.5s-.7-.2-1.1-.3-.8-.1-1.2-.1c-.8 0-1.6.1-2.3.4s-1.3.7-1.8 1.2-.9 1.2-1.2 1.9c-.3.8-.4 1.5-.4 2.4 0 .8.1 1.6.4 2.3.2.7.6 1.3 1.1 1.9.5.5 1.1.9 1.8 1.2s1.5.5 2.3.4c.8 0 1.7-.1 2.5-.5.7-.3 1.3-.8 1.7-1.4l-1.1-1.1c-.1-.1-.1-.1-.2-.1h-.2c.2-.1.2-.1.1-.1zm13.4-5.1c-.3-.7-.7-1.3-1.2-1.9-.5-.5-1.2-1-1.9-1.2-.8-.3-1.6-.5-2.4-.5s-1.7.1-2.4.4-1.3.7-1.9 1.2c-.5.5-.9 1.2-1.2 1.9-.6 1.5-.6 3.1 0 4.6.3.7.7 1.3 1.2 1.9.5.5 1.2 1 1.9 1.2 1.6.6 3.3.6 4.9 0 1.4-.6 2.5-1.7 3.1-3.1.5-1.4.5-3-.1-4.5zm-2.5 3.9c-.1.4-.3.8-.6 1.2-.3.3-.6.6-1 .7-.4.2-.9.3-1.4.2-.5 0-.9-.1-1.4-.2-.4-.2-.7-.4-1-.7s-.5-.7-.6-1.2c-.3-1-.3-2.1 0-3.1.1-.4.3-.8.6-1.1s.6-.6 1-.7c.4-.2.9-.3 1.4-.3s.9.1 1.4.3c.4.2.7.4 1 .7s.5.7.6 1.1c.3 1 .2 2.1 0 3.1zm12.2-7.3v6.7c0 .2 0 .4.1.6l-5.5-6.9-.2-.2c-.1 0-.1-.1-.2-.1s-.1 0-.2-.1h-1.7v11.4h2.4v-7.2l5.4 6.8c.1.1.3.3.4.3.2.1.3.1.5.1h1.4v-11.4zm18.2 3.4c-.3-.7-.7-1.3-1.2-1.8s-1.2-.9-1.9-1.2c-.8-.3-1.6-.4-2.4-.4h-4.5v11.4h4.5c.8 0 1.7-.1 2.4-.4s1.3-.7 1.9-1.2c.5-.5.9-1.1 1.2-1.8.6-1.5.6-3.1 0-4.6zm-2.5 3.9c-.1.4-.3.8-.6 1.2-.3.3-.6.6-1 .7-.4.2-.9.3-1.4.3h-1.8v-7.4h1.8c.5 0 .9.1 1.4.3.4.2.7.4 1 .7s.5.7.6 1.2c.3.9.3 2 0 3zm11.9-5.3v-2h-7.4v11.4h7.4v-2h-4.7v-2.7h3.6v-2h-3.6v-2.7zm-2.7-5.2h-.5c-.1 0-.1.1-.2.1l-.2.2-1.5 2.1h2.2c.1 0 .1 0 .2-.1.1 0 .1-.1.2-.1l2.5-2.2zm7 12.6v-2.8h1.9c.3 0 .6 0 .8.1.2 0 .4.1.5.3.1.1.2.3.3.4.1.2.1.4.1.6s0 .4-.1.5c0 .2-.1.3-.3.5-.1.2-.3.3-.5.3-.3.1-.6.1-.9.1zm1.6-7.4c.3 0 .5 0 .8.1.2 0 .4.1.5.2s.3.3.3.4c.1.2.1.4.1.7 0 .2 0 .5-.1.7s-.2.3-.4.4-.4.2-.6.2c-.3 0-.5.1-.8.1h-1.4v-2.8zm-4.3-2v11.4h4.6c.6 0 1.2-.1 1.8-.3.5-.2 1-.4 1.4-.7s.6-.7.8-1.1.3-.9.3-1.4c0-.6-.2-1.1-.5-1.6-.5-.5-1-.8-1.7-.9.3-.1.6-.3.9-.4.2-.2.4-.3.6-.6.2-.2.3-.4.3-.7.1-.2.1-.5.1-.7 0-.4-.1-.9-.2-1.3-.2-.4-.4-.7-.8-1s-.9-.5-1.4-.6c-.7-.2-1.3-.2-2-.2zm13.3 0h-2.7v11.4h2.7zm10.5 0h-9.1v2.1h3.2v9.3h2.7v-9.3h3.2zm11.9 3.4c-.3-.7-.7-1.3-1.2-1.9-.5-.5-1.2-1-1.9-1.2-.8-.3-1.6-.5-2.4-.5s-1.7.1-2.4.4-1.3.7-1.9 1.2c-.5.5-.9 1.2-1.2 1.9-.6 1.5-.6 3.1 0 4.6.3.7.7 1.3 1.2 1.9.5.5 1.2 1 1.9 1.2 1.6.6 3.3.6 4.9 0 1.4-.6 2.5-1.7 3.1-3.1.5-1.3.5-3-.1-4.5zm-2.5 3.9c-.1.4-.3.8-.6 1.2-.3.3-.6.6-1 .7-.4.2-.9.3-1.4.2-.5 0-.9-.1-1.4-.2-.4-.2-.7-.4-1-.7s-.5-.7-.6-1.2c-.3-1-.3-2.1 0-3.1.1-.4.3-.8.6-1.1s.6-.6 1-.7c.4-.2.9-.3 1.4-.3s.9.1 1.4.3c.4.2.7.4 1 .7s.5.7.6 1.1c.3 1 .3 2.1 0 3.1z"/><path d="m10.8 67.9c-.1 0-.1.1-.1.1-.2.2-.4.3-.6.5-.2.1-.4.2-.7.3s-.5.2-.8.2h-.9c-.6 0-1.1-.1-1.6-.3s-.9-.5-1.3-.9-.7-.9-.9-1.5-.3-1.3-.3-2 .1-1.3.3-2c.2-.5.5-1 .8-1.5.4-.2.8-.5 1.3-.8.5-.2 1.1-.3 1.7-.3.4 0 .9 0 1.3.2.3.1.6.2.9.4.2.1.4.2.6.4.1.1.2.1.4.2.1 0 .2 0 .2-.1.1 0 .1-.1.1-.2l.6-.8c-.5-.5-1.1-.9-1.8-1.1-.7-.3-1.5-.4-2.3-.4s-1.7.1-2.4.5c-.7.3-1.4.7-1.9 1.3s-1 1.2-1.2 2c-.3.8-.4 1.6-.4 2.5s.1 1.7.4 2.5c.3.7.7 1.4 1.2 2s1.1 1 1.8 1.3c.8.3 1.6.5 2.4.5.9 0 1.8-.1 2.6-.5.7-.3 1.3-.8 1.8-1.4l-.7-.8c-.1-.1-.2-.1-.3-.1-.1-.3-.1-.3-.2-.2zm14-6c-.3-.7-.7-1.4-1.2-2s-1.2-1-1.9-1.3c-1.6-.6-3.3-.6-4.9 0-.7.3-1.4.7-1.9 1.3s-1 1.2-1.2 2c-.6 1.6-.6 3.4 0 5 .3.7.7 1.4 1.2 2s1.2 1 1.9 1.3c1.6.6 3.3.6 4.9 0 .7-.3 1.4-.7 1.9-1.3s1-1.2 1.2-2c.6-1.6.6-3.4 0-5zm-1.7 4.4c-.2.5-.5 1-.8 1.5-.4.4-.8.7-1.3.9-1.1.4-2.3.4-3.5 0-.5-.2-1-.5-1.3-.9-.4-.4-.7-.9-.8-1.5-.4-1.3-.4-2.6 0-3.9.2-.5.5-1 .8-1.5.4-.4.8-.7 1.3-.9 1.1-.4 2.3-.4 3.5 0 .5.2 1 .5 1.3.9.4.4.7.9.8 1.5.4 1.3.4 2.6 0 3.9zm13.1-8v9.2l-6.9-8.9c-.1-.1-.2-.2-.3-.2s-.2-.1-.4-.1h-.9v12.1h1.6v-9.1l6.9 8.9c.1.1.2.2.3.2.1.1.2.1.4.1h.9v-12.2zm17.3 0h-9.5v1.5h3.9v10.6h1.8v-10.6h3.9zm3 7.6 1.8-4.7c.1-.2.1-.3.2-.6s.1-.4.2-.7c.1.4.2.8.4 1.2l1.8 4.7zm3.1-7.6h-1.8l-4.8 12.1h1.4c.1 0 .3 0 .4-.1s.2-.2.2-.3l1.1-2.8h5.4l1.1 2.8c0 .1.1.2.2.3s.3.1.4.1h1.4zm8.5 5.8v-4.4h1.7c.7-.1 1.5.1 2.1.5.5.4.7 1 .7 1.6 0 .3-.1.6-.2.9s-.3.5-.5.7c-.3.2-.6.4-.9.5-.4.1-.8.2-1.2.2zm3.9 1.6-.6-.6c.4-.1.8-.3 1.2-.5.3-.2.7-.5.9-.8.3-.3.4-.6.6-1 .1-.4.2-.8.2-1.2 0-.5-.1-1-.3-1.4s-.5-.8-.8-1.1c-.4-.3-.9-.6-1.4-.7-.7-.2-1.3-.3-2-.2h-3.5v12.1h1.8v-5h1.2c.2 0 .3 0 .5.1l.3.3 3 4.2c.1.2.4.4.7.4h1.6zm9.7-7.4h-1.8v7.9c0 .4 0 .9-.1 1.3-.1.3-.2.6-.4.9-.2.2-.4.4-.7.5s-.6.2-1 .2c-.2 0-.4 0-.7-.1-.1 0-.3-.1-.4-.1-.2 0-.4.1-.4.3l-.2 1.1c.6.2 1.2.2 1.7.2.6 0 1.1-.1 1.7-.3.5-.2.9-.5 1.2-.9s.6-.9.7-1.4c.2-.6.3-1.2.3-1.8zm5 10.7v-4h4.6v-1.4h-4.6v-3.8h5.7v-1.5h-7.5v12.1h7.5v-1.5zm16.6-10.7h-9.5v1.5h3.9v10.6h1.8v-10.6h3.9zm3 7.6 1.8-4.7c.1-.2.1-.3.2-.6s.1-.4.2-.7c.1.4.2.8.4 1.2l1.8 4.7zm3.1-7.6h-1.8l-4.8 12.1h1.4c.1 0 .3 0 .4-.1s.2-.2.2-.3l1.1-2.8h5.4l1.1 2.8c0 .1.1.2.2.3s.3.1.4.1h1.4z"/></svg></svg>