<svg color-rendering="optimizeSpeed" shape-rendering="optimizeSpeed" viewBox="0 0 1280 720" xmlns="http://www.w3.org/2000/svg"><rect height="100%" opacity="0" width="100%"/><circle cx="557.352934" cy="216.218329" fill="#d4cd7b"/><circle cx="456.929418" cy="367.670486" fill="#ea6153"/><circle cx="555.049918" cy="445.284654" fill="#588790"/><circle cx="669.882915" cy="400.753164" fill="#b88faa"/><circle cx="784.632629" cy="458.663234" fill="#91c46e"/><circle cx="823.910763" cy="347.247442" fill="#90836d"/><g fill="#d4cd7b"><circle cx="651.604143" cy="226.967608" r="12.717949"/><circle cx="597.591943" cy="225.751397" r="12"/><circle cx="632.882897" cy="174.477235" r="13.435897"/><circle cx="576.937293" cy="175.919321" r="12.717949"/><circle cx="554.212012" cy="257.717617" r="12"/><circle cx="529.779841" cy="109.210015" r="49.282051"/></g><circle cx="511.76849" cy="326.660265" fill="#ea6153" r="49.282051"/><circle cx="621.356764" cy="302.2259" fill="#588790" r="49.282051"/><circle cx="732.584116" cy="224.863587" fill="#b88faa" r="49.282051"/><circle cx="444.928774" cy="281.390203" fill="#ea6153" r="12"/><circle cx="589.142134" cy="421.739853" fill="#588790" r="12"/><circle cx="729.161649" cy="350.065888" fill="#b88faa" r="12"/><circle cx="431.367935" cy="334.560254" fill="#ea6153" r="12"/><circle cx="578.203345" cy="369.775217" fill="#588790" r="12"/><circle cx="702.112978" cy="303.739963" fill="#b88faa" r="12"/><circle cx="497.974619" cy="243.314613" fill="#d4cd7b" r="16.307692"/><circle cx="507.712295" cy="452.366664" fill="#ea6153" r="12.717949"/><circle cx="652.501549" cy="491.143626" fill="#588790" r="12.717949"/><circle cx="712.374087" cy="401.814964" fill="#b88faa" r="12.717949"/><circle cx="480.787438" cy="403.407989" fill="#ea6153" r="13.435897"/><circle cx="536.959244" cy="405.300576" fill="#588790" r="13.435897"/><circle cx="629.872279" cy="384.000784" fill="#b88faa" r="13.435897"/><circle cx="756.61493" cy="303.06214" fill="#90836d" r="12.717949"/><circle cx="600.9286" cy="474.106862" fill="#588790" r="12"/><circle cx="677.934412" cy="359.566595" fill="#b88faa" r="12"/><circle cx="766.79207" cy="404.089314" fill="#91c46e" r="12"/><circle cx="743.488533" cy="452.796954" fill="#91c46e" r="12.717949"/><circle cx="782.034837" cy="352.07058" fill="#90836d" r="12.717949"/><circle cx="549.341874" cy="486.743696" fill="#588790" r="12"/><circle cx="690.590155" cy="451.544921" fill="#b88faa" r="12"/><circle cx="824.306869" cy="447.445867" fill="#91c46e" r="12"/><circle cx="808.412877" cy="252.283971" fill="#90836d" r="12"/><circle cx="420.851411" cy="397.300481" fill="#ea6153" r="17.025641"/><circle cx="586.844706" cy="526.450468" fill="#588790" r="12.717949"/><circle cx="640.065991" cy="437.540697" fill="#b88faa" r="12.717949"/><circle cx="773.1861" cy="502.566207" fill="#91c46e" r="15.589744"/><circle cx="811.831902" cy="306.393145" fill="#90836d" r="12.717949"/><circle cx="511.3117" cy="558.10966" fill="#588790" r="49.282051"/><circle cx="654.126414" cy="573.001254" fill="#b88faa" r="49.282051"/><circle cx="821.424567" cy="391.859444" fill="#90836d" r="14.153846"/><circle cx="523.674405" cy="190.673224" fill="#d4cd7b" r="12.717949"/><circle cx="433.009961" cy="481.203633" fill="#ea6153" r="37.846154"/><circle cx="854.765963" cy="521.762905" fill="#91c46e" r="38.564103"/><circle cx="886.684781" cy="273.664432" fill="#90836d" r="49.282051"/><circle cx="447.345096" cy="181.245864" fill="#d4cd7b" r="34.25641"/><circle cx="867.715772" cy="355.50063" fill="#90836d" r="14.871795"/><circle cx="748.377658" cy="568.510156" fill="#91c46e" r="24.923077"/><circle cx="879.10449" cy="419.154445" fill="#90836d" r="19.897436"/><circle cx="710.448119" cy="506.98723" fill="#b88faa" r="17.74359"/></svg>