<svg xmlns="http://www.w3.org/2000/svg" viewBox="0 0 1081.6 75.2">
  <title>logo_splash</title>

  <path id="rga" d="M261.5,16.9h0.2L269.6,40H253.3ZM254.6,1.4l-23.9,63h14l4.9-14h23.6l4.8,14h14.4l-23.6-63H254.6ZM216.2,57.2a21.37,21.37,0,0,1-17.4,8.6c-19.6,0-31.2-14.5-31.2-32.6C167.6,14.6,179.2,0,198.8,0c13,0,25.2,7.9,26.7,22.2H212.1a13.1,13.1,0,0,0-13.5-10.6c-12.5,0-17.2,10.6-17.2,21.6,0,10.5,4.7,21,17.2,21,9.1,0,14.3-4.8,15.1-13.5h-14V30.4h26.8v34h-8.9ZM164.5,0l-27,65.8h4.8L168.9,0h-4.4ZM92.1,29.9H107c6.1,0,9.3-2.6,9.3-9s-3.3-8.7-9.3-8.7H92.1V29.9h0ZM78.4,1.4h33.5c11.2,0,18.2,7.8,18.2,17.4,0,7.4-3,13-9.8,15.8v0.2c6.7,1.9,8.6,8.4,9,14.7,0.3,4,.2,11.4,2.6,14.9H118.2c-1.6-4-1.5-10.1-2.2-15.1-1-6.5-3.5-9.6-10.4-9.6H92V64.4H78.3V1.4h0.1Z" />
  <path id="atBA" d="M978.4,47.1c0-3.6,2.8-8,6.8-8a4.35,4.35,0,0,1,4.2,4.5v0.1c0,3.8-2.8,8.2-6.7,8.2C980.1,51.9,978.4,49.9,978.4,47.1Zm18.1-12.4H992l-0.9,2.9a6.72,6.72,0,0,0-6.4-3.8c-7.2,0-11.9,7-11.9,13.9,0,5.1,3.9,9.3,8.6,9.3a6.57,6.57,0,0,0,5.9-3.2h0.1c0.1,1.8,1.7,3.1,4,3.1,3.5,0,12.8-4.6,12.8-15.8,0-10-9.1-16.6-19-16.6a20.44,20.44,0,0,0-20.7,20.2v0.2c0,11.7,9.4,20.4,21,20.4a19.65,19.65,0,0,0,16.7-8.8h-4.6A16.55,16.55,0,0,1,985.9,61c-9.4,0-16.1-6.4-16.1-15.9,0-9.2,6.1-16.2,15.4-16.2,8.3,0,14.8,4.7,14.8,13.4,0,5.8-3.3,10-6.4,10-1.4,0-.9-2.1-0.5-3.6Zm21.4,12.4h9.3c3.7,0,6.2,1.6,6.2,5.6s-2.9,5.1-6.3,5.1h-9.2V47.1h0Zm-8.5,17.4h18.9c7,0,13.8-3.4,13.8-11.3,0-4.9-2.4-8.5-7.2-9.9a8.57,8.57,0,0,0,5.3-8.1c0-7.3-5-9.7-12.4-9.7h-18.3l-0.1,39h0Zm8.5-32.3h8c3.1,0,5.9.8,5.9,4.5,0,3.3-2.2,4.6-5.2,4.6h-8.7V32.2h0Zm25.2,32.3h8.7l3.1-8.7h14.6l2.9,8.7h8.9l-14.6-39h-8.8Zm19.1-29.4h0l5,14.3h-10.1Z" style="fill:#2f282b" />
  <path id="title" d="M486.3,64.5h16.8c11.9,0,17.7-8.4,17.7-19.7,0-12.9-7.6-19.3-17.7-19.3H486.3v39h0Zm8.5-31.8h6.1c8.5,0,11.2,5,11.2,12.9,0,8.6-4.8,11.7-9.7,11.7h-7.6V32.7h0Zm30.8,31.8h7.8V36.2h-7.8V64.5Zm7.7-39h-7.8v6.4h7.8V25.5h0ZM566,36.2h-7.4V40h-0.1c-1.9-3.3-4.7-4.5-8.4-4.5-7.9,0-12.1,6.7-12.1,14,0,7.7,3.6,14.2,12.1,14.2,3.4,0,6.8-1.4,8.5-4.4h0.1V63c0.1,4-1.9,7-6.2,7-2.7,0-5.1-1-5.8-3.9H539c0.4,6.4,6.9,9.1,12.4,9.1,13,0,14.6-7.9,14.6-12.5V36.2h0ZM552,57.8c-4.8,0-6.3-4.4-6.3-8.5s1.9-8,6.3-8c5,0,6.6,4.1,6.6,8.7C558.6,54,556.5,57.8,552,57.8Zm19.9,6.7h7.8V36.2h-7.8V64.5h0Zm7.7-39h-7.8v6.4h7.8V25.5h0ZM595,27.8h-7.8v8.5h-4.7v5.2h4.7V58.1c0,5.6,4.1,6.7,8.9,6.7a34,34,0,0,0,4.5-.3V58.4a9.74,9.74,0,0,1-2.4.2c-2.6,0-3.3-.7-3.3-3.3v-14h5.7V36.1H595V27.8h0Zm26.4,25.7c0,1.7-.2,6.5-6.3,6.5-2.5,0-4.8-.7-4.8-3.6s2.2-3.7,4.6-4.1,5.1-.5,6.4-1.6v2.8h0.1Zm-10.1-8.6c0.3-3.1,2.2-4.3,5.1-4.3,2.7,0,5,.5,5,3.8s-4.4,3-9.2,3.7-9.6,2.2-9.6,8.6c0,5.8,4.3,8.5,9.6,8.5,3.4,0,7-.9,9.5-3.5a25.57,25.57,0,0,0,.5,2.7h7.9c-0.7-1.1-1-3.7-1-6.3V43.5c0-6.8-6.8-8-12.4-8-6.3,0-12.8,2.2-13.3,9.4h7.9Zm23.6,19.6h7.8v-39h-7.8v39h0Zm24.6,0h8.7l3.1-8.7h14.6l2.9,8.7h8.9l-14.6-39h-8.8Zm19-29.4h0.1l4.9,14.3H673.4Zm41.3,29.4h7.4v-39h-7.8V39.7h-0.1a9.85,9.85,0,0,0-8.4-4.2c-8.3,0-12.5,7-12.5,14.6,0,7.8,4.1,15.1,12.7,15.1,3.6,0,6.8-1.3,8.6-4.4h0.1v3.7h0Zm-0.1-14.2c0,4.6-1.5,9.1-6.7,9.1-4.8,0-6.8-4.6-6.8-9.1s1.7-9,6.8-9,6.7,4.4,6.7,9h0Zm37.9-14.1h-7.7l-6,19.3h-0.1l-6-19.3h-8.1l9.7,28.2H748Zm29.4,16c0.5-8.7-4.1-16.8-13.7-16.8-8.6,0-14.4,6.4-14.4,14.9,0,8.7,5.5,14.8,14.4,14.8,6.4,0,11-2.8,13.2-9.5h-6.8c-0.5,1.7-3,3.7-6.1,3.7-4.3,0-6.7-2.2-6.9-7.1H787Zm-20.4-4.9a6.06,6.06,0,0,1,6.2-6H773c3.8,0,5.5,2.1,6.2,6H766.6ZM791,64.5h7.8V51.7c0-5,2-9.1,7.6-9.1a13.33,13.33,0,0,1,2.8.3V35.7a4.67,4.67,0,0,0-1.7-.3,10.1,10.1,0,0,0-9,6h-0.1V36.2H791V64.5h0Zm30.5-36.7h-7.8v8.5H809v5.2h4.7V58.1c0,5.6,4.2,6.7,8.9,6.7a34,34,0,0,0,4.5-.3V58.4a9.74,9.74,0,0,1-2.4.2c-2.6,0-3.3-.7-3.3-3.3v-14h5.7V36.1h-5.7l0.1-8.3h0Zm9.1,36.7h7.8V36.2h-7.8V64.5h0Zm7.7-39h-7.8v6.4h7.8V25.5Zm4.2,29.8c0.3,7.5,6.7,9.9,13.3,9.9,6.4,0,12.9-2.4,12.9-9.8,0-5.2-4.4-6.9-9-7.9-4.4-1-8.8-1.4-8.8-4.2,0-2.3,2.6-2.6,4.3-2.6,2.8,0,5.1.8,5.3,3.8h7.4c-0.6-6.9-6.3-9-12.4-9s-12.3,1.9-12.3,9.1c0,5,4.5,6.5,9,7.5,5.6,1.2,8.8,2,8.8,4.4,0,2.7-2.8,3.6-5.1,3.6-3.1,0-5.9-1.4-6-4.7l-7.4-.1h0Zm30.4,9.2h7.8V36.2h-7.8V64.5h0Zm7.7-39h-7.8v6.4h7.8V25.5h0Zm5.6,39H894V49.7c0-5.7,1.8-8.1,6-8.1,3.6,0,5,2.3,5,6.9V64.4h7.8V47.1c0-7-2.1-11.6-10.3-11.6a9.93,9.93,0,0,0-8.6,4.7h-0.2V36.3h-7.4l-0.1,28.2h0Zm58.9-28.2h-7.4V40h-0.1c-1.9-3.3-4.7-4.5-8.4-4.5-7.9,0-12.1,6.7-12.1,14,0,7.7,3.6,14.2,12.1,14.2,3.4,0,6.8-1.4,8.5-4.4h0.1V63c0.1,4-1.9,7-6.2,7-2.7,0-5.1-1-5.8-3.9h-7.7c0.4,6.4,6.9,9.1,12.5,9.1,13,0,14.6-7.9,14.6-12.5V36.3h-0.1ZM931.2,57.8c-4.8,0-6.3-4.4-6.3-8.5s1.9-8,6.3-8c5,0,6.6,4.1,6.6,8.7C937.8,54,935.6,57.8,931.2,57.8Z" style="fill:#8a8a8a" />

      <rect x="0" y="0" width="64" height="75.2" style="fill:#FFF">
      <animate attributeType="XML" attributeName="width" from="1081" to="67" dur="1.25s" repeatCount="0" calcMode="spline" keySplines="0.5 0.9 0.3 1" values="1081;67"/>
      </rect>
      <rect x="0" y="1" width="64" height="64" style="fill:#d40029" >
        <animate attributeType="XML" attributeName="x" from="1081" to="0" dur="1.25s" repeatCount="0" calcMode="spline" keySplines="0.5 0.9 0.3 1" values="1081;0"/>
      </rect>


</svg>