<svg viewBox="0 0 157.37 35.38" xmlns="http://www.w3.org/2000/svg"><g fill="#fff"><path d="m140.78 9.1h.1l4.27 12.44h-8.79zm-3.72-8.36-12.86 33.9h7.54l2.65-7.55h12.67l2.57 7.55h7.74l-12.67-33.9zm-20.64 30a11.59 11.59 0 0 1 -9.37 4.64c-10.56 0-16.77-7.81-16.77-17.55.01-10.02 6.22-17.83 16.78-17.83 7 0 13.57 4.26 14.38 11.92h-7.19a7 7 0 0 0 -7.25-5.68c-6.74 0-9.27 5.68-9.27 11.59 0 5.63 2.54 11.31 9.27 11.31 4.87 0 7.7-2.6 8.11-7.28h-7.53v-5.54h14.42v18.26h-4.8zm-27.8-30.74-14.54 35.38h2.58l14.34-35.38zm-38.92 16.08h8c3.27 0 5-1.42 5-4.84s-1.78-4.7-5-4.7h-8v9.55zm-7.34-15.34h18c6 0 9.77 4.22 9.77 9.35 0 4-1.59 7-5.28 8.5v.1c3.6 1 4.63 4.51 4.86 7.93.14 2.14.1 6.13 1.4 8h-7.36c-.88-2.14-.8-5.41-1.16-8.11-.52-3.51-1.88-5.14-5.59-5.14h-7.35v13.27h-7.37v-33.9z"/><path d="m0 35.38h34.64v-35.38h-34.64z"/></g></svg>