<svg height="140" viewBox="0 0 211 140" width="211" xmlns="http://www.w3.org/2000/svg"><svg height="29.8" viewBox="-1 -1 45.5 29.8" width="45.5" y="109.5"><path d="m41.3 27h-39.1c-.8 0-1.4-.6-1.4-1.4v-23.4c0-.8.6-1.4 1.4-1.4h39.1c.8 0 1.4.6 1.4 1.4v23.5c0 .7-.6 1.3-1.4 1.3z" fill="#ec008c" stroke="#343b3b" stroke-miterlimit="10" stroke-width="1.5"/><path d="m10.5 16h-4.6c-.5 0-.9-.4-.9-.9v-2.3c0-.5.4-.9.9-.9h4.7c.5 0 .9.4.9.9v2.3c-.1.5-.5.9-1 .9z" fill="#fffac0"/><path d="m38.3 23.3h-6.5c-.5 0-.9-.4-.9-.9v-3.5c0-.5.4-.9.9-.9h6.5c.5 0 .9.4.9.9v3.5c0 .5-.4.9-.9.9z" fill="#e6e7e8" stroke-width="1.5"/></svg><svg height="29.8" viewBox="-1 -1 45.5 29.8" width="45.5" x="45.5" y="109.5"><path d="m41.3 27h-39.1c-.8 0-1.4-.6-1.4-1.4v-23.4c0-.8.6-1.4 1.4-1.4h39.1c.8 0 1.4.6 1.4 1.4v23.5c0 .7-.6 1.3-1.4 1.3z" fill="#fff" stroke="#343b3b" stroke-miterlimit="10" stroke-width="1.5"/><path d="m10.5 16h-4.6c-.5 0-.9-.4-.9-.9v-2.3c0-.5.4-.9.9-.9h4.7c.5 0 .9.4.9.9v2.3c-.1.5-.5.9-1 .9z" fill="#fffac0"/><path d="m38.3 23.3h-6.5c-.5 0-.9-.4-.9-.9v-3.5c0-.5.4-.9.9-.9h6.5c.5 0 .9.4.9.9v3.5c0 .5-.4.9-.9.9z" fill="#e6e7e8" stroke-width="1.5"/></svg><svg height="29.8" viewBox="-1 -1 45.5 29.8" width="45.5" x="91" y="109.5"><path d="m41.3 27h-39.1c-.8 0-1.4-.6-1.4-1.4v-23.4c0-.8.6-1.4 1.4-1.4h39.1c.8 0 1.4.6 1.4 1.4v23.5c0 .7-.6 1.3-1.4 1.3z" fill="#67686c" stroke="#343b3b" stroke-miterlimit="10" stroke-width="1.5"/><path d="m10.5 16h-4.6c-.5 0-.9-.4-.9-.9v-2.3c0-.5.4-.9.9-.9h4.7c.5 0 .9.4.9.9v2.3c-.1.5-.5.9-1 .9z" fill="#fffac0"/><path d="m38.3 23.3h-6.5c-.5 0-.9-.4-.9-.9v-3.5c0-.5.4-.9.9-.9h6.5c.5 0 .9.4.9.9v3.5c0 .5-.4.9-.9.9z" fill="#e6e7e8" stroke-width="1.5"/></svg><svg height="29.8" viewBox="-1 -1 45.5 29.8" width="45.5" x="165.2"><path d="m41.3 27h-39.1c-.8 0-1.4-.6-1.4-1.4v-23.4c0-.8.6-1.4 1.4-1.4h39.1c.8 0 1.4.6 1.4 1.4v23.5c0 .7-.6 1.3-1.4 1.3z" fill="#fff" stroke="#343b3b" stroke-miterlimit="10" stroke-width="1.5"/><path d="m10.5 16h-4.6c-.5 0-.9-.4-.9-.9v-2.3c0-.5.4-.9.9-.9h4.7c.5 0 .9.4.9.9v2.3c-.1.5-.5.9-1 .9z" fill="#fffac0"/><path d="m38.3 23.3h-6.5c-.5 0-.9-.4-.9-.9v-3.5c0-.5.4-.9.9-.9h6.5c.5 0 .9.4.9.9v3.5c0 .5-.4.9-.9.9z" fill="#e6e7e8" stroke-width="1.5"/></svg><svg height="109.5" viewBox="-1 -1 165.2 109.5" width="165.2"><path d="m48.8 74.8h-22s-13.6 14-19.2 20.2c-6.8 7.7-2.7 8.7 4.4 8.7h140.4c7.1 0 11.2-1 4.4-8.7-5.6-6.3-19.2-20.2-19.2-20.2z" fill="#67686c"/><path d="m152.5 105.2h-140.5c-4 0-7.9-.2-9.1-2.8-.9-2 .2-4.6 3.5-8.4 5.5-6.3 19.1-20.2 19.2-20.3l.4-.5h112.2l.4.5c.1.1 13.7 14 19.2 20.3 3.4 3.8 4.4 6.4 3.5 8.4-.9 2.6-4.9 2.8-8.8 2.8zm-140.5-3h140.5c5.1 0 6.2-.6 6.3-1 0 0 .5-1.2-3.1-5.1-4.9-5.6-16.3-17.3-18.7-19.7h-109.6c-2.4 2.3-13.8 14.1-18.7 19.6-3.5 4-3.1 5.1-3.1 5.1.2.4 1.3 1.1 6.4 1.1z" fill="#343b3b"/><path d="m144.3 81.8h-125.2c-.1 0-.1-.1-.1-.1v-77.6c0-.1.1-.1.1-.1h125.1c.1 0 .1.1.1.1v77.5c.1.1.1.2 0 .2z" fill="#fff"/><path d="m144.3 83.3h-125.2c-.9 0-1.6-.7-1.6-1.6v-77.6c0-.9.7-1.6 1.6-1.6h125.1c.9 0 1.6.7 1.6 1.6v77.5c.1.9-.6 1.7-1.5 1.7zm-123.8-3h122.4v-74.8h-122.4zm84.9 22.8h-44.4c-.8 0-1.5-.7-1.5-1.5s.7-1.5 1.5-1.5h44.4c.8 0 1.5.7 1.5 1.5s-.6 1.5-1.5 1.5z" fill="#343b3b"/></svg></svg>